<?xml version="1.0" encoding="UTF-8"?>
<!DOCTYPE svg PUBLIC "-//W3C//DTD SVG 1.1//EN" "http://www.w3.org/Graphics/SVG/1.1/DTD/svg11.dtd">
<svg xmlns="http://www.w3.org/2000/svg" version="1.1" width="32px" height="32px" style="shape-rendering:geometricPrecision; text-rendering:geometricPrecision; image-rendering:optimizeQuality; fill-rule:evenodd; clip-rule:evenodd" xmlns:xlink="http://www.w3.org/1999/xlink">
<g><path style="opacity:1" fill="#8b71aa" d="M 13.5,0.5 C 18.4459,7.77926 24.1126,14.4459 30.5,20.5C 29.7515,22.3325 28.7515,23.9991 27.5,25.5C 25.6053,24.027 23.9387,22.3603 22.5,20.5C 20.3081,16.5876 18.3081,12.5876 16.5,8.5C 13.3984,6.77329 10.3984,4.77329 7.5,2.5C 9.10163,0.926057 11.1016,0.25939 13.5,0.5 Z"/></g>
<g><path style="opacity:1" fill="#7683b1" d="M 7.5,2.5 C 10.3984,4.77329 13.3984,6.77329 16.5,8.5C 15.5,8.5 14.5,8.5 13.5,8.5C 13.5674,9.95875 13.2341,11.2921 12.5,12.5C 11.7611,12.631 11.0944,12.4643 10.5,12C 8.84101,9.15629 6.84101,6.65629 4.5,4.5C 5.29049,3.59872 6.29049,2.93205 7.5,2.5 Z"/></g>
<g><path style="opacity:1" fill="#f8f9fb" d="M 16.5,8.5 C 18.3081,12.5876 20.3081,16.5876 22.5,20.5C 22.2942,22.5492 21.4609,22.8825 20,21.5C 18.7831,18.0065 17.2831,14.6732 15.5,11.5C 13.1638,13.0728 13.1638,14.4061 15.5,15.5C 15.0431,16.2975 14.3764,16.6309 13.5,16.5C 12.1302,18.2504 11.1302,20.2504 10.5,22.5C 9.62356,22.6309 8.95689,22.2975 8.5,21.5C 9.12723,20.5832 9.46056,19.5832 9.5,18.5C 10.6527,17.6868 10.6527,16.6868 9.5,15.5C 10.7701,14.7124 11.7701,13.7124 12.5,12.5C 13.2341,11.2921 13.5674,9.95875 13.5,8.5C 14.5,8.5 15.5,8.5 16.5,8.5 Z"/></g>
<g><path style="opacity:0.905" fill="#af55a0" d="M 17.5,0.5 C 25.4064,1.40817 30.0731,5.7415 31.5,13.5C 31.5,13.8333 31.5,14.1667 31.5,14.5C 30.8826,14.6107 30.3826,14.944 30,15.5C 27.5774,12.7511 25.5774,9.75108 24,6.5C 21.9373,4.26589 19.7706,2.26589 17.5,0.5 Z"/></g>
<g><path style="opacity:1" fill="#9e62a5" d="M 13.5,-0.5 C 14.8333,-0.5 16.1667,-0.5 17.5,-0.5C 17.5,-0.166667 17.5,0.166667 17.5,0.5C 19.7706,2.26589 21.9373,4.26589 24,6.5C 25.5774,9.75108 27.5774,12.7511 30,15.5C 30.3826,14.944 30.8826,14.6107 31.5,14.5C 31.5,15.5 31.5,16.5 31.5,17.5C 30.596,18.209 30.2627,19.209 30.5,20.5C 24.1126,14.4459 18.4459,7.77926 13.5,0.5C 13.5,0.166667 13.5,-0.166667 13.5,-0.5 Z"/></g>
<g><path style="opacity:1" fill="#5d95b8" d="M 4.5,4.5 C 6.84101,6.65629 8.84101,9.15629 10.5,12C 11.0944,12.4643 11.7611,12.631 12.5,12.5C 11.7701,13.7124 10.7701,14.7124 9.5,15.5C 10.6527,16.6868 10.6527,17.6868 9.5,18.5C 6.60823,15.729 3.94156,12.729 1.5,9.5C 2.11028,7.56594 3.11028,5.89928 4.5,4.5 Z"/></g>
<g><path style="opacity:1" fill="#40acc1" d="M 1.5,9.5 C 3.94156,12.729 6.60823,15.729 9.5,18.5C 9.46056,19.5832 9.12723,20.5832 8.5,21.5C 8.95689,22.2975 9.62356,22.6309 10.5,22.5C 12.117,25.7843 14.4503,28.4509 17.5,30.5C 17.5,30.8333 17.5,31.1667 17.5,31.5C 16.1667,31.5 14.8333,31.5 13.5,31.5C 10.324,30.5788 7.32402,29.0788 4.5,27C 2.13171,24.0926 0.465044,20.9259 -0.5,17.5C -0.5,16.1667 -0.5,14.8333 -0.5,13.5C 0.166667,12.1667 0.833333,10.8333 1.5,9.5 Z"/></g>
<g><path style="opacity:1" fill="#5898b9" d="M 13.5,16.5 C 16.7467,20.6591 19.7467,24.9924 22.5,29.5C 20.9582,30.3007 19.2915,30.634 17.5,30.5C 14.4503,28.4509 12.117,25.7843 10.5,22.5C 11.1302,20.2504 12.1302,18.2504 13.5,16.5 Z"/></g>
<g><path style="opacity:1" fill="#7087b3" d="M 22.5,20.5 C 23.9387,22.3603 25.6053,24.027 27.5,25.5C 26.0552,27.0627 24.3885,28.396 22.5,29.5C 19.7467,24.9924 16.7467,20.6591 13.5,16.5C 14.3764,16.6309 15.0431,16.2975 15.5,15.5C 13.1638,14.4061 13.1638,13.0728 15.5,11.5C 17.2831,14.6732 18.7831,18.0065 20,21.5C 21.4609,22.8825 22.2942,22.5492 22.5,20.5 Z"/></g>
</svg>
