<svg width="200" height="200" viewBox="0 0 200 200" fill="none" xmlns="http://www.w3.org/2000/svg">
<g clip-path="url(#clip0_5685_104245)">
<path d="M100 200C155.228 200 200 155.228 200 100C200 44.7715 155.228 0 100 0C44.7715 0 0 44.7715 0 100C0 155.228 44.7715 200 100 200Z" fill="url(#paint0_radial_5685_104245)"/>
<path d="M143.079 151.355C122.708 147.96 70.4427 128.111 59.6952 75.5357C54.3191 50.0607 59.3951 12.8 59.3951 12.8C19.5679 31.1042 -3.98609 74.9144 5.14846 119.901C15.896 172.476 67.5604 206.75 120.443 196.067C147.701 190.728 169.542 174.539 183.77 152.912C176.677 156.142 163.45 154.75 143.079 151.355Z" fill="url(#paint1_linear_5685_104245)"/>
<path fill-rule="evenodd" clip-rule="evenodd" d="M99.4723 12.207L25.0173 53.2718V53.5923L34.13 59.2492V59.1939L99.4723 22.1792L164.815 59.1939V92.5801C164.815 104.142 164.237 111.793 160.864 120.78L151.406 114.55C150.656 114.056 149.686 114.724 149.88 115.601L155.752 142.154C155.899 142.823 156.66 143.148 157.246 142.794L179.608 129.254C180.357 128.8 180.203 127.672 179.361 127.435L169.324 124.621C173.191 114.422 173.927 105.465 173.927 92.5801V53.2718L99.4723 12.207Z" fill="url(#paint2_linear_5685_104245)"/>
<path fill-rule="evenodd" clip-rule="evenodd" d="M33.8273 52.1031C33.51 51.4964 32.6905 51.3808 32.2178 51.8761L13.4409 71.5485C12.8208 72.1981 13.3049 73.2724 14.2023 73.2382L25.4783 72.809V92.671C25.4783 137.588 56.3794 179.778 98.4285 190.083L99.5031 190.346L100.578 190.083C127.242 183.548 150.215 163.166 162.877 138.424L155.155 133.62C143.836 156.142 123.15 174.807 99.5031 180.977C62.4001 171.295 34.5383 133.382 34.5383 92.671L34.5343 73.8456L44.7887 76.6955C45.6321 76.9299 46.3483 76.0443 45.9426 75.2686L33.8273 52.1031Z" fill="url(#paint3_linear_5685_104245)"/>
<path d="M82.0083 104.575V112.002H57.4111V104.575H82.0083ZM60.5215 65.791V112.002H51V65.791H60.5215ZM78.8027 84.6118V91.8481H57.4111V84.6118H78.8027ZM81.9766 65.791V73.2495H57.4111V65.791H81.9766Z" fill="white"/>
<path d="M102.359 65.791V112.002H92.8691V65.791H102.359ZM116.578 65.791V73.2495H78.8726V65.791H116.578Z" fill="white"/>
<path d="M139.055 99.9097C139.055 99.0845 138.928 98.3439 138.674 97.688C138.441 97.0109 137.997 96.3973 137.341 95.8472C136.685 95.2759 135.764 94.7152 134.58 94.165C133.395 93.6149 131.861 93.0436 129.978 92.4512C127.883 91.7741 125.894 91.0124 124.011 90.166C122.149 89.3197 120.498 88.3358 119.06 87.2144C117.642 86.0718 116.521 84.7493 115.695 83.2471C114.891 81.7448 114.489 79.9992 114.489 78.0103C114.489 76.0848 114.912 74.3392 115.759 72.7734C116.605 71.1865 117.79 69.8324 119.313 68.7109C120.837 67.5684 122.635 66.6903 124.709 66.0767C126.804 65.4631 129.099 65.1562 131.596 65.1562C135.003 65.1562 137.976 65.7699 140.515 66.9971C143.054 68.2243 145.021 69.9064 146.418 72.0435C147.836 74.1805 148.544 76.6243 148.544 79.375H139.086C139.086 78.0208 138.801 76.8359 138.229 75.8203C137.679 74.7835 136.833 73.9689 135.69 73.3765C134.569 72.784 133.151 72.4878 131.438 72.4878C129.787 72.4878 128.412 72.7417 127.312 73.2495C126.211 73.7362 125.386 74.4027 124.836 75.249C124.286 76.0742 124.011 77.0052 124.011 78.042C124.011 78.8249 124.201 79.5337 124.582 80.1685C124.984 80.8032 125.576 81.3957 126.359 81.9458C127.142 82.4959 128.105 83.0143 129.248 83.501C130.39 83.9876 131.713 84.4637 133.215 84.9292C135.733 85.6909 137.944 86.5479 139.848 87.5C141.774 88.4521 143.382 89.5207 144.672 90.7056C145.963 91.8905 146.936 93.234 147.592 94.7363C148.248 96.2386 148.576 97.9419 148.576 99.8462C148.576 101.856 148.185 103.655 147.402 105.242C146.619 106.829 145.487 108.172 144.006 109.272C142.525 110.373 140.758 111.208 138.706 111.78C136.653 112.351 134.357 112.637 131.818 112.637C129.533 112.637 127.28 112.34 125.058 111.748C122.836 111.134 120.816 110.214 118.996 108.987C117.198 107.76 115.759 106.194 114.68 104.29C113.601 102.385 113.061 100.132 113.061 97.5293H122.614C122.614 98.9681 122.836 100.185 123.281 101.179C123.725 102.174 124.349 102.978 125.153 103.591C125.979 104.205 126.952 104.649 128.073 104.924C129.216 105.199 130.464 105.337 131.818 105.337C133.469 105.337 134.823 105.104 135.881 104.639C136.96 104.173 137.753 103.528 138.261 102.703C138.79 101.877 139.055 100.946 139.055 99.9097Z" fill="white"/>
<path d="M84.5938 147.438L92.0938 120.188H101.5L90.0938 154.001H84.4062L84.5938 147.438ZM79.4375 120.188L86.9688 147.47L87.125 154.001H81.4062L70 120.188H79.4375Z" fill="white"/>
<path d="M111.675 133.176H115.435C116.639 133.176 117.632 132.972 118.413 132.565C119.194 132.142 119.772 131.556 120.146 130.808C120.537 130.043 120.732 129.156 120.732 128.146C120.732 127.235 120.553 126.429 120.195 125.729C119.854 125.013 119.325 124.46 118.608 124.069C117.892 123.662 116.989 123.459 115.898 123.459C115.036 123.459 114.238 123.63 113.506 123.972C112.773 124.313 112.188 124.794 111.748 125.412C111.309 126.031 111.089 126.779 111.089 127.658H104.033C104.033 125.705 104.554 124.004 105.596 122.556C106.654 121.107 108.07 119.976 109.844 119.162C111.618 118.348 113.571 117.941 115.703 117.941C118.112 117.941 120.22 118.332 122.026 119.113C123.833 119.878 125.241 121.009 126.25 122.507C127.259 124.004 127.764 125.86 127.764 128.073C127.764 129.196 127.503 130.287 126.982 131.345C126.462 132.386 125.713 133.33 124.736 134.177C123.776 135.007 122.604 135.674 121.221 136.179C119.837 136.667 118.283 136.911 116.558 136.911H111.675V133.176ZM111.675 138.522V134.885H116.558C118.494 134.885 120.195 135.104 121.66 135.544C123.125 135.983 124.354 136.618 125.347 137.448C126.34 138.262 127.088 139.23 127.593 140.354C128.097 141.46 128.35 142.689 128.35 144.04C128.35 145.7 128.032 147.181 127.397 148.483C126.763 149.769 125.868 150.86 124.712 151.755C123.573 152.65 122.238 153.334 120.708 153.806C119.178 154.261 117.51 154.489 115.703 154.489C114.206 154.489 112.733 154.286 111.284 153.879C109.852 153.456 108.55 152.829 107.378 151.999C106.222 151.153 105.295 150.095 104.595 148.825C103.911 147.539 103.569 146.018 103.569 144.26H110.625C110.625 145.171 110.853 145.985 111.309 146.701C111.764 147.417 112.391 147.979 113.188 148.386C114.002 148.793 114.906 148.996 115.898 148.996C117.021 148.996 117.982 148.793 118.779 148.386C119.593 147.963 120.212 147.377 120.635 146.628C121.074 145.863 121.294 144.976 121.294 143.967C121.294 142.665 121.058 141.623 120.586 140.842C120.114 140.044 119.438 139.458 118.56 139.084C117.681 138.71 116.639 138.522 115.435 138.522H111.675Z" fill="white"/>
</g>
<defs>
<radialGradient id="paint0_radial_5685_104245" cx="0" cy="0" r="1" gradientUnits="userSpaceOnUse" gradientTransform="translate(200 -28) rotate(131.262) scale(249.432)">
<stop stop-color="#FBFAF5"/>
<stop offset="0.289222" stop-color="#D4FFFF"/>
<stop offset="0.527498" stop-color="#3D86F4"/>
<stop offset="0.738019" stop-color="#04228D"/>
</radialGradient>
<linearGradient id="paint1_linear_5685_104245" x1="32.978" y1="166.718" x2="114.461" y2="97.3611" gradientUnits="userSpaceOnUse">
<stop stop-color="#8247E5"/>
<stop offset="1" stop-color="#8247E5" stop-opacity="0"/>
</linearGradient>
<linearGradient id="paint2_linear_5685_104245" x1="146.297" y1="1.91339" x2="46.9431" y2="48.2589" gradientUnits="userSpaceOnUse">
<stop offset="0.445694" stop-color="white"/>
<stop offset="1" stop-color="white" stop-opacity="0"/>
</linearGradient>
<linearGradient id="paint3_linear_5685_104245" x1="48.9119" y1="218.035" x2="157.014" y2="155.216" gradientUnits="userSpaceOnUse">
<stop offset="0.559619" stop-color="white"/>
<stop offset="0.918509" stop-color="white" stop-opacity="0"/>
</linearGradient>
<clipPath id="clip0_5685_104245">
<rect width="200" height="200" rx="100" fill="white"/>
</clipPath>
</defs>
</svg>
