<svg width="60" height="61" viewBox="0 0 60 61" fill="none" xmlns="http://www.w3.org/2000/svg">
<g clip-path="url(#clip0_3935_102961)">
<path d="M30 60.5C46.5685 60.5 60 47.0685 60 30.5C60 13.9314 46.5685 0.5 30 0.5C13.4315 0.5 0 13.9314 0 30.5C0 47.0685 13.4315 60.5 30 60.5Z" fill="#001845"/>
<path d="M42.9237 45.6065C36.8125 44.588 21.1329 38.6332 17.9086 22.8607C16.2958 15.2182 17.8186 4.04001 17.8186 4.04001C5.87041 9.53126 -1.19578 22.6743 1.54459 36.1703C4.76884 51.9428 20.2682 62.225 36.1328 59.02C44.3104 57.4183 50.8626 52.5617 55.131 46.0735C53.0033 47.0425 49.0349 46.6251 42.9237 45.6065Z" fill="url(#paint0_linear_3935_102961)"/>
<path fill-rule="evenodd" clip-rule="evenodd" d="M29.5572 6.0293L8.50252 17.6418V17.7324L11.0795 19.3321V19.3164L29.5572 8.84928L48.035 19.3164V28.7575C48.035 32.0271 47.8717 34.1905 46.9177 36.732L45.72 35.943C44.9701 35.4489 43.9995 36.1171 44.1934 36.9939L45.2561 41.7995C45.4039 42.468 46.1647 42.7936 46.7504 42.439L50.8027 39.9854C51.5515 39.5321 51.3976 38.4035 50.5548 38.1672L49.3101 37.8181C50.4038 34.9341 50.6119 32.401 50.6119 28.7575V17.6418L29.5572 6.0293Z" fill="url(#paint1_linear_3935_102961)"/>
<path fill-rule="evenodd" clip-rule="evenodd" d="M11.4574 18.1968C11.1401 17.5901 10.3206 17.4745 9.84787 17.9698L6.44974 21.53C5.82968 22.1797 6.31377 23.2539 7.21115 23.2198L8.6328 23.1657V28.7823C8.6328 41.4841 17.3711 53.4147 29.2619 56.3287L29.5658 56.4032L29.8697 56.3287C37.4099 54.4809 43.9063 48.7172 47.4869 41.7205L45.3032 40.362C42.1023 46.7308 36.2529 52.0089 29.5658 53.7539C19.0737 51.016 11.1948 40.2948 11.1948 28.7823L11.1937 23.4588L12.4989 23.8215C13.3422 24.0559 14.0584 23.1703 13.6528 22.3946L11.4574 18.1968Z" fill="url(#paint2_linear_3935_102961)"/>
<path d="M28.109 44.364C24.171 43.9265 21.5489 41.5151 20.8888 38.1798C20.7045 37.2487 21.4947 36.4711 22.4439 36.4711C23.393 36.4711 24.1247 37.2564 24.3754 38.1718C24.964 40.3216 26.7622 41.5633 29.6367 41.5633C33.2012 41.5633 35.1108 39.6537 35.1108 37.3622C35.1108 30.8696 20.9798 34.1795 20.9798 24.6316C20.9798 21.4489 23.9079 18.139 28.109 17.6297V15.2746C28.109 14.466 28.7645 13.8105 29.573 13.8105C30.3816 13.8105 31.037 14.466 31.037 15.2746V17.6297C34.3985 18.1719 36.9288 20.6537 37.605 23.8163C37.8035 24.7445 37.0148 25.5227 36.0656 25.5227C35.1165 25.5227 34.3776 24.7342 34.0883 23.8301C33.4381 21.7982 31.6347 20.4305 29.5094 20.4305C26.3267 20.4305 24.2898 22.5947 24.2898 24.6316C24.2898 31.1242 38.4208 27.8142 38.4208 37.3622C38.4208 40.7995 35.6201 43.8548 31.037 44.4914V46.8465C31.037 47.6551 30.3816 48.3105 29.573 48.3105C28.7645 48.3105 28.109 47.6551 28.109 46.8465V44.364Z" fill="white"/>
</g>
<defs>
<linearGradient id="paint0_linear_3935_102961" x1="9.89344" y1="50.2155" x2="34.3382" y2="29.4083" gradientUnits="userSpaceOnUse">
<stop stop-color="#F3BA2F"/>
<stop offset="1" stop-color="#F3BA2F" stop-opacity="0"/>
</linearGradient>
<linearGradient id="paint1_linear_3935_102961" x1="41.9618" y1="3.15101" x2="14.421" y2="15.8265" gradientUnits="userSpaceOnUse">
<stop offset="0.445694" stop-color="white"/>
<stop offset="1" stop-color="white" stop-opacity="0"/>
</linearGradient>
<linearGradient id="paint2_linear_3935_102961" x1="16.0366" y1="64.1332" x2="46.0418" y2="46.897" gradientUnits="userSpaceOnUse">
<stop offset="0.559619" stop-color="white"/>
<stop offset="0.918509" stop-color="white" stop-opacity="0"/>
</linearGradient>
<clipPath id="clip0_3935_102961">
<rect width="60" height="60" fill="white" transform="translate(0 0.5)"/>
</clipPath>
</defs>
</svg>
