<?xml version="1.0" encoding="UTF-8"?>
<!DOCTYPE svg PUBLIC "-//W3C//DTD SVG 1.1//EN" "http://www.w3.org/Graphics/SVG/1.1/DTD/svg11.dtd">
<svg xmlns="http://www.w3.org/2000/svg" version="1.1" width="150px" height="150px" style="shape-rendering:geometricPrecision; text-rendering:geometricPrecision; image-rendering:optimizeQuality; fill-rule:evenodd; clip-rule:evenodd" xmlns:xlink="http://www.w3.org/1999/xlink">
<g><path style="opacity:0.999" fill="#edd0d6" d="M 67.5,-0.5 C 73.8333,-0.5 80.1667,-0.5 86.5,-0.5C 86.8417,0.338246 87.5084,0.67158 88.5,0.5C 91.5938,8.42252 96.0938,15.4225 102,21.5C 102.692,22.4368 102.525,23.1034 101.5,23.5C 92.3074,18.6517 83.1408,13.6517 74,8.5C 73.6174,9.05596 73.1174,9.38929 72.5,9.5C 71.948,5.44905 70.2814,2.11571 67.5,-0.5 Z"/></g>
<g><path style="opacity:1" fill="#e193a5" d="M 62.5,-0.5 C 64.1667,-0.5 65.8333,-0.5 67.5,-0.5C 70.2814,2.11571 71.948,5.44905 72.5,9.5C 70.2048,10.4746 68.2048,11.8079 66.5,13.5C 61.5499,15.3084 56.8832,17.6417 52.5,20.5C 51.3829,15.8102 50.0495,11.1435 48.5,6.5C 48.685,5.41635 49.0183,4.41635 49.5,3.5C 53.8753,1.9945 58.2086,0.661164 62.5,-0.5 Z"/></g>
<g><path style="opacity:0.992" fill="#f0dee2" d="M 88.5,0.5 C 90.2161,0.628669 91.8828,0.962003 93.5,1.5C 103.507,20.1852 118.84,32.1852 139.5,37.5C 142.776,41.9612 145.109,46.9612 146.5,52.5C 141.486,51.7457 136.486,50.7457 131.5,49.5C 130.833,52.6417 130.166,55.6417 129.5,58.5C 129.666,52.1579 129.5,45.8246 129,39.5C 119.852,34.0138 110.686,28.6804 101.5,23.5C 102.525,23.1034 102.692,22.4368 102,21.5C 96.0938,15.4225 91.5938,8.42252 88.5,0.5 Z"/></g>
<g><path style="opacity:0.989" fill="#f3f0f0" d="M 93.5,1.5 C 113.861,7.20705 129.194,19.2071 139.5,37.5C 118.84,32.1852 103.507,20.1852 93.5,1.5 Z"/></g>
<g><path style="opacity:1" fill="#fefcfc" d="M 101.5,23.5 C 110.686,28.6804 119.852,34.0138 129,39.5C 129.5,45.8246 129.666,52.1579 129.5,58.5C 129.5,64.5 129.5,70.5 129.5,76.5C 129.492,79.5448 129.159,82.5448 128.5,85.5C 127.992,87.8654 127.325,90.1987 126.5,92.5C 128.304,93.7681 130.304,94.4348 132.5,94.5C 134.233,95.0076 134.566,95.841 133.5,97C 128.297,100.366 122.964,103.532 117.5,106.5C 116.192,103.927 115.192,101.26 114.5,98.5C 114.149,95.0968 113.482,91.7635 112.5,88.5C 112.351,87.448 112.517,86.448 113,85.5C 115.034,87.0316 117.201,88.3649 119.5,89.5C 121.259,85.7074 122.259,81.7074 122.5,77.5C 123.824,66.3265 123.824,54.9931 122.5,43.5C 108.968,35.5679 95.3011,27.9012 81.5,20.5C 78.7592,17.9253 75.7592,16.9253 72.5,17.5C 71.391,17.5569 70.391,17.8902 69.5,18.5C 67.953,17.2318 66.953,15.5652 66.5,13.5C 68.2048,11.8079 70.2048,10.4746 72.5,9.5C 73.1174,9.38929 73.6174,9.05596 74,8.5C 83.1408,13.6517 92.3074,18.6517 101.5,23.5 Z"/></g>
<g><path style="opacity:1" fill="#b44f64" d="M 37.5,8.5 C 38.4539,14.1965 40.1205,19.6965 42.5,25C 41.6973,27.8614 42.0307,30.6947 43.5,33.5C 45.1913,31.7438 47.1913,31.2438 49.5,32C 52.5934,38.0614 56.2601,43.5614 60.5,48.5C 59.8333,48.5 59.1667,48.5 58.5,48.5C 53.5,48.5 48.5,48.5 43.5,48.5C 43.5706,42.2782 40.9039,37.9449 35.5,35.5C 34.2387,30.3069 32.4054,25.3069 30,20.5C 28.8545,19.3157 27.6879,19.3157 26.5,20.5C 25.596,19.791 25.2627,18.791 25.5,17.5C 29.1038,14.0251 33.1038,11.0251 37.5,8.5 Z"/></g>
<g><path style="opacity:1" fill="#f4d8de" d="M 66.5,13.5 C 66.953,15.5652 67.953,17.2318 69.5,18.5C 68.1667,19.5 66.8333,20.5 65.5,21.5C 62.6484,23.0909 59.6484,24.4242 56.5,25.5C 54.478,24.493 53.1447,22.8263 52.5,20.5C 56.8832,17.6417 61.5499,15.3084 66.5,13.5 Z"/></g>
<g><path style="opacity:1" fill="#e7b1bd" d="M 81.5,20.5 C 90.7464,36.3961 104.08,47.7295 121.5,54.5C 122.466,56.396 122.799,58.396 122.5,60.5C 119.111,59.3689 115.778,58.0355 112.5,56.5C 111.614,57.325 111.281,58.325 111.5,59.5C 108.615,59.8064 105.948,59.4731 103.5,58.5C 105.833,58.5 108.167,58.5 110.5,58.5C 109.017,51.0484 104.35,47.715 96.5,48.5C 91.2495,43.0749 86.0829,37.4083 81,31.5C 77.9043,26.9719 75.0709,22.3053 72.5,17.5C 75.7592,16.9253 78.7592,17.9253 81.5,20.5 Z"/></g>
<g><path style="opacity:1" fill="#dda6b2" d="M 52.5,20.5 C 53.1447,22.8263 54.478,24.493 56.5,25.5C 56.5,25.8333 56.5,26.1667 56.5,26.5C 53.8599,27.8201 51.1932,29.1534 48.5,30.5C 46.2754,29.0538 45.4421,27.0538 46,24.5C 48.0519,22.9415 50.2185,21.6082 52.5,20.5 Z"/></g>
<g><path style="opacity:0.925" fill="#8f233a" d="M 25.5,17.5 C 25.2627,18.791 25.596,19.791 26.5,20.5C 24.5273,21.806 22.8606,23.4727 21.5,25.5C 17.4471,30.2192 13.7804,35.2192 10.5,40.5C 4.14109,52.9078 1.47442,65.9078 2.5,79.5C 2.27863,82.2788 2.61197,84.9455 3.5,87.5C 8.66595,113.989 23.6659,132.322 48.5,142.5C 52.403,144.898 56.7363,146.231 61.5,146.5C 68.3134,147.491 75.3134,147.825 82.5,147.5C 88.3718,146.927 94.0385,145.593 99.5,143.5C 102.912,142.925 105.912,141.592 108.5,139.5C 108.833,139.5 109.167,139.5 109.5,139.5C 109.5,140.167 109.5,140.833 109.5,141.5C 102.026,144.99 94.3595,147.657 86.5,149.5C 78.5,149.5 70.5,149.5 62.5,149.5C 28.5,141.5 7.5,120.5 -0.5,86.5C -0.5,78.5 -0.5,70.5 -0.5,62.5C 2.73611,44.361 11.4028,29.361 25.5,17.5 Z"/></g>
<g><path style="opacity:1" fill="#dc879a" d="M 65.5,21.5 C 68.8911,25.9277 72.0578,30.5944 75,35.5C 78.6699,40.0017 82.5032,44.335 86.5,48.5C 81.5,48.5 76.5,48.5 71.5,48.5C 65.9926,41.4762 60.9926,34.1429 56.5,26.5C 56.5,26.1667 56.5,25.8333 56.5,25.5C 59.6484,24.4242 62.6484,23.0909 65.5,21.5 Z"/></g>
<g><path style="opacity:1" fill="#ebc1ca" d="M 81.5,20.5 C 95.3011,27.9012 108.968,35.5679 122.5,43.5C 123.824,54.9931 123.824,66.3265 122.5,77.5C 122.5,77.1667 122.5,76.8333 122.5,76.5C 122.5,71.1667 122.5,65.8333 122.5,60.5C 122.799,58.396 122.466,56.396 121.5,54.5C 104.08,47.7295 90.7464,36.3961 81.5,20.5 Z"/></g>
<g><path style="opacity:1" fill="#af3047" d="M 43.5,48.5 C 41.8333,48.5 40.1667,48.5 38.5,48.5C 36.01,44.8621 33.51,41.1955 31,37.5C 30.6667,38.1667 30.3333,38.8333 30,39.5C 27.4728,35.7789 25.4728,31.7789 24,27.5C 23.2917,26.6195 22.4584,25.9528 21.5,25.5C 22.8606,23.4727 24.5273,21.806 26.5,20.5C 27.6879,19.3157 28.8545,19.3157 30,20.5C 32.4054,25.3069 34.2387,30.3069 35.5,35.5C 40.9039,37.9449 43.5706,42.2782 43.5,48.5 Z"/></g>
<g><path style="opacity:1" fill="#c86f83" d="M 49.5,3.5 C 49.0183,4.41635 48.685,5.41635 48.5,6.5C 50.0495,11.1435 51.3829,15.8102 52.5,20.5C 50.2185,21.6082 48.0519,22.9415 46,24.5C 45.4421,27.0538 46.2754,29.0538 48.5,30.5C 51.1932,29.1534 53.8599,27.8201 56.5,26.5C 60.9926,34.1429 65.9926,41.4762 71.5,48.5C 68.1667,48.5 64.8333,48.5 61.5,48.5C 61.1667,48.5 60.8333,48.5 60.5,48.5C 56.2601,43.5614 52.5934,38.0614 49.5,32C 47.1913,31.2438 45.1913,31.7438 43.5,33.5C 42.0307,30.6947 41.6973,27.8614 42.5,25C 40.1205,19.6965 38.4539,14.1965 37.5,8.5C 41.2662,6.2839 45.2662,4.61723 49.5,3.5 Z"/></g>
<g><path style="opacity:1" fill="#e49fae" d="M 72.5,17.5 C 75.0709,22.3053 77.9043,26.9719 81,31.5C 86.0829,37.4083 91.2495,43.0749 96.5,48.5C 93.4121,48.3773 90.7454,49.3773 88.5,51.5C 87.8243,50.3984 87.1577,49.3984 86.5,48.5C 82.5032,44.335 78.6699,40.0017 75,35.5C 72.0578,30.5944 68.8911,25.9277 65.5,21.5C 66.8333,20.5 68.1667,19.5 69.5,18.5C 70.391,17.8902 71.391,17.5569 72.5,17.5 Z"/></g>
<g><path style="opacity:1" fill="#b02138" d="M 21.5,25.5 C 22.4584,25.9528 23.2917,26.6195 24,27.5C 25.4728,31.7789 27.4728,35.7789 30,39.5C 30.3333,38.8333 30.6667,38.1667 31,37.5C 33.51,41.1955 36.01,44.8621 38.5,48.5C 37.5166,52.2984 37.1832,56.2984 37.5,60.5C 35.7278,58.7104 33.7278,57.3771 31.5,56.5C 32.3764,56.6309 33.0431,56.2975 33.5,55.5C 30.7547,49.675 27.7547,44.0084 24.5,38.5C 21.8136,40.8558 19.147,43.1891 16.5,45.5C 14.7726,43.4333 12.7726,41.7666 10.5,40.5C 13.7804,35.2192 17.4471,30.2192 21.5,25.5 Z"/></g>
<g><path style="opacity:1" fill="#fdf6f7" d="M 31.5,56.5 C 29.5,56.1667 27.5,55.8333 25.5,55.5C 25.1755,62.6866 25.5088,69.6866 26.5,76.5C 26.298,78.9496 26.6314,81.283 27.5,83.5C 32.5954,107.715 46.5954,124.381 69.5,133.5C 72.4196,136.121 75.4196,136.121 78.5,133.5C 79.8333,133.167 81.1667,132.833 82.5,132.5C 84.9689,133.607 85.9689,135.607 85.5,138.5C 83.0128,139.323 80.6794,140.323 78.5,141.5C 71.4224,141.927 64.7557,140.26 58.5,136.5C 41.9391,127.066 30.2725,113.399 23.5,95.5C 19.1491,82.22 17.4824,68.5534 18.5,54.5C 15.4281,54.8174 12.4281,54.4841 9.5,53.5C 11.8558,50.8136 14.1891,48.147 16.5,45.5C 19.147,43.1891 21.8136,40.8558 24.5,38.5C 27.7547,44.0084 30.7547,49.675 33.5,55.5C 33.0431,56.2975 32.3764,56.6309 31.5,56.5 Z"/></g>
<g><path style="opacity:1" fill="#fdf8f9" d="M 61.5,48.5 C 64.8333,48.5 68.1667,48.5 71.5,48.5C 76.5,48.5 81.5,48.5 86.5,48.5C 87.1577,49.3984 87.8243,50.3984 88.5,51.5C 90.7454,49.3773 93.4121,48.3773 96.5,48.5C 104.35,47.715 109.017,51.0484 110.5,58.5C 108.167,58.5 105.833,58.5 103.5,58.5C 102.967,55.4752 101.133,54.1419 98,54.5C 94.2332,54.2656 92.5665,55.9323 93,59.5C 97.638,62.3792 102.471,64.8792 107.5,67C 110.029,69.6417 111.029,72.8084 110.5,76.5C 109.409,79.4278 107.409,81.5945 104.5,83C 101.183,83.4983 97.8499,83.665 94.5,83.5C 89.2452,82.5761 85.9118,79.5761 84.5,74.5C 86.2789,72.6565 88.6122,71.9898 91.5,72.5C 92.5601,78.0953 95.8935,79.9286 101.5,78C 103.576,76.1159 103.91,73.9492 102.5,71.5C 96.9725,69.4866 91.8059,66.8199 87,63.5C 85.7114,60.6492 85.2114,57.6492 85.5,54.5C 82.5,54.5 79.5,54.5 76.5,54.5C 79.6248,53.5206 82.9581,53.1872 86.5,53.5C 86.5,52.1667 86.5,50.8333 86.5,49.5C 77.9832,49.8261 69.6499,49.4927 61.5,48.5 Z"/></g>
<g><path style="opacity:1" fill="#fefcfc" d="M 58.5,48.5 C 59.1667,48.5 59.8333,48.5 60.5,48.5C 60.8333,48.5 61.1667,48.5 61.5,48.5C 69.6499,49.4927 77.9832,49.8261 86.5,49.5C 86.5,50.8333 86.5,52.1667 86.5,53.5C 82.9581,53.1872 79.6248,53.5206 76.5,54.5C 76.5,58.5 76.5,62.5 76.5,66.5C 76.5,70.1667 76.5,73.8333 76.5,77.5C 76.5,79.5 76.5,81.5 76.5,83.5C 74.1667,83.5 71.8333,83.5 69.5,83.5C 69.5,73.8333 69.5,64.1667 69.5,54.5C 64.8333,54.5 60.1667,54.5 55.5,54.5C 52.1667,54.5 48.8333,54.5 45.5,54.5C 44.5233,57.2869 44.19,60.2869 44.5,63.5C 49.1667,63.5 53.8333,63.5 58.5,63.5C 58.5,65.1667 58.5,66.8333 58.5,68.5C 55.1667,68.5 51.8333,68.5 48.5,68.5C 47.5,68.5 46.5,68.5 45.5,68.5C 44.5206,71.6248 44.1872,74.9581 44.5,78.5C 49.8333,78.5 55.1667,78.5 60.5,78.5C 60.5,80.1667 60.5,81.8333 60.5,83.5C 59.5,83.5 58.5,83.5 57.5,83.5C 54.5,83.5 51.5,83.5 48.5,83.5C 45.1667,83.5 41.8333,83.5 38.5,83.5C 38.5,72.1667 38.5,60.8333 38.5,49.5C 45.3543,49.824 52.021,49.4907 58.5,48.5 Z"/></g>
<g><path style="opacity:1" fill="#eac3cb" d="M 38.5,48.5 C 40.1667,48.5 41.8333,48.5 43.5,48.5C 48.5,48.5 53.5,48.5 58.5,48.5C 52.021,49.4907 45.3543,49.824 38.5,49.5C 38.5,60.8333 38.5,72.1667 38.5,83.5C 37.508,76.0182 37.1746,68.3516 37.5,60.5C 37.1832,56.2984 37.5166,52.2984 38.5,48.5 Z"/></g>
<g><path style="opacity:1" fill="#ba6174" d="M 55.5,54.5 C 60.1667,54.5 64.8333,54.5 69.5,54.5C 69.5,64.1667 69.5,73.8333 69.5,83.5C 69.1667,83.5 68.8333,83.5 68.5,83.5C 68.8282,78.1254 68.4948,72.7921 67.5,67.5C 62.8039,63.7457 58.8039,59.4124 55.5,54.5 Z"/></g>
<g><path style="opacity:1" fill="#e9bac4" d="M 146.5,52.5 C 147.793,55.6791 148.46,59.0124 148.5,62.5C 142.479,61.9973 136.479,61.3307 130.5,60.5C 130.5,63.8333 130.5,67.1667 130.5,70.5C 130.795,72.7354 130.461,74.7354 129.5,76.5C 129.5,70.5 129.5,64.5 129.5,58.5C 130.166,55.6417 130.833,52.6417 131.5,49.5C 136.486,50.7457 141.486,51.7457 146.5,52.5 Z"/></g>
<g><path style="opacity:1" fill="#cb7286" d="M 76.5,54.5 C 79.5,54.5 82.5,54.5 85.5,54.5C 85.2114,57.6492 85.7114,60.6492 87,63.5C 91.8059,66.8199 96.9725,69.4866 102.5,71.5C 103.91,73.9492 103.576,76.1159 101.5,78C 95.8935,79.9286 92.5601,78.0953 91.5,72.5C 88.6122,71.9898 86.2789,72.6565 84.5,74.5C 82.5071,71.1738 79.8405,68.5071 76.5,66.5C 76.5,62.5 76.5,58.5 76.5,54.5 Z"/></g>
<g><path style="opacity:1" fill="#d2122a" d="M 10.5,40.5 C 12.7726,41.7666 14.7726,43.4333 16.5,45.5C 14.1891,48.147 11.8558,50.8136 9.5,53.5C 12.4281,54.4841 15.4281,54.8174 18.5,54.5C 17.4824,68.5534 19.1491,82.22 23.5,95.5C 16.5608,87.7168 9.72742,79.7168 3,71.5C 2.50258,74.146 2.33591,76.8127 2.5,79.5C 1.47442,65.9078 4.14109,52.9078 10.5,40.5 Z"/></g>
<g><path style="opacity:1" fill="#d19ba7" d="M 45.5,54.5 C 45.5,57.1667 45.5,59.8333 45.5,62.5C 50.0323,62.1818 54.3656,62.5151 58.5,63.5C 53.8333,63.5 49.1667,63.5 44.5,63.5C 44.19,60.2869 44.5233,57.2869 45.5,54.5 Z"/></g>
<g><path style="opacity:1" fill="#c1142d" d="M 31.5,56.5 C 33.7278,57.3771 35.7278,58.7104 37.5,60.5C 37.1746,68.3516 37.508,76.0182 38.5,83.5C 41.8333,83.5 45.1667,83.5 48.5,83.5C 61.5,98.8333 74.5,114.167 87.5,129.5C 85.9275,130.687 84.2608,131.687 82.5,132.5C 81.1667,132.833 79.8333,133.167 78.5,133.5C 61.796,112.747 44.6293,92.4135 27,72.5C 26.51,73.7932 26.3433,75.1266 26.5,76.5C 25.5088,69.6866 25.1755,62.6866 25.5,55.5C 27.5,55.8333 29.5,56.1667 31.5,56.5 Z"/></g>
<g><path style="opacity:1" fill="#e293a5" d="M 103.5,58.5 C 105.948,59.4731 108.615,59.8064 111.5,59.5C 111.281,58.325 111.614,57.325 112.5,56.5C 115.778,58.0355 119.111,59.3689 122.5,60.5C 122.5,65.8333 122.5,71.1667 122.5,76.5C 118.812,75.6595 115.312,74.3262 112,72.5C 111.79,74.0581 111.29,75.3915 110.5,76.5C 111.029,72.8084 110.029,69.6417 107.5,67C 102.471,64.8792 97.638,62.3792 93,59.5C 92.5665,55.9323 94.2332,54.2656 98,54.5C 101.133,54.1419 102.967,55.4752 103.5,58.5 Z"/></g>
<g><path style="opacity:1" fill="#e49fae" d="M 148.5,62.5 C 148.833,62.5 149.167,62.5 149.5,62.5C 149.5,66.1667 149.5,69.8333 149.5,73.5C 143.284,71.9928 136.951,70.9928 130.5,70.5C 130.5,67.1667 130.5,63.8333 130.5,60.5C 136.479,61.3307 142.479,61.9973 148.5,62.5 Z"/></g>
<g><path style="opacity:1" fill="#b21830" d="M 45.5,68.5 C 46.5,68.5 47.5,68.5 48.5,68.5C 49.5587,71.6179 50.8921,74.6179 52.5,77.5C 50.1667,77.5 47.8333,77.5 45.5,77.5C 45.5,74.5 45.5,71.5 45.5,68.5 Z"/></g>
<g><path style="opacity:1" fill="#cb142b" d="M 78.5,133.5 C 75.4196,136.121 72.4196,136.121 69.5,133.5C 69.9382,133.565 70.2716,133.399 70.5,133C 56.6749,116.012 42.3415,99.5117 27.5,83.5C 26.6314,81.283 26.298,78.9496 26.5,76.5C 26.3433,75.1266 26.51,73.7932 27,72.5C 44.6293,92.4135 61.796,112.747 78.5,133.5 Z"/></g>
<g><path style="opacity:1" fill="#d896a1" d="M 45.5,68.5 C 45.5,71.5 45.5,74.5 45.5,77.5C 47.8333,77.5 50.1667,77.5 52.5,77.5C 55.5,77.5 58.5,77.5 61.5,77.5C 61.5,79.5 61.5,81.5 61.5,83.5C 61.1667,83.5 60.8333,83.5 60.5,83.5C 60.5,81.8333 60.5,80.1667 60.5,78.5C 55.1667,78.5 49.8333,78.5 44.5,78.5C 44.1872,74.9581 44.5206,71.6248 45.5,68.5 Z"/></g>
<g><path style="opacity:1" fill="#da8598" d="M 130.5,70.5 C 136.951,70.9928 143.284,71.9928 149.5,73.5C 149.5,77.8333 149.5,82.1667 149.5,86.5C 149.167,86.5 148.833,86.5 148.5,86.5C 143.032,85.143 137.365,84.143 131.5,83.5C 130.261,83.9424 129.261,84.6091 128.5,85.5C 129.159,82.5448 129.492,79.5448 129.5,76.5C 130.461,74.7354 130.795,72.7354 130.5,70.5 Z"/></g>
<g><path style="opacity:1" fill="#e70e25" d="M 23.5,95.5 C 30.2725,113.399 41.9391,127.066 58.5,136.5C 60.5566,140.067 63.2232,143.234 66.5,146C 64.8659,146.494 63.1992,146.66 61.5,146.5C 56.7363,146.231 52.403,144.898 48.5,142.5C 49.2389,142.631 49.9056,142.464 50.5,142C 34.9684,123.641 19.3018,105.474 3.5,87.5C 2.61197,84.9455 2.27863,82.2788 2.5,79.5C 2.33591,76.8127 2.50258,74.146 3,71.5C 9.72742,79.7168 16.5608,87.7168 23.5,95.5 Z"/></g>
<g><path style="opacity:1" fill="#ca7285" d="M 122.5,76.5 C 122.5,76.8333 122.5,77.1667 122.5,77.5C 122.259,81.7074 121.259,85.7074 119.5,89.5C 117.201,88.3649 115.034,87.0316 113,85.5C 112.517,86.448 112.351,87.448 112.5,88.5C 111.596,87.791 111.263,86.791 111.5,85.5C 105.671,85.0316 100.004,84.3649 94.5,83.5C 97.8499,83.665 101.183,83.4983 104.5,83C 107.409,81.5945 109.409,79.4278 110.5,76.5C 111.29,75.3915 111.79,74.0581 112,72.5C 115.312,74.3262 118.812,75.6595 122.5,76.5 Z"/></g>
<g><path style="opacity:1" fill="#d4142a" d="M 27.5,83.5 C 42.3415,99.5117 56.6749,116.012 70.5,133C 70.2716,133.399 69.9382,133.565 69.5,133.5C 46.5954,124.381 32.5954,107.715 27.5,83.5 Z"/></g>
<g><path style="opacity:0.995" fill="#8e233a" d="M 57.5,83.5 C 58.5,83.5 59.5,83.5 60.5,83.5C 60.8333,83.5 61.1667,83.5 61.5,83.5C 82.5742,101.596 107.074,112.263 135,115.5C 136.303,115.022 137.469,114.355 138.5,113.5C 131.471,125.529 121.804,134.862 109.5,141.5C 109.5,140.833 109.5,140.167 109.5,139.5C 113.815,137.34 117.815,134.673 121.5,131.5C 117.856,126.688 114.022,122.021 110,117.5C 109.89,120.768 108.39,123.101 105.5,124.5C 104.855,122.174 103.522,120.507 101.5,119.5C 102.29,118.206 103.29,117.039 104.5,116C 103.743,114.488 102.743,113.154 101.5,112C 83.6005,107.233 68.9338,97.7335 57.5,83.5 Z"/></g>
<g><path style="opacity:1" fill="#b3556a" d="M 76.5,66.5 C 79.8405,68.5071 82.5071,71.1738 84.5,74.5C 85.9118,79.5761 89.2452,82.5761 94.5,83.5C 100.004,84.3649 105.671,85.0316 111.5,85.5C 111.263,86.791 111.596,87.791 112.5,88.5C 113.482,91.7635 114.149,95.0968 114.5,98.5C 113.596,97.791 113.263,96.791 113.5,95.5C 99.9468,91.8895 87.6135,85.8895 76.5,77.5C 76.5,73.8333 76.5,70.1667 76.5,66.5 Z"/></g>
<g><path style="opacity:1" fill="#a03e53" d="M 76.5,77.5 C 87.6135,85.8895 99.9468,91.8895 113.5,95.5C 113.263,96.791 113.596,97.791 114.5,98.5C 115.192,101.26 116.192,103.927 117.5,106.5C 122.964,103.532 128.297,100.366 133.5,97C 134.566,95.841 134.233,95.0076 132.5,94.5C 137.262,93.1087 141.928,93.442 146.5,95.5C 145.657,101.043 143.657,106.043 140.5,110.5C 113.563,108.97 89.563,99.9702 68.5,83.5C 68.8333,83.5 69.1667,83.5 69.5,83.5C 71.8333,83.5 74.1667,83.5 76.5,83.5C 76.5,81.5 76.5,79.5 76.5,77.5 Z"/></g>
<g><path style="opacity:1" fill="#c3687c" d="M 148.5,86.5 C 148.58,89.7814 147.913,92.7814 146.5,95.5C 141.928,93.442 137.262,93.1087 132.5,94.5C 130.304,94.4348 128.304,93.7681 126.5,92.5C 127.325,90.1987 127.992,87.8654 128.5,85.5C 129.261,84.6091 130.261,83.9424 131.5,83.5C 137.365,84.143 143.032,85.143 148.5,86.5 Z"/></g>
<g><path style="opacity:1" fill="#ae1931" d="M 48.5,83.5 C 51.5,83.5 54.5,83.5 57.5,83.5C 68.9338,97.7335 83.6005,107.233 101.5,112C 102.743,113.154 103.743,114.488 104.5,116C 103.29,117.039 102.29,118.206 101.5,119.5C 99.8333,120.5 98.5,121.833 97.5,123.5C 94.2911,125.265 91.2911,127.265 88.5,129.5C 88.1667,129.5 87.8333,129.5 87.5,129.5C 74.5,114.167 61.5,98.8333 48.5,83.5 Z"/></g>
<g><path style="opacity:1" fill="#f00721" d="M 3.5,87.5 C 19.3018,105.474 34.9684,123.641 50.5,142C 49.9056,142.464 49.2389,142.631 48.5,142.5C 23.6659,132.322 8.66595,113.989 3.5,87.5 Z"/></g>
<g><path style="opacity:1" fill="#953046" d="M 45.5,54.5 C 48.8333,54.5 52.1667,54.5 55.5,54.5C 58.8039,59.4124 62.8039,63.7457 67.5,67.5C 68.4948,72.7921 68.8282,78.1254 68.5,83.5C 89.563,99.9702 113.563,108.97 140.5,110.5C 140.573,112.027 139.906,113.027 138.5,113.5C 137.469,114.355 136.303,115.022 135,115.5C 107.074,112.263 82.5742,101.596 61.5,83.5C 61.5,81.5 61.5,79.5 61.5,77.5C 58.5,77.5 55.5,77.5 52.5,77.5C 50.8921,74.6179 49.5587,71.6179 48.5,68.5C 51.8333,68.5 55.1667,68.5 58.5,68.5C 58.5,66.8333 58.5,65.1667 58.5,63.5C 54.3656,62.5151 50.0323,62.1818 45.5,62.5C 45.5,59.8333 45.5,57.1667 45.5,54.5 Z"/></g>
<g><path style="opacity:1" fill="#a31c34" d="M 109.5,139.5 C 109.167,139.5 108.833,139.5 108.5,139.5C 106.5,137.329 104.666,134.996 103,132.5C 102.184,131.177 101.017,130.511 99.5,130.5C 99.8333,129.833 100.167,129.167 100.5,128.5C 102.749,127.92 104.415,126.587 105.5,124.5C 108.39,123.101 109.89,120.768 110,117.5C 114.022,122.021 117.856,126.688 121.5,131.5C 117.815,134.673 113.815,137.34 109.5,139.5 Z"/></g>
<g><path style="opacity:1" fill="#c16175" d="M 101.5,119.5 C 103.522,120.507 104.855,122.174 105.5,124.5C 104.415,126.587 102.749,127.92 100.5,128.5C 99.5272,126.851 98.5272,125.184 97.5,123.5C 98.5,121.833 99.8333,120.5 101.5,119.5 Z"/></g>
<g><path style="opacity:1" fill="#de98a6" d="M 97.5,123.5 C 98.5272,125.184 99.5272,126.851 100.5,128.5C 100.167,129.167 99.8333,129.833 99.5,130.5C 96.8646,131.811 94.5313,133.478 92.5,135.5C 92.1667,135.5 91.8333,135.5 91.5,135.5C 91.6602,133.801 91.4935,132.134 91,130.5C 90.3292,129.748 89.4959,129.414 88.5,129.5C 91.2911,127.265 94.2911,125.265 97.5,123.5 Z"/></g>
<g><path style="opacity:1" fill="#b31930" d="M 99.5,130.5 C 101.017,130.511 102.184,131.177 103,132.5C 104.666,134.996 106.5,137.329 108.5,139.5C 105.912,141.592 102.912,142.925 99.5,143.5C 97.6181,140.377 95.2848,137.711 92.5,135.5C 94.5313,133.478 96.8646,131.811 99.5,130.5 Z"/></g>
<g><path style="opacity:1" fill="#f1ccd3" d="M 87.5,129.5 C 87.8333,129.5 88.1667,129.5 88.5,129.5C 89.4959,129.414 90.3292,129.748 91,130.5C 91.4935,132.134 91.6602,133.801 91.5,135.5C 89.5,136.5 87.5,137.5 85.5,138.5C 85.9689,135.607 84.9689,133.607 82.5,132.5C 84.2608,131.687 85.9275,130.687 87.5,129.5 Z"/></g>
<g><path style="opacity:1" fill="#c4162d" d="M 91.5,135.5 C 91.8333,135.5 92.1667,135.5 92.5,135.5C 95.2848,137.711 97.6181,140.377 99.5,143.5C 94.0385,145.593 88.3718,146.927 82.5,147.5C 80.8338,145.813 79.5005,143.813 78.5,141.5C 80.6794,140.323 83.0128,139.323 85.5,138.5C 87.5,137.5 89.5,136.5 91.5,135.5 Z"/></g>
<g><path style="opacity:1" fill="#d8132a" d="M 58.5,136.5 C 64.7557,140.26 71.4224,141.927 78.5,141.5C 79.5005,143.813 80.8338,145.813 82.5,147.5C 75.3134,147.825 68.3134,147.491 61.5,146.5C 63.1992,146.66 64.8659,146.494 66.5,146C 63.2232,143.234 60.5566,140.067 58.5,136.5 Z"/></g>
</svg>
