<?xml version="1.0" encoding="UTF-8"?>
<!DOCTYPE svg PUBLIC "-//W3C//DTD SVG 1.1//EN" "http://www.w3.org/Graphics/SVG/1.1/DTD/svg11.dtd">
<svg xmlns="http://www.w3.org/2000/svg" version="1.1" width="150px" height="150px" style="shape-rendering:geometricPrecision; text-rendering:geometricPrecision; image-rendering:optimizeQuality; fill-rule:evenodd; clip-rule:evenodd" xmlns:xlink="http://www.w3.org/1999/xlink">
<g><path style="opacity:1" fill="#adb5bf" d="M 62.5,-0.5 C 64.8333,-0.5 67.1667,-0.5 69.5,-0.5C 72.0844,1.85231 73.7511,4.85231 74.5,8.5C 72.0038,9.58044 69.6705,10.9138 67.5,12.5C 64.3388,13.9131 61.3388,15.5797 58.5,17.5C 56.5843,12.3279 55.2509,6.99454 54.5,1.5C 57.3725,1.19767 60.0392,0.531006 62.5,-0.5 Z"/></g>
<g><path style="opacity:1" fill="#efeff0" d="M 95.5,2.5 C 113.982,7.57618 128.316,18.2428 138.5,34.5C 134.759,35.4421 131.093,34.9421 127.5,33C 113.124,26.6594 102.458,16.4927 95.5,2.5 Z"/></g>
<g><path style="opacity:1" fill="#fcfcfc" d="M 74.5,8.5 C 92.8479,18.4266 111.015,28.7599 129,39.5C 129.499,43.8206 129.666,48.1539 129.5,52.5C 129.5,60.5 129.5,68.5 129.5,76.5C 129.5,77.5 129.5,78.5 129.5,79.5C 128.96,82.8647 128.294,86.198 127.5,89.5C 127.461,90.5832 127.127,91.5832 126.5,92.5C 129.444,93.543 132.111,94.8763 134.5,96.5C 129.963,98.9301 125.63,101.597 121.5,104.5C 118.015,107.749 116.015,107.083 115.5,102.5C 115.167,101.167 114.833,99.8333 114.5,98.5C 114.041,95.1226 113.374,91.7893 112.5,88.5C 112.351,87.448 112.517,86.448 113,85.5C 115.034,87.0316 117.201,88.3649 119.5,89.5C 121.309,86.4069 122.309,83.0736 122.5,79.5C 123.825,67.6602 123.825,55.6602 122.5,43.5C 106.833,34.6667 91.1667,25.8333 75.5,17C 73.4652,16.4014 71.7985,16.9014 70.5,18.5C 70.1667,18.5 69.8333,18.5 69.5,18.5C 67.9261,16.8984 67.2594,14.8984 67.5,12.5C 69.6705,10.9138 72.0038,9.58044 74.5,8.5 Z"/></g>
<g><path style="opacity:1" fill="#dddfe3" d="M 67.5,12.5 C 67.2594,14.8984 67.9261,16.8984 69.5,18.5C 66.328,20.2519 63.328,22.2519 60.5,24.5C 58.6336,25.0138 56.8003,25.6805 55,26.5C 54.228,26.3552 53.5613,26.0219 53,25.5C 51.8024,20.8508 53.6357,18.1841 58.5,17.5C 61.3388,15.5797 64.3388,13.9131 67.5,12.5 Z"/></g>
<g><path style="opacity:1" fill="#bdc3cb" d="M 122.5,79.5 C 122.5,77.5 122.5,75.5 122.5,73.5C 122.5,69.5 122.5,65.5 122.5,61.5C 118.824,60.6629 115.324,59.3296 112,57.5C 110.82,58.6841 109.32,59.3507 107.5,59.5C 105.955,59.4892 104.622,59.1558 103.5,58.5C 105.833,58.5 108.167,58.5 110.5,58.5C 109,51.0273 104.333,47.694 96.5,48.5C 85.9949,40.0018 77.3282,30.0018 70.5,18.5C 71.7985,16.9014 73.4652,16.4014 75.5,17C 91.1667,25.8333 106.833,34.6667 122.5,43.5C 123.825,55.6602 123.825,67.6602 122.5,79.5 Z"/></g>
<g><path style="opacity:1" fill="#a3acb8" d="M 69.5,18.5 C 69.8333,18.5 70.1667,18.5 70.5,18.5C 77.3282,30.0018 85.9949,40.0018 96.5,48.5C 93.4121,48.3773 90.7454,49.3773 88.5,51.5C 87.6143,50.675 87.281,49.675 87.5,48.5C 84.1667,48.5 80.8333,48.5 77.5,48.5C 70.3197,41.4356 64.653,33.4356 60.5,24.5C 63.328,22.2519 66.328,20.2519 69.5,18.5 Z"/></g>
<g><path style="opacity:0.864" fill="#2c2525" d="M 27.5,15.5 C 27.5,16.8333 27.5,18.1667 27.5,19.5C 25.6397,20.9387 23.973,22.6053 22.5,24.5C 20.7376,25.2623 19.7376,26.5956 19.5,28.5C 16.4531,30.9181 14.1198,33.9181 12.5,37.5C 10.9138,39.6705 9.58044,42.0038 8.5,44.5C 6.4408,49.0099 4.77413,53.6766 3.5,58.5C 2.61749,63.7973 1.95082,69.1306 1.5,74.5C 1.50465,76.6965 1.83798,78.6965 2.5,80.5C 2.64593,84.3875 3.3126,88.0542 4.5,91.5C 9.06171,112.563 20.7284,128.396 39.5,139C 42.3271,140.664 45.3271,141.83 48.5,142.5C 52.403,144.898 56.7363,146.231 61.5,146.5C 67.6446,147.49 73.9779,147.823 80.5,147.5C 83.5448,147.492 86.5448,147.159 89.5,146.5C 94.0004,145.626 98.3337,144.293 102.5,142.5C 107.32,140.926 111.653,138.593 115.5,135.5C 117.404,135.262 118.738,134.262 119.5,132.5C 121.886,131.627 123.886,130.127 125.5,128C 121.833,123.667 118.167,119.333 114.5,115C 112.942,114.79 111.609,114.29 110.5,113.5C 114.346,113.545 118.013,114.378 121.5,116C 123.293,118.795 125.46,121.295 128,123.5C 128.195,124.819 128.028,126.153 127.5,127.5C 116.25,139.293 102.583,146.626 86.5,149.5C 78.5,149.5 70.5,149.5 62.5,149.5C 28.5,141.5 7.5,120.5 -0.5,86.5C -0.5,78.5 -0.5,70.5 -0.5,62.5C 2.96812,43.3595 12.3015,27.6929 27.5,15.5 Z"/></g>
<g><path style="opacity:1" fill="#6b1f26" d="M 19.5,28.5 C 20.8149,29.4756 22.1482,30.4756 23.5,31.5C 27.8055,38.4634 32.4722,45.13 37.5,51.5C 37.5,55.8333 37.5,60.1667 37.5,64.5C 35.1223,62.1215 33.1223,59.4549 31.5,56.5C 33.2252,56.1575 33.7252,55.1575 33,53.5C 30.2455,48.9923 27.7455,44.3257 25.5,39.5C 24.9984,38.479 24.3317,38.3123 23.5,39C 21.9625,40.7073 20.2959,42.2073 18.5,43.5C 17.5,40.5 15.5,38.5 12.5,37.5C 14.1198,33.9181 16.4531,30.9181 19.5,28.5 Z"/></g>
<g><path style="opacity:1" fill="#dee1e4" d="M 69.5,-0.5 C 75.1667,-0.5 80.8333,-0.5 86.5,-0.5C 89.5349,0.37448 92.5349,1.37448 95.5,2.5C 102.458,16.4927 113.124,26.6594 127.5,33C 131.093,34.9421 134.759,35.4421 138.5,34.5C 140.42,37.3388 142.087,40.3388 143.5,43.5C 142.849,44.0906 142.182,44.7573 141.5,45.5C 137.926,44.6868 134.426,43.6868 131,42.5C 130.821,46.0252 130.321,49.3586 129.5,52.5C 129.666,48.1539 129.499,43.8206 129,39.5C 111.015,28.7599 92.8479,18.4266 74.5,8.5C 73.7511,4.85231 72.0844,1.85231 69.5,-0.5 Z"/></g>
<g><path style="opacity:1" fill="#613d44" d="M 43.5,48.5 C 42.5,48.5 41.5,48.5 40.5,48.5C 37.425,43.3566 34.0916,38.3566 30.5,33.5C 29.5745,34.6405 28.7412,34.6405 28,33.5C 26.6136,30.0282 24.7803,27.0282 22.5,24.5C 23.973,22.6053 25.6397,20.9387 27.5,19.5C 28.8195,18.0582 30.4862,17.3915 32.5,17.5C 34.2747,22.0564 35.7747,26.7231 37,31.5C 37.7387,34.1025 39.4054,35.7691 42,36.5C 42.6417,40.4908 43.1417,44.4908 43.5,48.5 Z"/></g>
<g><path style="opacity:1" fill="#858c98" d="M 54.5,1.5 C 55.2509,6.99454 56.5843,12.3279 58.5,17.5C 53.6357,18.1841 51.8024,20.8508 53,25.5C 53.5613,26.0219 54.228,26.3552 55,26.5C 56.8003,25.6805 58.6336,25.0138 60.5,24.5C 64.653,33.4356 70.3197,41.4356 77.5,48.5C 72.8333,48.5 68.1667,48.5 63.5,48.5C 59.0682,43.2402 55.0682,37.5735 51.5,31.5C 48.4749,30.326 45.8082,30.9927 43.5,33.5C 42.5937,31.6136 41.5937,29.7803 40.5,28C 43.4291,26.0515 46.0957,23.8848 48.5,21.5C 47.1258,16.5433 45.4591,11.71 43.5,7C 44.4491,6.38277 45.2825,6.54943 46,7.5C 46.4828,6.55198 46.6495,5.55198 46.5,4.5C 49.1667,3.5 51.8333,2.5 54.5,1.5 Z"/></g>
<g><path style="opacity:1" fill="#801923" d="M 12.5,37.5 C 15.5,38.5 17.5,40.5 18.5,43.5C 17.1667,45.5 15.5,47.1667 13.5,48.5C 12.4154,46.4131 10.7488,45.0798 8.5,44.5C 9.58044,42.0038 10.9138,39.6705 12.5,37.5 Z"/></g>
<g><path style="opacity:1" fill="#fcf5f6" d="M 31.5,56.5 C 29.5,56.1667 27.5,55.8333 25.5,55.5C 25.5,58.8333 25.5,62.1667 25.5,65.5C 25.185,69.3714 25.5184,73.0381 26.5,76.5C 26.298,78.9496 26.6314,81.283 27.5,83.5C 32.5934,107.707 46.5934,124.374 69.5,133.5C 71.6173,135.316 73.9506,135.65 76.5,134.5C 77.8333,134.167 79.1667,133.833 80.5,133.5C 83.4701,133.746 84.8034,135.412 84.5,138.5C 84.5,138.833 84.5,139.167 84.5,139.5C 81.341,140.331 78.341,141.331 75.5,142.5C 68.3585,140.926 61.6919,138.259 55.5,134.5C 39.3257,124.649 28.3257,110.649 22.5,92.5C 20.4186,86.3522 19.0853,80.0188 18.5,73.5C 18.5,67.1667 18.5,60.8333 18.5,54.5C 15.4281,54.8174 12.4281,54.4841 9.5,53.5C 10.8569,51.8144 12.1902,50.1477 13.5,48.5C 15.5,47.1667 17.1667,45.5 18.5,43.5C 20.2959,42.2073 21.9625,40.7073 23.5,39C 24.3317,38.3123 24.9984,38.479 25.5,39.5C 27.7455,44.3257 30.2455,48.9923 33,53.5C 33.7252,55.1575 33.2252,56.1575 31.5,56.5 Z"/></g>
<g><path style="opacity:1" fill="#61262e" d="M 22.5,24.5 C 24.7803,27.0282 26.6136,30.0282 28,33.5C 28.7412,34.6405 29.5745,34.6405 30.5,33.5C 34.0916,38.3566 37.425,43.3566 40.5,48.5C 39.5,48.5 38.5,48.5 37.5,48.5C 37.5,49.5 37.5,50.5 37.5,51.5C 32.4722,45.13 27.8055,38.4634 23.5,31.5C 22.1482,30.4756 20.8149,29.4756 19.5,28.5C 19.7376,26.5956 20.7376,25.2623 22.5,24.5 Z"/></g>
<g><path style="opacity:1" fill="#606269" d="M 46.5,4.5 C 46.6495,5.55198 46.4828,6.55198 46,7.5C 45.2825,6.54943 44.4491,6.38277 43.5,7C 45.4591,11.71 47.1258,16.5433 48.5,21.5C 46.0957,23.8848 43.4291,26.0515 40.5,28C 41.5937,29.7803 42.5937,31.6136 43.5,33.5C 45.8082,30.9927 48.4749,30.326 51.5,31.5C 55.0682,37.5735 59.0682,43.2402 63.5,48.5C 62.8333,48.5 62.1667,48.5 61.5,48.5C 60.5,48.5 59.5,48.5 58.5,48.5C 53.5,48.5 48.5,48.5 43.5,48.5C 43.1417,44.4908 42.6417,40.4908 42,36.5C 39.4054,35.7691 37.7387,34.1025 37,31.5C 35.7747,26.7231 34.2747,22.0564 32.5,17.5C 30.4862,17.3915 28.8195,18.0582 27.5,19.5C 27.5,18.1667 27.5,16.8333 27.5,15.5C 33.0517,10.6436 39.3851,6.97695 46.5,4.5 Z"/></g>
<g><path style="opacity:1" fill="#f8f9f9" d="M 61.5,48.5 C 62.1667,48.5 62.8333,48.5 63.5,48.5C 68.1667,48.5 72.8333,48.5 77.5,48.5C 80.8333,48.5 84.1667,48.5 87.5,48.5C 87.281,49.675 87.6143,50.675 88.5,51.5C 90.7454,49.3773 93.4121,48.3773 96.5,48.5C 104.333,47.694 109,51.0273 110.5,58.5C 108.167,58.5 105.833,58.5 103.5,58.5C 102.967,55.4752 101.133,54.1419 98,54.5C 94.2332,54.2656 92.5665,55.9323 93,59.5C 97.638,62.3792 102.471,64.8792 107.5,67C 110.029,69.6417 111.029,72.8084 110.5,76.5C 107.546,82.807 102.546,85.1403 95.5,83.5C 89.7417,83.0764 86.075,80.0764 84.5,74.5C 86.2789,72.6565 88.6122,71.9898 91.5,72.5C 92.5601,78.0953 95.8935,79.9286 101.5,78C 104.36,74.9699 104.027,72.3032 100.5,70C 95.5267,68.763 91.0267,66.5963 87,63.5C 85.7114,60.6492 85.2114,57.6492 85.5,54.5C 82.5,54.5 79.5,54.5 76.5,54.5C 79.6248,53.5206 82.9581,53.1872 86.5,53.5C 86.5,52.1667 86.5,50.8333 86.5,49.5C 77.9832,49.8261 69.6499,49.4927 61.5,48.5 Z"/></g>
<g><path style="opacity:1" fill="#d8c4c7" d="M 40.5,48.5 C 41.5,48.5 42.5,48.5 43.5,48.5C 48.5,48.5 53.5,48.5 58.5,48.5C 52.021,49.4907 45.3543,49.824 38.5,49.5C 38.5,60.8333 38.5,72.1667 38.5,83.5C 37.5489,82.0813 37.2155,80.4147 37.5,78.5C 37.5,73.8333 37.5,69.1667 37.5,64.5C 37.5,60.1667 37.5,55.8333 37.5,51.5C 37.5,50.5 37.5,49.5 37.5,48.5C 38.5,48.5 39.5,48.5 40.5,48.5 Z"/></g>
<g><path style="opacity:1" fill="#fcfcfc" d="M 58.5,48.5 C 59.5,48.5 60.5,48.5 61.5,48.5C 69.6499,49.4927 77.9832,49.8261 86.5,49.5C 86.5,50.8333 86.5,52.1667 86.5,53.5C 82.9581,53.1872 79.6248,53.5206 76.5,54.5C 76.5,58.5 76.5,62.5 76.5,66.5C 76.5,70.1667 76.5,73.8333 76.5,77.5C 76.5,79.5 76.5,81.5 76.5,83.5C 74.1667,83.5 71.8333,83.5 69.5,83.5C 69.5,73.8333 69.5,64.1667 69.5,54.5C 66.1667,54.5 62.8333,54.5 59.5,54.5C 54.8333,54.5 50.1667,54.5 45.5,54.5C 44.5233,57.2869 44.19,60.2869 44.5,63.5C 49.1667,63.5 53.8333,63.5 58.5,63.5C 58.5,65.1667 58.5,66.8333 58.5,68.5C 57.5,68.5 56.5,68.5 55.5,68.5C 53.1667,68.5 50.8333,68.5 48.5,68.5C 47.5,68.5 46.5,68.5 45.5,68.5C 44.5206,71.6248 44.1872,74.9581 44.5,78.5C 49.8333,78.5 55.1667,78.5 60.5,78.5C 60.5,80.1667 60.5,81.8333 60.5,83.5C 59.5,83.5 58.5,83.5 57.5,83.5C 54.1667,83.5 50.8333,83.5 47.5,83.5C 45.5,83.5 43.5,83.5 41.5,83.5C 40.5,83.5 39.5,83.5 38.5,83.5C 38.5,72.1667 38.5,60.8333 38.5,49.5C 45.3543,49.824 52.021,49.4907 58.5,48.5 Z"/></g>
<g><path style="opacity:1" fill="#9b1221" d="M 8.5,44.5 C 10.7488,45.0798 12.4154,46.4131 13.5,48.5C 12.1902,50.1477 10.8569,51.8144 9.5,53.5C 12.4281,54.4841 15.4281,54.8174 18.5,54.5C 18.5,60.8333 18.5,67.1667 18.5,73.5C 14.532,69.3605 10.6987,65.0272 7,60.5C 6.18405,59.1772 5.01739,58.5106 3.5,58.5C 4.77413,53.6766 6.4408,49.0099 8.5,44.5 Z"/></g>
<g><path style="opacity:1" fill="#a0a9b6" d="M 103.5,58.5 C 104.622,59.1558 105.955,59.4892 107.5,59.5C 109.32,59.3507 110.82,58.6841 112,57.5C 115.324,59.3296 118.824,60.6629 122.5,61.5C 122.5,65.5 122.5,69.5 122.5,73.5C 118.785,73.8039 115.285,73.1373 112,71.5C 111.802,73.3817 111.302,75.0484 110.5,76.5C 111.029,72.8084 110.029,69.6417 107.5,67C 102.471,64.8792 97.638,62.3792 93,59.5C 92.5665,55.9323 94.2332,54.2656 98,54.5C 101.133,54.1419 102.967,55.4752 103.5,58.5 Z"/></g>
<g><path style="opacity:1" fill="#6a6f76" d="M 59.5,54.5 C 62.8333,54.5 66.1667,54.5 69.5,54.5C 69.5,64.1667 69.5,73.8333 69.5,83.5C 68.5655,82.4324 68.2322,81.099 68.5,79.5C 68.6657,75.1539 68.499,70.8206 68,66.5C 63.7112,63.4018 60.8779,59.4018 59.5,54.5 Z"/></g>
<g><path style="opacity:1" fill="#c1c6ce" d="M 143.5,43.5 C 145.933,49.7955 147.933,56.1288 149.5,62.5C 149.5,63.1667 149.5,63.8333 149.5,64.5C 143.192,63.5752 136.858,62.5752 130.5,61.5C 130.821,66.6946 130.487,71.6946 129.5,76.5C 129.5,68.5 129.5,60.5 129.5,52.5C 130.321,49.3586 130.821,46.0252 131,42.5C 134.426,43.6868 137.926,44.6868 141.5,45.5C 142.182,44.7573 142.849,44.0906 143.5,43.5 Z"/></g>
<g><path style="opacity:1" fill="#4a4d52" d="M 45.5,54.5 C 50.1667,54.5 54.8333,54.5 59.5,54.5C 60.8779,59.4018 63.7112,63.4018 68,66.5C 68.499,70.8206 68.6657,75.1539 68.5,79.5C 63.8677,76.2022 59.5344,72.5355 55.5,68.5C 56.5,68.5 57.5,68.5 58.5,68.5C 58.5,66.8333 58.5,65.1667 58.5,63.5C 54.3656,62.5151 50.0323,62.1818 45.5,62.5C 45.5,59.8333 45.5,57.1667 45.5,54.5 Z"/></g>
<g><path style="opacity:1" fill="#a59fa3" d="M 45.5,54.5 C 45.5,57.1667 45.5,59.8333 45.5,62.5C 50.0323,62.1818 54.3656,62.5151 58.5,63.5C 53.8333,63.5 49.1667,63.5 44.5,63.5C 44.19,60.2869 44.5233,57.2869 45.5,54.5 Z"/></g>
<g><path style="opacity:1" fill="#861421" d="M 31.5,56.5 C 33.1223,59.4549 35.1223,62.1215 37.5,64.5C 37.5,69.1667 37.5,73.8333 37.5,78.5C 33.5,74.1667 29.5,69.8333 25.5,65.5C 25.5,62.1667 25.5,58.8333 25.5,55.5C 27.5,55.8333 29.5,56.1667 31.5,56.5 Z"/></g>
<g><path style="opacity:1" fill="#bb1122" d="M 3.5,58.5 C 5.01739,58.5106 6.18405,59.1772 7,60.5C 10.6987,65.0272 14.532,69.3605 18.5,73.5C 19.0853,80.0188 20.4186,86.3522 22.5,92.5C 20.9826,92.4894 19.8159,91.8228 19,90.5C 14.0425,83.8737 8.70919,77.5404 3,71.5C 2.50204,74.4816 2.33537,77.4816 2.5,80.5C 1.83798,78.6965 1.50465,76.6965 1.5,74.5C 1.95082,69.1306 2.61749,63.7973 3.5,58.5 Z"/></g>
<g><path style="opacity:1" fill="#6f1821" d="M 45.5,68.5 C 46.5,68.5 47.5,68.5 48.5,68.5C 49.5612,71.6223 50.8946,74.6223 52.5,77.5C 50.1667,77.5 47.8333,77.5 45.5,77.5C 45.5,74.5 45.5,71.5 45.5,68.5 Z"/></g>
<g><path style="opacity:1" fill="#981421" d="M 25.5,65.5 C 29.5,69.8333 33.5,74.1667 37.5,78.5C 37.2155,80.4147 37.5489,82.0813 38.5,83.5C 39.5,83.5 40.5,83.5 41.5,83.5C 53.7898,98.2942 66.2898,112.961 79,127.5C 80.0945,129.078 80.9278,130.745 81.5,132.5C 80.8333,132.5 80.5,132.833 80.5,133.5C 79.1667,133.833 77.8333,134.167 76.5,134.5C 60.6102,114.433 44.1102,94.7663 27,75.5C 26.6012,75.7284 26.4346,76.0618 26.5,76.5C 25.5184,73.0381 25.185,69.3714 25.5,65.5 Z"/></g>
<g><path style="opacity:1" fill="#7a818c" d="M 76.5,54.5 C 79.5,54.5 82.5,54.5 85.5,54.5C 85.2114,57.6492 85.7114,60.6492 87,63.5C 91.0267,66.5963 95.5267,68.763 100.5,70C 104.027,72.3032 104.36,74.9699 101.5,78C 95.8935,79.9286 92.5601,78.0953 91.5,72.5C 88.6122,71.9898 86.2789,72.6565 84.5,74.5C 82.8199,70.9652 80.1533,68.2985 76.5,66.5C 76.5,62.5 76.5,58.5 76.5,54.5 Z"/></g>
<g><path style="opacity:1" fill="#9da6b2" d="M 149.5,64.5 C 149.5,70.8333 149.5,77.1667 149.5,83.5C 148.842,82.6016 148.176,81.6016 147.5,80.5C 146.914,80.7093 146.414,81.0426 146,81.5C 140.599,80.3624 135.099,79.6958 129.5,79.5C 129.5,78.5 129.5,77.5 129.5,76.5C 130.487,71.6946 130.821,66.6946 130.5,61.5C 136.858,62.5752 143.192,63.5752 149.5,64.5 Z"/></g>
<g><path style="opacity:1" fill="#a41322" d="M 76.5,134.5 C 73.9506,135.65 71.6173,135.316 69.5,133.5C 69.9382,133.565 70.2716,133.399 70.5,133C 56.6749,116.012 42.3415,99.5117 27.5,83.5C 26.6314,81.283 26.298,78.9496 26.5,76.5C 26.4346,76.0618 26.6012,75.7284 27,75.5C 44.1102,94.7663 60.6102,114.433 76.5,134.5 Z"/></g>
<g><path style="opacity:1" fill="#b6979c" d="M 45.5,68.5 C 45.5,71.5 45.5,74.5 45.5,77.5C 47.8333,77.5 50.1667,77.5 52.5,77.5C 55.5,77.5 58.5,77.5 61.5,77.5C 61.5,79.1667 61.5,80.8333 61.5,82.5C 61.5,83.1667 61.1667,83.5 60.5,83.5C 60.5,81.8333 60.5,80.1667 60.5,78.5C 55.1667,78.5 49.8333,78.5 44.5,78.5C 44.1872,74.9581 44.5206,71.6248 45.5,68.5 Z"/></g>
<g><path style="opacity:1" fill="#d80c21" d="M 22.5,92.5 C 28.3257,110.649 39.3257,124.649 55.5,134.5C 57.4975,139.012 60.4975,142.845 64.5,146C 63.552,146.483 62.552,146.649 61.5,146.5C 56.7363,146.231 52.403,144.898 48.5,142.5C 49.2389,142.631 49.9056,142.464 50.5,142C 35.2152,124.593 20.0486,107.093 5,89.5C 4.53566,90.0944 4.36899,90.7611 4.5,91.5C 3.3126,88.0542 2.64593,84.3875 2.5,80.5C 2.33537,77.4816 2.50204,74.4816 3,71.5C 8.70919,77.5404 14.0425,83.8737 19,90.5C 19.8159,91.8228 20.9826,92.4894 22.5,92.5 Z"/></g>
<g><path style="opacity:1" fill="#7d848e" d="M 122.5,73.5 C 122.5,75.5 122.5,77.5 122.5,79.5C 122.309,83.0736 121.309,86.4069 119.5,89.5C 117.201,88.3649 115.034,87.0316 113,85.5C 112.517,86.448 112.351,87.448 112.5,88.5C 111.566,87.4324 111.232,86.099 111.5,84.5C 106.069,85.1264 100.735,84.7931 95.5,83.5C 102.546,85.1403 107.546,82.807 110.5,76.5C 111.302,75.0484 111.802,73.3817 112,71.5C 115.285,73.1373 118.785,73.8039 122.5,73.5 Z"/></g>
<g><path style="opacity:1" fill="#891421" d="M 41.5,83.5 C 43.5,83.5 45.5,83.5 47.5,83.5C 60.5102,98.8734 73.5102,114.207 86.5,129.5C 85.1007,130.89 83.4341,131.89 81.5,132.5C 80.9278,130.745 80.0945,129.078 79,127.5C 66.2898,112.961 53.7898,98.2942 41.5,83.5 Z"/></g>
<g><path style="opacity:1" fill="#7a1621" d="M 47.5,83.5 C 50.8333,83.5 54.1667,83.5 57.5,83.5C 60.1517,87.8169 63.485,91.4836 67.5,94.5C 74.9661,102.688 82.4661,111.021 90,119.5C 90.3838,122.06 91.2171,124.394 92.5,126.5C 91.5,126.833 90.8333,127.5 90.5,128.5C 89.1667,128.833 87.8333,129.167 86.5,129.5C 73.5102,114.207 60.5102,98.8734 47.5,83.5 Z"/></g>
<g><path style="opacity:0.993" fill="#262425" d="M 61.5,82.5 C 62.8734,82.3433 64.2068,82.51 65.5,83C 87.3922,100.469 112.059,110.302 139.5,112.5C 136.691,118.452 132.691,123.452 127.5,127.5C 128.028,126.153 128.195,124.819 128,123.5C 125.46,121.295 123.293,118.795 121.5,116C 118.013,114.378 114.346,113.545 110.5,113.5C 108.097,113.552 105.764,113.219 103.5,112.5C 98.166,110.833 92.8326,109.166 87.5,107.5C 80.5289,103.678 73.8622,99.3448 67.5,94.5C 63.485,91.4836 60.1517,87.8169 57.5,83.5C 58.5,83.5 59.5,83.5 60.5,83.5C 61.1667,83.5 61.5,83.1667 61.5,82.5 Z"/></g>
<g><path style="opacity:1" fill="#b41424" d="M 27.5,83.5 C 42.3415,99.5117 56.6749,116.012 70.5,133C 70.2716,133.399 69.9382,133.565 69.5,133.5C 46.5934,124.374 32.5934,107.707 27.5,83.5 Z"/></g>
<g><path style="opacity:1" fill="#5a5e65" d="M 76.5,66.5 C 80.1533,68.2985 82.8199,70.9652 84.5,74.5C 86.075,80.0764 89.7417,83.0764 95.5,83.5C 100.735,84.7931 106.069,85.1264 111.5,84.5C 111.232,86.099 111.566,87.4324 112.5,88.5C 113.374,91.7893 114.041,95.1226 114.5,98.5C 113.781,96.9087 112.781,95.4087 111.5,94C 103.964,91.8993 96.6311,89.2326 89.5,86C 84.7964,83.6537 80.463,80.8204 76.5,77.5C 76.5,73.8333 76.5,70.1667 76.5,66.5 Z"/></g>
<g><path style="opacity:1" fill="#7d848f" d="M 129.5,79.5 C 135.099,79.6958 140.599,80.3624 146,81.5C 146.414,81.0426 146.914,80.7093 147.5,80.5C 148.176,81.6016 148.842,82.6016 149.5,83.5C 149.5,84.5 149.5,85.5 149.5,86.5C 148.662,86.8417 148.328,87.5084 148.5,88.5C 141.7,89.4208 134.7,89.7541 127.5,89.5C 128.294,86.198 128.96,82.8647 129.5,79.5 Z"/></g>
<g><path style="opacity:1" fill="#686e76" d="M 148.5,88.5 C 147.99,91.5394 147.323,94.5394 146.5,97.5C 142.797,96.8813 138.797,96.548 134.5,96.5C 132.111,94.8763 129.444,93.543 126.5,92.5C 127.127,91.5832 127.461,90.5832 127.5,89.5C 134.7,89.7541 141.7,89.4208 148.5,88.5 Z"/></g>
<g><path style="opacity:1" fill="#494d51" d="M 76.5,77.5 C 80.463,80.8204 84.7964,83.6537 89.5,86C 96.6311,89.2326 103.964,91.8993 111.5,94C 112.781,95.4087 113.781,96.9087 114.5,98.5C 114.833,99.8333 115.167,101.167 115.5,102.5C 101.514,97.9917 88.5137,91.6584 76.5,83.5C 76.5,81.5 76.5,79.5 76.5,77.5 Z"/></g>
<g><path style="opacity:1" fill="#e90720" d="M 48.5,142.5 C 45.3271,141.83 42.3271,140.664 39.5,139C 20.7284,128.396 9.06171,112.563 4.5,91.5C 4.36899,90.7611 4.53566,90.0944 5,89.5C 20.0486,107.093 35.2152,124.593 50.5,142C 49.9056,142.464 49.2389,142.631 48.5,142.5 Z"/></g>
<g><path style="opacity:1" fill="#651a22" d="M 67.5,94.5 C 73.8622,99.3448 80.5289,103.678 87.5,107.5C 90.8112,112.445 94.8112,116.778 99.5,120.5C 97.3932,122.727 95.0599,124.727 92.5,126.5C 91.2171,124.394 90.3838,122.06 90,119.5C 82.4661,111.021 74.9661,102.688 67.5,94.5 Z"/></g>
<g><path style="opacity:1" fill="#4b4e53" d="M 134.5,96.5 C 138.797,96.548 142.797,96.8813 146.5,97.5C 145.538,100.739 144.205,103.739 142.5,106.5C 135.429,106.068 128.429,105.401 121.5,104.5C 125.63,101.597 129.963,98.9301 134.5,96.5 Z"/></g>
<g><path style="opacity:1" fill="#36383a" d="M 48.5,68.5 C 50.8333,68.5 53.1667,68.5 55.5,68.5C 59.5344,72.5355 63.8677,76.2022 68.5,79.5C 68.2322,81.099 68.5655,82.4324 69.5,83.5C 71.8333,83.5 74.1667,83.5 76.5,83.5C 88.5137,91.6584 101.514,97.9917 115.5,102.5C 116.015,107.083 118.015,107.749 121.5,104.5C 128.429,105.401 135.429,106.068 142.5,106.5C 142.008,108.819 141.008,110.819 139.5,112.5C 112.059,110.302 87.3922,100.469 65.5,83C 64.2068,82.51 62.8734,82.3433 61.5,82.5C 61.5,80.8333 61.5,79.1667 61.5,77.5C 58.5,77.5 55.5,77.5 52.5,77.5C 50.8946,74.6223 49.5612,71.6223 48.5,68.5 Z"/></g>
<g><path style="opacity:1" fill="#381f22" d="M 103.5,112.5 C 105.764,113.219 108.097,113.552 110.5,113.5C 111.609,114.29 112.942,114.79 114.5,115C 118.167,119.333 121.833,123.667 125.5,128C 123.886,130.127 121.886,131.627 119.5,132.5C 114.486,125.496 109.153,118.829 103.5,112.5 Z"/></g>
<g><path style="opacity:1" fill="#4e2025" d="M 87.5,107.5 C 92.8326,109.166 98.166,110.833 103.5,112.5C 109.153,118.829 114.486,125.496 119.5,132.5C 118.738,134.262 117.404,135.262 115.5,135.5C 112.138,131.808 108.805,128.141 105.5,124.5C 105.546,119.15 103.546,117.817 99.5,120.5C 94.8112,116.778 90.8112,112.445 87.5,107.5 Z"/></g>
<g><path style="opacity:1" fill="#a27479" d="M 105.5,124.5 C 102.688,127.401 99.6881,130.068 96.5,132.5C 95.609,133.11 94.609,133.443 93.5,133.5C 93.2231,131.272 92.2231,129.605 90.5,128.5C 90.8333,127.5 91.5,126.833 92.5,126.5C 95.0599,124.727 97.3932,122.727 99.5,120.5C 103.546,117.817 105.546,119.15 105.5,124.5 Z"/></g>
<g><path style="opacity:1" fill="#dfc4c7" d="M 90.5,128.5 C 92.2231,129.605 93.2231,131.272 93.5,133.5C 90.9922,135.924 87.9922,137.59 84.5,138.5C 84.8034,135.412 83.4701,133.746 80.5,133.5C 80.5,132.833 80.8333,132.5 81.5,132.5C 83.4341,131.89 85.1007,130.89 86.5,129.5C 87.8333,129.167 89.1667,128.833 90.5,128.5 Z"/></g>
<g><path style="opacity:1" fill="#681a22" d="M 105.5,124.5 C 108.805,128.141 112.138,131.808 115.5,135.5C 111.653,138.593 107.32,140.926 102.5,142.5C 100.102,139.429 98.1023,136.095 96.5,132.5C 99.6881,130.068 102.688,127.401 105.5,124.5 Z"/></g>
<g><path style="opacity:1" fill="#bf1323" d="M 55.5,134.5 C 61.6919,138.259 68.3585,140.926 75.5,142.5C 77.5,143.833 79.1667,145.5 80.5,147.5C 73.9779,147.823 67.6446,147.49 61.5,146.5C 62.552,146.649 63.552,146.483 64.5,146C 60.4975,142.845 57.4975,139.012 55.5,134.5 Z"/></g>
<g><path style="opacity:1" fill="#891622" d="M 96.5,132.5 C 98.1023,136.095 100.102,139.429 102.5,142.5C 98.3337,144.293 94.0004,145.626 89.5,146.5C 88.5667,143.63 86.9,141.296 84.5,139.5C 84.5,139.167 84.5,138.833 84.5,138.5C 87.9922,137.59 90.9922,135.924 93.5,133.5C 94.609,133.443 95.609,133.11 96.5,132.5 Z"/></g>
<g><path style="opacity:1" fill="#a31221" d="M 84.5,139.5 C 86.9,141.296 88.5667,143.63 89.5,146.5C 86.5448,147.159 83.5448,147.492 80.5,147.5C 79.1667,145.5 77.5,143.833 75.5,142.5C 78.341,141.331 81.341,140.331 84.5,139.5 Z"/></g>
</svg>
