<?xml version="1.0" encoding="UTF-8"?>
<!DOCTYPE svg PUBLIC "-//W3C//DTD SVG 1.1//EN" "http://www.w3.org/Graphics/SVG/1.1/DTD/svg11.dtd">
<svg xmlns="http://www.w3.org/2000/svg" version="1.1" width="150px" height="150px" style="shape-rendering:geometricPrecision; text-rendering:geometricPrecision; image-rendering:optimizeQuality; fill-rule:evenodd; clip-rule:evenodd" xmlns:xlink="http://www.w3.org/1999/xlink">
<g><path style="opacity:1" fill="#cbcfd6" d="M 67.5,-0.5 C 72.8333,-0.5 78.1667,-0.5 83.5,-0.5C 86.3614,5.84896 89.0281,11.849 91.5,17.5C 85.5766,14.76 79.7432,11.76 74,8.5C 73.3292,9.25244 72.4959,9.58577 71.5,9.5C 70.3624,6.08698 69.0291,2.75365 67.5,-0.5 Z"/></g>
<g><path style="opacity:1" fill="#9fa8b5" d="M 62.5,-0.5 C 64.1667,-0.5 65.8333,-0.5 67.5,-0.5C 69.0291,2.75365 70.3624,6.08698 71.5,9.5C 70.205,10.4884 68.8717,11.4884 67.5,12.5C 63.0074,14.579 58.674,16.9123 54.5,19.5C 54.8821,14.2231 53.8821,9.22311 51.5,4.5C 51.8627,3.81654 52.1961,3.14987 52.5,2.5C 55.9236,1.49049 59.2569,0.490491 62.5,-0.5 Z"/></g>
<g><path style="opacity:1" fill="#e0e2e5" d="M 83.5,-0.5 C 84.5,-0.5 85.5,-0.5 86.5,-0.5C 89.5349,0.37448 92.5349,1.37448 95.5,2.5C 95.0618,2.43456 94.7284,2.60123 94.5,3C 103.833,22.4874 119.166,34.3207 140.5,38.5C 141.737,39.9649 142.737,41.6316 143.5,43.5C 142.849,44.0906 142.182,44.7573 141.5,45.5C 137.602,44.9681 134.102,43.6348 131,41.5C 130.825,46.0195 130.325,50.3528 129.5,54.5C 129.828,49.1254 129.495,43.7921 128.5,38.5C 115.942,31.7258 103.608,24.7258 91.5,17.5C 89.0281,11.849 86.3614,5.84896 83.5,-0.5 Z"/></g>
<g><path style="opacity:0.979" fill="#ededee" d="M 95.5,2.5 C 115.84,7.84198 130.84,19.842 140.5,38.5C 119.166,34.3207 103.833,22.4874 94.5,3C 94.7284,2.60123 95.0618,2.43456 95.5,2.5 Z"/></g>
<g><path style="opacity:1" fill="#7c838d" d="M 52.5,2.5 C 52.1961,3.14987 51.8627,3.81654 51.5,4.5C 53.8821,9.22311 54.8821,14.2231 54.5,19.5C 53.8333,19.8333 53.1667,20.1667 52.5,20.5C 50.2185,21.6082 48.0519,22.9415 46,24.5C 45.4421,27.0538 46.2754,29.0538 48.5,30.5C 50.7388,29.2122 53.0721,28.2122 55.5,27.5C 59.9054,34.6352 64.5721,41.6352 69.5,48.5C 66.1667,48.5 62.8333,48.5 59.5,48.5C 57.0189,43.5927 54.6856,38.5927 52.5,33.5C 51.1349,32.5444 49.6349,31.8777 48,31.5C 46.1997,32.3195 44.3664,32.9862 42.5,33.5C 41.3734,32.8783 40.3734,32.045 39.5,31C 39.5979,29.7153 39.5979,28.5486 39.5,27.5C 41.5176,26.8254 43.1843,25.6587 44.5,24C 42.735,19.5386 41.0683,15.0386 39.5,10.5C 38.675,9.61432 37.675,9.28099 36.5,9.5C 41.2961,6.10566 46.6294,3.77233 52.5,2.5 Z"/></g>
<g><path style="opacity:1" fill="#fcfcfc" d="M 91.5,17.5 C 103.608,24.7258 115.942,31.7258 128.5,38.5C 129.495,43.7921 129.828,49.1254 129.5,54.5C 129.5,61.8333 129.5,69.1667 129.5,76.5C 129.492,79.5448 129.159,82.5448 128.5,85.5C 127.992,87.8654 127.325,90.1987 126.5,92.5C 129.073,93.8076 131.74,94.8076 134.5,95.5C 132.116,97.8847 129.45,99.8847 126.5,101.5C 123.366,102.901 120.366,104.568 117.5,106.5C 115.889,105.68 115.222,104.346 115.5,102.5C 115.371,100.784 115.038,99.1172 114.5,97.5C 113.583,94.5827 112.916,91.5827 112.5,88.5C 112.351,87.448 112.517,86.448 113,85.5C 115.034,87.0316 117.201,88.3649 119.5,89.5C 121.882,85.4986 122.882,81.1653 122.5,76.5C 123.824,65.6596 123.824,54.6596 122.5,43.5C 106.398,34.3661 90.2314,25.3661 74,16.5C 72.8615,16.9891 71.6948,17.3225 70.5,17.5C 68.2591,16.7002 67.2591,15.0336 67.5,12.5C 68.8717,11.4884 70.205,10.4884 71.5,9.5C 72.4959,9.58577 73.3292,9.25244 74,8.5C 79.7432,11.76 85.5766,14.76 91.5,17.5 Z"/></g>
<g><path style="opacity:1" fill="#595e65" d="M 36.5,9.5 C 37.675,9.28099 38.675,9.61432 39.5,10.5C 41.0683,15.0386 42.735,19.5386 44.5,24C 43.1843,25.6587 41.5176,26.8254 39.5,27.5C 38.4826,23.9471 36.9826,20.6138 35,17.5C 33.5249,16.4942 31.6915,16.4942 29.5,17.5C 29.5,16.1667 28.8333,15.5 27.5,15.5C 30.2911,13.2651 33.2911,11.2651 36.5,9.5 Z"/></g>
<g><path style="opacity:1" fill="#524e64" d="M 39.5,27.5 C 39.5979,28.5486 39.5979,29.7153 39.5,31C 40.3734,32.045 41.3734,32.8783 42.5,33.5C 42.2077,35.9572 42.2077,38.6239 42.5,41.5C 38.725,38.1559 35.5583,34.1559 33,29.5C 32.5831,30.756 31.7498,31.4226 30.5,31.5C 29.6126,27.8999 28.6126,24.2332 27.5,20.5C 28.1667,19.5 28.8333,18.5 29.5,17.5C 31.6915,16.4942 33.5249,16.4942 35,17.5C 36.9826,20.6138 38.4826,23.9471 39.5,27.5 Z"/></g>
<g><path style="opacity:1" fill="#d4d7dc" d="M 67.5,12.5 C 67.2591,15.0336 68.2591,16.7002 70.5,17.5C 70.5,17.8333 70.5,18.1667 70.5,18.5C 66.7991,20.0116 63.4658,22.0116 60.5,24.5C 58.7162,24.8925 57.0495,25.5592 55.5,26.5C 54.5041,26.5858 53.6708,26.2524 53,25.5C 52.5065,23.8659 52.3398,22.1992 52.5,20.5C 53.1667,20.1667 53.8333,19.8333 54.5,19.5C 58.674,16.9123 63.0074,14.579 67.5,12.5 Z"/></g>
<g><path style="opacity:1" fill="#c0c5cd" d="M 122.5,76.5 C 122.5,75.8333 122.5,75.1667 122.5,74.5C 122.8,69.9014 122.467,65.4014 121.5,61C 118.5,59.8333 115.5,58.6667 112.5,57.5C 109.584,59.6601 106.584,59.9934 103.5,58.5C 105.833,58.5 108.167,58.5 110.5,58.5C 109,51.0273 104.333,47.694 96.5,48.5C 92.6454,44.9645 88.8121,41.2979 85,37.5C 80.1261,31.0297 75.2928,24.6964 70.5,18.5C 70.5,18.1667 70.5,17.8333 70.5,17.5C 71.6948,17.3225 72.8615,16.9891 74,16.5C 90.2314,25.3661 106.398,34.3661 122.5,43.5C 123.824,54.6596 123.824,65.6596 122.5,76.5 Z"/></g>
<g><path style="opacity:1" fill="#a5adb9" d="M 70.5,18.5 C 75.2928,24.6964 80.1261,31.0297 85,37.5C 88.8121,41.2979 92.6454,44.9645 96.5,48.5C 93.4121,48.3773 90.7454,49.3773 88.5,51.5C 87.6143,50.675 87.281,49.675 87.5,48.5C 84.8333,48.5 82.1667,48.5 79.5,48.5C 72.6545,40.7554 66.3212,32.7554 60.5,24.5C 63.4658,22.0116 66.7991,20.0116 70.5,18.5 Z"/></g>
<g><path style="opacity:1" fill="#abafb5" d="M 52.5,20.5 C 52.3398,22.1992 52.5065,23.8659 53,25.5C 53.6708,26.2524 54.5041,26.5858 55.5,26.5C 55.5,26.8333 55.5,27.1667 55.5,27.5C 53.0721,28.2122 50.7388,29.2122 48.5,30.5C 46.2754,29.0538 45.4421,27.0538 46,24.5C 48.0519,22.9415 50.2185,21.6082 52.5,20.5 Z"/></g>
<g><path style="opacity:1" fill="#443461" d="M 27.5,20.5 C 28.6126,24.2332 29.6126,27.8999 30.5,31.5C 31.6793,38.0531 34.0127,44.0531 37.5,49.5C 37.5,53.5 37.5,57.5 37.5,61.5C 35.4752,59.8036 33.4752,58.137 31.5,56.5C 33.2252,56.1575 33.7252,55.1575 33,53.5C 30.1667,48.5 27.3333,43.5 24.5,38.5C 23.4822,39.1925 22.4822,39.8592 21.5,40.5C 20.4707,37.1092 18.4707,34.4426 15.5,32.5C 18.5213,27.4787 22.5213,23.4787 27.5,20.5 Z"/></g>
<g><path style="opacity:1" fill="#4a3470" d="M 15.5,32.5 C 18.4707,34.4426 20.4707,37.1092 21.5,40.5C 19.5,43.1667 17.1667,45.5 14.5,47.5C 13.8333,44.8333 12.1667,43.1667 9.5,42.5C 11.5,39.1667 13.5,35.8333 15.5,32.5 Z"/></g>
<g><path style="opacity:1" fill="#4d4265" d="M 42.5,41.5 C 42.9926,43.8056 43.3259,46.139 43.5,48.5C 41.2646,48.2053 39.2646,48.5386 37.5,49.5C 34.0127,44.0531 31.6793,38.0531 30.5,31.5C 31.7498,31.4226 32.5831,30.756 33,29.5C 35.5583,34.1559 38.725,38.1559 42.5,41.5 Z"/></g>
<g><path style="opacity:1" fill="#f8f6fa" d="M 31.5,56.5 C 29.5,56.1667 27.5,55.8333 25.5,55.5C 25.5,56.8333 25.5,58.1667 25.5,59.5C 25.2539,65.5594 25.5872,71.5594 26.5,77.5C 29.3221,98.9834 39.6554,115.817 57.5,128C 62.0487,131.237 67.0487,133.404 72.5,134.5C 72.7352,135.097 73.2352,135.43 74,135.5C 76.8946,134.591 79.7279,133.591 82.5,132.5C 84.9971,133.129 86.3304,134.796 86.5,137.5C 85.8333,138.167 85.1667,138.833 84.5,139.5C 81.3298,140.265 78.3298,141.265 75.5,142.5C 69.2903,141.097 63.2903,139.097 57.5,136.5C 40.7017,126.022 29.0351,111.356 22.5,92.5C 20.8485,86.9344 19.5151,81.2677 18.5,75.5C 18.5,68.5 18.5,61.5 18.5,54.5C 15.4281,54.8174 12.4281,54.4841 9.5,53.5C 11.1897,51.4807 12.8564,49.4807 14.5,47.5C 17.1667,45.5 19.5,43.1667 21.5,40.5C 22.4822,39.8592 23.4822,39.1925 24.5,38.5C 27.3333,43.5 30.1667,48.5 33,53.5C 33.7252,55.1575 33.2252,56.1575 31.5,56.5 Z"/></g>
<g><path style="opacity:1" fill="#8d96a3" d="M 60.5,24.5 C 66.3212,32.7554 72.6545,40.7554 79.5,48.5C 76.1667,48.5 72.8333,48.5 69.5,48.5C 64.5721,41.6352 59.9054,34.6352 55.5,27.5C 55.5,27.1667 55.5,26.8333 55.5,26.5C 57.0495,25.5592 58.7162,24.8925 60.5,24.5 Z"/></g>
<g><path style="opacity:1" fill="#61666e" d="M 59.5,48.5 C 59.1667,48.5 58.8333,48.5 58.5,48.5C 53.5,48.5 48.5,48.5 43.5,48.5C 43.3259,46.139 42.9926,43.8056 42.5,41.5C 42.2077,38.6239 42.2077,35.9572 42.5,33.5C 44.3664,32.9862 46.1997,32.3195 48,31.5C 49.6349,31.8777 51.1349,32.5444 52.5,33.5C 54.6856,38.5927 57.0189,43.5927 59.5,48.5 Z"/></g>
<g><path style="opacity:1" fill="#fafbfb" d="M 58.5,48.5 C 58.8333,48.5 59.1667,48.5 59.5,48.5C 62.8333,48.5 66.1667,48.5 69.5,48.5C 72.8333,48.5 76.1667,48.5 79.5,48.5C 82.1667,48.5 84.8333,48.5 87.5,48.5C 87.281,49.675 87.6143,50.675 88.5,51.5C 90.7454,49.3773 93.4121,48.3773 96.5,48.5C 104.333,47.694 109,51.0273 110.5,58.5C 108.167,58.5 105.833,58.5 103.5,58.5C 102.967,55.4752 101.133,54.1419 98,54.5C 94.2332,54.2656 92.5665,55.9323 93,59.5C 97.638,62.3792 102.471,64.8792 107.5,67C 110.029,69.6417 111.029,72.8084 110.5,76.5C 109.749,79.7533 107.749,81.92 104.5,83C 101.518,83.498 98.5184,83.6646 95.5,83.5C 91.6635,82.9151 88.3301,81.2484 85.5,78.5C 84.8505,76.5648 84.5172,74.5648 84.5,72.5C 86.8333,72.5 89.1667,72.5 91.5,72.5C 92.5601,78.0953 95.8935,79.9286 101.5,78C 104.36,74.9699 104.027,72.3032 100.5,70C 94.5894,68.802 89.7561,65.9687 86,61.5C 85.5034,59.1902 85.3367,56.8568 85.5,54.5C 82.5,54.5 79.5,54.5 76.5,54.5C 76.5,60.5 76.5,66.5 76.5,72.5C 76.5,74.5 76.5,76.5 76.5,78.5C 76.5,80.1667 76.5,81.8333 76.5,83.5C 74.1667,83.5 71.8333,83.5 69.5,83.5C 69.5,73.8333 69.5,64.1667 69.5,54.5C 64.8333,54.5 60.1667,54.5 55.5,54.5C 52.1667,54.5 48.8333,54.5 45.5,54.5C 44.5233,57.2869 44.19,60.2869 44.5,63.5C 49.1667,63.5 53.8333,63.5 58.5,63.5C 58.9227,65.7812 58.256,67.4479 56.5,68.5C 53.8333,68.5 51.1667,68.5 48.5,68.5C 47.5,68.5 46.5,68.5 45.5,68.5C 44.5206,71.6248 44.1872,74.9581 44.5,78.5C 49.8333,78.5 55.1667,78.5 60.5,78.5C 60.5,80.1667 60.5,81.8333 60.5,83.5C 59.5,83.5 58.5,83.5 57.5,83.5C 54.8333,83.5 52.1667,83.5 49.5,83.5C 47.5,83.5 45.5,83.5 43.5,83.5C 41.8333,83.5 40.1667,83.5 38.5,83.5C 38.5,72.1667 38.5,60.8333 38.5,49.5C 45.3543,49.824 52.021,49.4907 58.5,48.5 Z"/></g>
<g><path style="opacity:1" fill="#cec9d7" d="M 43.5,48.5 C 48.5,48.5 53.5,48.5 58.5,48.5C 52.021,49.4907 45.3543,49.824 38.5,49.5C 38.5,60.8333 38.5,72.1667 38.5,83.5C 37.5184,80.0381 37.185,76.3714 37.5,72.5C 37.5,68.8333 37.5,65.1667 37.5,61.5C 37.5,57.5 37.5,53.5 37.5,49.5C 39.2646,48.5386 41.2646,48.2053 43.5,48.5 Z"/></g>
<g><path style="opacity:0.999" fill="#c1c6ce" d="M 143.5,43.5 C 145.933,49.7955 147.933,56.1288 149.5,62.5C 149.5,64.1667 149.5,65.8333 149.5,67.5C 143.469,68.766 137.469,68.4327 131.5,66.5C 130.516,69.4281 130.183,72.4281 130.5,75.5C 130.5,76.1667 130.167,76.5 129.5,76.5C 129.5,69.1667 129.5,61.8333 129.5,54.5C 130.325,50.3528 130.825,46.0195 131,41.5C 134.102,43.6348 137.602,44.9681 141.5,45.5C 142.182,44.7573 142.849,44.0906 143.5,43.5 Z"/></g>
<g><path style="opacity:1" fill="#5b3896" d="M 9.5,42.5 C 12.1667,43.1667 13.8333,44.8333 14.5,47.5C 12.8564,49.4807 11.1897,51.4807 9.5,53.5C 12.4281,54.4841 15.4281,54.8174 18.5,54.5C 18.5,61.5 18.5,68.5 18.5,75.5C 13.5,70.1667 8.5,64.8333 3.5,59.5C 4.70931,53.5379 6.70931,47.8712 9.5,42.5 Z"/></g>
<g><path style="opacity:1" fill="#4b3275" d="M 31.5,56.5 C 33.4752,58.137 35.4752,59.8036 37.5,61.5C 37.5,65.1667 37.5,68.8333 37.5,72.5C 33.5,68.1667 29.5,63.8333 25.5,59.5C 25.5,58.1667 25.5,56.8333 25.5,55.5C 27.5,55.8333 29.5,56.1667 31.5,56.5 Z"/></g>
<g><path style="opacity:1" fill="#79808a" d="M 85.5,78.5 C 82.6434,76.2417 79.6434,74.2417 76.5,72.5C 76.5,66.5 76.5,60.5 76.5,54.5C 79.5,54.5 82.5,54.5 85.5,54.5C 85.3367,56.8568 85.5034,59.1902 86,61.5C 89.7561,65.9687 94.5894,68.802 100.5,70C 104.027,72.3032 104.36,74.9699 101.5,78C 95.8935,79.9286 92.5601,78.0953 91.5,72.5C 89.1667,72.5 86.8333,72.5 84.5,72.5C 84.5172,74.5648 84.8505,76.5648 85.5,78.5 Z"/></g>
<g><path style="opacity:1" fill="#a0a9b6" d="M 103.5,58.5 C 106.584,59.9934 109.584,59.6601 112.5,57.5C 115.5,58.6667 118.5,59.8333 121.5,61C 122.467,65.4014 122.8,69.9014 122.5,74.5C 118.915,73.4172 115.249,72.7506 111.5,72.5C 111.768,74.099 111.434,75.4324 110.5,76.5C 111.029,72.8084 110.029,69.6417 107.5,67C 102.471,64.8792 97.638,62.3792 93,59.5C 92.5665,55.9323 94.2332,54.2656 98,54.5C 101.133,54.1419 102.967,55.4752 103.5,58.5 Z"/></g>
<g><path style="opacity:1" fill="#646970" d="M 55.5,54.5 C 60.1667,54.5 64.8333,54.5 69.5,54.5C 69.5,64.1667 69.5,73.8333 69.5,83.5C 69.1667,83.5 68.8333,83.5 68.5,83.5C 68.5,82.1667 68.5,80.8333 68.5,79.5C 68.665,76.1501 68.4983,72.8168 68,69.5C 65,65.1667 61.3333,61.5 57,58.5C 56.5899,57.0993 56.0899,55.766 55.5,54.5 Z"/></g>
<g><path style="opacity:1" fill="#9c9da4" d="M 45.5,54.5 C 45.5,57.1667 45.5,59.8333 45.5,62.5C 50.0323,62.1818 54.3656,62.5151 58.5,63.5C 53.8333,63.5 49.1667,63.5 44.5,63.5C 44.19,60.2869 44.5233,57.2869 45.5,54.5 Z"/></g>
<g><path style="opacity:1" fill="#683eae" d="M 3.5,59.5 C 8.5,64.8333 13.5,70.1667 18.5,75.5C 19.5151,81.2677 20.8485,86.9344 22.5,92.5C 20.9826,92.4894 19.8159,91.8228 19,90.5C 14.0425,83.8737 8.70919,77.5404 3,71.5C 2.50166,74.8168 2.33499,78.1501 2.5,81.5C 1.28315,74.2538 1.61649,66.9205 3.5,59.5 Z"/></g>
<g><path style="opacity:1" fill="#442f68" d="M 45.5,68.5 C 46.5,68.5 47.5,68.5 48.5,68.5C 49.5612,71.6223 50.8946,74.6223 52.5,77.5C 50.1667,77.5 47.8333,77.5 45.5,77.5C 45.5,74.5 45.5,71.5 45.5,68.5 Z"/></g>
<g><path style="opacity:1" fill="#484b50" d="M 45.5,54.5 C 48.8333,54.5 52.1667,54.5 55.5,54.5C 56.0899,55.766 56.5899,57.0993 57,58.5C 61.3333,61.5 65,65.1667 68,69.5C 68.4983,72.8168 68.665,76.1501 68.5,79.5C 63.8744,76.5422 59.8744,72.8755 56.5,68.5C 58.256,67.4479 58.9227,65.7812 58.5,63.5C 54.3656,62.5151 50.0323,62.1818 45.5,62.5C 45.5,59.8333 45.5,57.1667 45.5,54.5 Z"/></g>
<g><path style="opacity:1" fill="#57378d" d="M 25.5,59.5 C 29.5,63.8333 33.5,68.1667 37.5,72.5C 37.185,76.3714 37.5184,80.0381 38.5,83.5C 40.1667,83.5 41.8333,83.5 43.5,83.5C 55.8321,98.0016 67.9988,112.668 80,127.5C 81.129,129.141 82.629,130.141 84.5,130.5C 83.8333,131.167 83.1667,131.833 82.5,132.5C 79.7279,133.591 76.8946,134.591 74,135.5C 73.2352,135.43 72.7352,135.097 72.5,134.5C 74.0281,134.483 74.5281,133.816 74,132.5C 58.3017,113.974 42.4684,95.641 26.5,77.5C 25.5872,71.5594 25.2539,65.5594 25.5,59.5 Z"/></g>
<g><path style="opacity:1" fill="#9ea7b4" d="M 149.5,67.5 C 149.5,71.1667 149.5,74.8333 149.5,78.5C 143.216,77.4113 136.883,76.4113 130.5,75.5C 130.183,72.4281 130.516,69.4281 131.5,66.5C 137.469,68.4327 143.469,68.766 149.5,67.5 Z"/></g>
<g><path style="opacity:1" fill="#a4a1ae" d="M 45.5,68.5 C 45.5,71.5 45.5,74.5 45.5,77.5C 47.8333,77.5 50.1667,77.5 52.5,77.5C 55.5,77.5 58.5,77.5 61.5,77.5C 61.5,78.8333 61.5,80.1667 61.5,81.5C 61.6716,82.4916 61.3382,83.1583 60.5,83.5C 60.5,81.8333 60.5,80.1667 60.5,78.5C 55.1667,78.5 49.8333,78.5 44.5,78.5C 44.1872,74.9581 44.5206,71.6248 45.5,68.5 Z"/></g>
<g><path style="opacity:1" fill="#575c62" d="M 76.5,72.5 C 79.6434,74.2417 82.6434,76.2417 85.5,78.5C 88.3301,81.2484 91.6635,82.9151 95.5,83.5C 101.364,84.1172 107.03,85.7838 112.5,88.5C 112.916,91.5827 113.583,94.5827 114.5,97.5C 100.914,92.707 88.2472,86.3736 76.5,78.5C 76.5,76.5 76.5,74.5 76.5,72.5 Z"/></g>
<g><path style="opacity:1" fill="#7241c4" d="M 22.5,92.5 C 29.0351,111.356 40.7017,126.022 57.5,136.5C 57.0618,136.435 56.7284,136.601 56.5,137C 58.6445,139.979 60.9778,142.812 63.5,145.5C 63.0431,146.298 62.3764,146.631 61.5,146.5C 56.7363,146.231 52.403,144.898 48.5,142.5C 49.2389,142.631 49.9056,142.464 50.5,142C 48.9594,139.084 47.2927,136.251 45.5,133.5C 31.4749,117.396 17.4749,101.396 3.5,85.5C 2.56552,84.4324 2.23219,83.099 2.5,81.5C 2.33499,78.1501 2.50166,74.8168 3,71.5C 8.70919,77.5404 14.0425,83.8737 19,90.5C 19.8159,91.8228 20.9826,92.4894 22.5,92.5 Z"/></g>
<g><path style="opacity:0.96" fill="#88919d" d="M 130.5,75.5 C 136.883,76.4113 143.216,77.4113 149.5,78.5C 149.5,81.1667 149.5,83.8333 149.5,86.5C 149.167,86.5 148.833,86.5 148.5,86.5C 142.603,86.367 136.77,85.7003 131,84.5C 130.098,84.7432 129.265,85.0766 128.5,85.5C 129.159,82.5448 129.492,79.5448 129.5,76.5C 130.167,76.5 130.5,76.1667 130.5,75.5 Z"/></g>
<g><path style="opacity:1" fill="#623ca2" d="M 26.5,77.5 C 42.4684,95.641 58.3017,113.974 74,132.5C 74.5281,133.816 74.0281,134.483 72.5,134.5C 67.0487,133.404 62.0487,131.237 57.5,128C 39.6554,115.817 29.3221,98.9834 26.5,77.5 Z"/></g>
<g><path style="opacity:1" fill="#79808a" d="M 122.5,74.5 C 122.5,75.1667 122.5,75.8333 122.5,76.5C 122.882,81.1653 121.882,85.4986 119.5,89.5C 117.201,88.3649 115.034,87.0316 113,85.5C 112.517,86.448 112.351,87.448 112.5,88.5C 107.03,85.7838 101.364,84.1172 95.5,83.5C 98.5184,83.6646 101.518,83.498 104.5,83C 107.749,81.92 109.749,79.7533 110.5,76.5C 111.434,75.4324 111.768,74.099 111.5,72.5C 115.249,72.7506 118.915,73.4172 122.5,74.5 Z"/></g>
<g><path style="opacity:0.993" fill="#262527" d="M 27.5,15.5 C 28.8333,15.5 29.5,16.1667 29.5,17.5C 28.8333,18.5 28.1667,19.5 27.5,20.5C 22.5213,23.4787 18.5213,27.4787 15.5,32.5C 13.5,35.8333 11.5,39.1667 9.5,42.5C 6.70931,47.8712 4.70931,53.5379 3.5,59.5C 1.61649,66.9205 1.28315,74.2538 2.5,81.5C 2.23219,83.099 2.56552,84.4324 3.5,85.5C 7.74592,113.07 22.7459,132.07 48.5,142.5C 52.403,144.898 56.7363,146.231 61.5,146.5C 67.31,147.49 73.31,147.823 79.5,147.5C 83.1981,147.448 86.8648,147.114 90.5,146.5C 96.4373,145.266 102.104,143.266 107.5,140.5C 110.661,139.087 113.661,137.42 116.5,135.5C 120.589,132.917 124.256,129.75 127.5,126C 124.536,122.034 121.203,118.367 117.5,115C 110.814,113.832 104.147,112.665 97.5,111.5C 89.6942,107.889 82.0275,103.889 74.5,99.5C 67.7534,95.297 62.0867,89.9637 57.5,83.5C 58.5,83.5 59.5,83.5 60.5,83.5C 61.3382,83.1583 61.6716,82.4916 61.5,81.5C 83.8061,99.944 109.473,110.611 138.5,113.5C 130.518,127.311 119.185,137.478 104.5,144C 98.4692,146.168 92.4692,148.001 86.5,149.5C 78.5,149.5 70.5,149.5 62.5,149.5C 28.5,141.5 7.5,120.5 -0.5,86.5C -0.5,78.5 -0.5,70.5 -0.5,62.5C 2.96812,43.3595 12.3015,27.6929 27.5,15.5 Z"/></g>
<g><path style="opacity:1" fill="#4e337b" d="M 43.5,83.5 C 45.5,83.5 47.5,83.5 49.5,83.5C 62.1557,98.8206 75.1557,113.821 88.5,128.5C 87.4863,129.674 86.153,130.34 84.5,130.5C 82.629,130.141 81.129,129.141 80,127.5C 67.9988,112.668 55.8321,98.0016 43.5,83.5 Z"/></g>
<g><path style="opacity:1" fill="#48316f" d="M 49.5,83.5 C 52.1667,83.5 54.8333,83.5 57.5,83.5C 62.0867,89.9637 67.7534,95.297 74.5,99.5C 80.4901,108.478 87.1568,116.811 94.5,124.5C 93.6935,125.728 92.6935,126.728 91.5,127.5C 90.609,128.11 89.609,128.443 88.5,128.5C 75.1557,113.821 62.1557,98.8206 49.5,83.5 Z"/></g>
<g><path style="opacity:1" fill="#474a4e" d="M 76.5,78.5 C 88.2472,86.3736 100.914,92.707 114.5,97.5C 115.038,99.1172 115.371,100.784 115.5,102.5C 101.573,98.0366 88.5735,91.7033 76.5,83.5C 76.5,81.8333 76.5,80.1667 76.5,78.5 Z"/></g>
<g><path style="opacity:1" fill="#717780" d="M 148.5,86.5 C 148.58,89.7814 147.913,92.7814 146.5,95.5C 142.5,94.1667 138.5,94.1667 134.5,95.5C 131.74,94.8076 129.073,93.8076 126.5,92.5C 127.325,90.1987 127.992,87.8654 128.5,85.5C 129.265,85.0766 130.098,84.7432 131,84.5C 136.77,85.7003 142.603,86.367 148.5,86.5 Z"/></g>
<g><path style="opacity:1" fill="#303133" d="M 48.5,68.5 C 51.1667,68.5 53.8333,68.5 56.5,68.5C 59.8744,72.8755 63.8744,76.5422 68.5,79.5C 68.5,80.8333 68.5,82.1667 68.5,83.5C 72.5616,87.7091 77.2283,91.2091 82.5,94C 84.5,94.3333 86.5,94.6667 88.5,95C 98.2832,99.3599 107.95,103.693 117.5,108C 124.908,109.365 132.242,110.865 139.5,112.5C 139.5,113.167 139.167,113.5 138.5,113.5C 109.473,110.611 83.8061,99.944 61.5,81.5C 61.5,80.1667 61.5,78.8333 61.5,77.5C 58.5,77.5 55.5,77.5 52.5,77.5C 50.8946,74.6223 49.5612,71.6223 48.5,68.5 Z"/></g>
<g><path style="opacity:1" fill="#3a3c3f" d="M 68.5,83.5 C 68.8333,83.5 69.1667,83.5 69.5,83.5C 71.8333,83.5 74.1667,83.5 76.5,83.5C 88.5735,91.7033 101.573,98.0366 115.5,102.5C 115.222,104.346 115.889,105.68 117.5,106.5C 120.366,104.568 123.366,102.901 126.5,101.5C 130.511,101.644 134.511,101.977 138.5,102.5C 140.64,102.556 142.306,103.223 143.5,104.5C 142.674,107.485 141.341,110.151 139.5,112.5C 132.242,110.865 124.908,109.365 117.5,108C 107.95,103.693 98.2832,99.3599 88.5,95C 86.5,94.6667 84.5,94.3333 82.5,94C 77.2283,91.2091 72.5616,87.7091 68.5,83.5 Z"/></g>
<g><path style="opacity:1" fill="#7b44d7" d="M 3.5,85.5 C 17.4749,101.396 31.4749,117.396 45.5,133.5C 47.2927,136.251 48.9594,139.084 50.5,142C 49.9056,142.464 49.2389,142.631 48.5,142.5C 22.7459,132.07 7.74592,113.07 3.5,85.5 Z"/></g>
<g><path style="opacity:1" fill="#54585e" d="M 146.5,95.5 C 146.072,98.7846 145.072,101.785 143.5,104.5C 142.306,103.223 140.64,102.556 138.5,102.5C 134.511,101.977 130.511,101.644 126.5,101.5C 129.45,99.8847 132.116,97.8847 134.5,95.5C 138.5,94.1667 142.5,94.1667 146.5,95.5 Z"/></g>
<g><path style="opacity:1" fill="#3c2d56" d="M 74.5,99.5 C 82.0275,103.889 89.6942,107.889 97.5,111.5C 99.177,113.54 100.844,115.54 102.5,117.5C 101.167,119.167 99.8333,120.833 98.5,122.5C 97.3951,123.6 96.0618,124.267 94.5,124.5C 87.1568,116.811 80.4901,108.478 74.5,99.5 Z"/></g>
<g><path style="opacity:1" fill="#2f273a" d="M 97.5,111.5 C 104.147,112.665 110.814,113.832 117.5,115C 121.203,118.367 124.536,122.034 127.5,126C 124.256,129.75 120.589,132.917 116.5,135.5C 113.996,131.172 110.996,127.172 107.5,123.5C 107.676,119.808 106.009,117.808 102.5,117.5C 100.844,115.54 99.177,113.54 97.5,111.5 Z"/></g>
<g><path style="opacity:1" fill="#625b74" d="M 102.5,117.5 C 106.009,117.808 107.676,119.808 107.5,123.5C 106.167,124.5 104.833,125.5 103.5,126.5C 102.24,124.633 100.573,123.3 98.5,122.5C 99.8333,120.833 101.167,119.167 102.5,117.5 Z"/></g>
<g><path style="opacity:1" fill="#9185a4" d="M 98.5,122.5 C 100.573,123.3 102.24,124.633 103.5,126.5C 102.167,127.833 100.833,129.167 99.5,130.5C 98.609,131.11 97.609,131.443 96.5,131.5C 95.7298,129.065 94.0632,127.731 91.5,127.5C 92.6935,126.728 93.6935,125.728 94.5,124.5C 96.0618,124.267 97.3951,123.6 98.5,122.5 Z"/></g>
<g><path style="opacity:1" fill="#3b2c55" d="M 107.5,123.5 C 110.996,127.172 113.996,131.172 116.5,135.5C 113.661,137.42 110.661,139.087 107.5,140.5C 105.213,136.878 102.547,133.545 99.5,130.5C 100.833,129.167 102.167,127.833 103.5,126.5C 104.833,125.5 106.167,124.5 107.5,123.5 Z"/></g>
<g><path style="opacity:1" fill="#c2bad1" d="M 91.5,127.5 C 94.0632,127.731 95.7298,129.065 96.5,131.5C 93.8388,134.502 90.5055,136.502 86.5,137.5C 86.3304,134.796 84.9971,133.129 82.5,132.5C 83.1667,131.833 83.8333,131.167 84.5,130.5C 86.153,130.34 87.4863,129.674 88.5,128.5C 89.609,128.443 90.609,128.11 91.5,127.5 Z"/></g>
<g><path style="opacity:1" fill="#4c3377" d="M 99.5,130.5 C 102.547,133.545 105.213,136.878 107.5,140.5C 102.104,143.266 96.4373,145.266 90.5,146.5C 89.6519,143.112 87.6519,140.779 84.5,139.5C 85.1667,138.833 85.8333,138.167 86.5,137.5C 90.5055,136.502 93.8388,134.502 96.5,131.5C 97.609,131.443 98.609,131.11 99.5,130.5 Z"/></g>
<g><path style="opacity:1" fill="#693eb1" d="M 57.5,136.5 C 63.2903,139.097 69.2903,141.097 75.5,142.5C 76.8333,144.167 78.1667,145.833 79.5,147.5C 73.31,147.823 67.31,147.49 61.5,146.5C 62.3764,146.631 63.0431,146.298 63.5,145.5C 60.9778,142.812 58.6445,139.979 56.5,137C 56.7284,136.601 57.0618,136.435 57.5,136.5 Z"/></g>
<g><path style="opacity:1" fill="#5c3998" d="M 84.5,139.5 C 87.6519,140.779 89.6519,143.112 90.5,146.5C 86.8648,147.114 83.1981,147.448 79.5,147.5C 78.1667,145.833 76.8333,144.167 75.5,142.5C 78.3298,141.265 81.3298,140.265 84.5,139.5 Z"/></g>
</svg>
