<?xml version="1.0" encoding="UTF-8"?>
<!DOCTYPE svg PUBLIC "-//W3C//DTD SVG 1.1//EN" "http://www.w3.org/Graphics/SVG/1.1/DTD/svg11.dtd">
<svg xmlns="http://www.w3.org/2000/svg" version="1.1" width="150px" height="150px" style="shape-rendering:geometricPrecision; text-rendering:geometricPrecision; image-rendering:optimizeQuality; fill-rule:evenodd; clip-rule:evenodd" xmlns:xlink="http://www.w3.org/1999/xlink">
<g><path style="opacity:1" fill="#70cbed" d="M 67.5,-0.5 C 71.1667,-0.5 74.8333,-0.5 78.5,-0.5C 79.7477,3.82947 81.4143,7.99614 83.5,12C 82.9056,12.4643 82.2389,12.631 81.5,12.5C 78.9476,11.3065 76.4476,9.97321 74,8.5C 72.3853,9.38619 70.8853,10.3862 69.5,11.5C 68.9094,8.0601 67.9094,4.72677 66.5,1.5C 66.8627,0.816537 67.1961,0.14987 67.5,-0.5 Z"/></g>
<g><path style="opacity:0.998" fill="#3fbaea" d="M 62.5,-0.5 C 64.1667,-0.5 65.8333,-0.5 67.5,-0.5C 67.1961,0.14987 66.8627,0.816537 66.5,1.5C 67.9094,4.72677 68.9094,8.0601 69.5,11.5C 68.2905,11.9321 67.2905,12.5987 66.5,13.5C 62.8832,14.6417 59.5498,16.3084 56.5,18.5C 54.9606,13.2157 53.6272,7.88232 52.5,2.5C 55.9236,1.49049 59.2569,0.490491 62.5,-0.5 Z"/></g>
<g><path style="opacity:1" fill="#a0daf0" d="M 78.5,-0.5 C 81.1667,-0.5 83.8333,-0.5 86.5,-0.5C 89.5349,0.37448 92.5349,1.37448 95.5,2.5C 104.858,21.245 119.524,32.5783 139.5,36.5C 141.071,38.6351 142.404,40.9684 143.5,43.5C 139.445,44.7189 135.445,44.3856 131.5,42.5C 130.502,51.1411 130.169,59.8078 130.5,68.5C 130.81,71.7131 130.477,74.7131 129.5,77.5C 129.832,64.4829 129.499,51.4829 128.5,38.5C 112.61,30.0591 96.9436,21.3925 81.5,12.5C 82.2389,12.631 82.9056,12.4643 83.5,12C 81.4143,7.99614 79.7477,3.82947 78.5,-0.5 Z"/></g>
<g><path style="opacity:0.974" fill="#3f9ae0" d="M 52.5,2.5 C 53.6272,7.88232 54.9606,13.2157 56.5,18.5C 55.8333,18.8333 55.1667,19.1667 54.5,19.5C 52.1667,20.8333 49.8333,22.1667 47.5,23.5C 46.0155,18.5214 44.5155,13.5214 43,8.5C 42.3292,7.74756 41.4959,7.41423 40.5,7.5C 44.0986,5.07229 48.0986,3.40563 52.5,2.5 Z"/></g>
<g><path style="opacity:0.992" fill="#bae1f1" d="M 95.5,2.5 C 114.985,7.57809 129.651,18.9114 139.5,36.5C 119.524,32.5783 104.858,21.245 95.5,2.5 Z"/></g>
<g><path style="opacity:1" fill="#fafcfe" d="M 81.5,12.5 C 96.9436,21.3925 112.61,30.0591 128.5,38.5C 129.499,51.4829 129.832,64.4829 129.5,77.5C 129.5,78.1667 129.5,78.8333 129.5,79.5C 128.974,83.936 127.974,88.2693 126.5,92.5C 129.073,93.8076 131.74,94.8076 134.5,95.5C 131.319,97.5917 128.319,99.925 125.5,102.5C 122.622,103.37 119.955,104.703 117.5,106.5C 116.05,105.15 115.383,103.484 115.5,101.5C 114.833,99.1667 114.167,96.8333 113.5,94.5C 113.167,92.5 112.833,90.5 112.5,88.5C 112.281,87.325 112.614,86.325 113.5,85.5C 115.5,86.8333 117.5,88.1667 119.5,89.5C 121.638,85.4867 122.638,81.1533 122.5,76.5C 123.824,65.6596 123.824,54.6596 122.5,43.5C 106.833,34.6667 91.1667,25.8333 75.5,17C 73.4652,16.4014 71.7985,16.9014 70.5,18.5C 70.1667,18.5 69.8333,18.5 69.5,18.5C 67.953,17.2318 66.953,15.5652 66.5,13.5C 67.2905,12.5987 68.2905,11.9321 69.5,11.5C 70.8853,10.3862 72.3853,9.38619 74,8.5C 76.4476,9.97321 78.9476,11.3065 81.5,12.5 Z"/></g>
<g><path style="opacity:1" fill="#5386d8" d="M 40.5,7.5 C 41.4959,7.41423 42.3292,7.74756 43,8.5C 44.5155,13.5214 46.0155,18.5214 47.5,23.5C 46.7109,23.7828 46.0442,24.2828 45.5,25C 46.4881,27.167 47.8214,29.0003 49.5,30.5C 53.1778,36.5279 56.8445,42.5279 60.5,48.5C 59.8333,48.5 59.1667,48.5 58.5,48.5C 56.1667,48.5 53.8333,48.5 51.5,48.5C 48.8279,44.313 46.3279,39.9797 44,35.5C 40.6241,34.6112 38.4574,32.4445 37.5,29C 39.513,28.3203 40.8464,26.987 41.5,25C 37.9887,20.8085 35.9887,15.9752 35.5,10.5C 36.6594,8.74973 38.326,7.74973 40.5,7.5 Z"/></g>
<g><path style="opacity:1" fill="#bce6f7" d="M 66.5,13.5 C 66.953,15.5652 67.953,17.2318 69.5,18.5C 66.328,20.2519 63.328,22.2519 60.5,24.5C 59.1667,24.8333 57.8333,25.1667 56.5,25.5C 55.8333,23.5 55.1667,21.5 54.5,19.5C 55.1667,19.1667 55.8333,18.8333 56.5,18.5C 59.5498,16.3084 62.8832,14.6417 66.5,13.5 Z"/></g>
<g><path style="opacity:0.917" fill="#6e4ebe" d="M 27.5,15.5 C 27.3382,16.5918 27.6716,17.9251 28.5,19.5C 25.2157,21.117 22.5491,23.4503 20.5,26.5C 17.925,29.319 15.5917,32.319 13.5,35.5C 10.9751,39.2165 8.97506,43.2165 7.5,47.5C 6.10841,50.0067 5.10841,52.6733 4.5,55.5C 3.70479,59.4764 3.03813,63.4764 2.5,67.5C 2.5,72.1667 2.5,76.8333 2.5,81.5C 2.88247,87.5068 4.2158,93.1735 6.5,98.5C 11.132,112.306 19.132,123.806 30.5,133C 34.1554,135.827 38.1554,137.993 42.5,139.5C 45.9831,142.237 49.9831,143.903 54.5,144.5C 60.1545,146.776 66.1545,147.776 72.5,147.5C 76.1667,147.5 79.8333,147.5 83.5,147.5C 88.227,146.755 92.8936,145.755 97.5,144.5C 97.5,145.167 97.5,145.833 97.5,146.5C 93.6857,147.368 90.019,148.368 86.5,149.5C 78.5,149.5 70.5,149.5 62.5,149.5C 28.5,141.5 7.5,120.5 -0.5,86.5C -0.5,78.5 -0.5,70.5 -0.5,62.5C 2.96812,43.3595 12.3015,27.6929 27.5,15.5 Z"/></g>
<g><path style="opacity:1" fill="#6fcaed" d="M 122.5,76.5 C 122.5,76.1667 122.5,75.8333 122.5,75.5C 122.666,70.4889 122.499,65.4889 122,60.5C 118.579,59.0252 115.246,57.3586 112,55.5C 111.51,56.7932 111.343,58.1266 111.5,59.5C 108.615,59.8064 105.948,59.4731 103.5,58.5C 105.833,58.5 108.167,58.5 110.5,58.5C 109.143,51.4911 104.809,48.1578 97.5,48.5C 87.7025,39.0453 78.7025,29.0453 70.5,18.5C 71.7985,16.9014 73.4652,16.4014 75.5,17C 91.1667,25.8333 106.833,34.6667 122.5,43.5C 123.824,54.6596 123.824,65.6596 122.5,76.5 Z"/></g>
<g><path style="opacity:1" fill="#8ec0eb" d="M 54.5,19.5 C 55.1667,21.5 55.8333,23.5 56.5,25.5C 56.5,25.8333 56.5,26.1667 56.5,26.5C 53.9959,27.5839 51.6626,28.9172 49.5,30.5C 47.8214,29.0003 46.4881,27.167 45.5,25C 46.0442,24.2828 46.7109,23.7828 47.5,23.5C 49.8333,22.1667 52.1667,20.8333 54.5,19.5 Z"/></g>
<g><path style="opacity:1" fill="#7c46a9" d="M 28.5,19.5 C 31.7014,24.5694 34.368,29.9027 36.5,35.5C 41.8938,38.1953 43.8938,42.5286 42.5,48.5C 41.5,48.5 40.5,48.5 39.5,48.5C 34.0742,40.2674 27.7409,32.9341 20.5,26.5C 22.5491,23.4503 25.2157,21.117 28.5,19.5 Z"/></g>
<g><path style="opacity:1" fill="#36a7e5" d="M 60.5,24.5 C 64.6922,33.5536 70.3589,41.5536 77.5,48.5C 75.1667,48.5 72.8333,48.5 70.5,48.5C 64.6225,41.952 59.9558,34.6187 56.5,26.5C 56.5,26.1667 56.5,25.8333 56.5,25.5C 57.8333,25.1667 59.1667,24.8333 60.5,24.5 Z"/></g>
<g><path style="opacity:1" fill="#903c96" d="M 20.5,26.5 C 27.7409,32.9341 34.0742,40.2674 39.5,48.5C 37.5467,54.0738 36.88,60.0738 37.5,66.5C 33.7881,63.7891 30.7881,60.4558 28.5,56.5C 30.288,56.7852 31.9547,56.4519 33.5,55.5C 30.7547,49.675 27.7547,44.0084 24.5,38.5C 23.1482,39.5244 21.8149,40.5244 20.5,41.5C 18.1667,39.5 15.8333,37.5 13.5,35.5C 15.5917,32.319 17.925,29.319 20.5,26.5 Z"/></g>
<g><path style="opacity:1" fill="#6562c2" d="M 35.5,10.5 C 35.9887,15.9752 37.9887,20.8085 41.5,25C 40.8464,26.987 39.513,28.3203 37.5,29C 38.4574,32.4445 40.6241,34.6112 44,35.5C 46.3279,39.9797 48.8279,44.313 51.5,48.5C 48.5,48.5 45.5,48.5 42.5,48.5C 43.8938,42.5286 41.8938,38.1953 36.5,35.5C 34.368,29.9027 31.7014,24.5694 28.5,19.5C 27.6716,17.9251 27.3382,16.5918 27.5,15.5C 29.822,13.336 32.4887,11.6693 35.5,10.5 Z"/></g>
<g><path style="opacity:1" fill="#4193dd" d="M 56.5,26.5 C 59.9558,34.6187 64.6225,41.952 70.5,48.5C 67.1667,48.5 63.8333,48.5 60.5,48.5C 56.8445,42.5279 53.1778,36.5279 49.5,30.5C 51.6626,28.9172 53.9959,27.5839 56.5,26.5 Z"/></g>
<g><path style="opacity:1" fill="#fcf6f8" d="M 28.5,56.5 C 27.791,55.596 26.791,55.2627 25.5,55.5C 25.5,58.8333 25.5,62.1667 25.5,65.5C 25.185,69.3714 25.5184,73.0381 26.5,76.5C 26.322,80.1224 26.9886,83.4557 28.5,86.5C 33.5926,108.589 46.5926,123.922 67.5,132.5C 70.1676,134.837 73.1676,135.504 76.5,134.5C 78.1667,133.833 79.8333,133.167 81.5,132.5C 82.9952,132.011 84.3285,131.345 85.5,130.5C 86.1667,130.5 86.8333,130.5 87.5,130.5C 89.2503,131.659 90.2503,133.326 90.5,135.5C 86.7476,138.043 82.7476,140.043 78.5,141.5C 75.0071,142.894 71.6738,142.561 68.5,140.5C 43.7673,131.431 28.1006,114.097 21.5,88.5C 19.6845,81.981 18.6845,75.3143 18.5,68.5C 18.5,63.8333 18.5,59.1667 18.5,54.5C 15.8333,54.5 13.1667,54.5 10.5,54.5C 10.4326,53.0413 10.7659,51.7079 11.5,50.5C 14.8333,47.8333 17.8333,44.8333 20.5,41.5C 21.8149,40.5244 23.1482,39.5244 24.5,38.5C 27.7547,44.0084 30.7547,49.675 33.5,55.5C 31.9547,56.4519 30.288,56.7852 28.5,56.5 Z"/></g>
<g><path style="opacity:1" fill="#40bbea" d="M 69.5,18.5 C 69.8333,18.5 70.1667,18.5 70.5,18.5C 78.7025,29.0453 87.7025,39.0453 97.5,48.5C 93.9966,48.1289 90.9966,49.1289 88.5,51.5C 87.596,50.791 87.2627,49.791 87.5,48.5C 84.1667,48.5 80.8333,48.5 77.5,48.5C 70.3589,41.5536 64.6922,33.5536 60.5,24.5C 63.328,22.2519 66.328,20.2519 69.5,18.5 Z"/></g>
<g><path style="opacity:1" fill="#a23380" d="M 13.5,35.5 C 15.8333,37.5 18.1667,39.5 20.5,41.5C 17.8333,44.8333 14.8333,47.8333 11.5,50.5C 10.7377,48.7376 9.40435,47.7376 7.5,47.5C 8.97506,43.2165 10.9751,39.2165 13.5,35.5 Z"/></g>
<g><path style="opacity:1" fill="#b7e2f5" d="M 60.5,48.5 C 63.8333,48.5 67.1667,48.5 70.5,48.5C 72.8333,48.5 75.1667,48.5 77.5,48.5C 80.8333,48.5 84.1667,48.5 87.5,48.5C 87.2627,49.791 87.596,50.791 88.5,51.5C 88.1667,52.5 87.5,53.1667 86.5,53.5C 86.5,52.1667 86.5,50.8333 86.5,49.5C 77.6506,49.8264 68.9839,49.493 60.5,48.5 Z"/></g>
<g><path style="opacity:1" fill="#f9fcfe" d="M 97.5,48.5 C 104.809,48.1578 109.143,51.4911 110.5,58.5C 108.167,58.5 105.833,58.5 103.5,58.5C 101.509,53.232 98.1759,52.232 93.5,55.5C 92.0247,58.2454 92.6913,60.412 95.5,62C 99.7293,63.1146 103.729,64.7813 107.5,67C 109.93,69.3046 110.93,72.1379 110.5,75.5C 110.415,77.9288 109.415,79.9288 107.5,81.5C 103.712,83.2558 99.7121,83.9225 95.5,83.5C 89.7417,83.0764 86.075,80.0764 84.5,74.5C 86.2789,72.6565 88.6122,71.9898 91.5,72.5C 91.8921,76.3912 94.0587,78.3912 98,78.5C 102.749,78.4136 104.415,76.0803 103,71.5C 97.8461,69.8398 93.0128,67.5064 88.5,64.5C 86.02,61.6391 85.02,58.3058 85.5,54.5C 82.5,54.5 79.5,54.5 76.5,54.5C 79.6248,53.5206 82.9581,53.1872 86.5,53.5C 87.5,53.1667 88.1667,52.5 88.5,51.5C 90.9966,49.1289 93.9966,48.1289 97.5,48.5 Z"/></g>
<g><path style="opacity:1" fill="#decbe3" d="M 39.5,48.5 C 40.5,48.5 41.5,48.5 42.5,48.5C 45.5,48.5 48.5,48.5 51.5,48.5C 53.8333,48.5 56.1667,48.5 58.5,48.5C 52.021,49.4907 45.3543,49.824 38.5,49.5C 38.5,60.8333 38.5,72.1667 38.5,83.5C 37.5489,82.0813 37.2155,80.4147 37.5,78.5C 37.5,74.5 37.5,70.5 37.5,66.5C 36.88,60.0738 37.5467,54.0738 39.5,48.5 Z"/></g>
<g><path style="opacity:1" fill="#fcfdfe" d="M 58.5,48.5 C 59.1667,48.5 59.8333,48.5 60.5,48.5C 68.9839,49.493 77.6506,49.8264 86.5,49.5C 86.5,50.8333 86.5,52.1667 86.5,53.5C 82.9581,53.1872 79.6248,53.5206 76.5,54.5C 76.5,58.8333 76.5,63.1667 76.5,67.5C 76.5,70.5 76.5,73.5 76.5,76.5C 76.5,78.8333 76.5,81.1667 76.5,83.5C 74.1667,83.5 71.8333,83.5 69.5,83.5C 69.5,73.8333 69.5,64.1667 69.5,54.5C 66.5,54.5 63.5,54.5 60.5,54.5C 55.5,54.5 50.5,54.5 45.5,54.5C 44.5233,57.2869 44.19,60.2869 44.5,63.5C 49.1667,63.5 53.8333,63.5 58.5,63.5C 58.5,65.1667 58.5,66.8333 58.5,68.5C 55.1667,68.5 51.8333,68.5 48.5,68.5C 47.5,68.5 46.5,68.5 45.5,68.5C 44.5206,71.6248 44.1872,74.9581 44.5,78.5C 49.8333,78.5 55.1667,78.5 60.5,78.5C 60.5,80.1667 60.5,81.8333 60.5,83.5C 59.5,83.5 58.5,83.5 57.5,83.5C 54.1667,83.5 50.8333,83.5 47.5,83.5C 45.5,83.5 43.5,83.5 41.5,83.5C 40.5,83.5 39.5,83.5 38.5,83.5C 38.5,72.1667 38.5,60.8333 38.5,49.5C 45.3543,49.824 52.021,49.4907 58.5,48.5 Z"/></g>
<g><path style="opacity:1" fill="#b12a6e" d="M 7.5,47.5 C 9.40435,47.7376 10.7377,48.7376 11.5,50.5C 10.7659,51.7079 10.4326,53.0413 10.5,54.5C 13.1667,54.5 15.8333,54.5 18.5,54.5C 18.5,59.1667 18.5,63.8333 18.5,68.5C 14.1988,64.0277 10.0321,59.3611 6,54.5C 5.61742,55.056 5.11742,55.3893 4.5,55.5C 5.10841,52.6733 6.10841,50.0067 7.5,47.5 Z"/></g>
<g><path style="opacity:1" fill="#5968ce" d="M 45.5,54.5 C 50.5,54.5 55.5,54.5 60.5,54.5C 62.3739,58.2349 64.8739,61.5683 68,64.5C 68.4983,67.8168 68.665,71.1501 68.5,74.5C 65.5361,72.0381 62.7028,69.3714 60,66.5C 59.7216,67.4158 59.2216,68.0825 58.5,68.5C 58.5,66.8333 58.5,65.1667 58.5,63.5C 54.3656,62.5151 50.0323,62.1818 45.5,62.5C 45.5,59.8333 45.5,57.1667 45.5,54.5 Z"/></g>
<g><path style="opacity:1" fill="#6287d9" d="M 60.5,54.5 C 63.5,54.5 66.5,54.5 69.5,54.5C 69.5,64.1667 69.5,73.8333 69.5,83.5C 68.5233,80.7131 68.19,77.7131 68.5,74.5C 68.665,71.1501 68.4983,67.8168 68,64.5C 64.8739,61.5683 62.3739,58.2349 60.5,54.5 Z"/></g>
<g><path style="opacity:1" fill="#a42f7b" d="M 28.5,56.5 C 30.7881,60.4558 33.7881,63.7891 37.5,66.5C 37.5,70.5 37.5,74.5 37.5,78.5C 33.5,74.1667 29.5,69.8333 25.5,65.5C 25.5,62.1667 25.5,58.8333 25.5,55.5C 26.791,55.2627 27.791,55.596 28.5,56.5 Z"/></g>
<g><path style="opacity:1" fill="#4497df" d="M 76.5,54.5 C 79.5,54.5 82.5,54.5 85.5,54.5C 85.02,58.3058 86.02,61.6391 88.5,64.5C 93.0128,67.5064 97.8461,69.8398 103,71.5C 104.415,76.0803 102.749,78.4136 98,78.5C 94.0587,78.3912 91.8921,76.3912 91.5,72.5C 88.6122,71.9898 86.2789,72.6565 84.5,74.5C 82.5095,71.5166 79.8428,69.1833 76.5,67.5C 76.5,63.1667 76.5,58.8333 76.5,54.5 Z"/></g>
<g><path style="opacity:1" fill="#44bceb" d="M 103.5,58.5 C 105.948,59.4731 108.615,59.8064 111.5,59.5C 111.343,58.1266 111.51,56.7932 112,55.5C 115.246,57.3586 118.579,59.0252 122,60.5C 122.499,65.4889 122.666,70.4889 122.5,75.5C 118.973,74.2682 115.473,72.9349 112,71.5C 111.79,73.0581 111.29,74.3915 110.5,75.5C 110.93,72.1379 109.93,69.3046 107.5,67C 103.729,64.7813 99.7293,63.1146 95.5,62C 92.6913,60.412 92.0247,58.2454 93.5,55.5C 98.1759,52.232 101.509,53.232 103.5,58.5 Z"/></g>
<g><path style="opacity:1" fill="#65c7ec" d="M 143.5,43.5 C 145.933,49.7955 147.933,56.1288 149.5,62.5C 149.5,64.1667 149.5,65.8333 149.5,67.5C 148.71,68.6085 148.21,69.9419 148,71.5C 142.13,70.7295 136.297,69.7295 130.5,68.5C 130.169,59.8078 130.502,51.1411 131.5,42.5C 135.445,44.3856 139.445,44.7189 143.5,43.5 Z"/></g>
<g><path style="opacity:1" fill="#b2a7df" d="M 45.5,54.5 C 45.5,57.1667 45.5,59.8333 45.5,62.5C 50.0323,62.1818 54.3656,62.5151 58.5,63.5C 53.8333,63.5 49.1667,63.5 44.5,63.5C 44.19,60.2869 44.5233,57.2869 45.5,54.5 Z"/></g>
<g><path style="opacity:1" fill="#c32259" d="M 18.5,68.5 C 18.6845,75.3143 19.6845,81.981 21.5,88.5C 14.797,81.7988 8.46363,74.7988 2.5,67.5C 3.03813,63.4764 3.70479,59.4764 4.5,55.5C 5.11742,55.3893 5.61742,55.056 6,54.5C 10.0321,59.3611 14.1988,64.0277 18.5,68.5 Z"/></g>
<g><path style="opacity:0.996" fill="#6451c5" d="M 68.5,74.5 C 68.19,77.7131 68.5233,80.7131 69.5,83.5C 71.8333,83.5 74.1667,83.5 76.5,83.5C 88.5957,91.38 101.596,97.38 115.5,101.5C 115.383,103.484 116.05,105.15 117.5,106.5C 119.955,104.703 122.622,103.37 125.5,102.5C 131.589,102.775 137.589,103.442 143.5,104.5C 134.22,125.113 118.886,139.113 97.5,146.5C 97.5,145.833 97.5,145.167 97.5,144.5C 100.167,143.5 102.833,142.5 105.5,141.5C 108.696,140.071 111.696,138.405 114.5,136.5C 119.015,134.065 123.015,130.898 126.5,127C 123.066,122.81 119.4,118.81 115.5,115C 106.437,113.736 97.7701,111.236 89.5,107.5C 83.2049,104.686 77.2049,101.353 71.5,97.5C 65.8333,93.8333 61.1667,89.1667 57.5,83.5C 58.5,83.5 59.5,83.5 60.5,83.5C 61.4614,81.7354 61.7947,79.7354 61.5,77.5C 58.5,77.5 55.5,77.5 52.5,77.5C 50.8946,74.6223 49.5612,71.6223 48.5,68.5C 51.8333,68.5 55.1667,68.5 58.5,68.5C 59.2216,68.0825 59.7216,67.4158 60,66.5C 62.7028,69.3714 65.5361,72.0381 68.5,74.5 Z"/></g>
<g><path style="opacity:1" fill="#af296f" d="M 25.5,65.5 C 29.5,69.8333 33.5,74.1667 37.5,78.5C 37.2155,80.4147 37.5489,82.0813 38.5,83.5C 39.5,83.5 40.5,83.5 41.5,83.5C 54.4569,98.9611 67.6235,114.294 81,129.5C 81.4828,130.448 81.6495,131.448 81.5,132.5C 79.8333,133.167 78.1667,133.833 76.5,134.5C 59.971,114.953 43.471,95.2863 27,75.5C 26.6012,75.7284 26.4346,76.0618 26.5,76.5C 25.5184,73.0381 25.185,69.3714 25.5,65.5 Z"/></g>
<g><path style="opacity:1" fill="#95368d" d="M 45.5,68.5 C 46.5,68.5 47.5,68.5 48.5,68.5C 49.5612,71.6223 50.8946,74.6223 52.5,77.5C 50.1667,77.5 47.8333,77.5 45.5,77.5C 45.5,74.5 45.5,71.5 45.5,68.5 Z"/></g>
<g><path style="opacity:0.994" fill="#36b5e9" d="M 149.5,67.5 C 149.5,72.5 149.5,77.5 149.5,82.5C 142.843,81.6328 136.176,80.6328 129.5,79.5C 129.5,78.8333 129.5,78.1667 129.5,77.5C 130.477,74.7131 130.81,71.7131 130.5,68.5C 136.297,69.7295 142.13,70.7295 148,71.5C 148.21,69.9419 148.71,68.6085 149.5,67.5 Z"/></g>
<g><path style="opacity:1" fill="#5277d3" d="M 76.5,67.5 C 79.8428,69.1833 82.5095,71.5166 84.5,74.5C 86.075,80.0764 89.7417,83.0764 95.5,83.5C 99.3123,84.3238 103.312,84.8238 107.5,85C 109.584,85.6972 111.251,86.8639 112.5,88.5C 112.833,90.5 113.167,92.5 113.5,94.5C 100.212,90.3554 87.8786,84.3554 76.5,76.5C 76.5,73.5 76.5,70.5 76.5,67.5 Z"/></g>
<g><path style="opacity:1" fill="#d41c47" d="M 2.5,67.5 C 8.46363,74.7988 14.797,81.7988 21.5,88.5C 28.1006,114.097 43.7673,131.431 68.5,140.5C 69.8056,142.816 71.1389,145.15 72.5,147.5C 66.1545,147.776 60.1545,146.776 54.5,144.5C 55.2389,144.631 55.9056,144.464 56.5,144C 39.0088,122.679 21.0088,101.846 2.5,81.5C 2.5,76.8333 2.5,72.1667 2.5,67.5 Z"/></g>
<g><path style="opacity:1" fill="#caa7d0" d="M 45.5,68.5 C 45.5,71.5 45.5,74.5 45.5,77.5C 47.8333,77.5 50.1667,77.5 52.5,77.5C 55.5,77.5 58.5,77.5 61.5,77.5C 61.7947,79.7354 61.4614,81.7354 60.5,83.5C 60.5,81.8333 60.5,80.1667 60.5,78.5C 55.1667,78.5 49.8333,78.5 44.5,78.5C 44.1872,74.9581 44.5206,71.6248 45.5,68.5 Z"/></g>
<g><path style="opacity:1" fill="#5966cd" d="M 76.5,76.5 C 87.8786,84.3554 100.212,90.3554 113.5,94.5C 114.167,96.8333 114.833,99.1667 115.5,101.5C 101.596,97.38 88.5957,91.38 76.5,83.5C 76.5,81.1667 76.5,78.8333 76.5,76.5 Z"/></g>
<g><path style="opacity:1" fill="#439ae0" d="M 122.5,75.5 C 122.5,75.8333 122.5,76.1667 122.5,76.5C 122.638,81.1533 121.638,85.4867 119.5,89.5C 117.5,88.1667 115.5,86.8333 113.5,85.5C 112.614,86.325 112.281,87.325 112.5,88.5C 111.251,86.8639 109.584,85.6972 107.5,85C 103.312,84.8238 99.3123,84.3238 95.5,83.5C 99.7121,83.9225 103.712,83.2558 107.5,81.5C 109.415,79.9288 110.415,77.9288 110.5,75.5C 111.29,74.3915 111.79,73.0581 112,71.5C 115.473,72.9349 118.973,74.2682 122.5,75.5 Z"/></g>
<g><path style="opacity:1" fill="#b92664" d="M 76.5,134.5 C 73.1676,135.504 70.1676,134.837 67.5,132.5C 55.5548,116.838 42.5548,101.505 28.5,86.5C 26.9886,83.4557 26.322,80.1224 26.5,76.5C 26.4346,76.0618 26.6012,75.7284 27,75.5C 43.471,95.2863 59.971,114.953 76.5,134.5 Z"/></g>
<g><path style="opacity:1" fill="#a62e79" d="M 41.5,83.5 C 43.5,83.5 45.5,83.5 47.5,83.5C 58.7891,97.2938 70.2891,110.96 82,124.5C 83.4213,126.405 84.588,128.405 85.5,130.5C 84.3285,131.345 82.9952,132.011 81.5,132.5C 81.6495,131.448 81.4828,130.448 81,129.5C 67.6235,114.294 54.4569,98.9611 41.5,83.5 Z"/></g>
<g><path style="opacity:1" fill="#9a3386" d="M 47.5,83.5 C 50.8333,83.5 54.1667,83.5 57.5,83.5C 61.1667,89.1667 65.8333,93.8333 71.5,97.5C 71.3505,98.552 71.5172,99.552 72,100.5C 79.6477,108.492 86.8143,116.825 93.5,125.5C 91.5,127.167 89.5,128.833 87.5,130.5C 86.8333,130.5 86.1667,130.5 85.5,130.5C 84.588,128.405 83.4213,126.405 82,124.5C 70.2891,110.96 58.7891,97.2938 47.5,83.5 Z"/></g>
<g><path style="opacity:1" fill="#e00f36" d="M 2.5,81.5 C 21.0088,101.846 39.0088,122.679 56.5,144C 55.9056,144.464 55.2389,144.631 54.5,144.5C 49.9831,143.903 45.9831,142.237 42.5,139.5C 30.8305,124.876 18.8305,111.209 6.5,98.5C 4.2158,93.1735 2.88247,87.5068 2.5,81.5 Z"/></g>
<g><path style="opacity:1" fill="#4591dd" d="M 129.5,79.5 C 136.176,80.6328 142.843,81.6328 149.5,82.5C 149.5,83.8333 149.5,85.1667 149.5,86.5C 148.368,90.019 147.368,93.6857 146.5,97.5C 143.111,95.8897 139.444,94.8897 135.5,94.5C 134.893,94.6236 134.56,94.9569 134.5,95.5C 131.74,94.8076 129.073,93.8076 126.5,92.5C 127.974,88.2693 128.974,83.936 129.5,79.5 Z"/></g>
<g><path style="opacity:1" fill="#e70c2e" d="M 42.5,139.5 C 38.1554,137.993 34.1554,135.827 30.5,133C 19.132,123.806 11.132,112.306 6.5,98.5C 18.8305,111.209 30.8305,124.876 42.5,139.5 Z"/></g>
<g><path style="opacity:1" fill="#586ccf" d="M 146.5,97.5 C 145.677,99.9872 144.677,102.321 143.5,104.5C 137.589,103.442 131.589,102.775 125.5,102.5C 128.319,99.925 131.319,97.5917 134.5,95.5C 134.56,94.9569 134.893,94.6236 135.5,94.5C 139.444,94.8897 143.111,95.8897 146.5,97.5 Z"/></g>
<g><path style="opacity:1" fill="#c5265b" d="M 28.5,86.5 C 42.5548,101.505 55.5548,116.838 67.5,132.5C 46.5926,123.922 33.5926,108.589 28.5,86.5 Z"/></g>
<g><path style="opacity:1" fill="#7c44aa" d="M 89.5,107.5 C 97.7701,111.236 106.437,113.736 115.5,115C 119.4,118.81 123.066,122.81 126.5,127C 123.015,130.898 119.015,134.065 114.5,136.5C 112.121,132.274 109.121,128.441 105.5,125C 109.341,121.779 109.174,118.613 105,115.5C 103.26,117.954 101.093,119.454 98.5,120C 94.8688,116.215 91.8688,112.049 89.5,107.5 Z"/></g>
<g><path style="opacity:1" fill="#b985bd" d="M 98.5,131.5 C 98.1667,131.5 97.8333,131.5 97.5,131.5C 97.539,128.911 96.539,126.911 94.5,125.5C 96.1621,124.015 97.9954,122.682 100,121.5C 102.417,122.886 103.417,124.886 103,127.5C 101.008,128.328 99.5077,129.661 98.5,131.5 Z"/></g>
<g><path style="opacity:1" fill="#d5abce" d="M 93.5,125.5 C 93.8333,125.5 94.1667,125.5 94.5,125.5C 96.539,126.911 97.539,128.911 97.5,131.5C 95.5,132.833 93.5,134.167 91.5,135.5C 91.1667,135.5 90.8333,135.5 90.5,135.5C 90.2503,133.326 89.2503,131.659 87.5,130.5C 89.5,128.833 91.5,127.167 93.5,125.5 Z"/></g>
<g><path style="opacity:1" fill="#8d3e99" d="M 71.5,97.5 C 77.2049,101.353 83.2049,104.686 89.5,107.5C 91.8688,112.049 94.8688,116.215 98.5,120C 101.093,119.454 103.26,117.954 105,115.5C 109.174,118.613 109.341,121.779 105.5,125C 109.121,128.441 112.121,132.274 114.5,136.5C 111.696,138.405 108.696,140.071 105.5,141.5C 105.649,140.448 105.483,139.448 105,138.5C 102.6,136.271 100.433,133.937 98.5,131.5C 99.5077,129.661 101.008,128.328 103,127.5C 103.417,124.886 102.417,122.886 100,121.5C 97.9954,122.682 96.1621,124.015 94.5,125.5C 94.1667,125.5 93.8333,125.5 93.5,125.5C 86.8143,116.825 79.6477,108.492 72,100.5C 71.5172,99.552 71.3505,98.552 71.5,97.5 Z"/></g>
<g><path style="opacity:1" fill="#9b3587" d="M 97.5,131.5 C 97.8333,131.5 98.1667,131.5 98.5,131.5C 100.433,133.937 102.6,136.271 105,138.5C 105.483,139.448 105.649,140.448 105.5,141.5C 102.833,142.5 100.167,143.5 97.5,144.5C 95.7583,141.357 93.7583,138.357 91.5,135.5C 93.5,134.167 95.5,132.833 97.5,131.5 Z"/></g>
<g><path style="opacity:1" fill="#ab2e75" d="M 90.5,135.5 C 90.8333,135.5 91.1667,135.5 91.5,135.5C 93.7583,138.357 95.7583,141.357 97.5,144.5C 92.8936,145.755 88.227,146.755 83.5,147.5C 83.2876,144.288 81.6209,142.288 78.5,141.5C 82.7476,140.043 86.7476,138.043 90.5,135.5 Z"/></g>
<g><path style="opacity:1" fill="#bf235d" d="M 68.5,140.5 C 71.6738,142.561 75.0071,142.894 78.5,141.5C 81.6209,142.288 83.2876,144.288 83.5,147.5C 79.8333,147.5 76.1667,147.5 72.5,147.5C 71.1389,145.15 69.8056,142.816 68.5,140.5 Z"/></g>
</svg>
