<?xml version="1.0" encoding="UTF-8"?>
<!DOCTYPE svg PUBLIC "-//W3C//DTD SVG 1.1//EN" "http://www.w3.org/Graphics/SVG/1.1/DTD/svg11.dtd">
<svg xmlns="http://www.w3.org/2000/svg" version="1.1" width="150px" height="150px" style="shape-rendering:geometricPrecision; text-rendering:geometricPrecision; image-rendering:optimizeQuality; fill-rule:evenodd; clip-rule:evenodd" xmlns:xlink="http://www.w3.org/1999/xlink">
<g><path style="opacity:1" fill="#93bdb0" d="M 73.5,-0.5 C 77.8333,-0.5 82.1667,-0.5 86.5,-0.5C 87.5676,0.434475 88.901,0.767809 90.5,0.5C 92.4395,9.86707 97.1062,17.7004 104.5,24C 104.272,24.3988 103.938,24.5654 103.5,24.5C 93.6376,19.4047 83.971,14.0714 74.5,8.5C 75.0431,8.44001 75.3764,8.10667 75.5,7.5C 74.2147,4.97948 73.5481,2.31282 73.5,-0.5 Z"/></g>
<g><path style="opacity:1" fill="#509580" d="M 62.5,-0.5 C 66.1667,-0.5 69.8333,-0.5 73.5,-0.5C 73.5481,2.31282 74.2147,4.97948 75.5,7.5C 75.3764,8.10667 75.0431,8.44001 74.5,8.5C 71.3388,9.91306 68.3388,11.5797 65.5,13.5C 62.1499,15.1961 58.8165,16.8627 55.5,18.5C 54.4771,13.9292 53.1438,9.42923 51.5,5C 51.7432,4.09789 52.0766,3.26456 52.5,2.5C 55.9236,1.49049 59.2569,0.490491 62.5,-0.5 Z"/></g>
<g><path style="opacity:1" fill="#2e5b5a" d="M 40.5,7.5 C 42.0597,12.6798 43.7264,17.8465 45.5,23C 44.7977,24.8563 43.4643,26.023 41.5,26.5C 39.1715,27.7489 37.3382,27.0823 36,24.5C 35.0851,20.2658 33.5851,16.2658 31.5,12.5C 34.3661,10.5675 37.3661,8.90088 40.5,7.5 Z"/></g>
<g><path style="opacity:1" fill="#fafbfb" d="M 74.5,8.5 C 83.971,14.0714 93.6376,19.4047 103.5,24.5C 111.609,29.3925 119.943,34.0591 128.5,38.5C 129.499,51.1492 129.832,63.8158 129.5,76.5C 129.5,77.1667 129.5,77.8333 129.5,78.5C 129.089,82.2215 128.422,85.8881 127.5,89.5C 127.461,90.5832 127.127,91.5832 126.5,92.5C 129.198,93.6694 131.865,94.8361 134.5,96C 133.429,96.8518 132.429,97.6851 131.5,98.5C 126.861,101.155 122.194,103.821 117.5,106.5C 116.438,104.978 115.771,103.312 115.5,101.5C 115.073,98.9902 114.407,96.6568 113.5,94.5C 113.483,92.4352 113.15,90.4352 112.5,88.5C 112.351,87.448 112.517,86.448 113,85.5C 115.034,87.0316 117.201,88.3649 119.5,89.5C 120.768,87.6957 121.435,85.6957 121.5,83.5C 122.468,81.3926 122.802,79.0593 122.5,76.5C 123.824,65.6596 123.824,54.6596 122.5,43.5C 109.483,36.1387 96.4829,28.8054 83.5,21.5C 80.5815,19.4564 77.4149,17.7897 74,16.5C 72.415,17.0439 70.915,17.7106 69.5,18.5C 67.0029,17.8707 65.6696,16.204 65.5,13.5C 68.3388,11.5797 71.3388,9.91306 74.5,8.5 Z"/></g>
<g><path style="opacity:1" fill="#afcac3" d="M 65.5,13.5 C 65.6696,16.204 67.0029,17.8707 69.5,18.5C 68.8333,19.1667 68.1667,19.8333 67.5,20.5C 64.2402,21.7738 61.2402,23.4405 58.5,25.5C 56.3296,26.7485 53.9963,27.7485 51.5,28.5C 49.5998,27.5529 48.2665,26.0529 47.5,24C 50.059,21.897 52.7257,20.0637 55.5,18.5C 58.8165,16.8627 62.1499,15.1961 65.5,13.5 Z"/></g>
<g><path style="opacity:1" fill="#4e9580" d="M 67.5,20.5 C 69.133,21.9454 70.9663,23.2787 73,24.5C 77.5646,32.9355 83.5646,40.2688 91,46.5C 91.4828,47.448 91.6495,48.448 91.5,49.5C 90.5,50.1667 89.5,50.8333 88.5,51.5C 87.596,50.791 87.2627,49.791 87.5,48.5C 83.5,48.5 79.5,48.5 75.5,48.5C 69.416,41.0912 63.7493,33.4245 58.5,25.5C 61.2402,23.4405 64.2402,21.7738 67.5,20.5 Z"/></g>
<g><path style="opacity:1" fill="#562038" d="M 21.5,25.5 C 23.2268,30.7498 26.3935,35.0831 31,38.5C 33.4262,41.6912 35.5928,45.0246 37.5,48.5C 37.5,53.1667 37.5,57.8333 37.5,62.5C 35.1394,60.8061 33.1394,58.8061 31.5,56.5C 32.3764,56.6309 33.0431,56.2975 33.5,55.5C 30.7547,49.675 27.7547,44.0084 24.5,38.5C 22.8144,39.8569 21.1477,41.1902 19.5,42.5C 17.9228,39.9501 15.9228,37.9501 13.5,36.5C 15.4232,32.3316 18.0899,28.6649 21.5,25.5 Z"/></g>
<g><path style="opacity:1" fill="#434752" d="M 31.5,12.5 C 33.5851,16.2658 35.0851,20.2658 36,24.5C 37.3382,27.0823 39.1715,27.7489 41.5,26.5C 42.2186,28.7638 42.552,31.0971 42.5,33.5C 42.5,37.1667 42.5,40.8333 42.5,44.5C 38.2044,39.8565 34.2044,34.8565 30.5,29.5C 28.7132,27.0503 27.3798,24.3837 26.5,21.5C 26.1667,20.1667 25.8333,18.8333 25.5,17.5C 27.4602,15.8437 29.4602,14.177 31.5,12.5 Z"/></g>
<g><path style="opacity:1" fill="#3a746a" d="M 52.5,2.5 C 52.0766,3.26456 51.7432,4.09789 51.5,5C 53.1438,9.42923 54.4771,13.9292 55.5,18.5C 52.7257,20.0637 50.059,21.897 47.5,24C 48.2665,26.0529 49.5998,27.5529 51.5,28.5C 53.9963,27.7485 56.3296,26.7485 58.5,25.5C 63.7493,33.4245 69.416,41.0912 75.5,48.5C 70.8333,48.5 66.1667,48.5 61.5,48.5C 60.5,48.5 59.5,48.5 58.5,48.5C 57.5,48.5 56.5,48.5 55.5,48.5C 52.3006,43.4345 49.6339,38.1012 47.5,32.5C 45.7839,32.6287 44.1172,32.962 42.5,33.5C 42.552,31.0971 42.2186,28.7638 41.5,26.5C 43.4643,26.023 44.7977,24.8563 45.5,23C 43.7264,17.8465 42.0597,12.6798 40.5,7.5C 44.2025,5.32128 48.2025,3.65462 52.5,2.5 Z"/></g>
<g><path style="opacity:1" fill="#aeccc3" d="M 90.5,0.5 C 113.008,6.34664 130.008,19.3466 141.5,39.5C 140.778,39.9175 140.278,40.5842 140,41.5C 136.951,40.3899 133.784,39.7233 130.5,39.5C 130.5,46.8333 130.5,54.1667 130.5,61.5C 130.821,66.6946 130.487,71.6946 129.5,76.5C 129.832,63.8158 129.499,51.1492 128.5,38.5C 119.943,34.0591 111.609,29.3925 103.5,24.5C 103.938,24.5654 104.272,24.3988 104.5,24C 97.1062,17.7004 92.4395,9.86707 90.5,0.5 Z"/></g>
<g><path style="opacity:1" fill="#482b3e" d="M 26.5,21.5 C 27.3798,24.3837 28.7132,27.0503 30.5,29.5C 34.2044,34.8565 38.2044,39.8565 42.5,44.5C 42.5,45.8333 42.5,47.1667 42.5,48.5C 40.8333,48.5 39.1667,48.5 37.5,48.5C 35.5928,45.0246 33.4262,41.6912 31,38.5C 26.3935,35.0831 23.2268,30.7498 21.5,25.5C 22.5846,23.4131 24.2512,22.0798 26.5,21.5 Z"/></g>
<g><path style="opacity:1" fill="#82b3a5" d="M 83.5,21.5 C 96.4829,28.8054 109.483,36.1387 122.5,43.5C 123.824,54.6596 123.824,65.6596 122.5,76.5C 122.5,71.1667 122.5,65.8333 122.5,60.5C 122.663,58.1432 122.497,55.8098 122,53.5C 109.288,48.3088 98.2876,40.6421 89,30.5C 86.6422,27.7777 84.8089,24.7777 83.5,21.5 Z"/></g>
<g><path style="opacity:1" fill="#faf5f6" d="M 31.5,56.5 C 29.5,56.1667 27.5,55.8333 25.5,55.5C 25.5,57.8333 25.5,60.1667 25.5,62.5C 25.1805,67.3633 25.5139,72.03 26.5,76.5C 26.5,77.5 26.5,78.5 26.5,79.5C 27.0552,83.3968 28.0552,87.0635 29.5,90.5C 34.7562,109.02 46.0895,122.353 63.5,130.5C 65.0326,132.245 67.0326,133.245 69.5,133.5C 71.6173,135.316 73.9506,135.65 76.5,134.5C 79.5447,133.721 82.2114,132.387 84.5,130.5C 85.1667,130.5 85.8333,130.5 86.5,130.5C 88.9971,131.129 90.3304,132.796 90.5,135.5C 86.7476,138.043 82.7476,140.043 78.5,141.5C 76.9397,141.519 75.4397,141.852 74,142.5C 72.1997,141.68 70.3664,141.014 68.5,140.5C 45.3665,132.032 30.0331,116.032 22.5,92.5C 20.2242,85.3726 18.8909,78.0392 18.5,70.5C 18.5,65.1667 18.5,59.8333 18.5,54.5C 15.4281,54.8174 12.4281,54.4841 9.5,53.5C 10.1925,52.4822 10.8592,51.4822 11.5,50.5C 14.5,48.1667 17.1667,45.5 19.5,42.5C 21.1477,41.1902 22.8144,39.8569 24.5,38.5C 27.7547,44.0084 30.7547,49.675 33.5,55.5C 33.0431,56.2975 32.3764,56.6309 31.5,56.5 Z"/></g>
<g><path style="opacity:1" fill="#731a34" d="M 13.5,36.5 C 15.9228,37.9501 17.9228,39.9501 19.5,42.5C 17.1667,45.5 14.5,48.1667 11.5,50.5C 10.7377,48.7376 9.40435,47.7376 7.5,47.5C 8.74169,43.3447 10.7417,39.678 13.5,36.5 Z"/></g>
<g><path style="opacity:1" fill="#295557" d="M 55.5,48.5 C 51.1667,48.5 46.8333,48.5 42.5,48.5C 42.5,47.1667 42.5,45.8333 42.5,44.5C 42.5,40.8333 42.5,37.1667 42.5,33.5C 44.1172,32.962 45.7839,32.6287 47.5,32.5C 49.6339,38.1012 52.3006,43.4345 55.5,48.5 Z"/></g>
<g><path style="opacity:1" fill="#6da795" d="M 83.5,21.5 C 84.8089,24.7777 86.6422,27.7777 89,30.5C 98.2876,40.6421 109.288,48.3088 122,53.5C 122.497,55.8098 122.663,58.1432 122.5,60.5C 118.841,59.5871 115.341,58.2537 112,56.5C 111.517,57.448 111.351,58.448 111.5,59.5C 108.615,59.8064 105.948,59.4731 103.5,58.5C 105.833,58.5 108.167,58.5 110.5,58.5C 110.259,53.87 107.925,50.7034 103.5,49C 99.4126,48.2375 95.4126,48.4042 91.5,49.5C 91.6495,48.448 91.4828,47.448 91,46.5C 83.5646,40.2688 77.5646,32.9355 73,24.5C 70.9663,23.2787 69.133,21.9454 67.5,20.5C 68.1667,19.8333 68.8333,19.1667 69.5,18.5C 70.915,17.7106 72.415,17.0439 74,16.5C 77.4149,17.7897 80.5815,19.4564 83.5,21.5 Z"/></g>
<g><path style="opacity:1" fill="#fafbfb" d="M 58.5,48.5 C 59.5,48.5 60.5,48.5 61.5,48.5C 69.6499,49.4927 77.9832,49.8261 86.5,49.5C 86.3433,50.8734 86.51,52.2068 87,53.5C 87.7172,52.9558 88.2172,52.2891 88.5,51.5C 89.5,50.8333 90.5,50.1667 91.5,49.5C 95.4126,48.4042 99.4126,48.2375 103.5,49C 107.925,50.7034 110.259,53.87 110.5,58.5C 108.167,58.5 105.833,58.5 103.5,58.5C 102.967,55.4752 101.133,54.1419 98,54.5C 94.2332,54.2656 92.5665,55.9323 93,59.5C 98.4614,62.3162 103.795,65.3162 109,68.5C 110.289,71.3508 110.789,74.3508 110.5,77.5C 109.607,80.4608 107.607,82.2941 104.5,83C 101.183,83.4983 97.8499,83.665 94.5,83.5C 89.28,82.6141 85.9467,79.6141 84.5,74.5C 86.2789,72.6565 88.6122,71.9898 91.5,72.5C 92.5601,78.0953 95.8935,79.9286 101.5,78C 103.576,76.1159 103.91,73.9492 102.5,71.5C 97.5197,69.4521 92.6864,67.1188 88,64.5C 85.8358,61.5527 85.0025,58.2194 85.5,54.5C 82.5,54.5 79.5,54.5 76.5,54.5C 76.5,58.5 76.5,62.5 76.5,66.5C 76.5,69.1667 76.5,71.8333 76.5,74.5C 76.5,77.5 76.5,80.5 76.5,83.5C 74.1667,83.5 71.8333,83.5 69.5,83.5C 69.5,73.8333 69.5,64.1667 69.5,54.5C 61.5,54.5 53.5,54.5 45.5,54.5C 44.5233,57.2869 44.19,60.2869 44.5,63.5C 49.1667,63.5 53.8333,63.5 58.5,63.5C 58.5,65.1667 58.5,66.8333 58.5,68.5C 55.1667,68.5 51.8333,68.5 48.5,68.5C 47.5,68.5 46.5,68.5 45.5,68.5C 44.5206,71.6248 44.1872,74.9581 44.5,78.5C 49.8333,78.5 55.1667,78.5 60.5,78.5C 60.5,80.1667 60.5,81.8333 60.5,83.5C 59.5,83.5 58.5,83.5 57.5,83.5C 55.1667,83.5 52.8333,83.5 50.5,83.5C 48.5,83.5 46.5,83.5 44.5,83.5C 42.5,83.5 40.5,83.5 38.5,83.5C 38.5,72.1667 38.5,60.8333 38.5,49.5C 45.3543,49.824 52.021,49.4907 58.5,48.5 Z"/></g>
<g><path style="opacity:1" fill="#bad3cc" d="M 61.5,48.5 C 66.1667,48.5 70.8333,48.5 75.5,48.5C 79.5,48.5 83.5,48.5 87.5,48.5C 87.2627,49.791 87.596,50.791 88.5,51.5C 88.2172,52.2891 87.7172,52.9558 87,53.5C 86.51,52.2068 86.3433,50.8734 86.5,49.5C 77.9832,49.8261 69.6499,49.4927 61.5,48.5 Z"/></g>
<g><path style="opacity:1" fill="#8f142f" d="M 7.5,47.5 C 9.40435,47.7376 10.7377,48.7376 11.5,50.5C 10.8592,51.4822 10.1925,52.4822 9.5,53.5C 12.4281,54.4841 15.4281,54.8174 18.5,54.5C 18.5,59.8333 18.5,65.1667 18.5,70.5C 14.8651,66.6932 11.3651,62.6932 8,58.5C 7.18405,57.1772 6.01739,56.5106 4.5,56.5C 4.90487,53.2854 5.90487,50.2854 7.5,47.5 Z"/></g>
<g><path style="opacity:1" fill="#d0c4c9" d="M 37.5,48.5 C 39.1667,48.5 40.8333,48.5 42.5,48.5C 46.8333,48.5 51.1667,48.5 55.5,48.5C 56.5,48.5 57.5,48.5 58.5,48.5C 52.021,49.4907 45.3543,49.824 38.5,49.5C 38.5,60.8333 38.5,72.1667 38.5,83.5C 37.5269,81.0521 37.1936,78.3854 37.5,75.5C 37.5,71.1667 37.5,66.8333 37.5,62.5C 37.5,57.8333 37.5,53.1667 37.5,48.5 Z"/></g>
<g><path style="opacity:1" fill="#2d5358" d="M 45.5,54.5 C 53.5,54.5 61.5,54.5 69.5,54.5C 69.5,64.1667 69.5,73.8333 69.5,83.5C 68.6762,79.6877 68.1762,75.6877 68,71.5C 65.0372,69.5394 62.3706,67.206 60,64.5C 59.79,66.0581 59.29,67.3915 58.5,68.5C 58.5,66.8333 58.5,65.1667 58.5,63.5C 54.3656,62.5151 50.0323,62.1818 45.5,62.5C 45.5,59.8333 45.5,57.1667 45.5,54.5 Z"/></g>
<g><path style="opacity:1" fill="#721732" d="M 31.5,56.5 C 33.1394,58.8061 35.1394,60.8061 37.5,62.5C 37.5,66.8333 37.5,71.1667 37.5,75.5C 33.5,71.1667 29.5,66.8333 25.5,62.5C 25.5,60.1667 25.5,57.8333 25.5,55.5C 27.5,55.8333 29.5,56.1667 31.5,56.5 Z"/></g>
<g><path style="opacity:1" fill="#38766a" d="M 84.5,74.5 C 82.8199,70.9652 80.1533,68.2985 76.5,66.5C 76.5,62.5 76.5,58.5 76.5,54.5C 79.5,54.5 82.5,54.5 85.5,54.5C 85.0025,58.2194 85.8358,61.5527 88,64.5C 92.6864,67.1188 97.5197,69.4521 102.5,71.5C 103.91,73.9492 103.576,76.1159 101.5,78C 95.8935,79.9286 92.5601,78.0953 91.5,72.5C 88.6122,71.9898 86.2789,72.6565 84.5,74.5 Z"/></g>
<g><path style="opacity:1" fill="#79ae9e" d="M 141.5,39.5 C 144.99,46.9739 147.657,54.6405 149.5,62.5C 149.5,63.1667 149.5,63.8333 149.5,64.5C 143.124,63.7989 136.791,62.7989 130.5,61.5C 130.5,54.1667 130.5,46.8333 130.5,39.5C 133.784,39.7233 136.951,40.3899 140,41.5C 140.278,40.5842 140.778,39.9175 141.5,39.5 Z"/></g>
<g><path style="opacity:1" fill="#4c927d" d="M 103.5,58.5 C 105.948,59.4731 108.615,59.8064 111.5,59.5C 111.351,58.448 111.517,57.448 112,56.5C 115.341,58.2537 118.841,59.5871 122.5,60.5C 122.5,65.8333 122.5,71.1667 122.5,76.5C 122.802,79.0593 122.468,81.3926 121.5,83.5C 121.5,82.5 121.5,81.5 121.5,80.5C 118.157,78.4994 114.49,77.4994 110.5,77.5C 110.789,74.3508 110.289,71.3508 109,68.5C 103.795,65.3162 98.4614,62.3162 93,59.5C 92.5665,55.9323 94.2332,54.2656 98,54.5C 101.133,54.1419 102.967,55.4752 103.5,58.5 Z"/></g>
<g><path style="opacity:1" fill="#939ca3" d="M 45.5,54.5 C 45.5,57.1667 45.5,59.8333 45.5,62.5C 50.0323,62.1818 54.3656,62.5151 58.5,63.5C 53.8333,63.5 49.1667,63.5 44.5,63.5C 44.19,60.2869 44.5233,57.2869 45.5,54.5 Z"/></g>
<g><path style="opacity:1" fill="#ac142e" d="M 4.5,56.5 C 6.01739,56.5106 7.18405,57.1772 8,58.5C 11.3651,62.6932 14.8651,66.6932 18.5,70.5C 18.8909,78.0392 20.2242,85.3726 22.5,92.5C 21.5041,92.5858 20.6708,92.2524 20,91.5C 14.7084,84.5396 9.04175,77.8729 3,71.5C 2.50204,74.4816 2.33537,77.4816 2.5,80.5C 1.06825,72.4549 1.73491,64.4549 4.5,56.5 Z"/></g>
<g><path style="opacity:1" fill="#861631" d="M 25.5,62.5 C 29.5,66.8333 33.5,71.1667 37.5,75.5C 37.1936,78.3854 37.5269,81.0521 38.5,83.5C 40.5,83.5 42.5,83.5 44.5,83.5C 57.09,99.76 70.4233,115.427 84.5,130.5C 82.2114,132.387 79.5447,133.721 76.5,134.5C 76.6495,133.448 76.4828,132.448 76,131.5C 59.6667,112.5 43.3333,93.5 27,74.5C 26.5357,75.0944 26.369,75.7611 26.5,76.5C 25.5139,72.03 25.1805,67.3633 25.5,62.5 Z"/></g>
<g><path style="opacity:1" fill="#5f1a34" d="M 45.5,68.5 C 46.5,68.5 47.5,68.5 48.5,68.5C 49.5612,71.6223 50.8946,74.6223 52.5,77.5C 50.1667,77.5 47.8333,77.5 45.5,77.5C 45.5,74.5 45.5,71.5 45.5,68.5 Z"/></g>
<g><path style="opacity:1" fill="#4f9580" d="M 130.5,61.5 C 136.791,62.7989 143.124,63.7989 149.5,64.5C 149.5,69.5 149.5,74.5 149.5,79.5C 142.809,79.5458 136.143,79.2125 129.5,78.5C 129.5,77.8333 129.5,77.1667 129.5,76.5C 130.487,71.6946 130.821,66.6946 130.5,61.5 Z"/></g>
<g><path style="opacity:1" fill="#931630" d="M 76.5,134.5 C 73.9506,135.65 71.6173,135.316 69.5,133.5C 70.2389,133.631 70.9056,133.464 71.5,133C 67.8837,129.351 65.0504,125.184 63,120.5C 51.6667,107.167 40.3333,93.8333 29,80.5C 28.3292,79.7476 27.4959,79.4142 26.5,79.5C 26.5,78.5 26.5,77.5 26.5,76.5C 26.369,75.7611 26.5357,75.0944 27,74.5C 43.3333,93.5 59.6667,112.5 76,131.5C 76.4828,132.448 76.6495,133.448 76.5,134.5 Z"/></g>
<g><path style="opacity:1" fill="#b097a3" d="M 45.5,68.5 C 45.5,71.5 45.5,74.5 45.5,77.5C 47.8333,77.5 50.1667,77.5 52.5,77.5C 56.0122,76.9455 59.0122,77.6122 61.5,79.5C 61.7678,81.099 61.4345,82.4324 60.5,83.5C 60.5,81.8333 60.5,80.1667 60.5,78.5C 55.1667,78.5 49.8333,78.5 44.5,78.5C 44.1872,74.9581 44.5206,71.6248 45.5,68.5 Z"/></g>
<g><path style="opacity:1" fill="#1c3847" d="M 69.5,83.5 C 71.8333,83.5 74.1667,83.5 76.5,83.5C 88.5957,91.38 101.596,97.38 115.5,101.5C 115.771,103.312 116.438,104.978 117.5,106.5C 122.194,103.821 126.861,101.155 131.5,98.5C 136.221,99.0373 140.888,99.7039 145.5,100.5C 144.242,104.642 142.242,108.308 139.5,111.5C 110.013,109.082 84.013,98.4157 61.5,79.5C 59.0122,77.6122 56.0122,76.9455 52.5,77.5C 50.8946,74.6223 49.5612,71.6223 48.5,68.5C 51.8333,68.5 55.1667,68.5 58.5,68.5C 59.29,67.3915 59.79,66.0581 60,64.5C 62.3706,67.206 65.0372,69.5394 68,71.5C 68.1762,75.6877 68.6762,79.6877 69.5,83.5 Z"/></g>
<g><path style="opacity:1" fill="#c5142d" d="M 22.5,92.5 C 30.0331,116.032 45.3665,132.032 68.5,140.5C 70.5,142.833 72.5,145.167 74.5,147.5C 70.1539,147.666 65.8206,147.499 61.5,147C 58.8958,146.61 56.5625,145.776 54.5,144.5C 54.9382,144.565 55.2716,144.399 55.5,144C 38.689,123.555 21.5224,103.388 4,83.5C 3.53566,84.0944 3.36899,84.7611 3.5,85.5C 2.54885,84.0813 2.21552,82.4147 2.5,80.5C 2.33537,77.4816 2.50204,74.4816 3,71.5C 9.04175,77.8729 14.7084,84.5396 20,91.5C 20.6708,92.2524 21.5041,92.5858 22.5,92.5 Z"/></g>
<g><path style="opacity:1" fill="#2b5859" d="M 76.5,66.5 C 80.1533,68.2985 82.8199,70.9652 84.5,74.5C 85.9467,79.6141 89.28,82.6141 94.5,83.5C 97.6414,84.3213 100.975,84.8213 104.5,85C 107.529,85.5746 110.196,86.7413 112.5,88.5C 113.15,90.4352 113.483,92.4352 113.5,94.5C 99.7278,90.1203 87.3945,83.4536 76.5,74.5C 76.5,71.8333 76.5,69.1667 76.5,66.5 Z"/></g>
<g><path style="opacity:1" fill="#24474f" d="M 76.5,74.5 C 87.3945,83.4536 99.7278,90.1203 113.5,94.5C 114.407,96.6568 115.073,98.9902 115.5,101.5C 101.596,97.38 88.5957,91.38 76.5,83.5C 76.5,80.5 76.5,77.5 76.5,74.5 Z"/></g>
<g><path style="opacity:0.991" fill="#18243b" d="M 25.5,17.5 C 25.8333,18.8333 26.1667,20.1667 26.5,21.5C 24.2512,22.0798 22.5846,23.4131 21.5,25.5C 18.0899,28.6649 15.4232,32.3316 13.5,36.5C 10.7417,39.678 8.74169,43.3447 7.5,47.5C 5.90487,50.2854 4.90487,53.2854 4.5,56.5C 1.73491,64.4549 1.06825,72.4549 2.5,80.5C 2.21552,82.4147 2.54885,84.0813 3.5,85.5C 6.31172,107.966 17.3117,125.133 36.5,137C 42.1882,140.347 48.1882,142.847 54.5,144.5C 56.5625,145.776 58.8958,146.61 61.5,147C 65.8206,147.499 70.1539,147.666 74.5,147.5C 77.5,147.5 80.5,147.5 83.5,147.5C 90.33,146.459 96.9966,144.793 103.5,142.5C 106.167,141.167 108.833,139.833 111.5,138.5C 115.229,136.549 118.729,134.216 122,131.5C 122.667,130.167 122.667,128.833 122,127.5C 118.048,123.093 114.215,118.593 110.5,114C 105.446,112.986 100.446,111.819 95.5,110.5C 89.8878,108.361 84.5545,105.694 79.5,102.5C 74.689,99.5908 70.0224,96.4241 65.5,93C 62.2463,90.2532 59.5797,87.0865 57.5,83.5C 58.5,83.5 59.5,83.5 60.5,83.5C 61.4345,82.4324 61.7678,81.099 61.5,79.5C 84.013,98.4157 110.013,109.082 139.5,111.5C 127.67,132.253 110.003,144.92 86.5,149.5C 78.5,149.5 70.5,149.5 62.5,149.5C 28.5,141.5 7.5,120.5 -0.5,86.5C -0.5,78.5 -0.5,70.5 -0.5,62.5C 3.07734,44.5825 11.744,29.5825 25.5,17.5 Z"/></g>
<g><path style="opacity:1" fill="#751732" d="M 44.5,83.5 C 46.5,83.5 48.5,83.5 50.5,83.5C 63.1667,98.5 75.8333,113.5 88.5,128.5C 87.8333,129.167 87.1667,129.833 86.5,130.5C 85.8333,130.5 85.1667,130.5 84.5,130.5C 70.4233,115.427 57.09,99.76 44.5,83.5 Z"/></g>
<g><path style="opacity:1" fill="#9e132e" d="M 26.5,79.5 C 27.4959,79.4142 28.3292,79.7476 29,80.5C 40.3333,93.8333 51.6667,107.167 63,120.5C 65.0504,125.184 67.8837,129.351 71.5,133C 70.9056,133.464 70.2389,133.631 69.5,133.5C 67.0326,133.245 65.0326,132.245 63.5,130.5C 52.5123,116.848 41.179,103.515 29.5,90.5C 28.0552,87.0635 27.0552,83.3968 26.5,79.5 Z"/></g>
<g><path style="opacity:1" fill="#3b7069" d="M 110.5,77.5 C 114.49,77.4994 118.157,78.4994 121.5,80.5C 121.5,81.5 121.5,82.5 121.5,83.5C 121.435,85.6957 120.768,87.6957 119.5,89.5C 117.201,88.3649 115.034,87.0316 113,85.5C 112.517,86.448 112.351,87.448 112.5,88.5C 110.196,86.7413 107.529,85.5746 104.5,85C 100.975,84.8213 97.6414,84.3213 94.5,83.5C 97.8499,83.665 101.183,83.4983 104.5,83C 107.607,82.2941 109.607,80.4608 110.5,77.5 Z"/></g>
<g><path style="opacity:1" fill="#621a34" d="M 50.5,83.5 C 52.8333,83.5 55.1667,83.5 57.5,83.5C 59.5797,87.0865 62.2463,90.2532 65.5,93C 70.0224,96.4241 74.689,99.5908 79.5,102.5C 84.8333,109.5 90.1667,116.5 95.5,123.5C 95.1667,124.167 94.8333,124.833 94.5,125.5C 92.7837,127.025 90.7837,128.025 88.5,128.5C 75.8333,113.5 63.1667,98.5 50.5,83.5 Z"/></g>
<g><path style="opacity:0.998" fill="#38776a" d="M 129.5,78.5 C 136.143,79.2125 142.809,79.5458 149.5,79.5C 149.5,81.8333 149.5,84.1667 149.5,86.5C 148.662,86.8417 148.328,87.5084 148.5,88.5C 147.448,89.5305 146.114,90.1971 144.5,90.5C 138.765,89.3382 133.099,89.0049 127.5,89.5C 128.422,85.8881 129.089,82.2215 129.5,78.5 Z"/></g>
<g><path style="opacity:1" fill="#da0b28" d="M 54.5,144.5 C 48.1882,142.847 42.1882,140.347 36.5,137C 17.3117,125.133 6.31172,107.966 3.5,85.5C 3.36899,84.7611 3.53566,84.0944 4,83.5C 21.5224,103.388 38.689,123.555 55.5,144C 55.2716,144.399 54.9382,144.565 54.5,144.5 Z"/></g>
<g><path style="opacity:1" fill="#ad1931" d="M 29.5,90.5 C 41.179,103.515 52.5123,116.848 63.5,130.5C 46.0895,122.353 34.7562,109.02 29.5,90.5 Z"/></g>
<g><path style="opacity:1" fill="#2e5c5c" d="M 148.5,88.5 C 147.812,92.5837 146.812,96.5837 145.5,100.5C 140.888,99.7039 136.221,99.0373 131.5,98.5C 132.429,97.6851 133.429,96.8518 134.5,96C 131.865,94.8361 129.198,93.6694 126.5,92.5C 127.127,91.5832 127.461,90.5832 127.5,89.5C 133.099,89.0049 138.765,89.3382 144.5,90.5C 146.114,90.1971 147.448,89.5305 148.5,88.5 Z"/></g>
<g><path style="opacity:1" fill="#4a1c35" d="M 79.5,102.5 C 84.5545,105.694 89.8878,108.361 95.5,110.5C 97.0908,113.431 99.0908,116.098 101.5,118.5C 100.167,120.167 98.8333,121.833 97.5,123.5C 96.8333,123.5 96.1667,123.5 95.5,123.5C 90.1667,116.5 84.8333,109.5 79.5,102.5 Z"/></g>
<g><path style="opacity:1" fill="#735165" d="M 104.5,126.5 C 103.5,127.167 102.5,127.833 101.5,128.5C 100.855,126.174 99.522,124.507 97.5,123.5C 98.8333,121.833 100.167,120.167 101.5,118.5C 105.835,117.089 107.668,118.756 107,123.5C 105.955,124.373 105.122,125.373 104.5,126.5 Z"/></g>
<g><path style="opacity:1" fill="#3a2038" d="M 95.5,110.5 C 100.446,111.819 105.446,112.986 110.5,114C 114.215,118.593 118.048,123.093 122,127.5C 122.667,128.833 122.667,130.167 122,131.5C 118.729,134.216 115.229,136.549 111.5,138.5C 109.458,134.33 107.124,130.33 104.5,126.5C 105.122,125.373 105.955,124.373 107,123.5C 107.668,118.756 105.835,117.089 101.5,118.5C 99.0908,116.098 97.0908,113.431 95.5,110.5 Z"/></g>
<g><path style="opacity:1" fill="#9d7a89" d="M 95.5,123.5 C 96.1667,123.5 96.8333,123.5 97.5,123.5C 99.522,124.507 100.855,126.174 101.5,128.5C 100.167,129.5 98.8333,130.5 97.5,131.5C 97.0075,129.181 96.0075,127.181 94.5,125.5C 94.8333,124.833 95.1667,124.167 95.5,123.5 Z"/></g>
<g><path style="opacity:1" fill="#c6a6b0" d="M 94.5,125.5 C 96.0075,127.181 97.0075,129.181 97.5,131.5C 96.8333,131.5 96.5,131.833 96.5,132.5C 94.4832,133.529 92.4832,134.529 90.5,135.5C 90.3304,132.796 88.9971,131.129 86.5,130.5C 87.1667,129.833 87.8333,129.167 88.5,128.5C 90.7837,128.025 92.7837,127.025 94.5,125.5 Z"/></g>
<g><path style="opacity:1" fill="#591b35" d="M 104.5,126.5 C 107.124,130.33 109.458,134.33 111.5,138.5C 108.833,139.833 106.167,141.167 103.5,142.5C 101.971,138.632 99.6374,135.299 96.5,132.5C 96.5,131.833 96.8333,131.5 97.5,131.5C 98.8333,130.5 100.167,129.5 101.5,128.5C 102.5,127.833 103.5,127.167 104.5,126.5 Z"/></g>
<g><path style="opacity:1" fill="#7f1832" d="M 96.5,132.5 C 99.6374,135.299 101.971,138.632 103.5,142.5C 96.9966,144.793 90.33,146.459 83.5,147.5C 83.2363,144.243 81.5696,142.243 78.5,141.5C 82.7476,140.043 86.7476,138.043 90.5,135.5C 92.4832,134.529 94.4832,133.529 96.5,132.5 Z"/></g>
<g><path style="opacity:1" fill="#a31831" d="M 68.5,140.5 C 70.3664,141.014 72.1997,141.68 74,142.5C 75.4397,141.852 76.9397,141.519 78.5,141.5C 81.5696,142.243 83.2363,144.243 83.5,147.5C 80.5,147.5 77.5,147.5 74.5,147.5C 72.5,145.167 70.5,142.833 68.5,140.5 Z"/></g>
</svg>
