<?xml version="1.0" encoding="UTF-8"?>
<!DOCTYPE svg PUBLIC "-//W3C//DTD SVG 1.1//EN" "http://www.w3.org/Graphics/SVG/1.1/DTD/svg11.dtd">
<svg xmlns="http://www.w3.org/2000/svg" version="1.1" width="130px" height="130px" style="shape-rendering:geometricPrecision; text-rendering:geometricPrecision; image-rendering:optimizeQuality; fill-rule:evenodd; clip-rule:evenodd" xmlns:xlink="http://www.w3.org/1999/xlink">
<g><path style="opacity:1" fill="#67a7f7" d="M 55.5,-0.5 C 56.5,-0.5 57.5,-0.5 58.5,-0.5C 60.4848,2.12089 61.4848,5.12089 61.5,8.5C 60.4863,9.67373 59.153,10.3404 57.5,10.5C 57.0015,7.17137 56.0015,4.0047 54.5,1C 55.056,0.617425 55.3893,0.117425 55.5,-0.5 Z"/></g>
<g><path style="opacity:0.992" fill="#b6e6fc" d="M 72.5,-0.5 C 73.5,-0.5 74.5,-0.5 75.5,-0.5C 79.5914,0.523724 83.5914,1.85706 87.5,3.5C 87.9459,10.2146 90.9459,15.7146 96.5,20C 101.339,21.9157 105.672,24.5824 109.5,28C 113.359,28.6757 117.026,29.8423 120.5,31.5C 122.405,34.3037 124.071,37.3037 125.5,40.5C 121.124,40.0912 116.79,39.4245 112.5,38.5C 112.785,36.712 112.452,35.0453 111.5,33.5C 99.4378,26.8055 87.4378,20.1389 75.5,13.5C 76.1239,13.0831 76.4573,12.4164 76.5,11.5C 74.5774,7.66431 73.244,3.66431 72.5,-0.5 Z"/></g>
<g><path style="opacity:1" fill="#3d81eb" d="M 53.5,-0.5 C 54.1667,-0.5 54.8333,-0.5 55.5,-0.5C 55.3893,0.117425 55.056,0.617425 54.5,1C 56.0015,4.0047 57.0015,7.17137 57.5,10.5C 56.205,11.4884 54.8717,12.4884 53.5,13.5C 49.6733,15.246 46.0066,17.246 42.5,19.5C 41.8333,19.8333 41.1667,20.1667 40.5,20.5C 38.6736,15.3446 37.6736,10.0113 37.5,4.5C 42.8334,2.50578 48.1667,0.839114 53.5,-0.5 Z"/></g>
<g><path style="opacity:0.968" fill="#d2fcfe" d="M 87.5,3.5 C 102.2,8.53766 113.2,17.871 120.5,31.5C 117.026,29.8423 113.359,28.6757 109.5,28C 105.672,24.5824 101.339,21.9157 96.5,20C 90.9459,15.7146 87.9459,10.2146 87.5,3.5 Z"/></g>
<g><path style="opacity:1" fill="#8ec6f9" d="M 58.5,-0.5 C 63.1667,-0.5 67.8333,-0.5 72.5,-0.5C 73.244,3.66431 74.5774,7.66431 76.5,11.5C 76.4573,12.4164 76.1239,13.0831 75.5,13.5C 71.7004,11.7664 68.0337,9.76641 64.5,7.5C 63.5832,8.12723 62.5832,8.46056 61.5,8.5C 61.4848,5.12089 60.4848,2.12089 58.5,-0.5 Z"/></g>
<g><path style="opacity:1" fill="#f7f9fd" d="M 75.5,13.5 C 87.4378,20.1389 99.4378,26.8055 111.5,33.5C 112.452,35.0453 112.785,36.712 112.5,38.5C 112.5,42.5 112.5,46.5 112.5,50.5C 112.5,53.5 112.5,56.5 112.5,59.5C 112.717,64.2303 112.383,68.8969 111.5,73.5C 111.414,75.677 110.747,77.677 109.5,79.5C 111.023,81.2825 113.023,81.9492 115.5,81.5C 115.5,82.5 115.5,83.5 115.5,84.5C 112.996,85.5839 110.663,86.9172 108.5,88.5C 106.031,89.5686 103.698,90.9019 101.5,92.5C 100.232,90.6957 99.5652,88.6957 99.5,86.5C 98.5178,83.2365 97.8511,79.9032 97.5,76.5C 97.3691,75.6236 97.7025,74.9569 98.5,74.5C 103.965,78.6312 106.298,76.9645 105.5,69.5C 106.489,64.0247 106.822,58.358 106.5,52.5C 106.5,50.5 106.5,48.5 106.5,46.5C 106.817,43.4281 106.484,40.4281 105.5,37.5C 93.8162,30.8056 82.1495,24.1389 70.5,17.5C 68.4939,16.4892 66.4939,15.4892 64.5,14.5C 62.8295,14.6682 61.4961,15.3349 60.5,16.5C 59.391,16.5569 58.391,16.8902 57.5,17.5C 54.858,17.5123 53.5246,16.179 53.5,13.5C 54.8717,12.4884 56.205,11.4884 57.5,10.5C 59.153,10.3404 60.4863,9.67373 61.5,8.5C 62.5832,8.46056 63.5832,8.12723 64.5,7.5C 68.0337,9.76641 71.7004,11.7664 75.5,13.5 Z"/></g>
<g><path style="opacity:1" fill="#99baf1" d="M 53.5,13.5 C 53.5246,16.179 54.858,17.5123 57.5,17.5C 57.5,17.8333 57.5,18.1667 57.5,18.5C 53.1667,20.5 48.8333,22.5 44.5,24.5C 43.5592,22.9505 42.8925,21.2838 42.5,19.5C 46.0066,17.246 49.6733,15.246 53.5,13.5 Z"/></g>
<g><path style="opacity:1" fill="#658cda" d="M 42.5,19.5 C 42.8925,21.2838 43.5592,22.9505 44.5,24.5C 44.5,24.8333 44.5,25.1667 44.5,25.5C 42.5266,26.4867 40.5266,27.4867 38.5,28.5C 34.2996,24.8553 34.9662,22.1887 40.5,20.5C 41.1667,20.1667 41.8333,19.8333 42.5,19.5 Z"/></g>
<g><path style="opacity:1" fill="#6fadf7" d="M 70.5,17.5 C 73.8555,26.3587 79.8555,32.8587 88.5,37C 93.2003,42.518 99.2003,45.6847 106.5,46.5C 106.5,48.5 106.5,50.5 106.5,52.5C 103.167,51.1667 99.8333,49.8333 96.5,48.5C 93.7844,44.1365 89.7844,41.8032 84.5,41.5C 76.1688,34.4741 69.0021,26.4741 63,17.5C 62.3292,16.7476 61.4959,16.4142 60.5,16.5C 61.4961,15.3349 62.8295,14.6682 64.5,14.5C 66.4939,15.4892 68.4939,16.4892 70.5,17.5 Z"/></g>
<g><path style="opacity:1" fill="#2b38ae" d="M 28.5,10.5 C 30.3288,14.6347 31.9955,18.968 33.5,23.5C 32.5089,24.6652 31.5089,25.8319 30.5,27C 31.1476,28.4397 31.4809,29.9397 31.5,31.5C 33.2259,31.1854 34.8925,31.0187 36.5,31C 37.7197,34.5687 39.7197,38.0687 42.5,41.5C 38.9581,41.1872 35.6248,41.5206 32.5,42.5C 32.5,45.5 32.5,48.5 32.5,51.5C 30.5877,50.2008 28.5877,49.2008 26.5,48.5C 28.2252,48.1575 28.7252,47.1575 28,45.5C 25.7067,41.7478 23.5401,37.9144 21.5,34C 20.8333,33.3333 20.1667,33.3333 19.5,34C 17.2968,36.3722 14.9635,38.5389 12.5,40.5C 11.1667,39.5 9.83333,38.5 8.5,37.5C 11.5903,30.2307 16.0903,23.8973 22,18.5C 22.49,17.2068 22.6567,15.8734 22.5,14.5C 24.2228,12.7819 26.2228,11.4486 28.5,10.5 Z"/></g>
<g><path style="opacity:1" fill="#3b80ec" d="M 57.5,18.5 C 62.496,26.6779 68.496,34.1779 75.5,41C 69.1754,41.4995 62.8421,41.6662 56.5,41.5C 52.8444,36.8662 49.6777,31.8662 47,26.5C 46.3292,25.7476 45.4959,25.4142 44.5,25.5C 44.5,25.1667 44.5,24.8333 44.5,24.5C 48.8333,22.5 53.1667,20.5 57.5,18.5 Z"/></g>
<g><path style="opacity:1" fill="#5e9ef4" d="M 60.5,16.5 C 61.4959,16.4142 62.3292,16.7476 63,17.5C 69.0021,26.4741 76.1688,34.4741 84.5,41.5C 81.525,41.7134 78.8584,42.7134 76.5,44.5C 75.8182,43.7573 75.1515,43.0906 74.5,42.5C 60.8333,42.5 47.1667,42.5 33.5,42.5C 33.1667,42.5 32.8333,42.5 32.5,42.5C 35.6248,41.5206 38.9581,41.1872 42.5,41.5C 47.1667,41.5 51.8333,41.5 56.5,41.5C 62.8421,41.6662 69.1754,41.4995 75.5,41C 68.496,34.1779 62.496,26.6779 57.5,18.5C 57.5,18.1667 57.5,17.8333 57.5,17.5C 58.391,16.8902 59.391,16.5569 60.5,16.5 Z"/></g>
<g><path style="opacity:1" fill="#f8f7fc" d="M 26.5,48.5 C 25.8333,48.5 25.1667,48.5 24.5,48.5C 23.791,47.596 22.791,47.2627 21.5,47.5C 21.1786,53.0262 21.5119,58.3595 22.5,63.5C 24.8704,88.0348 37.2037,105.535 59.5,116C 62.367,116.801 65.0336,116.634 67.5,115.5C 68.5,115.5 69.5,115.5 70.5,115.5C 72.5,116.167 73.8333,117.5 74.5,119.5C 71.1556,120.835 67.8222,122.168 64.5,123.5C 61.2512,122.188 57.9179,121.188 54.5,120.5C 40.1945,113.528 29.5278,102.861 22.5,88.5C 19.4081,81.1328 17.4081,73.4661 16.5,65.5C 16.5,59.1667 16.5,52.8333 16.5,46.5C 14.1667,46.5 11.8333,46.5 9.5,46.5C 9.06178,46.5654 8.72845,46.3988 8.5,46C 10.4641,44.549 11.7974,42.7157 12.5,40.5C 14.9635,38.5389 17.2968,36.3722 19.5,34C 20.1667,33.3333 20.8333,33.3333 21.5,34C 23.5401,37.9144 25.7067,41.7478 28,45.5C 28.7252,47.1575 28.2252,48.1575 26.5,48.5 Z"/></g>
<g><path style="opacity:1" fill="#89c2f9" d="M 70.5,17.5 C 82.1495,24.1389 93.8162,30.8056 105.5,37.5C 106.484,40.4281 106.817,43.4281 106.5,46.5C 99.2003,45.6847 93.2003,42.518 88.5,37C 79.8555,32.8587 73.8555,26.3587 70.5,17.5 Z"/></g>
<g><path style="opacity:1" fill="#2759c6" d="M 37.5,4.5 C 37.6736,10.0113 38.6736,15.3446 40.5,20.5C 34.9662,22.1887 34.2996,24.8553 38.5,28.5C 40.5266,27.4867 42.5266,26.4867 44.5,25.5C 45.4959,25.4142 46.3292,25.7476 47,26.5C 49.6777,31.8662 52.8444,36.8662 56.5,41.5C 51.8333,41.5 47.1667,41.5 42.5,41.5C 39.7197,38.0687 37.7197,34.5687 36.5,31C 34.8925,31.0187 33.2259,31.1854 31.5,31.5C 31.4809,29.9397 31.1476,28.4397 30.5,27C 31.5089,25.8319 32.5089,24.6652 33.5,23.5C 31.9955,18.968 30.3288,14.6347 28.5,10.5C 30.9464,7.76933 33.9464,5.76933 37.5,4.5 Z"/></g>
<g><path style="opacity:1" fill="#dddcf2" d="M 32.5,42.5 C 32.8333,42.5 33.1667,42.5 33.5,42.5C 33.5,52.1667 33.5,61.8333 33.5,71.5C 39.8333,71.5 46.1667,71.5 52.5,71.5C 52.5,71.8333 52.5,72.1667 52.5,72.5C 51.5,72.5 50.5,72.5 49.5,72.5C 45.1667,72.5 40.8333,72.5 36.5,72.5C 35.1667,72.5 33.8333,72.5 32.5,72.5C 32.5,65.5 32.5,58.5 32.5,51.5C 32.5,48.5 32.5,45.5 32.5,42.5 Z"/></g>
<g><path style="opacity:1" fill="#fafafd" d="M 33.5,42.5 C 47.1667,42.5 60.8333,42.5 74.5,42.5C 74.5,43.8333 74.5,45.1667 74.5,46.5C 71.6146,46.1936 68.9479,46.5269 66.5,47.5C 65.5076,55.3159 65.1743,63.3159 65.5,71.5C 63.8333,71.5 62.1667,71.5 60.5,71.5C 60.8257,63.3159 60.4924,55.3159 59.5,47.5C 52.5,47.5 45.5,47.5 38.5,47.5C 38.5,49.8333 38.5,52.1667 38.5,54.5C 42.5,54.5 46.5,54.5 50.5,54.5C 50.5,55.8333 50.5,57.1667 50.5,58.5C 46.7016,59.4834 42.7016,59.8168 38.5,59.5C 38.5,62.1667 38.5,64.8333 38.5,67.5C 43.1667,67.5 47.8333,67.5 52.5,67.5C 52.5,68.8333 52.5,70.1667 52.5,71.5C 46.1667,71.5 39.8333,71.5 33.5,71.5C 33.5,61.8333 33.5,52.1667 33.5,42.5 Z"/></g>
<g><path style="opacity:1" fill="#eff4fd" d="M 84.5,41.5 C 89.7844,41.8032 93.7844,44.1365 96.5,48.5C 96.5,49.5 96.5,50.5 96.5,51.5C 94.1667,51.5 91.8333,51.5 89.5,51.5C 89.1778,47.0243 86.8444,45.5243 82.5,47C 79.6793,49.7169 80.0126,52.0502 83.5,54C 87.7193,54.7913 91.3859,56.6246 94.5,59.5C 95.3742,61.7466 95.7076,64.0799 95.5,66.5C 94.4676,69.5325 92.4676,71.5325 89.5,72.5C 80.471,74.4964 74.8043,71.1631 72.5,62.5C 74.8333,62.5 77.1667,62.5 79.5,62.5C 79.5638,66.0624 81.3972,67.7291 85,67.5C 88.9388,67.8957 90.2721,66.2291 89,62.5C 85.3954,60.2818 81.5621,58.4485 77.5,57C 74.3799,54.5923 73.0466,51.4257 73.5,47.5C 71.1667,47.5 68.8333,47.5 66.5,47.5C 68.9479,46.5269 71.6146,46.1936 74.5,46.5C 74.5,45.1667 74.5,43.8333 74.5,42.5C 75.1515,43.0906 75.8182,43.7573 76.5,44.5C 78.8584,42.7134 81.525,41.7134 84.5,41.5 Z"/></g>
<g><path style="opacity:1" fill="#988ed9" d="M 9.5,46.5 C 11.8333,46.5 14.1667,46.5 16.5,46.5C 16.5,52.8333 16.5,59.1667 16.5,65.5C 15.5104,59.69 15.1771,53.69 15.5,47.5C 13.2646,47.7947 11.2646,47.4614 9.5,46.5 Z"/></g>
<g><path style="opacity:1" fill="#9892d8" d="M 24.5,48.5 C 22.5583,53.0557 21.8917,58.0557 22.5,63.5C 21.5119,58.3595 21.1786,53.0262 21.5,47.5C 22.791,47.2627 23.791,47.596 24.5,48.5 Z"/></g>
<g><path style="opacity:1" fill="#1f4bb7" d="M 59.5,47.5 C 59.5,52.8333 59.5,58.1667 59.5,63.5C 57.233,60.7291 54.733,58.0625 52,55.5C 51.7679,56.7375 51.2679,57.7375 50.5,58.5C 50.5,57.1667 50.5,55.8333 50.5,54.5C 46.5,54.5 42.5,54.5 38.5,54.5C 38.5,52.1667 38.5,49.8333 38.5,47.5C 45.5,47.5 52.5,47.5 59.5,47.5 Z"/></g>
<g><path style="opacity:1" fill="#88c1f9" d="M 112.5,38.5 C 116.79,39.4245 121.124,40.0912 125.5,40.5C 126.654,43.4518 127.654,46.4518 128.5,49.5C 123.048,50.4182 117.714,50.7515 112.5,50.5C 112.5,46.5 112.5,42.5 112.5,38.5 Z"/></g>
<g><path style="opacity:1" fill="#5093f5" d="M 96.5,48.5 C 99.8333,49.8333 103.167,51.1667 106.5,52.5C 106.822,58.358 106.489,64.0247 105.5,69.5C 105.714,67.8561 105.38,66.3561 104.5,65C 102.129,64.2652 99.7954,63.4318 97.5,62.5C 96.8281,63.9492 96.1614,65.2825 95.5,66.5C 95.7076,64.0799 95.3742,61.7466 94.5,59.5C 91.3859,56.6246 87.7193,54.7913 83.5,54C 80.0126,52.0502 79.6793,49.7169 82.5,47C 86.8444,45.5243 89.1778,47.0243 89.5,51.5C 91.8333,51.5 94.1667,51.5 96.5,51.5C 96.5,50.5 96.5,49.5 96.5,48.5 Z"/></g>
<g><path style="opacity:1" fill="#2e6bd8" d="M 66.5,47.5 C 68.8333,47.5 71.1667,47.5 73.5,47.5C 73.0466,51.4257 74.3799,54.5923 77.5,57C 81.5621,58.4485 85.3954,60.2818 89,62.5C 90.2721,66.2291 88.9388,67.8957 85,67.5C 81.3972,67.7291 79.5638,66.0624 79.5,62.5C 77.1667,62.5 74.8333,62.5 72.5,62.5C 70.2279,61.5589 68.2279,60.2255 66.5,58.5C 66.5,54.8333 66.5,51.1667 66.5,47.5 Z"/></g>
<g><path style="opacity:1" fill="#65a6f7" d="M 128.5,49.5 C 128.232,51.099 128.566,52.4324 129.5,53.5C 129.5,55.5 129.5,57.5 129.5,59.5C 123.74,59.0147 118.074,59.0147 112.5,59.5C 112.5,56.5 112.5,53.5 112.5,50.5C 117.714,50.7515 123.048,50.4182 128.5,49.5 Z"/></g>
<g><path style="opacity:1" fill="#a8bbe5" d="M 59.5,47.5 C 60.4924,55.3159 60.8257,63.3159 60.5,71.5C 62.1667,71.5 63.8333,71.5 65.5,71.5C 65.1743,63.3159 65.5076,55.3159 66.5,47.5C 66.5,51.1667 66.5,54.8333 66.5,58.5C 66.5,62.5 66.5,66.5 66.5,70.5C 64.7211,72.3435 62.3878,73.0102 59.5,72.5C 59.5,69.5 59.5,66.5 59.5,63.5C 59.5,58.1667 59.5,52.8333 59.5,47.5 Z"/></g>
<g><path style="opacity:1" fill="#4434ba" d="M 24.5,48.5 C 25.1667,48.5 25.8333,48.5 26.5,48.5C 28.5877,49.2008 30.5877,50.2008 32.5,51.5C 32.5,58.5 32.5,65.5 32.5,72.5C 33.8333,72.5 35.1667,72.5 36.5,72.5C 48.1667,86.5 59.8333,100.5 71.5,114.5C 70.8333,114.5 70.5,114.833 70.5,115.5C 69.5,115.5 68.5,115.5 67.5,115.5C 52.49,98.1263 37.49,80.7929 22.5,63.5C 21.8917,58.0557 22.5583,53.0557 24.5,48.5 Z"/></g>
<g><path style="opacity:1" fill="#5f3ecc" d="M 8.5,37.5 C 9.83333,38.5 11.1667,39.5 12.5,40.5C 11.7974,42.7157 10.4641,44.549 8.5,46C 8.72845,46.3988 9.06178,46.5654 9.5,46.5C 11.2646,47.4614 13.2646,47.7947 15.5,47.5C 15.1771,53.69 15.5104,59.69 16.5,65.5C 17.4081,73.4661 19.4081,81.1328 22.5,88.5C 20.629,88.1412 19.129,87.1412 18,85.5C 13.3767,79.2079 8.37671,73.2079 3,67.5C 2.50649,69.1341 2.33982,70.8008 2.5,72.5C 0.10619,60.1293 2.10619,48.4626 8.5,37.5 Z"/></g>
<g><path style="opacity:1" fill="#1c4bb7" d="M 66.5,58.5 C 68.2279,60.2255 70.2279,61.5589 72.5,62.5C 74.8043,71.1631 80.471,74.4964 89.5,72.5C 92.4456,73.3061 95.1123,74.6395 97.5,76.5C 97.8511,79.9032 98.5178,83.2365 99.5,86.5C 88.1068,81.97 77.1068,76.6367 66.5,70.5C 66.5,66.5 66.5,62.5 66.5,58.5 Z"/></g>
<g><path style="opacity:1" fill="#573bc6" d="M 22.5,63.5 C 37.49,80.7929 52.49,98.1263 67.5,115.5C 65.0336,116.634 62.367,116.801 59.5,116C 37.2037,105.535 24.8704,88.0348 22.5,63.5 Z"/></g>
<g><path style="opacity:0.933" fill="#4085ef" d="M 129.5,59.5 C 129.5,63.8333 129.5,68.1667 129.5,72.5C 123.415,71.0623 117.415,71.3956 111.5,73.5C 112.383,68.8969 112.717,64.2303 112.5,59.5C 118.074,59.0147 123.74,59.0147 129.5,59.5 Z"/></g>
<g><path style="opacity:1" fill="#326cd7" d="M 105.5,69.5 C 106.298,76.9645 103.965,78.6312 98.5,74.5C 97.7025,74.9569 97.3691,75.6236 97.5,76.5C 95.1123,74.6395 92.4456,73.3061 89.5,72.5C 92.4676,71.5325 94.4676,69.5325 95.5,66.5C 96.1614,65.2825 96.8281,63.9492 97.5,62.5C 99.7954,63.4318 102.129,64.2652 104.5,65C 105.38,66.3561 105.714,67.8561 105.5,69.5 Z"/></g>
<g><path style="opacity:1" fill="#7342db" d="M 22.5,88.5 C 29.5278,102.861 40.1945,113.528 54.5,120.5C 54.0618,120.435 53.7284,120.601 53.5,121C 55.4049,122.815 57.0716,124.815 58.5,127C 57.9056,127.464 57.2389,127.631 56.5,127.5C 25.7071,121.707 7.70706,103.374 2.5,72.5C 2.33982,70.8008 2.50649,69.1341 3,67.5C 8.37671,73.2079 13.3767,79.2079 18,85.5C 19.129,87.1412 20.629,88.1412 22.5,88.5 Z"/></g>
<g><path style="opacity:1" fill="#3731b1" d="M 36.5,72.5 C 40.8333,72.5 45.1667,72.5 49.5,72.5C 57.6856,82.2642 67.6856,89.5975 79.5,94.5C 81.8333,97.8333 84.1667,101.167 86.5,104.5C 85.8333,104.5 85.5,104.833 85.5,105.5C 83.8089,106.864 82.1423,108.197 80.5,109.5C 78.7697,110.026 77.4363,111.026 76.5,112.5C 74.7162,112.893 73.0495,113.559 71.5,114.5C 59.8333,100.5 48.1667,86.5 36.5,72.5 Z"/></g>
<g><path style="opacity:0.993" fill="#05228e" d="M 119.5,99.5 C 117.267,104.401 113.934,108.401 109.5,111.5C 107.99,106.788 104.99,102.621 100.5,99C 93.2894,98.4285 86.2894,96.9285 79.5,94.5C 67.6856,89.5975 57.6856,82.2642 49.5,72.5C 50.5,72.5 51.5,72.5 52.5,72.5C 53.1174,72.3893 53.6174,72.056 54,71.5C 67.9572,84.5642 84.4572,93.0642 103.5,97C 108.972,97.8671 114.306,98.7004 119.5,99.5 Z"/></g>
<g><path style="opacity:1" fill="#2e67d4" d="M 129.5,72.5 C 129.5,73.5 129.5,74.5 129.5,75.5C 128.469,77.9608 127.802,80.6275 127.5,83.5C 123.256,81.8905 119.256,82.2238 115.5,84.5C 115.5,83.5 115.5,82.5 115.5,81.5C 113.023,81.9492 111.023,81.2825 109.5,79.5C 110.747,77.677 111.414,75.677 111.5,73.5C 117.415,71.3956 123.415,71.0623 129.5,72.5 Z"/></g>
<g><path style="opacity:1" fill="#204bb7" d="M 127.5,83.5 C 126.695,85.9154 125.695,88.2487 124.5,90.5C 119.27,89.3462 113.936,88.6795 108.5,88.5C 110.663,86.9172 112.996,85.5839 115.5,84.5C 119.256,82.2238 123.256,81.8905 127.5,83.5 Z"/></g>
<g><path style="opacity:1" fill="#11319d" d="M 59.5,63.5 C 59.5,66.5 59.5,69.5 59.5,72.5C 62.3878,73.0102 64.7211,72.3435 66.5,70.5C 77.1068,76.6367 88.1068,81.97 99.5,86.5C 99.5652,88.6957 100.232,90.6957 101.5,92.5C 103.698,90.9019 106.031,89.5686 108.5,88.5C 113.936,88.6795 119.27,89.3462 124.5,90.5C 123.231,93.7569 121.564,96.7569 119.5,99.5C 114.306,98.7004 108.972,97.8671 103.5,97C 84.4572,93.0642 67.9572,84.5642 54,71.5C 53.6174,72.056 53.1174,72.3893 52.5,72.5C 52.5,72.1667 52.5,71.8333 52.5,71.5C 52.5,70.1667 52.5,68.8333 52.5,67.5C 47.8333,67.5 43.1667,67.5 38.5,67.5C 38.5,64.8333 38.5,62.1667 38.5,59.5C 42.7016,59.8168 46.7016,59.4834 50.5,58.5C 51.2679,57.7375 51.7679,56.7375 52,55.5C 54.733,58.0625 57.233,60.7291 59.5,63.5 Z"/></g>
<g><path style="opacity:0.424" fill="#102695" d="M 22.5,14.5 C 22.6567,15.8734 22.49,17.2068 22,18.5C 16.0903,23.8973 11.5903,30.2307 8.5,37.5C 2.10619,48.4626 0.10619,60.1293 2.5,72.5C 7.70706,103.374 25.7071,121.707 56.5,127.5C 68.5662,129.079 80.2328,127.245 91.5,122C 89.2553,119.269 87.2553,116.436 85.5,113.5C 87.1392,112.527 88.4726,111.194 89.5,109.5C 94.1034,107.189 94.6034,104.189 91,100.5C 89.3333,101.733 87.8333,103.067 86.5,104.5C 84.1667,101.167 81.8333,97.8333 79.5,94.5C 86.2894,96.9285 93.2894,98.4285 100.5,99C 104.99,102.621 107.99,106.788 109.5,111.5C 100.08,121.087 88.7463,127.087 75.5,129.5C 68.1667,129.5 60.8333,129.5 53.5,129.5C 24.5,122.5 6.5,104.5 -0.5,75.5C -0.5,68.1667 -0.5,60.8333 -0.5,53.5C 2.52114,37.8006 10.1878,24.8006 22.5,14.5 Z"/></g>
<g><path style="opacity:1" fill="#d4d1ef" d="M 76.5,112.5 C 78.2644,113.326 79.5977,114.659 80.5,116.5C 78.7837,118.025 76.7837,119.025 74.5,119.5C 73.8333,117.5 72.5,116.167 70.5,115.5C 70.5,114.833 70.8333,114.5 71.5,114.5C 73.0495,113.559 74.7162,112.893 76.5,112.5 Z"/></g>
<g><path style="opacity:1" fill="#a8a5dc" d="M 80.5,109.5 C 82.7099,109.894 84.0432,111.227 84.5,113.5C 83.205,114.488 81.8717,115.488 80.5,116.5C 79.5977,114.659 78.2644,113.326 76.5,112.5C 77.4363,111.026 78.7697,110.026 80.5,109.5 Z"/></g>
<g><path style="opacity:1" fill="#7f7fcc" d="M 85.5,105.5 C 87.7099,105.894 89.0432,107.227 89.5,109.5C 88.4726,111.194 87.1392,112.527 85.5,113.5C 85.1667,113.5 84.8333,113.5 84.5,113.5C 84.0432,111.227 82.7099,109.894 80.5,109.5C 82.1423,108.197 83.8089,106.864 85.5,105.5 Z"/></g>
<g><path style="opacity:1" fill="#4d52b4" d="M 89.5,109.5 C 89.0432,107.227 87.7099,105.894 85.5,105.5C 85.5,104.833 85.8333,104.5 86.5,104.5C 87.8333,103.067 89.3333,101.733 91,100.5C 94.6034,104.189 94.1034,107.189 89.5,109.5 Z"/></g>
<g><path style="opacity:1" fill="#4f39c1" d="M 84.5,113.5 C 84.8333,113.5 85.1667,113.5 85.5,113.5C 87.2553,116.436 89.2553,119.269 91.5,122C 80.2328,127.245 68.5662,129.079 56.5,127.5C 57.2389,127.631 57.9056,127.464 58.5,127C 57.0716,124.815 55.4049,122.815 53.5,121C 53.7284,120.601 54.0618,120.435 54.5,120.5C 57.9179,121.188 61.2512,122.188 64.5,123.5C 67.8222,122.168 71.1556,120.835 74.5,119.5C 76.7837,119.025 78.7837,118.025 80.5,116.5C 81.8717,115.488 83.205,114.488 84.5,113.5 Z"/></g>
</svg>
