<svg width="60" height="61" viewBox="0 0 60 61" fill="none" xmlns="http://www.w3.org/2000/svg">
<g clip-path="url(#clip0_4756_99441)">
<path d="M30 60.5C46.5685 60.5 60 47.0685 60 30.5C60 13.9314 46.5685 0.5 30 0.5C13.4315 0.5 0 13.9314 0 30.5C0 47.0685 13.4315 60.5 30 60.5Z" fill="url(#paint0_radial_4756_99441)"/>
<path d="M42.9238 45.6065C36.8126 44.588 21.1329 38.6332 17.9087 22.8607C16.2958 15.2182 17.8186 4.04001 17.8186 4.04001C5.87047 9.53126 -1.19572 22.6743 1.54465 36.1703C4.7689 51.9428 20.2682 62.225 36.1329 59.02C44.3104 57.4183 50.8626 52.5617 55.1311 46.0735C53.0033 47.0425 49.035 46.6251 42.9238 45.6065Z" fill="url(#paint1_linear_4756_99441)"/>
<path fill-rule="evenodd" clip-rule="evenodd" d="M29.8417 4.16406L7.50521 16.4835V16.5797L10.239 18.2767V18.2601L29.8417 7.15572L49.4444 18.2601V28.276C49.4444 31.7447 49.2713 34.0398 48.2591 36.736L46.8632 35.8163C46.1132 35.3223 45.1427 35.9904 45.3366 36.8673L46.5147 42.1949C46.6625 42.8634 47.4233 43.189 48.009 42.8344L52.5008 40.1147C53.2496 39.6613 53.0957 38.5328 52.2529 38.2964L50.7972 37.8882C51.9574 34.8286 52.1782 32.1413 52.1782 28.276V16.4835L29.8417 4.16406Z" fill="url(#paint2_linear_4756_99441)"/>
<path fill-rule="evenodd" clip-rule="evenodd" d="M10.6007 16.9976C10.2834 16.3909 9.46393 16.2753 8.99118 16.7706L5.22389 20.7176C4.60384 21.3672 5.08792 22.4415 5.98531 22.4073L7.64349 22.3442V28.3028C7.64349 41.7779 16.9138 54.4348 29.5286 57.5262L29.8509 57.6052L30.1733 57.5262C38.1726 55.5659 45.0645 49.4513 48.8631 42.0287L46.5464 40.5875C43.1507 47.344 36.9452 52.9434 29.8509 54.7947C18.7201 51.89 10.3615 40.5161 10.3615 28.3028L10.3603 22.6552L11.8803 23.0776C12.7237 23.312 13.4399 22.4264 13.0342 21.6507L10.6007 16.9976Z" fill="url(#paint3_linear_4756_99441)"/>
<path d="M24.1827 35.771V37.999H16.8035V35.771H24.1827ZM17.7366 24.1357V37.999H14.8802V24.1357H17.7366ZM23.221 29.782V31.9529H16.8035V29.782H23.221ZM24.1732 24.1357V26.3733H16.8035V24.1357H24.1732Z" fill="white"/>
<path d="M30.2879 24.1357V37.999H27.4409V24.1357H30.2879ZM34.5535 24.1357V26.3733H23.242V24.1357H34.5535Z" fill="white"/>
<path d="M41.2966 34.3713C41.2966 34.1238 41.2585 33.9016 41.1823 33.7048C41.1125 33.5017 40.9792 33.3176 40.7824 33.1526C40.5857 32.9812 40.3095 32.813 39.9541 32.6479C39.5986 32.4829 39.1384 32.3115 38.5735 32.1338C37.945 31.9307 37.3484 31.7021 36.7834 31.4482C36.2248 31.1943 35.7297 30.8992 35.2981 30.5627C34.8728 30.22 34.5363 29.8232 34.2888 29.3726C34.0476 28.9219 33.927 28.3982 33.927 27.8015C33.927 27.2239 34.0539 26.7002 34.3078 26.2305C34.5617 25.7544 34.9172 25.3481 35.3742 25.0117C35.8313 24.6689 36.3708 24.4055 36.9929 24.2214C37.6213 24.0374 38.31 23.9453 39.059 23.9453C40.081 23.9453 40.9729 24.1294 41.7346 24.4976C42.4963 24.8657 43.0866 25.3704 43.5056 26.0115C43.9309 26.6526 44.1435 27.3857 44.1435 28.2109H41.3061C41.3061 27.8047 41.2204 27.4492 41.049 27.1445C40.884 26.8335 40.6301 26.5891 40.2873 26.4114C39.9509 26.2336 39.5256 26.1448 39.0114 26.1448C38.5163 26.1448 38.1037 26.2209 37.7736 26.3733C37.4436 26.5193 37.196 26.7192 37.031 26.9731C36.8659 27.2207 36.7834 27.5 36.7834 27.811C36.7834 28.0459 36.8405 28.2585 36.9548 28.449C37.0754 28.6394 37.2531 28.8171 37.488 28.9822C37.7229 29.1472 38.0117 29.3027 38.3545 29.4487C38.6972 29.5947 39.094 29.7375 39.5446 29.8772C40.3 30.1057 40.9633 30.3628 41.5346 30.6484C42.1123 30.9341 42.5947 31.2546 42.9819 31.6101C43.3691 31.9656 43.6611 32.3687 43.8579 32.8193C44.0547 33.27 44.153 33.781 44.153 34.3523C44.153 34.9553 44.0356 35.4949 43.8007 35.9709C43.5659 36.447 43.2263 36.8501 42.7819 37.1802C42.3376 37.5103 41.8076 37.761 41.1919 37.9324C40.5761 38.1038 39.8874 38.1895 39.1257 38.1895C38.4401 38.1895 37.7641 38.1006 37.0976 37.9229C36.4311 37.7388 35.8249 37.4626 35.279 37.0945C34.7395 36.7263 34.3078 36.2566 33.9841 35.6853C33.6604 35.114 33.4985 34.438 33.4985 33.6572H36.3645C36.3645 34.0889 36.4311 34.4539 36.5644 34.7522C36.6977 35.0505 36.885 35.2917 37.1262 35.4758C37.3737 35.6599 37.6657 35.7932 38.0022 35.8757C38.3449 35.9583 38.7194 35.9995 39.1257 35.9995C39.6208 35.9995 40.0271 35.9297 40.3444 35.79C40.6682 35.6504 40.9062 35.4568 41.0586 35.2092C41.2172 34.9617 41.2966 34.6824 41.2966 34.3713Z" fill="white"/>
</g>
<defs>
<radialGradient id="paint0_radial_4756_99441" cx="0" cy="0" r="1" gradientUnits="userSpaceOnUse" gradientTransform="translate(60 -7.9) rotate(129.992) scale(76.5537)">
<stop offset="0.188393" stop-color="#C5284B"/>
<stop offset="0.436071" stop-color="#8B1322"/>
<stop offset="0.685968" stop-color="#230315"/>
</radialGradient>
<linearGradient id="paint1_linear_4756_99441" x1="9.8935" y1="50.2155" x2="34.3383" y2="29.4083" gradientUnits="userSpaceOnUse">
<stop stop-color="#FF0420"/>
<stop offset="1" stop-color="#FF0420" stop-opacity="0"/>
</linearGradient>
<linearGradient id="paint2_linear_4756_99441" x1="43.0725" y1="1.10778" x2="13.8078" y2="14.5914" gradientUnits="userSpaceOnUse">
<stop offset="0.445694" stop-color="white"/>
<stop offset="1" stop-color="white" stop-opacity="0"/>
</linearGradient>
<linearGradient id="paint3_linear_4756_99441" x1="15.432" y1="65.8144" x2="47.3121" y2="47.484" gradientUnits="userSpaceOnUse">
<stop offset="0.559619" stop-color="white"/>
<stop offset="0.918509" stop-color="white" stop-opacity="0"/>
</linearGradient>
<clipPath id="clip0_4756_99441">
<rect width="60" height="60" fill="white" transform="translate(0 0.5)"/>
</clipPath>
</defs>
</svg>
