<svg width="60" height="61" viewBox="0 0 60 61" fill="none" xmlns="http://www.w3.org/2000/svg">
<g clip-path="url(#clip0_5687_105296)">
<path d="M30 60.5C46.5685 60.5 60 47.0685 60 30.5C60 13.9314 46.5685 0.5 30 0.5C13.4315 0.5 0 13.9314 0 30.5C0 47.0685 13.4315 60.5 30 60.5Z" fill="url(#paint0_radial_5687_105296)"/>
<path d="M42.9237 45.9073C36.8125 44.8888 21.1329 38.934 17.9086 23.1615C16.2958 15.519 17.8186 4.34079 17.8186 4.34079C5.87041 9.83204 -1.19578 22.9751 1.54459 36.4711C4.76884 52.2436 20.2682 62.5258 36.1328 59.3208C44.3104 57.719 50.8626 52.8624 55.131 46.3743C53.0033 47.3432 49.0349 46.9258 42.9237 45.9073Z" fill="url(#paint1_linear_5687_105296)"/>
<path fill-rule="evenodd" clip-rule="evenodd" d="M29.8417 4.16406L7.50521 16.4835V16.5797L10.239 18.2767V18.2601L29.8417 7.15572L49.4444 18.2601V28.276C49.4444 31.7447 49.2713 34.0398 48.2591 36.736L46.8632 35.8163C46.1132 35.3223 45.1427 35.9904 45.3366 36.8673L46.5147 42.1949C46.6625 42.8634 47.4233 43.189 48.009 42.8344L52.5008 40.1147C53.2496 39.6613 53.0957 38.5328 52.2529 38.2964L50.7972 37.8882C51.9574 34.8286 52.1782 32.1413 52.1782 28.276V16.4835L29.8417 4.16406Z" fill="url(#paint2_linear_5687_105296)"/>
<path fill-rule="evenodd" clip-rule="evenodd" d="M10.6008 16.9976C10.2834 16.3909 9.46399 16.2753 8.99124 16.7706L5.22395 20.7176C4.6039 21.3672 5.08798 22.4415 5.98537 22.4073L7.64355 22.3442V28.3028C7.64355 41.7779 16.9139 54.4348 29.5286 57.5262L29.851 57.6052L30.1734 57.5262C38.1726 55.5659 45.0646 49.4513 48.8632 42.0287L46.5464 40.5875C43.1507 47.344 36.9452 52.9434 29.851 54.7947C18.7201 51.89 10.3616 40.5161 10.3616 28.3028L10.3604 22.6552L11.8803 23.0776C12.7237 23.312 13.4399 22.4264 13.0343 21.6507L10.6008 16.9976Z" fill="url(#paint3_linear_5687_105296)"/>
<path d="M24.6025 31.8726V34.1006H17.2234V31.8726H24.6025ZM18.1565 20.2373V34.1006H15.3V20.2373H18.1565ZM23.6409 25.8835V28.0544H17.2234V25.8835H23.6409ZM24.593 20.2373V22.4749H17.2234V20.2373H24.593Z" fill="white"/>
<path d="M30.7077 20.2373V34.1006H27.8608V20.2373H30.7077ZM34.9733 20.2373V22.4749H23.6618V20.2373H34.9733Z" fill="white"/>
<path d="M41.7165 30.4729C41.7165 30.2253 41.6784 30.0032 41.6022 29.8064C41.5324 29.6033 41.3991 29.4192 41.2023 29.2542C41.0055 29.0828 40.7294 28.9146 40.3739 28.7495C40.0185 28.5845 39.5583 28.4131 38.9933 28.2354C38.3649 28.0322 37.7682 27.8037 37.2033 27.5498C36.6447 27.2959 36.1496 27.0007 35.7179 26.6643C35.2926 26.3215 34.9562 25.9248 34.7086 25.4741C34.4674 25.0234 34.3468 24.4998 34.3468 23.9031C34.3468 23.3254 34.4738 22.8018 34.7277 22.332C34.9816 21.856 35.3371 21.4497 35.7941 21.1133C36.2511 20.7705 36.7907 20.5071 37.4127 20.323C38.0412 20.1389 38.7299 20.0469 39.4789 20.0469C40.5009 20.0469 41.3927 20.231 42.1544 20.5991C42.9162 20.9673 43.5065 21.4719 43.9254 22.113C44.3507 22.7542 44.5634 23.4873 44.5634 24.3125H41.726C41.726 23.9063 41.6403 23.5508 41.4689 23.2461C41.3039 22.9351 41.05 22.6907 40.7072 22.5129C40.3708 22.3352 39.9455 22.2463 39.4313 22.2463C38.9362 22.2463 38.5236 22.3225 38.1935 22.4749C37.8634 22.6208 37.6159 22.8208 37.4508 23.0747C37.2858 23.3223 37.2033 23.6016 37.2033 23.9126C37.2033 24.1475 37.2604 24.3601 37.3747 24.5505C37.4953 24.741 37.673 24.9187 37.9079 25.0837C38.1427 25.2488 38.4315 25.4043 38.7743 25.5503C39.1171 25.6963 39.5138 25.8391 39.9645 25.9788C40.7199 26.2073 41.3832 26.4644 41.9545 26.75C42.5321 27.0356 43.0146 27.3562 43.4018 27.7117C43.789 28.0671 44.081 28.4702 44.2777 28.9209C44.4745 29.3716 44.5729 29.8826 44.5729 30.4539C44.5729 31.0569 44.4555 31.5964 44.2206 32.0725C43.9857 32.5486 43.6461 32.9517 43.2018 33.2817C42.7575 33.6118 42.2274 33.8625 41.6117 34.0339C40.996 34.2053 40.3073 34.291 39.5456 34.291C38.86 34.291 38.184 34.2021 37.5175 34.0244C36.851 33.8403 36.2448 33.5642 35.6989 33.196C35.1593 32.8279 34.7277 32.3582 34.404 31.7869C34.0802 31.2156 33.9184 30.5396 33.9184 29.7588H36.7843C36.7843 30.1904 36.851 30.5554 36.9843 30.8538C37.1176 31.1521 37.3048 31.3933 37.546 31.5774C37.7936 31.7615 38.0856 31.8948 38.422 31.9773C38.7648 32.0598 39.1393 32.1011 39.5456 32.1011C40.0407 32.1011 40.4469 32.0312 40.7643 31.8916C41.088 31.752 41.3261 31.5583 41.4784 31.3108C41.6371 31.0632 41.7165 30.7839 41.7165 30.4729Z" fill="white"/>
<path d="M25.3781 44.7319L27.6281 36.5569H30.45L27.0281 46.7007H25.3219L25.3781 44.7319ZM23.8313 36.5569L26.0906 44.7413L26.1375 46.7007H24.4219L21 36.5569H23.8313Z" fill="white"/>
<path d="M33.5024 40.4531H34.6304C34.9917 40.4531 35.2896 40.3921 35.5239 40.27C35.7583 40.1431 35.9316 39.9673 36.0439 39.7427C36.1611 39.5132 36.2197 39.2471 36.2197 38.9443C36.2197 38.6709 36.166 38.4292 36.0586 38.2192C35.9561 38.0044 35.7974 37.8384 35.5825 37.7212C35.3677 37.5991 35.0967 37.5381 34.7695 37.5381C34.5107 37.5381 34.2715 37.5894 34.0518 37.6919C33.832 37.7944 33.6563 37.9385 33.5244 38.124C33.3926 38.3096 33.3267 38.5342 33.3267 38.7979H31.21C31.21 38.2119 31.3662 37.7017 31.6787 37.2671C31.9961 36.8325 32.4209 36.4932 32.9531 36.249C33.4854 36.0049 34.0713 35.8828 34.7109 35.8828C35.4336 35.8828 36.0659 36 36.6079 36.2344C37.1499 36.4639 37.5723 36.8032 37.875 37.2524C38.1777 37.7017 38.3291 38.2583 38.3291 38.9224C38.3291 39.2593 38.251 39.5864 38.0947 39.9038C37.9385 40.2163 37.7139 40.4995 37.4209 40.7534C37.1328 41.0024 36.7813 41.2026 36.3662 41.354C35.9512 41.5005 35.4849 41.5737 34.9673 41.5737H33.5024V40.4531ZM33.5024 42.0571V40.9658H34.9673C35.5483 40.9658 36.0586 41.0317 36.498 41.1636C36.9375 41.2954 37.3062 41.4858 37.604 41.7349C37.9019 41.979 38.1265 42.2695 38.2778 42.6064C38.4292 42.9385 38.5049 43.3071 38.5049 43.7124C38.5049 44.2104 38.4097 44.6548 38.2192 45.0454C38.0288 45.4312 37.7603 45.7583 37.4136 46.0269C37.0718 46.2954 36.6714 46.5005 36.2124 46.6421C35.7534 46.7788 35.2529 46.8472 34.7109 46.8472C34.2617 46.8472 33.8198 46.7861 33.3853 46.6641C32.9556 46.5371 32.5649 46.3491 32.2134 46.1001C31.8667 45.8462 31.5884 45.5288 31.3784 45.1479C31.1733 44.7622 31.0708 44.3057 31.0708 43.7783H33.1875C33.1875 44.0518 33.2559 44.2959 33.3926 44.5107C33.5293 44.7256 33.7173 44.894 33.9565 45.0161C34.2007 45.1382 34.4717 45.1992 34.7695 45.1992C35.1064 45.1992 35.3945 45.1382 35.6338 45.0161C35.8779 44.8892 36.0635 44.7134 36.1904 44.4888C36.3223 44.2593 36.3882 43.9932 36.3882 43.6904C36.3882 43.2998 36.3174 42.9873 36.1758 42.7529C36.0342 42.5137 35.8315 42.3379 35.5679 42.2256C35.3042 42.1133 34.9917 42.0571 34.6304 42.0571H33.5024Z" fill="white"/>
</g>
<defs>
<radialGradient id="paint0_radial_5687_105296" cx="0" cy="0" r="1" gradientUnits="userSpaceOnUse" gradientTransform="translate(60 -7.9) rotate(131.262) scale(74.8297)">
<stop stop-color="#FBFAF5"/>
<stop offset="0.289222" stop-color="#F3F3F3"/>
<stop offset="0.527498" stop-color="#98A2B0"/>
<stop offset="0.738019" stop-color="#232323"/>
</radialGradient>
<linearGradient id="paint1_linear_5687_105296" x1="9.89344" y1="50.5163" x2="34.3382" y2="29.7091" gradientUnits="userSpaceOnUse">
<stop stop-color="#8247E5"/>
<stop offset="1" stop-color="#8247E5" stop-opacity="0"/>
</linearGradient>
<linearGradient id="paint2_linear_5687_105296" x1="43.0725" y1="1.10778" x2="13.8078" y2="14.5914" gradientUnits="userSpaceOnUse">
<stop offset="0.445694" stop-color="white"/>
<stop offset="1" stop-color="white" stop-opacity="0"/>
</linearGradient>
<linearGradient id="paint3_linear_5687_105296" x1="15.4321" y1="65.8144" x2="47.3122" y2="47.484" gradientUnits="userSpaceOnUse">
<stop offset="0.559619" stop-color="white"/>
<stop offset="0.918509" stop-color="white" stop-opacity="0"/>
</linearGradient>
<clipPath id="clip0_5687_105296">
<rect y="0.5" width="60" height="60" rx="30" fill="white"/>
</clipPath>
</defs>
</svg>
