<?xml version="1.0" encoding="UTF-8"?>
<!DOCTYPE svg PUBLIC "-//W3C//DTD SVG 1.1//EN" "http://www.w3.org/Graphics/SVG/1.1/DTD/svg11.dtd">
<svg xmlns="http://www.w3.org/2000/svg" version="1.1" width="130px" height="130px" style="shape-rendering:geometricPrecision; text-rendering:geometricPrecision; image-rendering:optimizeQuality; fill-rule:evenodd; clip-rule:evenodd" xmlns:xlink="http://www.w3.org/1999/xlink">
<g><path style="opacity:1" fill="#fad7ac" d="M 56.5,-0.5 C 60.8333,-0.5 65.1667,-0.5 69.5,-0.5C 68.7222,0.155611 68.0556,0.988944 67.5,2C 68.1667,4 68.8333,6 69.5,8C 69.4301,8.7648 69.0967,9.2648 68.5,9.5C 66.9557,9.29689 65.6223,8.63023 64.5,7.5C 62.4734,8.51328 60.4734,9.51328 58.5,10.5C 56.1166,7.05356 55.4499,3.38689 56.5,-0.5 Z"/></g>
<g><path style="opacity:1" fill="#fefcfa" d="M 68.5,9.5 C 82.6415,17.74 96.9749,25.74 111.5,33.5C 112.474,35.7427 112.808,38.076 112.5,40.5C 112.5,46.8333 112.5,53.1667 112.5,59.5C 112.5,61.1667 112.5,62.8333 112.5,64.5C 112.331,69.691 111.331,74.691 109.5,79.5C 111.534,80.8322 113.534,82.1656 115.5,83.5C 111.232,86.3095 106.898,89.1428 102.5,92C 101.563,92.6917 100.897,92.525 100.5,91.5C 99.3927,86.5229 98.3927,81.5229 97.5,76.5C 97.3691,75.6236 97.7025,74.9569 98.5,74.5C 100.332,75.2485 101.999,76.2485 103.5,77.5C 105.389,73.3922 106.389,69.0589 106.5,64.5C 106.5,60.5 106.5,56.5 106.5,52.5C 106.5,50.5 106.5,48.5 106.5,46.5C 106.817,43.4281 106.484,40.4281 105.5,37.5C 94.6358,30.9022 83.6358,24.5689 72.5,18.5C 69.8236,17.1618 67.1569,15.8285 64.5,14.5C 62.1643,15.001 60.1643,16.001 58.5,17.5C 58.1667,17.5 57.8333,17.5 57.5,17.5C 54.4969,16.83 53.8303,15.1633 55.5,12.5C 56.2905,11.5987 57.2905,10.9321 58.5,10.5C 60.4734,9.51328 62.4734,8.51328 64.5,7.5C 65.6223,8.63023 66.9557,9.29689 68.5,9.5 Z"/></g>
<g><path style="opacity:1" fill="#f6ebe0" d="M 69.5,-0.5 C 71.5,-0.5 73.5,-0.5 75.5,-0.5C 99.3259,4.31659 115.993,17.9833 125.5,40.5C 121.012,41.2267 116.678,41.2267 112.5,40.5C 112.808,38.076 112.474,35.7427 111.5,33.5C 96.9749,25.74 82.6415,17.74 68.5,9.5C 69.0967,9.2648 69.4301,8.7648 69.5,8C 68.8333,6 68.1667,4 67.5,2C 68.0556,0.988944 68.7222,0.155611 69.5,-0.5 Z"/></g>
<g><path style="opacity:1" fill="#f19d42" d="M 31.5,8.5 C 32.3764,8.36912 33.0431,8.70245 33.5,9.5C 34.835,13.1722 36.1683,16.8389 37.5,20.5C 37.0576,21.7387 36.3909,22.7387 35.5,23.5C 33.856,24.3657 32.1893,24.8657 30.5,25C 28.6009,22.0123 26.6009,19.1789 24.5,16.5C 25.7653,15.5207 27.0986,14.5207 28.5,13.5C 29.7759,12.3864 29.7759,11.3864 28.5,10.5C 28.9731,9.09368 29.9731,8.42702 31.5,8.5 Z"/></g>
<g><path style="opacity:1" fill="#fdddb6" d="M 55.5,12.5 C 53.8303,15.1633 54.4969,16.83 57.5,17.5C 54.9906,18.9213 52.6572,20.5879 50.5,22.5C 47.9649,23.3487 45.4649,24.3487 43,25.5C 40.9549,24.3619 40.2883,22.6953 41,20.5C 45.6466,17.4282 50.4799,14.7615 55.5,12.5 Z"/></g>
<g><path style="opacity:1" fill="#fbd5a7" d="M 72.5,18.5 C 77.5976,28.0986 84.9309,35.5986 94.5,41C 98.4068,43.1214 102.407,44.9547 106.5,46.5C 106.5,48.5 106.5,50.5 106.5,52.5C 103.223,51.4622 100.057,50.1289 97,48.5C 96.5172,49.448 96.3505,50.448 96.5,51.5C 93.9407,51.8016 91.6074,51.4682 89.5,50.5C 91.5,50.5 93.5,50.5 95.5,50.5C 95.4506,47.9009 94.4506,45.7342 92.5,44C 88.6372,42.6463 84.6372,42.1463 80.5,42.5C 74.4756,35.9682 68.9756,28.9682 64,21.5C 61.9663,20.2787 60.133,18.9454 58.5,17.5C 60.1643,16.001 62.1643,15.001 64.5,14.5C 67.1569,15.8285 69.8236,17.1618 72.5,18.5 Z"/></g>
<g><path style="opacity:1" fill="#fec684" d="M 57.5,17.5 C 57.8333,17.5 58.1667,17.5 58.5,17.5C 60.133,18.9454 61.9663,20.2787 64,21.5C 68.9756,28.9682 74.4756,35.9682 80.5,42.5C 78.629,42.8588 77.129,43.8588 76,45.5C 75.5172,44.552 75.3505,43.552 75.5,42.5C 62.8333,42.5 50.1667,42.5 37.5,42.5C 37.5,42.1667 37.5,41.8333 37.5,41.5C 41.5,41.5 45.5,41.5 49.5,41.5C 54.5111,41.6659 59.5111,41.4993 64.5,41C 58.9625,35.3927 54.2958,29.2261 50.5,22.5C 52.6572,20.5879 54.9906,18.9213 57.5,17.5 Z"/></g>
<g><path style="opacity:1" fill="#f9ddbc" d="M 72.5,18.5 C 83.6358,24.5689 94.6358,30.9022 105.5,37.5C 106.484,40.4281 106.817,43.4281 106.5,46.5C 102.407,44.9547 98.4068,43.1214 94.5,41C 84.9309,35.5986 77.5976,28.0986 72.5,18.5 Z"/></g>
<g><path style="opacity:1" fill="#e08a48" d="M 24.5,16.5 C 26.6009,19.1789 28.6009,22.0123 30.5,25C 32.1893,24.8657 33.856,24.3657 35.5,23.5C 36.1495,25.4352 36.4828,27.4352 36.5,29.5C 36.5045,33.5341 36.8379,37.5341 37.5,41.5C 30.5138,37.359 24.5138,31.859 19.5,25C 18.552,24.5172 17.552,24.3505 16.5,24.5C 18.8605,21.4728 21.5271,18.8062 24.5,16.5 Z"/></g>
<g><path style="opacity:1" fill="#fbb664" d="M 53.5,-0.5 C 54.5,-0.5 55.5,-0.5 56.5,-0.5C 55.4499,3.38689 56.1166,7.05356 58.5,10.5C 57.2905,10.9321 56.2905,11.5987 55.5,12.5C 50.4799,14.7615 45.6466,17.4282 41,20.5C 40.2883,22.6953 40.9549,24.3619 43,25.5C 45.4649,24.3487 47.9649,23.3487 50.5,22.5C 54.2958,29.2261 58.9625,35.3927 64.5,41C 59.5111,41.4993 54.5111,41.6659 49.5,41.5C 46.5106,36.8616 43.5106,32.1949 40.5,27.5C 39.1401,28.1799 37.8068,28.8466 36.5,29.5C 36.4828,27.4352 36.1495,25.4352 35.5,23.5C 36.3909,22.7387 37.0576,21.7387 37.5,20.5C 36.1683,16.8389 34.835,13.1722 33.5,9.5C 33.0431,8.70245 32.3764,8.36912 31.5,8.5C 32.7489,6.8639 34.4156,5.69724 36.5,5C 42.1368,2.6825 47.8035,0.849164 53.5,-0.5 Z"/></g>
<g><path style="opacity:1" fill="#f5a03a" d="M 49.5,41.5 C 45.5,41.5 41.5,41.5 37.5,41.5C 36.8379,37.5341 36.5045,33.5341 36.5,29.5C 37.8068,28.8466 39.1401,28.1799 40.5,27.5C 43.5106,32.1949 46.5106,36.8616 49.5,41.5 Z"/></g>
<g><path style="opacity:1" fill="#d17b58" d="M 16.5,24.5 C 17.552,24.3505 18.552,24.5172 19.5,25C 24.5138,31.859 30.5138,37.359 37.5,41.5C 37.5,41.8333 37.5,42.1667 37.5,42.5C 35.8333,42.5 34.1667,42.5 32.5,42.5C 32.5,46.1667 32.5,49.8333 32.5,53.5C 30.744,51.751 29.4106,49.751 28.5,47.5C 26.3924,42.8898 24.059,38.3898 21.5,34C 20.8333,33.3333 20.1667,33.3333 19.5,34C 17.9625,35.7073 16.2959,37.2073 14.5,38.5C 13.4412,36.4446 11.7746,35.1112 9.5,34.5C 11.3535,30.7792 13.6869,27.4459 16.5,24.5 Z"/></g>
<g><path style="opacity:1" fill="#faf6f9" d="M 28.5,47.5 C 26.7354,48.4614 24.7354,48.7947 22.5,48.5C 22.5,52.8333 22.5,57.1667 22.5,61.5C 22.19,64.7131 22.5233,67.7131 23.5,70.5C 27.8551,93.1866 40.8551,108.52 62.5,116.5C 64.5648,116.483 66.5648,116.15 68.5,115.5C 69.8333,115.167 71.1667,114.833 72.5,114.5C 74.7099,114.894 76.0432,116.227 76.5,118.5C 72.845,120.377 69.1783,122.043 65.5,123.5C 39.2063,116.206 23.2063,99.2059 17.5,72.5C 16.6403,68.5662 16.307,64.5662 16.5,60.5C 16.5,55.8333 16.5,51.1667 16.5,46.5C 13.8127,46.6641 11.146,46.4974 8.5,46C 11.0939,43.9135 13.0939,41.4135 14.5,38.5C 16.2959,37.2073 17.9625,35.7073 19.5,34C 20.1667,33.3333 20.8333,33.3333 21.5,34C 24.059,38.3898 26.3924,42.8898 28.5,47.5 Z"/></g>
<g><path style="opacity:1" fill="#fefbf8" d="M 37.5,42.5 C 50.1667,42.5 62.8333,42.5 75.5,42.5C 75.3505,43.552 75.5172,44.552 76,45.5C 77.129,43.8588 78.629,42.8588 80.5,42.5C 84.6372,42.1463 88.6372,42.6463 92.5,44C 94.4506,45.7342 95.4506,47.9009 95.5,50.5C 93.5,50.5 91.5,50.5 89.5,50.5C 88.5385,46.8539 86.2051,45.6872 82.5,47C 79.6793,49.7169 80.0126,52.0502 83.5,54C 87.7193,54.7913 91.3859,56.6246 94.5,59.5C 95.3742,61.7466 95.7076,64.0799 95.5,66.5C 94.5223,69.4778 92.5223,71.4778 89.5,72.5C 81.0339,74.4372 75.3673,71.4372 72.5,63.5C 74.6074,62.5318 76.9407,62.1984 79.5,62.5C 79.5638,66.0624 81.3972,67.7291 85,67.5C 88.9388,67.8957 90.2721,66.2291 89,62.5C 84.912,60.2058 80.7453,58.0391 76.5,56C 74.0695,53.6954 73.0695,50.8621 73.5,47.5C 71.1667,47.5 68.8333,47.5 66.5,47.5C 65.5076,55.3159 65.1743,63.3159 65.5,71.5C 63.8333,71.5 62.1667,71.5 60.5,71.5C 60.8257,63.3159 60.4924,55.3159 59.5,47.5C 56.5,47.5 53.5,47.5 50.5,47.5C 46.7016,46.5166 42.7016,46.1832 38.5,46.5C 38.1936,49.3854 38.5269,52.0521 39.5,54.5C 43.1667,54.5 46.8333,54.5 50.5,54.5C 50.5,56.1667 50.5,57.8333 50.5,59.5C 47.5,59.5 44.5,59.5 41.5,59.5C 40.5,59.5 39.5,59.5 38.5,59.5C 38.5,62.1667 38.5,64.8333 38.5,67.5C 40.8333,67.5 43.1667,67.5 45.5,67.5C 47.8333,67.5 50.1667,67.5 52.5,67.5C 52.5,69.1667 52.5,70.8333 52.5,72.5C 51.5,72.5 50.5,72.5 49.5,72.5C 48.5,72.5 47.5,72.5 46.5,72.5C 43.8333,72.5 41.1667,72.5 38.5,72.5C 36.5,72.5 34.5,72.5 32.5,72.5C 32.5,66.1667 32.5,59.8333 32.5,53.5C 32.5,49.8333 32.5,46.1667 32.5,42.5C 34.1667,42.5 35.8333,42.5 37.5,42.5 Z"/></g>
<g><path style="opacity:1" fill="#f8cd9d" d="M 50.5,47.5 C 46.8333,47.5 43.1667,47.5 39.5,47.5C 39.5,49.8333 39.5,52.1667 39.5,54.5C 38.5269,52.0521 38.1936,49.3854 38.5,46.5C 42.7016,46.1832 46.7016,46.5166 50.5,47.5 Z"/></g>
<g><path style="opacity:1" fill="#fdc98a" d="M 89.5,50.5 C 91.6074,51.4682 93.9407,51.8016 96.5,51.5C 96.3505,50.448 96.5172,49.448 97,48.5C 100.057,50.1289 103.223,51.4622 106.5,52.5C 106.5,56.5 106.5,60.5 106.5,64.5C 103.45,63.7054 100.45,62.7054 97.5,61.5C 96.8302,63.2914 96.1635,64.9581 95.5,66.5C 95.7076,64.0799 95.3742,61.7466 94.5,59.5C 91.3859,56.6246 87.7193,54.7913 83.5,54C 80.0126,52.0502 79.6793,49.7169 82.5,47C 86.2051,45.6872 88.5385,46.8539 89.5,50.5 Z"/></g>
<g><path style="opacity:1" fill="#b76d8f" d="M 9.5,34.5 C 11.7746,35.1112 13.4412,36.4446 14.5,38.5C 13.0939,41.4135 11.0939,43.9135 8.5,46C 11.146,46.4974 13.8127,46.6641 16.5,46.5C 16.5,51.1667 16.5,55.8333 16.5,60.5C 12.5,56.1667 8.5,51.8333 4.5,47.5C 5.33028,42.8404 6.99694,38.507 9.5,34.5 Z"/></g>
<g><path style="opacity:1" fill="#a860a2" d="M 4.5,47.5 C 8.5,51.8333 12.5,56.1667 16.5,60.5C 16.307,64.5662 16.6403,68.5662 17.5,72.5C 12.2467,68.0771 7.41333,63.0771 3,57.5C 2.80912,59.7078 2.30912,61.7078 1.5,63.5C 1.29895,57.8196 2.29895,52.4862 4.5,47.5 Z"/></g>
<g><path style="opacity:0.979" fill="#fbd3a3" d="M 125.5,40.5 C 127.006,44.8753 128.339,49.2086 129.5,53.5C 129.5,55.8333 129.5,58.1667 129.5,60.5C 123.85,59.0549 118.184,58.7216 112.5,59.5C 112.5,53.1667 112.5,46.8333 112.5,40.5C 116.678,41.2267 121.012,41.2267 125.5,40.5 Z"/></g>
<g><path style="opacity:0.998" fill="#f19221" d="M 50.5,47.5 C 53.5,47.5 56.5,47.5 59.5,47.5C 59.5,55.8333 59.5,64.1667 59.5,72.5C 60.8333,72.5 62.1667,72.5 63.5,72.5C 66.079,75.1348 69.079,77.3015 72.5,79C 81.6884,83.6665 91.0217,87.8332 100.5,91.5C 100.897,92.525 101.563,92.6917 102.5,92C 106.898,89.1428 111.232,86.3095 115.5,83.5C 116.261,82.6091 117.261,81.9424 118.5,81.5C 121.7,81.6611 124.367,82.6611 126.5,84.5C 123.61,95.286 117.944,104.286 109.5,111.5C 109.539,110.417 109.873,109.417 110.5,108.5C 108.5,106.167 106.5,103.833 104.5,101.5C 102.423,99.9182 100.09,98.9182 97.5,98.5C 92.6748,98.1262 88.0082,97.1262 83.5,95.5C 79.9368,94.7176 76.6035,93.3843 73.5,91.5C 64.325,86.6591 56.325,80.3258 49.5,72.5C 50.5,72.5 51.5,72.5 52.5,72.5C 52.5,70.8333 52.5,69.1667 52.5,67.5C 50.1667,67.5 47.8333,67.5 45.5,67.5C 44.1667,64.8333 42.8333,62.1667 41.5,59.5C 44.5,59.5 47.5,59.5 50.5,59.5C 50.5,57.8333 50.5,56.1667 50.5,54.5C 46.8333,54.5 43.1667,54.5 39.5,54.5C 39.5,52.1667 39.5,49.8333 39.5,47.5C 43.1667,47.5 46.8333,47.5 50.5,47.5 Z"/></g>
<g><path style="opacity:1" fill="#fbb35e" d="M 66.5,47.5 C 68.8333,47.5 71.1667,47.5 73.5,47.5C 73.0695,50.8621 74.0695,53.6954 76.5,56C 80.7453,58.0391 84.912,60.2058 89,62.5C 90.2721,66.2291 88.9388,67.8957 85,67.5C 81.3972,67.7291 79.5638,66.0624 79.5,62.5C 76.9407,62.1984 74.6074,62.5318 72.5,63.5C 70.7721,61.7745 68.7721,60.4411 66.5,59.5C 66.5,55.5 66.5,51.5 66.5,47.5 Z"/></g>
<g><path style="opacity:1" fill="#fcdab1" d="M 59.5,47.5 C 60.4924,55.3159 60.8257,63.3159 60.5,71.5C 62.1667,71.5 63.8333,71.5 65.5,71.5C 65.1743,63.3159 65.5076,55.3159 66.5,47.5C 66.5,51.5 66.5,55.5 66.5,59.5C 66.5,63.8333 66.5,68.1667 66.5,72.5C 65.5,72.5 64.5,72.5 63.5,72.5C 62.1667,72.5 60.8333,72.5 59.5,72.5C 59.5,64.1667 59.5,55.8333 59.5,47.5 Z"/></g>
<g><path style="opacity:1" fill="#cb7c6e" d="M 41.5,59.5 C 42.8333,62.1667 44.1667,64.8333 45.5,67.5C 43.1667,67.5 40.8333,67.5 38.5,67.5C 38.5,64.8333 38.5,62.1667 38.5,59.5C 39.5,59.5 40.5,59.5 41.5,59.5 Z"/></g>
<g><path style="opacity:1" fill="#fec786" d="M 129.5,60.5 C 129.5,63.1667 129.5,65.8333 129.5,68.5C 124.063,66.6019 118.397,65.2686 112.5,64.5C 112.5,62.8333 112.5,61.1667 112.5,59.5C 118.184,58.7216 123.85,59.0549 129.5,60.5 Z"/></g>
<g><path style="opacity:1" fill="#bb6c7d" d="M 28.5,47.5 C 29.4106,49.751 30.744,51.751 32.5,53.5C 32.5,59.8333 32.5,66.1667 32.5,72.5C 29.1667,68.8333 25.8333,65.1667 22.5,61.5C 22.5,57.1667 22.5,52.8333 22.5,48.5C 24.7354,48.7947 26.7354,48.4614 28.5,47.5 Z"/></g>
<g><path style="opacity:1" fill="#9a57bc" d="M 17.5,72.5 C 23.2063,99.2059 39.2063,116.206 65.5,123.5C 66.8118,124.145 67.8118,125.145 68.5,126.5C 65.2317,127.487 61.8984,127.82 58.5,127.5C 53.7387,127.876 49.4054,126.876 45.5,124.5C 46.5735,123.749 46.7401,122.749 46,121.5C 34.3333,107.833 22.6667,94.1667 11,80.5C 8.66667,79.1667 6.33333,77.8333 4,76.5C 3.53566,77.0944 3.36899,77.7611 3.5,78.5C 1.96916,73.7498 1.30249,68.7498 1.5,63.5C 2.30912,61.7078 2.80912,59.7078 3,57.5C 7.41333,63.0771 12.2467,68.0771 17.5,72.5 Z"/></g>
<g><path style="opacity:1" fill="#fbb45f" d="M 106.5,64.5 C 106.389,69.0589 105.389,73.3922 103.5,77.5C 101.999,76.2485 100.332,75.2485 98.5,74.5C 97.7025,74.9569 97.3691,75.6236 97.5,76.5C 94.768,75.134 92.1013,73.8007 89.5,72.5C 92.5223,71.4778 94.5223,69.4778 95.5,66.5C 96.1635,64.9581 96.8302,63.2914 97.5,61.5C 100.45,62.7054 103.45,63.7054 106.5,64.5 Z"/></g>
<g><path style="opacity:1" fill="#f4992e" d="M 66.5,59.5 C 68.7721,60.4411 70.7721,61.7745 72.5,63.5C 75.3673,71.4372 81.0339,74.4372 89.5,72.5C 92.1013,73.8007 94.768,75.134 97.5,76.5C 98.3927,81.5229 99.3927,86.5229 100.5,91.5C 91.0217,87.8332 81.6884,83.6665 72.5,79C 69.079,77.3015 66.079,75.1348 63.5,72.5C 64.5,72.5 65.5,72.5 66.5,72.5C 66.5,68.1667 66.5,63.8333 66.5,59.5 Z"/></g>
<g><path style="opacity:1" fill="#bf6f74" d="M 38.5,72.5 C 41.1667,72.5 43.8333,72.5 46.5,72.5C 56.8567,85.1858 67.19,97.8524 77.5,110.5C 76.3406,112.25 74.674,113.25 72.5,113.5C 61.1667,99.8333 49.8333,86.1667 38.5,72.5 Z"/></g>
<g><path style="opacity:0.997" fill="#fab15a" d="M 112.5,64.5 C 118.397,65.2686 124.063,66.6019 129.5,68.5C 129.5,70.8333 129.5,73.1667 129.5,75.5C 128.626,78.5349 127.626,81.5349 126.5,84.5C 124.367,82.6611 121.7,81.6611 118.5,81.5C 117.261,81.9424 116.261,82.6091 115.5,83.5C 113.534,82.1656 111.534,80.8322 109.5,79.5C 111.331,74.691 112.331,69.691 112.5,64.5 Z"/></g>
<g><path style="opacity:1" fill="#a860a2" d="M 62.5,116.5 C 40.8551,108.52 27.8551,93.1866 23.5,70.5C 24.3285,69.6676 25.1618,70.001 26,71.5C 37.4297,85.3527 49.0963,99.0194 61,112.5C 61.7914,113.745 62.2914,115.078 62.5,116.5 Z"/></g>
<g><path style="opacity:1" fill="#b06590" d="M 22.5,61.5 C 25.8333,65.1667 29.1667,68.8333 32.5,72.5C 44.262,87.0183 56.262,101.352 68.5,115.5C 66.5648,116.15 64.5648,116.483 62.5,116.5C 62.2914,115.078 61.7914,113.745 61,112.5C 49.0963,99.0194 37.4297,85.3527 26,71.5C 25.1618,70.001 24.3285,69.6676 23.5,70.5C 22.5233,67.7131 22.19,64.7131 22.5,61.5 Z"/></g>
<g><path style="opacity:1" fill="#884ad9" d="M 37.5,121.5 C 20.3769,113.273 9.37691,99.9396 4.5,81.5C 4.43456,81.0618 4.60123,80.7284 5,80.5C 16.3916,94.1331 27.8916,107.633 39.5,121C 38.9056,121.464 38.2389,121.631 37.5,121.5 Z"/></g>
<g><path style="opacity:1" fill="#b76983" d="M 32.5,72.5 C 34.5,72.5 36.5,72.5 38.5,72.5C 49.8333,86.1667 61.1667,99.8333 72.5,113.5C 72.5,113.833 72.5,114.167 72.5,114.5C 71.1667,114.833 69.8333,115.167 68.5,115.5C 56.262,101.352 44.262,87.0183 32.5,72.5 Z"/></g>
<g><path style="opacity:1" fill="#e28537" d="M 83.5,95.5 C 88.0082,97.1262 92.6748,98.1262 97.5,98.5C 101.393,102.226 104.727,106.393 107.5,111C 105.962,114.038 103.629,116.205 100.5,117.5C 98.0735,113.895 95.4068,110.395 92.5,107C 93.515,103.097 91.8483,101.097 87.5,101C 85.5359,99.549 84.2026,97.7157 83.5,95.5 Z"/></g>
<g><path style="opacity:1" fill="#d77f4e" d="M 73.5,91.5 C 76.6035,93.3843 79.9368,94.7176 83.5,95.5C 84.2026,97.7157 85.5359,99.549 87.5,101C 91.8483,101.097 93.515,103.097 92.5,107C 95.4068,110.395 98.0735,113.895 100.5,117.5C 98.9991,118.752 97.3325,119.752 95.5,120.5C 94.6946,117.183 92.8612,114.517 90,112.5C 90.1554,110.189 90.1554,107.856 90,105.5C 88.4279,103.411 86.5945,103.411 84.5,105.5C 80.0228,101.369 76.3561,96.7027 73.5,91.5 Z"/></g>
<g><path style="opacity:1" fill="#8f4fcd" d="M 45.5,124.5 C 42.5568,124.02 39.8902,123.02 37.5,121.5C 38.2389,121.631 38.9056,121.464 39.5,121C 27.8916,107.633 16.3916,94.1331 5,80.5C 4.60123,80.7284 4.43456,81.0618 4.5,81.5C 3.59603,80.791 3.26269,79.791 3.5,78.5C 3.36899,77.7611 3.53566,77.0944 4,76.5C 6.33333,77.8333 8.66667,79.1667 11,80.5C 22.6667,94.1667 34.3333,107.833 46,121.5C 46.7401,122.749 46.5735,123.749 45.5,124.5 Z"/></g>
<g><path style="opacity:1" fill="#ce7b62" d="M 46.5,72.5 C 47.5,72.5 48.5,72.5 49.5,72.5C 56.325,80.3258 64.325,86.6591 73.5,91.5C 76.3561,96.7027 80.0228,101.369 84.5,105.5C 86.5945,103.411 88.4279,103.411 90,105.5C 90.1554,107.856 90.1554,110.189 90,112.5C 92.8612,114.517 94.6946,117.183 95.5,120.5C 93.2872,121.773 90.9538,122.773 88.5,123.5C 87.6267,121.114 86.1267,119.114 84,117.5C 83.5172,116.552 83.3505,115.552 83.5,114.5C 87.2474,112.424 87.4141,110.09 84,107.5C 82.022,108.906 79.8553,109.906 77.5,110.5C 67.19,97.8524 56.8567,85.1858 46.5,72.5 Z"/></g>
<g><path style="opacity:0.643" fill="#ee8e24" d="M 28.5,10.5 C 29.7759,11.3864 29.7759,12.3864 28.5,13.5C 27.0986,14.5207 25.7653,15.5207 24.5,16.5C 21.5271,18.8062 18.8605,21.4728 16.5,24.5C 13.6869,27.4459 11.3535,30.7792 9.5,34.5C 6.99694,38.507 5.33028,42.8404 4.5,47.5C 2.29895,52.4862 1.29895,57.8196 1.5,63.5C 1.30249,68.7498 1.96916,73.7498 3.5,78.5C 3.26269,79.791 3.59603,80.791 4.5,81.5C 9.37691,99.9396 20.3769,113.273 37.5,121.5C 39.8902,123.02 42.5568,124.02 45.5,124.5C 49.4054,126.876 53.7387,127.876 58.5,127.5C 66.5395,129.02 74.5395,128.353 82.5,125.5C 84.5786,125.029 86.5786,124.363 88.5,123.5C 90.9538,122.773 93.2872,121.773 95.5,120.5C 97.3325,119.752 98.9991,118.752 100.5,117.5C 103.629,116.205 105.962,114.038 107.5,111C 104.727,106.393 101.393,102.226 97.5,98.5C 100.09,98.9182 102.423,99.9182 104.5,101.5C 106.5,103.833 108.5,106.167 110.5,108.5C 109.873,109.417 109.539,110.417 109.5,111.5C 100.08,121.087 88.7463,127.087 75.5,129.5C 68.1667,129.5 60.8333,129.5 53.5,129.5C 24.5,122.5 6.5,104.5 -0.5,75.5C -0.5,68.1667 -0.5,60.8333 -0.5,53.5C 3.20623,35.1305 12.8729,20.7971 28.5,10.5 Z"/></g>
<g><path style="opacity:1" fill="#c17173" d="M 83.5,114.5 C 83.3505,115.552 83.5172,116.552 84,117.5C 86.1267,119.114 87.6267,121.114 88.5,123.5C 86.5786,124.363 84.5786,125.029 82.5,125.5C 81.2213,122.888 79.5547,120.555 77.5,118.5C 79.4632,117.18 81.4632,115.846 83.5,114.5 Z"/></g>
<g><path style="opacity:1" fill="#eaccca" d="M 83.5,114.5 C 81.4632,115.846 79.4632,117.18 77.5,118.5C 77.1667,118.5 76.8333,118.5 76.5,118.5C 76.0432,116.227 74.7099,114.894 72.5,114.5C 72.5,114.167 72.5,113.833 72.5,113.5C 74.674,113.25 76.3406,112.25 77.5,110.5C 79.8553,109.906 82.022,108.906 84,107.5C 87.4141,110.09 87.2474,112.424 83.5,114.5 Z"/></g>
<g><path style="opacity:1" fill="#b66a88" d="M 76.5,118.5 C 76.8333,118.5 77.1667,118.5 77.5,118.5C 79.5547,120.555 81.2213,122.888 82.5,125.5C 74.5395,128.353 66.5395,129.02 58.5,127.5C 61.8984,127.82 65.2317,127.487 68.5,126.5C 67.8118,125.145 66.8118,124.145 65.5,123.5C 69.1783,122.043 72.845,120.377 76.5,118.5 Z"/></g>
</svg>
