<svg width="60" height="61" viewBox="0 0 60 61" fill="none" xmlns="http://www.w3.org/2000/svg">
<g clip-path="url(#clip0_4550_94973)">
<path d="M30 60.5C46.5685 60.5 60 47.0685 60 30.5C60 13.9314 46.5685 0.5 30 0.5C13.4315 0.5 0 13.9314 0 30.5C0 47.0685 13.4315 60.5 30 60.5Z" fill="#001845"/>
<path d="M42.9237 45.6065C36.8125 44.588 21.1329 38.6332 17.9086 22.8607C16.2958 15.2182 17.8186 4.04001 17.8186 4.04001C5.87041 9.53126 -1.19578 22.6743 1.54459 36.1703C4.76884 51.9428 20.2682 62.225 36.1328 59.02C44.3104 57.4183 50.8626 52.5617 55.131 46.0735C53.0033 47.0425 49.0349 46.6251 42.9237 45.6065Z" fill="url(#paint0_linear_4550_94973)"/>
<path fill-rule="evenodd" clip-rule="evenodd" d="M29.5572 6.0293L8.50252 17.6418V17.7324L11.0795 19.3321V19.3164L29.5572 8.84928L48.035 19.3164V28.7575C48.035 32.0271 47.8717 34.1905 46.9177 36.732L45.72 35.943C44.9701 35.4489 43.9995 36.1171 44.1934 36.9939L45.2561 41.7995C45.4039 42.468 46.1647 42.7936 46.7504 42.439L50.8027 39.9854C51.5515 39.5321 51.3976 38.4035 50.5548 38.1672L49.3101 37.8181C50.4038 34.9341 50.6119 32.401 50.6119 28.7575V17.6418L29.5572 6.0293Z" fill="url(#paint1_linear_4550_94973)"/>
<path fill-rule="evenodd" clip-rule="evenodd" d="M11.4574 18.1968C11.1401 17.5901 10.3206 17.4745 9.84787 17.9698L6.44974 21.53C5.82968 22.1797 6.31377 23.2539 7.21115 23.2198L8.6328 23.1657V28.7823C8.6328 41.4841 17.3711 53.4147 29.2619 56.3287L29.5658 56.4032L29.8697 56.3287C37.4099 54.4809 43.9063 48.7172 47.4869 41.7205L45.3032 40.362C42.1023 46.7308 36.2529 52.0089 29.5658 53.7539C19.0737 51.016 11.1948 40.2948 11.1948 28.7823L11.1937 23.4588L12.4989 23.8215C13.3422 24.0559 14.0584 23.1703 13.6528 22.3946L11.4574 18.1968Z" fill="url(#paint2_linear_4550_94973)"/>
<path d="M25.9125 16.5508H28.7156V25.5695C28.7156 26.6195 28.4906 27.5039 28.0406 28.2227C27.5969 28.9414 26.9812 29.482 26.1937 29.8445C25.4125 30.207 24.5125 30.3883 23.4937 30.3883C22.475 30.3883 21.5687 30.207 20.775 29.8445C19.9875 29.482 19.3687 28.9414 18.9187 28.2227C18.475 27.5039 18.2531 26.6195 18.2531 25.5695V16.5508H21.0656V25.5695C21.0656 26.182 21.1625 26.682 21.3562 27.0695C21.55 27.457 21.8281 27.7414 22.1906 27.9227C22.5594 28.1039 22.9937 28.1945 23.4937 28.1945C24.0062 28.1945 24.4406 28.1039 24.7969 27.9227C25.1594 27.7414 25.4344 27.457 25.6219 27.0695C25.8156 26.682 25.9125 26.182 25.9125 25.5695V16.5508Z" fill="white"/>
<path d="M38.1375 26.6289C38.1375 26.3852 38.1 26.1664 38.025 25.9727C37.9562 25.7727 37.825 25.5914 37.6312 25.4289C37.4375 25.2602 37.1656 25.0945 36.8156 24.932C36.4656 24.7695 36.0125 24.6008 35.4562 24.4258C34.8375 24.2258 34.25 24.0008 33.6937 23.7508C33.1437 23.5008 32.6562 23.2102 32.2312 22.8789C31.8125 22.5414 31.4812 22.1508 31.2375 21.707C31 21.2633 30.8812 20.7477 30.8812 20.1602C30.8812 19.5914 31.0062 19.0758 31.2562 18.6133C31.5062 18.1445 31.8562 17.7445 32.3062 17.4133C32.7562 17.0758 33.2875 16.8164 33.9 16.6352C34.5187 16.4539 35.1969 16.3633 35.9344 16.3633C36.9406 16.3633 37.8187 16.5445 38.5687 16.907C39.3187 17.2695 39.9 17.7664 40.3125 18.3977C40.7312 19.0289 40.9406 19.7508 40.9406 20.5633H38.1469C38.1469 20.1633 38.0625 19.8133 37.8937 19.5133C37.7312 19.207 37.4812 18.9664 37.1437 18.7914C36.8125 18.6164 36.3937 18.5289 35.8875 18.5289C35.4 18.5289 34.9937 18.6039 34.6687 18.7539C34.3437 18.8977 34.1 19.0945 33.9375 19.3445C33.775 19.5883 33.6937 19.8633 33.6937 20.1695C33.6937 20.4008 33.75 20.6102 33.8625 20.7977C33.9812 20.9852 34.1562 21.1602 34.3875 21.3227C34.6187 21.4852 34.9031 21.6383 35.2406 21.782C35.5781 21.9258 35.9687 22.0664 36.4125 22.2039C37.1562 22.4289 37.8094 22.682 38.3719 22.9633C38.9406 23.2445 39.4156 23.5602 39.7969 23.9102C40.1781 24.2602 40.4656 24.657 40.6594 25.1008C40.8531 25.5445 40.95 26.0477 40.95 26.6102C40.95 27.2039 40.8344 27.7352 40.6031 28.2039C40.3719 28.6727 40.0375 29.0695 39.6 29.3945C39.1625 29.7195 38.6406 29.9664 38.0344 30.1352C37.4281 30.3039 36.75 30.3883 36 30.3883C35.325 30.3883 34.6594 30.3008 34.0031 30.1258C33.3469 29.9445 32.75 29.6727 32.2125 29.3102C31.6812 28.9477 31.2562 28.4852 30.9375 27.9227C30.6187 27.3602 30.4594 26.6945 30.4594 25.9258H33.2812C33.2812 26.3508 33.3469 26.7102 33.4781 27.0039C33.6094 27.2977 33.7937 27.5352 34.0312 27.7164C34.275 27.8977 34.5625 28.0289 34.8937 28.1102C35.2312 28.1914 35.6 28.232 36 28.232C36.4875 28.232 36.8875 28.1633 37.2 28.0258C37.5187 27.8883 37.7531 27.6977 37.9031 27.4539C38.0594 27.2102 38.1375 26.9352 38.1375 26.6289Z" fill="white"/>
<path d="M22.2844 45.2008H19.3125L19.3312 43.007H22.2844C23.0219 43.007 23.6437 42.8414 24.15 42.5102C24.6562 42.1727 25.0375 41.682 25.2937 41.0383C25.5562 40.3945 25.6875 39.6164 25.6875 38.7039V38.0383C25.6875 37.3383 25.6125 36.7227 25.4625 36.1914C25.3187 35.6602 25.1031 35.2133 24.8156 34.8508C24.5281 34.4883 24.175 34.2164 23.7562 34.0352C23.3375 33.8477 22.8562 33.7539 22.3125 33.7539H19.2562V31.5508H22.3125C23.225 31.5508 24.0594 31.707 24.8156 32.0195C25.5781 32.3258 26.2375 32.7664 26.7937 33.3414C27.35 33.9164 27.7781 34.6039 28.0781 35.4039C28.3844 36.1977 28.5375 37.082 28.5375 38.057V38.7039C28.5375 39.6727 28.3844 40.557 28.0781 41.357C27.7781 42.157 27.35 42.8445 26.7937 43.4195C26.2437 43.9883 25.5844 44.4289 24.8156 44.7414C24.0531 45.0477 23.2094 45.2008 22.2844 45.2008ZM20.9062 31.5508V45.2008H18.0938V31.5508H20.9062Z" fill="white"/>
<path d="M38.4937 40.6727H41.2969C41.2406 41.5914 40.9875 42.407 40.5375 43.1195C40.0937 43.832 39.4719 44.3883 38.6719 44.7883C37.8781 45.1883 36.9219 45.3883 35.8031 45.3883C34.9281 45.3883 34.1437 45.2383 33.45 44.9383C32.7562 44.632 32.1625 44.1945 31.6687 43.6258C31.1812 43.057 30.8094 42.3695 30.5531 41.5633C30.2969 40.757 30.1687 39.8539 30.1687 38.8539V37.907C30.1687 36.907 30.3 36.0039 30.5625 35.1977C30.8312 34.3852 31.2125 33.6945 31.7062 33.1258C32.2062 32.557 32.8031 32.1195 33.4969 31.8133C34.1906 31.507 34.9656 31.3539 35.8219 31.3539C36.9594 31.3539 37.9187 31.5602 38.7 31.9727C39.4875 32.3852 40.0969 32.9539 40.5281 33.6789C40.9656 34.4039 41.2281 35.2289 41.3156 36.1539H38.5031C38.4719 35.6039 38.3625 35.1383 38.175 34.757C37.9875 34.3695 37.7031 34.0789 37.3219 33.8852C36.9469 33.6852 36.4469 33.5852 35.8219 33.5852C35.3531 33.5852 34.9437 33.6727 34.5937 33.8477C34.2437 34.0227 33.95 34.2883 33.7125 34.6445C33.475 35.0008 33.2969 35.4508 33.1781 35.9945C33.0656 36.532 33.0094 37.1633 33.0094 37.8883V38.8539C33.0094 39.5602 33.0625 40.182 33.1687 40.7195C33.275 41.2508 33.4375 41.7008 33.6562 42.0695C33.8812 42.432 34.1687 42.707 34.5187 42.8945C34.875 43.0758 35.3031 43.1664 35.8031 43.1664C36.3906 43.1664 36.875 43.0727 37.2562 42.8852C37.6375 42.6977 37.9281 42.4195 38.1281 42.0508C38.3344 41.682 38.4562 41.2227 38.4937 40.6727Z" fill="white"/>
</g>
<defs>
<linearGradient id="paint0_linear_4550_94973" x1="9.89344" y1="50.2155" x2="34.3382" y2="29.4083" gradientUnits="userSpaceOnUse">
<stop stop-color="#8247E5"/>
<stop offset="1" stop-color="#8247E5" stop-opacity="0"/>
</linearGradient>
<linearGradient id="paint1_linear_4550_94973" x1="41.9618" y1="3.15101" x2="14.421" y2="15.8265" gradientUnits="userSpaceOnUse">
<stop offset="0.445694" stop-color="white"/>
<stop offset="1" stop-color="white" stop-opacity="0"/>
</linearGradient>
<linearGradient id="paint2_linear_4550_94973" x1="16.0366" y1="64.1332" x2="46.0418" y2="46.897" gradientUnits="userSpaceOnUse">
<stop offset="0.559619" stop-color="white"/>
<stop offset="0.918509" stop-color="white" stop-opacity="0"/>
</linearGradient>
<clipPath id="clip0_4550_94973">
<rect width="60" height="60" fill="white" transform="translate(0 0.5)"/>
</clipPath>
</defs>
</svg>
