<?xml version="1.0" encoding="UTF-8"?>
<!DOCTYPE svg PUBLIC "-//W3C//DTD SVG 1.1//EN" "http://www.w3.org/Graphics/SVG/1.1/DTD/svg11.dtd">
<svg xmlns="http://www.w3.org/2000/svg" version="1.1" width="164px" height="24px" style="shape-rendering:geometricPrecision; text-rendering:geometricPrecision; image-rendering:optimizeQuality; fill-rule:evenodd; clip-rule:evenodd" xmlns:xlink="http://www.w3.org/1999/xlink">
<g><path style="opacity:0.991" fill="#120dff" d="M 0.5,-0.5 C 26.1667,-0.5 51.8333,-0.5 77.5,-0.5C 77.5,7.5 77.5,15.5 77.5,23.5C 51.8333,23.5 26.1667,23.5 0.5,23.5C 0.5,21.5 0.5,19.5 0.5,17.5C 1.83333,15.1667 1.83333,12.8333 0.5,10.5C 0.5,6.83333 0.5,3.16667 0.5,-0.5 Z"/></g>
<g><path style="opacity:1" fill="#f1f0ff" d="M 34.5,2.5 C 36.0935,5.06086 37.0935,8.06086 37.5,11.5C 39.1693,10.3291 40.6693,8.9958 42,7.5C 42.5,7.83333 43,8.16667 43.5,8.5C 42.5,9.83333 41.5,11.1667 40.5,12.5C 45.7555,19.547 44.7555,20.2137 37.5,14.5C 36.8333,15.8333 36.1667,17.1667 35.5,18.5C 34.5052,13.2079 34.1718,7.8746 34.5,2.5 Z"/></g>
<g><path style="opacity:0.654" fill="#151512" d="M 83.5,5.5 C 85.0481,5.82124 85.7148,6.82124 85.5,8.5C 88.5468,7.85544 90.7135,8.85544 92,11.5C 92.036,9.05878 92.8693,7.05878 94.5,5.5C 95.4909,9.44539 95.8242,13.4454 95.5,17.5C 93.8762,17.6399 92.7096,16.9733 92,15.5C 89.4312,18.5234 86.2645,19.1901 82.5,17.5C 82.2367,13.3998 82.5701,9.39977 83.5,5.5 Z M 86.5,11.5 C 89.5688,11.963 90.0688,13.2963 88,15.5C 85.988,14.4335 85.488,13.1002 86.5,11.5 Z"/></g>
<g><path style="opacity:0.595" fill="#161613" d="M 114.5,5.5 C 115.5,5.5 116.5,5.5 117.5,5.5C 117.34,7.19919 117.506,8.86586 118,10.5C 118.739,9.42575 119.739,8.75908 121,8.5C 122.808,9.69014 124.641,9.69014 126.5,8.5C 128.029,8.52884 129.196,9.19551 130,10.5C 130.494,8.86586 130.66,7.19919 130.5,5.5C 131.5,5.5 132.5,5.5 133.5,5.5C 133.5,6.5 133.5,7.5 133.5,8.5C 135.722,8.17798 137.556,8.84464 139,10.5C 139.497,12.8098 139.663,15.1432 139.5,17.5C 138.5,17.5 137.5,17.5 136.5,17.5C 136.5,15.5 136.5,13.5 136.5,11.5C 135.5,11.5 134.5,11.5 133.5,11.5C 133.5,13.5 133.5,15.5 133.5,17.5C 129.327,17.3356 125.16,17.3356 121,17.5C 119.739,17.2409 118.739,16.5742 118,15.5C 117.612,16.428 116.945,17.0946 116,17.5C 113.319,17.3295 110.485,17.1628 107.5,17C 106.167,15 104.833,15 103.5,17C 101.5,17.6667 99.5,17.6667 97.5,17C 95.0455,11.4538 96.7122,8.78709 102.5,9C 103.667,9.5 104.5,10.3333 105,11.5C 107.706,8.02209 110.706,7.68875 114,10.5C 114.494,8.86586 114.66,7.19919 114.5,5.5 Z M 99.5,11.5 C 102.861,12.2032 103.194,13.5365 100.5,15.5C 98.3576,14.5629 98.0243,13.2296 99.5,11.5 Z M 108.5,11.5 C 110.331,12.0522 111.997,12.0522 113.5,11.5C 114.614,12.723 114.781,14.0563 114,15.5C 112.667,14.1667 111.333,14.1667 110,15.5C 108.812,14.4366 108.312,13.1033 108.5,11.5 Z M 125.5,11.5 C 127.086,12.4132 128.586,12.4132 130,11.5C 130.483,12.448 130.649,13.448 130.5,14.5C 128.774,14.8146 127.107,14.9813 125.5,15C 124.316,13.8545 124.316,12.6879 125.5,11.5 Z"/></g>
<g><path style="opacity:0.512" fill="#161614" d="M 151.5,5.5 C 152.117,5.61071 152.617,5.94404 153,6.5C 153.499,10.1516 153.665,13.8183 153.5,17.5C 152.5,17.5 151.5,17.5 150.5,17.5C 150.237,13.3998 150.57,9.39977 151.5,5.5 Z"/></g>
<g><path style="opacity:1" fill="#e6e4ff" d="M 10.5,6.5 C 13.5176,6.70381 16.5176,7.03714 19.5,7.5C 19.5,11.1667 19.5,14.8333 19.5,18.5C 7.74636,20.447 4.74636,16.447 10.5,6.5 Z"/></g>
<g><path style="opacity:1" fill="#e8e6ff" d="M 25.5,6.5 C 28.2257,6.26386 30.559,7.09719 32.5,9C 31.9747,9.69238 31.3081,10.1924 30.5,10.5C 27.1493,8.74208 24.816,9.57542 23.5,13C 24.8564,16.4255 27.1897,17.2589 30.5,15.5C 31.7112,16.2739 31.7112,17.1072 30.5,18C 23.3333,19.5 20.5,16.6667 22,9.5C 23.1451,8.36362 24.3117,7.36362 25.5,6.5 Z"/></g>
<g><path style="opacity:1" fill="#eeedff" d="M 56.5,10.5 C 56.5,11.5 56.5,12.5 56.5,13.5C 53.6146,13.1936 50.9479,13.5269 48.5,14.5C 48.6107,15.1174 48.944,15.6174 49.5,16C 51.6565,16.0781 53.6565,16.2448 55.5,16.5C 52.1265,19.3044 48.9598,18.9711 46,15.5C 44.622,9.21242 47.122,6.37908 53.5,7C 55.0557,7.72015 56.0557,8.88682 56.5,10.5 Z"/></g>
<g><path style="opacity:1" fill="#eeecff" d="M 70.5,13.5 C 67.4281,13.1826 64.4281,13.5159 61.5,14.5C 61.6236,15.1067 61.9569,15.44 62.5,15.5C 64.841,16.036 67.1743,16.3693 69.5,16.5C 68.4729,18.024 66.9729,18.6906 65,18.5C 61.1444,18.499 59.3111,16.499 59.5,12.5C 61.3604,5.89326 64.8604,4.89326 70,9.5C 70.49,10.7932 70.6567,12.1266 70.5,13.5 Z"/></g>
<g><path style="opacity:0.68" fill="#161613" d="M 142.5,8.5 C 144.833,8.5 147.167,8.5 149.5,8.5C 149.5,11.5 149.5,14.5 149.5,17.5C 140.571,19.2546 138.237,16.2546 142.5,8.5 Z M 143.5,11.5 C 146.861,12.2032 147.194,13.5365 144.5,15.5C 142.358,14.5629 142.024,13.2296 143.5,11.5 Z"/></g>
<g><path style="opacity:0.753" fill="#251939" d="M 162.5,-0.5 C 162.833,-0.5 163.167,-0.5 163.5,-0.5C 163.5,7.5 163.5,15.5 163.5,23.5C 163.167,23.5 162.833,23.5 162.5,23.5C 161.833,19.5 161.167,15.5 160.5,11.5C 159.5,11.5 158.5,11.5 157.5,11.5C 157.5,13.5 157.5,15.5 157.5,17.5C 156.5,17.5 155.5,17.5 154.5,17.5C 154.5,14.5 154.5,11.5 154.5,8.5C 157.119,8.23166 159.619,8.565 162,9.5C 162.498,6.18323 162.665,2.8499 162.5,-0.5 Z"/></g>
<g><path style="opacity:1" fill="#1e17ff" d="M 10.5,9.5 C 15.8946,8.5548 17.5613,10.5548 15.5,15.5C 10.303,16.6301 8.63633,14.6301 10.5,9.5 Z"/></g>
<g><path style="opacity:1" fill="#281dff" d="M 48.5,9.5 C 50.7505,9.18136 52.7505,9.68136 54.5,11C 53.5,11.1667 52.5,11.3333 51.5,11.5C 49.9704,11.3601 48.9704,10.6935 48.5,9.5 Z"/></g>
<g><path style="opacity:1" fill="#372bff" d="M 62.5,9.5 C 64.7505,9.18136 66.7505,9.68136 68.5,11C 66.1667,11.6667 63.8333,11.6667 61.5,11C 62.056,10.6174 62.3893,10.1174 62.5,9.5 Z"/></g>
<g><path style="opacity:0.886" fill="#070708" d="M 0.5,10.5 C 1.83333,12.8333 1.83333,15.1667 0.5,17.5C 0.166667,17.5 -0.166667,17.5 -0.5,17.5C -0.5,15.5 -0.5,13.5 -0.5,11.5C 0.166667,11.5 0.5,11.1667 0.5,10.5 Z"/></g>
<g><path style="opacity:1" fill="#8381ff" d="M 56.5,10.5 C 57.4345,11.5676 57.7678,12.901 57.5,14.5C 54.5,14.5 51.5,14.5 48.5,14.5C 50.9479,13.5269 53.6146,13.1936 56.5,13.5C 56.5,12.5 56.5,11.5 56.5,10.5 Z"/></g>
<g><path style="opacity:1" fill="#8886ff" d="M 70.5,13.5 C 67.8333,14.1667 65.1667,14.8333 62.5,15.5C 61.9569,15.44 61.6236,15.1067 61.5,14.5C 64.4281,13.5159 67.4281,13.1826 70.5,13.5 Z"/></g>
</svg>
