<?xml version="1.0" encoding="UTF-8"?>
<!DOCTYPE svg PUBLIC "-//W3C//DTD SVG 1.1//EN" "http://www.w3.org/Graphics/SVG/1.1/DTD/svg11.dtd">
<svg xmlns="http://www.w3.org/2000/svg" version="1.1" width="150px" height="150px" style="shape-rendering:geometricPrecision; text-rendering:geometricPrecision; image-rendering:optimizeQuality; fill-rule:evenodd; clip-rule:evenodd" xmlns:xlink="http://www.w3.org/1999/xlink">
<g><path style="opacity:1" fill="#93d6fc" d="M 72.5,-0.5 C 77.1667,-0.5 81.8333,-0.5 86.5,-0.5C 89.5349,0.37448 92.5349,1.37448 95.5,2.5C 96.5107,6.85622 98.3441,10.8562 101,14.5C 110.79,27.1496 123.624,34.8163 139.5,37.5C 141.25,38.6594 142.25,40.326 142.5,42.5C 138.6,41.1916 134.6,40.1916 130.5,39.5C 130.5,46.8333 130.5,54.1667 130.5,61.5C 130.821,66.6946 130.487,71.6946 129.5,76.5C 129.832,63.8158 129.499,51.1492 128.5,38.5C 110.356,28.3273 92.0226,18.6606 73.5,9.5C 74.2778,8.84439 74.9444,8.01106 75.5,7C 74.7858,4.35155 73.7858,1.85155 72.5,-0.5 Z"/></g>
<g><path style="opacity:1" fill="#38acef" d="M 62.5,-0.5 C 65.8333,-0.5 69.1667,-0.5 72.5,-0.5C 73.7858,1.85155 74.7858,4.35155 75.5,7C 74.9444,8.01106 74.2778,8.84439 73.5,9.5C 70.605,10.3994 67.9384,11.7328 65.5,13.5C 60.4501,16.6916 55.1168,19.3583 49.5,21.5C 47.0325,16.4302 45.3659,11.0969 44.5,5.5C 50.3858,2.87137 56.3858,0.871372 62.5,-0.5 Z"/></g>
<g><path style="opacity:0.994" fill="#a9dffe" d="M 95.5,2.5 C 115.138,7.97773 129.805,19.6444 139.5,37.5C 123.624,34.8163 110.79,27.1496 101,14.5C 98.3441,10.8562 96.5107,6.85622 95.5,2.5 Z"/></g>
<g><path style="opacity:1" fill="#f9fcfe" d="M 73.5,9.5 C 92.0226,18.6606 110.356,28.3273 128.5,38.5C 129.499,51.1492 129.832,63.8158 129.5,76.5C 129.384,79.8599 129.051,83.1933 128.5,86.5C 127.838,88.4705 127.172,90.4705 126.5,92.5C 129.073,93.8076 131.74,94.8076 134.5,95.5C 129.143,99.5006 123.476,103.167 117.5,106.5C 116.893,106.376 116.56,106.043 116.5,105.5C 115.075,100.194 113.742,94.8605 112.5,89.5C 112.343,88.1266 112.51,86.7932 113,85.5C 115.034,87.0316 117.201,88.3649 119.5,89.5C 121.958,85.2038 122.958,80.5371 122.5,75.5C 123.823,64.9927 123.823,54.3261 122.5,43.5C 111.806,37.488 101.139,31.488 90.5,25.5C 85.5273,22.6786 80.5273,19.8453 75.5,17C 73.4652,16.4014 71.7985,16.9014 70.5,18.5C 70.1667,18.5 69.8333,18.5 69.5,18.5C 66.5299,18.2542 65.1966,16.5876 65.5,13.5C 67.9384,11.7328 70.605,10.3994 73.5,9.5 Z"/></g>
<g><path style="opacity:0.996" fill="#a0d5f4" d="M 65.5,13.5 C 65.1966,16.5876 66.5299,18.2542 69.5,18.5C 64.4936,21.0013 59.8269,24.0013 55.5,27.5C 53.742,27.8769 52.0754,28.5435 50.5,29.5C 49.5937,27.6136 48.5937,25.7803 47.5,24C 48.3805,23.2917 49.0472,22.4584 49.5,21.5C 55.1168,19.3583 60.4501,16.6916 65.5,13.5 Z"/></g>
<g><path style="opacity:1" fill="#37aef2" d="M 69.5,18.5 C 69.8333,18.5 70.1667,18.5 70.5,18.5C 77.3561,29.6932 85.6895,39.6932 95.5,48.5C 92.7939,48.6878 90.4605,49.6878 88.5,51.5C 87.596,50.791 87.2627,49.791 87.5,48.5C 81.5,48.5 75.5,48.5 69.5,48.5C 64.5721,41.6352 59.9054,34.6352 55.5,27.5C 59.8269,24.0013 64.4936,21.0013 69.5,18.5 Z"/></g>
<g><path style="opacity:0.906" fill="#2b5788" d="M 29.5,14.5 C 29.3505,15.552 29.5172,16.552 30,17.5C 30.8928,16.2888 31.7261,16.2888 32.5,17.5C 34.5,20.8333 36.5,24.1667 38.5,27.5C 38.0233,28.4776 37.3567,29.3109 36.5,30C 37.6667,31.8333 38.8333,33.6667 40,35.5C 40.414,35.0426 40.914,34.7093 41.5,34.5C 42.3467,39.1544 43.0134,43.821 43.5,48.5C 41.2646,48.2053 39.2646,48.5386 37.5,49.5C 30.9838,42.4616 25.8171,34.4616 22,25.5C 18.9116,28.0814 16.4116,31.0814 14.5,34.5C 12.5,37.8333 10.5,41.1667 8.5,44.5C 7.30237,47.4262 6.30237,50.4262 5.5,53.5C 3.99579,57.3484 2.99579,61.3484 2.5,65.5C 2.17596,72.3543 2.50929,79.021 3.5,85.5C 3.32198,89.1224 3.98864,92.4557 5.5,95.5C 8.73,107.292 14.5633,117.626 23,126.5C 25.9985,128.333 28.4985,130.666 30.5,133.5C 29.8333,133.5 29.1667,133.5 28.5,133.5C 17.19,125.342 9.02333,114.676 4,101.5C 2.32004,96.4228 0.820036,91.4228 -0.5,86.5C -0.5,78.5 -0.5,70.5 -0.5,62.5C 3.40415,42.692 13.4042,26.692 29.5,14.5 Z"/></g>
<g><path style="opacity:1" fill="#60c1f8" d="M 90.5,25.5 C 98.4362,36.4175 108.77,44.4175 121.5,49.5C 122.487,52.7683 122.82,56.1016 122.5,59.5C 119.083,57.6276 115.417,56.6276 111.5,56.5C 111.5,57.5 111.5,58.5 111.5,59.5C 108.615,59.8064 105.948,59.4731 103.5,58.5C 105.833,58.5 108.167,58.5 110.5,58.5C 108.81,50.5089 103.81,47.1756 95.5,48.5C 85.6895,39.6932 77.3561,29.6932 70.5,18.5C 71.7985,16.9014 73.4652,16.4014 75.5,17C 80.5273,19.8453 85.5273,22.6786 90.5,25.5 Z"/></g>
<g><path style="opacity:1" fill="#2793d3" d="M 44.5,5.5 C 45.3659,11.0969 47.0325,16.4302 49.5,21.5C 49.0472,22.4584 48.3805,23.2917 47.5,24C 48.5937,25.7803 49.5937,27.6136 50.5,29.5C 52.0754,28.5435 53.742,27.8769 55.5,27.5C 59.9054,34.6352 64.5721,41.6352 69.5,48.5C 66.8333,48.5 64.1667,48.5 61.5,48.5C 57.9801,42.6386 54.3134,36.8053 50.5,31C 47.9754,30.9593 45.6421,31.7927 43.5,33.5C 42.7619,25.0525 40.0952,17.3858 35.5,10.5C 38.0078,8.07642 41.0078,6.40975 44.5,5.5 Z"/></g>
<g><path style="opacity:1" fill="#7accfa" d="M 90.5,25.5 C 101.139,31.488 111.806,37.488 122.5,43.5C 123.823,54.3261 123.823,64.9927 122.5,75.5C 122.5,75.1667 122.5,74.8333 122.5,74.5C 122.5,69.5 122.5,64.5 122.5,59.5C 122.82,56.1016 122.487,52.7683 121.5,49.5C 108.77,44.4175 98.4362,36.4175 90.5,25.5 Z"/></g>
<g><path style="opacity:1" fill="#4e436e" d="M 37.5,49.5 C 37.5,53.8333 37.5,58.1667 37.5,62.5C 35.1394,60.8061 33.1394,58.8061 31.5,56.5C 33.2252,56.1575 33.7252,55.1575 33,53.5C 30.1667,48.5 27.3333,43.5 24.5,38.5C 23.1482,39.5244 21.8149,40.5244 20.5,41.5C 19.9464,37.9452 17.9464,35.6118 14.5,34.5C 16.4116,31.0814 18.9116,28.0814 22,25.5C 25.8171,34.4616 30.9838,42.4616 37.5,49.5 Z"/></g>
<g><path style="opacity:1" fill="#1e7fba" d="M 35.5,10.5 C 40.0952,17.3858 42.7619,25.0525 43.5,33.5C 45.6421,31.7927 47.9754,30.9593 50.5,31C 54.3134,36.8053 57.9801,42.6386 61.5,48.5C 61.1667,48.5 60.8333,48.5 60.5,48.5C 54.8333,48.5 49.1667,48.5 43.5,48.5C 43.0134,43.821 42.3467,39.1544 41.5,34.5C 40.914,34.7093 40.414,35.0426 40,35.5C 38.8333,33.6667 37.6667,31.8333 36.5,30C 37.3567,29.3109 38.0233,28.4776 38.5,27.5C 36.5,24.1667 34.5,20.8333 32.5,17.5C 31.7261,16.2888 30.8928,16.2888 30,17.5C 29.5172,16.552 29.3505,15.552 29.5,14.5C 31.1475,12.6736 33.1475,11.3403 35.5,10.5 Z"/></g>
<g><path style="opacity:1" fill="#faf5f6" d="M 31.5,56.5 C 29.5,56.1667 27.5,55.8333 25.5,55.5C 25.5,57.5 25.5,59.5 25.5,61.5C 25.2598,67.227 25.5931,72.8936 26.5,78.5C 26.6761,81.7273 27.3428,84.7273 28.5,87.5C 34.3207,109.323 47.654,124.657 68.5,133.5C 70.0418,134.301 71.7085,134.634 73.5,134.5C 73.56,135.043 73.8933,135.376 74.5,135.5C 76.7805,134.298 79.1138,133.298 81.5,132.5C 83.7496,131.87 85.7496,130.87 87.5,129.5C 87.8333,129.5 88.1667,129.5 88.5,129.5C 90.0075,131.181 91.0075,133.181 91.5,135.5C 90.2905,135.932 89.2905,136.599 88.5,137.5C 83.8333,139.167 79.1667,140.833 74.5,142.5C 67.6387,140.994 61.3053,138.327 55.5,134.5C 37.2375,123.01 25.5708,106.676 20.5,85.5C 19.18,79.5897 18.5133,73.5897 18.5,67.5C 18.5,63.1667 18.5,58.8333 18.5,54.5C 15.4281,54.8174 12.4281,54.4841 9.5,53.5C 11.1897,51.4807 12.8564,49.4807 14.5,47.5C 16.8333,45.8333 18.8333,43.8333 20.5,41.5C 21.8149,40.5244 23.1482,39.5244 24.5,38.5C 27.3333,43.5 30.1667,48.5 33,53.5C 33.7252,55.1575 33.2252,56.1575 31.5,56.5 Z"/></g>
<g><path style="opacity:1" fill="#693860" d="M 14.5,34.5 C 17.9464,35.6118 19.9464,37.9452 20.5,41.5C 18.8333,43.8333 16.8333,45.8333 14.5,47.5C 12.5,46.5 10.5,45.5 8.5,44.5C 10.5,41.1667 12.5,37.8333 14.5,34.5 Z"/></g>
<g><path style="opacity:1" fill="#b3dff9" d="M 60.5,48.5 C 60.8333,48.5 61.1667,48.5 61.5,48.5C 64.1667,48.5 66.8333,48.5 69.5,48.5C 75.5,48.5 81.5,48.5 87.5,48.5C 87.2627,49.791 87.596,50.791 88.5,51.5C 88.1667,52.5 87.5,53.1667 86.5,53.5C 86.5,52.1667 86.5,50.8333 86.5,49.5C 77.6506,49.8264 68.9839,49.493 60.5,48.5 Z"/></g>
<g><path style="opacity:1" fill="#f8fcfe" d="M 95.5,48.5 C 103.81,47.1756 108.81,50.5089 110.5,58.5C 108.167,58.5 105.833,58.5 103.5,58.5C 101.023,52.7715 97.5234,52.1049 93,56.5C 92.3698,58.9034 93.2031,60.7367 95.5,62C 99.7293,63.1146 103.729,64.7813 107.5,67C 110.029,69.6417 111.029,72.8084 110.5,76.5C 109.409,79.4278 107.409,81.5945 104.5,83C 101.183,83.4983 97.8499,83.665 94.5,83.5C 88.3329,82.3358 84.9996,78.6692 84.5,72.5C 86.8333,72.5 89.1667,72.5 91.5,72.5C 92.5601,78.0953 95.8935,79.9286 101.5,78C 103.576,76.1159 103.91,73.9492 102.5,71.5C 97.5197,69.4521 92.6864,67.1188 88,64.5C 85.8358,61.5527 85.0025,58.2194 85.5,54.5C 82.5,54.5 79.5,54.5 76.5,54.5C 79.6248,53.5206 82.9581,53.1872 86.5,53.5C 87.5,53.1667 88.1667,52.5 88.5,51.5C 90.4605,49.6878 92.7939,48.6878 95.5,48.5 Z"/></g>
<g><path style="opacity:1" fill="#f8fafb" d="M 43.5,48.5 C 49.1667,48.5 54.8333,48.5 60.5,48.5C 68.9839,49.493 77.6506,49.8264 86.5,49.5C 86.5,50.8333 86.5,52.1667 86.5,53.5C 82.9581,53.1872 79.6248,53.5206 76.5,54.5C 76.5,58.5 76.5,62.5 76.5,66.5C 76.5,72.1667 76.5,77.8333 76.5,83.5C 75.1667,83.5 73.8333,83.5 72.5,83.5C 71.5,83.5 70.5,83.5 69.5,83.5C 69.5,73.8333 69.5,64.1667 69.5,54.5C 61.1667,54.5 52.8333,54.5 44.5,54.5C 44.2229,57.4475 44.5562,60.2809 45.5,63C 49.8206,63.499 54.1539,63.6657 58.5,63.5C 58.5,64.8333 58.5,66.1667 58.5,67.5C 55.3752,68.4794 52.0419,68.8128 48.5,68.5C 47.5,68.5 46.5,68.5 45.5,68.5C 44.5206,71.6248 44.1872,74.9581 44.5,78.5C 49.8333,78.5 55.1667,78.5 60.5,78.5C 60.5,80.1667 60.5,81.8333 60.5,83.5C 59.5,83.5 58.5,83.5 57.5,83.5C 54.8333,83.5 52.1667,83.5 49.5,83.5C 46.8333,83.5 44.1667,83.5 41.5,83.5C 40.1667,83.5 38.8333,83.5 37.5,83.5C 37.5,80.5 37.5,77.5 37.5,74.5C 37.5,70.5 37.5,66.5 37.5,62.5C 37.5,58.1667 37.5,53.8333 37.5,49.5C 39.2646,48.5386 41.2646,48.2053 43.5,48.5 Z"/></g>
<g><path style="opacity:1" fill="#862b51" d="M 8.5,44.5 C 10.5,45.5 12.5,46.5 14.5,47.5C 12.8564,49.4807 11.1897,51.4807 9.5,53.5C 12.4281,54.4841 15.4281,54.8174 18.5,54.5C 18.5,58.8333 18.5,63.1667 18.5,67.5C 14.1667,62.8333 9.83333,58.1667 5.5,53.5C 6.30237,50.4262 7.30237,47.4262 8.5,44.5 Z"/></g>
<g><path style="opacity:1" fill="#68355e" d="M 31.5,56.5 C 33.1394,58.8061 35.1394,60.8061 37.5,62.5C 37.5,66.5 37.5,70.5 37.5,74.5C 33.5,70.1667 29.5,65.8333 25.5,61.5C 25.5,59.5 25.5,57.5 25.5,55.5C 27.5,55.8333 29.5,56.1667 31.5,56.5 Z"/></g>
<g><path style="opacity:1" fill="#67c4f9" d="M 142.5,42.5 C 145.634,48.9033 147.968,55.57 149.5,62.5C 149.5,63.1667 149.5,63.8333 149.5,64.5C 143.148,63.7995 136.815,62.7995 130.5,61.5C 130.5,54.1667 130.5,46.8333 130.5,39.5C 134.6,40.1916 138.6,41.1916 142.5,42.5 Z"/></g>
<g><path style="opacity:1" fill="#2897d8" d="M 76.5,54.5 C 79.5,54.5 82.5,54.5 85.5,54.5C 85.0025,58.2194 85.8358,61.5527 88,64.5C 92.6864,67.1188 97.5197,69.4521 102.5,71.5C 103.91,73.9492 103.576,76.1159 101.5,78C 95.8935,79.9286 92.5601,78.0953 91.5,72.5C 89.1667,72.5 86.8333,72.5 84.5,72.5C 82.1401,70.1468 79.4735,68.1468 76.5,66.5C 76.5,62.5 76.5,58.5 76.5,54.5 Z"/></g>
<g><path style="opacity:1" fill="#41b3f5" d="M 103.5,58.5 C 105.948,59.4731 108.615,59.8064 111.5,59.5C 111.5,58.5 111.5,57.5 111.5,56.5C 115.417,56.6276 119.083,57.6276 122.5,59.5C 122.5,64.5 122.5,69.5 122.5,74.5C 118.936,74.3124 115.603,73.3124 112.5,71.5C 111.83,73.2914 111.163,74.9581 110.5,76.5C 111.029,72.8084 110.029,69.6417 107.5,67C 103.729,64.7813 99.7293,63.1146 95.5,62C 93.2031,60.7367 92.3698,58.9034 93,56.5C 97.5234,52.1049 101.023,52.7715 103.5,58.5 Z"/></g>
<g><path style="opacity:1" fill="#9e2448" d="M 5.5,53.5 C 9.83333,58.1667 14.1667,62.8333 18.5,67.5C 18.5133,73.5897 19.18,79.5897 20.5,85.5C 14.8702,78.5349 8.87017,71.8683 2.5,65.5C 2.99579,61.3484 3.99579,57.3484 5.5,53.5 Z"/></g>
<g><path style="opacity:1" fill="#277bb3" d="M 69.5,83.5 C 68.6773,80.023 68.1773,76.3563 68,72.5C 65.3333,69.8333 62.6667,67.1667 60,64.5C 59.7679,65.7375 59.2679,66.7375 58.5,67.5C 58.5,66.1667 58.5,64.8333 58.5,63.5C 54.1539,63.6657 49.8206,63.499 45.5,63C 44.5562,60.2809 44.2229,57.4475 44.5,54.5C 52.8333,54.5 61.1667,54.5 69.5,54.5C 69.5,64.1667 69.5,73.8333 69.5,83.5 Z"/></g>
<g><path style="opacity:1" fill="#583a65" d="M 45.5,68.5 C 46.5,68.5 47.5,68.5 48.5,68.5C 49.5612,71.6223 50.8946,74.6223 52.5,77.5C 50.1667,77.5 47.8333,77.5 45.5,77.5C 45.5,74.5 45.5,71.5 45.5,68.5 Z"/></g>
<g><path style="opacity:1" fill="#36acf0" d="M 130.5,61.5 C 136.815,62.7995 143.148,63.7995 149.5,64.5C 149.5,71.5 149.5,78.5 149.5,85.5C 143.971,85.6516 138.471,85.3182 133,84.5C 131.213,84.7586 129.713,85.4253 128.5,86.5C 129.051,83.1933 129.384,79.8599 129.5,76.5C 130.487,71.6946 130.821,66.6946 130.5,61.5 Z"/></g>
<g><path style="opacity:1" fill="#862c52" d="M 25.5,61.5 C 29.5,65.8333 33.5,70.1667 37.5,74.5C 37.5,77.5 37.5,80.5 37.5,83.5C 38.8333,83.5 40.1667,83.5 41.5,83.5C 53.4562,97.9607 65.6229,112.294 78,126.5C 79.4213,128.405 80.588,130.405 81.5,132.5C 79.1138,133.298 76.7805,134.298 74.5,135.5C 73.8933,135.376 73.56,135.043 73.5,134.5C 58.8913,115.505 43.2247,96.8385 26.5,78.5C 25.5931,72.8936 25.2598,67.227 25.5,61.5 Z"/></g>
<g><path style="opacity:1" fill="#b1a8bc" d="M 45.5,68.5 C 45.5,71.5 45.5,74.5 45.5,77.5C 47.8333,77.5 50.1667,77.5 52.5,77.5C 55.3854,77.1936 58.0521,77.5269 60.5,78.5C 55.1667,78.5 49.8333,78.5 44.5,78.5C 44.1872,74.9581 44.5206,71.6248 45.5,68.5 Z"/></g>
<g><path style="opacity:1" fill="#95274c" d="M 26.5,78.5 C 43.2247,96.8385 58.8913,115.505 73.5,134.5C 71.7085,134.634 70.0418,134.301 68.5,133.5C 67.588,131.405 66.4213,129.405 65,127.5C 53,113.5 41,99.5 29,85.5C 28.5357,86.0944 28.369,86.7611 28.5,87.5C 27.3428,84.7273 26.6761,81.7273 26.5,78.5 Z"/></g>
<g><path style="opacity:1" fill="#0f659a" d="M 69.5,83.5 C 70.5,83.5 71.5,83.5 72.5,83.5C 85.7375,93.4521 100.404,100.785 116.5,105.5C 116.56,106.043 116.893,106.376 117.5,106.5C 123.476,103.167 129.143,99.5006 134.5,95.5C 134.435,95.0618 134.601,94.7284 135,94.5C 139.065,94.9414 142.898,95.9414 146.5,97.5C 144.772,103.381 142.106,108.714 138.5,113.5C 109.772,110.382 84.2724,99.7149 62,81.5C 61.7216,82.4158 61.2216,83.0825 60.5,83.5C 60.5,81.8333 60.5,80.1667 60.5,78.5C 58.0521,77.5269 55.3854,77.1936 52.5,77.5C 50.8946,74.6223 49.5612,71.6223 48.5,68.5C 52.0419,68.8128 55.3752,68.4794 58.5,67.5C 59.2679,66.7375 59.7679,65.7375 60,64.5C 62.6667,67.1667 65.3333,69.8333 68,72.5C 68.1773,76.3563 68.6773,80.023 69.5,83.5 Z"/></g>
<g><path style="opacity:1" fill="#c51a39" d="M 2.5,65.5 C 8.87017,71.8683 14.8702,78.5349 20.5,85.5C 25.5708,106.676 37.2375,123.01 55.5,134.5C 55.7086,135.922 56.2086,137.255 57,138.5C 59.5402,140.705 61.7068,143.205 63.5,146C 63.2716,146.399 62.9382,146.565 62.5,146.5C 58.5544,146.118 54.8878,145.118 51.5,143.5C 52.0431,143.44 52.3764,143.107 52.5,142.5C 51.2865,138.451 48.7865,135.451 45,133.5C 44.6667,132.5 44.3333,131.5 44,130.5C 38.8629,124.609 33.5296,118.943 28,113.5C 27.6667,112.5 27.3333,111.5 27,110.5C 21.8629,104.609 16.5296,98.9425 11,93.5C 9.56579,89.8596 7.06579,87.1929 3.5,85.5C 2.50929,79.021 2.17596,72.3543 2.5,65.5 Z"/></g>
<g><path style="opacity:1" fill="#2f96d5" d="M 122.5,74.5 C 122.5,74.8333 122.5,75.1667 122.5,75.5C 122.958,80.5371 121.958,85.2038 119.5,89.5C 117.201,88.3649 115.034,87.0316 113,85.5C 112.51,86.7932 112.343,88.1266 112.5,89.5C 106.393,87.4271 100.393,85.4271 94.5,83.5C 97.8499,83.665 101.183,83.4983 104.5,83C 107.409,81.5945 109.409,79.4278 110.5,76.5C 111.163,74.9581 111.83,73.2914 112.5,71.5C 115.603,73.3124 118.936,74.3124 122.5,74.5 Z"/></g>
<g><path style="opacity:1" fill="#71325b" d="M 41.5,83.5 C 44.1667,83.5 46.8333,83.5 49.5,83.5C 62.5441,98.542 75.2107,113.875 87.5,129.5C 85.7496,130.87 83.7496,131.87 81.5,132.5C 80.588,130.405 79.4213,128.405 78,126.5C 65.6229,112.294 53.4562,97.9607 41.5,83.5 Z"/></g>
<g><path style="opacity:1" fill="#603761" d="M 49.5,83.5 C 52.1667,83.5 54.8333,83.5 57.5,83.5C 61.1667,89.1667 65.8333,93.8333 71.5,97.5C 71.3505,98.552 71.5172,99.552 72,100.5C 79.6477,108.492 86.8143,116.825 93.5,125.5C 91.8333,126.833 90.1667,128.167 88.5,129.5C 88.1667,129.5 87.8333,129.5 87.5,129.5C 75.2107,113.875 62.5441,98.542 49.5,83.5 Z"/></g>
<g><path style="opacity:0.995" fill="#095687" d="M 138.5,113.5 C 135.699,119.421 131.699,124.421 126.5,128.5C 125.026,124.244 122.526,120.578 119,117.5C 118.517,116.552 118.351,115.552 118.5,114.5C 109.084,114.228 100.084,112.228 91.5,108.5C 84.218,105.861 77.5514,102.194 71.5,97.5C 65.8333,93.8333 61.1667,89.1667 57.5,83.5C 58.5,83.5 59.5,83.5 60.5,83.5C 61.2216,83.0825 61.7216,82.4158 62,81.5C 84.2724,99.7149 109.772,110.382 138.5,113.5 Z"/></g>
<g><path style="opacity:1" fill="#1471a9" d="M 76.5,66.5 C 79.4735,68.1468 82.1401,70.1468 84.5,72.5C 84.9996,78.6692 88.3329,82.3358 94.5,83.5C 100.393,85.4271 106.393,87.4271 112.5,89.5C 113.742,94.8605 115.075,100.194 116.5,105.5C 100.404,100.785 85.7375,93.4521 72.5,83.5C 73.8333,83.5 75.1667,83.5 76.5,83.5C 76.5,77.8333 76.5,72.1667 76.5,66.5 Z"/></g>
<g><path style="opacity:1" fill="#228dcc" d="M 149.5,85.5 C 149.5,85.8333 149.5,86.1667 149.5,86.5C 148.368,90.019 147.368,93.6857 146.5,97.5C 142.898,95.9414 139.065,94.9414 135,94.5C 134.601,94.7284 134.435,95.0618 134.5,95.5C 131.74,94.8076 129.073,93.8076 126.5,92.5C 127.172,90.4705 127.838,88.4705 128.5,86.5C 129.713,85.4253 131.213,84.7586 133,84.5C 138.471,85.3182 143.971,85.6516 149.5,85.5 Z"/></g>
<g><path style="opacity:1" fill="#e10d2b" d="M 44.5,140.5 C 39.5232,138.678 34.8566,136.345 30.5,133.5C 28.4985,130.666 25.9985,128.333 23,126.5C 14.5633,117.626 8.73,107.292 5.5,95.5C 5.7748,93.1582 6.60814,93.1582 8,95.5C 20.3812,110.426 32.8812,125.259 45.5,140C 45.2716,140.399 44.9382,140.565 44.5,140.5 Z"/></g>
<g><path style="opacity:1" fill="#4c3e69" d="M 71.5,97.5 C 77.5514,102.194 84.218,105.861 91.5,108.5C 94.1285,112.463 97.1285,116.129 100.5,119.5C 99.5,120.833 98.5,122.167 97.5,123.5C 95.9382,123.733 94.6049,124.4 93.5,125.5C 86.8143,116.825 79.6477,108.492 72,100.5C 71.5172,99.552 71.3505,98.552 71.5,97.5 Z"/></g>
<g><path style="opacity:1" fill="#d31131" d="M 3.5,85.5 C 7.06579,87.1929 9.56579,89.8596 11,93.5C 16.5296,98.9425 21.8629,104.609 27,110.5C 27.3333,111.5 27.6667,112.5 28,113.5C 33.5296,118.943 38.8629,124.609 44,130.5C 44.3333,131.5 44.6667,132.5 45,133.5C 48.7865,135.451 51.2865,138.451 52.5,142.5C 52.3764,143.107 52.0431,143.44 51.5,143.5C 48.7594,143.293 46.4261,142.293 44.5,140.5C 44.9382,140.565 45.2716,140.399 45.5,140C 32.8812,125.259 20.3812,110.426 8,95.5C 6.60814,93.1582 5.7748,93.1582 5.5,95.5C 3.98864,92.4557 3.32198,89.1224 3.5,85.5 Z"/></g>
<g><path style="opacity:1" fill="#a32548" d="M 68.5,133.5 C 47.654,124.657 34.3207,109.323 28.5,87.5C 28.369,86.7611 28.5357,86.0944 29,85.5C 41,99.5 53,113.5 65,127.5C 66.4213,129.405 67.588,131.405 68.5,133.5 Z"/></g>
<g><path style="opacity:1" fill="#254e7d" d="M 91.5,108.5 C 100.084,112.228 109.084,114.228 118.5,114.5C 118.351,115.552 118.517,116.552 119,117.5C 122.526,120.578 125.026,124.244 126.5,128.5C 115.405,139.715 102.071,146.715 86.5,149.5C 78.5,149.5 70.5,149.5 62.5,149.5C 55.7857,147.874 49.119,145.707 42.5,143C 37.2479,140.552 32.5812,137.386 28.5,133.5C 29.1667,133.5 29.8333,133.5 30.5,133.5C 34.8566,136.345 39.5232,138.678 44.5,140.5C 46.4261,142.293 48.7594,143.293 51.5,143.5C 54.8878,145.118 58.5544,146.118 62.5,146.5C 67.6405,147.488 72.9738,147.821 78.5,147.5C 83.9227,147.482 89.256,146.815 94.5,145.5C 100.546,143.873 106.212,141.373 111.5,138C 108.999,134.333 105.999,131.166 102.5,128.5C 104.348,126.484 106.015,124.317 107.5,122C 106.221,117.502 103.888,116.669 100.5,119.5C 97.1285,116.129 94.1285,112.463 91.5,108.5 Z"/></g>
<g><path style="opacity:1" fill="#656b8e" d="M 102.5,128.5 C 102.167,128.5 101.833,128.5 101.5,128.5C 101.33,125.796 99.9971,124.129 97.5,123.5C 98.5,122.167 99.5,120.833 100.5,119.5C 103.888,116.669 106.221,117.502 107.5,122C 106.015,124.317 104.348,126.484 102.5,128.5 Z"/></g>
<g><path style="opacity:1" fill="#b3a4b8" d="M 97.5,123.5 C 99.9971,124.129 101.33,125.796 101.5,128.5C 98.1667,130.833 94.8333,133.167 91.5,135.5C 91.0075,133.181 90.0075,131.181 88.5,129.5C 90.1667,128.167 91.8333,126.833 93.5,125.5C 94.6049,124.4 95.9382,123.733 97.5,123.5 Z"/></g>
<g><path style="opacity:1" fill="#623861" d="M 101.5,128.5 C 101.833,128.5 102.167,128.5 102.5,128.5C 105.999,131.166 108.999,134.333 111.5,138C 106.212,141.373 100.546,143.873 94.5,145.5C 93.6472,141.98 91.6472,139.313 88.5,137.5C 89.2905,136.599 90.2905,135.932 91.5,135.5C 94.8333,133.167 98.1667,130.833 101.5,128.5 Z"/></g>
<g><path style="opacity:1" fill="#b02142" d="M 55.5,134.5 C 61.3053,138.327 67.6387,140.994 74.5,142.5C 75.8333,144.167 77.1667,145.833 78.5,147.5C 72.9738,147.821 67.6405,147.488 62.5,146.5C 62.9382,146.565 63.2716,146.399 63.5,146C 61.7068,143.205 59.5402,140.705 57,138.5C 56.2086,137.255 55.7086,135.922 55.5,134.5 Z"/></g>
<g><path style="opacity:1" fill="#8b2d52" d="M 88.5,137.5 C 91.6472,139.313 93.6472,141.98 94.5,145.5C 89.256,146.815 83.9227,147.482 78.5,147.5C 77.1667,145.833 75.8333,144.167 74.5,142.5C 79.1667,140.833 83.8333,139.167 88.5,137.5 Z"/></g>
</svg>
