<?xml version="1.0" encoding="UTF-8"?>
<!DOCTYPE svg PUBLIC "-//W3C//DTD SVG 1.1//EN" "http://www.w3.org/Graphics/SVG/1.1/DTD/svg11.dtd">
<svg xmlns="http://www.w3.org/2000/svg" version="1.1" width="150px" height="150px" style="shape-rendering:geometricPrecision; text-rendering:geometricPrecision; image-rendering:optimizeQuality; fill-rule:evenodd; clip-rule:evenodd" xmlns:xlink="http://www.w3.org/1999/xlink">
<g><path style="opacity:0.984" fill="#f8e1c6" d="M 70.5,-0.5 C 75.8333,-0.5 81.1667,-0.5 86.5,-0.5C 87.209,0.403972 88.209,0.737305 89.5,0.5C 89.1961,1.14987 88.8627,1.81654 88.5,2.5C 91.3716,9.75293 95.3716,16.2529 100.5,22C 100.272,22.3988 99.9382,22.5654 99.5,22.5C 90.8432,17.3374 81.8432,13.0041 72.5,9.5C 72.0405,6.12259 71.3739,2.78926 70.5,-0.5 Z"/></g>
<g><path style="opacity:1" fill="#fccd93" d="M 62.5,-0.5 C 65.1667,-0.5 67.8333,-0.5 70.5,-0.5C 71.3739,2.78926 72.0405,6.12259 72.5,9.5C 70.2048,10.4746 68.2048,11.8079 66.5,13.5C 65.1667,13.8333 63.8333,14.1667 62.5,14.5C 60.6139,10.1634 58.9472,5.83005 57.5,1.5C 59.1667,0.833333 60.8333,0.166667 62.5,-0.5 Z"/></g>
<g><path style="opacity:0.982" fill="#f4efea" d="M 89.5,0.5 C 113.206,5.6718 130.539,19.0051 141.5,40.5C 141.5,41.5 141.5,42.5 141.5,43.5C 137.833,42.8333 134.167,42.1667 130.5,41.5C 130.818,46.0323 130.485,50.3656 129.5,54.5C 129.828,49.1254 129.495,43.7921 128.5,38.5C 118.61,33.3925 108.944,28.0591 99.5,22.5C 99.9382,22.5654 100.272,22.3988 100.5,22C 95.3716,16.2529 91.3716,9.75293 88.5,2.5C 88.8627,1.81654 89.1961,1.14987 89.5,0.5 Z"/></g>
<g><path style="opacity:1" fill="#fefdfc" d="M 72.5,9.5 C 81.8432,13.0041 90.8432,17.3374 99.5,22.5C 108.944,28.0591 118.61,33.3925 128.5,38.5C 129.495,43.7921 129.828,49.1254 129.5,54.5C 129.5,61.8333 129.5,69.1667 129.5,76.5C 129.384,79.8599 129.051,83.1933 128.5,86.5C 127.838,88.4705 127.172,90.4705 126.5,92.5C 129.198,93.6694 131.865,94.8361 134.5,96C 133.429,96.8518 132.429,97.6851 131.5,98.5C 126.861,101.155 122.194,103.821 117.5,106.5C 115.699,102.293 114.366,97.9595 113.5,93.5C 113.371,91.7839 113.038,90.1172 112.5,88.5C 112.351,87.448 112.517,86.448 113,85.5C 115.034,87.0316 117.201,88.3649 119.5,89.5C 121.348,85.7723 122.348,81.7723 122.5,77.5C 123.824,66.3265 123.824,54.9931 122.5,43.5C 110.334,36.249 98.0004,29.249 85.5,22.5C 82.0568,20.8956 78.7234,19.0623 75.5,17C 74.2506,16.2599 73.2506,16.4265 72.5,17.5C 71.391,17.5569 70.391,17.8902 69.5,18.5C 67.7497,17.3406 66.7497,15.674 66.5,13.5C 68.2048,11.8079 70.2048,10.4746 72.5,9.5 Z"/></g>
<g><path style="opacity:1" fill="#f5a344" d="M 41.5,6.5 C 42.8566,12.0717 44.5233,17.5717 46.5,23C 45.8699,24.3102 44.8699,25.1435 43.5,25.5C 41.6137,26.3606 39.7804,27.3606 38,28.5C 34.6105,25.6128 31.7772,22.2795 29.5,18.5C 31.1233,17.2206 32.79,15.8872 34.5,14.5C 33.8728,13.5832 33.5394,12.5832 33.5,11.5C 35.7937,9.347 38.4604,7.68034 41.5,6.5 Z"/></g>
<g><path style="opacity:1" fill="#fbd5a8" d="M 72.5,17.5 C 73.2506,16.4265 74.2506,16.2599 75.5,17C 78.7234,19.0623 82.0568,20.8956 85.5,22.5C 85.4914,24.3084 85.9914,25.9751 87,27.5C 96.4239,38.7658 107.924,47.0991 121.5,52.5C 122.466,54.396 122.799,56.396 122.5,58.5C 118.811,58.0821 115.311,57.0821 112,55.5C 111.51,56.7932 111.343,58.1266 111.5,59.5C 108.615,59.8064 105.948,59.4731 103.5,58.5C 105.833,58.5 108.167,58.5 110.5,58.5C 109.155,51.5058 104.822,48.1725 97.5,48.5C 93.6135,44.1092 89.4468,39.7758 85,35.5C 80.5644,29.6081 76.3977,23.6081 72.5,17.5 Z"/></g>
<g><path style="opacity:1" fill="#e38d46" d="M 29.5,18.5 C 31.7772,22.2795 34.6105,25.6128 38,28.5C 39.7804,27.3606 41.6137,26.3606 43.5,25.5C 43.448,27.9029 43.7814,30.2362 44.5,32.5C 43.3248,34.3838 42.6582,36.5505 42.5,39C 42.7441,42.1864 43.0774,45.353 43.5,48.5C 43.1667,48.5 42.8333,48.5 42.5,48.5C 41.6569,45.4838 40.1569,42.8171 38,40.5C 34.2739,38.5614 31.4406,35.228 29.5,30.5C 27.1025,28.4253 24.7692,26.4253 22.5,24.5C 24.6068,22.2733 26.9401,20.2733 29.5,18.5 Z"/></g>
<g><path style="opacity:1" fill="#fde3c4" d="M 66.5,13.5 C 66.7497,15.674 67.7497,17.3406 69.5,18.5C 66.9906,19.9213 64.6572,21.5879 62.5,23.5C 59.9649,24.3487 57.4649,25.3487 55,26.5C 53.1147,26.1379 52.2814,24.9713 52.5,23C 52.5852,21.8926 52.9186,20.8926 53.5,20C 56.6717,18.3034 59.6717,16.4701 62.5,14.5C 63.8333,14.1667 65.1667,13.8333 66.5,13.5 Z"/></g>
<g><path style="opacity:1" fill="#fdc989" d="M 72.5,17.5 C 76.3977,23.6081 80.5644,29.6081 85,35.5C 89.4468,39.7758 93.6135,44.1092 97.5,48.5C 93.9966,48.1289 90.9966,49.1289 88.5,51.5C 87.596,50.791 87.2627,49.791 87.5,48.5C 85.1667,48.5 82.8333,48.5 80.5,48.5C 73.6929,40.7014 67.6929,32.3681 62.5,23.5C 64.6572,21.5879 66.9906,19.9213 69.5,18.5C 70.391,17.8902 71.391,17.5569 72.5,17.5 Z"/></g>
<g><path style="opacity:1" fill="#fcbc6f" d="M 57.5,1.5 C 58.9472,5.83005 60.6139,10.1634 62.5,14.5C 59.6717,16.4701 56.6717,18.3034 53.5,20C 52.9186,20.8926 52.5852,21.8926 52.5,23C 52.2814,24.9713 53.1147,26.1379 55,26.5C 57.4649,25.3487 59.9649,24.3487 62.5,23.5C 67.6929,32.3681 73.6929,40.7014 80.5,48.5C 76.5,48.5 72.5,48.5 68.5,48.5C 63.8015,42.459 59.4681,36.1257 55.5,29.5C 51.7055,28.7186 48.3721,29.7186 45.5,32.5C 45.1667,32.5 44.8333,32.5 44.5,32.5C 43.7814,30.2362 43.448,27.9029 43.5,25.5C 44.8699,25.1435 45.8699,24.3102 46.5,23C 44.5233,17.5717 42.8566,12.0717 41.5,6.5C 46.5698,4.03255 51.9031,2.36588 57.5,1.5 Z"/></g>
<g><path style="opacity:1" fill="#d47c50" d="M 22.5,24.5 C 24.7692,26.4253 27.1025,28.4253 29.5,30.5C 31.4406,35.228 34.2739,38.5614 38,40.5C 40.1569,42.8171 41.6569,45.4838 42.5,48.5C 40.8333,48.5 39.1667,48.5 37.5,48.5C 37.5,50.1667 37.5,51.8333 37.5,53.5C 37.5,56.5 37.5,59.5 37.5,62.5C 35.7819,60.7772 34.4486,58.7772 33.5,56.5C 31.118,50.7343 28.4513,45.0677 25.5,39.5C 24.5754,38.4376 23.5754,38.4376 22.5,39.5C 19.847,37.845 17.5136,35.845 15.5,33.5C 17.4821,30.1897 19.8154,27.1897 22.5,24.5 Z"/></g>
<g><path style="opacity:1" fill="#f9debe" d="M 85.5,22.5 C 98.0004,29.249 110.334,36.249 122.5,43.5C 123.824,54.9931 123.824,66.3265 122.5,77.5C 122.5,77.1667 122.5,76.8333 122.5,76.5C 122.5,70.5 122.5,64.5 122.5,58.5C 122.799,56.396 122.466,54.396 121.5,52.5C 107.924,47.0991 96.4239,38.7658 87,27.5C 85.9914,25.9751 85.4914,24.3084 85.5,22.5 Z"/></g>
<g><path style="opacity:1" fill="#f9ae54" d="M 68.5,48.5 C 65.1667,48.5 61.8333,48.5 58.5,48.5C 54.8444,43.8662 51.6777,38.8662 49,33.5C 47.9887,32.6634 46.8221,32.33 45.5,32.5C 48.3721,29.7186 51.7055,28.7186 55.5,29.5C 59.4681,36.1257 63.8015,42.459 68.5,48.5 Z"/></g>
<g><path style="opacity:1" fill="#f6a23e" d="M 44.5,32.5 C 44.8333,32.5 45.1667,32.5 45.5,32.5C 46.8221,32.33 47.9887,32.6634 49,33.5C 51.6777,38.8662 54.8444,43.8662 58.5,48.5C 53.5,48.5 48.5,48.5 43.5,48.5C 43.0774,45.353 42.7441,42.1864 42.5,39C 42.6582,36.5505 43.3248,34.3838 44.5,32.5 Z"/></g>
<g><path style="opacity:1" fill="#fbf7f9" d="M 33.5,56.5 C 30.7938,56.4249 28.1272,56.0916 25.5,55.5C 25.5,58.8333 25.5,62.1667 25.5,65.5C 25.5,67.1667 25.5,68.8333 25.5,70.5C 25.7167,74.7051 26.3833,78.7051 27.5,82.5C 27.7424,86.479 28.7424,90.1456 30.5,93.5C 35.8247,109.824 46.158,121.824 61.5,129.5C 64.7512,131.957 68.4179,133.624 72.5,134.5C 74.5233,135.521 76.5233,135.188 78.5,133.5C 80.153,133.34 81.4863,132.674 82.5,131.5C 84.5529,131.598 86.2196,130.931 87.5,129.5C 88.391,128.89 89.391,128.557 90.5,128.5C 92.2503,129.659 93.2503,131.326 93.5,133.5C 93.1667,134.167 92.8333,134.833 92.5,135.5C 89.5152,136.326 86.8485,137.659 84.5,139.5C 80.851,139.954 77.351,140.954 74,142.5C 72.1997,141.68 70.3664,141.014 68.5,140.5C 47.674,133.008 33.0073,119.008 24.5,98.5C 23.1625,94.1551 21.8292,89.8218 20.5,85.5C 19.1834,80.2632 18.5167,74.9299 18.5,69.5C 18.5,64.5 18.5,59.5 18.5,54.5C 15.2784,54.8919 12.2784,54.3919 9.5,53C 10.7101,51.9609 11.7101,50.7942 12.5,49.5C 16.1667,46.5 19.5,43.1667 22.5,39.5C 23.5754,38.4376 24.5754,38.4376 25.5,39.5C 28.4513,45.0677 31.118,50.7343 33.5,56.5 Z"/></g>
<g><path style="opacity:1" fill="#c27273" d="M 15.5,33.5 C 17.5136,35.845 19.847,37.845 22.5,39.5C 19.5,43.1667 16.1667,46.5 12.5,49.5C 11.1667,48.1667 9.83333,46.8333 8.5,45.5C 10.332,41.1638 12.6654,37.1638 15.5,33.5 Z"/></g>
<g><path style="opacity:1" fill="#fce5ca" d="M 42.5,48.5 C 42.8333,48.5 43.1667,48.5 43.5,48.5C 48.5,48.5 53.5,48.5 58.5,48.5C 61.8333,48.5 65.1667,48.5 68.5,48.5C 72.5,48.5 76.5,48.5 80.5,48.5C 82.8333,48.5 85.1667,48.5 87.5,48.5C 87.2627,49.791 87.596,50.791 88.5,51.5C 88.2172,52.2891 87.7172,52.9558 87,53.5C 86.51,52.2068 86.3433,50.8734 86.5,49.5C 70.5,49.5 54.5,49.5 38.5,49.5C 38.7678,51.099 38.4345,52.4324 37.5,53.5C 37.5,51.8333 37.5,50.1667 37.5,48.5C 39.1667,48.5 40.8333,48.5 42.5,48.5 Z"/></g>
<g><path style="opacity:1" fill="#b3678c" d="M 8.5,45.5 C 9.83333,46.8333 11.1667,48.1667 12.5,49.5C 11.7101,50.7942 10.7101,51.9609 9.5,53C 12.2784,54.3919 15.2784,54.8919 18.5,54.5C 18.5,59.5 18.5,64.5 18.5,69.5C 15.5314,66.3581 12.698,63.0247 10,59.5C 8.54905,57.5359 6.71572,56.2026 4.5,55.5C 5.32079,51.8733 6.65412,48.54 8.5,45.5 Z"/></g>
<g><path style="opacity:1" fill="#fefbf8" d="M 97.5,48.5 C 104.822,48.1725 109.155,51.5058 110.5,58.5C 108.167,58.5 105.833,58.5 103.5,58.5C 102.967,55.4752 101.133,54.1419 98,54.5C 94.2332,54.2656 92.5665,55.9323 93,59.5C 97.638,62.3792 102.471,64.8792 107.5,67C 110.029,69.6417 111.029,72.8084 110.5,76.5C 110.089,80.0791 108.089,82.2458 104.5,83C 101.518,83.498 98.5184,83.6646 95.5,83.5C 89.7032,83.0314 86.0365,80.0314 84.5,74.5C 86.2789,72.6565 88.6122,71.9898 91.5,72.5C 91.8921,76.3912 94.0587,78.3912 98,78.5C 102.256,78.5814 103.923,76.5814 103,72.5C 97.5367,69.7674 92.2034,66.7674 87,63.5C 85.7114,60.6492 85.2114,57.6492 85.5,54.5C 82.5,54.5 79.5,54.5 76.5,54.5C 76.5,58.8333 76.5,63.1667 76.5,67.5C 76.5,69.8333 76.5,72.1667 76.5,74.5C 76.5,77.5 76.5,80.5 76.5,83.5C 74.1667,83.5 71.8333,83.5 69.5,83.5C 69.5,73.8333 69.5,64.1667 69.5,54.5C 65.8333,54.5 62.1667,54.5 58.5,54.5C 53.8333,54.5 49.1667,54.5 44.5,54.5C 44.5,57.1667 44.5,59.8333 44.5,62.5C 49.1667,62.5 53.8333,62.5 58.5,62.5C 58.5,64.5 58.5,66.5 58.5,68.5C 55.1667,68.5 51.8333,68.5 48.5,68.5C 47.5,68.5 46.5,68.5 45.5,68.5C 45.5,71.5 45.5,74.5 45.5,77.5C 47.8333,77.5 50.1667,77.5 52.5,77.5C 54.9479,78.4731 57.6146,78.8064 60.5,78.5C 60.5,80.1667 60.5,81.8333 60.5,83.5C 59.5,83.5 58.5,83.5 57.5,83.5C 54.1667,83.5 50.8333,83.5 47.5,83.5C 45.5,83.5 43.5,83.5 41.5,83.5C 40.1667,83.5 38.8333,83.5 37.5,83.5C 37.5,81.8333 37.5,80.1667 37.5,78.5C 37.5,73.1667 37.5,67.8333 37.5,62.5C 37.5,59.5 37.5,56.5 37.5,53.5C 38.4345,52.4324 38.7678,51.099 38.5,49.5C 54.5,49.5 70.5,49.5 86.5,49.5C 86.3433,50.8734 86.51,52.2068 87,53.5C 87.7172,52.9558 88.2172,52.2891 88.5,51.5C 90.9966,49.1289 93.9966,48.1289 97.5,48.5 Z"/></g>
<g><path style="opacity:1" fill="#f9ddbc" d="M 141.5,40.5 C 144.668,45.6668 146.668,51.3335 147.5,57.5C 141.762,57.3767 136.096,56.71 130.5,55.5C 130.5,59.8333 130.5,64.1667 130.5,68.5C 130.806,71.3854 130.473,74.0521 129.5,76.5C 129.5,69.1667 129.5,61.8333 129.5,54.5C 130.485,50.3656 130.818,46.0323 130.5,41.5C 134.167,42.1667 137.833,42.8333 141.5,43.5C 141.5,42.5 141.5,41.5 141.5,40.5 Z"/></g>
<g><path style="opacity:1" fill="#f8ac52" d="M 58.5,54.5 C 62.1667,54.5 65.8333,54.5 69.5,54.5C 69.5,64.1667 69.5,73.8333 69.5,83.5C 68.6724,77.6807 68.1724,71.6807 68,65.5C 64.2499,62.2562 61.0832,58.5895 58.5,54.5 Z"/></g>
<g><path style="opacity:1" fill="#fec785" d="M 103.5,58.5 C 105.948,59.4731 108.615,59.8064 111.5,59.5C 111.343,58.1266 111.51,56.7932 112,55.5C 115.311,57.0821 118.811,58.0821 122.5,58.5C 122.5,64.5 122.5,70.5 122.5,76.5C 118.936,76.3124 115.603,75.3124 112.5,73.5C 111.824,74.6016 111.158,75.6016 110.5,76.5C 111.029,72.8084 110.029,69.6417 107.5,67C 102.471,64.8792 97.638,62.3792 93,59.5C 92.5665,55.9323 94.2332,54.2656 98,54.5C 101.133,54.1419 102.967,55.4752 103.5,58.5 Z"/></g>
<g><path style="opacity:1" fill="#fab35d" d="M 84.5,74.5 C 82.4768,71.4797 79.8102,69.1464 76.5,67.5C 76.5,63.1667 76.5,58.8333 76.5,54.5C 79.5,54.5 82.5,54.5 85.5,54.5C 85.2114,57.6492 85.7114,60.6492 87,63.5C 92.2034,66.7674 97.5367,69.7674 103,72.5C 103.923,76.5814 102.256,78.5814 98,78.5C 94.0587,78.3912 91.8921,76.3912 91.5,72.5C 88.6122,71.9898 86.2789,72.6565 84.5,74.5 Z"/></g>
<g><path style="opacity:0.988" fill="#fcd09a" d="M 147.5,57.5 C 148.167,59.1667 148.833,60.8333 149.5,62.5C 149.5,65.1667 149.5,67.8333 149.5,70.5C 143.242,69.5608 136.909,68.8942 130.5,68.5C 130.5,64.1667 130.5,59.8333 130.5,55.5C 136.096,56.71 141.762,57.3767 147.5,57.5 Z"/></g>
<g><path style="opacity:0.998" fill="#f09123" d="M 33.5,11.5 C 33.5394,12.5832 33.8728,13.5832 34.5,14.5C 32.79,15.8872 31.1233,17.2206 29.5,18.5C 26.9401,20.2733 24.6068,22.2733 22.5,24.5C 19.8154,27.1897 17.4821,30.1897 15.5,33.5C 12.6654,37.1638 10.332,41.1638 8.5,45.5C 6.65412,48.54 5.32079,51.8733 4.5,55.5C 3.51779,58.7635 2.85112,62.0968 2.5,65.5C 2.5,68.5 2.5,71.5 2.5,74.5C 2.5,76.8333 2.5,79.1667 2.5,81.5C 2.87036,86.422 3.87036,91.0886 5.5,95.5C 10.2801,111.893 19.6134,125.06 33.5,135C 36.9099,137.372 40.5766,139.205 44.5,140.5C 47.3695,142.794 50.7029,144.128 54.5,144.5C 60.8138,146.93 67.4804,147.93 74.5,147.5C 79.547,147.663 84.547,147.329 89.5,146.5C 92.7458,145.946 95.7458,144.946 98.5,143.5C 102.466,142.956 106.133,141.623 109.5,139.5C 112.709,137.735 115.709,135.735 118.5,133.5C 123.924,131.73 124.758,128.73 121,124.5C 117.604,121.607 114.771,118.274 112.5,114.5C 108.435,113.683 104.435,112.683 100.5,111.5C 94.0684,109.452 87.7351,107.118 81.5,104.5C 75.0269,100.089 68.6935,95.4226 62.5,90.5C 60.4453,88.4451 58.7787,86.1117 57.5,83.5C 58.5,83.5 59.5,83.5 60.5,83.5C 61.4614,81.7354 61.7947,79.7354 61.5,77.5C 58.5,77.5 55.5,77.5 52.5,77.5C 50.8946,74.6223 49.5612,71.6223 48.5,68.5C 51.8333,68.5 55.1667,68.5 58.5,68.5C 58.5,66.5 58.5,64.5 58.5,62.5C 53.8333,62.5 49.1667,62.5 44.5,62.5C 44.5,59.8333 44.5,57.1667 44.5,54.5C 49.1667,54.5 53.8333,54.5 58.5,54.5C 61.0832,58.5895 64.2499,62.2562 68,65.5C 68.1724,71.6807 68.6724,77.6807 69.5,83.5C 71.8333,83.5 74.1667,83.5 76.5,83.5C 76.5,80.5 76.5,77.5 76.5,74.5C 87.5447,83.1898 99.878,89.5232 113.5,93.5C 114.366,97.9595 115.699,102.293 117.5,106.5C 122.194,103.821 126.861,101.155 131.5,98.5C 136.214,98.3531 140.881,98.6864 145.5,99.5C 134.971,127.035 115.304,143.702 86.5,149.5C 78.5,149.5 70.5,149.5 62.5,149.5C 28.5,141.5 7.5,120.5 -0.5,86.5C -0.5,78.5 -0.5,70.5 -0.5,62.5C 3.62896,40.7031 14.9623,23.7031 33.5,11.5 Z"/></g>
<g><path style="opacity:1" fill="#ca7561" d="M 48.5,68.5 C 49.5612,71.6223 50.8946,74.6223 52.5,77.5C 50.1667,77.5 47.8333,77.5 45.5,77.5C 45.5,74.5 45.5,71.5 45.5,68.5C 46.5,68.5 47.5,68.5 48.5,68.5 Z"/></g>
<g><path style="opacity:1" fill="#be6e76" d="M 33.5,56.5 C 34.4486,58.7772 35.7819,60.7772 37.5,62.5C 37.5,67.8333 37.5,73.1667 37.5,78.5C 33.5,74.1667 29.5,69.8333 25.5,65.5C 25.5,62.1667 25.5,58.8333 25.5,55.5C 28.1272,56.0916 30.7938,56.4249 33.5,56.5 Z"/></g>
<g><path style="opacity:1" fill="#a85f9f" d="M 4.5,55.5 C 6.71572,56.2026 8.54905,57.5359 10,59.5C 12.698,63.0247 15.5314,66.3581 18.5,69.5C 18.5167,74.9299 19.1834,80.2632 20.5,85.5C 15.5121,78.2417 10.0121,71.2417 4,64.5C 3.61742,65.056 3.11742,65.3893 2.5,65.5C 2.85112,62.0968 3.51779,58.7635 4.5,55.5 Z"/></g>
<g><path style="opacity:1" fill="#9d59b6" d="M 20.5,85.5 C 21.8292,89.8218 23.1625,94.1551 24.5,98.5C 22.9826,98.4894 21.8159,97.8228 21,96.5C 14.9688,88.9759 8.80213,81.6426 2.5,74.5C 2.5,71.5 2.5,68.5 2.5,65.5C 3.11742,65.3893 3.61742,65.056 4,64.5C 10.0121,71.2417 15.5121,78.2417 20.5,85.5 Z"/></g>
<g><path style="opacity:1" fill="#fbcf9a" d="M 52.5,77.5 C 55.5,77.5 58.5,77.5 61.5,77.5C 61.7947,79.7354 61.4614,81.7354 60.5,83.5C 60.5,81.8333 60.5,80.1667 60.5,78.5C 57.6146,78.8064 54.9479,78.4731 52.5,77.5 Z"/></g>
<g><path style="opacity:1" fill="#9856c0" d="M 2.5,74.5 C 8.80213,81.6426 14.9688,88.9759 21,96.5C 21.8159,97.8228 22.9826,98.4894 24.5,98.5C 33.0073,119.008 47.674,133.008 68.5,140.5C 70.448,142.789 72.448,145.122 74.5,147.5C 67.4804,147.93 60.8138,146.93 54.5,144.5C 55.2389,144.631 55.9056,144.464 56.5,144C 38.2614,123.269 20.2614,102.436 2.5,81.5C 2.5,79.1667 2.5,76.8333 2.5,74.5 Z"/></g>
<g><path style="opacity:1" fill="#fdbf74" d="M 130.5,68.5 C 136.909,68.8942 143.242,69.5608 149.5,70.5C 149.5,75.1667 149.5,79.8333 149.5,84.5C 142.837,85.5047 136.171,85.1714 129.5,83.5C 129.737,84.791 129.404,85.791 128.5,86.5C 129.051,83.1933 129.384,79.8599 129.5,76.5C 130.473,74.0521 130.806,71.3854 130.5,68.5 Z"/></g>
<g><path style="opacity:1" fill="#fab35e" d="M 122.5,76.5 C 122.5,76.8333 122.5,77.1667 122.5,77.5C 122.348,81.7723 121.348,85.7723 119.5,89.5C 117.201,88.3649 115.034,87.0316 113,85.5C 112.517,86.448 112.351,87.448 112.5,88.5C 111.691,87.5313 110.691,86.6979 109.5,86C 104.664,85.3196 99.9973,84.4862 95.5,83.5C 98.5184,83.6646 101.518,83.498 104.5,83C 108.089,82.2458 110.089,80.0791 110.5,76.5C 111.158,75.6016 111.824,74.6016 112.5,73.5C 115.603,75.3124 118.936,76.3124 122.5,76.5 Z"/></g>
<g><path style="opacity:1" fill="#b66885" d="M 25.5,65.5 C 29.5,69.8333 33.5,74.1667 37.5,78.5C 37.5,80.1667 37.5,81.8333 37.5,83.5C 38.8333,83.5 40.1667,83.5 41.5,83.5C 54.7029,99.9123 68.3695,115.912 82.5,131.5C 81.4863,132.674 80.153,133.34 78.5,133.5C 60.5853,112.645 42.9186,91.6453 25.5,70.5C 25.5,68.8333 25.5,67.1667 25.5,65.5 Z"/></g>
<g><path style="opacity:1" fill="#bc6d7a" d="M 41.5,83.5 C 43.5,83.5 45.5,83.5 47.5,83.5C 60.3712,99.2478 73.7046,114.581 87.5,129.5C 86.2196,130.931 84.5529,131.598 82.5,131.5C 68.3695,115.912 54.7029,99.9123 41.5,83.5 Z"/></g>
<g><path style="opacity:1" fill="#c3716d" d="M 47.5,83.5 C 50.8333,83.5 54.1667,83.5 57.5,83.5C 58.7787,86.1117 60.4453,88.4451 62.5,90.5C 71.8243,102.819 81.4909,114.819 91.5,126.5C 91.1667,127.167 90.8333,127.833 90.5,128.5C 89.391,128.557 88.391,128.89 87.5,129.5C 73.7046,114.581 60.3712,99.2478 47.5,83.5 Z"/></g>
<g><path style="opacity:1" fill="#f6a441" d="M 76.5,67.5 C 79.8102,69.1464 82.4768,71.4797 84.5,74.5C 86.0365,80.0314 89.7032,83.0314 95.5,83.5C 99.9973,84.4862 104.664,85.3196 109.5,86C 110.691,86.6979 111.691,87.5313 112.5,88.5C 113.038,90.1172 113.371,91.7839 113.5,93.5C 99.878,89.5232 87.5447,83.1898 76.5,74.5C 76.5,72.1667 76.5,69.8333 76.5,67.5 Z"/></g>
<g><path style="opacity:1" fill="#8e4ecf" d="M 2.5,81.5 C 20.2614,102.436 38.2614,123.269 56.5,144C 55.9056,144.464 55.2389,144.631 54.5,144.5C 50.7029,144.128 47.3695,142.794 44.5,140.5C 44.9382,140.565 45.2716,140.399 45.5,140C 32.2147,124.593 19.048,109.093 6,93.5C 5.53566,94.0944 5.36899,94.7611 5.5,95.5C 3.87036,91.0886 2.87036,86.422 2.5,81.5 Z"/></g>
<g><path style="opacity:1" fill="#a9609e" d="M 72.5,134.5 C 68.4179,133.624 64.7512,131.957 61.5,129.5C 51.9022,117.393 42.0689,105.393 32,93.5C 31.31,92.2617 30.81,92.2617 30.5,93.5C 28.7424,90.1456 27.7424,86.479 27.5,82.5C 27.4346,82.0618 27.6012,81.7284 28,81.5C 43.325,98.8584 58.1584,116.525 72.5,134.5 Z"/></g>
<g><path style="opacity:1" fill="#f8ab4f" d="M 149.5,84.5 C 149.5,85.1667 149.5,85.8333 149.5,86.5C 148.339,90.7914 147.006,95.1247 145.5,99.5C 140.881,98.6864 136.214,98.3531 131.5,98.5C 132.429,97.6851 133.429,96.8518 134.5,96C 131.865,94.8361 129.198,93.6694 126.5,92.5C 127.172,90.4705 127.838,88.4705 128.5,86.5C 129.404,85.791 129.737,84.791 129.5,83.5C 136.171,85.1714 142.837,85.5047 149.5,84.5 Z"/></g>
<g><path style="opacity:1" fill="#a55faa" d="M 61.5,129.5 C 46.158,121.824 35.8247,109.824 30.5,93.5C 30.81,92.2617 31.31,92.2617 32,93.5C 42.0689,105.393 51.9022,117.393 61.5,129.5 Z"/></g>
<g><path style="opacity:1" fill="#cc775c" d="M 62.5,90.5 C 68.6935,95.4226 75.0269,100.089 81.5,104.5C 86.3907,110.99 91.724,116.99 97.5,122.5C 97.5,122.833 97.5,123.167 97.5,123.5C 95.4832,124.529 93.4832,125.529 91.5,126.5C 81.4909,114.819 71.8243,102.819 62.5,90.5 Z"/></g>
<g><path style="opacity:1" fill="#894ada" d="M 44.5,140.5 C 40.5766,139.205 36.9099,137.372 33.5,135C 19.6134,125.06 10.2801,111.893 5.5,95.5C 5.36899,94.7611 5.53566,94.0944 6,93.5C 19.048,109.093 32.2147,124.593 45.5,140C 45.2716,140.399 44.9382,140.565 44.5,140.5 Z"/></g>
<g><path style="opacity:1" fill="#d87f49" d="M 81.5,104.5 C 87.7351,107.118 94.0684,109.452 100.5,111.5C 101.878,113.875 103.878,115.541 106.5,116.5C 110.252,122.337 114.252,128.004 118.5,133.5C 115.709,135.735 112.709,137.735 109.5,139.5C 107.6,135.268 104.933,131.601 101.5,128.5C 106.373,125.661 106.707,122.328 102.5,118.5C 100.814,119.857 99.1477,121.19 97.5,122.5C 91.724,116.99 86.3907,110.99 81.5,104.5 Z"/></g>
<g><path style="opacity:1" fill="#e28534" d="M 100.5,111.5 C 104.435,112.683 108.435,113.683 112.5,114.5C 114.771,118.274 117.604,121.607 121,124.5C 124.758,128.73 123.924,131.73 118.5,133.5C 114.252,128.004 110.252,122.337 106.5,116.5C 103.878,115.541 101.878,113.875 100.5,111.5 Z"/></g>
<g><path style="opacity:1" fill="#af6491" d="M 25.5,70.5 C 42.9186,91.6453 60.5853,112.645 78.5,133.5C 76.5233,135.188 74.5233,135.521 72.5,134.5C 58.1584,116.525 43.325,98.8584 28,81.5C 27.6012,81.7284 27.4346,82.0618 27.5,82.5C 26.3833,78.7051 25.7167,74.7051 25.5,70.5 Z"/></g>
<g><path style="opacity:1" fill="#e0a282" d="M 101.5,128.5 C 101.167,128.5 100.833,128.5 100.5,128.5C 100.25,126.326 99.2503,124.659 97.5,123.5C 97.5,123.167 97.5,122.833 97.5,122.5C 99.1477,121.19 100.814,119.857 102.5,118.5C 106.707,122.328 106.373,125.661 101.5,128.5 Z"/></g>
<g><path style="opacity:1" fill="#e5bbb2" d="M 97.5,123.5 C 99.2503,124.659 100.25,126.326 100.5,128.5C 98.7036,130.9 96.3702,132.567 93.5,133.5C 93.2503,131.326 92.2503,129.659 90.5,128.5C 90.8333,127.833 91.1667,127.167 91.5,126.5C 93.4832,125.529 95.4832,124.529 97.5,123.5 Z"/></g>
<g><path style="opacity:1" fill="#c67369" d="M 100.5,128.5 C 100.833,128.5 101.167,128.5 101.5,128.5C 104.933,131.601 107.6,135.268 109.5,139.5C 106.133,141.623 102.466,142.956 98.5,143.5C 96.1223,141.122 94.1223,138.455 92.5,135.5C 92.8333,134.833 93.1667,134.167 93.5,133.5C 96.3702,132.567 98.7036,130.9 100.5,128.5 Z"/></g>
<g><path style="opacity:1" fill="#ba6b7f" d="M 92.5,135.5 C 94.1223,138.455 96.1223,141.122 98.5,143.5C 95.7458,144.946 92.7458,145.946 89.5,146.5C 87.5879,144.343 85.9213,142.009 84.5,139.5C 86.8485,137.659 89.5152,136.326 92.5,135.5 Z"/></g>
<g><path style="opacity:1" fill="#ac639d" d="M 84.5,139.5 C 85.9213,142.009 87.5879,144.343 89.5,146.5C 84.547,147.329 79.547,147.663 74.5,147.5C 72.448,145.122 70.448,142.789 68.5,140.5C 70.3664,141.014 72.1997,141.68 74,142.5C 77.351,140.954 80.851,139.954 84.5,139.5 Z"/></g>
</svg>
