<?xml version="1.0" encoding="UTF-8"?>
<!DOCTYPE svg PUBLIC "-//W3C//DTD SVG 1.1//EN" "http://www.w3.org/Graphics/SVG/1.1/DTD/svg11.dtd">
<svg xmlns="http://www.w3.org/2000/svg" version="1.1" width="150px" height="150px" style="shape-rendering:geometricPrecision; text-rendering:geometricPrecision; image-rendering:optimizeQuality; fill-rule:evenodd; clip-rule:evenodd" xmlns:xlink="http://www.w3.org/1999/xlink">
<g><path style="opacity:1" fill="#f7c5b3" d="M 62.5,0.5 C 62.5,0.166667 62.5,-0.166667 62.5,-0.5C 70.1667,-0.5 77.8333,-0.5 85.5,-0.5C 87.0257,6.3847 90.0257,12.5514 94.5,18C 93.9056,18.4643 93.2389,18.631 92.5,18.5C 86.2242,15.3961 80.0575,12.0628 74,8.5C 72.2196,9.63939 70.3863,10.6394 68.5,11.5C 67.9094,8.0601 66.9094,4.72677 65.5,1.5C 64.675,0.614324 63.675,0.28099 62.5,0.5 Z"/></g>
<g><path style="opacity:0.999" fill="#fbd3bf" d="M 85.5,-0.5 C 85.8333,-0.5 86.1667,-0.5 86.5,-0.5C 89.5349,0.37448 92.5349,1.37448 95.5,2.5C 94.9569,2.55999 94.6236,2.89333 94.5,3.5C 103.453,21.2805 117.62,32.6139 137,37.5C 138.03,37.1639 138.53,36.4972 138.5,35.5C 143.026,41.3835 146.026,48.0502 147.5,55.5C 142.147,54.7915 136.814,53.7915 131.5,52.5C 130.833,59.9891 130.167,67.3225 129.5,74.5C 129.832,62.4815 129.499,50.4815 128.5,38.5C 116.438,31.8055 104.438,25.1389 92.5,18.5C 93.2389,18.631 93.9056,18.4643 94.5,18C 90.0257,12.5514 87.0257,6.3847 85.5,-0.5 Z"/></g>
<g><path style="opacity:0.997" fill="#ebb1a1" d="M 62.5,0.5 C 63.675,0.28099 64.675,0.614324 65.5,1.5C 66.9094,4.72677 67.9094,8.0601 68.5,11.5C 67.7095,12.4013 66.7095,13.0679 65.5,13.5C 59.9916,16.7547 54.325,19.7547 48.5,22.5C 46.2285,17.8713 44.2285,13.0379 42.5,8C 43.2524,7.32924 43.5858,6.4959 43.5,5.5C 49.5513,2.81717 55.8846,1.15051 62.5,0.5 Z"/></g>
<g><path style="opacity:0.998" fill="#fddcc5" d="M 95.5,2.5 C 114.492,7.48904 128.826,18.489 138.5,35.5C 138.53,36.4972 138.03,37.1639 137,37.5C 117.62,32.6139 103.453,21.2805 94.5,3.5C 94.6236,2.89333 94.9569,2.55999 95.5,2.5 Z"/></g>
<g><path style="opacity:1" fill="#c4a896" d="M 43.5,5.5 C 43.5858,6.4959 43.2524,7.32924 42.5,8C 44.2285,13.0379 46.2285,17.8713 48.5,22.5C 48.461,25.089 49.461,27.089 51.5,28.5C 51.1961,29.1499 50.8627,29.8165 50.5,30.5C 53.6758,36.8616 57.3425,42.8616 61.5,48.5C 60.5,48.5 59.5,48.5 58.5,48.5C 53.5,48.5 48.5,48.5 43.5,48.5C 43.0375,43.8376 42.5375,39.1709 42,34.5C 40.8173,35.731 39.6507,35.731 38.5,34.5C 36.1945,32.0191 36.1945,29.6858 38.5,27.5C 36.0561,23.6084 34.0561,19.9417 32.5,16.5C 32.5,15.1667 32.5,13.8333 32.5,12.5C 35.622,9.43165 39.2886,7.09831 43.5,5.5 Z"/></g>
<g><path style="opacity:1" fill="#fefcfc" d="M 92.5,18.5 C 104.438,25.1389 116.438,31.8055 128.5,38.5C 129.499,50.4815 129.832,62.4815 129.5,74.5C 129.5,76.8333 129.5,79.1667 129.5,81.5C 128.708,85.211 127.708,88.8777 126.5,92.5C 129.19,93.5067 131.856,94.5067 134.5,95.5C 129.143,99.5006 123.476,103.167 117.5,106.5C 116.081,105.995 115.415,104.995 115.5,103.5C 115.634,101.708 115.301,100.042 114.5,98.5C 114.149,95.0968 113.482,91.7635 112.5,88.5C 112.351,87.448 112.517,86.448 113,85.5C 115.25,86.7079 117.417,88.0413 119.5,89.5C 121.101,86.6957 122.101,83.6957 122.5,80.5C 122.5,79.8333 122.5,79.1667 122.5,78.5C 123.824,66.9933 123.824,55.3266 122.5,43.5C 106.833,34.6667 91.1667,25.8333 75.5,17C 73.4652,16.4014 71.7985,16.9014 70.5,18.5C 69.609,19.1098 68.609,19.4431 67.5,19.5C 66.2702,17.7028 65.6036,15.7028 65.5,13.5C 66.7095,13.0679 67.7095,12.4013 68.5,11.5C 70.3863,10.6394 72.2196,9.63939 74,8.5C 80.0575,12.0628 86.2242,15.3961 92.5,18.5 Z"/></g>
<g><path style="opacity:1" fill="#f2b4a4" d="M 70.5,18.5 C 71.4959,18.4142 72.3292,18.7476 73,19.5C 75.6057,24.4352 78.6057,29.1019 82,33.5C 87.0854,38.416 91.9187,43.416 96.5,48.5C 93.4121,48.3773 90.7454,49.3773 88.5,51.5C 87.6143,50.675 87.281,49.675 87.5,48.5C 82.8333,48.5 78.1667,48.5 73.5,48.5C 67.2934,41.6255 62.2934,33.9588 58.5,25.5C 61.5,23.5 64.5,21.5 67.5,19.5C 68.609,19.4431 69.609,19.1098 70.5,18.5 Z"/></g>
<g><path style="opacity:1" fill="#f1d8d1" d="M 65.5,13.5 C 65.6036,15.7028 66.2702,17.7028 67.5,19.5C 64.5,21.5 61.5,23.5 58.5,25.5C 56.3131,26.758 53.9798,27.758 51.5,28.5C 49.461,27.089 48.461,25.089 48.5,22.5C 54.325,19.7547 59.9916,16.7547 65.5,13.5 Z"/></g>
<g><path style="opacity:1" fill="#f7c5b3" d="M 122.5,78.5 C 122.5,72.5 122.5,66.5 122.5,60.5C 118.668,60.0556 115.168,58.7223 112,56.5C 111.768,57.7375 111.268,58.7375 110.5,59.5C 109.487,51.5095 104.821,47.8428 96.5,48.5C 91.9187,43.416 87.0854,38.416 82,33.5C 78.6057,29.1019 75.6057,24.4352 73,19.5C 72.3292,18.7476 71.4959,18.4142 70.5,18.5C 71.7985,16.9014 73.4652,16.4014 75.5,17C 91.1667,25.8333 106.833,34.6667 122.5,43.5C 123.824,55.3266 123.824,66.9933 122.5,78.5 Z"/></g>
<g><path style="opacity:0.942" fill="#949a84" d="M 32.5,12.5 C 32.5,13.8333 32.5,15.1667 32.5,16.5C 29.1897,18.4821 26.1897,20.8154 23.5,23.5C 21.3674,25.0905 19.7007,27.0905 18.5,29.5C 16.1468,31.8599 14.1468,34.5265 12.5,37.5C 10.9752,39.2163 9.97516,41.2163 9.5,43.5C 7.32128,47.2025 5.65462,51.2025 4.5,55.5C 3.67448,59.1359 3.00781,62.8026 2.5,66.5C 1.13026,73.6869 1.46359,80.6869 3.5,87.5C 3.56513,90.4282 4.2318,93.0948 5.5,95.5C 9.62786,110.796 17.9612,123.296 30.5,133C 34.5615,136.029 38.8949,138.529 43.5,140.5C 46.54,142.346 49.8733,143.679 53.5,144.5C 59.1341,146.938 65.1341,147.938 71.5,147.5C 75.5,147.5 79.5,147.5 83.5,147.5C 85.861,147.326 88.1944,146.993 90.5,146.5C 94.5628,145.368 98.5628,144.035 102.5,142.5C 106.818,141.008 110.818,139.008 114.5,136.5C 117.843,134.816 120.51,132.483 122.5,129.5C 118.649,123.811 114.315,118.478 109.5,113.5C 112.787,114.161 116.12,114.661 119.5,115C 122.87,118.035 125.87,121.368 128.5,125C 127.177,125.816 126.511,126.983 126.5,128.5C 115.405,139.715 102.071,146.715 86.5,149.5C 78.5,149.5 70.5,149.5 62.5,149.5C 28.5,141.5 7.5,120.5 -0.5,86.5C -0.5,78.5 -0.5,70.5 -0.5,62.5C 3.49727,41.162 14.4973,24.4953 32.5,12.5 Z"/></g>
<g><path style="opacity:1" fill="#d8ab9b" d="M 58.5,25.5 C 62.2934,33.9588 67.2934,41.6255 73.5,48.5C 69.5,48.5 65.5,48.5 61.5,48.5C 57.3425,42.8616 53.6758,36.8616 50.5,30.5C 50.8627,29.8165 51.1961,29.1499 51.5,28.5C 53.9798,27.758 56.3131,26.758 58.5,25.5 Z"/></g>
<g><path style="opacity:1" fill="#af726c" d="M 18.5,29.5 C 21.5468,33.7118 25.3801,37.0452 30,39.5C 31.9789,43.3003 34.4789,46.6336 37.5,49.5C 37.5,53.8333 37.5,58.1667 37.5,62.5C 35.8333,60.1667 33.8333,58.1667 31.5,56.5C 32.3764,56.6309 33.0431,56.2975 33.5,55.5C 30.8333,50.1667 28.1667,44.8333 25.5,39.5C 24.9984,38.479 24.3317,38.3123 23.5,39C 21.9625,40.7073 20.2959,42.2073 18.5,43.5C 17.5,40.5 15.5,38.5 12.5,37.5C 14.1468,34.5265 16.1468,31.8599 18.5,29.5 Z"/></g>
<g><path style="opacity:1" fill="#b58f82" d="M 32.5,16.5 C 34.0561,19.9417 36.0561,23.6084 38.5,27.5C 36.1945,29.6858 36.1945,32.0191 38.5,34.5C 39.6507,35.731 40.8173,35.731 42,34.5C 42.5375,39.1709 43.0375,43.8376 43.5,48.5C 43.1667,48.5 42.8333,48.5 42.5,48.5C 40.6066,44.0847 38.4399,39.7514 36,35.5C 34.8989,33.6061 33.5655,32.9394 32,33.5C 30.079,29.4107 27.2457,26.0774 23.5,23.5C 26.1897,20.8154 29.1897,18.4821 32.5,16.5 Z"/></g>
<g><path style="opacity:1" fill="#ae7d73" d="M 23.5,23.5 C 27.2457,26.0774 30.079,29.4107 32,33.5C 33.5655,32.9394 34.8989,33.6061 36,35.5C 38.4399,39.7514 40.6066,44.0847 42.5,48.5C 40.5853,48.2155 38.9187,48.5489 37.5,49.5C 34.4789,46.6336 31.9789,43.3003 30,39.5C 25.3801,37.0452 21.5468,33.7118 18.5,29.5C 19.7007,27.0905 21.3674,25.0905 23.5,23.5 Z"/></g>
<g><path style="opacity:1" fill="#fdf7f7" d="M 31.5,56.5 C 29.5,56.1667 27.5,55.8333 25.5,55.5C 25.176,62.3543 25.5093,69.021 26.5,75.5C 26.1984,78.0593 26.5318,80.3926 27.5,82.5C 32.5254,108.522 47.5254,125.855 72.5,134.5C 74.5233,135.521 76.5233,135.188 78.5,133.5C 79.1667,133.5 79.8333,133.5 80.5,133.5C 83.4701,133.746 84.8034,135.412 84.5,138.5C 83.8333,138.5 83.5,138.833 83.5,139.5C 81.597,139.796 79.9303,140.463 78.5,141.5C 76.9397,141.519 75.4397,141.852 74,142.5C 71.6813,141.129 69.1813,140.462 66.5,140.5C 42.5092,129.58 27.1759,111.247 20.5,85.5C 19.274,79.9152 18.6073,74.2485 18.5,68.5C 18.5,63.8333 18.5,59.1667 18.5,54.5C 15.4281,54.8174 12.4281,54.4841 9.5,53.5C 10.8569,51.8144 12.1902,50.1477 13.5,48.5C 15.5,47.1667 17.1667,45.5 18.5,43.5C 20.2959,42.2073 21.9625,40.7073 23.5,39C 24.3317,38.3123 24.9984,38.479 25.5,39.5C 28.1667,44.8333 30.8333,50.1667 33.5,55.5C 33.0431,56.2975 32.3764,56.6309 31.5,56.5 Z"/></g>
<g><path style="opacity:1" fill="#b85f5f" d="M 12.5,37.5 C 15.5,38.5 17.5,40.5 18.5,43.5C 17.1667,45.5 15.5,47.1667 13.5,48.5C 12.1363,46.8089 10.803,45.1423 9.5,43.5C 9.97516,41.2163 10.9752,39.2163 12.5,37.5 Z"/></g>
<g><path style="opacity:1" fill="#fdfcfb" d="M 58.5,48.5 C 59.5,48.5 60.5,48.5 61.5,48.5C 65.5,48.5 69.5,48.5 73.5,48.5C 78.1667,48.5 82.8333,48.5 87.5,48.5C 87.281,49.675 87.6143,50.675 88.5,51.5C 90.7454,49.3773 93.4121,48.3773 96.5,48.5C 104.821,47.8428 109.487,51.5095 110.5,59.5C 108.167,59.5 105.833,59.5 103.5,59.5C 103.436,55.9376 101.603,54.2709 98,54.5C 94.2332,54.2656 92.5665,55.9323 93,59.5C 97.638,62.3792 102.471,64.8792 107.5,67C 109.16,68.4877 110.16,70.321 110.5,72.5C 111.045,77.9619 108.712,81.6286 103.5,83.5C 95.3946,85.3452 89.0613,83.0118 84.5,76.5C 84.5,75.1667 84.5,73.8333 84.5,72.5C 86.8333,72.5 89.1667,72.5 91.5,72.5C 93.0637,78.5666 96.7304,80.0666 102.5,77C 103.76,75.1862 103.76,73.3529 102.5,71.5C 96.9725,69.4866 91.8059,66.8199 87,63.5C 85.8512,60.6074 85.3512,57.6074 85.5,54.5C 82.5,54.5 79.5,54.5 76.5,54.5C 76.5,60.1667 76.5,65.8333 76.5,71.5C 76.5,73.5 76.5,75.5 76.5,77.5C 76.5,79.5 76.5,81.5 76.5,83.5C 75.5,83.5 74.5,83.5 73.5,83.5C 72.1667,83.5 70.8333,83.5 69.5,83.5C 69.5,73.8333 69.5,64.1667 69.5,54.5C 61.1667,54.5 52.8333,54.5 44.5,54.5C 44.5,57.5 44.5,60.5 44.5,63.5C 49.1667,63.5 53.8333,63.5 58.5,63.5C 58.5,65.1667 58.5,66.8333 58.5,68.5C 55.1667,68.5 51.8333,68.5 48.5,68.5C 47.5,68.5 46.5,68.5 45.5,68.5C 44.5206,71.6248 44.1872,74.9581 44.5,78.5C 49.8333,78.5 55.1667,78.5 60.5,78.5C 60.5,80.1667 60.5,81.8333 60.5,83.5C 59.5,83.5 58.5,83.5 57.5,83.5C 56.1667,83.5 54.8333,83.5 53.5,83.5C 52.1667,83.5 50.8333,83.5 49.5,83.5C 47.8333,83.5 46.1667,83.5 44.5,83.5C 42.5,83.5 40.5,83.5 38.5,83.5C 38.5,72.1667 38.5,60.8333 38.5,49.5C 45.3543,49.824 52.021,49.4907 58.5,48.5 Z"/></g>
<g><path style="opacity:1" fill="#c24c52" d="M 9.5,43.5 C 10.803,45.1423 12.1363,46.8089 13.5,48.5C 12.1902,50.1477 10.8569,51.8144 9.5,53.5C 12.4281,54.4841 15.4281,54.8174 18.5,54.5C 18.5,59.1667 18.5,63.8333 18.5,68.5C 14.1988,64.0277 10.0321,59.3611 6,54.5C 5.61742,55.056 5.11742,55.3893 4.5,55.5C 5.65462,51.2025 7.32128,47.2025 9.5,43.5 Z"/></g>
<g><path style="opacity:1" fill="#ead9d7" d="M 42.5,48.5 C 42.8333,48.5 43.1667,48.5 43.5,48.5C 48.5,48.5 53.5,48.5 58.5,48.5C 52.021,49.4907 45.3543,49.824 38.5,49.5C 38.5,60.8333 38.5,72.1667 38.5,83.5C 37.5088,76.6866 37.1755,69.6866 37.5,62.5C 37.5,58.1667 37.5,53.8333 37.5,49.5C 38.9187,48.5489 40.5853,48.2155 42.5,48.5 Z"/></g>
<g><path style="opacity:1" fill="#f0b3a4" d="M 110.5,59.5 C 111.268,58.7375 111.768,57.7375 112,56.5C 115.168,58.7223 118.668,60.0556 122.5,60.5C 122.5,66.5 122.5,72.5 122.5,78.5C 122.5,79.1667 122.5,79.8333 122.5,80.5C 119.233,79.2437 115.899,78.077 112.5,77C 111.901,75.3775 111.234,73.8775 110.5,72.5C 110.16,70.321 109.16,68.4877 107.5,67C 102.471,64.8792 97.638,62.3792 93,59.5C 92.5665,55.9323 94.2332,54.2656 98,54.5C 101.603,54.2709 103.436,55.9376 103.5,59.5C 105.833,59.5 108.167,59.5 110.5,59.5 Z"/></g>
<g><path style="opacity:1" fill="#d5ab9b" d="M 84.5,76.5 C 81.8333,74.8333 79.1667,73.1667 76.5,71.5C 76.5,65.8333 76.5,60.1667 76.5,54.5C 79.5,54.5 82.5,54.5 85.5,54.5C 85.3512,57.6074 85.8512,60.6074 87,63.5C 91.8059,66.8199 96.9725,69.4866 102.5,71.5C 103.76,73.3529 103.76,75.1862 102.5,77C 96.7304,80.0666 93.0637,78.5666 91.5,72.5C 89.1667,72.5 86.8333,72.5 84.5,72.5C 84.5,73.8333 84.5,75.1667 84.5,76.5 Z"/></g>
<g><path style="opacity:1" fill="#cf3946" d="M 18.5,68.5 C 18.6073,74.2485 19.274,79.9152 20.5,85.5C 19.5041,85.5858 18.6708,85.2524 18,84.5C 13.3424,78.0129 8.17572,72.0129 2.5,66.5C 3.00781,62.8026 3.67448,59.1359 4.5,55.5C 5.11742,55.3893 5.61742,55.056 6,54.5C 10.0321,59.3611 14.1988,64.0277 18.5,68.5 Z"/></g>
<g><path style="opacity:1" fill="#b9ac9a" d="M 69.5,83.5 C 68.8337,79.9792 68.1671,76.3125 67.5,72.5C 64.1185,69.7852 61.1185,66.7852 58.5,63.5C 53.8333,63.5 49.1667,63.5 44.5,63.5C 44.5,60.5 44.5,57.5 44.5,54.5C 52.8333,54.5 61.1667,54.5 69.5,54.5C 69.5,64.1667 69.5,73.8333 69.5,83.5 Z"/></g>
<g><path style="opacity:1" fill="#af6964" d="M 45.5,68.5 C 46.5,68.5 47.5,68.5 48.5,68.5C 49.5612,71.6223 50.8946,74.6223 52.5,77.5C 50.1667,77.5 47.8333,77.5 45.5,77.5C 45.5,74.5 45.5,71.5 45.5,68.5 Z"/></g>
<g><path style="opacity:1" fill="#c54850" d="M 78.5,133.5 C 76.5233,135.188 74.5233,135.521 72.5,134.5C 72.9382,134.565 73.2716,134.399 73.5,134C 58.3333,116.167 43.1667,98.3333 28,80.5C 27.5357,81.0944 27.369,81.7611 27.5,82.5C 26.5318,80.3926 26.1984,78.0593 26.5,75.5C 26.3505,74.448 26.5172,73.448 27,72.5C 44.0018,92.9993 61.1684,113.333 78.5,133.5 Z"/></g>
<g><path style="opacity:1" fill="#bca895" d="M 76.5,71.5 C 79.1667,73.1667 81.8333,74.8333 84.5,76.5C 89.0613,83.0118 95.3946,85.3452 103.5,83.5C 106.602,84.9788 109.602,86.6455 112.5,88.5C 113.482,91.7635 114.149,95.0968 114.5,98.5C 113.596,97.791 113.263,96.791 113.5,95.5C 99.9945,91.7834 87.6612,85.7834 76.5,77.5C 76.5,75.5 76.5,73.5 76.5,71.5 Z"/></g>
<g><path style="opacity:1" fill="#da2c3c" d="M 2.5,66.5 C 8.17572,72.0129 13.3424,78.0129 18,84.5C 18.6708,85.2524 19.5041,85.5858 20.5,85.5C 27.1759,111.247 42.5092,129.58 66.5,140.5C 67.9213,143.009 69.5879,145.343 71.5,147.5C 65.1341,147.938 59.1341,146.938 53.5,144.5C 55.0281,144.483 55.5281,143.816 55,142.5C 38.3242,122.993 21.4908,103.66 4.5,84.5C 3.61432,85.325 3.28099,86.325 3.5,87.5C 1.46359,80.6869 1.13026,73.6869 2.5,66.5 Z"/></g>
<g><path style="opacity:1" fill="#d6c9c2" d="M 45.5,68.5 C 45.5,71.5 45.5,74.5 45.5,77.5C 47.8333,77.5 50.1667,77.5 52.5,77.5C 55.5,77.5 58.5,77.5 61.5,77.5C 61.5,78.5 61.5,79.5 61.5,80.5C 61.7373,81.791 61.404,82.791 60.5,83.5C 60.5,81.8333 60.5,80.1667 60.5,78.5C 55.1667,78.5 49.8333,78.5 44.5,78.5C 44.1872,74.9581 44.5206,71.6248 45.5,68.5 Z"/></g>
<g><path style="opacity:1" fill="#9fa18b" d="M 58.5,63.5 C 61.1185,66.7852 64.1185,69.7852 67.5,72.5C 68.1671,76.3125 68.8337,79.9792 69.5,83.5C 70.8333,83.5 72.1667,83.5 73.5,83.5C 86.1348,92.8155 100.135,99.4821 115.5,103.5C 115.415,104.995 116.081,105.995 117.5,106.5C 123.476,103.167 129.143,99.5006 134.5,95.5C 138.582,95.8918 142.582,96.5584 146.5,97.5C 144.952,102.926 142.619,107.926 139.5,112.5C 110.269,110.297 84.269,99.6302 61.5,80.5C 61.5,79.5 61.5,78.5 61.5,77.5C 58.5,77.5 55.5,77.5 52.5,77.5C 50.8946,74.6223 49.5612,71.6223 48.5,68.5C 51.8333,68.5 55.1667,68.5 58.5,68.5C 58.5,66.8333 58.5,65.1667 58.5,63.5 Z"/></g>
<g><path style="opacity:0.988" fill="#eeb4a4" d="M 147.5,55.5 C 147.927,58.0098 148.593,60.3432 149.5,62.5C 149.5,69.5 149.5,76.5 149.5,83.5C 142.689,83.7977 136.022,83.131 129.5,81.5C 129.5,79.1667 129.5,76.8333 129.5,74.5C 130.167,67.3225 130.833,59.9891 131.5,52.5C 136.814,53.7915 142.147,54.7915 147.5,55.5 Z"/></g>
<g><path style="opacity:1" fill="#aba38f" d="M 76.5,77.5 C 87.6612,85.7834 99.9945,91.7834 113.5,95.5C 113.263,96.791 113.596,97.791 114.5,98.5C 115.301,100.042 115.634,101.708 115.5,103.5C 100.135,99.4821 86.1348,92.8155 73.5,83.5C 74.5,83.5 75.5,83.5 76.5,83.5C 76.5,81.5 76.5,79.5 76.5,77.5 Z"/></g>
<g><path style="opacity:1" fill="#b95a5b" d="M 44.5,83.5 C 46.1667,83.5 47.8333,83.5 49.5,83.5C 62.5672,98.5612 75.2339,113.895 87.5,129.5C 86.4863,130.674 85.153,131.34 83.5,131.5C 70.5,115.5 57.5,99.5 44.5,83.5 Z"/></g>
<g><path style="opacity:1" fill="#b56160" d="M 49.5,83.5 C 50.8333,83.5 52.1667,83.5 53.5,83.5C 65.8333,98.1667 78.1667,112.833 90.5,127.5C 90.5,127.833 90.5,128.167 90.5,128.5C 89.391,128.557 88.391,128.89 87.5,129.5C 75.2339,113.895 62.5672,98.5612 49.5,83.5 Z"/></g>
<g><path style="opacity:0.997" fill="#8f9d86" d="M 61.5,80.5 C 84.269,99.6302 110.269,110.297 139.5,112.5C 136.593,118.973 132.26,124.306 126.5,128.5C 126.511,126.983 127.177,125.816 128.5,125C 125.87,121.368 122.87,118.035 119.5,115C 116.12,114.661 112.787,114.161 109.5,113.5C 103.792,112.323 98.1255,110.99 92.5,109.5C 86.2446,106.704 80.2446,103.371 74.5,99.5C 67.5471,95.5476 61.8805,90.2142 57.5,83.5C 58.5,83.5 59.5,83.5 60.5,83.5C 61.404,82.791 61.7373,81.791 61.5,80.5 Z"/></g>
<g><path style="opacity:1" fill="#d3ad9c" d="M 110.5,72.5 C 111.234,73.8775 111.901,75.3775 112.5,77C 115.899,78.077 119.233,79.2437 122.5,80.5C 122.101,83.6957 121.101,86.6957 119.5,89.5C 117.417,88.0413 115.25,86.7079 113,85.5C 112.517,86.448 112.351,87.448 112.5,88.5C 109.602,86.6455 106.602,84.9788 103.5,83.5C 108.712,81.6286 111.045,77.9619 110.5,72.5 Z"/></g>
<g><path style="opacity:1" fill="#cd3e49" d="M 72.5,134.5 C 47.5254,125.855 32.5254,108.522 27.5,82.5C 27.369,81.7611 27.5357,81.0944 28,80.5C 43.1667,98.3333 58.3333,116.167 73.5,134C 73.2716,134.399 72.9382,134.565 72.5,134.5 Z"/></g>
<g><path style="opacity:1" fill="#b06864" d="M 53.5,83.5 C 54.8333,83.5 56.1667,83.5 57.5,83.5C 61.8805,90.2142 67.5471,95.5476 74.5,99.5C 80.9179,107.985 87.5846,116.319 94.5,124.5C 93.5637,125.974 92.2303,126.974 90.5,127.5C 78.1667,112.833 65.8333,98.1667 53.5,83.5 Z"/></g>
<g><path style="opacity:1" fill="#ceaa99" d="M 129.5,81.5 C 136.022,83.131 142.689,83.7977 149.5,83.5C 149.5,84.5 149.5,85.5 149.5,86.5C 148.368,90.019 147.368,93.6857 146.5,97.5C 142.582,96.5584 138.582,95.8918 134.5,95.5C 131.856,94.5067 129.19,93.5067 126.5,92.5C 127.708,88.8777 128.708,85.211 129.5,81.5 Z"/></g>
<g><path style="opacity:1" fill="#e8142c" d="M 43.5,140.5 C 38.8949,138.529 34.5615,136.029 30.5,133C 17.9612,123.296 9.62786,110.796 5.5,95.5C 5.43456,95.0618 5.60123,94.7284 6,94.5C 19.1667,109.667 32.3333,124.833 45.5,140C 44.9056,140.464 44.2389,140.631 43.5,140.5 Z"/></g>
<g><path style="opacity:1" fill="#be5356" d="M 31.5,56.5 C 33.8333,58.1667 35.8333,60.1667 37.5,62.5C 37.1755,69.6866 37.5088,76.6866 38.5,83.5C 40.5,83.5 42.5,83.5 44.5,83.5C 57.5,99.5 70.5,115.5 83.5,131.5C 82.5,132.167 81.5,132.833 80.5,133.5C 79.8333,133.5 79.1667,133.5 78.5,133.5C 61.1684,113.333 44.0018,92.9993 27,72.5C 26.5172,73.448 26.3505,74.448 26.5,75.5C 25.5093,69.021 25.176,62.3543 25.5,55.5C 27.5,55.8333 29.5,56.1667 31.5,56.5 Z"/></g>
<g><path style="opacity:1" fill="#a9746c" d="M 74.5,99.5 C 80.2446,103.371 86.2446,106.704 92.5,109.5C 95.6605,112.265 98.6605,115.265 101.5,118.5C 100.143,120.186 98.8098,121.852 97.5,123.5C 96.609,124.11 95.609,124.443 94.5,124.5C 87.5846,116.319 80.9179,107.985 74.5,99.5 Z"/></g>
<g><path style="opacity:1" fill="#e11a32" d="M 53.5,144.5 C 49.8733,143.679 46.54,142.346 43.5,140.5C 44.2389,140.631 44.9056,140.464 45.5,140C 32.3333,124.833 19.1667,109.667 6,94.5C 5.60123,94.7284 5.43456,95.0618 5.5,95.5C 4.2318,93.0948 3.56513,90.4282 3.5,87.5C 3.28099,86.325 3.61432,85.325 4.5,84.5C 21.4908,103.66 38.3242,122.993 55,142.5C 55.5281,143.816 55.0281,144.483 53.5,144.5 Z"/></g>
<g><path style="opacity:1" fill="#a38a7c" d="M 92.5,109.5 C 98.1255,110.99 103.792,112.323 109.5,113.5C 114.315,118.478 118.649,123.811 122.5,129.5C 120.51,132.483 117.843,134.816 114.5,136.5C 114.509,134.692 114.009,133.025 113,131.5C 110.65,129.317 108.483,126.984 106.5,124.5C 104.814,125.857 103.148,127.19 101.5,128.5C 100.855,126.174 99.522,124.507 97.5,123.5C 98.8098,121.852 100.143,120.186 101.5,118.5C 98.6605,115.265 95.6605,112.265 92.5,109.5 Z"/></g>
<g><path style="opacity:1" fill="#d9b5b3" d="M 97.5,123.5 C 99.522,124.507 100.855,126.174 101.5,128.5C 99.4602,130.177 97.4602,131.844 95.5,133.5C 95.1667,133.5 94.8333,133.5 94.5,133.5C 93.396,131.611 92.0627,129.945 90.5,128.5C 90.5,128.167 90.5,127.833 90.5,127.5C 92.2303,126.974 93.5637,125.974 94.5,124.5C 95.609,124.443 96.609,124.11 97.5,123.5 Z"/></g>
<g><path style="opacity:1" fill="#aa726b" d="M 114.5,136.5 C 110.818,139.008 106.818,141.008 102.5,142.5C 100.542,139.208 98.2085,136.208 95.5,133.5C 97.4602,131.844 99.4602,130.177 101.5,128.5C 103.148,127.19 104.814,125.857 106.5,124.5C 108.483,126.984 110.65,129.317 113,131.5C 114.009,133.025 114.509,134.692 114.5,136.5 Z"/></g>
<g><path style="opacity:1" fill="#efd8d6" d="M 90.5,128.5 C 92.0627,129.945 93.396,131.611 94.5,133.5C 91.4502,135.692 88.1168,137.358 84.5,138.5C 84.8034,135.412 83.4701,133.746 80.5,133.5C 81.5,132.833 82.5,132.167 83.5,131.5C 85.153,131.34 86.4863,130.674 87.5,129.5C 88.391,128.89 89.391,128.557 90.5,128.5 Z"/></g>
<g><path style="opacity:1" fill="#ba5b5c" d="M 94.5,133.5 C 94.8333,133.5 95.1667,133.5 95.5,133.5C 98.2085,136.208 100.542,139.208 102.5,142.5C 98.5628,144.035 94.5628,145.368 90.5,146.5C 89.7048,142.54 87.3715,140.207 83.5,139.5C 83.5,138.833 83.8333,138.5 84.5,138.5C 88.1168,137.358 91.4502,135.692 94.5,133.5 Z"/></g>
<g><path style="opacity:1" fill="#c44c53" d="M 83.5,139.5 C 87.3715,140.207 89.7048,142.54 90.5,146.5C 88.1944,146.993 85.861,147.326 83.5,147.5C 83.2876,144.288 81.6209,142.288 78.5,141.5C 79.9303,140.463 81.597,139.796 83.5,139.5 Z"/></g>
<g><path style="opacity:1" fill="#ce3d49" d="M 66.5,140.5 C 69.1813,140.462 71.6813,141.129 74,142.5C 75.4397,141.852 76.9397,141.519 78.5,141.5C 81.6209,142.288 83.2876,144.288 83.5,147.5C 79.5,147.5 75.5,147.5 71.5,147.5C 69.5879,145.343 67.9213,143.009 66.5,140.5 Z"/></g>
</svg>
