<?xml version="1.0" encoding="UTF-8"?>
<!DOCTYPE svg PUBLIC "-//W3C//DTD SVG 1.1//EN" "http://www.w3.org/Graphics/SVG/1.1/DTD/svg11.dtd">
<svg xmlns="http://www.w3.org/2000/svg" version="1.1" width="150px" height="150px" style="shape-rendering:geometricPrecision; text-rendering:geometricPrecision; image-rendering:optimizeQuality; fill-rule:evenodd; clip-rule:evenodd" xmlns:xlink="http://www.w3.org/1999/xlink">
<g><path style="opacity:1" fill="#fccd94" d="M 62.5,-0.5 C 64.5,-0.5 66.5,-0.5 68.5,-0.5C 69.1667,3.16667 69.8333,6.83333 70.5,10.5C 68.9991,11.7515 67.3325,12.7515 65.5,13.5C 64.1667,14.1667 62.8333,14.8333 61.5,15.5C 61.0982,10.8393 60.0982,6.33932 58.5,2C 59.056,1.61742 59.3893,1.11742 59.5,0.5C 60.791,0.737305 61.791,0.403972 62.5,-0.5 Z"/></g>
<g><path style="opacity:0.994" fill="#f8e1c5" d="M 68.5,-0.5 C 74.5,-0.5 80.5,-0.5 86.5,-0.5C 86.8417,0.338246 87.5084,0.67158 88.5,0.5C 90.9293,8.69199 94.9293,16.0253 100.5,22.5C 91.4832,18.2409 82.6498,13.5742 74,8.5C 72.8873,9.30501 71.7206,9.97168 70.5,10.5C 69.8333,6.83333 69.1667,3.16667 68.5,-0.5 Z"/></g>
<g><path style="opacity:0.992" fill="#f4f1ed" d="M 95.5,2.5 C 114.985,7.57809 129.651,18.9114 139.5,36.5C 135.898,37.2081 132.231,36.7081 128.5,35C 116.312,30.1482 106.479,22.3149 99,11.5C 97.2589,8.69069 96.0922,5.69069 95.5,2.5 Z"/></g>
<g><path style="opacity:1" fill="#fffdfb" d="M 100.5,22.5 C 109.822,28.2531 119.322,33.9198 129,39.5C 129.5,46.1583 129.666,52.825 129.5,59.5C 129.5,65.5 129.5,71.5 129.5,77.5C 129.296,80.5176 128.963,83.5176 128.5,86.5C 127.838,88.4705 127.172,90.4705 126.5,92.5C 128.304,93.7681 130.304,94.4348 132.5,94.5C 134.233,95.0076 134.566,95.841 133.5,97C 128.297,100.366 122.964,103.532 117.5,106.5C 116.893,106.376 116.56,106.043 116.5,105.5C 114.696,99.9511 113.363,94.2845 112.5,88.5C 112.351,87.448 112.517,86.448 113,85.5C 115.25,86.7079 117.417,88.0413 119.5,89.5C 121.389,85.3922 122.389,81.0589 122.5,76.5C 123.824,65.6596 123.824,54.6596 122.5,43.5C 110.643,37.0744 98.9765,30.4077 87.5,23.5C 83.3674,21.6 79.3674,19.4333 75.5,17C 74.2506,16.2599 73.2506,16.4265 72.5,17.5C 71.391,17.5569 70.391,17.8902 69.5,18.5C 67.1236,17.7939 65.7903,16.1273 65.5,13.5C 67.3325,12.7515 68.9991,11.7515 70.5,10.5C 71.7206,9.97168 72.8873,9.30501 74,8.5C 82.6498,13.5742 91.4832,18.2409 100.5,22.5 Z"/></g>
<g><path style="opacity:1" fill="#f5a546" d="M 41.5,6.5 C 43.2951,11.8823 45.2951,17.2156 47.5,22.5C 45.8525,24.3264 43.8525,25.6597 41.5,26.5C 40.5768,27.3029 39.5768,27.4696 38.5,27C 36.2663,23.2637 33.2663,20.4304 29.5,18.5C 31.0938,17.017 32.7605,15.517 34.5,14C 33.7476,13.3292 33.4142,12.4959 33.5,11.5C 35.7937,9.347 38.4604,7.68034 41.5,6.5 Z"/></g>
<g><path style="opacity:0.971" fill="#eb9024" d="M 33.5,11.5 C 33.4142,12.4959 33.7476,13.3292 34.5,14C 32.7605,15.517 31.0938,17.017 29.5,18.5C 24.8333,21.1667 21.1667,24.8333 18.5,29.5C 16.8437,31.4602 15.177,33.4602 13.5,35.5C 10.9751,39.2165 8.97506,43.2165 7.5,47.5C 5.57152,51.2854 4.23819,55.2854 3.5,59.5C 1.56708,66.5712 1.23374,73.5712 2.5,80.5C 2.42144,85.8313 3.42144,90.8313 5.5,95.5C 11.2868,115.284 23.2868,129.95 41.5,139.5C 47.6687,143.002 54.3354,145.335 61.5,146.5C 70.6924,147.765 80.0257,147.765 89.5,146.5C 92.9415,145.807 96.2748,144.807 99.5,143.5C 102.912,142.925 105.912,141.592 108.5,139.5C 110.284,139.107 111.95,138.441 113.5,137.5C 116.401,136.208 118.734,134.208 120.5,131.5C 115.085,125.097 109.751,118.764 104.5,112.5C 111.652,113.147 117.819,115.813 123,120.5C 124.445,123.09 125.612,125.757 126.5,128.5C 115.405,139.715 102.071,146.715 86.5,149.5C 78.5,149.5 70.5,149.5 62.5,149.5C 28.5,141.5 7.5,120.5 -0.5,86.5C -0.5,78.5 -0.5,70.5 -0.5,62.5C 3.62896,40.7031 14.9623,23.7031 33.5,11.5 Z"/></g>
<g><path style="opacity:1" fill="#fee5c8" d="M 65.5,13.5 C 65.7903,16.1273 67.1236,17.7939 69.5,18.5C 66.9906,19.9213 64.6572,21.5879 62.5,23.5C 59.9649,24.3487 57.4649,25.3487 55,26.5C 51.5675,24.8477 51.0675,22.6811 53.5,20C 56.3118,18.6723 58.9784,17.1723 61.5,15.5C 62.8333,14.8333 64.1667,14.1667 65.5,13.5 Z"/></g>
<g><path style="opacity:1" fill="#fdca8c" d="M 72.5,17.5 C 78.9828,28.4916 87.1495,38.1582 97,46.5C 97.4643,47.0944 97.631,47.7611 97.5,48.5C 93.9966,48.1289 90.9966,49.1289 88.5,51.5C 87.596,50.791 87.2627,49.791 87.5,48.5C 84.8333,48.5 82.1667,48.5 79.5,48.5C 72.6344,40.9703 66.9678,32.6369 62.5,23.5C 64.6572,21.5879 66.9906,19.9213 69.5,18.5C 70.391,17.8902 71.391,17.5569 72.5,17.5 Z"/></g>
<g><path style="opacity:1" fill="#fbd6aa" d="M 72.5,17.5 C 73.2506,16.4265 74.2506,16.2599 75.5,17C 79.3674,19.4333 83.3674,21.6 87.5,23.5C 95.8143,36.1315 107.148,45.1315 121.5,50.5C 122.484,53.4281 122.817,56.4281 122.5,59.5C 118.824,58.6629 115.324,57.3296 112,55.5C 111.51,56.7932 111.343,58.1266 111.5,59.5C 108.615,59.8064 105.948,59.4731 103.5,58.5C 105.833,58.5 108.167,58.5 110.5,58.5C 109.171,51.5255 104.838,48.1921 97.5,48.5C 97.631,47.7611 97.4643,47.0944 97,46.5C 87.1495,38.1582 78.9828,28.4916 72.5,17.5 Z"/></g>
<g><path style="opacity:1" fill="#fcbc6e" d="M 59.5,0.5 C 59.3893,1.11742 59.056,1.61742 58.5,2C 60.0982,6.33932 61.0982,10.8393 61.5,15.5C 58.9784,17.1723 56.3118,18.6723 53.5,20C 51.0675,22.6811 51.5675,24.8477 55,26.5C 57.4649,25.3487 59.9649,24.3487 62.5,23.5C 66.9678,32.6369 72.6344,40.9703 79.5,48.5C 75.8333,48.5 72.1667,48.5 68.5,48.5C 63.5955,41.7006 58.9288,34.7006 54.5,27.5C 50.4469,29.5266 46.4469,31.5266 42.5,33.5C 42.702,31.0504 42.3686,28.717 41.5,26.5C 43.8525,25.6597 45.8525,24.3264 47.5,22.5C 45.2951,17.2156 43.2951,11.8823 41.5,6.5C 47.2848,3.90508 53.2848,1.90508 59.5,0.5 Z"/></g>
<g><path style="opacity:1" fill="#b49359" d="M 18.5,29.5 C 24.784,36.1198 31.1174,42.7865 37.5,49.5C 37.5,53.1667 37.5,56.8333 37.5,60.5C 35.461,59.3282 34.1276,57.6616 33.5,55.5C 30.7801,49.7288 27.7801,44.0621 24.5,38.5C 23.4822,39.1925 22.4822,39.8592 21.5,40.5C 19.078,39.9148 17.4113,38.4148 16.5,36C 15.552,35.5172 14.552,35.3505 13.5,35.5C 15.177,33.4602 16.8437,31.4602 18.5,29.5 Z"/></g>
<g><path style="opacity:1" fill="#fadfbf" d="M 87.5,23.5 C 98.9765,30.4077 110.643,37.0744 122.5,43.5C 123.824,54.6596 123.824,65.6596 122.5,76.5C 122.5,75.8333 122.5,75.1667 122.5,74.5C 122.5,69.5 122.5,64.5 122.5,59.5C 122.817,56.4281 122.484,53.4281 121.5,50.5C 107.148,45.1315 95.8143,36.1315 87.5,23.5 Z"/></g>
<g><path style="opacity:1" fill="#f7a746" d="M 68.5,48.5 C 59.8333,48.5 51.1667,48.5 42.5,48.5C 42.5,43.5 42.5,38.5 42.5,33.5C 46.4469,31.5266 50.4469,29.5266 54.5,27.5C 58.9288,34.7006 63.5955,41.7006 68.5,48.5 Z"/></g>
<g><path style="opacity:1" fill="#f6eadb" d="M 88.5,0.5 C 91.0673,0.721485 93.4006,1.38815 95.5,2.5C 96.0922,5.69069 97.2589,8.69069 99,11.5C 106.479,22.3149 116.312,30.1482 128.5,35C 132.231,36.7081 135.898,37.2081 139.5,36.5C 141.341,38.8485 142.674,41.5152 143.5,44.5C 142.735,44.9234 141.902,45.2568 141,45.5C 137.553,44.5106 134.053,43.8439 130.5,43.5C 130.821,49.0262 130.488,54.3595 129.5,59.5C 129.666,52.825 129.5,46.1583 129,39.5C 119.322,33.9198 109.822,28.2531 100.5,22.5C 94.9293,16.0253 90.9293,8.69199 88.5,0.5 Z"/></g>
<g><path style="opacity:1" fill="#d19748" d="M 29.5,18.5 C 33.2663,20.4304 36.2663,23.2637 38.5,27C 39.5768,27.4696 40.5768,27.3029 41.5,26.5C 42.3686,28.717 42.702,31.0504 42.5,33.5C 42.5,38.5 42.5,43.5 42.5,48.5C 40.5853,48.2155 38.9187,48.5489 37.5,49.5C 31.1174,42.7865 24.784,36.1198 18.5,29.5C 21.1667,24.8333 24.8333,21.1667 29.5,18.5 Z"/></g>
<g><path style="opacity:1" fill="#f9fafa" d="M 33.5,55.5 C 30.995,56.4967 28.3283,56.4967 25.5,55.5C 25.5,57.5 25.5,59.5 25.5,61.5C 25.5,65.1667 25.5,68.8333 25.5,72.5C 26.0474,77.7121 27.0474,82.7121 28.5,87.5C 34.0435,109.038 47.0435,124.038 67.5,132.5C 70.7192,135.489 74.0525,135.823 77.5,133.5C 78.9587,133.567 80.2921,133.234 81.5,132.5C 83.1667,131.833 84.8333,131.167 86.5,130.5C 89.7016,130.537 91.3683,132.203 91.5,135.5C 89.5,136.5 87.5,137.5 85.5,138.5C 81.8562,139.826 78.1896,141.16 74.5,142.5C 69.6982,141.135 65.0315,139.469 60.5,137.5C 44.75,129.417 33.0833,117.417 25.5,101.5C 21.6456,92.5657 19.3123,83.2324 18.5,73.5C 18.5,67.1667 18.5,60.8333 18.5,54.5C 15.4281,54.8174 12.4281,54.4841 9.5,53.5C 10.1925,52.4822 10.8592,51.4822 11.5,50.5C 15.1667,47.5 18.5,44.1667 21.5,40.5C 22.4822,39.8592 23.4822,39.1925 24.5,38.5C 27.7801,44.0621 30.7801,49.7288 33.5,55.5 Z"/></g>
<g><path style="opacity:1" fill="#999473" d="M 13.5,35.5 C 14.552,35.3505 15.552,35.5172 16.5,36C 17.4113,38.4148 19.078,39.9148 21.5,40.5C 18.5,44.1667 15.1667,47.5 11.5,50.5C 11.0487,47.6934 9.71533,46.6934 7.5,47.5C 8.97506,43.2165 10.9751,39.2165 13.5,35.5 Z"/></g>
<g><path style="opacity:1" fill="#fffcf9" d="M 97.5,48.5 C 104.838,48.1921 109.171,51.5255 110.5,58.5C 108.167,58.5 105.833,58.5 103.5,58.5C 102.967,55.4752 101.133,54.1419 98,54.5C 94.2332,54.2656 92.5665,55.9323 93,59.5C 97.638,62.3792 102.471,64.8792 107.5,67C 110.029,69.6417 111.029,72.8084 110.5,76.5C 110.089,80.0791 108.089,82.2458 104.5,83C 101.518,83.498 98.5184,83.6646 95.5,83.5C 89.7032,83.0314 86.0365,80.0314 84.5,74.5C 86.2789,72.6565 88.6122,71.9898 91.5,72.5C 91.8921,76.3912 94.0587,78.3912 98,78.5C 102.256,78.5814 103.923,76.5814 103,72.5C 97.5367,69.7674 92.2034,66.7674 87,63.5C 85.7114,60.6492 85.2114,57.6492 85.5,54.5C 82.5,54.5 79.5,54.5 76.5,54.5C 79.977,53.6773 83.6437,53.1773 87.5,53C 88.056,52.6174 88.3893,52.1174 88.5,51.5C 90.9966,49.1289 93.9966,48.1289 97.5,48.5 Z"/></g>
<g><path style="opacity:1" fill="#fcf8f4" d="M 42.5,48.5 C 51.1667,48.5 59.8333,48.5 68.5,48.5C 72.1667,48.5 75.8333,48.5 79.5,48.5C 82.1667,48.5 84.8333,48.5 87.5,48.5C 87.2627,49.791 87.596,50.791 88.5,51.5C 88.3893,52.1174 88.056,52.6174 87.5,53C 83.6437,53.1773 79.977,53.6773 76.5,54.5C 76.5,58.8333 76.5,63.1667 76.5,67.5C 76.5,72.8333 76.5,78.1667 76.5,83.5C 75.1667,83.5 73.8333,83.5 72.5,83.5C 71.5,83.5 70.5,83.5 69.5,83.5C 69.5,73.8333 69.5,64.1667 69.5,54.5C 66.5,54.5 63.5,54.5 60.5,54.5C 55.1667,54.5 49.8333,54.5 44.5,54.5C 44.5,57.1667 44.5,59.8333 44.5,62.5C 49.1667,62.5 53.8333,62.5 58.5,62.5C 58.5,64.5 58.5,66.5 58.5,68.5C 55.1667,68.5 51.8333,68.5 48.5,68.5C 47.5,68.5 46.5,68.5 45.5,68.5C 45.5,71.5 45.5,74.5 45.5,77.5C 47.8333,77.5 50.1667,77.5 52.5,77.5C 55.5,77.5 58.5,77.5 61.5,77.5C 61.5,79.5 61.5,81.5 61.5,83.5C 60.1667,83.5 58.8333,83.5 57.5,83.5C 54.8333,83.5 52.1667,83.5 49.5,83.5C 46.5,83.5 43.5,83.5 40.5,83.5C 39.5,83.5 38.5,83.5 37.5,83.5C 37.5,80.5 37.5,77.5 37.5,74.5C 37.5,69.8333 37.5,65.1667 37.5,60.5C 37.5,56.8333 37.5,53.1667 37.5,49.5C 38.9187,48.5489 40.5853,48.2155 42.5,48.5 Z"/></g>
<g><path style="opacity:1" fill="#f9af59" d="M 60.5,54.5 C 63.5,54.5 66.5,54.5 69.5,54.5C 69.5,64.1667 69.5,73.8333 69.5,83.5C 68.6715,76.6787 68.1715,69.6787 68,62.5C 65.295,59.9638 62.795,57.2971 60.5,54.5 Z"/></g>
<g><path style="opacity:1" fill="#7b9490" d="M 11.5,50.5 C 10.8592,51.4822 10.1925,52.4822 9.5,53.5C 12.4281,54.4841 15.4281,54.8174 18.5,54.5C 18.5,60.8333 18.5,67.1667 18.5,73.5C 14.3654,69.1941 10.3654,64.6941 6.5,60C 5.55198,59.5172 4.55198,59.3505 3.5,59.5C 4.23819,55.2854 5.57152,51.2854 7.5,47.5C 9.71533,46.6934 11.0487,47.6934 11.5,50.5 Z"/></g>
<g><path style="opacity:1" fill="#fec787" d="M 103.5,58.5 C 105.948,59.4731 108.615,59.8064 111.5,59.5C 111.343,58.1266 111.51,56.7932 112,55.5C 115.324,57.3296 118.824,58.6629 122.5,59.5C 122.5,64.5 122.5,69.5 122.5,74.5C 118.89,73.2967 115.223,72.2967 111.5,71.5C 111.784,73.4147 111.451,75.0813 110.5,76.5C 111.029,72.8084 110.029,69.6417 107.5,67C 102.471,64.8792 97.638,62.3792 93,59.5C 92.5665,55.9323 94.2332,54.2656 98,54.5C 101.133,54.1419 102.967,55.4752 103.5,58.5 Z"/></g>
<g><path style="opacity:1" fill="#fbb560" d="M 76.5,54.5 C 79.5,54.5 82.5,54.5 85.5,54.5C 85.2114,57.6492 85.7114,60.6492 87,63.5C 92.2034,66.7674 97.5367,69.7674 103,72.5C 103.923,76.5814 102.256,78.5814 98,78.5C 94.0587,78.3912 91.8921,76.3912 91.5,72.5C 88.6122,71.9898 86.2789,72.6565 84.5,74.5C 82.5095,71.5166 79.8428,69.1833 76.5,67.5C 76.5,63.1667 76.5,58.8333 76.5,54.5 Z"/></g>
<g><path style="opacity:1" fill="#9c936e" d="M 33.5,55.5 C 34.1276,57.6616 35.461,59.3282 37.5,60.5C 37.5,65.1667 37.5,69.8333 37.5,74.5C 33.5,70.1667 29.5,65.8333 25.5,61.5C 25.5,59.5 25.5,57.5 25.5,55.5C 28.3283,56.4967 30.995,56.4967 33.5,55.5 Z"/></g>
<g><path style="opacity:1" fill="#fad8b0" d="M 143.5,44.5 C 146.105,50.3163 148.105,56.3163 149.5,62.5C 149.5,62.8333 149.5,63.1667 149.5,63.5C 143.198,64.2264 136.864,63.8931 130.5,62.5C 130.5,65.5 130.5,68.5 130.5,71.5C 130.795,73.7354 130.461,75.7354 129.5,77.5C 129.5,71.5 129.5,65.5 129.5,59.5C 130.488,54.3595 130.821,49.0262 130.5,43.5C 134.053,43.8439 137.553,44.5106 141,45.5C 141.902,45.2568 142.735,44.9234 143.5,44.5 Z"/></g>
<g><path style="opacity:0.997" fill="#fdcb8e" d="M 149.5,63.5 C 149.5,66.8333 149.5,70.1667 149.5,73.5C 143.116,73.2435 136.782,72.5768 130.5,71.5C 130.5,68.5 130.5,65.5 130.5,62.5C 136.864,63.8931 143.198,64.2264 149.5,63.5 Z"/></g>
<g><path style="opacity:0.998" fill="#f19221" d="M 60.5,54.5 C 62.795,57.2971 65.295,59.9638 68,62.5C 68.1715,69.6787 68.6715,76.6787 69.5,83.5C 70.5,83.5 71.5,83.5 72.5,83.5C 85.7479,93.4573 100.415,100.791 116.5,105.5C 116.56,106.043 116.893,106.376 117.5,106.5C 122.964,103.532 128.297,100.366 133.5,97C 134.566,95.841 134.233,95.0076 132.5,94.5C 137.395,94.381 142.395,94.0476 147.5,93.5C 144.166,107.471 137.166,119.138 126.5,128.5C 125.612,125.757 124.445,123.09 123,120.5C 117.819,115.813 111.652,113.147 104.5,112.5C 102.236,111.781 99.9029,111.448 97.5,111.5C 88.7922,107.979 80.4589,103.645 72.5,98.5C 66.5273,94.5273 61.5273,89.5273 57.5,83.5C 58.8333,83.5 60.1667,83.5 61.5,83.5C 61.5,81.5 61.5,79.5 61.5,77.5C 58.5,77.5 55.5,77.5 52.5,77.5C 50.8946,74.6223 49.5612,71.6223 48.5,68.5C 51.8333,68.5 55.1667,68.5 58.5,68.5C 58.5,66.5 58.5,64.5 58.5,62.5C 53.8333,62.5 49.1667,62.5 44.5,62.5C 44.5,59.8333 44.5,57.1667 44.5,54.5C 49.8333,54.5 55.1667,54.5 60.5,54.5 Z"/></g>
<g><path style="opacity:1" fill="#6096af" d="M 3.5,59.5 C 4.55198,59.3505 5.55198,59.5172 6.5,60C 10.3654,64.6941 14.3654,69.1941 18.5,73.5C 19.3123,83.2324 21.6456,92.5657 25.5,101.5C 17.865,93.0258 10.365,84.3591 3,75.5C 2.50649,77.1341 2.33982,78.8008 2.5,80.5C 1.23374,73.5712 1.56708,66.5712 3.5,59.5 Z"/></g>
<g><path style="opacity:1" fill="#a89262" d="M 48.5,68.5 C 49.5612,71.6223 50.8946,74.6223 52.5,77.5C 50.1667,77.5 47.8333,77.5 45.5,77.5C 45.5,74.5 45.5,71.5 45.5,68.5C 46.5,68.5 47.5,68.5 48.5,68.5 Z"/></g>
<g><path style="opacity:1" fill="#799593" d="M 25.5,72.5 C 42.804,92.8083 60.1373,113.142 77.5,133.5C 74.0525,135.823 70.7192,135.489 67.5,132.5C 55.5901,117.029 42.7567,101.696 29,86.5C 28.6012,86.7284 28.4346,87.0618 28.5,87.5C 27.0474,82.7121 26.0474,77.7121 25.5,72.5 Z"/></g>
<g><path style="opacity:0.993" fill="#fdbf74" d="M 130.5,71.5 C 136.782,72.5768 143.116,73.2435 149.5,73.5C 149.5,77.5 149.5,81.5 149.5,85.5C 142.833,84.8333 136.167,84.1667 129.5,83.5C 129.737,84.791 129.404,85.791 128.5,86.5C 128.963,83.5176 129.296,80.5176 129.5,77.5C 130.461,75.7354 130.795,73.7354 130.5,71.5 Z"/></g>
<g><path style="opacity:1" fill="#4a97c3" d="M 25.5,101.5 C 33.0833,117.417 44.75,129.417 60.5,137.5C 61.6194,140.888 63.6194,143.721 66.5,146C 64.8659,146.494 63.1992,146.66 61.5,146.5C 54.3354,145.335 47.6687,143.002 41.5,139.5C 43.6477,139.611 43.981,138.944 42.5,137.5C 42.8457,136.304 43.3457,136.304 44,137.5C 44.6667,136.833 44.6667,136.167 44,135.5C 31.6667,121.167 19.3333,106.833 7,92.5C 6.48672,93.5266 5.98672,94.5266 5.5,95.5C 3.42144,90.8313 2.42144,85.8313 2.5,80.5C 2.33982,78.8008 2.50649,77.1341 3,75.5C 10.365,84.3591 17.865,93.0258 25.5,101.5 Z"/></g>
<g><path style="opacity:1" fill="#fbb45f" d="M 122.5,74.5 C 122.5,75.1667 122.5,75.8333 122.5,76.5C 122.389,81.0589 121.389,85.3922 119.5,89.5C 117.417,88.0413 115.25,86.7079 113,85.5C 112.517,86.448 112.351,87.448 112.5,88.5C 107.03,85.7838 101.364,84.1172 95.5,83.5C 98.5184,83.6646 101.518,83.498 104.5,83C 108.089,82.2458 110.089,80.0791 110.5,76.5C 111.451,75.0813 111.784,73.4147 111.5,71.5C 115.223,72.2967 118.89,73.2967 122.5,74.5 Z"/></g>
<g><path style="opacity:1" fill="#869384" d="M 25.5,61.5 C 29.5,65.8333 33.5,70.1667 37.5,74.5C 37.5,77.5 37.5,80.5 37.5,83.5C 38.5,83.5 39.5,83.5 40.5,83.5C 54.543,99.5409 68.2097,115.874 81.5,132.5C 80.2921,133.234 78.9587,133.567 77.5,133.5C 60.1373,113.142 42.804,92.8083 25.5,72.5C 25.5,68.8333 25.5,65.1667 25.5,61.5 Z"/></g>
<g><path style="opacity:1" fill="#949376" d="M 40.5,83.5 C 43.5,83.5 46.5,83.5 49.5,83.5C 62.5441,98.542 75.2107,113.875 87.5,129.5C 86.8333,129.5 86.5,129.833 86.5,130.5C 84.8333,131.167 83.1667,131.833 81.5,132.5C 68.2097,115.874 54.543,99.5409 40.5,83.5 Z"/></g>
<g><path style="opacity:1" fill="#f4992e" d="M 76.5,67.5 C 79.8428,69.1833 82.5095,71.5166 84.5,74.5C 86.0365,80.0314 89.7032,83.0314 95.5,83.5C 101.364,84.1172 107.03,85.7838 112.5,88.5C 113.363,94.2845 114.696,99.9511 116.5,105.5C 100.415,100.791 85.7479,93.4573 72.5,83.5C 73.8333,83.5 75.1667,83.5 76.5,83.5C 76.5,78.1667 76.5,72.8333 76.5,67.5 Z"/></g>
<g><path style="opacity:0.988" fill="#fab057" d="M 149.5,85.5 C 149.5,85.8333 149.5,86.1667 149.5,86.5C 148.593,88.6568 147.927,90.9902 147.5,93.5C 142.395,94.0476 137.395,94.381 132.5,94.5C 130.304,94.4348 128.304,93.7681 126.5,92.5C 127.172,90.4705 127.838,88.4705 128.5,86.5C 129.404,85.791 129.737,84.791 129.5,83.5C 136.167,84.1667 142.833,84.8333 149.5,85.5 Z"/></g>
<g><path style="opacity:1" fill="#6a96a3" d="M 67.5,132.5 C 47.0435,124.038 34.0435,109.038 28.5,87.5C 28.4346,87.0618 28.6012,86.7284 29,86.5C 42.7567,101.696 55.5901,117.029 67.5,132.5 Z"/></g>
<g><path style="opacity:1" fill="#3897d6" d="M 41.5,139.5 C 23.2868,129.95 11.2868,115.284 5.5,95.5C 5.98672,94.5266 6.48672,93.5266 7,92.5C 19.3333,106.833 31.6667,121.167 44,135.5C 44.6667,136.167 44.6667,136.833 44,137.5C 43.3457,136.304 42.8457,136.304 42.5,137.5C 43.981,138.944 43.6477,139.611 41.5,139.5 Z"/></g>
<g><path style="opacity:1" fill="#a39266" d="M 49.5,83.5 C 52.1667,83.5 54.8333,83.5 57.5,83.5C 61.5273,89.5273 66.5273,94.5273 72.5,98.5C 79.4645,107.466 86.7978,116.132 94.5,124.5C 92.7334,126.89 90.4001,128.557 87.5,129.5C 75.2107,113.875 62.5441,98.542 49.5,83.5 Z"/></g>
<g><path style="opacity:1" fill="#cb9241" d="M 97.5,111.5 C 99.9029,111.448 102.236,111.781 104.5,112.5C 109.751,118.764 115.085,125.097 120.5,131.5C 118.734,134.208 116.401,136.208 113.5,137.5C 113.649,136.448 113.483,135.448 113,134.5C 110.023,131.869 107.523,128.869 105.5,125.5C 106.833,124.38 107.333,123.047 107,121.5C 103.137,118.907 99.9704,115.574 97.5,111.5 Z"/></g>
<g><path style="opacity:1" fill="#bd9351" d="M 72.5,98.5 C 80.4589,103.645 88.7922,107.979 97.5,111.5C 99.9704,115.574 103.137,118.907 107,121.5C 107.333,123.047 106.833,124.38 105.5,125.5C 107.523,128.869 110.023,131.869 113,134.5C 113.483,135.448 113.649,136.448 113.5,137.5C 111.95,138.441 110.284,139.107 108.5,139.5C 106.925,136.418 104.758,133.751 102,131.5C 101.517,130.552 101.351,129.552 101.5,128.5C 105.45,125.773 105.283,123.107 101,120.5C 98.9409,122.07 96.7742,123.403 94.5,124.5C 86.7978,116.132 79.4645,107.466 72.5,98.5 Z"/></g>
<g><path style="opacity:1" fill="#d6c8ad" d="M 101.5,128.5 C 98.2802,130.603 95.2802,132.936 92.5,135.5C 92.1667,135.5 91.8333,135.5 91.5,135.5C 91.3683,132.203 89.7016,130.537 86.5,130.5C 86.5,129.833 86.8333,129.5 87.5,129.5C 90.4001,128.557 92.7334,126.89 94.5,124.5C 96.7742,123.403 98.9409,122.07 101,120.5C 105.283,123.107 105.45,125.773 101.5,128.5 Z"/></g>
<g><path style="opacity:1" fill="#a69365" d="M 101.5,128.5 C 101.351,129.552 101.517,130.552 102,131.5C 104.758,133.751 106.925,136.418 108.5,139.5C 105.912,141.592 102.912,142.925 99.5,143.5C 97.883,140.216 95.5497,137.549 92.5,135.5C 95.2802,132.936 98.2802,130.603 101.5,128.5 Z"/></g>
<g><path style="opacity:1" fill="#8d937d" d="M 91.5,135.5 C 91.8333,135.5 92.1667,135.5 92.5,135.5C 95.5497,137.549 97.883,140.216 99.5,143.5C 96.2748,144.807 92.9415,145.807 89.5,146.5C 87.7622,144.079 86.4289,141.412 85.5,138.5C 87.5,137.5 89.5,136.5 91.5,135.5 Z"/></g>
<g><path style="opacity:1" fill="#70959d" d="M 60.5,137.5 C 65.0315,139.469 69.6982,141.135 74.5,142.5C 78.1896,141.16 81.8562,139.826 85.5,138.5C 86.4289,141.412 87.7622,144.079 89.5,146.5C 80.0257,147.765 70.6924,147.765 61.5,146.5C 63.1992,146.66 64.8659,146.494 66.5,146C 63.6194,143.721 61.6194,140.888 60.5,137.5 Z"/></g>
</svg>
