<?xml version="1.0" encoding="UTF-8"?>
<!DOCTYPE svg PUBLIC "-//W3C//DTD SVG 1.1//EN" "http://www.w3.org/Graphics/SVG/1.1/DTD/svg11.dtd">
<svg xmlns="http://www.w3.org/2000/svg" version="1.1" width="150px" height="150px" style="shape-rendering:geometricPrecision; text-rendering:geometricPrecision; image-rendering:optimizeQuality; fill-rule:evenodd; clip-rule:evenodd" xmlns:xlink="http://www.w3.org/1999/xlink">
<g><path style="opacity:0.989" fill="#c1c7ce" d="M 62.5,0.5 C 62.5,0.166667 62.5,-0.166667 62.5,-0.5C 68.1667,-0.5 73.8333,-0.5 79.5,-0.5C 81.5419,4.45043 83.8752,9.28376 86.5,14C 86.2716,14.3988 85.9382,14.5654 85.5,14.5C 81.6415,12.6532 77.8082,10.6532 74,8.5C 71.7218,9.719 69.5551,11.0523 67.5,12.5C 66.5856,8.06431 64.919,4.06431 62.5,0.5 Z"/></g>
<g><path style="opacity:1" fill="#9ca5b2" d="M 62.5,0.5 C 64.919,4.06431 66.5856,8.06431 67.5,12.5C 66.1667,13.1667 64.8333,13.8333 63.5,14.5C 60.4502,16.6916 57.1168,18.3583 53.5,19.5C 53.6602,17.8008 53.4935,16.1341 53,14.5C 50.3891,11.2794 48.8891,7.61275 48.5,3.5C 53.0243,1.86918 57.6909,0.869182 62.5,0.5 Z"/></g>
<g><path style="opacity:0.993" fill="#f0f1f1" d="M 101.5,4.5 C 116.922,9.88275 128.922,19.5494 137.5,33.5C 120.59,29.9236 107.924,20.5902 99.5,5.5C 99.9569,4.70245 100.624,4.36912 101.5,4.5 Z"/></g>
<g><path style="opacity:1" fill="#fbfbfb" d="M 85.5,14.5 C 99.6096,22.7258 113.943,30.7258 128.5,38.5C 129.499,51.1492 129.832,63.8158 129.5,76.5C 129.5,77.5 129.5,78.5 129.5,79.5C 128.96,82.8647 128.294,86.198 127.5,89.5C 127.461,90.5832 127.127,91.5832 126.5,92.5C 129.073,93.8076 131.74,94.8076 134.5,95.5C 132.116,97.8847 129.45,99.8847 126.5,101.5C 123.366,102.901 120.366,104.568 117.5,106.5C 115.889,105.68 115.222,104.346 115.5,102.5C 114.833,100.167 114.167,97.8333 113.5,95.5C 113.552,93.0971 113.219,90.7638 112.5,88.5C 112.351,87.448 112.517,86.448 113,85.5C 115.034,87.0316 117.201,88.3649 119.5,89.5C 121.882,85.4986 122.882,81.1653 122.5,76.5C 123.824,65.6596 123.824,54.6596 122.5,43.5C 108.968,35.5679 95.3011,27.9012 81.5,20.5C 79.2495,18.7901 76.7495,17.4568 74,16.5C 71.7211,17.3914 69.5544,18.3914 67.5,19.5C 66.7784,19.0825 66.2784,18.4158 66,17.5C 65.6667,18.1667 65.3333,18.8333 65,19.5C 63.9914,17.9751 63.4914,16.3084 63.5,14.5C 64.8333,13.8333 66.1667,13.1667 67.5,12.5C 69.5551,11.0523 71.7218,9.719 74,8.5C 77.8082,10.6532 81.6415,12.6532 85.5,14.5 Z"/></g>
<g><path style="opacity:1" fill="#63666e" d="M 44.5,5.5 C 43.1448,11.4785 44.1448,17.1452 47.5,22.5C 43.2204,24.5023 42.5538,27.3357 45.5,31C 46.7932,31.49 48.1266,31.6567 49.5,31.5C 52.693,37.3823 56.3597,43.0489 60.5,48.5C 59.8333,48.5 59.1667,48.5 58.5,48.5C 53.5,48.5 48.5,48.5 43.5,48.5C 43.0076,43.6764 42.341,39.0097 41.5,34.5C 40.2101,33.9423 39.3768,32.9423 39,31.5C 36.8287,25.1598 34.6621,18.8265 32.5,12.5C 35.8349,9.16109 39.8349,6.82776 44.5,5.5 Z"/></g>
<g><path style="opacity:1" fill="#5a494f" d="M 32.5,12.5 C 34.6621,18.8265 36.8287,25.1598 39,31.5C 39.3768,32.9423 40.2101,33.9423 41.5,34.5C 40.2493,36.2199 38.7493,36.5532 37,35.5C 34.0928,30.0156 31.4261,24.349 29,18.5C 28.6174,19.056 28.1174,19.3893 27.5,19.5C 26.5,19.1667 25.8333,18.5 25.5,17.5C 27.2964,15.1 29.6298,13.4333 32.5,12.5 Z"/></g>
<g><path style="opacity:1" fill="#b4bbc4" d="M 81.5,20.5 C 88.3175,33.4835 98.3175,43.3168 111.5,50C 114.791,51.597 118.125,53.097 121.5,54.5C 122.474,56.7427 122.808,59.076 122.5,61.5C 119.302,60.3196 116.135,58.9863 113,57.5C 109.866,59.5948 106.7,59.9281 103.5,58.5C 105.833,58.5 108.167,58.5 110.5,58.5C 110.259,53.87 107.925,50.7034 103.5,49C 98.0746,47.7754 93.0746,48.6087 88.5,51.5C 87.6143,50.675 87.281,49.675 87.5,48.5C 79.4189,39.9409 72.0855,30.9409 65.5,21.5C 66.1667,20.8333 66.8333,20.1667 67.5,19.5C 69.5544,18.3914 71.7211,17.3914 74,16.5C 76.7495,17.4568 79.2495,18.7901 81.5,20.5 Z"/></g>
<g><path style="opacity:1" fill="#d0d4d9" d="M 63.5,14.5 C 63.4914,16.3084 63.9914,17.9751 65,19.5C 65.3333,18.8333 65.6667,18.1667 66,17.5C 66.2784,18.4158 66.7784,19.0825 67.5,19.5C 66.8333,20.1667 66.1667,20.8333 65.5,21.5C 62.331,22.9166 59.331,24.5832 56.5,26.5C 52.452,25.7378 51.452,23.4045 53.5,19.5C 57.1168,18.3583 60.4502,16.6916 63.5,14.5 Z"/></g>
<g><path style="opacity:1" fill="#99a3b0" d="M 65.5,21.5 C 72.0855,30.9409 79.4189,39.9409 87.5,48.5C 83.1667,48.5 78.8333,48.5 74.5,48.5C 72.5475,44.7129 69.7142,41.7129 66,39.5C 64.3153,35.769 62.4819,32.1023 60.5,28.5C 59.4231,27.2949 58.0898,26.6282 56.5,26.5C 59.331,24.5832 62.331,22.9166 65.5,21.5 Z"/></g>
<g><path style="opacity:1" fill="#e0e3e6" d="M 79.5,-0.5 C 81.8333,-0.5 84.1667,-0.5 86.5,-0.5C 91.6395,0.702678 96.6395,2.36934 101.5,4.5C 100.624,4.36912 99.9569,4.70245 99.5,5.5C 107.924,20.5902 120.59,29.9236 137.5,33.5C 141.202,38.2363 143.868,43.5696 145.5,49.5C 140.484,48.9418 135.484,48.2751 130.5,47.5C 130.5,52.8333 130.5,58.1667 130.5,63.5C 130.818,68.0323 130.485,72.3656 129.5,76.5C 129.832,63.8158 129.499,51.1492 128.5,38.5C 113.943,30.7258 99.6096,22.7258 85.5,14.5C 85.9382,14.5654 86.2716,14.3988 86.5,14C 83.8752,9.28376 81.5419,4.45043 79.5,-0.5 Z"/></g>
<g><path style="opacity:1" fill="#c9cdd4" d="M 81.5,20.5 C 95.3011,27.9012 108.968,35.5679 122.5,43.5C 123.824,54.6596 123.824,65.6596 122.5,76.5C 122.5,75.5 122.5,74.5 122.5,73.5C 122.5,69.5 122.5,65.5 122.5,61.5C 122.808,59.076 122.474,56.7427 121.5,54.5C 118.125,53.097 114.791,51.597 111.5,50C 98.3175,43.3168 88.3175,33.4835 81.5,20.5 Z"/></g>
<g><path style="opacity:1" fill="#662027" d="M 20.5,26.5 C 21.4959,26.4142 22.3292,26.7476 23,27.5C 27.358,35.5685 32.1914,43.2351 37.5,50.5C 37.5,54.1667 37.5,57.8333 37.5,61.5C 35.4752,59.8036 33.4752,58.137 31.5,56.5C 33.2252,56.1575 33.7252,55.1575 33,53.5C 30.1667,48.5 27.3333,43.5 24.5,38.5C 22.8144,39.8569 21.1477,41.1902 19.5,42.5C 18.588,40.4048 17.4213,38.4048 16,36.5C 15.3292,35.7476 14.4959,35.4142 13.5,35.5C 15.5917,32.319 17.925,29.319 20.5,26.5 Z"/></g>
<g><path style="opacity:1" fill="#612931" d="M 23.5,23.5 C 25.4741,25.428 26.9741,27.7613 28,30.5C 32.8907,35.9308 37.0574,41.9308 40.5,48.5C 38.8212,48.2852 37.8212,48.9519 37.5,50.5C 32.1914,43.2351 27.358,35.5685 23,27.5C 22.3292,26.7476 21.4959,26.4142 20.5,26.5C 21.1667,25.1667 22.1667,24.1667 23.5,23.5 Z"/></g>
<g><path style="opacity:1" fill="#838a94" d="M 48.5,3.5 C 48.8891,7.61275 50.3891,11.2794 53,14.5C 53.4935,16.1341 53.6602,17.8008 53.5,19.5C 51.452,23.4045 52.452,25.7378 56.5,26.5C 58.0898,26.6282 59.4231,27.2949 60.5,28.5C 62.4819,32.1023 64.3153,35.769 66,39.5C 69.7142,41.7129 72.5475,44.7129 74.5,48.5C 69.8333,48.5 65.1667,48.5 60.5,48.5C 56.3597,43.0489 52.693,37.3823 49.5,31.5C 48.1266,31.6567 46.7932,31.49 45.5,31C 42.5538,27.3357 43.2204,24.5023 47.5,22.5C 44.1448,17.1452 43.1448,11.4785 44.5,5.5C 45.6715,4.65536 47.0048,3.98869 48.5,3.5 Z"/></g>
<g><path style="opacity:1" fill="#623c43" d="M 41.5,34.5 C 42.341,39.0097 43.0076,43.6764 43.5,48.5C 42.5,48.5 41.5,48.5 40.5,48.5C 37.0574,41.9308 32.8907,35.9308 28,30.5C 26.9741,27.7613 25.4741,25.428 23.5,23.5C 25.1392,22.5275 26.4726,21.1942 27.5,19.5C 28.1174,19.3893 28.6174,19.056 29,18.5C 31.4261,24.349 34.0928,30.0156 37,35.5C 38.7493,36.5532 40.2493,36.2199 41.5,34.5 Z"/></g>
<g><path style="opacity:1" fill="#fcf5f5" d="M 31.5,56.5 C 29.5,56.1667 27.5,55.8333 25.5,55.5C 25.5,57.8333 25.5,60.1667 25.5,62.5C 25.3243,67.8797 25.6576,73.213 26.5,78.5C 30.9848,106.165 46.3182,124.832 72.5,134.5C 72.7352,135.097 73.2352,135.43 74,135.5C 76.489,134.394 78.989,133.394 81.5,132.5C 81.8333,132.5 82.1667,132.5 82.5,132.5C 83.4959,132.414 84.3292,132.748 85,133.5C 85.4935,135.134 85.6602,136.801 85.5,138.5C 83.1815,138.992 81.1815,139.992 79.5,141.5C 70.7555,142.033 62.7555,139.7 55.5,134.5C 39.3257,124.649 28.3257,110.649 22.5,92.5C 20.5326,86.6656 19.1993,80.6656 18.5,74.5C 18.5,67.8333 18.5,61.1667 18.5,54.5C 15.4281,54.8174 12.4281,54.4841 9.5,53.5C 9.86273,52.8165 10.1961,52.1499 10.5,51.5C 13.8333,48.8333 16.8333,45.8333 19.5,42.5C 21.1477,41.1902 22.8144,39.8569 24.5,38.5C 27.3333,43.5 30.1667,48.5 33,53.5C 33.7252,55.1575 33.2252,56.1575 31.5,56.5 Z"/></g>
<g><path style="opacity:1" fill="#831823" d="M 13.5,35.5 C 14.4959,35.4142 15.3292,35.7476 16,36.5C 17.4213,38.4048 18.588,40.4048 19.5,42.5C 16.8333,45.8333 13.8333,48.8333 10.5,51.5C 9.65505,49.2381 8.32172,48.5714 6.5,49.5C 8.30838,44.5499 10.6417,39.8832 13.5,35.5 Z"/></g>
<g><path style="opacity:1" fill="#fafbfb" d="M 58.5,48.5 C 59.1667,48.5 59.8333,48.5 60.5,48.5C 65.1667,48.5 69.8333,48.5 74.5,48.5C 78.8333,48.5 83.1667,48.5 87.5,48.5C 87.281,49.675 87.6143,50.675 88.5,51.5C 93.0746,48.6087 98.0746,47.7754 103.5,49C 107.925,50.7034 110.259,53.87 110.5,58.5C 108.167,58.5 105.833,58.5 103.5,58.5C 102.967,55.4752 101.133,54.1419 98,54.5C 94.2332,54.2656 92.5665,55.9323 93,59.5C 97.638,62.3792 102.471,64.8792 107.5,67C 110.029,69.6417 111.029,72.8084 110.5,76.5C 107.546,82.807 102.546,85.1403 95.5,83.5C 89.7417,83.0764 86.075,80.0764 84.5,74.5C 86.2789,72.6565 88.6122,71.9898 91.5,72.5C 92.5601,78.0953 95.8935,79.9286 101.5,78C 103.576,76.1159 103.91,73.9492 102.5,71.5C 96.0445,69.532 90.5445,66.1987 86,61.5C 85.5034,59.1902 85.3367,56.8568 85.5,54.5C 82.5,54.5 79.5,54.5 76.5,54.5C 76.5,58.1667 76.5,61.8333 76.5,65.5C 76.5,69.1667 76.5,72.8333 76.5,76.5C 76.5,78.8333 76.5,81.1667 76.5,83.5C 74.1667,83.5 71.8333,83.5 69.5,83.5C 69.5,73.8333 69.5,64.1667 69.5,54.5C 65.5,54.5 61.5,54.5 57.5,54.5C 53.5,54.5 49.5,54.5 45.5,54.5C 44.5233,57.2869 44.19,60.2869 44.5,63.5C 49.1667,63.5 53.8333,63.5 58.5,63.5C 58.9227,65.7812 58.256,67.4479 56.5,68.5C 53.8333,68.5 51.1667,68.5 48.5,68.5C 47.5,68.5 46.5,68.5 45.5,68.5C 44.5206,71.6248 44.1872,74.9581 44.5,78.5C 49.8333,78.5 55.1667,78.5 60.5,78.5C 60.5,80.1667 60.5,81.8333 60.5,83.5C 59.5,83.5 58.5,83.5 57.5,83.5C 56.1667,83.5 54.8333,83.5 53.5,83.5C 51.5,83.5 49.5,83.5 47.5,83.5C 45.5,83.5 43.5,83.5 41.5,83.5C 40.5,83.5 39.5,83.5 38.5,83.5C 38.5,72.1667 38.5,60.8333 38.5,49.5C 45.3543,49.824 52.021,49.4907 58.5,48.5 Z"/></g>
<g><path style="opacity:1" fill="#d5c4c8" d="M 40.5,48.5 C 41.5,48.5 42.5,48.5 43.5,48.5C 48.5,48.5 53.5,48.5 58.5,48.5C 52.021,49.4907 45.3543,49.824 38.5,49.5C 38.5,60.8333 38.5,72.1667 38.5,83.5C 37.5269,81.0521 37.1936,78.3854 37.5,75.5C 37.5,70.8333 37.5,66.1667 37.5,61.5C 37.5,57.8333 37.5,54.1667 37.5,50.5C 37.8212,48.9519 38.8212,48.2852 40.5,48.5 Z"/></g>
<g><path style="opacity:1" fill="#a0aab6" d="M 103.5,58.5 C 106.7,59.9281 109.866,59.5948 113,57.5C 116.135,58.9863 119.302,60.3196 122.5,61.5C 122.5,65.5 122.5,69.5 122.5,73.5C 119.933,73.1455 117.433,72.4788 115,71.5C 112.975,72.8088 111.475,74.4755 110.5,76.5C 111.029,72.8084 110.029,69.6417 107.5,67C 102.471,64.8792 97.638,62.3792 93,59.5C 92.5665,55.9323 94.2332,54.2656 98,54.5C 101.133,54.1419 102.967,55.4752 103.5,58.5 Z"/></g>
<g><path style="opacity:1" fill="#a31121" d="M 10.5,51.5 C 10.1961,52.1499 9.86273,52.8165 9.5,53.5C 12.4281,54.4841 15.4281,54.8174 18.5,54.5C 18.5,61.1667 18.5,67.8333 18.5,74.5C 14.532,70.3605 10.6987,66.0272 7,61.5C 6.18405,60.1772 5.01739,59.5106 3.5,59.5C 4.10086,56.0321 5.10086,52.6988 6.5,49.5C 8.32172,48.5714 9.65505,49.2381 10.5,51.5 Z"/></g>
<g><path style="opacity:1" fill="#6f747b" d="M 57.5,54.5 C 61.5,54.5 65.5,54.5 69.5,54.5C 69.5,64.1667 69.5,73.8333 69.5,83.5C 68.5655,82.4324 68.2322,81.099 68.5,79.5C 68.6659,74.4889 68.4993,69.4889 68,64.5C 64.6045,60.9349 61.1045,57.6015 57.5,54.5 Z"/></g>
<g><path style="opacity:1" fill="#811521" d="M 31.5,56.5 C 33.4752,58.137 35.4752,59.8036 37.5,61.5C 37.5,66.1667 37.5,70.8333 37.5,75.5C 33.5,71.1667 29.5,66.8333 25.5,62.5C 25.5,60.1667 25.5,57.8333 25.5,55.5C 27.5,55.8333 29.5,56.1667 31.5,56.5 Z"/></g>
<g><path style="opacity:1" fill="#4a4e53" d="M 45.5,54.5 C 49.5,54.5 53.5,54.5 57.5,54.5C 61.1045,57.6015 64.6045,60.9349 68,64.5C 68.4993,69.4889 68.6659,74.4889 68.5,79.5C 63.8744,76.5422 59.8744,72.8755 56.5,68.5C 58.256,67.4479 58.9227,65.7812 58.5,63.5C 54.3656,62.5151 50.0323,62.1818 45.5,62.5C 45.5,59.8333 45.5,57.1667 45.5,54.5 Z"/></g>
<g><path style="opacity:1" fill="#bbc1ca" d="M 145.5,49.5 C 147.006,53.8753 148.339,58.2086 149.5,62.5C 149.5,63.5 149.5,64.5 149.5,65.5C 143.081,65.5581 136.747,64.8915 130.5,63.5C 130.5,58.1667 130.5,52.8333 130.5,47.5C 135.484,48.2751 140.484,48.9418 145.5,49.5 Z"/></g>
<g><path style="opacity:1" fill="#a59ea2" d="M 45.5,54.5 C 45.5,57.1667 45.5,59.8333 45.5,62.5C 50.0323,62.1818 54.3656,62.5151 58.5,63.5C 53.8333,63.5 49.1667,63.5 44.5,63.5C 44.19,60.2869 44.5233,57.2869 45.5,54.5 Z"/></g>
<g><path style="opacity:1" fill="#79818b" d="M 84.5,74.5 C 81.8058,71.6707 79.1392,68.6707 76.5,65.5C 76.5,61.8333 76.5,58.1667 76.5,54.5C 79.5,54.5 82.5,54.5 85.5,54.5C 85.3367,56.8568 85.5034,59.1902 86,61.5C 90.5445,66.1987 96.0445,69.532 102.5,71.5C 103.91,73.9492 103.576,76.1159 101.5,78C 95.8935,79.9286 92.5601,78.0953 91.5,72.5C 88.6122,71.9898 86.2789,72.6565 84.5,74.5 Z"/></g>
<g><path style="opacity:1" fill="#bc1122" d="M 3.5,59.5 C 5.01739,59.5106 6.18405,60.1772 7,61.5C 10.6987,66.0272 14.532,70.3605 18.5,74.5C 19.1993,80.6656 20.5326,86.6656 22.5,92.5C 20.9826,92.4894 19.8159,91.8228 19,90.5C 14.0425,83.8737 8.70919,77.5404 3,71.5C 2.50204,74.4816 2.33537,77.4816 2.5,80.5C 1.32024,73.588 1.65358,66.588 3.5,59.5 Z"/></g>
<g><path style="opacity:1" fill="#6e1821" d="M 45.5,68.5 C 46.5,68.5 47.5,68.5 48.5,68.5C 49.5612,71.6223 50.8946,74.6223 52.5,77.5C 50.1667,77.5 47.8333,77.5 45.5,77.5C 45.5,74.5 45.5,71.5 45.5,68.5 Z"/></g>
<g><path style="opacity:1" fill="#9da6b3" d="M 130.5,63.5 C 136.747,64.8915 143.081,65.5581 149.5,65.5C 149.5,71.5 149.5,77.5 149.5,83.5C 148.596,82.791 148.263,81.791 148.5,80.5C 142.155,80.3473 135.822,80.014 129.5,79.5C 129.5,78.5 129.5,77.5 129.5,76.5C 130.485,72.3656 130.818,68.0323 130.5,63.5 Z"/></g>
<g><path style="opacity:1" fill="#5c6067" d="M 76.5,65.5 C 79.1392,68.6707 81.8058,71.6707 84.5,74.5C 86.075,80.0764 89.7417,83.0764 95.5,83.5C 100.729,84.1244 106.062,84.4577 111.5,84.5C 111.232,86.099 111.566,87.4324 112.5,88.5C 113.219,90.7638 113.552,93.0971 113.5,95.5C 100.165,90.9996 87.8313,84.6663 76.5,76.5C 76.5,72.8333 76.5,69.1667 76.5,65.5 Z"/></g>
<g><path style="opacity:1" fill="#ac9da1" d="M 45.5,68.5 C 45.5,71.5 45.5,74.5 45.5,77.5C 47.8333,77.5 50.1667,77.5 52.5,77.5C 55.5,77.5 58.5,77.5 61.5,77.5C 61.5,78.5 61.5,79.5 61.5,80.5C 61.7373,81.791 61.404,82.791 60.5,83.5C 60.5,81.8333 60.5,80.1667 60.5,78.5C 55.1667,78.5 49.8333,78.5 44.5,78.5C 44.1872,74.9581 44.5206,71.6248 45.5,68.5 Z"/></g>
<g><path style="opacity:1" fill="#d31022" d="M 22.5,92.5 C 28.3257,110.649 39.3257,124.649 55.5,134.5C 57.4975,139.012 60.4975,142.845 64.5,146C 63.552,146.483 62.552,146.649 61.5,146.5C 58.5718,146.435 55.9052,145.768 53.5,144.5C 54.2389,144.631 54.9056,144.464 55.5,144C 38.689,123.555 21.5224,103.388 4,83.5C 3.50999,84.7932 3.34332,86.1266 3.5,87.5C 2.53178,85.3926 2.19845,83.0593 2.5,80.5C 2.33537,77.4816 2.50204,74.4816 3,71.5C 8.70919,77.5404 14.0425,83.8737 19,90.5C 19.8159,91.8228 20.9826,92.4894 22.5,92.5 Z"/></g>
<g><path style="opacity:1" fill="#808892" d="M 122.5,73.5 C 122.5,74.5 122.5,75.5 122.5,76.5C 122.882,81.1653 121.882,85.4986 119.5,89.5C 117.201,88.3649 115.034,87.0316 113,85.5C 112.517,86.448 112.351,87.448 112.5,88.5C 111.566,87.4324 111.232,86.099 111.5,84.5C 106.062,84.4577 100.729,84.1244 95.5,83.5C 102.546,85.1403 107.546,82.807 110.5,76.5C 111.475,74.4755 112.975,72.8088 115,71.5C 117.433,72.4788 119.933,73.1455 122.5,73.5 Z"/></g>
<g><path style="opacity:0.994" fill="#282425" d="M 25.5,17.5 C 25.8333,18.5 26.5,19.1667 27.5,19.5C 26.4726,21.1942 25.1392,22.5275 23.5,23.5C 22.1667,24.1667 21.1667,25.1667 20.5,26.5C 17.925,29.319 15.5917,32.319 13.5,35.5C 10.6417,39.8832 8.30838,44.5499 6.5,49.5C 5.10086,52.6988 4.10086,56.0321 3.5,59.5C 1.65358,66.588 1.32024,73.588 2.5,80.5C 2.19845,83.0593 2.53178,85.3926 3.5,87.5C 9.28873,116.098 25.9554,135.098 53.5,144.5C 55.9052,145.768 58.5718,146.435 61.5,146.5C 68.9818,147.492 76.6484,147.825 84.5,147.5C 89.8893,146.486 95.2227,145.153 100.5,143.5C 104.818,142.008 108.818,140.008 112.5,137.5C 114.853,136.66 116.853,135.326 118.5,133.5C 121.427,132.243 123.761,130.243 125.5,127.5C 122.357,123.189 119.023,119.022 115.5,115C 111.218,113.843 106.884,113.01 102.5,112.5C 94.4627,109.98 86.796,106.647 79.5,102.5C 70.9104,97.5739 63.5771,91.2406 57.5,83.5C 58.5,83.5 59.5,83.5 60.5,83.5C 61.404,82.791 61.7373,81.791 61.5,80.5C 84.5467,99.044 110.547,109.711 139.5,112.5C 127.163,132.499 109.497,144.832 86.5,149.5C 78.5,149.5 70.5,149.5 62.5,149.5C 28.5,141.5 7.5,120.5 -0.5,86.5C -0.5,78.5 -0.5,70.5 -0.5,62.5C 2.73611,44.361 11.4028,29.361 25.5,17.5 Z"/></g>
<g><path style="opacity:1" fill="#7c1621" d="M 47.5,83.5 C 49.5,83.5 51.5,83.5 53.5,83.5C 65.8513,98.5122 78.5179,113.179 91.5,127.5C 90.8333,127.5 90.5,127.833 90.5,128.5C 88.9382,128.733 87.6049,129.4 86.5,130.5C 73.7385,114.649 60.7385,98.9821 47.5,83.5 Z"/></g>
<g><path style="opacity:1" fill="#881421" d="M 41.5,83.5 C 43.5,83.5 45.5,83.5 47.5,83.5C 60.7385,98.9821 73.7385,114.649 86.5,130.5C 85.0048,130.989 83.6715,131.655 82.5,132.5C 82.1667,132.5 81.8333,132.5 81.5,132.5C 80.9278,130.745 80.0945,129.078 79,127.5C 66.2898,112.961 53.7898,98.2942 41.5,83.5 Z"/></g>
<g><path style="opacity:1" fill="#7e8691" d="M 129.5,79.5 C 135.822,80.014 142.155,80.3473 148.5,80.5C 148.263,81.791 148.596,82.791 149.5,83.5C 149.5,84.5 149.5,85.5 149.5,86.5C 148.833,86.5 148.5,86.8333 148.5,87.5C 141.532,88.203 134.532,88.8697 127.5,89.5C 128.294,86.198 128.96,82.8647 129.5,79.5 Z"/></g>
<g><path style="opacity:1" fill="#6e1822" d="M 53.5,83.5 C 54.8333,83.5 56.1667,83.5 57.5,83.5C 63.5771,91.2406 70.9104,97.5739 79.5,102.5C 84.8333,109.5 90.1667,116.5 95.5,123.5C 94.5,125.167 93.1667,126.5 91.5,127.5C 78.5179,113.179 65.8513,98.5122 53.5,83.5 Z"/></g>
<g><path style="opacity:1" fill="#e50720" d="M 53.5,144.5 C 25.9554,135.098 9.28873,116.098 3.5,87.5C 3.34332,86.1266 3.50999,84.7932 4,83.5C 21.5224,103.388 38.689,123.555 55.5,144C 54.9056,144.464 54.2389,144.631 53.5,144.5 Z"/></g>
<g><path style="opacity:1" fill="#474a4f" d="M 76.5,76.5 C 87.8313,84.6663 100.165,90.9996 113.5,95.5C 114.167,97.8333 114.833,100.167 115.5,102.5C 100.934,99.0488 87.9341,92.7155 76.5,83.5C 76.5,81.1667 76.5,78.8333 76.5,76.5 Z"/></g>
<g><path style="opacity:1" fill="#6c727a" d="M 148.5,87.5 C 148.435,90.4282 147.768,93.0948 146.5,95.5C 142.5,94.1667 138.5,94.1667 134.5,95.5C 131.74,94.8076 129.073,93.8076 126.5,92.5C 127.127,91.5832 127.461,90.5832 127.5,89.5C 134.532,88.8697 141.532,88.203 148.5,87.5 Z"/></g>
<g><path style="opacity:1" fill="#b51524" d="M 26.5,78.5 C 42.1351,96.3078 57.6351,114.308 73,132.5C 73.6917,133.437 73.525,134.103 72.5,134.5C 46.3182,124.832 30.9848,106.165 26.5,78.5 Z"/></g>
<g><path style="opacity:1" fill="#981321" d="M 25.5,62.5 C 29.5,66.8333 33.5,71.1667 37.5,75.5C 37.1936,78.3854 37.5269,81.0521 38.5,83.5C 39.5,83.5 40.5,83.5 41.5,83.5C 53.7898,98.2942 66.2898,112.961 79,127.5C 80.0945,129.078 80.9278,130.745 81.5,132.5C 78.989,133.394 76.489,134.394 74,135.5C 73.2352,135.43 72.7352,135.097 72.5,134.5C 73.525,134.103 73.6917,133.437 73,132.5C 57.6351,114.308 42.1351,96.3078 26.5,78.5C 25.6576,73.213 25.3243,67.8797 25.5,62.5 Z"/></g>
<g><path style="opacity:1" fill="#35373a" d="M 48.5,68.5 C 51.1667,68.5 53.8333,68.5 56.5,68.5C 59.8744,72.8755 63.8744,76.5422 68.5,79.5C 68.2322,81.099 68.5655,82.4324 69.5,83.5C 71.8333,83.5 74.1667,83.5 76.5,83.5C 87.9341,92.7155 100.934,99.0488 115.5,102.5C 115.222,104.346 115.889,105.68 117.5,106.5C 120.366,104.568 123.366,102.901 126.5,101.5C 132.517,102.986 138.517,103.319 144.5,102.5C 143.341,106.151 141.674,109.485 139.5,112.5C 110.547,109.711 84.5467,99.044 61.5,80.5C 61.5,79.5 61.5,78.5 61.5,77.5C 58.5,77.5 55.5,77.5 52.5,77.5C 50.8946,74.6223 49.5612,71.6223 48.5,68.5 Z"/></g>
<g><path style="opacity:1" fill="#53575c" d="M 146.5,95.5 C 146.233,97.9653 145.566,100.299 144.5,102.5C 138.517,103.319 132.517,102.986 126.5,101.5C 129.45,99.8847 132.116,97.8847 134.5,95.5C 138.5,94.1667 142.5,94.1667 146.5,95.5 Z"/></g>
<g><path style="opacity:1" fill="#5a1b22" d="M 79.5,102.5 C 86.796,106.647 94.4627,109.98 102.5,112.5C 102.932,113.71 103.599,114.71 104.5,115.5C 102.833,117.5 101.167,119.5 99.5,121.5C 98.3951,122.6 97.0618,123.267 95.5,123.5C 90.1667,116.5 84.8333,109.5 79.5,102.5 Z"/></g>
<g><path style="opacity:1" fill="#3e2023" d="M 102.5,112.5 C 106.884,113.01 111.218,113.843 115.5,115C 119.023,119.022 122.357,123.189 125.5,127.5C 123.761,130.243 121.427,132.243 118.5,133.5C 116.291,128.619 112.957,124.619 108.5,121.5C 107.66,119.147 106.326,117.147 104.5,115.5C 103.599,114.71 102.932,113.71 102.5,112.5 Z"/></g>
<g><path style="opacity:1" fill="#76494f" d="M 104.5,115.5 C 106.326,117.147 107.66,119.147 108.5,121.5C 107.5,122.833 106.5,124.167 105.5,125.5C 104.5,126.167 103.5,126.833 102.5,127.5C 102.539,124.911 101.539,122.911 99.5,121.5C 101.167,119.5 102.833,117.5 104.5,115.5 Z"/></g>
<g><path style="opacity:1" fill="#501c22" d="M 108.5,121.5 C 112.957,124.619 116.291,128.619 118.5,133.5C 116.853,135.326 114.853,136.66 112.5,137.5C 112.649,136.448 112.483,135.448 112,134.5C 108.834,132.147 106.667,129.147 105.5,125.5C 106.5,124.167 107.5,122.833 108.5,121.5 Z"/></g>
<g><path style="opacity:1" fill="#b3898d" d="M 99.5,121.5 C 101.539,122.911 102.539,124.911 102.5,127.5C 100.14,129.853 97.4735,131.853 94.5,133.5C 93.8553,131.174 92.522,129.507 90.5,128.5C 90.5,127.833 90.8333,127.5 91.5,127.5C 93.1667,126.5 94.5,125.167 95.5,123.5C 97.0618,123.267 98.3951,122.6 99.5,121.5 Z"/></g>
<g><path style="opacity:1" fill="#6c1922" d="M 105.5,125.5 C 106.667,129.147 108.834,132.147 112,134.5C 112.483,135.448 112.649,136.448 112.5,137.5C 108.818,140.008 104.818,142.008 100.5,143.5C 97.925,140.681 95.5917,137.681 93.5,134.5C 93.5,133.833 93.8333,133.5 94.5,133.5C 97.4735,131.853 100.14,129.853 102.5,127.5C 103.5,126.833 104.5,126.167 105.5,125.5 Z"/></g>
<g><path style="opacity:1" fill="#e2c6c9" d="M 90.5,128.5 C 92.522,129.507 93.8553,131.174 94.5,133.5C 93.8333,133.5 93.5,133.833 93.5,134.5C 90.8333,135.833 88.1667,137.167 85.5,138.5C 85.6602,136.801 85.4935,135.134 85,133.5C 84.3292,132.748 83.4959,132.414 82.5,132.5C 83.6715,131.655 85.0048,130.989 86.5,130.5C 87.6049,129.4 88.9382,128.733 90.5,128.5 Z"/></g>
<g><path style="opacity:1" fill="#8f1622" d="M 93.5,134.5 C 95.5917,137.681 97.925,140.681 100.5,143.5C 95.2227,145.153 89.8893,146.486 84.5,147.5C 83.5806,144.911 81.914,142.911 79.5,141.5C 81.1815,139.992 83.1815,138.992 85.5,138.5C 88.1667,137.167 90.8333,135.833 93.5,134.5 Z"/></g>
<g><path style="opacity:1" fill="#b81223" d="M 55.5,134.5 C 62.7555,139.7 70.7555,142.033 79.5,141.5C 81.914,142.911 83.5806,144.911 84.5,147.5C 76.6484,147.825 68.9818,147.492 61.5,146.5C 62.552,146.649 63.552,146.483 64.5,146C 60.4975,142.845 57.4975,139.012 55.5,134.5 Z"/></g>
</svg>
