<svg width="29" height="29" viewBox="0 0 29 29" fill="none" xmlns="http://www.w3.org/2000/svg">
    <path d="M4.68182 23.8383H2.5V17.2928H9.04545V19.4746H6.34C8.09636 22.1037 11.0964 23.8383 14.5 23.8383C17.1039 23.8383 19.6012 22.8039 21.4425 20.9626C23.2838 19.1213 24.3182 16.624 24.3182 14.0201H26.5C26.5 20.6528 21.1327 26.0201 14.5 26.0201C10.4418 26.0201 6.85273 24.0019 4.68182 20.9255V23.8383ZM2.5 14.0201C2.5 7.38735 7.86727 2.02008 14.5 2.02008C18.5582 2.02008 22.1473 4.03826 24.3182 7.11463V4.2019H26.5V10.7474H19.9545V8.56554H22.66C20.9036 5.93644 17.9036 4.2019 14.5 4.2019C11.8961 4.2019 9.39876 5.23631 7.5575 7.07758C5.71623 8.91884 4.68182 11.4161 4.68182 14.0201H2.5Z" fill="#ADB3BD"/>
    <path d="M12.8008 8.02014V12.3209H8.5V15.7194H12.8008V20.0201H16.1992V15.7194H20.5V12.3209H16.1992V8.02014H12.8008Z" fill="#ADB3BD"/>
</svg>
