<svg width="29" height="29" viewBox="0 0 29 29" fill="none" xmlns="http://www.w3.org/2000/svg">
    <path d="M21.4998 16.3535H23.8332V19.8535H27.3332V22.1868H23.8332V25.6868H21.4998V22.1868H17.9998V19.8535H21.4998V16.3535ZM14.4998 3.52014C19.6565 3.52014 23.8332 5.60847 23.8332 8.18681C23.8332 10.7651 19.6565 12.8535 14.4998 12.8535C9.34317 12.8535 5.1665 10.7651 5.1665 8.18681C5.1665 5.60847 9.34317 3.52014 14.4998 3.52014ZM5.1665 10.5201C5.1665 13.0985 9.34317 15.1868 14.4998 15.1868C19.6565 15.1868 23.8332 13.0985 23.8332 10.5201V14.1135L22.6665 14.0201C19.6448 14.0201 17.0665 15.9335 16.0865 18.6168L14.4998 18.6868C9.34317 18.6868 5.1665 16.5985 5.1665 14.0201V10.5201ZM5.1665 16.3535C5.1665 18.9318 9.34317 21.0201 14.4998 21.0201H15.6665C15.6665 22.2451 15.9815 23.4001 16.5415 24.4035L14.4998 24.5201C9.34317 24.5201 5.1665 22.4318 5.1665 19.8535V16.3535Z" fill="#ADB3BD"/>
</svg>
