<svg width="195" height="170" viewBox="0 0 195 170" fill="none" xmlns="http://www.w3.org/2000/svg">
<g filter="url(#filter0_d_5102_40287)">
<g clip-path="url(#clip0_5102_40287)">
<path d="M98 150C133.899 150 163 120.898 163 85C163 49.1015 133.899 20 98 20C62.1015 20 33 49.1015 33 85C33 120.898 62.1015 150 98 150Z" fill="#001845"/>
<path d="M126.002 117.731C112.761 115.524 78.7884 102.622 71.8025 68.4482C68.3081 51.8895 71.6074 27.67 71.6074 27.67C45.7197 39.5677 30.4097 68.0444 36.3471 97.2857C43.333 131.459 76.9149 153.738 111.288 146.793C129.006 143.323 143.203 132.8 152.451 118.743C147.841 120.842 139.243 119.938 126.002 117.731Z" fill="url(#paint0_linear_5102_40287)"/>
<path fill-rule="evenodd" clip-rule="evenodd" d="M97.0411 31.98L51.4226 57.1403V57.3367L57.006 60.8027V60.7688L97.0411 38.0899L137.076 60.7688V81.2245C137.076 88.3088 136.723 92.9962 134.655 98.5029L129.658 95.2104C128.908 94.7164 127.937 95.3846 128.131 96.2614L131.406 111.071C131.554 111.74 132.314 112.065 132.9 111.71L145.375 104.157C146.124 103.704 145.97 102.575 145.127 102.339L139.839 100.856C142.209 94.6072 142.66 89.1188 142.66 81.2245V57.1403L97.0411 31.98Z" fill="url(#paint1_linear_5102_40287)"/>
<path fill-rule="evenodd" clip-rule="evenodd" d="M57.0695 56.9014C56.7522 56.2947 55.9328 56.1791 55.46 56.6744L44.9877 67.6462C44.3677 68.2958 44.8518 69.37 45.7492 69.3359L51.7037 69.1092V81.2787C51.7037 108.799 70.6368 134.649 96.4002 140.963L97.0586 141.124L97.717 140.963C114.054 136.959 128.13 124.471 135.888 109.311L131.156 106.368C124.221 120.167 111.547 131.603 97.0586 135.384C74.3257 129.452 57.2548 106.222 57.2548 81.2787L57.2523 69.7443L62.6741 71.2512C63.5175 71.4856 64.2337 70.5999 63.828 69.8242L57.0695 56.9014Z" fill="url(#paint2_linear_5102_40287)"/>
<path d="M93.9025 115.038C84.7131 114.017 78.8308 108.035 78.0046 99.9347C77.8925 98.8358 78.7997 97.9366 79.9043 97.9366H83.3517C84.4563 97.9366 85.3336 98.8374 85.4768 99.9326C86.2205 105.623 90.2661 108.97 97.2124 108.97C104.936 108.97 109.073 104.832 109.073 99.8674C109.073 85.8001 78.456 92.9717 78.456 72.2844C78.456 65.3887 84.8001 58.2171 93.9025 57.1138V50.8389C93.9025 49.7343 94.7979 48.8389 95.9025 48.8389H98.2465C99.3511 48.8389 100.247 49.7343 100.247 50.8389V57.1138C108.122 58.3841 113.892 64.5685 114.754 72.2185C114.878 73.3161 113.97 74.2153 112.866 74.2153H109.418C108.314 74.2153 107.437 73.3129 107.259 72.2227C106.393 66.9136 102.104 63.1821 96.9366 63.1821C90.0408 63.1821 85.6276 67.8711 85.6276 72.2844C85.6276 86.3518 116.245 79.1802 116.245 99.8674C116.245 107.315 110.176 113.935 100.247 115.314V121.589C100.247 122.693 99.3511 123.589 98.2465 123.589L95.9025 123.589C94.7979 123.589 93.9025 122.693 93.9025 121.589L93.9025 115.038Z" fill="white"/>
</g>
</g>
<defs>
<filter id="filter0_d_5102_40287" x="-7" y="-16" width="210" height="210" filterUnits="userSpaceOnUse" color-interpolation-filters="sRGB">
<feFlood flood-opacity="0" result="BackgroundImageFix"/>
<feColorMatrix in="SourceAlpha" type="matrix" values="0 0 0 0 0 0 0 0 0 0 0 0 0 0 0 0 0 0 127 0" result="hardAlpha"/>
<feOffset dy="4"/>
<feGaussianBlur stdDeviation="20"/>
<feComposite in2="hardAlpha" operator="out"/>
<feColorMatrix type="matrix" values="0 0 0 0 1 0 0 0 0 1 0 0 0 0 1 0 0 0 0.4 0"/>
<feBlend mode="normal" in2="BackgroundImageFix" result="effect1_dropShadow_5102_40287"/>
<feBlend mode="normal" in="SourceGraphic" in2="effect1_dropShadow_5102_40287" result="shape"/>
</filter>
<linearGradient id="paint0_linear_5102_40287" x1="54.4363" y1="127.717" x2="107.4" y2="82.6347" gradientUnits="userSpaceOnUse">
<stop stop-color="#F3BA2F"/>
<stop offset="1" stop-color="#F3BA2F" stop-opacity="0"/>
</linearGradient>
<linearGradient id="paint1_linear_5102_40287" x1="125.278" y1="25.6907" x2="64.7033" y2="53.8535" gradientUnits="userSpaceOnUse">
<stop offset="0.445694" stop-color="white"/>
<stop offset="1" stop-color="white" stop-opacity="0"/>
</linearGradient>
<linearGradient id="paint2_linear_5102_40287" x1="66.4811" y1="158.035" x2="132.411" y2="119.831" gradientUnits="userSpaceOnUse">
<stop offset="0.559619" stop-color="white"/>
<stop offset="0.918509" stop-color="white" stop-opacity="0"/>
</linearGradient>
<clipPath id="clip0_5102_40287">
<rect x="33" y="20" width="130" height="130" rx="65" fill="white"/>
</clipPath>
</defs>
</svg>
