<svg width="195" height="170" viewBox="0 0 195 170" fill="none" xmlns="http://www.w3.org/2000/svg">
<g filter="url(#filter0_d_5102_40543)">
<g clip-path="url(#clip0_5102_40543)">
<path d="M98 150C133.899 150 163 120.898 163 85C163 49.1015 133.899 20 98 20C62.1015 20 33 49.1015 33 85C33 120.898 62.1015 150 98 150Z" fill="url(#paint0_radial_5102_40543)"/>
<path d="M126.002 117.731C112.761 115.524 78.7884 102.622 71.8025 68.4482C68.3081 51.8895 71.6074 27.67 71.6074 27.67C45.7197 39.5677 30.4097 68.0444 36.3471 97.2857C43.333 131.459 76.9149 153.738 111.288 146.793C129.006 143.323 143.203 132.8 152.451 118.743C147.841 120.842 139.243 119.938 126.002 117.731Z" fill="url(#paint1_linear_5102_40543)"/>
<path fill-rule="evenodd" clip-rule="evenodd" d="M97.6574 27.9351L49.2616 54.6271V54.8355L55.1849 58.5125V58.4765L97.6574 34.417L140.13 58.4765V80.1776C140.13 87.6931 139.755 92.6659 137.562 98.5076L132.135 94.9325C131.385 94.4384 130.414 95.1066 130.608 95.9835L134.133 111.924C134.281 112.593 135.042 112.918 135.628 112.564L149.055 104.434C149.804 103.98 149.65 102.852 148.807 102.615L143.061 101.004C145.575 94.375 146.053 88.5525 146.053 80.1776V54.6271L97.6574 27.9351Z" fill="url(#paint2_linear_5102_40543)"/>
<path fill-rule="evenodd" clip-rule="evenodd" d="M55.2138 54.2989C54.8965 53.6922 54.077 53.5766 53.6043 54.0719L42.3322 65.8816C41.7121 66.5312 42.1962 67.6055 43.0936 67.5713L49.561 67.3251V80.2355C49.561 109.432 69.6467 136.855 96.9786 143.553L97.6771 143.724L98.3756 143.553C115.707 139.305 130.64 126.057 138.87 109.975L133.851 106.852C126.493 121.491 113.048 133.624 97.6771 137.635C73.5602 131.341 55.45 106.698 55.45 80.2355L55.4474 67.999L61.3343 69.6351C62.1777 69.8695 62.8939 68.9839 62.4882 68.2082L55.2138 54.2989Z" fill="url(#paint3_linear_5102_40543)"/>
<path d="M85.3956 96.4226V101.25H69.4075V96.4226H85.3956ZM71.4292 71.2129V101.25H65.2402V71.2129H71.4292ZM83.312 83.4464V88.15H69.4075V83.4464H83.312ZM85.375 71.2129V76.0609H69.4075V71.2129H85.375Z" fill="white"/>
<path d="M98.6235 71.2129V101.25H92.4552V71.2129H98.6235ZM107.866 71.2129V76.0609H83.3574V71.2129H107.866Z" fill="white"/>
<path d="M122.476 93.39C122.476 92.8536 122.393 92.3723 122.228 91.9459C122.077 91.5058 121.788 91.107 121.362 90.7494C120.935 90.3781 120.337 90.0136 119.567 89.656C118.797 89.2984 117.8 88.9271 116.576 88.542C115.214 88.1019 113.921 87.6068 112.697 87.0566C111.487 86.5065 110.414 85.867 109.479 85.1381C108.557 84.3954 107.829 83.5358 107.292 82.5593C106.77 81.5828 106.508 80.4482 106.508 79.1554C106.508 77.9038 106.783 76.7692 107.333 75.7515C107.884 74.72 108.654 73.8398 109.644 73.1108C110.634 72.3682 111.803 71.7974 113.151 71.3986C114.513 70.9997 116.005 70.8003 117.628 70.8003C119.842 70.8003 121.774 71.1991 123.425 71.9968C125.075 72.7945 126.354 73.8879 127.262 75.277C128.183 76.6661 128.644 78.2546 128.644 80.0425H122.496C122.496 79.1623 122.311 78.3921 121.939 77.7319C121.582 77.058 121.032 76.5285 120.289 76.1434C119.56 75.7583 118.639 75.5658 117.525 75.5658C116.452 75.5658 115.558 75.7308 114.843 76.0609C114.128 76.3772 113.591 76.8105 113.234 77.3606C112.876 77.897 112.697 78.5021 112.697 79.176C112.697 79.6849 112.821 80.1456 113.069 80.5582C113.33 80.9708 113.715 81.3559 114.224 81.7135C114.733 82.0711 115.358 82.408 116.101 82.7244C116.844 83.0407 117.703 83.3501 118.68 83.6527C120.317 84.1478 121.754 84.7048 122.992 85.3237C124.243 85.9426 125.288 86.6372 126.127 87.4073C126.966 88.1775 127.599 89.0509 128.025 90.0273C128.452 91.0038 128.665 92.111 128.665 93.3488C128.665 94.6553 128.41 95.8243 127.901 96.8558C127.393 97.8873 126.657 98.7607 125.694 99.4758C124.731 100.191 123.583 100.734 122.249 101.106C120.915 101.477 119.423 101.663 117.772 101.663C116.287 101.663 114.822 101.47 113.378 101.085C111.934 100.686 110.62 100.088 109.438 99.2902C108.269 98.4925 107.333 97.4747 106.632 96.2369C105.931 94.9991 105.58 93.5344 105.58 91.8428H111.79C111.79 92.778 111.934 93.5688 112.223 94.2152C112.512 94.8616 112.917 95.3842 113.44 95.7831C113.976 96.1819 114.609 96.4707 115.338 96.6495C116.081 96.8283 116.892 96.9177 117.772 96.9177C118.845 96.9177 119.725 96.7664 120.413 96.4639C121.114 96.1613 121.63 95.7418 121.96 95.2054C122.304 94.6691 122.476 94.0639 122.476 93.39Z" fill="white"/>
</g>
</g>
<defs>
<filter id="filter0_d_5102_40543" x="-7" y="-16" width="210" height="210" filterUnits="userSpaceOnUse" color-interpolation-filters="sRGB">
<feFlood flood-opacity="0" result="BackgroundImageFix"/>
<feColorMatrix in="SourceAlpha" type="matrix" values="0 0 0 0 0 0 0 0 0 0 0 0 0 0 0 0 0 0 127 0" result="hardAlpha"/>
<feOffset dy="4"/>
<feGaussianBlur stdDeviation="20"/>
<feComposite in2="hardAlpha" operator="out"/>
<feColorMatrix type="matrix" values="0 0 0 0 1 0 0 0 0 1 0 0 0 0 1 0 0 0 0.4 0"/>
<feBlend mode="normal" in2="BackgroundImageFix" result="effect1_dropShadow_5102_40543"/>
<feBlend mode="normal" in="SourceGraphic" in2="effect1_dropShadow_5102_40543" result="shape"/>
</filter>
<radialGradient id="paint0_radial_5102_40543" cx="0" cy="0" r="1" gradientUnits="userSpaceOnUse" gradientTransform="translate(163 1.79999) rotate(129.992) scale(165.866)">
<stop offset="0.209938" stop-color="#FF86AE"/>
<stop offset="0.400641" stop-color="#EC276B"/>
<stop offset="0.710502" stop-color="#4E0A1B"/>
</radialGradient>
<linearGradient id="paint1_linear_5102_40543" x1="54.4363" y1="127.717" x2="107.4" y2="82.6347" gradientUnits="userSpaceOnUse">
<stop stop-color="#FF0420"/>
<stop offset="1" stop-color="#FF0420" stop-opacity="0"/>
</linearGradient>
<linearGradient id="paint2_linear_5102_40543" x1="127.685" y1="21.2601" x2="63.3751" y2="51.1743" gradientUnits="userSpaceOnUse">
<stop offset="0.445694" stop-color="white"/>
<stop offset="1" stop-color="white" stop-opacity="0"/>
</linearGradient>
<linearGradient id="paint3_linear_5102_40543" x1="65.1719" y1="161.673" x2="135.164" y2="121.098" gradientUnits="userSpaceOnUse">
<stop offset="0.559619" stop-color="white"/>
<stop offset="0.918509" stop-color="white" stop-opacity="0"/>
</linearGradient>
<clipPath id="clip0_5102_40543">
<rect x="33" y="20" width="130" height="130" rx="65" fill="white"/>
</clipPath>
</defs>
</svg>
