<svg width="195" height="170" viewBox="0 0 195 170" fill="none" xmlns="http://www.w3.org/2000/svg">
<g filter="url(#filter0_d_5102_41076)">
<g clip-path="url(#clip0_5102_41076)">
<path d="M98 150C133.899 150 163 120.898 163 85C163 49.1015 133.899 20 98 20C62.1015 20 33 49.1015 33 85C33 120.898 62.1015 150 98 150Z" fill="#001845"/>
<path d="M126.002 117.731C112.761 115.524 78.7884 102.622 71.8025 68.4482C68.3081 51.8895 71.6074 27.67 71.6074 27.67C45.7197 39.5677 30.4097 68.0444 36.3471 97.2857C43.333 131.459 76.9149 153.738 111.288 146.793C129.006 143.323 143.203 132.8 152.451 118.743C147.841 120.842 139.243 119.938 126.002 117.731Z" fill="url(#paint0_linear_5102_41076)"/>
<path fill-rule="evenodd" clip-rule="evenodd" d="M97.0403 31.98L51.4218 57.1403V57.3367L57.0051 60.8027V60.7688L97.0403 38.0899L137.075 60.7688V81.2245C137.075 88.3086 136.722 92.996 134.655 98.5025L129.658 95.2105C128.908 94.7164 127.937 95.3846 128.131 96.2614L131.406 111.071C131.554 111.74 132.314 112.065 132.9 111.711L145.375 104.157C146.124 103.704 145.97 102.575 145.127 102.339L139.838 100.856C142.208 94.6071 142.659 89.1187 142.659 81.2245V57.1403L97.0403 31.98Z" fill="url(#paint1_linear_5102_41076)"/>
<path fill-rule="evenodd" clip-rule="evenodd" d="M57.0695 56.9014C56.7522 56.2947 55.9328 56.1791 55.46 56.6744L44.9877 67.6462C44.3677 68.2958 44.8518 69.37 45.7492 69.3359L51.7037 69.1092V81.2787C51.7037 108.799 70.6368 134.649 96.4002 140.963L97.0586 141.124L97.717 140.963C114.054 136.959 128.13 124.471 135.888 109.311L131.156 106.368C124.221 120.167 111.547 131.603 97.0586 135.384C74.3257 129.452 57.2548 106.222 57.2548 81.2787L57.2523 69.7443L62.6741 71.2512C63.5175 71.4856 64.2337 70.5999 63.828 69.8242L57.0695 56.9014Z" fill="url(#paint2_linear_5102_41076)"/>
<path d="M89.1438 54.7749H95.2172V74.3155C95.2172 76.5905 94.7297 78.5067 93.7547 80.064C92.7932 81.6213 91.4594 82.7926 89.7531 83.578C88.0604 84.3634 86.1104 84.7562 83.9031 84.7562C81.6958 84.7562 79.7323 84.3634 78.0125 83.578C76.3063 82.7926 74.9656 81.6213 73.9906 80.064C73.0292 78.5067 72.5484 76.5905 72.5484 74.3155V54.7749H78.6422V74.3155C78.6422 75.6426 78.8521 76.7259 79.2719 77.5655C79.6917 78.4051 80.2943 79.0213 81.0797 79.414C81.8786 79.8067 82.8198 80.003 83.9031 80.003C85.0135 80.003 85.9547 79.8067 86.7266 79.414C87.512 79.0213 88.1078 78.4051 88.5141 77.5655C88.9339 76.7259 89.1438 75.6426 89.1438 74.3155V54.7749Z" fill="white"/>
<path d="M115.631 76.6108C115.631 76.0827 115.55 75.6088 115.388 75.189C115.239 74.7556 114.954 74.3629 114.534 74.0108C114.115 73.6452 113.526 73.2864 112.767 72.9343C112.009 72.5822 111.027 72.2166 109.822 71.8374C108.481 71.4041 107.208 70.9166 106.003 70.3749C104.811 69.8332 103.755 69.2035 102.834 68.4858C101.927 67.7546 101.209 66.9082 100.681 65.9468C100.167 64.9853 99.9094 63.8681 99.9094 62.5952C99.9094 61.3629 100.18 60.2457 100.722 59.2437C101.264 58.228 102.022 57.3614 102.997 56.6437C103.972 55.9124 105.123 55.3504 106.45 54.9577C107.791 54.565 109.26 54.3687 110.858 54.3687C113.038 54.3687 114.941 54.7614 116.566 55.5468C118.191 56.3322 119.45 57.4088 120.344 58.7765C121.251 60.1442 121.705 61.7082 121.705 63.4687H115.652C115.652 62.602 115.469 61.8437 115.103 61.1937C114.751 60.5301 114.209 60.0088 113.478 59.6296C112.76 59.2504 111.853 59.0608 110.756 59.0608C109.7 59.0608 108.82 59.2233 108.116 59.5483C107.411 59.8598 106.883 60.2864 106.531 60.828C106.179 61.3562 106.003 61.952 106.003 62.6155C106.003 63.1166 106.125 63.5702 106.369 63.9765C106.626 64.3827 107.005 64.7619 107.506 65.114C108.007 65.466 108.623 65.7978 109.355 66.1093C110.086 66.4207 110.932 66.7254 111.894 67.0233C113.505 67.5108 114.92 68.0593 116.139 68.6687C117.371 69.278 118.401 69.9619 119.227 70.7202C120.053 71.4785 120.676 72.3384 121.095 73.2999C121.515 74.2614 121.725 75.3515 121.725 76.5702C121.725 77.8567 121.474 79.0077 120.973 80.0233C120.472 81.039 119.748 81.8989 118.8 82.603C117.852 83.3072 116.721 83.8421 115.408 84.2077C114.094 84.5733 112.625 84.7562 111 84.7562C109.538 84.7562 108.095 84.5666 106.673 84.1874C105.252 83.7947 103.958 83.2056 102.794 82.4202C101.643 81.6348 100.722 80.6327 100.031 79.414C99.3406 78.1952 98.9953 76.753 98.9953 75.0874H105.109C105.109 76.0082 105.252 76.7869 105.536 77.4233C105.82 78.0598 106.22 78.5744 106.734 78.9671C107.263 79.3598 107.885 79.6442 108.603 79.8202C109.334 79.9963 110.133 80.0843 111 80.0843C112.056 80.0843 112.923 79.9353 113.6 79.6374C114.291 79.3395 114.798 78.9265 115.123 78.3983C115.462 77.8702 115.631 77.2744 115.631 76.6108Z" fill="white"/>
<path d="M81.2828 116.85H74.8438L74.8844 112.097H81.2828C82.8807 112.097 84.2281 111.738 85.325 111.02C86.4219 110.289 87.2479 109.226 87.8031 107.831C88.3719 106.436 88.6562 104.75 88.6562 102.773V101.331C88.6562 99.8145 88.4938 98.4806 88.1688 97.3296C87.8573 96.1786 87.3901 95.2103 86.7672 94.4249C86.1443 93.6395 85.3792 93.0504 84.4719 92.6577C83.5646 92.2515 82.5219 92.0483 81.3438 92.0483H74.7219V87.2749H81.3438C83.3208 87.2749 85.1286 87.6134 86.7672 88.2905C88.4193 88.9541 89.8479 89.9088 91.0531 91.1546C92.2583 92.4004 93.1859 93.89 93.8359 95.6233C94.4995 97.3431 94.8313 99.2593 94.8313 101.372V102.773C94.8313 104.872 94.4995 106.788 93.8359 108.522C93.1859 110.255 92.2583 111.745 91.0531 112.991C89.8615 114.223 88.4328 115.178 86.7672 115.855C85.1151 116.518 83.287 116.85 81.2828 116.85ZM78.2969 87.2749V116.85H72.2031V87.2749H78.2969Z" fill="white"/>
<path d="M116.403 107.039H122.477C122.355 109.03 121.806 110.797 120.831 112.341C119.87 113.884 118.522 115.089 116.789 115.956C115.069 116.823 112.997 117.256 110.573 117.256C108.678 117.256 106.978 116.931 105.475 116.281C103.972 115.618 102.685 114.67 101.616 113.437C100.559 112.205 99.7536 110.716 99.1984 108.969C98.6432 107.222 98.3656 105.265 98.3656 103.098V101.047C98.3656 98.8801 98.65 96.9233 99.2188 95.1765C99.801 93.416 100.627 91.9197 101.697 90.6874C102.78 89.4551 104.073 88.5072 105.577 87.8437C107.08 87.1801 108.759 86.8483 110.614 86.8483C113.079 86.8483 115.157 87.2952 116.85 88.189C118.556 89.0827 119.877 90.315 120.811 91.8858C121.759 93.4567 122.328 95.2442 122.517 97.2483H116.423C116.356 96.0567 116.119 95.0478 115.713 94.2218C115.306 93.3822 114.69 92.7525 113.864 92.3327C113.052 91.8994 111.968 91.6827 110.614 91.6827C109.598 91.6827 108.711 91.8723 107.953 92.2515C107.195 92.6306 106.558 93.2062 106.044 93.978C105.529 94.7499 105.143 95.7249 104.886 96.903C104.642 98.0676 104.52 99.4353 104.52 101.006V103.098C104.52 104.629 104.635 105.976 104.866 107.141C105.096 108.292 105.448 109.267 105.922 110.066C106.409 110.851 107.032 111.447 107.791 111.853C108.563 112.246 109.49 112.442 110.573 112.442C111.846 112.442 112.896 112.239 113.722 111.833C114.548 111.426 115.178 110.824 115.611 110.025C116.058 109.226 116.322 108.231 116.403 107.039Z" fill="white"/>
</g>
</g>
<defs>
<filter id="filter0_d_5102_41076" x="-7" y="-16" width="210" height="210" filterUnits="userSpaceOnUse" color-interpolation-filters="sRGB">
<feFlood flood-opacity="0" result="BackgroundImageFix"/>
<feColorMatrix in="SourceAlpha" type="matrix" values="0 0 0 0 0 0 0 0 0 0 0 0 0 0 0 0 0 0 127 0" result="hardAlpha"/>
<feOffset dy="4"/>
<feGaussianBlur stdDeviation="20"/>
<feComposite in2="hardAlpha" operator="out"/>
<feColorMatrix type="matrix" values="0 0 0 0 1 0 0 0 0 1 0 0 0 0 1 0 0 0 0.4 0"/>
<feBlend mode="normal" in2="BackgroundImageFix" result="effect1_dropShadow_5102_41076"/>
<feBlend mode="normal" in="SourceGraphic" in2="effect1_dropShadow_5102_41076" result="shape"/>
</filter>
<linearGradient id="paint0_linear_5102_41076" x1="54.4363" y1="127.717" x2="107.4" y2="82.6347" gradientUnits="userSpaceOnUse">
<stop stop-color="#8247E5"/>
<stop offset="1" stop-color="#8247E5" stop-opacity="0"/>
</linearGradient>
<linearGradient id="paint1_linear_5102_41076" x1="125.278" y1="25.6907" x2="64.7027" y2="53.8539" gradientUnits="userSpaceOnUse">
<stop offset="0.445694" stop-color="white"/>
<stop offset="1" stop-color="white" stop-opacity="0"/>
</linearGradient>
<linearGradient id="paint2_linear_5102_41076" x1="66.4811" y1="158.035" x2="132.411" y2="119.831" gradientUnits="userSpaceOnUse">
<stop offset="0.559619" stop-color="white"/>
<stop offset="0.918509" stop-color="white" stop-opacity="0"/>
</linearGradient>
<clipPath id="clip0_5102_41076">
<rect x="33" y="20" width="130" height="130" rx="65" fill="white"/>
</clipPath>
</defs>
</svg>
