<svg width="195" height="170" viewBox="0 0 195 170" fill="none" xmlns="http://www.w3.org/2000/svg">
<g filter="url(#filter0_d_5102_41184)">
<g clip-path="url(#clip0_5102_41184)">
<path d="M98 150C133.899 150 163 120.898 163 85C163 49.1015 133.899 20 98 20C62.1015 20 33 49.1015 33 85C33 120.898 62.1015 150 98 150Z" fill="#001845"/>
<path d="M126.002 117.731C112.761 115.524 78.7884 102.622 71.8025 68.4482C68.3081 51.8895 71.6074 27.67 71.6074 27.67C45.7197 39.5677 30.4097 68.0444 36.3471 97.2857C43.333 131.459 76.9149 153.738 111.288 146.793C129.006 143.323 143.203 132.8 152.451 118.743C147.841 120.842 139.243 119.938 126.002 117.731Z" fill="url(#paint0_linear_5102_41184)"/>
<path fill-rule="evenodd" clip-rule="evenodd" d="M97.0407 31.98L51.4222 57.1403V57.3367L57.0055 60.8027V60.7688L97.0407 38.0899L137.076 60.7688V81.2245C137.076 88.3086 136.722 92.996 134.655 98.5025L128.937 94.7357C128.45 94.4146 127.819 94.8489 127.945 95.4189L131.512 111.548C131.608 111.982 132.102 112.194 132.483 111.963L146.066 103.739C146.553 103.444 146.453 102.711 145.905 102.557L139.839 100.856C142.208 94.6071 142.659 89.1187 142.659 81.2245V57.1403L97.0407 31.98Z" fill="url(#paint1_linear_5102_41184)"/>
<path fill-rule="evenodd" clip-rule="evenodd" d="M56.8443 56.469C56.638 56.0746 56.1054 55.9995 55.7981 56.3214L44.3929 68.2705C43.9899 68.6928 44.3045 69.391 44.8878 69.3688L51.7047 69.1094V81.2788C51.7047 108.799 70.6378 134.649 96.4012 140.963L97.0596 141.124L97.718 140.963C114.055 136.959 128.131 124.471 135.889 109.312L131.157 106.368C124.222 120.167 111.548 131.603 97.0596 135.384C74.3267 129.452 57.2558 106.222 57.2558 81.2788L57.2533 69.7445L63.4532 71.4676C64.0014 71.6199 64.4669 71.0443 64.2033 70.5401L56.8443 56.469Z" fill="url(#paint2_linear_5102_41184)"/>
<path d="M85.2238 73.3204H77.627L77.5863 69.136H83.9645C85.0884 69.136 86.0092 68.9938 86.727 68.7095C87.4447 68.4116 87.9796 67.985 88.3316 67.4298C88.6973 66.861 88.8801 66.1704 88.8801 65.3579C88.8801 64.4371 88.704 63.6923 88.352 63.1235C88.0134 62.5548 87.4785 62.1418 86.7473 61.8845C86.0296 61.6272 85.102 61.4985 83.9645 61.4985H79.7395V86.3001H73.6457V56.7251H83.9645C85.6842 56.7251 87.2212 56.8876 88.5754 57.2126C89.9431 57.5376 91.1009 58.0319 92.0488 58.6954C92.9967 59.359 93.7212 60.1985 94.2223 61.2142C94.7233 62.2162 94.9738 63.4079 94.9738 64.7892C94.9738 66.0079 94.6962 67.1319 94.141 68.161C93.5993 69.1902 92.7395 70.0298 91.5613 70.6798C90.3967 71.3298 88.8733 71.6886 86.991 71.7563L85.2238 73.3204ZM84.9598 86.3001H75.9613L78.3379 81.547H84.9598C86.0296 81.547 86.903 81.3777 87.5801 81.0392C88.2572 80.6871 88.7582 80.2131 89.0832 79.6173C89.4082 79.0215 89.5707 78.3376 89.5707 77.5657C89.5707 76.6991 89.4217 75.9475 89.1238 75.311C88.8395 74.6746 88.379 74.1871 87.7426 73.8485C87.1061 73.4965 86.2665 73.3204 85.2238 73.3204H79.3535L79.3941 69.136H86.7066L88.1082 70.7813C89.9092 70.7543 91.3582 71.0725 92.4551 71.736C93.5655 72.386 94.3712 73.2324 94.8723 74.2751C95.3868 75.3178 95.6441 76.435 95.6441 77.6267C95.6441 79.5225 95.2311 81.1204 94.4051 82.4204C93.579 83.7069 92.3671 84.6751 90.7691 85.3251C89.1848 85.9751 87.2483 86.3001 84.9598 86.3001Z" fill="white"/>
<path d="M116.546 56.7251H122.619V76.2657C122.619 78.5407 122.132 80.4569 121.157 82.0142C120.195 83.5715 118.861 84.7428 117.155 85.5282C115.462 86.3136 113.512 86.7063 111.305 86.7063C109.098 86.7063 107.134 86.3136 105.414 85.5282C103.708 84.7428 102.368 83.5715 101.393 82.0142C100.431 80.4569 99.9504 78.5407 99.9504 76.2657V56.7251H106.044V76.2657C106.044 77.5928 106.254 78.6761 106.674 79.5157C107.094 80.3553 107.696 80.9715 108.482 81.3642C109.281 81.7569 110.222 81.9532 111.305 81.9532C112.415 81.9532 113.357 81.7569 114.129 81.3642C114.914 80.9715 115.51 80.3553 115.916 79.5157C116.336 78.6761 116.546 77.5928 116.546 76.2657V56.7251Z" fill="white"/>
<path d="M89.6926 111.061C89.6926 110.533 89.6113 110.059 89.4488 109.639C89.2999 109.206 89.0155 108.813 88.5957 108.461C88.1759 108.095 87.5868 107.737 86.8285 107.384C86.0702 107.032 85.0884 106.667 83.8832 106.288C82.5426 105.854 81.2697 105.367 80.0645 104.825C78.8728 104.283 77.8165 103.654 76.8957 102.936C75.9884 102.205 75.2707 101.358 74.7426 100.397C74.228 99.4355 73.9707 98.3183 73.9707 97.0454C73.9707 95.8131 74.2415 94.6959 74.7832 93.6939C75.3249 92.6782 76.0832 91.8116 77.0582 91.0938C78.0332 90.3626 79.1842 89.8006 80.5113 89.4079C81.852 89.0152 83.3212 88.8188 84.9191 88.8188C87.0993 88.8188 89.002 89.2116 90.627 89.997C92.252 90.7824 93.5113 91.859 94.4051 93.2267C95.3124 94.5944 95.766 96.1584 95.766 97.9188H89.7129C89.7129 97.0522 89.5301 96.2938 89.1645 95.6438C88.8124 94.9803 88.2707 94.459 87.5395 94.0798C86.8217 93.7006 85.9145 93.511 84.8176 93.511C83.7613 93.511 82.8811 93.6735 82.177 93.9985C81.4728 94.31 80.9447 94.7366 80.5926 95.2782C80.2405 95.8064 80.0645 96.4022 80.0645 97.0657C80.0645 97.5668 80.1863 98.0204 80.4301 98.4267C80.6874 98.8329 81.0665 99.2121 81.5676 99.5642C82.0686 99.9162 82.6848 100.248 83.416 100.559C84.1473 100.871 84.9936 101.176 85.9551 101.474C87.5665 101.961 88.9816 102.509 90.2004 103.119C91.4327 103.728 92.4618 104.412 93.2879 105.17C94.1139 105.929 94.7368 106.789 95.1566 107.75C95.5764 108.712 95.7863 109.802 95.7863 111.02C95.7863 112.307 95.5358 113.458 95.0348 114.474C94.5337 115.489 93.8092 116.349 92.8613 117.053C91.9134 117.757 90.7827 118.292 89.4691 118.658C88.1556 119.024 86.6863 119.206 85.0613 119.206C83.5988 119.206 82.1566 119.017 80.7348 118.638C79.3129 118.245 78.0197 117.656 76.8551 116.87C75.704 116.085 74.7832 115.083 74.0926 113.864C73.402 112.645 73.0566 111.203 73.0566 109.538H79.1707C79.1707 110.458 79.3129 111.237 79.5973 111.874C79.8816 112.51 80.2811 113.025 80.7957 113.417C81.3238 113.81 81.9467 114.094 82.6645 114.27C83.3957 114.446 84.1947 114.534 85.0613 114.534C86.1176 114.534 86.9842 114.386 87.6613 114.088C88.352 113.79 88.8598 113.377 89.1848 112.849C89.5233 112.32 89.6926 111.725 89.6926 111.061Z" fill="white"/>
<path d="M109.01 118.8H102.571L102.611 114.047H109.01C110.608 114.047 111.955 113.688 113.052 112.97C114.149 112.239 114.975 111.176 115.53 109.781C116.099 108.387 116.383 106.701 116.383 104.724V103.281C116.383 101.765 116.221 100.431 115.896 99.2798C115.584 98.1287 115.117 97.1605 114.494 96.3751C113.871 95.5897 113.106 95.0006 112.199 94.6079C111.292 94.2017 110.249 93.9985 109.071 93.9985H102.449V89.2251H109.071C111.048 89.2251 112.856 89.5636 114.494 90.2407C116.146 90.9043 117.575 91.859 118.78 93.1048C119.985 94.3506 120.913 95.8402 121.563 97.5735C122.226 99.2933 122.558 101.209 122.558 103.322V104.724C122.558 106.822 122.226 108.739 121.563 110.472C120.913 112.205 119.985 113.695 118.78 114.941C117.588 116.173 116.16 117.128 114.494 117.805C112.842 118.468 111.014 118.8 109.01 118.8ZM106.024 89.2251V118.8H99.9301V89.2251H106.024Z" fill="white"/>
</g>
</g>
<defs>
<filter id="filter0_d_5102_41184" x="-7" y="-16" width="210" height="210" filterUnits="userSpaceOnUse" color-interpolation-filters="sRGB">
<feFlood flood-opacity="0" result="BackgroundImageFix"/>
<feColorMatrix in="SourceAlpha" type="matrix" values="0 0 0 0 0 0 0 0 0 0 0 0 0 0 0 0 0 0 127 0" result="hardAlpha"/>
<feOffset dy="4"/>
<feGaussianBlur stdDeviation="20"/>
<feComposite in2="hardAlpha" operator="out"/>
<feColorMatrix type="matrix" values="0 0 0 0 1 0 0 0 0 1 0 0 0 0 1 0 0 0 0.4 0"/>
<feBlend mode="normal" in2="BackgroundImageFix" result="effect1_dropShadow_5102_41184"/>
<feBlend mode="normal" in="SourceGraphic" in2="effect1_dropShadow_5102_41184" result="shape"/>
</filter>
<linearGradient id="paint0_linear_5102_41184" x1="54.4363" y1="127.717" x2="107.4" y2="82.6347" gradientUnits="userSpaceOnUse">
<stop stop-color="#F3BA2F"/>
<stop offset="1" stop-color="#F3BA2F" stop-opacity="0"/>
</linearGradient>
<linearGradient id="paint1_linear_5102_41184" x1="125.687" y1="25.6748" x2="64.8414" y2="54.0482" gradientUnits="userSpaceOnUse">
<stop offset="0.445694" stop-color="white"/>
<stop offset="1" stop-color="white" stop-opacity="0"/>
</linearGradient>
<linearGradient id="paint2_linear_5102_41184" x1="66.1029" y1="158.084" x2="132.308" y2="119.622" gradientUnits="userSpaceOnUse">
<stop offset="0.559619" stop-color="white"/>
<stop offset="0.918509" stop-color="white" stop-opacity="0"/>
</linearGradient>
<clipPath id="clip0_5102_41184">
<rect x="33" y="20" width="130" height="130" rx="65" fill="white"/>
</clipPath>
</defs>
</svg>
