<svg width="195" height="170" viewBox="0 0 195 170" fill="none" xmlns="http://www.w3.org/2000/svg">
<g filter="url(#filter0_d_5102_39488)">
<g clip-path="url(#clip0_5102_39488)">
<path d="M98.3701 149.696C134.126 149.696 163.112 120.71 163.112 84.9541C163.112 49.1979 134.126 20.2119 98.3701 20.2119C62.614 20.2119 33.6279 49.1979 33.6279 84.9541C33.6279 120.71 62.614 149.696 98.3701 149.696Z" fill="#001845"/>
<path d="M132.232 117.398C103.524 123.198 75.4774 104.592 69.643 76.051C66.7245 62.2217 69.7217 48.4091 76.8523 37.255C55.2317 47.1916 42.4452 70.9745 47.404 95.396C53.2384 123.937 81.285 142.543 109.993 136.743C124.79 133.845 136.647 125.057 144.37 113.316C140.52 115.069 136.671 116.529 132.232 117.398Z" fill="url(#paint0_linear_5102_39488)"/>
<path d="M94.9749 113.958C85.7041 112.928 79.7719 106.89 78.9452 98.7149C78.8341 97.6159 79.7411 96.7168 80.8457 96.7168H84.3541C85.4587 96.7168 86.3362 97.6173 86.4781 98.7127C87.2222 104.46 91.3021 107.84 98.312 107.84C106.098 107.84 110.27 103.669 110.27 98.6634C110.27 84.4808 79.4019 91.7111 79.4019 70.8544C79.4019 63.9022 85.798 56.6718 94.9749 55.5595V49.2168C94.9749 48.1122 95.8703 47.2168 96.9749 47.2168H99.371C100.476 47.2168 101.371 48.1122 101.371 49.2168V55.5595C109.317 56.8411 115.137 63.0841 115.999 70.8042C116.122 71.902 115.214 72.8011 114.11 72.8011H110.601C109.497 72.8011 108.62 71.8988 108.443 70.8084C107.577 65.4472 103.249 61.6775 98.0339 61.6775C91.0817 61.6775 86.6322 66.405 86.6322 70.8544C86.6322 85.037 117.5 77.8067 117.5 98.6634C117.5 106.172 111.382 112.846 101.371 114.236V120.579C101.371 121.684 100.476 122.579 99.371 122.579L96.9749 122.579C95.8703 122.579 94.9749 121.684 94.9749 120.579V113.958Z" fill="white"/>
<path fill-rule="evenodd" clip-rule="evenodd" d="M148.209 108.295L151.606 110.708C152.372 111.251 152.292 112.412 151.459 112.846L140.461 118.576C139.587 119.031 138.554 118.35 138.628 117.368L139.596 104.513C139.67 103.538 140.779 103.017 141.576 103.583L144.622 105.747C152.399 88.0726 149.525 66.7117 135.606 51.6111C117.005 31.4312 85.6643 30.0076 65.3144 48.3061C65.0565 48.538 64.6574 48.524 64.4223 48.269L62.3483 46.0189C62.1132 45.7639 62.1312 45.3644 62.3889 45.1322C84.4917 25.2183 118.563 26.7532 138.78 48.6858C154.116 65.3237 157.102 88.9497 148.209 108.295Z" fill="#23DD00"/>
<path fill-rule="evenodd" clip-rule="evenodd" d="M50.0949 61.7429L46.6974 59.3298C45.932 58.7861 46.0118 57.6256 46.8444 57.1918L57.8431 51.4614C58.7164 51.0064 59.7499 51.6877 59.6759 52.6697L58.7076 65.5246C58.6342 66.4993 57.5247 67.0203 56.7278 66.4543L53.6814 64.2905C45.9042 81.965 48.7784 103.326 62.6978 118.427C81.299 138.606 112.639 140.03 132.989 121.731C133.247 121.5 133.646 121.514 133.881 121.769L135.955 124.019C136.191 124.274 136.172 124.673 135.915 124.905C113.812 144.819 79.741 143.284 59.5242 121.352C44.1878 104.714 41.2015 81.0879 50.0949 61.7429Z" fill="#23DD00"/>
</g>
</g>
<defs>
<filter id="filter0_d_5102_39488" x="-7" y="-16" width="210" height="210" filterUnits="userSpaceOnUse" color-interpolation-filters="sRGB">
<feFlood flood-opacity="0" result="BackgroundImageFix"/>
<feColorMatrix in="SourceAlpha" type="matrix" values="0 0 0 0 0 0 0 0 0 0 0 0 0 0 0 0 0 0 127 0" result="hardAlpha"/>
<feOffset dy="4"/>
<feGaussianBlur stdDeviation="20"/>
<feComposite in2="hardAlpha" operator="out"/>
<feColorMatrix type="matrix" values="0 0 0 0 1 0 0 0 0 1 0 0 0 0 1 0 0 0 0.4 0"/>
<feBlend mode="normal" in2="BackgroundImageFix" result="effect1_dropShadow_5102_39488"/>
<feBlend mode="normal" in="SourceGraphic" in2="effect1_dropShadow_5102_39488" result="shape"/>
</filter>
<linearGradient id="paint0_linear_5102_39488" x1="43.5194" y1="149.191" x2="103.373" y2="79.679" gradientUnits="userSpaceOnUse">
<stop offset="0.0729167" stop-color="#FFD923"/>
<stop offset="0.4775" stop-color="#0466C8"/>
<stop offset="1" stop-color="#001845"/>
</linearGradient>
<clipPath id="clip0_5102_39488">
<rect x="33" y="20" width="130" height="130" rx="65" fill="white"/>
</clipPath>
</defs>
</svg>
