<?xml version="1.0" encoding="UTF-8"?>
<!DOCTYPE svg PUBLIC "-//W3C//DTD SVG 1.1//EN" "http://www.w3.org/Graphics/SVG/1.1/DTD/svg11.dtd">
<svg xmlns="http://www.w3.org/2000/svg" version="1.1" width="160px" height="160px" style="shape-rendering:geometricPrecision; text-rendering:geometricPrecision; image-rendering:optimizeQuality; fill-rule:evenodd; clip-rule:evenodd" xmlns:xlink="http://www.w3.org/1999/xlink">
<g><path style="opacity:0.133" fill="#0e2a31" d="M 55.5,2.5 C 56.6009,1.40168 57.9343,1.23502 59.5,2C 58.9341,2.9947 58.2674,3.82803 57.5,4.5C 57.5,3.16667 56.8333,2.5 55.5,2.5 Z"/></g>
<g><path style="opacity:1" fill="#64c0b3" d="M 83.5,-0.5 C 86.5,-0.5 89.5,-0.5 92.5,-0.5C 97.8497,0.84224 103.183,2.50891 108.5,4.5C 108.5,4.83333 108.5,5.16667 108.5,5.5C 107.5,5.5 106.5,5.5 105.5,5.5C 105.5,8.16667 105.5,10.8333 105.5,13.5C 112.882,13.487 117.549,16.8203 119.5,23.5C 118.833,23.5 118.167,23.5 117.5,23.5C 117.027,22.0937 116.027,21.427 114.5,21.5C 114.027,20.0937 113.027,19.427 111.5,19.5C 111.167,19.5 110.833,19.5 110.5,19.5C 110.027,18.0937 109.027,17.427 107.5,17.5C 105.165,14.8352 102.165,13.5018 98.5,13.5C 98.0825,12.7784 97.4158,12.2784 96.5,12C 93.854,11.5026 91.1873,11.3359 88.5,11.5C 87.0813,10.5489 85.4147,10.2155 83.5,10.5C 85.2646,9.53862 87.2646,9.20528 89.5,9.5C 89.5,6.5 89.5,3.5 89.5,0.5C 87.2646,0.794717 85.2646,0.461384 83.5,-0.5 Z"/></g>
<g><path style="opacity:1" fill="#409291" d="M 55.5,2.5 C 56.8333,2.5 57.5,3.16667 57.5,4.5C 56.5,4.83333 55.8333,5.5 55.5,6.5C 55.2064,9.75414 53.873,12.4208 51.5,14.5C 52.5527,11.1485 52.5527,7.81513 51.5,4.5C 49.9291,5.30937 48.2624,5.64271 46.5,5.5C 48.9557,3.1324 51.9557,2.1324 55.5,2.5 Z"/></g>
<g><path style="opacity:0.004" fill="#09151a" d="M 57.5,4.5 C 57.5,5.83333 56.8333,6.5 55.5,6.5C 55.8333,5.5 56.5,4.83333 57.5,4.5 Z"/></g>
<g><path style="opacity:0.82" fill="#407074" d="M 46.5,5.5 C 45.3646,7.21321 43.698,7.87988 41.5,7.5C 42.6354,5.78679 44.302,5.12012 46.5,5.5 Z"/></g>
<g><path style="opacity:0.667" fill="#4d6e73" d="M 108.5,5.5 C 108.5,5.16667 108.5,4.83333 108.5,4.5C 112.299,5.42085 115.632,7.08752 118.5,9.5C 114.741,9.1379 111.407,7.80457 108.5,5.5 Z"/></g>
<g><path style="opacity:0.427" fill="#25494f" d="M 41.5,7.5 C 41.1667,8.5 40.5,9.16667 39.5,9.5C 39.1667,9.5 38.8333,9.5 38.5,9.5C 38.9731,8.09368 39.9731,7.42702 41.5,7.5 Z"/></g>
<g><path style="opacity:1" fill="#94d1c9" d="M 51.5,14.5 C 51.1583,15.3382 50.4916,15.6716 49.5,15.5C 47.6203,15.2291 46.287,15.8958 45.5,17.5C 43.4862,17.3915 41.8195,18.0582 40.5,19.5C 39.8354,17.6309 39.1687,15.6309 38.5,13.5C 37.0353,14.6087 36.0353,14.1087 35.5,12C 37.3197,11.7996 38.653,10.9663 39.5,9.5C 40.5,9.16667 41.1667,8.5 41.5,7.5C 43.698,7.87988 45.3646,7.21321 46.5,5.5C 48.2624,5.64271 49.9291,5.30937 51.5,4.5C 52.5527,7.81513 52.5527,11.1485 51.5,14.5 Z"/></g>
<g><path style="opacity:0.267" fill="#20585b" d="M 75.5,4.5 C 74.6597,6.85254 73.3264,8.85254 71.5,10.5C 71.8449,7.80214 73.1782,5.80214 75.5,4.5 Z"/></g>
<g><path style="opacity:0.188" fill="#1d3d42" d="M 88.5,11.5 C 91.1873,11.3359 93.854,11.5026 96.5,12C 97.4158,12.2784 98.0825,12.7784 98.5,13.5C 94.9219,13.4512 91.5885,12.7846 88.5,11.5 Z"/></g>
<g><path style="opacity:0.349" fill="#2f474d" d="M 119.5,9.5 C 121.754,10.1237 123.421,11.457 124.5,13.5C 122.205,12.8645 120.539,11.5311 119.5,9.5 Z"/></g>
<g><path style="opacity:1" fill="#51cabb" d="M 77.5,-0.5 C 79.5,-0.5 81.5,-0.5 83.5,-0.5C 85.2646,0.461384 87.2646,0.794717 89.5,0.5C 89.5,3.5 89.5,6.5 89.5,9.5C 87.2646,9.20528 85.2646,9.53862 83.5,10.5C 83.9287,13.1473 85.2621,15.1473 87.5,16.5C 87.3915,18.5138 88.0582,20.1805 89.5,21.5C 89.6662,27.5092 89.4995,33.5092 89,39.5C 87.8873,38.695 86.7206,38.0283 85.5,37.5C 84.544,34.5614 82.8774,32.228 80.5,30.5C 79.3129,29.4664 78.4796,28.133 78,26.5C 77.7216,27.4158 77.2216,28.0825 76.5,28.5C 74.631,30.0337 73.2977,32.0337 72.5,34.5C 71.8501,34.8039 71.1835,35.1373 70.5,35.5C 69.0062,27.0508 69.3395,18.7175 71.5,10.5C 73.3264,8.85254 74.6597,6.85254 75.5,4.5C 75.3915,2.4862 76.0582,0.819534 77.5,-0.5 Z"/></g>
<g><path style="opacity:0.733" fill="#22474c" d="M 98.5,13.5 C 102.165,13.5018 105.165,14.8352 107.5,17.5C 104.088,16.9251 101.088,15.5918 98.5,13.5 Z"/></g>
<g><path style="opacity:0.416" fill="#1c4144" d="M 83.5,10.5 C 85.4147,10.2155 87.0813,10.5489 88.5,11.5C 87.325,11.281 86.325,11.6143 85.5,12.5C 86.6302,13.6223 87.2969,14.9557 87.5,16.5C 85.2621,15.1473 83.9287,13.1473 83.5,10.5 Z"/></g>
<g><path style="opacity:0.004" fill="#1f292e" d="M 49.5,15.5 C 48.4863,16.6737 47.153,17.3404 45.5,17.5C 46.287,15.8958 47.6203,15.2291 49.5,15.5 Z"/></g>
<g><path style="opacity:0.306" fill="#446e74" d="M 125.5,13.5 C 128.432,14.7997 130.766,16.7997 132.5,19.5C 128.915,18.8785 126.581,16.8785 125.5,13.5 Z"/></g>
<g><path style="opacity:0.22" fill="#152a2d" d="M 107.5,17.5 C 109.027,17.427 110.027,18.0937 110.5,19.5C 108.973,19.573 107.973,18.9063 107.5,17.5 Z"/></g>
<g><path style="opacity:0.722" fill="#55837f" d="M 30.5,14.5 C 29.0892,16.914 27.0892,18.5806 24.5,19.5C 25.9108,17.086 27.9108,15.4194 30.5,14.5 Z"/></g>
<g><path style="opacity:1" fill="#5fb6aa" d="M 38.5,9.5 C 38.8333,9.5 39.1667,9.5 39.5,9.5C 38.653,10.9663 37.3197,11.7996 35.5,12C 36.0353,14.1087 37.0353,14.6087 38.5,13.5C 39.1687,15.6309 39.8354,17.6309 40.5,19.5C 40.1667,20.1667 39.8333,20.8333 39.5,21.5C 38.5637,22.9744 37.2303,23.9744 35.5,24.5C 34.2905,24.9321 33.2905,25.5987 32.5,26.5C 31.8501,26.8039 31.1835,27.1373 30.5,27.5C 29.8589,26.0065 28.8589,25.0065 27.5,24.5C 29.7631,20.8971 32.4297,17.5638 35.5,14.5C 33.9052,13.5661 32.2385,13.5661 30.5,14.5C 32.6576,12.0071 35.3243,10.3405 38.5,9.5 Z"/></g>
<g><path style="opacity:0.122" fill="#2c6a67" d="M 87.5,16.5 C 89.2503,17.6594 90.2503,19.326 90.5,21.5C 90.1667,21.5 89.8333,21.5 89.5,21.5C 88.0582,20.1805 87.3915,18.5138 87.5,16.5 Z"/></g>
<g><path style="opacity:0.004" fill="#212e31" d="M 45.5,17.5 C 43.8525,19.3264 41.8525,20.6597 39.5,21.5C 39.8333,20.8333 40.1667,20.1667 40.5,19.5C 41.8195,18.0582 43.4862,17.3915 45.5,17.5 Z"/></g>
<g><path style="opacity:0.137" fill="#183034" d="M 111.5,19.5 C 113.027,19.427 114.027,20.0937 114.5,21.5C 112.973,21.573 111.973,20.9063 111.5,19.5 Z"/></g>
<g><path style="opacity:0.635" fill="#2e5c69" d="M 132.5,19.5 C 135.833,22.1667 138.833,25.1667 141.5,28.5C 139.246,27.5849 137.246,26.2516 135.5,24.5C 134.075,23.078 133.075,21.4113 132.5,19.5 Z"/></g>
<g><path style="opacity:0.227" fill="#2f4756" d="M 24.5,19.5 C 23.8333,20.8333 22.8333,21.8333 21.5,22.5C 21.5,20.5 22.5,19.5 24.5,19.5 Z"/></g>
<g><path style="opacity:1" fill="#a3f6e2" d="M 27.5,24.5 C 22.5743,30.0067 18.9076,36.34 16.5,43.5C 15.962,45.1172 15.6287,46.7839 15.5,48.5C 14.0687,49.7804 13.4021,51.4471 13.5,53.5C 18.1013,52.6579 22.4346,51.3246 26.5,49.5C 29.8067,48.9492 33.1401,48.6159 36.5,48.5C 36.5,51.8333 36.5,55.1667 36.5,58.5C 36.5,58.8333 36.5,59.1667 36.5,59.5C 34.4855,60.9238 32.1522,61.5905 29.5,61.5C 27.5759,61.7107 27.2426,62.3774 28.5,63.5C 29.7521,69.8096 29.7521,76.1429 28.5,82.5C 27.3578,81.1738 26.0245,80.1738 24.5,79.5C 24.0269,78.0937 23.0269,77.427 21.5,77.5C 21.5,77.1667 21.5,76.8333 21.5,76.5C 20.4778,73.4777 18.4778,71.4777 15.5,70.5C 15.5,70.1667 15.5,69.8333 15.5,69.5C 14.5977,67.6593 13.2644,66.326 11.5,65.5C 10.5,65.1667 9.83333,64.5 9.5,63.5C 8.52651,60.865 6.85984,58.865 4.5,57.5C 3.5,57.1667 2.83333,56.5 2.5,55.5C 3.14952,53.5648 3.48285,51.5648 3.5,49.5C 3.5,49.1667 3.5,48.8333 3.5,48.5C 4.90632,48.0269 5.57298,47.0269 5.5,45.5C 7.24512,43.9674 8.24512,41.9674 8.5,39.5C 8.32842,38.5084 8.66175,37.8417 9.5,37.5C 10.9063,37.0269 11.573,36.0269 11.5,34.5C 13.1795,33.2178 14.5129,31.5511 15.5,29.5C 16.9744,28.5637 17.9744,27.2303 18.5,25.5C 19.8333,24.8333 20.8333,23.8333 21.5,22.5C 22.8333,21.8333 23.8333,20.8333 24.5,19.5C 27.0892,18.5806 29.0892,16.914 30.5,14.5C 32.2385,13.5661 33.9052,13.5661 35.5,14.5C 32.4297,17.5638 29.7631,20.8971 27.5,24.5 Z"/></g>
<g><path style="opacity:0.192" fill="#234343" d="M 114.5,21.5 C 116.027,21.427 117.027,22.0937 117.5,23.5C 115.973,23.573 114.973,22.9063 114.5,21.5 Z"/></g>
<g><path style="opacity:0.157" fill="#224c4c" d="M 90.5,21.5 C 91.9063,21.9731 92.573,22.9731 92.5,24.5C 91.0937,24.0269 90.427,23.0269 90.5,21.5 Z"/></g>
<g><path style="opacity:0.427" fill="#2a3e45" d="M 117.5,23.5 C 118.167,23.5 118.833,23.5 119.5,23.5C 120.167,24.5 120.833,25.5 121.5,26.5C 119.596,26.2624 118.262,25.2624 117.5,23.5 Z"/></g>
<g><path style="opacity:0.18" fill="#2a4344" d="M 21.5,22.5 C 20.8333,23.8333 19.8333,24.8333 18.5,25.5C 18.5,23.5 19.5,22.5 21.5,22.5 Z"/></g>
<g><path style="opacity:1" fill="#9ad8d2" d="M 108.5,5.5 C 111.407,7.80457 114.741,9.1379 118.5,9.5C 118.833,9.5 119.167,9.5 119.5,9.5C 120.539,11.5311 122.205,12.8645 124.5,13.5C 124.833,13.5 125.167,13.5 125.5,13.5C 126.581,16.8785 128.915,18.8785 132.5,19.5C 133.075,21.4113 134.075,23.078 135.5,24.5C 135.942,28.1545 136.276,31.8212 136.5,35.5C 134.097,35.552 131.764,35.2186 129.5,34.5C 129.512,31.858 128.179,30.5246 125.5,30.5C 125.5,30.1667 125.5,29.8333 125.5,29.5C 124.738,27.7376 123.404,26.7376 121.5,26.5C 120.833,25.5 120.167,24.5 119.5,23.5C 117.549,16.8203 112.882,13.487 105.5,13.5C 105.5,10.8333 105.5,8.16667 105.5,5.5C 106.5,5.5 107.5,5.5 108.5,5.5 Z"/></g>
<g><path style="opacity:0.004" fill="#161f22" d="M 35.5,24.5 C 35.1788,26.0481 34.1788,26.7148 32.5,26.5C 33.2905,25.5987 34.2905,24.9321 35.5,24.5 Z"/></g>
<g><path style="opacity:0.471" fill="#314c53" d="M 121.5,26.5 C 123.404,26.7376 124.738,27.7376 125.5,29.5C 123.596,29.2624 122.262,28.2624 121.5,26.5 Z"/></g>
<g><path style="opacity:0.459" fill="#4c7877" d="M 18.5,25.5 C 17.9744,27.2303 16.9744,28.5637 15.5,29.5C 15.5544,27.368 16.5544,26.0347 18.5,25.5 Z"/></g>
<g><path style="opacity:0.706" fill="#234c4c" d="M 80.5,30.5 C 82.8774,32.228 84.544,34.5614 85.5,37.5C 83.1099,35.7334 81.4432,33.4001 80.5,30.5 Z"/></g>
<g><path style="opacity:0.506" fill="#265153" d="M 92.5,24.5 C 94.8971,26.6621 96.5638,29.3288 97.5,32.5C 95.1029,30.3379 93.4362,27.6712 92.5,24.5 Z"/></g>
<g><path style="opacity:0.71" fill="#465e60" d="M 125.5,30.5 C 128.179,30.5246 129.512,31.858 129.5,34.5C 127.833,33.5 126.5,32.1667 125.5,30.5 Z"/></g>
<g><path style="opacity:1" fill="#66c1bd" d="M 135.5,24.5 C 137.246,26.2516 139.246,27.5849 141.5,28.5C 143.192,30.2048 144.525,32.2048 145.5,34.5C 145.539,35.5832 145.873,36.5832 146.5,37.5C 145.675,38.3857 144.675,38.719 143.5,38.5C 143.167,38.5 142.833,38.5 142.5,38.5C 141.01,36.7202 139.01,36.0535 136.5,36.5C 136.5,36.1667 136.5,35.8333 136.5,35.5C 136.276,31.8212 135.942,28.1545 135.5,24.5 Z"/></g>
<g><path style="opacity:0.255" fill="#1f3f48" d="M 59.5,30.5 C 59.573,32.0269 58.9063,33.0269 57.5,33.5C 57.427,31.9731 58.0937,30.9731 59.5,30.5 Z"/></g>
<g><path style="opacity:0.02" fill="#164245" d="M 76.5,28.5 C 76.0713,31.1473 74.7379,33.1473 72.5,34.5C 73.2977,32.0337 74.631,30.0337 76.5,28.5 Z"/></g>
<g><path style="opacity:0.906" fill="#53807a" d="M 15.5,29.5 C 14.5129,31.5511 13.1795,33.2178 11.5,34.5C 11.6696,31.796 13.0029,30.1293 15.5,29.5 Z"/></g>
<g><path style="opacity:1" fill="#58b8bb" d="M 71.5,10.5 C 69.3395,18.7175 69.0062,27.0508 70.5,35.5C 71.1835,35.1373 71.8501,34.8039 72.5,34.5C 72.2503,36.674 71.2503,38.3406 69.5,39.5C 67.8958,40.287 67.2291,41.6203 67.5,43.5C 67.5,44.1667 67.1667,44.5 66.5,44.5C 64.2729,45.4006 63.2729,47.0672 63.5,49.5C 62.7124,52.6209 60.7124,54.2876 57.5,54.5C 54.1194,54.4595 50.7861,54.7929 47.5,55.5C 48.069,51.6707 47.4023,48.3373 45.5,45.5C 47.6287,44.7972 49.6287,43.7972 51.5,42.5C 53.2651,39.2911 55.2651,36.2911 57.5,33.5C 58.9063,33.0269 59.573,32.0269 59.5,30.5C 60.2122,28.0721 61.2122,25.7388 62.5,23.5C 65.2758,18.9261 68.2758,14.5928 71.5,10.5 Z"/></g>
<g><path style="opacity:1" fill="#5fc0b2" d="M 89.5,21.5 C 89.8333,21.5 90.1667,21.5 90.5,21.5C 90.427,23.0269 91.0937,24.0269 92.5,24.5C 93.4362,27.6712 95.1029,30.3379 97.5,32.5C 97.427,34.0269 98.0937,35.0269 99.5,35.5C 99.427,37.0269 100.094,38.0269 101.5,38.5C 102.338,38.8417 102.672,39.5084 102.5,40.5C 102.5,41.1667 102.5,41.8333 102.5,42.5C 101.778,42.0825 101.278,41.4158 101,40.5C 100.172,45.202 100.338,49.8687 101.5,54.5C 103.026,54.9943 104.359,55.661 105.5,56.5C 103.05,56.702 100.717,56.3686 98.5,55.5C 96.8333,53.1667 94.8333,51.1667 92.5,49.5C 91.6618,49.1583 91.3284,48.4916 91.5,47.5C 91.0195,44.1665 89.3528,41.8331 86.5,40.5C 85.8902,39.609 85.5569,38.609 85.5,37.5C 86.7206,38.0283 87.8873,38.695 89,39.5C 89.4995,33.5092 89.6662,27.5092 89.5,21.5 Z"/></g>
<g><path style="opacity:0.212" fill="#244f53" d="M 97.5,32.5 C 98.9063,32.9731 99.573,33.9731 99.5,35.5C 98.0937,35.0269 97.427,34.0269 97.5,32.5 Z"/></g>
<g><path style="opacity:0.58" fill="#456469" d="M 129.5,34.5 C 131.764,35.2186 134.097,35.552 136.5,35.5C 136.5,35.8333 136.5,36.1667 136.5,36.5C 134.473,36.6621 132.473,36.4955 130.5,36C 129.944,35.6174 129.611,35.1174 129.5,34.5 Z"/></g>
<g><path style="opacity:0.275" fill="#3c6767" d="M 11.5,34.5 C 11.573,36.0269 10.9063,37.0269 9.5,37.5C 9.42702,35.9731 10.0937,34.9731 11.5,34.5 Z"/></g>
<g><path style="opacity:0.996" fill="#3e8c8b" d="M 27.5,24.5 C 28.8589,25.0065 29.8589,26.0065 30.5,27.5C 31.1835,27.1373 31.8501,26.8039 32.5,26.5C 29.0868,31.0419 25.4201,35.3752 21.5,39.5C 19.8333,40.8333 18.1667,42.1667 16.5,43.5C 18.9076,36.34 22.5743,30.0067 27.5,24.5 Z"/></g>
<g><path style="opacity:0.369" fill="#274143" d="M 99.5,35.5 C 100.906,35.9731 101.573,36.9731 101.5,38.5C 100.094,38.0269 99.427,37.0269 99.5,35.5 Z"/></g>
<g><path style="opacity:0.729" fill="#275153" d="M 136.5,36.5 C 139.01,36.0535 141.01,36.7202 142.5,38.5C 140.214,38.405 138.214,37.7384 136.5,36.5 Z"/></g>
<g><path style="opacity:0.114" fill="#12383d" d="M 145.5,34.5 C 147.727,35.4006 148.727,37.0672 148.5,39.5C 146.585,39.7845 144.919,39.4511 143.5,38.5C 144.675,38.719 145.675,38.3857 146.5,37.5C 145.873,36.5832 145.539,35.5832 145.5,34.5 Z"/></g>
<g><path style="opacity:0.149" fill="#234b53" d="M 69.5,39.5 C 69.3404,41.153 68.6737,42.4863 67.5,43.5C 67.2291,41.6203 67.8958,40.287 69.5,39.5 Z"/></g>
<g><path style="opacity:0.286" fill="#245150" d="M 86.5,40.5 C 89.3528,41.8331 91.0195,44.1665 91.5,47.5C 89.6002,45.3805 87.9336,43.0472 86.5,40.5 Z"/></g>
<g><path style="opacity:0.231" fill="#264349" d="M 102.5,40.5 C 103.906,40.9731 104.573,41.9731 104.5,43.5C 103.833,43.1667 103.167,42.8333 102.5,42.5C 102.5,41.8333 102.5,41.1667 102.5,40.5 Z"/></g>
<g><path style="opacity:0.902" fill="#639791" d="M 8.5,39.5 C 8.24512,41.9674 7.24512,43.9674 5.5,45.5C 5.46095,42.911 6.46095,40.911 8.5,39.5 Z"/></g>
<g><path style="opacity:0.416" fill="#3b717a" d="M 51.5,42.5 C 49.6287,43.7972 47.6287,44.7972 45.5,45.5C 43.8333,45.5 42.1667,45.5 40.5,45.5C 43.6859,43.1257 47.3526,42.1257 51.5,42.5 Z"/></g>
<g><path style="opacity:0.773" fill="#467075" d="M 104.5,43.5 C 106.786,43.595 108.786,44.2616 110.5,45.5C 107.918,45.9746 105.918,45.3079 104.5,43.5 Z"/></g>
<g><path style="opacity:0.451" fill="#174345" d="M 21.5,39.5 C 19.9998,43.173 17.9998,46.5063 15.5,49.5C 15.5,49.1667 15.5,48.8333 15.5,48.5C 15.6287,46.7839 15.962,45.1172 16.5,43.5C 18.1667,42.1667 19.8333,40.8333 21.5,39.5 Z"/></g>
<g><path style="opacity:1" fill="#7cd4cf" d="M 40.5,45.5 C 42.1667,45.5 43.8333,45.5 45.5,45.5C 47.4023,48.3373 48.069,51.6707 47.5,55.5C 43.7768,56.2967 40.1101,57.2967 36.5,58.5C 36.5,55.1667 36.5,51.8333 36.5,48.5C 33.1401,48.6159 29.8067,48.9492 26.5,49.5C 30.7938,47.1837 35.4605,45.8504 40.5,45.5 Z"/></g>
<g><path style="opacity:0.129" fill="#21444a" d="M 66.5,44.5 C 66.2503,46.674 65.2503,48.3406 63.5,49.5C 63.2729,47.0672 64.2729,45.4006 66.5,44.5 Z"/></g>
<g><path style="opacity:0.392" fill="#4b6c74" d="M 110.5,45.5 C 115.261,45.1236 119.595,46.1236 123.5,48.5C 122.167,48.5 120.833,48.5 119.5,48.5C 116.33,47.7345 113.33,46.7345 110.5,45.5 Z"/></g>
<g><path style="opacity:0.114" fill="#1f3137" d="M 5.5,45.5 C 5.57298,47.0269 4.90632,48.0269 3.5,48.5C 3.42702,46.9731 4.09368,45.9731 5.5,45.5 Z"/></g>
<g><path style="opacity:1" fill="#9ae3df" d="M 102.5,42.5 C 103.167,42.8333 103.833,43.1667 104.5,43.5C 105.918,45.3079 107.918,45.9746 110.5,45.5C 113.33,46.7345 116.33,47.7345 119.5,48.5C 120.568,49.4345 121.901,49.7678 123.5,49.5C 124.069,53.3293 123.402,56.6627 121.5,59.5C 120.167,59.5 118.833,59.5 117.5,59.5C 113.8,57.7547 109.8,56.7547 105.5,56.5C 104.359,55.661 103.026,54.9943 101.5,54.5C 100.338,49.8687 100.172,45.202 101,40.5C 101.278,41.4158 101.778,42.0825 102.5,42.5 Z"/></g>
<g><path style="opacity:0.576" fill="#649a92" d="M 15.5,48.5 C 15.5,48.8333 15.5,49.1667 15.5,49.5C 15.4701,50.4972 15.9701,51.1639 17,51.5C 19.9684,49.9217 23.1351,49.255 26.5,49.5C 22.4346,51.3246 18.1013,52.6579 13.5,53.5C 13.4021,51.4471 14.0687,49.7804 15.5,48.5 Z"/></g>
<g><path style="opacity:0.722" fill="#47777f" d="M 126.5,49.5 C 131.261,49.1236 135.595,50.1236 139.5,52.5C 136.721,52.7214 134.054,52.388 131.5,51.5C 129.597,51.2041 127.93,50.5375 126.5,49.5 Z"/></g>
<g><path style="opacity:1" fill="#68bcc1" d="M 131.5,51.5 C 134.054,52.388 136.721,52.7214 139.5,52.5C 140.5,53.1667 141.5,53.8333 142.5,54.5C 141.838,56.3035 141.505,58.3035 141.5,60.5C 141.539,62.9522 142.206,64.9522 143.5,66.5C 143.5,66.8333 143.5,67.1667 143.5,67.5C 139.963,72.5794 135.963,77.2461 131.5,81.5C 131.5,71.5 131.5,61.5 131.5,51.5 Z"/></g>
<g><path style="opacity:0.859" fill="#326464" d="M 92.5,49.5 C 94.8333,51.1667 96.8333,53.1667 98.5,55.5C 95.5673,54.5677 93.5673,52.5677 92.5,49.5 Z"/></g>
<g><path style="opacity:0.608" fill="#456b71" d="M 139.5,52.5 C 144.17,52.5111 148.503,53.5111 152.5,55.5C 149.119,55.5405 145.786,55.2071 142.5,54.5C 141.5,53.8333 140.5,53.1667 139.5,52.5 Z"/></g>
<g><path style="opacity:0.098" fill="#507e77" d="M 3.5,49.5 C 3.48285,51.5648 3.14952,53.5648 2.5,55.5C 1.2056,53.32 1.53893,51.32 3.5,49.5 Z"/></g>
<g><path style="opacity:1" fill="#99dad3" d="M 142.5,54.5 C 145.786,55.2071 149.119,55.5405 152.5,55.5C 154.459,70.2577 155.125,85.2577 154.5,100.5C 153.071,103.308 152.405,106.308 152.5,109.5C 152.567,110.959 152.234,112.292 151.5,113.5C 150.094,113.973 149.427,114.973 149.5,116.5C 147.273,117.401 146.273,119.067 146.5,121.5C 145.33,123.279 143.664,124.279 141.5,124.5C 141.818,119.968 141.485,115.634 140.5,111.5C 140.5,110.833 140.5,110.167 140.5,109.5C 140.5,109.167 140.5,108.833 140.5,108.5C 142.25,107.341 143.25,105.674 143.5,103.5C 145.25,106.355 146.083,109.689 146,113.5C 150.382,102.208 152.049,90.5416 151,78.5C 150.162,74.1402 148.662,70.1402 146.5,66.5C 145.74,64.0155 144.74,64.0155 143.5,66.5C 142.206,64.9522 141.539,62.9522 141.5,60.5C 141.505,58.3035 141.838,56.3035 142.5,54.5 Z"/></g>
<g><path style="opacity:0.827" fill="#3f5f5d" d="M 4.5,57.5 C 6.85984,58.865 8.52651,60.865 9.5,63.5C 7.10973,62.1092 5.44306,60.1092 4.5,57.5 Z"/></g>
<g><path style="opacity:0.635" fill="#43787c" d="M 57.5,54.5 C 50.7524,56.7388 43.7524,58.4055 36.5,59.5C 36.5,59.1667 36.5,58.8333 36.5,58.5C 40.1101,57.2967 43.7768,56.2967 47.5,55.5C 50.7861,54.7929 54.1194,54.4595 57.5,54.5 Z"/></g>
<g><path style="opacity:0.65" fill="#608b90" d="M 105.5,56.5 C 109.8,56.7547 113.8,57.7547 117.5,59.5C 113.076,59.7276 109.076,58.7276 105.5,56.5 Z"/></g>
<g><path style="opacity:0.718" fill="#476b70" d="M 117.5,59.5 C 118.833,59.5 120.167,59.5 121.5,59.5C 122.5,60.1667 123.5,60.8333 124.5,61.5C 121.848,61.5905 119.515,60.9238 117.5,59.5 Z"/></g>
<g><path style="opacity:0.416" fill="#396169" d="M 124.5,61.5 C 126.167,61.5 127.833,61.5 129.5,61.5C 129.715,63.1788 129.048,64.1788 127.5,64.5C 126.694,63.2719 125.694,62.2719 124.5,61.5 Z"/></g>
<g><path style="opacity:0.122" fill="#14272d" d="M 29.5,61.5 C 29.1667,62.1667 28.8333,62.8333 28.5,63.5C 27.2426,62.3774 27.5759,61.7107 29.5,61.5 Z"/></g>
<g><path style="opacity:0.588" fill="#35585f" d="M 146.5,66.5 C 146.5,67.8333 146.5,69.1667 146.5,70.5C 145.71,69.3915 145.21,68.0581 145,66.5C 144.617,67.056 144.117,67.3893 143.5,67.5C 143.5,67.1667 143.5,66.8333 143.5,66.5C 144.74,64.0155 145.74,64.0155 146.5,66.5 Z"/></g>
<g><path style="opacity:0.235" fill="#3f5f5e" d="M 11.5,65.5 C 13.2644,66.326 14.5977,67.6593 15.5,69.5C 13.2901,69.106 11.9568,67.7727 11.5,65.5 Z"/></g>
<g><path style="opacity:1" fill="#46b7b6" d="M 152.5,55.5 C 153.5,55.5 154.5,55.5 155.5,55.5C 155.5,56.5 155.5,57.5 155.5,58.5C 157.149,70.0975 157.816,81.7641 157.5,93.5C 157.606,96.0786 156.939,98.412 155.5,100.5C 155.167,100.5 154.833,100.5 154.5,100.5C 155.125,85.2577 154.459,70.2577 152.5,55.5 Z"/></g>
<g><path style="opacity:0.043" fill="#426c69" d="M 15.5,70.5 C 18.4778,71.4777 20.4778,73.4777 21.5,76.5C 19.215,74.8818 17.215,72.8818 15.5,70.5 Z"/></g>
<g><path style="opacity:0.047" fill="#375759" d="M 37.5,73.5 C 38.8333,73.5 39.5,74.1667 39.5,75.5C 39.5,74.1667 38.8333,73.5 37.5,73.5 Z"/></g>
<g><path style="opacity:1" fill="#8bd0d1" d="M 119.5,48.5 C 120.833,48.5 122.167,48.5 123.5,48.5C 124.791,48.2627 125.791,48.596 126.5,49.5C 127.93,50.5375 129.597,51.2041 131.5,51.5C 131.5,61.5 131.5,71.5 131.5,81.5C 130.5,81.8333 129.833,82.5 129.5,83.5C 127.738,84.2623 126.738,85.5956 126.5,87.5C 124.823,89.5398 123.156,91.5398 121.5,93.5C 120.264,101.211 120.598,108.878 122.5,116.5C 123.469,124.853 124.469,133.353 125.5,142C 125.486,143.385 125.152,144.551 124.5,145.5C 122.62,145.229 121.287,145.896 120.5,147.5C 119.713,149.104 118.38,149.771 116.5,149.5C 116.783,148.711 117.283,148.044 118,147.5C 118.667,124.5 118.667,101.5 118,78.5C 117.329,79.2524 116.496,79.5858 115.5,79.5C 115.5,79.1667 115.5,78.8333 115.5,78.5C 116.833,77.8333 117.833,76.8333 118.5,75.5C 121.129,71.5373 124.129,67.8706 127.5,64.5C 129.048,64.1788 129.715,63.1788 129.5,61.5C 127.833,61.5 126.167,61.5 124.5,61.5C 123.5,60.8333 122.5,60.1667 121.5,59.5C 123.402,56.6627 124.069,53.3293 123.5,49.5C 121.901,49.7678 120.568,49.4345 119.5,48.5 Z"/></g>
<g><path style="opacity:0.365" fill="#144148" d="M -0.5,72.5 C 2.24269,74.2393 4.24269,76.5726 5.5,79.5C 3.5,77.8333 1.5,76.1667 -0.5,74.5C -0.5,73.8333 -0.5,73.1667 -0.5,72.5 Z"/></g>
<g><path style="opacity:0.439" fill="#355c5e" d="M 39.5,75.5 C 41.2624,76.2623 42.2624,77.5956 42.5,79.5C 41.8333,79.1667 41.1667,78.8333 40.5,78.5C 39.8902,77.609 39.5569,76.609 39.5,75.5 Z"/></g>
<g><path style="opacity:0.259" fill="#3a5054" d="M 118.5,75.5 C 117.833,76.8333 116.833,77.8333 115.5,78.5C 115.5,76.5 116.5,75.5 118.5,75.5 Z"/></g>
<g><path style="opacity:0.518" fill="#114a52" d="M 155.5,58.5 C 156.987,62.1165 158.32,65.7831 159.5,69.5C 159.5,76.1667 159.5,82.8333 159.5,89.5C 158.833,90.8333 158.167,92.1667 157.5,93.5C 157.816,81.7641 157.149,70.0975 155.5,58.5 Z"/></g>
<g><path style="opacity:0.259" fill="#3a5452" d="M 21.5,77.5 C 23.0269,77.427 24.0269,78.0937 24.5,79.5C 22.9731,79.573 21.9731,78.9063 21.5,77.5 Z"/></g>
<g><path style="opacity:1" fill="#88ded5" d="M 28.5,63.5 C 31.5,66.8333 34.5,70.1667 37.5,73.5C 37.5,74.8333 38.1667,75.5 39.5,75.5C 39.5569,76.609 39.8902,77.609 40.5,78.5C 40.5,98.8333 40.5,119.167 40.5,139.5C 38.9731,139.427 37.9731,140.094 37.5,141.5C 36.5,141.5 35.5,141.5 34.5,141.5C 34.9396,137.821 34.273,134.488 32.5,131.5C 34.45,126.265 35.1167,120.598 34.5,114.5C 35.1244,106.754 35.1244,99.0869 34.5,91.5C 34.2624,89.5956 33.2624,88.2623 31.5,87.5C 28.4503,85.4509 26.117,82.7843 24.5,79.5C 26.0245,80.1738 27.3578,81.1738 28.5,82.5C 29.7521,76.1429 29.7521,69.8096 28.5,63.5 Z"/></g>
<g><path style="opacity:1" fill="#7ad6d3" d="M 40.5,78.5 C 41.1667,78.8333 41.8333,79.1667 42.5,79.5C 42.8333,79.5 43.1667,79.5 43.5,79.5C 43.427,81.0269 44.0937,82.0269 45.5,82.5C 45.6854,84.1958 46.5187,85.5291 48,86.5C 48.3001,95.5024 48.1335,104.502 47.5,113.5C 48.293,120.923 48.293,128.59 47.5,136.5C 44.715,135.916 43.0483,136.916 42.5,139.5C 41.8333,139.5 41.1667,139.5 40.5,139.5C 40.5,119.167 40.5,98.8333 40.5,78.5 Z"/></g>
<g><path style="opacity:1" fill="#a3e8e5" d="M 116.5,149.5 C 116.5,150.167 116.167,150.5 115.5,150.5C 114.167,150.5 112.833,150.5 111.5,150.5C 110.846,146.161 111.846,142.327 114.5,139C 113.552,138.517 112.552,138.351 111.5,138.5C 110.486,137.326 109.153,136.66 107.5,136.5C 106.833,135.833 106.167,135.167 105.5,134.5C 105.5,130.5 105.5,126.5 105.5,122.5C 106.5,122.5 107.5,122.5 108.5,122.5C 108.833,122.5 109.167,122.5 109.5,122.5C 110.719,115.783 110.386,109.117 108.5,102.5C 108.26,96.773 108.593,91.1064 109.5,85.5C 111.833,83.8333 113.833,81.8333 115.5,79.5C 116.496,79.5858 117.329,79.2524 118,78.5C 118.667,101.5 118.667,124.5 118,147.5C 117.283,148.044 116.783,148.711 116.5,149.5 Z"/></g>
<g><path style="opacity:0.235" fill="#294349" d="M 43.5,79.5 C 44.9063,79.9731 45.573,80.9731 45.5,82.5C 44.0937,82.0269 43.427,81.0269 43.5,79.5 Z"/></g>
<g><path style="opacity:0.341" fill="#3a525d" d="M 115.5,78.5 C 115.5,78.8333 115.5,79.1667 115.5,79.5C 113.833,81.8333 111.833,83.8333 109.5,85.5C 110.757,82.5726 112.757,80.2393 115.5,78.5 Z"/></g>
<g><path style="opacity:0.999" fill="#5baca6" d="M -0.5,74.5 C 1.5,76.1667 3.5,77.8333 5.5,79.5C 8.89311,81.073 10.2264,83.7396 9.5,87.5C 9.65778,91.8414 10.6578,95.8414 12.5,99.5C 12.4152,102.649 13.4152,105.316 15.5,107.5C 19.2214,112.562 22.5547,117.896 25.5,123.5C 24.448,123.649 23.448,123.483 22.5,123C 10.3688,110.415 2.70215,95.582 -0.5,78.5C -0.5,77.1667 -0.5,75.8333 -0.5,74.5 Z"/></g>
<g><path style="opacity:0.008" fill="#18242a" d="M 131.5,81.5 C 131.5,82.8333 130.833,83.5 129.5,83.5C 129.833,82.5 130.5,81.8333 131.5,81.5 Z"/></g>
<g><path style="opacity:0.043" fill="#325059" d="M 129.5,83.5 C 129.262,85.4044 128.262,86.7377 126.5,87.5C 126.738,85.5956 127.738,84.2623 129.5,83.5 Z"/></g>
<g><path style="opacity:0.047" fill="#3c5d66" d="M 31.5,87.5 C 33.2624,88.2623 34.2624,89.5956 34.5,91.5C 32.7376,90.7377 31.7376,89.4044 31.5,87.5 Z"/></g>
<g><path style="opacity:0.455" fill="#324d53" d="M 109.5,85.5 C 108.593,91.1064 108.26,96.773 108.5,102.5C 107.809,98.1007 107.142,93.6007 106.5,89C 107.163,87.4815 108.163,86.3149 109.5,85.5 Z"/></g>
<g><path style="opacity:0.439" fill="#386568" d="M 9.5,87.5 C 11.4159,91.1629 12.4159,95.1629 12.5,99.5C 10.6578,95.8414 9.65778,91.8414 9.5,87.5 Z"/></g>
<g><path style="opacity:0.831" fill="#699f95" d="M -0.5,93.5 C 1.89026,98.455 3.2236,103.788 3.5,109.5C 2.01671,106.567 0.683376,103.567 -0.5,100.5C -0.5,98.1667 -0.5,95.8333 -0.5,93.5 Z"/></g>
<g><path style="opacity:0.373" fill="#537d84" d="M 121.5,93.5 C 122.313,101.138 122.646,108.804 122.5,116.5C 120.598,108.878 120.264,101.211 121.5,93.5 Z"/></g>
<g><path style="opacity:1" fill="#5db0a6" d="M 146.5,66.5 C 148.662,70.1402 150.162,74.1402 151,78.5C 152.049,90.5416 150.382,102.208 146,113.5C 146.083,109.689 145.25,106.355 143.5,103.5C 143.5,102.5 143.5,101.5 143.5,100.5C 145.981,90.6858 146.981,80.6858 146.5,70.5C 146.5,69.1667 146.5,67.8333 146.5,66.5 Z"/></g>
<g><path style="opacity:0.859" fill="#3b6365" d="M 12.5,99.5 C 14.5848,101.684 15.5848,104.351 15.5,107.5C 13.4152,105.316 12.4152,102.649 12.5,99.5 Z"/></g>
<g><path style="opacity:0.102" fill="#326068" d="M 45.5,82.5 C 46.7942,83.2899 47.9609,84.2899 49,85.5C 49.7041,95.8556 49.5374,106.189 48.5,116.5C 48.1667,116.5 47.8333,116.5 47.5,116.5C 47.5,115.5 47.5,114.5 47.5,113.5C 48.1335,104.502 48.3001,95.5024 48,86.5C 46.5187,85.5291 45.6854,84.1958 45.5,82.5 Z"/></g>
<g><path style="opacity:0.353" fill="#40595b" d="M 143.5,100.5 C 143.5,101.5 143.5,102.5 143.5,103.5C 143.25,105.674 142.25,107.341 140.5,108.5C 141.129,105.603 142.129,102.936 143.5,100.5 Z"/></g>
<g><path style="opacity:0.635" fill="#477273" d="M 154.5,100.5 C 154.833,100.5 155.167,100.5 155.5,100.5C 155.862,104.081 154.862,107.081 152.5,109.5C 152.405,106.308 153.071,103.308 154.5,100.5 Z"/></g>
<g><path style="opacity:1" fill="#a3f6e2" d="M -0.5,78.5 C 2.70215,95.582 10.3688,110.415 22.5,123C 23.448,123.483 24.448,123.649 25.5,123.5C 27.0941,126.764 29.4275,129.431 32.5,131.5C 34.273,134.488 34.9396,137.821 34.5,141.5C 31.4039,142.651 28.4039,142.318 25.5,140.5C 24.8333,139.833 24.1667,139.167 23.5,138.5C 22.8333,135.833 21.1667,134.167 18.5,133.5C 18.5,131.5 17.5,130.5 15.5,130.5C 15.5,130.167 15.5,129.833 15.5,129.5C 15.4754,126.821 14.142,125.488 11.5,125.5C 11.5,125.167 11.5,124.833 11.5,124.5C 10.2541,120.336 8.25413,116.669 5.5,113.5C 4.32627,112.486 3.6596,111.153 3.5,109.5C 3.2236,103.788 1.89026,98.455 -0.5,93.5C -0.5,88.5 -0.5,83.5 -0.5,78.5 Z"/></g>
<g><path style="opacity:0.469" fill="#1f4c4a" d="M 76.5,109.5 C 78.5979,108.516 80.5979,108.849 82.5,110.5C 80.4352,110.483 78.4352,110.15 76.5,109.5 Z"/></g>
<g><path style="opacity:0.722" fill="#2e7b7c" d="M 76.5,109.5 C 75.3646,111.213 73.698,111.88 71.5,111.5C 72.6354,109.787 74.302,109.12 76.5,109.5 Z"/></g>
<g><path style="opacity:0.055" fill="#414e57" d="M 140.5,109.5 C 140.5,110.167 140.5,110.833 140.5,111.5C 139.833,111.833 139.167,112.167 138.5,112.5C 138.427,110.973 139.094,109.973 140.5,109.5 Z"/></g>
<g><path style="opacity:1" fill="#52ccc0" d="M 76.5,109.5 C 78.4352,110.15 80.4352,110.483 82.5,110.5C 83.4916,110.328 84.1583,110.662 84.5,111.5C 85.4363,112.974 86.7697,113.974 88.5,114.5C 88.5,118.5 88.5,122.5 88.5,126.5C 87.1667,126.5 85.8333,126.5 84.5,126.5C 82.412,125.061 80.0786,124.394 77.5,124.5C 77.1667,124.5 76.8333,124.5 76.5,124.5C 73.509,124.166 71.1757,125.166 69.5,127.5C 68.8333,127.5 68.1667,127.5 67.5,127.5C 66.4168,127.539 65.4168,127.873 64.5,128.5C 63.3401,124.541 63.1735,120.541 64,116.5C 66.8261,115.093 69.3261,113.426 71.5,111.5C 73.698,111.88 75.3646,111.213 76.5,109.5 Z"/></g>
<g><path style="opacity:0.49" fill="#265d5e" d="M 84.5,111.5 C 87.1573,111.935 89.4907,112.935 91.5,114.5C 90.5,114.5 89.5,114.5 88.5,114.5C 86.7697,113.974 85.4363,112.974 84.5,111.5 Z"/></g>
<g><path style="opacity:1" fill="#cadedb" d="M 140.5,111.5 C 141.485,115.634 141.818,119.968 141.5,124.5C 140.962,126.117 140.629,127.784 140.5,129.5C 140.672,130.492 140.338,131.158 139.5,131.5C 137.902,129.143 136.902,126.477 136.5,123.5C 136.5,123.167 136.5,122.833 136.5,122.5C 136.21,119.215 136.877,116.215 138.5,113.5C 138.5,113.167 138.5,112.833 138.5,112.5C 139.167,112.167 139.833,111.833 140.5,111.5 Z"/></g>
<g><path style="opacity:0.973" fill="#4d7571" d="M 5.5,113.5 C 8.25413,116.669 10.2541,120.336 11.5,124.5C 10.5416,124.047 9.7083,123.381 9,122.5C 7.27757,119.721 6.11091,116.721 5.5,113.5 Z"/></g>
<g><path style="opacity:0.016" fill="#32393b" d="M 151.5,113.5 C 151.573,115.027 150.906,116.027 149.5,116.5C 149.427,114.973 150.094,113.973 151.5,113.5 Z"/></g>
<g><path style="opacity:0.584" fill="#2b4e4d" d="M 93.5,115.5 C 96.6489,115.415 99.3155,116.415 101.5,118.5C 98.1694,118.982 95.5027,117.982 93.5,115.5 Z"/></g>
<g><path style="opacity:0.506" fill="#6b9da0" d="M 108.5,102.5 C 110.386,109.117 110.719,115.783 109.5,122.5C 109.802,119.941 109.468,117.607 108.5,115.5C 108.5,111.167 108.5,106.833 108.5,102.5 Z"/></g>
<g><path style="opacity:1" fill="#58b4b8" d="M 71.5,111.5 C 69.3261,113.426 66.8261,115.093 64,116.5C 63.1735,120.541 63.3401,124.541 64.5,128.5C 65.4168,127.873 66.4168,127.539 67.5,127.5C 67.1667,128.167 66.8333,128.833 66.5,129.5C 64.5,130.167 62.5,130.833 60.5,131.5C 57.509,131.166 55.1757,132.166 53.5,134.5C 52.2196,135.931 50.5529,136.598 48.5,136.5C 48.1667,136.5 47.8333,136.5 47.5,136.5C 48.293,128.59 48.293,120.923 47.5,113.5C 47.5,114.5 47.5,115.5 47.5,116.5C 47.2148,118.288 47.5481,119.955 48.5,121.5C 49.1067,121.376 49.44,121.043 49.5,120.5C 50.5676,119.566 51.901,119.232 53.5,119.5C 57.6841,119.408 61.0174,117.741 63.5,114.5C 65.887,112.897 68.5537,111.897 71.5,111.5 Z"/></g>
<g><path style="opacity:0.922" fill="#38767f" d="M 63.5,114.5 C 61.0174,117.741 57.6841,119.408 53.5,119.5C 56.5154,117.326 59.8487,115.659 63.5,114.5 Z"/></g>
<g><path style="opacity:1" fill="#63c1b3" d="M 88.5,114.5 C 89.5,114.5 90.5,114.5 91.5,114.5C 92.4916,114.328 93.1583,114.662 93.5,115.5C 95.5027,117.982 98.1694,118.982 101.5,118.5C 103.306,119.024 104.972,119.691 106.5,120.5C 107.167,121.167 107.833,121.833 108.5,122.5C 107.5,122.5 106.5,122.5 105.5,122.5C 105.5,126.5 105.5,130.5 105.5,134.5C 101.918,133.21 98.2513,132.21 94.5,131.5C 92.847,131.34 91.5137,130.674 90.5,129.5C 88.8984,127.926 86.8984,127.259 84.5,127.5C 84.5,127.167 84.5,126.833 84.5,126.5C 85.8333,126.5 87.1667,126.5 88.5,126.5C 88.5,122.5 88.5,118.5 88.5,114.5 Z"/></g>
<g><path style="opacity:0.012" fill="#101420" d="M 108.5,115.5 C 109.468,117.607 109.802,119.941 109.5,122.5C 109.167,122.5 108.833,122.5 108.5,122.5C 107.833,121.833 107.167,121.167 106.5,120.5C 108.256,119.448 108.923,117.781 108.5,115.5 Z"/></g>
<g><path style="opacity:0.067" fill="#1c2126" d="M 138.5,113.5 C 136.877,116.215 136.21,119.215 136.5,122.5C 135.371,120.372 135.204,118.039 136,115.5C 136.708,114.619 137.542,113.953 138.5,113.5 Z"/></g>
<g><path style="opacity:0.22" fill="#47666a" d="M 149.5,116.5 C 149.25,118.674 148.25,120.341 146.5,121.5C 146.273,119.067 147.273,117.401 149.5,116.5 Z"/></g>
<g><path style="opacity:0.035" fill="#0c1726" d="M 47.5,116.5 C 47.8333,116.5 48.1667,116.5 48.5,116.5C 48.2322,118.099 48.5655,119.432 49.5,120.5C 49.44,121.043 49.1067,121.376 48.5,121.5C 47.5481,119.955 47.2148,118.288 47.5,116.5 Z"/></g>
<g><path style="opacity:0.557" fill="#25595a" d="M 76.5,124.5 C 74.6051,126.241 72.2718,127.241 69.5,127.5C 71.1757,125.166 73.509,124.166 76.5,124.5 Z"/></g>
<g><path style="opacity:0.788" fill="#436b6f" d="M 146.5,121.5 C 145.647,125.02 143.647,127.687 140.5,129.5C 140.629,127.784 140.962,126.117 141.5,124.5C 143.664,124.279 145.33,123.279 146.5,121.5 Z"/></g>
<g><path style="opacity:0.596" fill="#285d60" d="M 77.5,124.5 C 80.0786,124.394 82.412,125.061 84.5,126.5C 84.5,126.833 84.5,127.167 84.5,127.5C 81.8427,127.065 79.5093,126.065 77.5,124.5 Z"/></g>
<g><path style="opacity:0.49" fill="#588583" d="M 11.5,125.5 C 14.142,125.488 15.4754,126.821 15.5,129.5C 13.8333,128.5 12.5,127.167 11.5,125.5 Z"/></g>
<g><path style="opacity:0.631" fill="#295b5b" d="M 84.5,127.5 C 86.8984,127.259 88.8984,127.926 90.5,129.5C 88.1016,129.741 86.1016,129.074 84.5,127.5 Z"/></g>
<g><path style="opacity:0.004" fill="#0c1a1a" d="M 67.5,127.5 C 68.1667,127.5 68.8333,127.5 69.5,127.5C 69.0269,128.906 68.0269,129.573 66.5,129.5C 66.8333,128.833 67.1667,128.167 67.5,127.5 Z"/></g>
<g><path style="opacity:0.204" fill="#436c70" d="M 34.5,114.5 C 35.1167,120.598 34.45,126.265 32.5,131.5C 29.4275,129.431 27.0941,126.764 25.5,123.5C 28.1303,125.628 30.6303,127.961 33,130.5C 33.1733,124.984 33.6733,119.651 34.5,114.5 Z"/></g>
<g><path style="opacity:0.017" fill="#191e23" d="M 136.5,123.5 C 136.902,126.477 137.902,129.143 139.5,131.5C 138.992,133.233 138.159,133.566 137,132.5C 136.502,129.518 136.335,126.518 136.5,123.5 Z"/></g>
<g><path style="opacity:0.329" fill="#35514e" d="M 15.5,130.5 C 17.5,130.5 18.5,131.5 18.5,133.5C 17.1667,132.833 16.1667,131.833 15.5,130.5 Z"/></g>
<g><path style="opacity:0.231" fill="#26454e" d="M 60.5,131.5 C 58.4907,133.065 56.1573,134.065 53.5,134.5C 55.1757,132.166 57.509,131.166 60.5,131.5 Z"/></g>
<g><path style="opacity:0.541" fill="#4b7373" d="M 18.5,133.5 C 21.1667,134.167 22.8333,135.833 23.5,138.5C 21.1884,137.522 19.5218,135.855 18.5,133.5 Z"/></g>
<g><path style="opacity:0.427" fill="#345f60" d="M 94.5,131.5 C 98.2513,132.21 101.918,133.21 105.5,134.5C 106.167,135.167 106.833,135.833 107.5,136.5C 102.793,135.64 98.4593,133.973 94.5,131.5 Z"/></g>
<g><path style="opacity:0.416" fill="#365e61" d="M 47.5,136.5 C 47.8333,136.5 48.1667,136.5 48.5,136.5C 46.8185,138.008 44.8185,139.008 42.5,139.5C 43.0483,136.916 44.715,135.916 47.5,136.5 Z"/></g>
<g><path style="opacity:0.078" fill="#1f2f38" d="M 107.5,136.5 C 109.153,136.66 110.486,137.326 111.5,138.5C 109.62,138.771 108.287,138.104 107.5,136.5 Z"/></g>
<g><path style="opacity:0.004" fill="#121c21" d="M 40.5,139.5 C 40.0269,140.906 39.0269,141.573 37.5,141.5C 37.9731,140.094 38.9731,139.427 40.5,139.5 Z"/></g>
<g><path style="opacity:0.145" fill="#416a6a" d="M 25.5,140.5 C 28.4039,142.318 31.4039,142.651 34.5,141.5C 35.5,141.5 36.5,141.5 37.5,141.5C 33.0715,145.765 29.0715,145.432 25.5,140.5 Z"/></g>
<g><path style="opacity:0.333" fill="#4c696c" d="M 100.5,145.5 C 97.8774,147.265 94.8774,147.932 91.5,147.5C 94.2186,146.087 97.2186,145.42 100.5,145.5 Z"/></g>
<g><path style="opacity:0.016" fill="#29335a" d="M 124.5,145.5 C 123.486,146.674 122.153,147.34 120.5,147.5C 121.287,145.896 122.62,145.229 124.5,145.5 Z"/></g>
<g><path style="opacity:0.875" fill="#2f5f63" d="M 91.5,147.5 C 89.4006,148.612 87.0673,149.279 84.5,149.5C 79.1667,149.5 73.8333,149.5 68.5,149.5C 64.5341,148.838 60.5341,148.505 56.5,148.5C 58.1175,147.028 60.1175,146.361 62.5,146.5C 72.1115,148.652 81.7782,148.985 91.5,147.5 Z"/></g>
<g><path style="opacity:0.998" fill="#89cac3" d="M 111.5,138.5 C 112.552,138.351 113.552,138.517 114.5,139C 111.846,142.327 110.846,146.161 111.5,150.5C 112.833,150.5 114.167,150.5 115.5,150.5C 115.5,151.167 115.167,151.5 114.5,151.5C 112.302,151.12 110.635,151.787 109.5,153.5C 108.791,154.404 107.791,154.737 106.5,154.5C 105.833,154.5 105.167,154.5 104.5,154.5C 104.5,152.167 104.5,149.833 104.5,147.5C 98.0499,149.982 91.3832,151.649 84.5,152.5C 84.5,151.5 84.5,150.5 84.5,149.5C 87.0673,149.279 89.4006,148.612 91.5,147.5C 94.8774,147.932 97.8774,147.265 100.5,145.5C 102.858,143.871 105.524,142.705 108.5,142C 110.063,141.241 111.063,140.074 111.5,138.5 Z"/></g>
<g><path style="opacity:0.431" fill="#112a33" d="M 50.5,150.5 C 48.8624,151.705 48.5291,153.038 49.5,154.5C 45.8585,153.013 46.1919,151.679 50.5,150.5 Z"/></g>
<g><path style="opacity:0.075" fill="#3c5963" d="M 114.5,151.5 C 113.07,152.537 111.403,153.204 109.5,153.5C 110.635,151.787 112.302,151.12 114.5,151.5 Z"/></g>
<g><path style="opacity:1" fill="#3f9899" d="M 56.5,148.5 C 60.5341,148.505 64.5341,148.838 68.5,149.5C 68.5,151.167 68.5,152.833 68.5,154.5C 64.0293,153.911 60.0293,154.577 56.5,156.5C 54.0347,156.233 51.7014,155.566 49.5,154.5C 48.5291,153.038 48.8624,151.705 50.5,150.5C 52.4214,149.637 54.4214,148.971 56.5,148.5 Z"/></g>
<g><path style="opacity:1" fill="#5bc8ba" d="M 104.5,154.5 C 102.847,154.66 101.514,155.326 100.5,156.5C 100.167,156.5 99.8333,156.5 99.5,156.5C 85.5087,159.166 71.5087,159.166 57.5,156.5C 57.1667,156.5 56.8333,156.5 56.5,156.5C 60.0293,154.577 64.0293,153.911 68.5,154.5C 68.5,152.833 68.5,151.167 68.5,149.5C 73.8333,149.5 79.1667,149.5 84.5,149.5C 84.5,150.5 84.5,151.5 84.5,152.5C 91.3832,151.649 98.0499,149.982 104.5,147.5C 104.5,149.833 104.5,152.167 104.5,154.5 Z"/></g>
<g><path style="opacity:0.327" fill="#315a5c" d="M 104.5,154.5 C 105.167,154.5 105.833,154.5 106.5,154.5C 105.01,156.28 103.01,156.946 100.5,156.5C 101.514,155.326 102.847,154.66 104.5,154.5 Z"/></g>
<g><path style="opacity:0.584" fill="#357d7c" d="M 57.5,156.5 C 71.5087,159.166 85.5087,159.166 99.5,156.5C 97.2209,157.651 94.8876,158.651 92.5,159.5C 83.1667,159.5 73.8333,159.5 64.5,159.5C 62.1124,158.651 59.7791,157.651 57.5,156.5 Z"/></g>
</svg>
