<svg width="24" height="28" viewBox="0 0 24 28" fill="none" xmlns="http://www.w3.org/2000/svg">
<path d="M14.7488 23.2512V26.3911L12.0111 28L9.35126 26.3911V23.2512L12.0111 24.8601L14.7488 23.2512ZM0.100098 12.3911L2.75997 14V19.3846L7.34013 22.1223V25.2623L0.100098 20.9935V12.3911ZM23.9222 12.3911V21.0065L16.6043 25.2753V22.1353L21.1844 19.3976V14.013L23.9222 12.3911ZM16.5913 8.12234L19.329 9.73123V12.8712L14.7488 15.6089V21.0714L12.089 22.6803L9.44208 21.0714V15.5959L4.69324 12.8582V9.71826L7.43096 8.10936L12.0111 10.8471L16.5913 8.12234ZM4.69324 15.1158L7.35311 16.7247V19.8647L4.69324 18.2558V15.1158ZM19.329 15.1158V18.2558L16.6691 19.8647V16.7247L19.329 15.1158ZM2.75997 5.38461L5.49769 6.99351L2.75997 8.60241V11.7424L0.100098 10.1335V6.99351L2.75997 5.38461ZM21.2623 5.38461L24 6.99351V10.1335L21.2623 11.7424V8.60241L18.6024 6.99351L21.2623 5.38461ZM12.0111 5.38461L14.7488 6.99351L12.0111 8.60241L9.35126 6.99351L12.0111 5.38461ZM12.0111 0L19.329 4.26877L16.6691 5.87766L12.089 3.13994L7.41798 5.87766L4.75811 4.26877L12.0111 0Z" fill="#F3BA2F"/>
</svg>
