<svg width="24" height="22" viewBox="0 0 24 22" fill="none" xmlns="http://www.w3.org/2000/svg">
    <path d="M23.5205 11.3663V16.5611C23.5186 16.8851 23.4327 17.203 23.2711 17.4838C23.1096 17.7646 22.878 17.9986 22.5988 18.1631L18.0989 20.7551C17.8201 20.9212 17.5017 21.0089 17.1772 21.0089C16.8528 21.0089 16.5343 20.9212 16.2557 20.7551L11.7557 18.1631C11.4765 17.9986 11.2449 17.7646 11.0834 17.4838C10.9219 17.203 10.8359 16.8851 10.8341 16.5611V15.1031L13.1381 13.7657V16.3001L17.1701 18.6401L21.202 16.3001V11.6309L17.1701 9.29093L7.72368 14.7629C7.44237 14.9214 7.12496 15.0047 6.80205 15.0047C6.47919 15.0047 6.16179 14.9214 5.88047 14.7629L1.38046 12.1601C1.10566 11.9932 0.878482 11.7582 0.720808 11.4779C0.563183 11.1977 0.480421 10.8815 0.480469 10.5599V5.36513C0.482336 5.04116 0.568257 4.72328 0.729807 4.44245C0.89131 4.16166 1.12299 3.92759 1.40205 3.76312L5.90206 1.17113C6.18137 1.00666 6.49954 0.919922 6.82364 0.919922C7.1478 0.919922 7.46597 1.00666 7.74527 1.17113L12.2453 3.76312C12.5243 3.92759 12.756 4.16166 12.9175 4.44245C13.0791 4.72328 13.165 5.04116 13.1669 5.36513V6.8231L10.8485 8.15151V5.63151L6.81646 3.29153L2.78445 5.63151V10.2953L6.81646 12.6353L16.2628 7.16334C16.5442 7.00481 16.8616 6.92157 17.1845 6.92157C17.5073 6.92157 17.8247 7.00481 18.1061 7.16334L22.6061 9.7661C22.8836 9.93134 23.1136 10.1655 23.2738 10.4459C23.4341 10.7263 23.519 11.0434 23.5205 11.3663Z" fill="#707A8B"/>
</svg>
