<svg width="28" height="28" viewBox="0 0 28 28" fill="none" xmlns="http://www.w3.org/2000/svg">
<g clip-path="url(#clip0_3935_104063)">
<path fill-rule="evenodd" clip-rule="evenodd" d="M7.07908 2.17767C7.5055 1.94078 8.0239 1.94078 8.45033 2.17767L14.8033 5.70708C15.2514 5.95605 15.5294 6.42849 15.5294 6.94118V9.23649L12.7059 10.8235V7.77186L7.7647 5.02675L2.82353 7.77186V13.1693L7.7647 15.9144L19.785 9.23649C20.2114 8.9996 20.7298 8.9996 21.1562 9.23649L27.5091 12.7659C27.9573 13.0149 28.2353 13.4873 28.2353 14V21.0588C28.2353 21.5715 27.9573 22.044 27.5091 22.2929L21.1562 25.8223C20.7298 26.0592 20.2114 26.0592 19.785 25.8223L13.432 22.2929C12.9839 22.044 12.7059 21.5715 12.7059 21.0588V18.7635L15.5294 17.1765V20.2281L20.4706 22.9732L25.4118 20.2281V14.8307L20.4706 12.0856L8.45033 18.7635C8.0239 19.0004 7.5055 19.0004 7.07908 18.7635L0.726141 15.2341C0.277976 14.9851 0 14.5127 0 14V6.94118C0 6.42849 0.277976 5.95605 0.726141 5.70708L7.07908 2.17767Z" fill="#8247E5"/>
</g>
<defs>
<clipPath id="clip0_3935_104063">
<rect width="28" height="28" fill="white"/>
</clipPath>
</defs>
</svg>
