<svg width="373" height="68" viewBox="0 0 373 68" fill="none" xmlns="http://www.w3.org/2000/svg">
    <g filter="url(#filter0_d_10306_84865)">
        <path d="M346.441 54.5L364.441 30.6C364.841 30 364.841 29.2 364.441 28.6L346.441 4.7C346.141 4.3 345.641 4 345.141 4H8.14142C8.04142 4 7.94142 4.2 8.04142 4.3L26.5414 28.9C26.8414 29.3 26.8414 29.9 26.5414 30.4L8.04142 54.9C7.94142 55 8.04142 55.1 8.14142 55.1H345.141C345.641 55.1 346.141 54.9 346.441 54.5Z" fill="url(#paint0_linear_10306_84865)"/>
    </g>
    <path d="M166.52 33.5352C166.52 33.2305 166.473 32.957 166.38 32.7148C166.294 32.4648 166.13 32.2383 165.887 32.0352C165.645 31.8242 165.305 31.6172 164.868 31.4141C164.43 31.2109 163.864 31 163.169 30.7812C162.395 30.5312 161.661 30.25 160.966 29.9375C160.278 29.625 159.669 29.2617 159.137 28.8477C158.614 28.4258 158.2 27.9375 157.895 27.3828C157.598 26.8281 157.45 26.1836 157.45 25.4492C157.45 24.7383 157.606 24.0938 157.919 23.5156C158.231 22.9297 158.669 22.4297 159.231 22.0156C159.794 21.5938 160.458 21.2695 161.223 21.043C161.997 20.8164 162.845 20.7031 163.766 20.7031C165.024 20.7031 166.122 20.9297 167.059 21.3828C167.997 21.8359 168.723 22.457 169.239 23.2461C169.762 24.0352 170.024 24.9375 170.024 25.9531H166.532C166.532 25.4531 166.427 25.0156 166.216 24.6406C166.012 24.2578 165.7 23.957 165.278 23.7383C164.864 23.5195 164.341 23.4102 163.708 23.4102C163.098 23.4102 162.591 23.5039 162.184 23.6914C161.778 23.8711 161.473 24.1172 161.27 24.4297C161.067 24.7344 160.966 25.0781 160.966 25.4609C160.966 25.75 161.036 26.0117 161.177 26.2461C161.325 26.4805 161.544 26.6992 161.833 26.9023C162.122 27.1055 162.477 27.2969 162.899 27.4766C163.321 27.6562 163.809 27.832 164.364 28.0039C165.294 28.2852 166.11 28.6016 166.813 28.9531C167.524 29.3047 168.118 29.6992 168.595 30.1367C169.071 30.5742 169.43 31.0703 169.673 31.625C169.915 32.1797 170.036 32.8086 170.036 33.5117C170.036 34.2539 169.891 34.918 169.602 35.5039C169.313 36.0898 168.895 36.5859 168.348 36.9922C167.802 37.3984 167.149 37.707 166.391 37.918C165.634 38.1289 164.786 38.2344 163.848 38.2344C163.005 38.2344 162.173 38.125 161.352 37.9062C160.532 37.6797 159.786 37.3398 159.114 36.8867C158.45 36.4336 157.919 35.8555 157.52 35.1523C157.122 34.4492 156.923 33.6172 156.923 32.6562H160.45C160.45 33.1875 160.532 33.6367 160.696 34.0039C160.86 34.3711 161.091 34.668 161.387 34.8945C161.692 35.1211 162.052 35.2852 162.466 35.3867C162.887 35.4883 163.348 35.5391 163.848 35.5391C164.458 35.5391 164.958 35.4531 165.348 35.2812C165.747 35.1094 166.04 34.8711 166.227 34.5664C166.423 34.2617 166.52 33.918 166.52 33.5352ZM180.775 20.9375V38H177.272V20.9375H180.775ZM186.025 20.9375V23.6914H172.104V20.9375H186.025ZM200.199 35.2578V38H191.117V35.2578H200.199ZM192.265 20.9375V38H188.749V20.9375H192.265ZM199.015 27.8867V30.5586H191.117V27.8867H199.015ZM200.187 20.9375V23.6914H191.117V20.9375H200.187ZM209.614 31.918H205.266V29.1758H209.614C210.286 29.1758 210.833 29.0664 211.255 28.8477C211.676 28.6211 211.985 28.3086 212.18 27.9102C212.376 27.5117 212.473 27.0625 212.473 26.5625C212.473 26.0547 212.376 25.582 212.18 25.1445C211.985 24.707 211.676 24.3555 211.255 24.0898C210.833 23.8242 210.286 23.6914 209.614 23.6914H206.485V38H202.969V20.9375H209.614C210.95 20.9375 212.094 21.1797 213.048 21.6641C214.008 22.1406 214.743 22.8008 215.251 23.6445C215.758 24.4883 216.012 25.4531 216.012 26.5391C216.012 27.6406 215.758 28.5938 215.251 29.3984C214.743 30.2031 214.008 30.8242 213.048 31.2617C212.094 31.6992 210.95 31.918 209.614 31.918ZM232.98 20.9023V38H229.605V24.793L225.55 26.082V23.4219L232.616 20.9023H232.98Z" fill="white"/>
    <path d="M131.665 35.8333L125.832 29.9999L127.477 28.3433L131.665 32.5316L140.52 23.6766L142.165 25.3333M133.999 18.3333C132.467 18.3333 130.95 18.635 129.534 19.2213C128.119 19.8076 126.832 20.667 125.749 21.7503C123.561 23.9383 122.332 26.9057 122.332 29.9999C122.332 33.0941 123.561 36.0616 125.749 38.2495C126.832 39.3328 128.119 40.1922 129.534 40.7785C130.95 41.3648 132.467 41.6666 133.999 41.6666C137.093 41.6666 140.06 40.4374 142.248 38.2495C144.436 36.0616 145.665 33.0941 145.665 29.9999C145.665 28.4678 145.364 26.9507 144.777 25.5353C144.191 24.1198 143.332 22.8337 142.248 21.7503C141.165 20.667 139.879 19.8076 138.463 19.2213C137.048 18.635 135.531 18.3333 133.999 18.3333Z" fill="white"/>
    <defs>
        <filter id="filter0_d_10306_84865" x="0" y="0" width="372.742" height="67.1001" filterUnits="userSpaceOnUse" color-interpolation-filters="sRGB">
            <feFlood flood-opacity="0" result="BackgroundImageFix"/>
            <feColorMatrix in="SourceAlpha" type="matrix" values="0 0 0 0 0 0 0 0 0 0 0 0 0 0 0 0 0 0 127 0" result="hardAlpha"/>
            <feOffset dy="4"/>
            <feGaussianBlur stdDeviation="4"/>
            <feComposite in2="hardAlpha" operator="out"/>
            <feColorMatrix type="matrix" values="0 0 0 0 0 0 0 0 0 0.279495 0 0 0 0 0.5375 0 0 0 0.25 0"/>
            <feBlend mode="normal" in2="BackgroundImageFix" result="effect1_dropShadow_10306_84865"/>
            <feBlend mode="normal" in="SourceGraphic" in2="effect1_dropShadow_10306_84865" result="shape"/>
        </filter>
        <linearGradient id="paint0_linear_10306_84865" x1="8" y1="4" x2="364.208" y2="58.5794" gradientUnits="userSpaceOnUse">
            <stop stop-color="#3DAAF2"/>
            <stop offset="1" stop-color="#1D93E1"/>
        </linearGradient>
    </defs>
</svg>
