<svg width="24" height="16" viewBox="0 0 24 16" fill="none" xmlns="http://www.w3.org/2000/svg">
    <path d="M0.5 0.5V14.5H12.54C12.2921 13.7471 12.1661 12.9594 12.1667 12.1667H5.16667C5.16667 11.5478 4.92083 10.9543 4.48325 10.5168C4.04566 10.0792 3.45217 9.83333 2.83333 9.83333V5.16667C4.12833 5.16667 5.16667 4.12833 5.16667 2.83333H16.8333C16.8333 3.45217 17.0792 4.04566 17.5168 4.48325C17.9543 4.92083 18.5478 5.16667 19.1667 5.16667V5.23667C19.9483 5.23667 20.73 5.37667 21.5 5.63333V0.5H0.5ZM11 4C9.01667 4.035 7.5 5.51667 7.5 7.5C7.5 9.48333 9.01667 10.93 11 11C11.4433 11 11.8983 10.9067 12.33 10.7317C12.645 9.44833 13.17 8.235 14.465 7.045C14.325 5.49333 12.855 3.965 11 4ZM22.235 7.815L17.72 12.365L16.145 10.7667L14.5 12.4233L17.7083 15.6667L23.8683 9.46L22.235 7.815Z" fill="#29323E"/>
</svg>
