<svg width="24" height="24" viewBox="0 0 24 24" fill="none" xmlns="http://www.w3.org/2000/svg">
<path d="M18.08 17.8C17.62 17.93 17.21 18 16.85 18C15.65 18 14.84 17.12 14.43 15.35H14.38C13.39 17.26 12 18.21 10.25 18.21C8.94004 18.21 7.89004 17.72 7.10004 16.73C6.31004 15.74 5.92004 14.5 5.92004 13C5.92004 11.25 6.37004 9.85 7.26004 8.76C8.15004 7.67 9.36004 7.12 10.89 7.12C11.71 7.12 12.45 7.35 13.09 7.8C13.73 8.26 14.22 8.89999 14.56 9.72999H14.6L15.31 7.33H17.87L15.73 12.65C15.97 13.89 16.22 14.74 16.5 15.19C16.74 15.64 17.08 15.87 17.5 15.87C17.74 15.87 17.93 15.83 18.1 15.76L18.08 17.8ZM13.82 12.56C13.61 11.43 13.27 10.55 12.81 9.95C12.36 9.34 11.81 9.04 11.18 9.04C10.36 9.04 9.70004 9.41 9.21004 10.14C8.72004 10.88 8.50004 11.79 8.50004 12.86C8.50004 13.84 8.69004 14.65 9.12004 15.31C9.54004 15.97 10.11 16.29 10.82 16.29C11.42 16.29 11.97 16 12.46 15.45C12.96 14.88 13.37 14.05 13.7 12.96L13.82 12.56Z" fill="white"/>
</svg>
