<svg width="32" height="32" viewBox="0 0 32 32" fill="none" xmlns="http://www.w3.org/2000/svg">
<path d="M28 -1.74846e-07C30.2091 -7.8281e-08 32 1.79086 32 4L32 28C32 30.2091 30.2091 32 28 32L4 32C1.79086 32 -1.32048e-06 30.2091 -1.22392e-06 28L-1.74846e-07 4C-7.8281e-08 1.79086 1.79086 -1.32048e-06 4 -1.22392e-06L28 -1.74846e-07Z" fill="#F5F5F5"/>
<path d="M17.3333 21.3466L17.3333 5.33331L14.6666 5.33331L14.6666 21.3466L10.6666 21.3466L15.9999 26.6666L21.3333 21.3466L17.3333 21.3466Z" fill="#333333"/>
</svg>
