<svg width="24" height="24" viewBox="0 0 24 24" fill="none" xmlns="http://www.w3.org/2000/svg">
<path d="M9.22988 17.59V23.12H6.87988V6.72C6.87988 5.27 7.30988 4.13 8.15988 3.28C8.99988 2.43 10.1699 2 11.6099 2C12.9999 2 14.0699 2.34 14.8699 3C15.6599 3.68 16.0499 4.62 16.0499 5.81C16.0499 6.63 15.7899 7.4 15.2699 8.11C14.7499 8.82 14.0799 9.31 13.2499 9.58V9.62C14.4999 9.82 15.4699 10.27 16.1299 11C16.7899 11.71 17.1199 12.62 17.1199 13.74C17.1199 15.06 16.6599 16.14 15.7499 16.97C14.8299 17.8 13.6299 18.21 12.1299 18.21C11.0699 18.21 10.0999 18 9.22988 17.59ZM10.7199 10.75V8.83C11.5899 8.72 12.2999 8.4 12.8699 7.86C13.4299 7.31 13.7099 6.7 13.7099 6C13.7099 4.62 12.9999 3.92 11.5999 3.92C10.8399 3.92 10.2499 4.16 9.83988 4.65C9.42988 5.14 9.22988 5.82 9.22988 6.71V15.5C10.1399 16.03 11.0299 16.29 11.8899 16.29C12.7299 16.29 13.3899 16.07 13.8599 15.64C14.3299 15.2 14.5599 14.58 14.5599 13.79C14.5599 12 13.2799 11 10.7199 10.75Z" fill="white"/>
</svg>
