<svg width="28" height="28" viewBox="0 0 28 28" fill="none" xmlns="http://www.w3.org/2000/svg">
<path fill-rule="evenodd" clip-rule="evenodd" d="M16.3334 10.5H14V6.99996H10.5V4.66663H14V1.16663H16.3334V4.66663H19.8334V6.99996H16.3334V10.5ZM7.00004 23.3333C7.00004 22.05 8.03837 21 9.32171 21C10.605 21 11.655 22.05 11.655 23.3333C11.655 24.6166 10.605 25.6666 9.32171 25.6666C8.03837 25.6666 7.00004 24.6166 7.00004 23.3333ZM20.9884 21C19.705 21 18.6667 22.05 18.6667 23.3333C18.6667 24.6166 19.705 25.6666 20.9884 25.6666C22.2717 25.6666 23.3217 24.6166 23.3217 23.3333C23.3217 22.05 22.2717 21 20.9884 21ZM19.3084 15.1666H10.6167L9.33337 17.5H23.3334V19.8333H9.33337C7.56004 19.8333 6.44004 17.9316 7.29171 16.3683L8.86671 13.5216L4.66671 4.66663H2.33337V2.33329H6.14837L11.1184 12.8333H19.3084L23.8234 4.66663L25.8534 5.78663L21.35 13.965C20.9534 14.6883 20.1834 15.1666 19.3084 15.1666Z" fill="#1C95E7"/>
</svg>
