<svg width="20" height="21" viewBox="0 0 20 21" fill="none" xmlns="http://www.w3.org/2000/svg">
<path d="M10.0013 15.4826C11.943 15.4826 13.5846 14.2659 14.2596 12.5659H5.74297C6.40964 14.2659 8.05964 15.4826 10.0013 15.4826ZM7.08464 10.0659C7.41616 10.0659 7.7341 9.93422 7.96852 9.6998C8.20294 9.46538 8.33464 9.14744 8.33464 8.81592C8.33464 8.4844 8.20294 8.16646 7.96852 7.93203C7.7341 7.69761 7.41616 7.56592 7.08464 7.56592C6.75312 7.56592 6.43517 7.69761 6.20075 7.93203C5.96633 8.16646 5.83464 8.4844 5.83464 8.81592C5.83464 9.14744 5.96633 9.46538 6.20075 9.6998C6.43517 9.93422 6.75312 10.0659 7.08464 10.0659ZM12.918 10.0659C13.2495 10.0659 13.5674 9.93422 13.8019 9.6998C14.0363 9.46538 14.168 9.14744 14.168 8.81592C14.168 8.4844 14.0363 8.16646 13.8019 7.93203C13.5674 7.69761 13.2495 7.56592 12.918 7.56592C12.5864 7.56592 12.2685 7.69761 12.0341 7.93203C11.7997 8.16646 11.668 8.4844 11.668 8.81592C11.668 9.14744 11.7997 9.46538 12.0341 9.6998C12.2685 9.93422 12.5864 10.0659 12.918 10.0659ZM10.0013 17.5659C8.23319 17.5659 6.5375 16.8635 5.28726 15.6133C4.03701 14.3631 3.33464 12.6674 3.33464 10.8993C3.33464 9.13114 4.03701 7.43545 5.28726 6.18521C6.5375 4.93496 8.23319 4.23258 10.0013 4.23258C11.7694 4.23258 13.4651 4.93496 14.7153 6.18521C15.9656 7.43545 16.668 9.13114 16.668 10.8993C16.668 12.6674 15.9656 14.3631 14.7153 15.6133C13.4651 16.8635 11.7694 17.5659 10.0013 17.5659ZM10.0013 2.56592C5.39297 2.56592 1.66797 6.31592 1.66797 10.8993C1.66797 13.1094 2.54594 15.229 4.10875 16.7918C4.88257 17.5656 5.80123 18.1795 6.81227 18.5982C7.82332 19.017 8.90695 19.2326 10.0013 19.2326C12.2114 19.2326 14.3311 18.3546 15.8939 16.7918C17.4567 15.229 18.3346 13.1094 18.3346 10.8993C18.3346 9.8049 18.1191 8.72127 17.7003 7.71022C17.2815 6.69918 16.6677 5.78052 15.8939 5.00669C15.12 4.23287 14.2014 3.61904 13.1903 3.20026C12.1793 2.78147 11.0957 2.56592 10.0013 2.56592Z" fill="#707A8B"/>
</svg>
