<svg width="22" height="22" viewBox="0 0 22 22" fill="none" xmlns="http://www.w3.org/2000/svg">
<path d="M0.5 1.25V20.75C0.5 21.1647 0.83525 21.5 1.25 21.5H11C11.4147 21.5 11.75 21.1647 11.75 20.75V18.75C11.75 18.3353 11.4147 18 11 18H4V4H11C11.4147 4 11.75 3.664 11.75 3.25V1.25C11.75 0.836 11.4147 0.5 11 0.5H1.25C0.83525 0.5 0.5 0.836 0.5 1.25Z" fill="#ADB3BD"/>
<path d="M6.50006 13.2501H16.2501V14.7501C16.2501 15.0531 16.2501 16.5391 16.2501 16.5391C16.2501 16.5391 17.3871 15.4236 17.5303 15.2804L21.2803 11.5304C21.5736 11.2371 21.5736 10.7631 21.2803 10.4699L17.5303 6.71986C17.3158 6.50461 16.2501 5.5 16.2501 5.5C16.2501 5.5 16.2501 6.94711 16.2501 7.25011V8.75011H6.5C6.5 8.75011 6.50006 9.08611 6.50006 9.50011V12.5001C6.50006 12.9149 6.5 13 6.50006 13.2501Z" fill="#ADB3BD"/>
</svg>
