<svg width="24" height="24" viewBox="0 0 24 24" fill="none" xmlns="http://www.w3.org/2000/svg">
<path d="M1.5 2.25V21.75C1.5 22.1647 1.83525 22.5 2.25 22.5H12C12.4147 22.5 12.75 22.1647 12.75 21.75V19.75C12.75 19.3353 12.4147 19 12 19H5V5H12C12.4147 5 12.75 4.664 12.75 4.25V2.25C12.75 1.836 12.4147 1.5 12 1.5H2.25C1.83525 1.5 1.5 1.836 1.5 2.25Z" fill="#29323E"/>
<path d="M7.50006 14.2501H17.2501V15.7501C17.2501 16.0531 17.2501 17.5391 17.2501 17.5391C17.2501 17.5391 18.3871 16.4236 18.5303 16.2804L22.2803 12.5304C22.5736 12.2371 22.5736 11.7631 22.2803 11.4699L18.5303 7.71986C18.3158 7.50461 17.2501 6.5 17.2501 6.5C17.2501 6.5 17.2501 7.94711 17.2501 8.25011V9.75011H7.5C7.5 9.75011 7.50006 10.0861 7.50006 10.5001V13.5001C7.50006 13.9149 7.5 14 7.50006 14.2501Z" fill="#29323E"/>
</svg>
