<svg width="15" height="10" viewBox="0 0 15 10" fill="none" xmlns="http://www.w3.org/2000/svg">
<path d="M7.66732 3C8.19775 3 8.70646 3.21071 9.08153 3.58579C9.4566 3.96086 9.66732 4.46957 9.66732 5C9.66732 5.53043 9.4566 6.03914 9.08153 6.41421C8.70646 6.78929 8.19775 7 7.66732 7C7.13689 7 6.62818 6.78929 6.2531 6.41421C5.87803 6.03914 5.66732 5.53043 5.66732 5C5.66732 4.46957 5.87803 3.96086 6.2531 3.58579C6.62818 3.21071 7.13689 3 7.66732 3ZM7.66732 0C11.0007 0 13.8473 2.07333 15.0007 5C13.8473 7.92667 11.0007 10 7.66732 10C4.33398 10 1.48732 7.92667 0.333984 5C1.48732 2.07333 4.33398 0 7.66732 0ZM1.78732 5C2.32615 6.1002 3.16285 7.02717 4.2023 7.6755C5.24175 8.32384 6.44225 8.66755 7.66732 8.66755C8.89239 8.66755 10.0929 8.32384 11.1323 7.6755C12.1718 7.02717 13.0085 6.1002 13.5473 5C13.0085 3.8998 12.1718 2.97283 11.1323 2.3245C10.0929 1.67616 8.89239 1.33245 7.66732 1.33245C6.44225 1.33245 5.24175 1.67616 4.2023 2.3245C3.16285 2.97283 2.32615 3.8998 1.78732 5Z" fill="#ADB3BD"/>
</svg>
