<svg width="28" height="28" viewBox="0 0 28 28" fill="none" xmlns="http://www.w3.org/2000/svg">
<path d="M13.9993 10.5C14.9276 10.5 15.8178 10.8687 16.4742 11.5251C17.1306 12.1815 17.4993 13.0717 17.4993 14C17.4993 14.9283 17.1306 15.8185 16.4742 16.4749C15.8178 17.1313 14.9276 17.5 13.9993 17.5C13.0711 17.5 12.1809 17.1313 11.5245 16.4749C10.8681 15.8185 10.4993 14.9283 10.4993 14C10.4993 13.0717 10.8681 12.1815 11.5245 11.5251C12.1809 10.8687 13.0711 10.5 13.9993 10.5ZM13.9993 5.25C19.8327 5.25 24.8144 8.87833 26.8327 14C24.8144 19.1217 19.8327 22.75 13.9993 22.75C8.16602 22.75 3.18435 19.1217 1.16602 14C3.18435 8.87833 8.16602 5.25 13.9993 5.25ZM3.70935 14C4.65231 15.9254 6.11654 17.5475 7.93557 18.6821C9.75461 19.8167 11.8555 20.4182 13.9993 20.4182C16.1432 20.4182 18.2441 19.8167 20.0631 18.6821C21.8822 17.5475 23.3464 15.9254 24.2894 14C23.3464 12.0746 21.8822 10.4525 20.0631 9.31787C18.2441 8.18328 16.1432 7.58179 13.9993 7.58179C11.8555 7.58179 9.75461 8.18328 7.93557 9.31787C6.11654 10.4525 4.65231 12.0746 3.70935 14Z" fill="#4C586D"/>
</svg>
