<svg width="17" height="22" viewBox="0 0 17 22" fill="none" xmlns="http://www.w3.org/2000/svg">
<path d="M16.0492 9.99664C15.5942 8.97256 14.9328 8.05339 14.1063 7.29665L13.4242 6.67086C13.4011 6.6502 13.3732 6.63553 13.343 6.62816C13.3129 6.62078 13.2814 6.62091 13.2513 6.62855C13.2212 6.63619 13.1935 6.65109 13.1705 6.67195C13.1475 6.69282 13.13 6.719 13.1195 6.74821L12.8148 7.62243C12.625 8.17086 12.2758 8.73102 11.7812 9.2818C11.7484 9.31696 11.7109 9.32633 11.6852 9.32867C11.6594 9.33102 11.6195 9.32633 11.5844 9.29352C11.5516 9.26539 11.5352 9.22321 11.5375 9.18102C11.6242 7.77008 11.2023 6.17868 10.2789 4.44665C9.51484 3.00759 8.45312 1.88493 7.12656 1.10212L6.15859 0.532589C6.03203 0.457589 5.87031 0.556027 5.87734 0.703683L5.92891 1.82868C5.96406 2.59743 5.875 3.27712 5.66406 3.84196C5.40625 4.53337 5.03594 5.17555 4.5625 5.75212C4.23302 6.15281 3.85959 6.51524 3.44922 6.83258C2.46087 7.59235 1.65722 8.56586 1.09844 9.68024C0.541033 10.8043 0.25068 12.0419 0.25 13.2966C0.25 14.4029 0.467969 15.474 0.899219 16.4841C1.31562 17.4567 1.91654 18.3394 2.66875 19.0834C3.42813 19.8334 4.30938 20.424 5.29141 20.8341C6.30859 21.2607 7.38672 21.4763 8.5 21.4763C9.61328 21.4763 10.6914 21.2607 11.7086 20.8365C12.6882 20.4287 13.579 19.8341 14.3312 19.0857C15.0906 18.3357 15.6859 17.4591 16.1008 16.4865C16.5314 15.4791 16.7523 14.3945 16.75 13.299C16.75 12.1552 16.5156 11.0443 16.0492 9.99664ZM13.2109 17.949C11.9523 19.1959 10.2812 19.8802 8.5 19.8802C6.71875 19.8802 5.04766 19.1959 3.78906 17.949C2.53516 16.7044 1.84375 15.0544 1.84375 13.299C1.84375 12.2795 2.07344 11.3021 2.52578 10.3927C2.96641 9.50446 3.62266 8.70992 4.41953 8.09821C4.92775 7.7096 5.3887 7.2628 5.79297 6.76696C6.37891 6.05211 6.83828 5.25524 7.15703 4.39977C7.28778 4.04689 7.38279 3.68178 7.44062 3.30993C8.00547 3.83024 8.47891 4.45837 8.875 5.1943C9.65781 6.66149 10.0187 7.96696 9.94844 9.07789C9.93164 9.33954 9.97437 9.60159 10.0734 9.84435C10.1725 10.0871 10.3253 10.3042 10.5203 10.4795C10.6893 10.6321 10.887 10.7497 11.1019 10.8254C11.3167 10.901 11.5445 10.9332 11.7719 10.9201C12.2336 10.8966 12.6578 10.6927 12.9672 10.3482C13.2789 9.99899 13.5484 9.64274 13.7734 9.27946C14.1016 9.69899 14.3758 10.156 14.5938 10.6482C14.9664 11.4873 15.1562 12.3802 15.1562 13.299C15.1562 15.0544 14.4648 16.7068 13.2109 17.949Z" fill="url(#paint0_linear_5653_14130)"/>
<defs>
<linearGradient id="paint0_linear_5653_14130" x1="0.25" y1="0.506836" x2="17.1071" y2="0.797956" gradientUnits="userSpaceOnUse">
<stop stop-color="#FFD505"/>
<stop offset="1" stop-color="#F44336"/>
</linearGradient>
</defs>
</svg>
