<svg width="116" height="116" viewBox="0 0 116 116" fill="none" xmlns="http://www.w3.org/2000/svg">
    <path d="M58.0026 79.3333C55.0571 79.3333 52.6693 81.7211 52.6693 84.6667C52.6693 87.6122 55.0571 90 58.0026 90C60.9481 90 63.3359 87.6122 63.3359 84.6667C63.3359 81.7211 60.9481 79.3333 58.0026 79.3333Z" fill="#FCCA46"/>
    <path d="M54.0013 68.6667C54.0013 70.8758 55.7922 72.6667 58.0013 72.6667C60.2104 72.6667 62.0013 70.8758 62.0013 68.6667H54.0013ZM62.0013 31.3334C62.0013 29.1243 60.2104 27.3334 58.0013 27.3334C55.7922 27.3334 54.0013 29.1243 54.0013 31.3334H62.0013ZM107.335 58.0001C107.335 85.2459 85.2472 107.333 58.0013 107.333V115.333C89.6658 115.333 115.335 89.6646 115.335 58.0001H107.335ZM58.0013 107.333C30.7553 107.333 8.66797 85.2459 8.66797 58.0001H0.667969C0.667969 89.6646 26.337 115.333 58.0013 115.333V107.333ZM8.66797 58.0001C8.66797 30.7541 30.7553 8.66675 58.0013 8.66675V0.666748C26.337 0.666748 0.667969 26.3358 0.667969 58.0001H8.66797ZM58.0013 8.66675C85.2472 8.66675 107.335 30.7541 107.335 58.0001H115.335C115.335 26.3358 89.6658 0.666748 58.0013 0.666748V8.66675ZM62.0013 68.6667V31.3334H54.0013V68.6667H62.0013Z" fill="#FCCA46"/>
</svg>
