<svg width="20" height="20" viewBox="0 0 20 20" fill="none" xmlns="http://www.w3.org/2000/svg">
<path d="M10 17.5C8.01088 17.5 6.10322 16.7098 4.6967 15.3033C3.29018 13.8968 2.5 11.9891 2.5 10C2.5 8.01088 3.29018 6.10322 4.6967 4.6967C6.10322 3.29018 8.01088 2.5 10 2.5C11.9891 2.5 13.8968 3.29018 15.3033 4.6967C16.7098 6.10322 17.5 8.01088 17.5 10C17.5 11.9891 16.7098 13.8968 15.3033 15.3033C13.8968 16.7098 11.9891 17.5 10 17.5V17.5Z" stroke="#4C586D" stroke-width="1.5" stroke-linecap="round" stroke-linejoin="round"/>
<path d="M9.99967 11.0415V10.8332C9.99967 10.1523 10.4205 9.78318 10.8422 9.49984C11.2538 9.22234 11.6663 8.86068 11.6663 8.19401C11.6663 7.75198 11.4907 7.32806 11.1782 7.0155C10.8656 6.70294 10.4417 6.52734 9.99967 6.52734C9.55765 6.52734 9.13372 6.70294 8.82116 7.0155C8.5086 7.32806 8.33301 7.75198 8.33301 8.19401" stroke="#4C586D" stroke-width="1.5" stroke-linecap="round" stroke-linejoin="round"/>
<path d="M9.99884 13.3333C9.88384 13.3333 9.79051 13.4267 9.79134 13.5417C9.79134 13.6567 9.88468 13.75 9.99968 13.75C10.1147 13.75 10.208 13.6567 10.208 13.5417C10.208 13.4267 10.1147 13.3333 9.99884 13.3333" stroke="#4C586D" stroke-width="1.5" stroke-linecap="round" stroke-linejoin="round"/>
</svg>
