<svg width="152" height="152" viewBox="0 0 152 152" fill="none" xmlns="http://www.w3.org/2000/svg">
    <path d="M34.4379 16.625C24.6314 16.625 16.6254 24.631 16.6254 34.4375C16.6254 44.244 24.6314 52.25 34.4379 52.25H128.25V128.25H34.4379C28.4554 128.25 23.7504 123.545 23.7504 117.562V55.8125C23.757 55.3404 23.6698 54.8717 23.4938 54.4337C23.3177 53.9956 23.0564 53.5969 22.7249 53.2607C22.3935 52.9245 21.9985 52.6575 21.5629 52.4753C21.1274 52.2931 20.66 52.1993 20.1879 52.1993C19.7157 52.1993 19.2483 52.2931 18.8128 52.4753C18.3772 52.6575 17.9823 52.9245 17.6508 53.2607C17.3193 53.5969 17.058 53.9956 16.8819 54.4337C16.7059 54.8717 16.6187 55.3404 16.6254 55.8125V117.562C16.6254 127.369 24.6314 135.375 34.4379 135.375H131.813C132.758 135.375 133.664 135 134.332 134.331C135 133.663 135.375 132.757 135.375 131.812V48.6875C135.375 47.7427 135 46.8366 134.332 46.1685C133.664 45.5005 132.758 45.1251 131.813 45.125H34.4379C28.4554 45.125 23.7504 40.42 23.7504 34.4375C23.7504 28.455 28.4554 23.75 34.4379 23.75H114V36.8125C113.994 37.2846 114.081 37.7533 114.257 38.1913C114.433 38.6294 114.694 39.0281 115.026 39.3643C115.357 39.7005 115.752 39.9675 116.188 40.1497C116.623 40.3319 117.091 40.4257 117.563 40.4257C118.035 40.4257 118.502 40.3319 118.938 40.1497C119.373 39.9675 119.768 39.7005 120.1 39.3643C120.431 39.0281 120.693 38.6294 120.869 38.1913C121.045 37.7533 121.132 37.2846 121.125 36.8125V20.1875C121.125 19.2427 120.75 18.3366 120.082 17.6685C119.414 17.0005 118.508 16.6251 117.563 16.625H34.4379Z" fill="#FA8848"/>
    <path d="M34.4379 16.625C24.6314 16.625 16.6254 24.631 16.6254 34.4375C16.6254 44.244 24.6314 52.25 34.4379 52.25H128.25V128.25H34.4379C28.4554 128.25 23.7504 123.545 23.7504 117.562V55.8125C23.757 55.3404 23.6698 54.8717 23.4938 54.4337C23.3177 53.9956 23.0564 53.5969 22.7249 53.2607C22.3935 52.9245 21.9985 52.6575 21.5629 52.4753C21.1274 52.2931 20.66 52.1993 20.1879 52.1993C19.7157 52.1993 19.2483 52.2931 18.8128 52.4753C18.3772 52.6575 17.9823 52.9245 17.6508 53.2607C17.3193 53.5969 17.058 53.9956 16.8819 54.4337C16.7059 54.8717 16.6187 55.3404 16.6254 55.8125V117.562C16.6254 127.369 24.6314 135.375 34.4379 135.375H131.813C132.758 135.375 133.664 135 134.332 134.331C135 133.663 135.375 132.757 135.375 131.812V48.6875C135.375 47.7427 135 46.8366 134.332 46.1685C133.664 45.5005 132.758 45.1251 131.813 45.125H34.4379C28.4554 45.125 23.7504 40.42 23.7504 34.4375C23.7504 28.455 28.4554 23.75 34.4379 23.75H114V36.8125C113.994 37.2846 114.081 37.7533 114.257 38.1913C114.433 38.6294 114.694 39.0281 115.026 39.3643C115.357 39.7005 115.752 39.9675 116.188 40.1497C116.623 40.3319 117.091 40.4257 117.563 40.4257C118.035 40.4257 118.502 40.3319 118.938 40.1497C119.373 39.9675 119.768 39.7005 120.1 39.3643C120.431 39.0281 120.693 38.6294 120.869 38.1913C121.045 37.7533 121.132 37.2846 121.125 36.8125V20.1875C121.125 19.2427 120.75 18.3366 120.082 17.6685C119.414 17.0005 118.508 16.6251 117.563 16.625H34.4379Z" stroke="white"/>
    <path d="M56.5525 106.34L56.5526 106.34L56.5601 106.335C62.0107 102.354 68.7494 100 76.0017 100C83.254 100 89.9928 102.354 95.4434 106.335L95.4433 106.335L95.4509 106.34C95.8199 106.589 96.1349 106.91 96.377 107.284C96.6191 107.657 96.7835 108.076 96.8602 108.515C96.9369 108.953 96.9244 109.403 96.8235 109.836C96.7226 110.27 96.5353 110.679 96.2728 111.038L96.4748 111.186L96.2728 111.038C96.0104 111.398 95.6781 111.701 95.2959 111.929C94.9137 112.158 94.4893 112.307 94.0483 112.367C93.6072 112.428 93.1584 112.399 92.7287 112.283C92.2991 112.166 91.8973 111.964 91.5475 111.688L91.5476 111.688L91.5403 111.683C87.1803 108.499 81.8278 106.625 76.0017 106.625C70.1757 106.625 64.8232 108.499 60.4632 111.683L60.4631 111.683L60.456 111.688C60.1062 111.964 59.7044 112.166 59.2748 112.283C58.8451 112.399 58.3963 112.428 57.9552 112.367C57.5142 112.307 57.0898 112.158 56.7076 111.929C56.3254 111.701 55.9931 111.398 55.7307 111.038C55.4682 110.679 55.2809 110.27 55.18 109.836C55.0791 109.403 55.0666 108.953 55.1433 108.515C55.22 108.076 55.3844 107.657 55.6265 107.284C55.8686 106.91 56.1836 106.589 56.5525 106.34Z" fill="#FA8848" stroke="white" stroke-width="0.5"/>
    <path d="M88.3871 74.2097L88.3871 74.2097C88.6957 73.8913 89.0651 73.6381 89.4734 73.4651C89.8816 73.2921 90.3205 73.2028 90.7639 73.2025C91.2073 73.2022 91.6462 73.291 92.0547 73.4635C92.4632 73.6359 92.8329 73.8887 93.1419 74.2067L93.1419 74.2067L93.1444 74.2092L94.8238 75.8886L95.0006 76.0654L95.1773 75.8886L96.8567 74.2092L96.8567 74.2092L96.8592 74.2067C97.1652 73.8919 97.5307 73.6411 97.9345 73.4688C98.3383 73.2965 98.7722 73.2062 99.2112 73.2031C99.6502 73.2 100.085 73.2842 100.492 73.4507C100.898 73.6173 101.267 73.8629 101.577 74.1734C101.888 74.4838 102.133 74.8528 102.3 75.2589C102.466 75.6651 102.551 76.1003 102.547 76.5393C102.544 76.9783 102.454 77.4123 102.282 77.8161C102.109 78.2198 101.859 78.5853 101.544 78.8913L101.544 78.8913L101.541 78.8938L99.8619 80.5732L99.6852 80.75L99.8619 80.9267L101.541 82.6061L101.541 82.6061L101.544 82.6086C101.859 82.9146 102.109 83.2801 102.282 83.6839C102.454 84.0876 102.544 84.5216 102.547 84.9606C102.551 85.3996 102.466 85.8348 102.3 86.241C102.133 86.6471 101.888 87.0162 101.577 87.3266C101.267 87.637 100.898 87.8826 100.492 88.0492C100.085 88.2157 99.6502 88.2999 99.2112 88.2968C98.7722 88.2937 98.3383 88.2034 97.9345 88.0311C97.5307 87.8588 97.1652 87.608 96.8592 87.2932L96.8592 87.2932L96.8567 87.2907L95.1773 85.6113L95.0006 85.4345L94.8238 85.6113L93.1444 87.2907L93.1444 87.2907L93.1419 87.2932C92.8359 87.608 92.4704 87.8588 92.0667 88.0311C91.6629 88.2034 91.2289 88.2937 90.7899 88.2968C90.3509 88.2999 89.9157 88.2157 89.5096 88.0492C89.1034 87.8826 88.7344 87.637 88.424 87.3266C88.1135 87.0162 87.8679 86.6472 87.7014 86.241C87.5348 85.8348 87.4506 85.3996 87.4537 84.9606C87.4568 84.5216 87.5472 84.0876 87.7194 83.6839C87.8917 83.2801 88.1425 82.9146 88.4573 82.6086L88.4573 82.6086L88.4598 82.6061L90.1392 80.9267L90.316 80.75L90.1392 80.5732L88.4598 78.8938L88.4599 78.8938L88.4573 78.8913C87.8277 78.2795 87.4666 77.4428 87.4535 76.565C87.4403 75.6872 87.7761 74.8401 88.3871 74.2097Z" fill="#FA8848" stroke="white" stroke-width="0.5"/>
    <path d="M50.3871 74.2097L50.3871 74.2097C50.6957 73.8913 51.0651 73.6381 51.4734 73.4651C51.8816 73.2921 52.3205 73.2028 52.7639 73.2025C53.2073 73.2022 53.6462 73.291 54.0547 73.4635C54.4632 73.6359 54.8329 73.8887 55.1419 74.2067L55.1419 74.2067L55.1444 74.2092L56.8238 75.8886L57.0006 76.0654L57.1773 75.8886L58.8567 74.2092L58.8567 74.2092L58.8592 74.2067C59.1652 73.8919 59.5307 73.6411 59.9345 73.4688C60.3382 73.2965 60.7722 73.2062 61.2112 73.2031C61.6502 73.2 62.0854 73.2842 62.4916 73.4507C62.8978 73.6173 63.2668 73.8629 63.5772 74.1734C63.8876 74.4838 64.1332 74.8528 64.2998 75.2589C64.4663 75.6651 64.5505 76.1003 64.5474 76.5393C64.5443 76.9783 64.454 77.4123 64.2817 77.8161C64.1094 78.2198 63.8586 78.5853 63.5438 78.8913L63.5438 78.8913L63.5413 78.8938L61.8619 80.5732L61.6852 80.75L61.8619 80.9267L63.5413 82.6061L63.5413 82.6061L63.5438 82.6086C63.8586 82.9146 64.1094 83.2801 64.2817 83.6839C64.454 84.0876 64.5443 84.5216 64.5474 84.9606C64.5505 85.3996 64.4663 85.8348 64.2998 86.241C64.1332 86.6471 63.8876 87.0162 63.5772 87.3266C63.2668 87.637 62.8978 87.8826 62.4916 88.0492C62.0854 88.2157 61.6502 88.2999 61.2112 88.2968C60.7722 88.2937 60.3383 88.2034 59.9345 88.0311C59.5307 87.8588 59.1652 87.608 58.8592 87.2932L58.8592 87.2932L58.8567 87.2907L57.1773 85.6113L57.0006 85.4345L56.8238 85.6113L55.1444 87.2907L55.1444 87.2907L55.1419 87.2932C54.8359 87.608 54.4704 87.8588 54.0667 88.0311C53.6629 88.2034 53.2289 88.2937 52.7899 88.2968C52.3509 88.2999 51.9157 88.2157 51.5095 88.0492C51.1034 87.8826 50.7344 87.637 50.424 87.3266C50.1135 87.0162 49.8679 86.6472 49.7014 86.241C49.5348 85.8348 49.4506 85.3996 49.4537 84.9606C49.4568 84.5216 49.5471 84.0876 49.7194 83.6839C49.8917 83.2801 50.1425 82.9146 50.4573 82.6086L50.4573 82.6086L50.4598 82.6061L52.1392 80.9267L52.316 80.75L52.1392 80.5732L50.4598 78.8938L50.4599 78.8938L50.4573 78.8913C49.8277 78.2795 49.4666 77.4428 49.4535 76.565C49.4403 75.6872 49.7761 74.8401 50.3871 74.2097Z" fill="#FA8848" stroke="white" stroke-width="0.5"/>
</svg>
