<svg width="24" height="24" viewBox="0 0 24 24" fill="none" xmlns="http://www.w3.org/2000/svg">
<path d="M15.9634 6.03602C16.6264 5.37298 17.5257 5.00049 18.4634 5.00049C19.401 5.00049 20.3003 5.37298 20.9634 6.03602C21.6264 6.69906 21.9989 7.59834 21.9989 8.53602C21.9989 9.4737 21.6264 10.373 20.9634 11.036L15.0844 16.915C14.4213 17.5781 13.522 17.9506 12.5844 17.9506C11.6467 17.9506 10.7474 17.5781 10.0844 16.915C9.42132 16.252 9.04883 15.3527 9.04883 14.415C9.04883 13.4773 9.42132 12.5781 10.0844 11.915L10.9634 11.036" stroke="white" stroke-width="1.5" stroke-linecap="round" stroke-linejoin="round"/>
<path d="M8.03553 18.964C7.70723 19.2923 7.31747 19.5527 6.88852 19.7304C6.45957 19.9081 5.99983 19.9995 5.53553 19.9995C5.07124 19.9995 4.61149 19.9081 4.18254 19.7304C3.75359 19.5527 3.36384 19.2923 3.03553 18.964C2.37249 18.3009 2 17.4017 2 16.464C2 15.5263 2.37249 14.627 3.03553 13.964L8.91453 8.08497C9.57757 7.42193 10.4769 7.04944 11.4145 7.04944C12.3522 7.04944 13.2515 7.42193 13.9145 8.08497C14.5776 8.74801 14.9501 9.64729 14.9501 10.585C14.9501 11.5227 14.5776 12.4219 13.9145 13.085L12.9995 14" stroke="white" stroke-width="1.5" stroke-linecap="round" stroke-linejoin="round"/>
</svg>
