<svg width="29" height="28" viewBox="0 0 29 28" fill="none" xmlns="http://www.w3.org/2000/svg">
<path d="M8.38602 5.6466L6.28602 3.55827L4.64102 5.20327L6.72935 7.2916L8.38602 5.6466ZM5.16602 12.2499H1.66602V14.5833H5.16602V12.2499ZM15.666 0.641602H13.3327V4.08327H15.666V0.641602ZM24.3577 5.20327L22.7127 3.55827L20.6243 5.6466L22.2693 7.2916L24.3577 5.20327ZM20.6127 21.1866L22.701 23.2866L24.346 21.6416L22.246 19.5533L20.6127 21.1866ZM23.8327 12.2499V14.5833H27.3327V12.2499H23.8327ZM14.4993 6.4166C10.6377 6.4166 7.49935 9.55493 7.49935 13.4166C7.49935 17.2783 10.6377 20.4166 14.4993 20.4166C18.361 20.4166 21.4993 17.2783 21.4993 13.4166C21.4993 9.55493 18.361 6.4166 14.4993 6.4166ZM13.3327 26.1916H15.666V22.7499H13.3327V26.1916ZM4.64102 21.6299L6.28602 23.2749L8.37435 21.1749L6.72935 19.5299L4.64102 21.6299Z" fill="#4C586D"/>
</svg>
