<svg width="130" height="130" viewBox="0 0 130 130" fill="none" xmlns="http://www.w3.org/2000/svg">
<g clip-path="url(#clip0_8597_88283)">
<path d="M65.3701 129.696C101.126 129.696 130.112 100.71 130.112 64.9541C130.112 29.198 101.126 0.211914 65.3701 0.211914C29.614 0.211914 0.62793 29.198 0.62793 64.9541C0.62793 100.71 29.614 129.696 65.3701 129.696Z" fill="#26A17B"/>
<path d="M99.2316 97.3986C70.524 103.198 42.4774 84.5922 36.6429 56.0513C33.7245 42.2219 36.7217 28.4094 43.8523 17.2552C22.2317 27.1919 9.44516 50.9747 14.404 75.3962C20.2384 103.937 48.285 122.543 76.9926 116.744C91.7902 113.845 103.647 105.057 111.37 93.3163C107.52 95.0697 103.671 96.5291 99.2316 97.3986Z" fill="url(#paint0_linear_8597_88283)"/>
<path fill-rule="evenodd" clip-rule="evenodd" d="M116.227 89.5035L119.753 92.008C120.548 92.5722 120.465 93.7766 119.601 94.2268L108.186 100.174C107.279 100.646 106.207 99.9392 106.284 98.92L107.289 85.5788C107.365 84.5673 108.516 84.0265 109.343 84.614L112.505 86.8596C120.576 68.5165 117.593 46.3474 103.148 30.6755C83.8427 9.73229 51.3165 8.25478 30.1968 27.2455C29.9291 27.4862 29.515 27.4717 29.271 27.207L27.1185 24.8718C26.8745 24.6072 26.8932 24.1926 27.1607 23.9516C50.0996 3.28432 85.4596 4.87728 106.441 27.6396C122.358 44.907 125.457 69.4268 116.227 89.5035Z" fill="white"/>
<path fill-rule="evenodd" clip-rule="evenodd" d="M14.4017 41.1918L10.8756 38.6873C10.0813 38.1231 10.1641 36.9187 11.0282 36.4685L22.443 30.5213C23.3494 30.0491 24.422 30.7561 24.3452 31.7753L23.3402 45.1165C23.264 46.1281 22.1125 46.6688 21.2855 46.0814L18.1239 43.8357C10.0525 62.1789 13.0354 84.3479 27.4814 100.02C46.7862 120.963 79.3124 122.441 100.432 103.45C100.7 103.209 101.114 103.224 101.358 103.488L103.51 105.823C103.754 106.088 103.736 106.503 103.468 106.744C80.5293 127.411 45.1693 125.818 24.1877 103.056C8.27112 85.7884 5.17185 61.2686 14.4017 41.1918Z" fill="white"/>
<path fill-rule="evenodd" clip-rule="evenodd" d="M92.0193 37.7H38.3496V50.8192H58.0285V70.2H71.7441V50.8192H92.0193V37.7ZM58.0285 102.7V75.3999H46.1496V72.7999H58.0285H71.7441H83.8496V75.3999H71.7441V102.7H58.0285Z" fill="white"/>
</g>
<defs>
<linearGradient id="paint0_linear_8597_88283" x1="10.5194" y1="129.191" x2="70.3725" y2="59.6793" gradientUnits="userSpaceOnUse">
<stop offset="0.0729167" stop-color="white" stop-opacity="0.81"/>
<stop offset="0.4775" stop-color="white" stop-opacity="0.48"/>
<stop offset="1" stop-color="white" stop-opacity="0"/>
</linearGradient>
<clipPath id="clip0_8597_88283">
<rect width="130" height="130" fill="white"/>
</clipPath>
</defs>
</svg>
