<svg width="130" height="130" viewBox="0 0 130 130" fill="none" xmlns="http://www.w3.org/2000/svg">
<g clip-path="url(#clip0_8366_85611)">
<path d="M65.3701 129.696C101.126 129.696 130.112 100.71 130.112 64.9541C130.112 29.1979 101.126 0.211914 65.3701 0.211914C29.614 0.211914 0.62793 29.1979 0.62793 64.9541C0.62793 100.71 29.614 129.696 65.3701 129.696Z" fill="#FAB425"/>
<path d="M99.2317 97.3985C70.524 103.198 42.4774 84.5921 36.643 56.0511C33.7245 42.2218 36.7217 28.4093 43.8523 17.2551C22.2317 27.1917 9.44516 50.9746 14.404 75.3961C20.2384 103.937 48.285 122.543 76.9927 116.743C91.7902 113.845 103.647 105.057 111.37 93.3162C107.52 95.0696 103.671 96.529 99.2317 97.3985Z" fill="url(#paint0_linear_8366_85611)"/>
<path fill-rule="evenodd" clip-rule="evenodd" d="M116.227 89.5034L119.753 92.0079C120.548 92.5721 120.465 93.7765 119.601 94.2267L108.186 100.174C107.279 100.646 106.207 99.9391 106.284 98.9199L107.289 85.5787C107.365 84.5671 108.516 84.0264 109.343 84.6138L112.505 86.8595C120.576 68.5163 117.593 46.3473 103.148 30.6754C83.8427 9.73217 51.3165 8.25466 30.1968 27.2454C29.9291 27.4861 29.515 27.4716 29.271 27.2069L27.1185 24.8717C26.8745 24.607 26.8932 24.1924 27.1607 23.9515C50.0996 3.28419 85.4596 4.87715 106.441 27.6394C122.358 44.9068 125.457 69.4266 116.227 89.5034Z" fill="white"/>
<path fill-rule="evenodd" clip-rule="evenodd" d="M14.4017 41.1918L10.8756 38.6873C10.0813 38.1231 10.1641 36.9187 11.0282 36.4685L22.443 30.5213C23.3494 30.0491 24.422 30.7561 24.3452 31.7753L23.3402 45.1165C23.264 46.1281 22.1125 46.6688 21.2855 46.0814L18.1239 43.8357C10.0525 62.1789 13.0354 84.3479 27.4814 100.02C46.7862 120.963 79.3124 122.441 100.432 103.45C100.7 103.209 101.114 103.224 101.358 103.488L103.51 105.823C103.754 106.088 103.736 106.503 103.468 106.744C80.5293 127.411 45.1693 125.818 24.1877 103.056C8.27112 85.7884 5.17185 61.2686 14.4017 41.1918Z" fill="white"/>
<path d="M33.3622 81.9565H27.0725L27.1122 77.3137H33.3622C34.9231 77.3137 36.2392 76.9631 37.3106 76.2621C38.3821 75.5478 39.1889 74.5094 39.7313 73.147C40.2868 71.7846 40.5646 70.1377 40.5646 68.2065V66.7978C40.5646 65.3163 40.4059 64.0134 40.0884 62.8891C39.7842 61.7647 39.3278 60.819 38.7194 60.0518C38.1109 59.2846 37.3635 58.7092 36.4773 58.3256C35.591 57.9287 34.5725 57.7303 33.4217 57.7303H26.9535V53.0676H33.4217C35.353 53.0676 37.1188 53.3983 38.7194 54.0597C40.3331 54.7078 41.7286 55.6404 42.9059 56.8573C44.0831 58.0742 44.9892 59.5293 45.6241 61.2224C46.2723 62.9023 46.5963 64.774 46.5963 66.8375V68.2065C46.5963 70.2568 46.2723 72.1285 45.6241 73.8216C44.9892 75.5147 44.0831 76.9697 42.9059 78.1867C41.7418 79.3904 40.3463 80.3229 38.7194 80.9843C37.1056 81.6324 35.3199 81.9565 33.3622 81.9565ZM30.4455 53.0676V81.9565H24.4932V53.0676H30.4455Z" fill="white"/>
<path d="M60.9614 58.0081L53.1043 81.9565H46.7749L57.509 53.0676H61.5368L60.9614 58.0081ZM67.4892 81.9565L59.6122 58.0081L58.9773 53.0676H63.0448L73.8384 81.9565H67.4892ZM67.1321 71.2025V75.8652H51.8741V71.2025H67.1321Z" fill="white"/>
<path d="M84.1162 53.0676V81.9565H78.1836V53.0676H84.1162Z" fill="white"/>
<path d="M108.025 65.8652V70.8454H88.2233V65.8652H108.025ZM100.842 58.0279V79.0597H95.4257V58.0279H100.842Z" fill="white"/>
</g>
<defs>
<linearGradient id="paint0_linear_8366_85611" x1="10.5194" y1="129.191" x2="70.3725" y2="59.6792" gradientUnits="userSpaceOnUse">
<stop offset="0.0729167" stop-color="#FFD923"/>
<stop offset="0.4775" stop-color="#F8E5C2"/>
<stop offset="1" stop-color="#FAB223"/>
</linearGradient>
<clipPath id="clip0_8366_85611">
<rect width="130" height="130" fill="white"/>
</clipPath>
</defs>
</svg>
