<svg width="16" height="24" viewBox="0 0 16 24" fill="none" xmlns="http://www.w3.org/2000/svg">
<path d="M3.5 1.4796e-05C2.3127 -0.0018852 1.1322 0.179215 0 0.536715C2.3688 1.28112 4.4383 2.76192 5.9075 4.76362C7.3767 6.76542 8.1689 9.18371 8.1689 11.6667C8.1689 14.1497 7.3767 16.568 5.9075 18.5697C4.4383 20.5715 2.3688 22.0523 0 22.7967C1.6042 23.3008 3.2985 23.4522 4.9667 23.2405C6.6349 23.0288 8.2376 22.4589 9.6651 21.57C11.0925 20.6811 12.3109 19.4941 13.2368 18.0903C14.1626 16.6866 14.7741 15.0993 15.0293 13.4371C15.2845 11.775 15.1773 10.0774 14.7152 8.46052C14.2531 6.84372 13.4469 5.34592 12.3519 4.06972C11.2569 2.79351 9.8989 1.76901 8.3711 1.06661C6.8432 0.364215 5.1816 0.000414796 3.5 1.4796e-05Z" fill="white"/>
</svg>
