<svg width="116" height="116" viewBox="0 0 116 116" fill="none" xmlns="http://www.w3.org/2000/svg">
    <path d="M58.0026 79.3333C55.0571 79.3333 52.6693 81.7211 52.6693 84.6667C52.6693 87.6122 55.0571 90 58.0026 90C60.9481 90 63.3359 87.6122 63.3359 84.6667C63.3359 81.7211 60.9481 79.3333 58.0026 79.3333Z" fill="#FA8848"/>
    <path d="M54.0013 68.6666C54.0013 70.8757 55.7922 72.6666 58.0013 72.6666C60.2104 72.6666 62.0013 70.8757 62.0013 68.6666H54.0013ZM62.0013 31.3333C62.0013 29.1242 60.2104 27.3333 58.0013 27.3333C55.7922 27.3333 54.0013 29.1242 54.0013 31.3333H62.0013ZM107.335 58C107.335 85.2458 85.2472 107.333 58.0013 107.333V115.333C89.6658 115.333 115.335 89.6645 115.335 58H107.335ZM58.0013 107.333C30.7553 107.333 8.66797 85.2458 8.66797 58H0.667969C0.667969 89.6645 26.337 115.333 58.0013 115.333V107.333ZM8.66797 58C8.66797 30.7539 30.7553 8.66663 58.0013 8.66663V0.666626C26.337 0.666626 0.667969 26.3356 0.667969 58H8.66797ZM58.0013 8.66663C85.2472 8.66663 107.335 30.7539 107.335 58H115.335C115.335 26.3356 89.6658 0.666626 58.0013 0.666626V8.66663ZM62.0013 68.6666V31.3333H54.0013V68.6666H62.0013Z" fill="#FA8848"/>
</svg>
