<svg width="41" height="40" viewBox="0 0 41 40" fill="none" xmlns="http://www.w3.org/2000/svg">
<path fill-rule="evenodd" clip-rule="evenodd" d="M20.1338 31.1891C19.4434 31.1891 18.8838 30.6294 18.8838 29.9391L18.8838 9.93909C18.8838 9.24873 19.4434 8.68909 20.1338 8.68909C20.8241 8.68909 21.3838 9.24873 21.3838 9.93909L21.3838 29.9391C21.3838 30.6294 20.8241 31.1891 20.1338 31.1891Z" fill="white"/>
<path fill-rule="evenodd" clip-rule="evenodd" d="M28.1622 17.9673C27.674 18.4554 26.8826 18.4554 26.3944 17.9673L20.134 11.7069L13.8736 17.9673C13.3855 18.4554 12.594 18.4554 12.1059 17.9673C11.6177 17.4791 11.6177 16.6876 12.1059 16.1995L19.2502 9.0552C19.7383 8.56705 20.5298 8.56705 21.0179 9.0552L28.1622 16.1995C28.6504 16.6876 28.6504 17.4791 28.1622 17.9673Z" fill="white"/>
</svg>
