<svg width="19" height="10" viewBox="0 0 19 10" fill="none" xmlns="http://www.w3.org/2000/svg">
<path fill-rule="evenodd" clip-rule="evenodd" d="M0.378513 9.41214C-0.126171 8.94107 -0.126171 8.1774 0.378513 7.70633L8.25298 0.356842C8.25425 0.355682 8.25552 0.354462 8.25679 0.353302C8.76136 -0.117645 9.57935 -0.117767 10.0841 0.352936C10.0842 0.353058 10.0843 0.35318 10.0844 0.353302C10.0857 0.354462 10.087 0.355682 10.0882 0.356842L17.9627 7.70633C18.4674 8.1774 18.4674 8.94113 17.9627 9.41214C17.458 9.88321 16.6397 9.88321 16.1351 9.41214L9.17057 2.91196L2.20615 9.41214C1.70147 9.88315 0.883205 9.88315 0.378513 9.41214Z" fill="#ADB3BD"/>
</svg>
