<svg width="19" height="11" viewBox="0 0 19 11" fill="none" xmlns="http://www.w3.org/2000/svg">
<path fill-rule="evenodd" clip-rule="evenodd" d="M0.853968 0.793159C0.34928 1.2642 0.34928 2.02791 0.853968 2.49896L8.72813 9.84817C8.7295 9.84946 8.73087 9.85074 8.73224 9.85203C9.11076 10.2053 9.66566 10.2936 10.1324 10.117C10.2879 10.0581 10.4337 9.96978 10.5599 9.85203C10.5599 9.85202 10.5599 9.85202 10.5599 9.85202L18.4382 2.49896C18.9428 2.02792 18.9428 1.26421 18.4382 0.793169C17.9335 0.322126 17.1152 0.322126 16.6105 0.793169L9.64607 7.29332L2.68161 0.793159C2.17692 0.322117 1.35866 0.322117 0.853968 0.793159Z" fill="#009AFF" fill-opacity="0.92"/>
</svg>
