<svg width="374" height="68" viewBox="0 0 374 68" fill="none" xmlns="http://www.w3.org/2000/svg">
    <g filter="url(#filter0_d_1_2)">
        <path d="M347.07 54.5L365.07 30.6C365.47 30 365.47 29.2 365.07 28.6L347.07 4.7C346.77 4.3 346.27 4 345.77 4H8.77033C8.67033 4 8.57033 4.2 8.67033 4.3L27.1703 28.9C27.4703 29.3 27.4703 29.9 27.1703 30.4L8.67033 54.9C8.57033 55 8.67033 55.1 8.77033 55.1H345.77C346.27 55.1 346.77 54.9 347.07 54.5Z" fill="url(#paint0_linear_1_2)"/>
    </g>
    <path d="M166.036 33.5352C166.036 33.2305 165.989 32.957 165.895 32.7148C165.809 32.4648 165.645 32.2383 165.403 32.0352C165.161 31.8242 164.821 31.6172 164.384 31.4141C163.946 31.2109 163.38 31 162.684 30.7812C161.911 30.5312 161.177 30.25 160.481 29.9375C159.794 29.625 159.184 29.2617 158.653 28.8477C158.13 28.4258 157.716 27.9375 157.411 27.3828C157.114 26.8281 156.966 26.1836 156.966 25.4492C156.966 24.7383 157.122 24.0938 157.434 23.5156C157.747 22.9297 158.184 22.4297 158.747 22.0156C159.309 21.5938 159.973 21.2695 160.739 21.043C161.512 20.8164 162.36 20.7031 163.282 20.7031C164.54 20.7031 165.637 20.9297 166.575 21.3828C167.512 21.8359 168.239 22.457 168.755 23.2461C169.278 24.0352 169.54 24.9375 169.54 25.9531H166.048C166.048 25.4531 165.942 25.0156 165.731 24.6406C165.528 24.2578 165.216 23.957 164.794 23.7383C164.38 23.5195 163.856 23.4102 163.223 23.4102C162.614 23.4102 162.106 23.5039 161.7 23.6914C161.294 23.8711 160.989 24.1172 160.786 24.4297C160.583 24.7344 160.481 25.0781 160.481 25.4609C160.481 25.75 160.552 26.0117 160.692 26.2461C160.841 26.4805 161.059 26.6992 161.348 26.9023C161.637 27.1055 161.993 27.2969 162.415 27.4766C162.837 27.6562 163.325 27.832 163.88 28.0039C164.809 28.2852 165.626 28.6016 166.329 28.9531C167.04 29.3047 167.634 29.6992 168.11 30.1367C168.587 30.5742 168.946 31.0703 169.188 31.625C169.43 32.1797 169.552 32.8086 169.552 33.5117C169.552 34.2539 169.407 34.918 169.118 35.5039C168.829 36.0898 168.411 36.5859 167.864 36.9922C167.317 37.3984 166.665 37.707 165.907 37.918C165.149 38.1289 164.302 38.2344 163.364 38.2344C162.52 38.2344 161.688 38.125 160.868 37.9062C160.048 37.6797 159.302 37.3398 158.63 36.8867C157.966 36.4336 157.434 35.8555 157.036 35.1523C156.637 34.4492 156.438 33.6172 156.438 32.6562H159.966C159.966 33.1875 160.048 33.6367 160.212 34.0039C160.376 34.3711 160.606 34.668 160.903 34.8945C161.208 35.1211 161.567 35.2852 161.981 35.3867C162.403 35.4883 162.864 35.5391 163.364 35.5391C163.973 35.5391 164.473 35.4531 164.864 35.2812C165.262 35.1094 165.555 34.8711 165.743 34.5664C165.938 34.2617 166.036 33.918 166.036 33.5352ZM180.291 20.9375V38H176.787V20.9375H180.291ZM185.541 20.9375V23.6914H171.619V20.9375H185.541ZM199.714 35.2578V38H190.632V35.2578H199.714ZM191.781 20.9375V38H188.265V20.9375H191.781ZM198.531 27.8867V30.5586H190.632V27.8867H198.531ZM199.702 20.9375V23.6914H190.632V20.9375H199.702ZM209.13 31.918H204.782V29.1758H209.13C209.801 29.1758 210.348 29.0664 210.77 28.8477C211.192 28.6211 211.501 28.3086 211.696 27.9102C211.891 27.5117 211.989 27.0625 211.989 26.5625C211.989 26.0547 211.891 25.582 211.696 25.1445C211.501 24.707 211.192 24.3555 210.77 24.0898C210.348 23.8242 209.801 23.6914 209.13 23.6914H206.001V38H202.485V20.9375H209.13C210.465 20.9375 211.61 21.1797 212.563 21.6641C213.524 22.1406 214.258 22.8008 214.766 23.6445C215.274 24.4883 215.528 25.4531 215.528 26.5391C215.528 27.6406 215.274 28.5938 214.766 29.3984C214.258 30.2031 213.524 30.8242 212.563 31.2617C211.61 31.6992 210.465 31.918 209.13 31.918ZM228.476 28.0039H230.28C230.859 28.0039 231.335 27.9062 231.71 27.7109C232.085 27.5078 232.362 27.2266 232.542 26.8672C232.73 26.5 232.823 26.0742 232.823 25.5898C232.823 25.1523 232.737 24.7656 232.566 24.4297C232.402 24.0859 232.148 23.8203 231.804 23.6328C231.46 23.4375 231.027 23.3398 230.503 23.3398C230.089 23.3398 229.706 23.4219 229.355 23.5859C229.003 23.75 228.722 23.9805 228.511 24.2773C228.3 24.5742 228.195 24.9336 228.195 25.3555H224.808C224.808 24.418 225.058 23.6016 225.558 22.9062C226.066 22.2109 226.745 21.668 227.597 21.2773C228.448 20.8867 229.386 20.6914 230.409 20.6914C231.566 20.6914 232.577 20.8789 233.445 21.2539C234.312 21.6211 234.987 22.1641 235.472 22.8828C235.956 23.6016 236.198 24.4922 236.198 25.5547C236.198 26.0938 236.073 26.6172 235.823 27.125C235.573 27.625 235.214 28.0781 234.745 28.4844C234.284 28.8828 233.722 29.2031 233.058 29.4453C232.394 29.6797 231.648 29.7969 230.82 29.7969H228.476V28.0039ZM228.476 30.5703V28.8242H230.82C231.749 28.8242 232.566 28.9297 233.269 29.1406C233.972 29.3516 234.562 29.6562 235.038 30.0547C235.515 30.4453 235.874 30.9102 236.116 31.4492C236.359 31.9805 236.48 32.5703 236.48 33.2188C236.48 34.0156 236.327 34.7266 236.023 35.3516C235.718 35.9688 235.288 36.4922 234.734 36.9219C234.187 37.3516 233.546 37.6797 232.812 37.9062C232.077 38.125 231.277 38.2344 230.409 38.2344C229.691 38.2344 228.984 38.1367 228.288 37.9414C227.601 37.7383 226.976 37.4375 226.413 37.0391C225.859 36.6328 225.413 36.125 225.077 35.5156C224.749 34.8984 224.585 34.168 224.585 33.3242H227.972C227.972 33.7617 228.081 34.1523 228.3 34.4961C228.519 34.8398 228.82 35.1094 229.202 35.3047C229.593 35.5 230.027 35.5977 230.503 35.5977C231.042 35.5977 231.503 35.5 231.886 35.3047C232.277 35.1016 232.573 34.8203 232.777 34.4609C232.987 34.0938 233.093 33.668 233.093 33.1836C233.093 32.5586 232.98 32.0586 232.753 31.6836C232.527 31.3008 232.202 31.0195 231.78 30.8398C231.359 30.6602 230.859 30.5703 230.28 30.5703H228.476Z" fill="white"/>
    <defs>
        <filter id="filter0_d_1_2" x="0.628906" y="0" width="372.742" height="67.1001" filterUnits="userSpaceOnUse" color-interpolation-filters="sRGB">
            <feFlood flood-opacity="0" result="BackgroundImageFix"/>
            <feColorMatrix in="SourceAlpha" type="matrix" values="0 0 0 0 0 0 0 0 0 0 0 0 0 0 0 0 0 0 127 0" result="hardAlpha"/>
            <feOffset dy="4"/>
            <feGaussianBlur stdDeviation="4"/>
            <feComposite in2="hardAlpha" operator="out"/>
            <feColorMatrix type="matrix" values="0 0 0 0 0 0 0 0 0 0.279495 0 0 0 0 0.5375 0 0 0 0.25 0"/>
            <feBlend mode="normal" in2="BackgroundImageFix" result="effect1_dropShadow_1_2"/>
            <feBlend mode="normal" in="SourceGraphic" in2="effect1_dropShadow_1_2" result="shape"/>
        </filter>
        <linearGradient id="paint0_linear_1_2" x1="8.62891" y1="4" x2="364.837" y2="58.5794" gradientUnits="userSpaceOnUse">
            <stop stop-color="#1F95E2"/>
            <stop offset="1" stop-color="#0768AE"/>
        </linearGradient>
    </defs>
</svg>
