<svg width="373" height="68" viewBox="0 0 373 68" fill="none" xmlns="http://www.w3.org/2000/svg">
    <g filter="url(#filter0_d_1_2)">
        <path d="M346.441 54.5L364.441 30.6C364.841 30 364.841 29.2 364.441 28.6L346.441 4.7C346.141 4.3 345.641 4 345.141 4H8.14142C8.04142 4 7.94142 4.2 8.04142 4.3L26.5414 28.9C26.8414 29.3 26.8414 29.9 26.5414 30.4L8.04142 54.9C7.94142 55 8.04142 55.1 8.14142 55.1H345.141C345.641 55.1 346.141 54.9 346.441 54.5Z" fill="url(#paint0_linear_1_2)"/>
    </g>
    <path d="M165.407 33.5352C165.407 33.2305 165.36 32.957 165.266 32.7148C165.18 32.4648 165.016 32.2383 164.774 32.0352C164.532 31.8242 164.192 31.6172 163.755 31.4141C163.317 31.2109 162.751 31 162.055 30.7812C161.282 30.5312 160.548 30.25 159.852 29.9375C159.165 29.625 158.555 29.2617 158.024 28.8477C157.501 28.4258 157.087 27.9375 156.782 27.3828C156.485 26.8281 156.337 26.1836 156.337 25.4492C156.337 24.7383 156.493 24.0938 156.805 23.5156C157.118 22.9297 157.555 22.4297 158.118 22.0156C158.68 21.5938 159.345 21.2695 160.11 21.043C160.884 20.8164 161.731 20.7031 162.653 20.7031C163.911 20.7031 165.009 20.9297 165.946 21.3828C166.884 21.8359 167.61 22.457 168.126 23.2461C168.649 24.0352 168.911 24.9375 168.911 25.9531H165.419C165.419 25.4531 165.313 25.0156 165.102 24.6406C164.899 24.2578 164.587 23.957 164.165 23.7383C163.751 23.5195 163.227 23.4102 162.595 23.4102C161.985 23.4102 161.477 23.5039 161.071 23.6914C160.665 23.8711 160.36 24.1172 160.157 24.4297C159.954 24.7344 159.852 25.0781 159.852 25.4609C159.852 25.75 159.923 26.0117 160.063 26.2461C160.212 26.4805 160.43 26.6992 160.72 26.9023C161.009 27.1055 161.364 27.2969 161.786 27.4766C162.208 27.6562 162.696 27.832 163.251 28.0039C164.18 28.2852 164.997 28.6016 165.7 28.9531C166.411 29.3047 167.005 29.6992 167.481 30.1367C167.958 30.5742 168.317 31.0703 168.559 31.625C168.802 32.1797 168.923 32.8086 168.923 33.5117C168.923 34.2539 168.778 34.918 168.489 35.5039C168.2 36.0898 167.782 36.5859 167.235 36.9922C166.688 37.3984 166.036 37.707 165.278 37.918C164.52 38.1289 163.673 38.2344 162.735 38.2344C161.891 38.2344 161.059 38.125 160.239 37.9062C159.419 37.6797 158.673 37.3398 158.001 36.8867C157.337 36.4336 156.805 35.8555 156.407 35.1523C156.009 34.4492 155.809 33.6172 155.809 32.6562H159.337C159.337 33.1875 159.419 33.6367 159.583 34.0039C159.747 34.3711 159.977 34.668 160.274 34.8945C160.579 35.1211 160.938 35.2852 161.352 35.3867C161.774 35.4883 162.235 35.5391 162.735 35.5391C163.345 35.5391 163.845 35.4531 164.235 35.2812C164.634 35.1094 164.927 34.8711 165.114 34.5664C165.309 34.2617 165.407 33.918 165.407 33.5352ZM179.662 20.9375V38H176.158V20.9375H179.662ZM184.912 20.9375V23.6914H170.99V20.9375H184.912ZM199.085 35.2578V38H190.003V35.2578H199.085ZM191.152 20.9375V38H187.636V20.9375H191.152ZM197.902 27.8867V30.5586H190.003V27.8867H197.902ZM199.074 20.9375V23.6914H190.003V20.9375H199.074ZM208.501 31.918H204.153V29.1758H208.501C209.173 29.1758 209.719 29.0664 210.141 28.8477C210.563 28.6211 210.872 28.3086 211.067 27.9102C211.262 27.5117 211.36 27.0625 211.36 26.5625C211.36 26.0547 211.262 25.582 211.067 25.1445C210.872 24.707 210.563 24.3555 210.141 24.0898C209.719 23.8242 209.173 23.6914 208.501 23.6914H205.372V38H201.856V20.9375H208.501C209.837 20.9375 210.981 21.1797 211.934 21.6641C212.895 22.1406 213.63 22.8008 214.137 23.6445C214.645 24.4883 214.899 25.4531 214.899 26.5391C214.899 27.6406 214.645 28.5938 214.137 29.3984C213.63 30.2031 212.895 30.8242 211.934 31.2617C210.981 31.6992 209.837 31.918 208.501 31.918ZM236.343 31.625V34.2734H224.05L223.886 32.2227L230.999 20.9375H233.683L230.777 25.8008L227.237 31.625H236.343ZM234.409 20.9375V38H231.034V20.9375H234.409Z" fill="white"/>
    <path d="M131.665 35.8333L125.832 29.9999L127.477 28.3433L131.665 32.5316L140.52 23.6766L142.165 25.3333M133.999 18.3333C132.467 18.3333 130.95 18.635 129.534 19.2213C128.119 19.8076 126.832 20.667 125.749 21.7503C123.561 23.9383 122.332 26.9057 122.332 29.9999C122.332 33.0941 123.561 36.0616 125.749 38.2495C126.832 39.3328 128.119 40.1922 129.534 40.7785C130.95 41.3648 132.467 41.6666 133.999 41.6666C137.093 41.6666 140.06 40.4374 142.248 38.2495C144.436 36.0616 145.665 33.0941 145.665 29.9999C145.665 28.4678 145.364 26.9507 144.777 25.5353C144.191 24.1198 143.332 22.8337 142.248 21.7503C141.165 20.667 139.879 19.8076 138.463 19.2213C137.048 18.635 135.531 18.3333 133.999 18.3333Z" fill="white"/>
    <defs>
        <filter id="filter0_d_1_2" x="0" y="0" width="372.742" height="67.1001" filterUnits="userSpaceOnUse" color-interpolation-filters="sRGB">
            <feFlood flood-opacity="0" result="BackgroundImageFix"/>
            <feColorMatrix in="SourceAlpha" type="matrix" values="0 0 0 0 0 0 0 0 0 0 0 0 0 0 0 0 0 0 127 0" result="hardAlpha"/>
            <feOffset dy="4"/>
            <feGaussianBlur stdDeviation="4"/>
            <feComposite in2="hardAlpha" operator="out"/>
            <feColorMatrix type="matrix" values="0 0 0 0 0 0 0 0 0 0.279495 0 0 0 0 0.5375 0 0 0 0.25 0"/>
            <feBlend mode="normal" in2="BackgroundImageFix" result="effect1_dropShadow_1_2"/>
            <feBlend mode="normal" in="SourceGraphic" in2="effect1_dropShadow_1_2" result="shape"/>
        </filter>
        <linearGradient id="paint0_linear_1_2" x1="8" y1="4" x2="364.208" y2="58.5794" gradientUnits="userSpaceOnUse">
            <stop stop-color="#096BB2"/>
            <stop offset="1" stop-color="#053A70"/>
        </linearGradient>
    </defs>
</svg>
