<svg width="164" height="162" viewBox="0 0 164 162" fill="none" xmlns="http://www.w3.org/2000/svg">
    <path fill-rule="evenodd" clip-rule="evenodd" d="M64.2863 114.81C60.8827 112.93 57.7049 110.504 54.8827 107.537C40.0379 91.9308 40.6555 67.2451 56.2621 52.4003C71.8688 37.5555 96.5545 38.1731 111.399 53.7798C126.244 69.3864 125.626 94.0721 110.02 108.917C103.776 114.855 96.0802 118.319 88.1422 119.339L87.6381 124.43C96.9967 123.475 106.122 119.525 113.466 112.54C131.073 95.7918 131.77 67.9412 115.022 50.3338C98.2741 32.7263 70.4236 32.0295 52.8161 48.7774C35.2087 65.5254 34.5119 93.3759 51.2598 110.983C54.9599 114.873 59.2018 117.938 63.7554 120.171L64.2863 114.81Z" fill="url(#paint0_linear_9801_91273)"/>
    <path fill-rule="evenodd" clip-rule="evenodd" d="M85.9481 18.9955C60.5563 17.4614 35.7966 31.7694 25.2097 56.4974C11.7329 87.9754 26.3257 124.418 57.8037 137.895C89.2817 151.372 125.725 136.779 139.202 105.301C151.178 77.329 140.988 45.4357 116.481 29.2219L115.948 34.9442C136.855 50.267 145.245 78.4832 134.605 103.333C122.215 132.273 88.7111 145.689 59.7716 133.299C30.8321 120.909 17.4162 87.4047 29.8062 58.4653C39.5168 35.784 62.1971 22.6382 85.4845 23.9782L85.9481 18.9955Z" fill="url(#paint1_linear_9801_91273)"/>
    <path d="M88.3527 20.3991C89.7066 21.1322 89.7592 23.056 88.4474 23.8619L78.0394 30.2567C76.7276 31.0627 75.0353 30.1463 74.9932 28.6073L74.6591 16.3964C74.617 14.8573 76.2568 13.8499 77.6107 14.5829L88.3527 20.3991Z" fill="#071F6C"/>
    <path d="M96.7968 126.258C97.1735 127.751 95.7929 129.092 94.3117 128.672L82.56 125.338C81.0788 124.918 80.608 123.052 81.7125 121.979L90.4756 113.469C91.5801 112.396 93.4315 112.921 93.8082 114.414L96.7968 126.258Z" fill="#071F6C"/>
    <defs>
        <linearGradient id="paint0_linear_9801_91273" x1="36.5" y1="77" x2="83" y2="89" gradientUnits="userSpaceOnUse">
            <stop stop-color="#011678" stop-opacity="0"/>
            <stop offset="1" stop-color="#0C255B"/>
        </linearGradient>
        <linearGradient id="paint1_linear_9801_91273" x1="139" y1="112" x2="50.5" y2="116.5" gradientUnits="userSpaceOnUse">
            <stop stop-color="#011678" stop-opacity="0"/>
            <stop offset="1" stop-color="#071F6C"/>
        </linearGradient>
    </defs>
</svg>
