<svg width="1492" height="250" viewBox="0 0 1492 250" fill="none" xmlns="http://www.w3.org/2000/svg" xmlns:xlink="http://www.w3.org/1999/xlink">
<g clip-path="url(#clip0_10306_84430)">
<rect width="1492" height="250" fill="url(#paint0_linear_10306_84430)"/>
<rect x="-266" y="-229" width="2036" height="1287" fill="url(#pattern0)"/>
<g style="mix-blend-mode:overlay">
<path d="M-612.479 393.245C-502.44 372.965 -395.178 338.498 -286.758 310.37C-221.93 291.309 -154.687 284.69 -90.0707 265.152C0.252722 234.966 80.1987 176.265 174.848 158.626C238.429 144.687 301.838 154.617 362.871 167.125C465.371 183.503 564.353 212.481 667.018 227.833C787.101 247.447 926.459 245.183 1026.16 159.629C1119.35 89.7205 1193.34 -10.8766 1307.05 -50.8704C1497.26 -98.546 1674.76 27.1214 1865.05 3.39844" stroke="white" stroke-opacity="0.4" stroke-width="3" stroke-miterlimit="10" stroke-linecap="round" stroke-dasharray="2 6"/>
<path d="M-615.141 418.031C-505.141 397.197 -399.194 358.365 -291.558 327.539C-227.09 306.734 -159.822 298.772 -94.9552 280.264C2.08889 248.429 87.2346 184.184 188.823 166.321C245.55 154.662 302.581 160.951 357.282 171.32C467.988 185.197 573.425 218.925 683.185 236.268C800.603 256.874 936.802 254.489 1034.96 171.524C1125.98 103.721 1197.78 8.4699 1305.28 -36.1911C1492.28 -96.7151 1686.02 29.1675 1876.6 2.83984" stroke="white" stroke-opacity="0.4" stroke-width="3" stroke-miterlimit="10" stroke-linecap="round" stroke-dasharray="2 6"/>
<path d="M-617.451 444.561C-447.554 408.948 -289.018 329.075 -117.683 300.437C-14.7799 272.473 72.3818 203.907 175.997 178.483C335.595 139.255 533.493 216.657 689.547 243.151C806.986 266.603 943.968 266.916 1043.55 183.891C1134.71 116.405 1206.28 22.0211 1312.69 -24.6305C1499.96 -89.6567 1696.46 28.9109 1887.72 0.378906" stroke="white" stroke-opacity="0.4" stroke-width="3" stroke-miterlimit="10" stroke-linecap="round" stroke-dasharray="2 6"/>
<path d="M-619.463 472.675C-455.391 437.933 -306.709 348.918 -141.134 320.362C-26.3364 295.876 68.0022 216.892 180.989 186.928C359.287 142.256 536.407 220.885 705.477 252.452C820.047 277.368 954.325 278.12 1052.01 196.887C1143.49 129.643 1215.09 35.8129 1320.41 -12.8294C1507.13 -82.3686 1707.22 27.9464 1898.84 -3.03125" stroke="white" stroke-opacity="0.4" stroke-width="3" stroke-miterlimit="10" stroke-linecap="round" stroke-dasharray="2 6"/>
<path d="M-621.296 501.663C-475.843 469.283 -346.469 388.076 -203.045 348.792C-151.394 335.959 -98.466 326.937 -50.019 303.153C28.8125 267.598 102.203 218.849 185.872 194.662C367.421 143.789 541.255 223.876 711.334 260.515C826.482 288.601 960.474 292.906 1060.41 210.676C1149.99 145.225 1220.09 55.4849 1320.11 3.29429C1502.06 -78.4026 1718.63 27.0717 1909.84 -7.15234" stroke="white" stroke-opacity="0.4" stroke-width="3" stroke-miterlimit="10" stroke-linecap="round" stroke-dasharray="2 6"/>
<path d="M-623.03 531.363C-486.842 499.098 -367.796 419.808 -236.075 374.678C-179.136 354.168 -118.235 348.651 -63.1058 322.663C20.0248 286.533 95.7132 234.099 182.09 205.284C366.535 142.276 545.504 226.936 717.322 268.895C834.228 300.008 965.096 308.935 1068.66 225.093C1158.83 159.571 1229.18 69.9136 1328.32 16.2094C1507.92 -69.3921 1730.24 25.724 1921.02 -11.3516" stroke="white" stroke-opacity="0.4" stroke-width="3" stroke-miterlimit="10" stroke-linecap="round" stroke-dasharray="2 6"/>
<path d="M-624.953 561.533C-491.586 528.044 -377.629 445.683 -250.313 396.226C-191.012 371.242 -126.119 365.857 -67.8062 338.646C19.1296 300.827 97.2574 245.026 186.875 213.251C375.839 141.765 558.336 234.377 732.996 280.405C848.87 312.927 973.011 322.556 1076.9 239.904C1165.17 176.175 1234.4 90.0596 1328.66 33.7613C1502.18 -62.2761 1741.83 24.7696 1932.62 -15.5469" stroke="white" stroke-opacity="0.4" stroke-width="3" stroke-miterlimit="10" stroke-linecap="round" stroke-dasharray="2 6"/>
<path d="M-627.131 591.621C-496.34 556.992 -387.364 472.273 -264.727 418.801C-203.379 389.101 -134.673 382.976 -72.7215 355.102C12.5553 318.21 88.8192 263.807 174.731 228.346C373.937 138.42 555.297 236.867 738.546 290.123C856.179 325.672 977.297 339.687 1084.65 255.5C1173.51 191.7 1243.15 105.59 1336.95 47.7836C1505.42 -50.7712 1755.59 23.6081 1944.66 -19.1816" stroke="white" stroke-opacity="0.4" stroke-width="3" stroke-miterlimit="10" stroke-linecap="round" stroke-dasharray="2 6"/>
<path d="M-629.688 621.31C-498.25 584.871 -391.705 495.14 -269.859 438.022C-214.578 409.111 -152.967 400.995 -95.3434 379.229C-24.991 351.625 38.7026 310.415 104.969 274.535C360.905 126.311 505.299 224.031 744.213 300.554C863.115 338.966 982.32 357.066 1092.54 271.415C1182.23 207.626 1252.23 121.363 1345.56 62.0481C1506.11 -37.5602 1770.58 22.8589 1957.14 -21.8613" stroke="white" stroke-opacity="0.4" stroke-width="3" stroke-miterlimit="10" stroke-linecap="round" stroke-dasharray="2 6"/>
<path d="M-632.876 650.515C-500.652 612.585 -396.467 518 -275.2 457.712C-223.18 428.916 -165.056 418.541 -109.455 400.147C-55.4953 380.389 -5.34649 352.042 44.1423 323.608C351.687 133.066 441.933 201.136 739.512 308.158C862.159 350.81 983.336 377.552 1100.47 287.882C1188.09 225.963 1257.24 142.929 1346.16 82.5289C1417.73 30.5936 1508.09 20.566 1592.78 11.7279C1718.71 0.195281 1845.76 4.72439 1970.63 -22.7109" stroke="white" stroke-opacity="0.4" stroke-width="3" stroke-miterlimit="10" stroke-linecap="round" stroke-dasharray="2 6"/>
<path d="M-636.626 678.449C-504.062 639.417 -401.918 541.169 -281.748 477.941C-230.222 448.032 -172.702 435.83 -116.606 418.551C-62.1913 399.351 -11.5555 371.17 38.2086 342.423C364.233 139.873 433.195 201.97 749.954 321.419C868.891 364.575 987.205 393.73 1103.01 308.074C1194.52 245.573 1265.31 159.716 1356.68 96.8975C1430.38 42.3028 1523.9 32.3961 1611.62 21.0686C1736.01 6.98597 1861.77 5.80648 1985.08 -21.8867" stroke="white" stroke-opacity="0.4" stroke-width="3" stroke-miterlimit="10" stroke-linecap="round" stroke-dasharray="2 6"/>
<path d="M-641.188 705.029C-508.003 665.531 -407.93 564.015 -288.473 498.248C-237.371 467.385 -180.21 453.439 -123.723 437.508C-71.8639 420.014 -23.2578 394.256 24.1236 367.138C367.302 156.594 411.422 195.833 750.373 331.702C873.119 378.307 992.096 412.689 1113.46 323.233C1204.97 260.732 1276.25 175.04 1367.41 111.744C1440.75 56.3539 1533.85 45.4931 1621.46 32.5041C1747.76 15.2849 1875.4 9.46638 2000.68 -18.9121" stroke="white" stroke-opacity="0.4" stroke-width="3" stroke-miterlimit="10" stroke-linecap="round" stroke-dasharray="2 6"/>
<path d="M-646.522 729.856C-508.903 689.151 -408.501 580.446 -285.482 512.908C-234.348 481.65 -176.373 470.008 -119.963 452.969C-67.8991 435.004 -18.9472 409.092 28.7802 381.82C377.187 169.527 411.364 201.758 756.336 344.663C879.858 393.017 997.394 429.751 1121.19 340.169C1213.43 277.916 1285.44 192.47 1376.07 128.455C1451.68 69.7756 1548.53 58.9644 1639.45 44.1222C1765.39 25.1592 1892.34 14.5095 2017.21 -12.9258" stroke="white" stroke-opacity="0.4" stroke-width="3" stroke-miterlimit="10" stroke-linecap="round" stroke-dasharray="2 6"/>
<path d="M-653.023 752.539C-511.138 711.654 -410.714 596.467 -283.851 527.795C-224.287 491.273 -154.262 485.324 -90.5596 459.528C5.70512 420.805 91.129 361.386 182.326 313.11C251.059 277.658 325.694 242.443 403.565 241.577C532.015 247.39 642.437 312.408 756.973 356.374C883.674 407.696 1003.08 448.169 1131.61 355.726C1229.55 289.99 1304.74 198.183 1403.2 133.166C1475.5 81.478 1565.6 73.6602 1649.89 58.3349C1778.42 37.2719 1907.66 22.9374 2035.42 -4.06445" stroke="white" stroke-opacity="0.4" stroke-width="3" stroke-miterlimit="10" stroke-linecap="round" stroke-dasharray="2 6"/>
<path d="M-660.888 772.592C-515.395 731.438 -413.371 611.924 -282.658 543.066C-225.297 509.045 -158.808 503.523 -97.7253 480.222C-9.71698 446.686 69.7269 395.25 151.711 349.54C230.353 307.026 314.42 261.343 404.656 257.084C533.156 260.21 643.75 325.151 757.697 369.189C882.52 420.011 1005.12 465.349 1133.98 375.993C1235.64 310.702 1313.1 216.554 1413.71 149.826C1488.55 95.4834 1582.27 88.346 1669.78 72.3519C1798.35 50.8941 1927.29 34.0262 2055.2 8.29102" stroke="white" stroke-opacity="0.4" stroke-width="3" stroke-miterlimit="10" stroke-linecap="round" stroke-dasharray="2 6"/>
<path d="M-670.035 789.783C-525.831 748.059 -421.061 633.799 -291.008 564.853C-228.19 527.267 -154.903 521.203 -88.19 494.262C12.7835 454.02 102.563 392.287 198.854 342.893C262.342 311.482 329.994 280.127 400.969 275.85C536.048 277.007 652.809 345.113 773.419 389.239C901.215 438.361 1016.9 478.391 1146.77 388.969C1250.54 322.362 1330.49 227.298 1434.61 161.486C1510.41 109.765 1603.65 103.412 1690.78 87.0177C1819.17 65.6366 1948.07 48.2148 2076.05 22.6387" stroke="white" stroke-opacity="0.4" stroke-width="3" stroke-miterlimit="10" stroke-linecap="round" stroke-dasharray="2 6"/>
<path d="M-680.474 804.505C-540.254 763.597 -433.718 658.452 -307.649 590.322C-275.743 573.117 -242.675 558.062 -207.978 547.613C-167.244 536.77 -125.767 528.07 -86.6386 511.277C18.486 469.193 111.884 403.951 213.346 354.546C274.355 325.948 339.632 297.17 407.366 295.854C538.475 299.726 653.661 361.487 772.277 403.452C904.892 451.769 1021.88 494.266 1156.46 403.325C1262.82 336.515 1345.86 240.465 1453.84 175.416C1530.8 125.845 1623.83 119.963 1710.99 103.174C1839.9 81.5623 1969.28 63.3563 2097.85 37.709" stroke="white" stroke-opacity="0.4" stroke-width="3" stroke-miterlimit="10" stroke-linecap="round" stroke-dasharray="2 6"/>
<path d="M-691.688 817.479C-548.764 776.133 -437.184 672.556 -306.591 606.226C-251.497 575.494 -190.549 562.152 -130.596 545.635C-79.2484 529.32 -30.5191 506.172 16.9786 480.715C381.074 273.452 396.974 278.959 769.926 418.204C907.563 465.243 1026.26 509.265 1165.73 417.678C1272.21 352.53 1356.94 259.347 1464.33 195.318C1544.4 144.365 1640.73 137.974 1731.11 120.516C1860.71 98.5973 1990.75 79.5305 2119.73 53.8887" stroke="white" stroke-opacity="0.4" stroke-width="3" stroke-miterlimit="10" stroke-linecap="round" stroke-dasharray="2 6"/>
<path d="M-703.957 829.014C-558.637 787.937 -441.692 687.118 -307.022 622.976C-251.395 593.912 -190.613 581.595 -130.975 564.837C-77.6538 547.836 -27.1631 523.526 22.0642 497.302C380.138 292.33 405.489 308.871 771.962 435.382C908.29 479.005 1031.67 521.903 1169.57 435.196C1279.26 371.671 1366.97 278.687 1476.66 215.162C1557.15 165.163 1652.71 157.971 1743.1 140.513C1876.12 117.455 2009.66 97.4066 2142.28 71.1016" stroke="white" stroke-opacity="0.4" stroke-width="3" stroke-miterlimit="10" stroke-linecap="round" stroke-dasharray="2 6"/>
<path d="M-716.968 839.354C-571.846 799.697 -451.072 705.175 -315.516 643.495C-259.254 615.862 -198.793 602.355 -138.904 586.627C-86.2365 570.488 -36.0845 547.28 12.6627 521.839C370.443 319.473 398.163 332.488 768.258 451.3C908.737 493.081 1037.32 535.574 1178.77 449.388C1291.24 386.532 1382.62 293.438 1495.9 231.938C1578.01 184.648 1673.54 177.851 1763.88 159.839C1897.78 136.396 2032.14 115.411 2165.7 88.8809" stroke="white" stroke-opacity="0.4" stroke-width="3" stroke-miterlimit="10" stroke-linecap="round" stroke-dasharray="2 6"/>
<path d="M-730.5 848.977C-585.851 811.053 -461.626 723.374 -325.389 664.628C-266.109 636.798 -202.316 623.335 -139.519 606.697C-90.7974 591.929 -43.9956 570.968 1.15822 547.694C355.782 350.345 386.638 355.496 758.305 466.188C899.91 505.375 1039.71 549.36 1182.64 466.514C1298.28 405.676 1393.01 313.575 1508.72 252.897C1591.3 207.116 1686.4 199.364 1776.85 181.117C1914.51 156.38 2052.37 134.413 2189.67 106.984" stroke="white" stroke-opacity="0.4" stroke-width="3" stroke-miterlimit="10" stroke-linecap="round" stroke-dasharray="2 6"/>
<path d="M-744.592 858.276C-600.173 822.167 -472.669 741.409 -335.508 685.679C-278.424 661.298 -218.496 646.124 -158.349 632.376C-109.755 619.187 -63.0102 599.965 -17.8495 577.639C323.551 394.343 358.281 374.172 725.65 476.111C869.804 512.644 1031.67 565.3 1178.46 487.406C1297.87 430.414 1396.15 339.782 1513.15 278.726C1598.45 231.162 1696.42 221.947 1789.99 203.266C1931.33 177.472 2073.13 154.134 2214.17 125.807" stroke="white" stroke-opacity="0.4" stroke-width="3" stroke-miterlimit="10" stroke-linecap="round" stroke-dasharray="2 6"/>
<path d="M-759.173 867.412C-614.394 833.047 -483.408 758.738 -344.765 706.348C-248.923 666.671 -143.824 659.051 -50.1066 613.655C80.1898 554.118 201.782 467.037 345.709 444.281C439.182 431.923 531.021 452.269 619.97 471.234C711.88 491.739 802.504 516.813 895.904 532.279C989.318 549.643 1089.68 549.075 1179.56 505.762C1302.5 451.582 1404.78 362.032 1524.38 301.721C1613.54 253.972 1714.8 244.247 1811.69 224.661C1954.17 198.171 2097.05 173.978 2239.12 145.189" stroke="white" stroke-opacity="0.4" stroke-width="3" stroke-miterlimit="10" stroke-linecap="round" stroke-dasharray="2 6"/>
<path d="M-774.057 877.254C-629.091 844.709 -495.141 777.079 -355.432 728.023C-259.121 690.803 -154.855 683.172 -60.6368 639.837C191.114 521.834 283.591 425.592 574.685 485.81C675.602 504.222 774.627 529.565 876.12 546.008C977.102 563.63 1085.3 567.198 1183.68 522.969C1312.53 469.975 1420.52 378.84 1546.42 320.115C1634.01 277.245 1731.77 267.553 1825.58 248.006C1971.9 220.38 2118.65 194.658 2264.71 165.053" stroke="white" stroke-opacity="0.4" stroke-width="3" stroke-miterlimit="10" stroke-linecap="round" stroke-dasharray="2 6"/>
<path d="M-788.9 887.647C-641.011 856.09 -501.682 793.116 -357.717 747.12C-261.519 713.377 -158.502 705.73 -65.0397 663.491C153.351 563.148 271.608 461.556 524.976 502.54C638.258 517.559 748.606 544.158 861.313 561.145C966.869 577.879 1079.01 584.266 1183.06 542.089C1332.57 486.206 1456.28 379.153 1606.21 324.225C1688.67 295.437 1775.85 285.684 1860.7 267.441C2004.25 240.095 2147.77 214.092 2291.13 184.926" stroke="white" stroke-opacity="0.4" stroke-width="3" stroke-miterlimit="10" stroke-linecap="round" stroke-dasharray="2 6"/>
<path d="M-801.885 897.597C-653.503 867.153 -511.774 809.587 -366.609 766.294C-269.738 734.536 -167.035 726.648 -73.0397 686.076C132.918 594.105 258.006 491.576 496.752 521.537C614.626 533.375 729.754 558.615 846.587 575.103C957.102 591.349 1073.84 599.694 1183.62 558.779C1336.49 505.787 1464.4 400.292 1616.74 345.632C1702.66 316.258 1793.23 305.759 1881.59 286.535C2025.93 258.646 2170.42 232.024 2314.3 202.627" stroke="white" stroke-opacity="0.4" stroke-width="3" stroke-miterlimit="10" stroke-linecap="round" stroke-dasharray="2 6"/>
<path d="M-814.953 908.727C-666.32 879.314 -522.852 827.066 -376.904 786.472C-279.673 756.457 -177.213 748.487 -82.4415 709.665C118.906 623.166 241.746 521.635 475.219 542.514C601.089 551.376 723.988 576.402 848.586 591.729C959.991 606.248 1076.86 613.013 1187.46 574.401C1343.08 523.421 1475 419.956 1629.35 366.113C1715.56 337.375 1805.85 326.24 1894.03 307.093C2041.87 278.223 2189.96 250.384 2337.82 220.17" stroke="white" stroke-opacity="0.4" stroke-width="3" stroke-miterlimit="10" stroke-linecap="round" stroke-dasharray="2 6"/>
<path d="M-827.631 921.206C-678.645 892.589 -533.822 845.26 -386.988 807.128C-289.225 778.78 -186.906 770.492 -91.3582 733.419C-17.9173 705.777 50.2305 666.207 121.413 633.475C229.147 582.81 348.3 556.01 465.25 564.832C595.303 571.456 722.392 595.195 851.181 609.233C960.591 621.591 1074.5 627.764 1183.5 593.478C1345.22 545.504 1483.28 441.408 1642.66 387.238C1728.9 359.053 1819.05 347.6 1907.17 328.294C2058.67 298.366 2210.36 269.309 2361.8 238.273" stroke="white" stroke-opacity="0.4" stroke-width="3" stroke-miterlimit="10" stroke-linecap="round" stroke-dasharray="2 6"/>
<path d="M-840.264 935.188C-690.721 906.894 -544.165 863.936 -396.17 827.954C-300.09 801.876 -200.207 792.765 -106.195 759.229C-26.3019 731.198 46.9572 688.217 124.098 653.984C223.339 609.372 331.843 583.3 439.281 587.016C577.393 589.874 712.427 613.322 848.878 626.434C959.807 637.548 1074.55 643.732 1185.09 611.047C1350.05 565.251 1492.32 462.713 1654.37 408.498C1744.01 379.568 1837.56 367.369 1929.07 347.318C2081.44 317.006 2233.68 287.325 2385.88 256.141" stroke="white" stroke-opacity="0.4" stroke-width="3" stroke-miterlimit="10" stroke-linecap="round" stroke-dasharray="2 6"/>
<path d="M-852.464 951.072C-702.677 922.86 -555.017 883.79 -406.348 849.793C-307.07 824.39 -204.311 814.764 -107.319 780.477C-26.5932 752.457 47.5305 709.093 125.889 675.271C222.51 633.153 327.344 608.14 431.436 609.914C573.384 610.688 712.507 633.084 852.904 644.825C961.634 654.25 1073.57 660.16 1182.18 630.612C1353.13 587.108 1501.54 483.939 1668.65 429.002C1758.26 400.467 1851.66 387.95 1943.1 367.739C2098.97 336.446 2254.88 305.706 2410.72 273.859" stroke="white" stroke-opacity="0.4" stroke-width="3" stroke-miterlimit="10" stroke-linecap="round" stroke-dasharray="2 6"/>
<path d="M-864.345 969.097C-711.233 939.98 -559.182 903.34 -406.758 870.341C-309.997 847.197 -210.404 836.501 -115.686 804.556C-28.9625 775.588 50.2728 728.813 134.558 693.884C223.653 657.2 319.094 633.88 414.49 632.852C563.773 630.561 710.078 652.815 857.722 663.625C966.893 671.711 1079 677.544 1187.97 648.791C1361.63 605.797 1513.79 504.576 1683.27 449.353C1776.03 419.991 1872.65 406.805 1967.14 386.002C2123.5 354.874 2279.79 323.586 2435.8 291.662" stroke="white" stroke-opacity="0.4" stroke-width="3" stroke-miterlimit="10" stroke-linecap="round" stroke-dasharray="2 6"/>
<path d="M-875.759 989.577C-722.513 959.83 -569.782 926.124 -416.863 894.238C-319.333 871.895 -219.298 859.861 -123.669 829.035C-34.8252 800.648 46.1078 753.5 132.193 717.962C220.667 681.745 315.134 658.096 409.69 656.108C562.432 652.282 712.581 673.401 863.793 683.388C973.303 690.373 1085.48 696.365 1194.63 668.484C1370.79 625.523 1526.82 526.013 1698.75 470.27C1794.59 439.92 1894.34 426.301 1992.22 404.753C2148.54 373.071 2304.94 341.547 2461.36 309.629" stroke="white" stroke-opacity="0.4" stroke-width="3" stroke-miterlimit="10" stroke-linecap="round" stroke-dasharray="2 6"/>
<path d="M-886.517 1012.44C-730.023 980.679 -573.427 948.684 -416.933 916.925C-321.856 896.051 -224.955 882.553 -131.639 853.514C-42.6148 825.999 38.9852 779.888 124.615 743.791C214.505 706.564 310.034 681.111 406.39 678.515C566.238 673.439 723.711 694.734 881.997 703.867C987.783 709.458 1096.24 715.005 1201.62 688.418C1383.46 644.268 1545.28 543.333 1723.25 487.195C1819.44 457.641 1919.22 443.627 2017.27 422.002C2173.91 390.561 2330.51 358.566 2487 326.807" stroke="white" stroke-opacity="0.4" stroke-width="3" stroke-miterlimit="10" stroke-linecap="round" stroke-dasharray="2 6"/>
</g>
</g>
<defs>
<pattern id="pattern0" patternContentUnits="objectBoundingBox" width="1" height="1">
<use xlink:href="#image0_10306_84430" transform="matrix(0.000250742 0 0 0.000396668 -0.0135206 0)"/>
</pattern>
<linearGradient id="paint0_linear_10306_84430" x1="0" y1="0" x2="169.481" y2="634.543" gradientUnits="userSpaceOnUse">
<stop stop-color="#011845"/>
<stop offset="1" stop-color="#15141D"/>
</linearGradient>
<clipPath id="clip0_10306_84430">
<rect width="1492" height="250" fill="white"/>
</clipPath>
</defs>
</svg>
