<svg width="209" height="85" viewBox="0 0 209 85" fill="none" xmlns="http://www.w3.org/2000/svg">
    <rect x="24" y="7" width="60.8" height="60.8" rx="16" fill="#1C95E7" fill-opacity="0.2"/>
    <path d="M47.6667 39.5417C47.6667 37.6078 48.4349 35.7531 49.8023 34.3857C51.1698 33.0182 53.0245 32.25 54.9583 32.25C56.8922 32.25 58.7469 33.0182 60.1143 34.3857C61.4818 35.7531 62.25 37.6078 62.25 39.5417C62.25 41.4755 61.4818 43.3302 60.1143 44.6977C58.7469 46.0651 56.8922 46.8333 54.9583 46.8333C53.0245 46.8333 51.1698 46.0651 49.8023 44.6977C48.4349 43.3302 47.6667 41.4755 47.6667 39.5417ZM38.9167 14.75V64.3333H71V14.75H38.9167ZM65.1667 52.6667C61.9583 52.6667 59.3333 55.2917 59.3333 58.5H50.5833C50.5833 56.9529 49.9688 55.4692 48.8748 54.3752C47.7808 53.2812 46.2971 52.6667 44.75 52.6667V26.4167C47.9875 26.4167 50.5833 23.8208 50.5833 20.5833H59.3333C59.3333 22.1304 59.9479 23.6142 61.0419 24.7081C62.1358 25.8021 63.6196 26.4167 65.1667 26.4167V52.6667ZM21.4167 23.5C24.625 23.5 27.25 26.125 27.25 29.3333C27.25 32.5417 24.625 35.1667 21.4167 35.1667C18.2083 35.1667 15.5833 32.5417 15.5833 29.3333C15.5833 26.125 18.2083 23.5 21.4167 23.5ZM21.4167 17.6667C14.9708 17.6667 9.75 22.8875 9.75 29.3333C9.75 35.7792 14.9708 41 21.4167 41C27.8625 41 33.0833 35.7792 33.0833 29.3333C33.0833 22.8875 27.8625 17.6667 21.4167 17.6667ZM21.4167 46.8333C10.1292 46.8333 1 52.0542 1 58.5V64.3333H33.0833V58.5H6.83333C6.83333 56.8083 11.9375 52.6667 21.4167 52.6667C26.7542 52.6667 30.6625 53.9792 33.0833 55.4375V48.9333C29.7875 47.6208 25.7917 46.8333 21.4167 46.8333Z" fill="#1C95E7"/>
    <path d="M177.333 44.625C178.669 44.625 179.774 44.1882 180.648 43.3146C181.522 42.441 181.958 41.3361 181.958 40C181.958 38.6639 181.522 37.559 180.648 36.6854C179.774 35.8118 178.669 35.375 177.333 35.375C175.997 35.375 174.892 35.8118 174.019 36.6854C173.145 37.559 172.708 38.6639 172.708 40C172.708 41.3361 173.145 42.441 174.019 43.3146C174.892 44.1882 175.997 44.625 177.333 44.625ZM143.417 67.75C141.721 67.75 140.269 67.1457 139.06 65.937C137.851 64.7283 137.248 63.2771 137.25 61.5833V18.4167C137.25 16.7208 137.854 15.2686 139.063 14.0599C140.272 12.8513 141.723 12.2479 143.417 12.25H186.583C188.279 12.25 189.731 12.8543 190.94 14.063C192.149 15.2717 192.752 16.7229 192.75 18.4167V26.125H186.583V18.4167H143.417V61.5833H186.583V53.875H192.75V61.5833C192.75 63.2792 192.146 64.7314 190.937 65.9401C189.728 67.1488 188.277 67.7521 186.583 67.75H143.417ZM168.083 55.4167C166.388 55.4167 164.935 54.8123 163.727 53.6037C162.518 52.395 161.915 50.9438 161.917 49.25V30.75C161.917 29.0542 162.521 27.6019 163.73 26.3933C164.938 25.1846 166.39 24.5813 168.083 24.5833H189.667C191.363 24.5833 192.815 25.1877 194.023 26.3963C195.232 27.605 195.835 29.0562 195.833 30.75V49.25C195.833 50.9458 195.229 52.3981 194.02 53.6068C192.812 54.8154 191.36 55.4187 189.667 55.4167H168.083ZM189.667 49.25V30.75H168.083V49.25H189.667Z" fill="#707A8B"/>
    <path d="M122 41.8667L113.133 33L113.133 39.65L97.6167 39.65L97.6167 44.0833L113.133 44.0833L113.133 50.7333" fill="#707A8B"/>
</svg>
