<svg width="209" height="86" viewBox="0 0 209 86" fill="none" xmlns="http://www.w3.org/2000/svg">
    <g clip-path="url(#clip0_10057_117508)">
        <rect x="10" y="9.5" width="60.8" height="60.8" rx="16" fill="#F3BA2F" fill-opacity="0.2"/>
        <path d="M13.5846 12.667H44.418C46.0535 12.667 47.622 13.3167 48.7785 14.4732C49.9349 15.6296 50.5846 17.1982 50.5846 18.8337V68.167C50.5846 69.8025 49.9349 71.371 48.7785 72.5275C47.622 73.684 46.0535 74.3337 44.418 74.3337H13.5846C11.9491 74.3337 10.3806 73.684 9.22414 72.5275C8.06767 71.371 7.41797 69.8025 7.41797 68.167V18.8337C7.41797 17.1982 8.06767 15.6296 9.22414 14.4732C10.3806 13.3167 11.9491 12.667 13.5846 12.667ZM13.5846 18.8337V31.167H44.418V18.8337H13.5846ZM13.5846 37.3337V43.5003H19.7513V37.3337H13.5846ZM25.918 37.3337V43.5003H32.0846V37.3337H25.918ZM38.2513 37.3337V43.5003H44.418V37.3337H38.2513ZM13.5846 49.667V55.8337H19.7513V49.667H13.5846ZM25.918 49.667V55.8337H32.0846V49.667H25.918ZM38.2513 49.667V55.8337H44.418V49.667H38.2513ZM13.5846 62.0003V68.167H19.7513V62.0003H13.5846ZM25.918 62.0003V68.167H32.0846V62.0003H25.918ZM38.2513 62.0003V68.167H44.418V62.0003H38.2513Z" fill="#F3BA2F"/>
        <path d="M164.281 79.5C184.716 79.5 201.281 62.9345 201.281 42.5C201.281 22.0655 184.716 5.5 164.281 5.5C143.847 5.5 127.281 22.0655 127.281 42.5C127.281 62.9345 143.847 79.5 164.281 79.5Z" stroke="#707A8B" stroke-width="4"/>
        <path d="M166.49 40.5612C162.369 39.195 160.377 38.3382 160.377 36.1614C160.377 33.7994 162.947 32.9426 164.568 32.9426C167.602 32.9426 168.714 35.2351 168.968 36.0456L172.627 34.4941C172.28 33.4521 170.728 30.048 166.745 29.307V26.4356H162.114V29.3533C156.371 30.6501 156.348 35.9762 156.348 36.2077C156.348 41.4643 161.558 42.9464 164.105 43.8726C167.764 45.1694 169.385 46.3504 169.385 48.5735C169.385 51.1902 166.954 52.3017 164.8 52.3017C160.585 52.3017 159.381 47.9714 159.242 47.4619L155.398 49.0134C156.857 54.0848 160.678 55.451 162.114 55.8679V58.8551H166.745V55.9836C167.671 55.7752 173.461 54.6174 173.461 48.5271C173.461 45.3084 172.048 42.4832 166.49 40.5612ZM143.588 63.4864H138.957V49.5924H152.851V54.2237H147.108C150.836 59.8045 157.205 63.4864 164.43 63.4864C169.957 63.4864 175.258 61.2907 179.166 57.3822C183.075 53.4738 185.271 48.1727 185.271 42.6453H189.902C189.902 56.7247 178.509 68.1178 164.43 68.1178C155.815 68.1178 148.197 63.8338 143.588 57.3036V63.4864ZM138.957 42.6453C138.957 28.566 150.35 17.1729 164.43 17.1729C173.044 17.1729 180.662 21.4569 185.271 27.9871V21.8042H189.902V35.6983H176.008V31.0669H181.751C178.023 25.4861 171.654 21.8042 164.43 21.8042C158.902 21.8042 153.601 24 149.693 27.9084C145.784 31.8169 143.588 37.1179 143.588 42.6453H138.957Z" fill="#707A8B"/>
        <path d="M111 42.3667L102.133 33.5L102.133 40.15L86.6167 40.15L86.6167 44.5833L102.133 44.5833L102.133 51.2333" fill="#707A8B"/>
    </g>
    <defs>
        <clipPath id="clip0_10057_117508">
            <rect width="209" height="85" fill="white" transform="translate(0 0.5)"/>
        </clipPath>
    </defs>
</svg>
