<svg width="210" height="80" viewBox="0 0 210 80" fill="none" xmlns="http://www.w3.org/2000/svg">
    <g clip-path="url(#clip0_10068_117658)">
        <path d="M40.9264 66.6653C59.3355 66.6653 74.259 51.7417 74.259 33.3326C74.259 14.9235 59.3355 0 40.9264 0C22.5173 0 7.59375 14.9235 7.59375 33.3326C7.59375 51.7417 22.5173 66.6653 40.9264 66.6653Z" fill="#22ABAC" fill-opacity="0.2"/>
        <path d="M34.6068 40.3629C29.4698 38.6602 26.9879 37.5924 26.9879 34.8796C26.9879 31.9359 30.1913 30.8681 32.2115 30.8681C35.9921 30.8681 37.3773 33.7252 37.6948 34.7353L42.2546 32.8017C41.8217 31.503 39.8881 27.2607 34.9243 26.3372V22.7586H29.1524V26.3949C21.9953 28.011 21.9664 34.6487 21.9664 34.9373C21.9664 41.4884 28.4598 43.3354 31.6343 44.4898C36.1941 46.1059 38.2142 47.5777 38.2142 50.3482C38.2142 53.6093 35.184 54.9946 32.5001 54.9946C27.2477 54.9946 25.747 49.5979 25.5738 48.963L20.7832 50.8965C22.6013 57.2168 27.3631 58.9195 29.1524 59.4389V63.1618H34.9243V59.5832C36.0787 59.3235 43.2935 57.8805 43.2935 50.2905C43.2935 46.279 41.5331 42.7582 34.6068 40.3629ZM6.06485 68.9337H0.292969V51.618H17.6086V57.3899H10.4515C15.0979 64.345 23.0342 68.9337 32.0383 68.9337C38.9269 68.9337 45.5334 66.1972 50.4044 61.3262C55.2753 56.4553 58.0118 49.8488 58.0118 42.9602H63.7837C63.7837 60.5067 49.5849 74.7056 32.0383 74.7056C21.3026 74.7056 11.8079 69.3666 6.06485 61.2282V68.9337ZM0.292969 42.9602C0.292969 25.4137 14.4918 11.2148 32.0383 11.2148C42.774 11.2148 52.2688 16.5538 58.0118 24.6922V16.9867H63.7837V34.3024H46.468V28.5305H53.6252C48.9788 21.5754 41.0425 16.9867 32.0383 16.9867C25.1497 16.9867 18.5433 19.7232 13.6723 24.5942C8.80134 29.4652 6.06485 36.0716 6.06485 42.9602H0.292969Z" fill="#22ABAC"/>
        <path d="M119.184 36.4807L110.542 27.8389L110.542 34.3202L95.4187 34.3202L95.4187 38.6411L110.542 38.6411L110.542 45.1225M88.9373 51.6038L104.06 51.6038L104.06 47.2829L88.9373 47.2829L88.9373 40.8016L80.2955 49.4433L88.9373 58.0851L88.9373 51.6038Z" fill="#707A8B"/>
        <path fill-rule="evenodd" clip-rule="evenodd" d="M163.435 74.8171C181.026 74.8171 195.286 60.5569 195.286 42.9659C195.286 25.375 181.026 11.1148 163.435 11.1148C145.844 11.1148 131.584 25.375 131.584 42.9659C131.584 60.5569 145.844 74.8171 163.435 74.8171ZM163.435 80.0022C183.889 80.0022 200.471 63.4205 200.471 42.9659C200.471 22.5114 183.889 5.92969 163.435 5.92969C142.98 5.92969 126.398 22.5114 126.398 42.9659C126.398 63.4205 142.98 80.0022 163.435 80.0022Z" fill="#707A8B"/>
    </g>
    <defs>
        <clipPath id="clip0_10068_117658">
            <rect width="210" height="80" fill="white"/>
        </clipPath>
    </defs>
</svg>
