<svg width="130" height="130" viewBox="0 0 130 130" fill="none" xmlns="http://www.w3.org/2000/svg">
<mask id="mask0_918_383" style="mask-type:luminance" maskUnits="userSpaceOnUse" x="0" y="0" width="130" height="130">
<path d="M130 65C130 29.1015 100.899 0 65 0C29.1015 0 0 29.1015 0 65C0 100.899 29.1015 130 65 130C100.899 130 130 100.899 130 65Z" fill="white"/>
</mask>
<g mask="url(#mask0_918_383)">
<path d="M65 130C100.899 130 130 100.898 130 65C130 29.1015 100.899 0 65 0C29.1015 0 0 29.1015 0 65C0 100.898 29.1015 130 65 130Z" fill="#001845"/>
<path d="M88.4736 90.9416C77.6004 89.1294 49.7028 78.5345 43.9661 50.4717C41.0965 36.8739 43.8059 16.9854 43.8059 16.9854C22.5474 26.7556 9.97509 50.14 14.8508 74.1525C20.5875 102.215 48.1643 120.51 76.3911 114.807C90.9408 111.957 102.599 103.316 110.194 91.7724C106.408 93.4965 99.3468 92.7538 88.4736 90.9416Z" fill="url(#paint0_linear_918_383)"/>
<path fill-rule="evenodd" clip-rule="evenodd" d="M114.628 88.6169L118.072 91.0633C118.848 91.6144 118.767 92.7909 117.923 93.2306L106.773 99.0397C105.888 99.501 104.84 98.8104 104.915 97.8149L105.897 84.7833C105.971 83.7953 107.096 83.2671 107.904 83.8409L110.992 86.0344C118.876 68.117 115.963 46.4626 101.852 31.1544C82.9949 10.6973 51.2237 9.25409 30.5942 27.804C30.3327 28.0391 29.9281 28.0249 29.6898 27.7664L27.5873 25.4854C27.349 25.2269 27.3673 24.8219 27.6285 24.5865C50.035 4.39899 84.5742 5.95498 105.069 28.1889C120.616 45.0555 123.644 69.0062 114.628 88.6169Z" fill="url(#paint1_linear_918_383)"/>
<path fill-rule="evenodd" clip-rule="evenodd" d="M15.806 40.9811L12.3999 38.4821C11.6325 37.9192 11.7315 36.7441 12.5822 36.3174L23.82 30.6803C24.7123 30.2326 25.7493 30.9393 25.659 31.9335L24.4772 44.9485C24.3876 45.9353 23.2548 46.4461 22.4559 45.86L19.4017 43.6192C11.2432 61.4133 13.8238 83.11 27.6974 98.6332C46.2375 119.378 77.9828 121.98 98.895 103.75C99.16 103.519 99.5643 103.539 99.7986 103.801L101.866 106.114C102.1 106.376 102.076 106.781 101.811 107.012C79.0967 126.853 44.5855 124.095 24.435 101.549C9.14891 84.4454 6.49006 60.451 15.806 40.9811Z" fill="url(#paint2_linear_918_383)"/>
<path fill-rule="evenodd" clip-rule="evenodd" d="M64.7038 39.6504L85.2083 52.105V65.3012C85.2083 77.0483 77.1455 88.2196 65.7831 90.9941L64.7038 91.2577L63.6244 90.9941C52.262 88.2196 44.1992 77.0483 44.1992 65.3012V52.105L64.7038 39.6504ZM64.7038 86.574C55.5565 84.3403 48.7492 75.1399 48.7492 65.3012V54.6649L64.7038 44.974L80.6583 54.6649V65.3012C80.6583 75.1399 73.851 84.3403 64.7038 86.574Z" fill="white"/>
<path fill-rule="evenodd" clip-rule="evenodd" d="M64.5039 44.4542L64.7045 44.3242L80.659 54.6651V65.3015C80.659 75.1274 73.8693 84.3168 64.7399 86.5655V44.4542H64.5039Z" fill="white"/>
</g>
<defs>
<linearGradient id="paint0_linear_918_383" x1="29.7053" y1="99.1419" x2="73.1981" y2="62.1213" gradientUnits="userSpaceOnUse">
<stop stop-color="#28A0EF"/>
<stop offset="1" stop-color="#E60724" stop-opacity="0"/>
</linearGradient>
<linearGradient id="paint1_linear_918_383" x1="111.54" y1="95.699" x2="45.099" y2="16.8428" gradientUnits="userSpaceOnUse">
<stop stop-color="white"/>
<stop offset="1" stop-color="white" stop-opacity="0"/>
</linearGradient>
<linearGradient id="paint2_linear_918_383" x1="21.0639" y1="96.3473" x2="81.7466" y2="122.115" gradientUnits="userSpaceOnUse">
<stop stop-color="white"/>
<stop offset="1" stop-color="white" stop-opacity="0"/>
</linearGradient>
</defs>
</svg>
