<svg width="18" height="18" viewBox="0 0 18 18" fill="none" xmlns="http://www.w3.org/2000/svg">
    <path d="M8.16797 14.0003H9.83464V12.3337H8.16797V14.0003ZM9.0013 0.666992C7.90695 0.666992 6.82332 0.88254 5.81227 1.30133C4.80123 1.72012 3.88257 2.33395 3.10875 3.10777C1.54594 4.67057 0.667969 6.79019 0.667969 9.00033C0.667969 11.2105 1.54594 13.3301 3.10875 14.8929C3.88257 15.6667 4.80123 16.2805 5.81227 16.6993C6.82332 17.1181 7.90695 17.3337 9.0013 17.3337C11.2114 17.3337 13.3311 16.4557 14.8939 14.8929C16.4567 13.3301 17.3346 11.2105 17.3346 9.00033C17.3346 7.90598 17.1191 6.82234 16.7003 5.8113C16.2815 4.80025 15.6677 3.88159 14.8939 3.10777C14.12 2.33395 13.2014 1.72012 12.1903 1.30133C11.1793 0.88254 10.0957 0.666992 9.0013 0.666992ZM9.0013 15.667C5.3263 15.667 2.33464 12.6753 2.33464 9.00033C2.33464 5.32533 5.3263 2.33366 9.0013 2.33366C12.6763 2.33366 15.668 5.32533 15.668 9.00033C15.668 12.6753 12.6763 15.667 9.0013 15.667ZM9.0013 4.00033C8.11725 4.00033 7.2694 4.35152 6.64428 4.97664C6.01916 5.60176 5.66797 6.4496 5.66797 7.33366H7.33464C7.33464 6.89163 7.51023 6.46771 7.82279 6.15515C8.13535 5.84259 8.55928 5.66699 9.0013 5.66699C9.44333 5.66699 9.86725 5.84259 10.1798 6.15515C10.4924 6.46771 10.668 6.89163 10.668 7.33366C10.668 9.00033 8.16797 8.79199 8.16797 11.5003H9.83464C9.83464 9.62533 12.3346 9.41699 12.3346 7.33366C12.3346 6.4496 11.9834 5.60176 11.3583 4.97664C10.7332 4.35152 9.88536 4.00033 9.0013 4.00033Z" fill="#4C586D"/>
</svg>
