<svg width="25" height="24" viewBox="0 0 25 24" fill="none" xmlns="http://www.w3.org/2000/svg">
<g clip-path="url(#clip0_10203_69315)">
<path fill-rule="evenodd" clip-rule="evenodd" d="M1.92005 2.64057L1.01548 2.59267L1.01139 3.50621L1.01093 3.69664C1.01066 3.84498 1.0103 4.10107 1.00994 4.53253C1.00922 5.39538 1.0085 6.96015 1.0085 9.76807V10.1288L2.08029 11.2097C1.65591 11.479 1.22953 11.7452 0.801183 12.0082L0.387143 12.2626L0.383789 18.2846L5.3275 23.2737L5.65205 23.2951C11.7182 23.6948 17.9568 23.2514 23.802 21.2176L24.3838 21.0151V13.7787L23.1192 12.5034C23.3347 12.2888 23.5497 12.0725 23.7631 11.8548L24.0125 11.6004V11.2426C24.0125 10.9956 24.0132 9.70218 24.014 8.46995L24.0156 5.70684L18.9236 0.571411L18.4168 0.742645C13.1542 2.52066 7.50979 2.93655 1.92005 2.64057ZM18.6911 1.56832L23.152 6.0673C23.152 6.0673 23.1491 10.7479 23.1491 11.2426C22.9371 11.4589 22.7232 11.674 22.5087 11.8876C22.3032 12.0921 22.0971 12.2952 21.8912 12.4963L23.5204 14.1394V20.3944C17.8158 22.3793 11.6995 22.8209 5.70833 22.4262L1.2474 17.9243L1.25028 12.752C1.7381 12.4523 2.22346 12.1487 2.70629 11.841C2.95545 11.6822 3.20394 11.5224 3.45173 11.3614L1.8719 9.76807C1.8719 6.78767 1.87271 5.20815 1.87348 4.38204C1.87415 3.65158 1.87479 3.51013 1.87479 3.51013C2.1623 3.52535 2.45008 3.53873 2.73807 3.55015C8.11665 3.76364 13.5673 3.29944 18.6911 1.56832Z" fill="white"/>
<path fill-rule="evenodd" clip-rule="evenodd" d="M1.87495 3.51019C7.53219 3.80976 13.2931 3.39216 18.6912 1.56836L23.1522 6.06733C23.1522 6.06733 23.1493 10.748 23.1493 11.2426C22.7341 11.666 22.3122 12.0852 21.8914 12.4963L23.5205 14.1394V20.3944C17.8159 22.3793 11.6997 22.821 5.70848 22.4262L1.24756 17.9243L1.25044 12.752C1.99001 12.2978 2.72392 11.8343 3.45191 11.3614L1.87207 9.7681C1.87207 4.1525 1.87495 3.51019 1.87495 3.51019Z" fill="#ADB3BD"/>
<path d="M21.4222 8.343V10.8508C18.6392 13.527 15.8561 15.8606 13.076 17.9418C15.9828 17.7473 18.8867 17.28 21.7963 16.4325C21.7963 17.3584 21.7963 18.2814 21.7963 19.2073C17.7844 20.3799 13.7753 20.8241 9.76623 20.8241C8.98917 20.8241 8.21212 20.8066 7.43506 20.7747V18.2669C10.2181 16.4818 13.0011 14.5109 15.7813 12.2557C13.7811 12.514 11.7808 12.6243 9.7806 12.6243C9.205 12.6243 8.63229 12.6156 8.05669 12.5981C8.05669 11.6722 8.05669 10.7492 8.05669 9.82329C8.62652 9.84072 9.19352 9.8494 9.76337 9.8494C13.6487 9.8494 17.534 9.43435 21.4193 8.34009L21.4222 8.343Z" fill="white"/>
</g>
<defs>
<clipPath id="clip0_10203_69315">
<rect width="24" height="24" fill="white" transform="translate(0.383789)"/>
</clipPath>
</defs>
</svg>
