<svg width="160" height="108" viewBox="0 0 160 108" fill="none" xmlns="http://www.w3.org/2000/svg">
    <path d="M87.6825 24.878H45.2435V0L0.609375 46.0976L45.2435 90V56.3415L87.6825 24.878Z" fill="#707A8B"/>
    <path d="M124.608 95.4999C121.293 95.4999 118.113 94.183 115.769 91.8388C113.425 89.4946 112.108 86.3151 112.108 82.9999C112.108 80.9166 112.629 78.8958 113.566 77.1666L110.525 74.1249C108.837 76.7772 107.941 79.856 107.941 82.9999C107.941 87.4202 109.697 91.6594 112.823 94.785C115.949 97.9106 120.188 99.6666 124.608 99.6666V105.917L132.941 97.5833L124.608 89.2499M124.608 66.3333V60.0833L116.275 68.4166L124.608 76.7499V70.4999C127.923 70.4999 131.103 71.8169 133.447 74.1611C135.791 76.5053 137.108 79.6847 137.108 82.9999C137.108 85.0833 136.587 87.1041 135.65 88.8333L138.691 91.8749C140.379 89.2227 141.276 86.1438 141.275 82.9999C141.275 78.5796 139.519 74.3404 136.393 71.2148C133.268 68.0892 129.028 66.3333 124.608 66.3333Z" fill="#707A8B"/>
    <path fill-rule="evenodd" clip-rule="evenodd" d="M114.756 33.6585L69.3906 67.3171L104.886 67.8896C109.452 61.8802 116.675 58 124.805 58C131.042 58 136.747 60.2845 141.126 64.0625L159.391 46.0976L114.756 0V33.6585Z" fill="#707A8B"/>
</svg>
