<svg width="221" height="226" viewBox="0 0 221 226" fill="none" xmlns="http://www.w3.org/2000/svg">
<path d="M48.5266 85.4474V66.5H124.025C134.168 66.5 142.39 74.983 142.39 85.4474H48.5266Z" fill="#0497EC"/>
<path d="M124.026 93.8684V190.711C134.168 190.71 142.39 182.227 142.39 171.763V93.8684H124.026Z" fill="#0497EC"/>
<path d="M117.904 171.763H115.863V190.711H40.3646C30.2221 190.711 22 182.227 22 171.763L117.904 171.763Z" fill="#0497EC"/>
<path d="M40.3646 66.5V163.342H22V85.4474C22 74.983 30.2221 66.5 40.3646 66.5Z" fill="#0497EC"/>
<path d="M80.4632 104.394C78.6015 104.394 77.0923 105.912 77.0923 107.785V121.236H64.138C62.2763 121.236 60.7671 122.754 60.7671 124.627V130.477C60.7671 132.35 62.2763 133.868 64.138 133.868H77.0923V147.319C77.0923 149.192 78.6015 150.71 80.4632 150.71H85.9644C87.8261 150.71 89.3353 149.192 89.3353 147.319V133.868H102.287C104.149 133.868 105.658 132.35 105.658 130.477V124.627C105.658 122.754 104.149 121.236 102.287 121.236H89.3353V107.785C89.3353 105.912 87.8261 104.394 85.9644 104.394H80.4632Z" fill="#0497EC"/>
<path d="M141.692 39.5546L141.572 39.0971L141.237 38.7626L132.347 29.8717C131.929 29.2433 131.494 28.089 131.353 26.6663C131.206 25.193 131.395 23.6239 132.065 22.2827C133.591 19.2307 136.44 18.9136 138.634 18.7448L139.703 18.6626L140.115 17.6731C140.767 16.1097 142.914 13.75 146 13.75C149.266 13.75 151.315 15.32 153.133 17.5931L153.835 18.4701L154.924 18.1977C155.568 18.0368 157.137 17.9959 158.875 18.4445C160.592 18.8875 162.153 19.7256 163.076 21.0172C164.052 22.3845 164.198 24.0301 163.96 25.6537C163.752 27.0778 163.283 28.2912 162.982 29.0694C162.938 29.1846 162.897 29.2902 162.861 29.3855L162.546 30.2249L163.044 30.9708C164.802 33.6075 165.535 36.8424 163.516 40.0725C162.739 41.3154 161.324 42.1379 159.717 42.6431C158.133 43.1411 156.613 43.25 156 43.25H154.634L154.302 44.5757C153.89 46.2255 152.126 49.25 148.5 49.25C147.102 49.25 145.639 48.0665 144.261 45.7832C142.956 43.6225 142.085 41.0457 141.692 39.5546Z" fill="url(#paint0_linear_697_761)" stroke="url(#paint1_linear_697_761)" stroke-width="3.5"/>
<path d="M125 31.25C129.688 31.25 134.033 31.5394 137.748 32.2224C141.485 32.9095 144.449 33.9715 146.483 35.424C149.808 37.7992 150.26 42.3142 149.759 47.3259C149.608 48.8309 149.275 50.4783 148.87 52.4792C148.628 53.6756 148.361 54.9984 148.091 56.4927C147.391 60.3774 146.75 65.1168 146.75 71C146.75 77.872 146.943 82.977 147.344 86.7143L57.762 49.6622C63.6425 46.1261 73.9327 41.0889 83.5095 38.1742C99.262 33.3799 115.69 31.25 125 31.25Z" fill="#FF6B6C" stroke="url(#paint2_linear_697_761)" stroke-width="3.5"/>
<path d="M46 58.5C44.5007 63.5001 46.5004 68 46.5004 68C51.0003 79.0001 76 88 92 94.4999C106.502 100.391 134.341 111 141.5 111C150 111 153.05 100.5 152.5 94.9999C151.5 84.9999 148.5 83.5 106.5 64.9999C106.5 64.9999 67.5006 48.5 58.0006 49C51.0009 49.3684 47.3493 54 46 58.5Z" fill="url(#paint3_linear_697_761)"/>
<path d="M48.1201 67.3374L48.1102 67.3132L48.102 67.2948C48.1023 67.2955 48.1022 67.2953 48.1016 67.2939L48.1016 67.2938L48.1011 67.2929L48.093 67.2736C48.084 67.252 48.0685 67.2143 48.048 67.1615C48.0068 67.0559 47.9455 66.8906 47.8741 66.6732C47.7311 66.2373 47.5502 65.5987 47.4107 64.8174C47.1298 63.2446 47.0286 61.1625 47.6763 59.0026C48.872 55.0147 52.016 51.0674 58.0926 50.7476C59.0516 50.6971 60.523 50.8627 62.4621 51.2586C64.3705 51.6482 66.6208 52.2368 69.0901 52.9672C74.0273 54.4275 79.7507 56.4276 85.2035 58.453C90.6516 60.4766 95.8069 62.5169 99.6017 64.0519C101.499 64.8192 103.054 65.4598 104.135 65.9083C104.675 66.1325 105.097 66.3087 105.383 66.4286C105.526 66.4886 105.635 66.5345 105.709 66.5654L105.791 66.6002L105.807 66.6068C126.878 75.8883 137.952 80.8177 143.929 84.6595C146.879 86.5564 148.406 88.0799 149.288 89.5814C150.168 91.0796 150.515 92.7349 150.759 95.174C151 97.5859 150.44 101.24 148.847 104.243C147.276 107.207 144.883 109.25 141.5 109.25C139.987 109.25 137.127 108.66 133.261 107.566C129.467 106.494 124.9 104.996 120.082 103.308C110.45 99.9314 99.8929 95.8175 92.6587 92.8786C91.0856 92.2396 89.4333 91.5793 87.7275 90.8976C80.6928 88.0863 72.7506 84.9124 65.7247 81.3745C61.367 79.1802 57.43 76.8784 54.3279 74.4823C51.2005 72.0667 49.0747 69.6711 48.1201 67.3374Z" stroke="url(#paint4_linear_697_761)" stroke-opacity="0.5" stroke-width="3.5"/>
<defs>
<linearGradient id="paint0_linear_697_761" x1="166" y1="78.5" x2="137.5" y2="10" gradientUnits="userSpaceOnUse">
<stop stop-color="#E3F2FD"/>
<stop offset="1" stop-color="white"/>
</linearGradient>
<linearGradient id="paint1_linear_697_761" x1="163.5" y1="44.5" x2="125.5" y2="15.5" gradientUnits="userSpaceOnUse">
<stop stop-color="#D1ECFF"/>
<stop offset="1" stop-color="#F0F9FF"/>
</linearGradient>
<linearGradient id="paint2_linear_697_761" x1="228.5" y1="121" x2="38.5" y2="14.5" gradientUnits="userSpaceOnUse">
<stop stop-color="#B9264F"/>
<stop offset="1" stop-color="#FF6B6C"/>
</linearGradient>
<linearGradient id="paint3_linear_697_761" x1="174.5" y1="128" x2="111" y2="23.5" gradientUnits="userSpaceOnUse">
<stop stop-color="#E3F2FD"/>
<stop offset="1" stop-color="white"/>
</linearGradient>
<linearGradient id="paint4_linear_697_761" x1="137" y1="127.5" x2="74.5" y2="18" gradientUnits="userSpaceOnUse">
<stop stop-color="#B3DFFF"/>
<stop offset="1" stop-color="#EAF6FF"/>
</linearGradient>
</defs>
</svg>
