<svg width="221" height="226" viewBox="0 0 221 226" fill="none" xmlns="http://www.w3.org/2000/svg">
<path d="M142.5 47C148.5 37.5 151 28 154.5 28.5C159.5 28.5 162 43.5 168 57.5C174 71.5 181 75.5 179 76C177.4 76.4 172 73.5 169.5 72C171.833 76.8333 177.4 88.1 181 94.5C185.5 102.5 198 115 195.5 116C193.5 116.8 186 114.667 182.5 113.5C184 117.333 187.8 126.2 191 131C195 137 203.5 144 202 145.5C200.8 146.7 189.167 141.333 183.5 138.5C186.833 143.833 195.2 155.8 202 161C210.5 167.5 221 170.5 221 173C221 175.5 207 176 202 176C198 176 188.667 174 184.5 173C185.333 174.5 187.4 178 189 180C191 182.5 194.5 185.5 193.5 187C192.5 188.5 179.5 184.5 172 182C166 180 158.167 177.167 155 176C150.167 177.5 139.5 180.8 135.5 182C131.5 183.2 118.167 185.833 112 187L98 177.5L109.5 166C102 165.667 87.1001 164.7 87.5001 163.5C88.0001 162 98.5001 157.5 104.5 154.5C109.3 152.1 125.5 140.167 133 134.5C122.667 138.167 101.8 145.2 101 144C100 142.5 109 134.5 114.5 128C118.9 122.8 126.667 111.167 130 106C121.5 107.833 104.5 111 104.5 109C104.5 106.5 118 96.5 126 88.5C132.4 82.1 139.667 67.8333 142.5 61.5C140 62.5 134.4 64.3 132 63.5C129 62.5 136.5 56.5 142.5 47Z" fill="#2DE8A9"/>
<path d="M154.253 30.2324L154.376 30.25H154.5C154.785 30.25 155.424 30.4655 156.398 32.0002C157.319 33.4514 158.234 35.607 159.23 38.348C159.855 40.0655 160.506 42.0009 161.202 44.0708C162.671 48.4398 164.342 53.4078 166.391 58.1894C169.47 65.3715 172.814 70.0064 175.133 72.9057C175.19 72.9768 175.246 73.0463 175.301 73.1143C173.517 72.2867 171.609 71.2246 170.4 70.4994L165.377 67.4856L167.924 72.7608C170.257 77.5938 175.845 88.905 179.475 95.358C181.493 98.9452 185.031 103.367 188.091 107.192C188.577 107.799 189.051 108.392 189.505 108.963C191.203 111.102 192.606 112.929 193.434 114.265C193.461 114.308 193.486 114.35 193.511 114.39C193.441 114.384 193.369 114.377 193.294 114.37C192.354 114.274 191.197 114.063 189.948 113.781C187.457 113.218 184.765 112.41 183.053 111.84L179.509 110.658L180.87 114.138C182.371 117.972 186.229 126.998 189.544 131.971C191.306 134.613 193.891 137.431 196.079 139.814C196.492 140.264 196.89 140.698 197.266 141.113C198.071 142 198.762 142.785 199.302 143.456C198.134 143.093 196.682 142.547 195.089 141.894C191.377 140.37 187.094 138.34 184.283 136.935L178.72 134.153L182.016 139.427C183.712 142.141 186.671 146.516 190.07 150.876C193.447 155.209 197.351 159.648 200.937 162.39C205.172 165.629 209.87 168.015 213.481 169.85C213.62 169.921 213.758 169.991 213.894 170.06C215.765 171.011 217.246 171.777 218.265 172.447C218.412 172.543 218.542 172.633 218.656 172.716C218.535 172.757 218.401 172.799 218.252 172.841C217.011 173.197 215.226 173.481 213.19 173.697C209.148 174.126 204.465 174.25 202 174.25C200.184 174.25 197.001 173.782 193.633 173.155C190.313 172.536 186.968 171.793 184.908 171.298L181.036 170.369L182.97 173.85C183.808 175.357 185.934 178.969 187.633 181.093C188.167 181.76 188.79 182.449 189.369 183.089L189.39 183.112C189.992 183.777 190.548 184.393 191.008 184.968C191.17 185.171 191.309 185.355 191.427 185.521C191.298 185.507 191.16 185.49 191.012 185.469C189.64 185.281 187.766 184.864 185.629 184.307C181.373 183.196 176.291 181.586 172.553 180.34C166.579 178.348 158.765 175.522 155.605 174.358L155.048 174.153L154.481 174.329C149.645 175.83 138.987 179.127 134.997 180.324C131.25 181.448 118.843 183.916 112.384 185.146L100.734 177.241L110.738 167.237L113.547 164.428L109.578 164.252C105.843 164.086 100.274 163.762 95.7013 163.333C94.072 163.18 92.5924 163.015 91.3769 162.843C92.322 162.325 93.4579 161.747 94.7088 161.133C96.2413 160.381 97.9954 159.552 99.7295 158.733C101.731 157.787 103.706 156.854 105.283 156.065C107.834 154.79 113.21 151.11 118.755 147.149C124.358 143.146 130.296 138.736 134.055 135.896L132.415 132.851C127.26 134.68 119.482 137.347 112.903 139.405C109.608 140.435 106.643 141.303 104.467 141.838C104.31 141.877 104.159 141.913 104.013 141.947C104.694 141.126 105.572 140.157 106.589 139.072C107.385 138.224 108.26 137.31 109.17 136.361C111.407 134.026 113.855 131.472 115.836 129.13C120.322 123.829 128.148 112.099 131.471 106.949L133.761 103.399L129.631 104.289C125.402 105.202 119.069 106.443 113.811 107.206C111.171 107.589 108.864 107.842 107.244 107.883C107.241 107.883 107.239 107.884 107.236 107.884C107.453 107.643 107.702 107.38 107.982 107.094C109.32 105.734 111.211 104.039 113.4 102.132C114.276 101.369 115.198 100.573 116.144 99.7556C119.878 96.5327 124.002 92.973 127.238 89.7374C130.61 86.3655 134.12 81.0294 137.104 75.8484C140.108 70.6334 142.659 65.4299 144.098 62.2146L145.862 58.2704L141.85 59.8752C140.663 60.3502 138.722 61.0208 136.811 61.4718C135.855 61.6973 134.945 61.8588 134.163 61.9212C133.896 61.9424 133.66 61.9507 133.455 61.9491C133.819 61.3622 134.409 60.5716 135.242 59.5307C135.654 59.0149 136.112 58.4552 136.603 57.8539C138.729 55.2545 141.488 51.8801 143.98 47.9345C146.255 44.332 148.059 40.6875 149.557 37.6626C150.069 36.6288 150.545 35.6674 150.992 34.8047C151.898 33.0549 152.648 31.7772 153.328 30.9746C153.661 30.5806 153.912 30.3825 154.075 30.2917C154.203 30.2205 154.245 30.2307 154.252 30.2322C154.252 30.2323 154.252 30.2324 154.253 30.2324ZM194.084 115.557C194.084 115.557 194.083 115.552 194.082 115.543C194.084 115.553 194.085 115.558 194.084 115.557ZM219.318 173.312C219.318 173.312 219.316 173.309 219.312 173.302C219.317 173.309 219.319 173.312 219.318 173.312ZM219.493 172.34C219.503 172.331 219.509 172.326 219.51 172.326C219.511 172.325 219.506 172.33 219.493 172.34ZM191.93 186.434C191.93 186.434 191.929 186.43 191.928 186.424C191.93 186.431 191.93 186.434 191.93 186.434ZM102.639 143.944C102.637 143.945 102.641 143.927 102.656 143.886C102.649 143.922 102.641 143.942 102.639 143.944ZM105.525 107.787C105.525 107.787 105.527 107.788 105.531 107.789C105.527 107.788 105.524 107.787 105.525 107.787ZM106.221 109.227C106.219 109.234 106.217 109.237 106.217 109.237C106.217 109.237 106.218 109.234 106.221 109.227ZM133.061 62.739C133.061 62.7391 133.062 62.7364 133.063 62.731C133.062 62.7362 133.062 62.739 133.061 62.739Z" stroke="#0FB88F" stroke-opacity="0.2" stroke-width="3.5"/>
<circle cx="168" cy="96.5" r="7.5" fill="#F7FCFF" stroke="#EAF7FF" stroke-width="3"/>
<circle cx="167" cy="133.5" r="2.5" fill="#F7FCFF" stroke="#EAF7FF" stroke-width="3"/>
<circle cx="153" cy="168.5" r="1.5" fill="#F7FCFF" stroke="#EAF7FF" stroke-width="3"/>
<circle cx="181" cy="160.5" r="8.5" fill="#F7FCFF" stroke="#EAF7FF" stroke-width="3"/>
<circle cx="115" cy="156.5" r="3.5" fill="#F7FCFF" stroke="#EAF7FF" stroke-width="3"/>
<circle cx="140" cy="122.5" r="11.5" fill="#F7FCFF" stroke="#EAF7FF" stroke-width="3"/>
<circle cx="149" cy="66.5" r="2.5" fill="#F7FCFF" stroke="#EAF7FF" stroke-width="3"/>
<path d="M48.5266 85.4474V66.5H124.025C134.168 66.5 142.39 74.983 142.39 85.4474H48.5266Z" fill="#0497EC"/>
<path d="M124.025 93.8684L124.026 190.711C134.168 190.71 142.39 182.227 142.39 171.763V93.8684H124.025Z" fill="#0497EC"/>
<path d="M117.904 171.763H115.863V190.711H40.3646C30.2221 190.711 22 182.227 22 171.763L117.904 171.763Z" fill="#0497EC"/>
<path d="M40.3646 66.5V163.342H22V85.4474C22 74.983 30.2221 66.5 40.3646 66.5Z" fill="#0497EC"/>
<path d="M80.4632 104.394C78.6015 104.394 77.0923 105.912 77.0923 107.785V121.236H64.138C62.2763 121.236 60.7671 122.754 60.7671 124.627V130.477C60.7671 132.35 62.2763 133.868 64.138 133.868H77.0923V147.319C77.0923 149.192 78.6015 150.71 80.4632 150.71H85.9644C87.8261 150.71 89.3353 149.192 89.3353 147.319V133.868H102.287C104.149 133.868 105.658 132.35 105.658 130.477V124.627C105.658 122.754 104.149 121.236 102.287 121.236H89.3353V107.785C89.3353 105.912 87.8261 104.394 85.9644 104.394H80.4632Z" fill="#0497EC"/>
<path d="M147.631 13.7848L153.5 3.92197L159.369 13.7848C159.762 14.4441 160.412 14.9096 161.162 15.0687L172.496 17.4707L164.802 25.898C164.273 26.4773 164.017 27.2549 164.098 28.0351L165.265 39.3183L154.589 34.7139C153.894 34.4141 153.106 34.4141 152.411 34.7139L141.735 39.3183L142.902 28.0351C142.983 27.2549 142.727 26.4773 142.198 25.898L134.504 17.4707L145.838 15.0687C146.588 14.9096 147.238 14.4441 147.631 13.7848Z" fill="white" stroke="url(#paint0_linear_697_761)" stroke-width="3.5"/>
<defs>
<linearGradient id="paint0_linear_697_761" x1="126" y1="12" x2="182.5" y2="34" gradientUnits="userSpaceOnUse">
<stop stop-color="#E6F5FF"/>
<stop offset="1" stop-color="#D7EFFF"/>
</linearGradient>
</defs>
</svg>
