<svg width="221" height="226" viewBox="0 0 221 226" fill="none" xmlns="http://www.w3.org/2000/svg">
<path d="M48.5266 85.3474V66.4H124.025C134.168 66.4 142.39 74.883 142.39 85.3474H48.5266Z" fill="#0497EC"/>
<path d="M124.025 93.7684L124.026 190.611C134.168 190.61 142.39 182.127 142.39 171.663V93.7684H124.025Z" fill="#0497EC"/>
<path d="M117.904 171.663H115.863V190.611H40.3646C30.2221 190.611 22 182.127 22 171.663L117.904 171.663Z" fill="#0497EC"/>
<path d="M40.3646 66.4V163.242H22V85.3474C22 74.883 30.2221 66.4 40.3646 66.4Z" fill="#0497EC"/>
<path d="M80.4632 104.294C78.6015 104.294 77.0923 105.812 77.0923 107.685V121.136H64.138C62.2763 121.136 60.7671 122.654 60.7671 124.527V130.377C60.7671 132.25 62.2763 133.768 64.138 133.768H77.0923V147.219C77.0923 149.092 78.6015 150.61 80.4632 150.61H85.9644C87.8261 150.61 89.3353 149.092 89.3353 147.219V133.768H102.287C104.149 133.768 105.658 132.25 105.658 130.377V124.527C105.658 122.654 104.149 121.136 102.287 121.136H89.3353V107.685C89.3353 105.812 87.8261 104.294 85.9644 104.294H80.4632Z" fill="#0497EC"/>
<path d="M192.41 136.999C200.631 139.641 208.465 139.076 211.354 138.464C208.835 140.776 201.388 146.72 197.581 154.45C193.774 162.179 196.502 168.408 197.306 170.978C193.408 169.506 184.123 167.652 176.33 169.858C168.537 172.064 162.496 177.983 160.987 180.206C159.224 177.061 154.663 169.888 150.523 166.359C146.383 162.829 137.807 160.027 134.036 159.067C137.335 157.483 146.363 152.698 147.961 147.606C149.558 142.514 149.448 134.849 149.194 131.653C151.558 133.508 156.516 136.833 165.413 135.916C174.311 134.999 177.981 129.031 178.724 125.912C179.861 128.507 184.189 134.358 192.41 136.999Z" fill="#2DE8A9"/>
<path d="M106.729 168.49C115.289 166.745 119.373 162.781 120.345 161.017C120.894 162.564 122.421 166.594 124.138 170.337C125.855 174.081 130.476 177.012 132.572 178.01C130.36 178.508 125.423 180.968 123.365 186.827C121.307 192.686 123.118 198.676 124.28 200.939C121.609 200.9 115.507 201.264 109.438 204.807C103.976 207.996 100.308 212.627 96.9704 216.882C97.2401 213.393 97.836 208.079 96.5001 201.4C95.5001 196.4 90.0734 192.114 88 190.9C90 189.9 95.8697 185.705 96.715 181.257C97.7846 175.628 96.0001 170.9 94.5001 168.4C97.0001 168.9 101.195 169.619 106.729 168.49Z" fill="#2DE8A9"/>
<path d="M192.41 136.999C200.631 139.641 208.465 139.076 211.354 138.464C208.835 140.776 201.388 146.72 197.581 154.45C193.774 162.179 196.502 168.408 197.306 170.978C193.408 169.506 184.123 167.652 176.33 169.858C168.537 172.064 162.496 177.983 160.987 180.206C159.224 177.061 154.663 169.888 150.523 166.359C146.383 162.829 137.807 160.027 134.036 159.067C137.335 157.483 146.363 152.698 147.961 147.606C149.558 142.514 149.448 134.849 149.194 131.653C151.558 133.508 156.516 136.833 165.413 135.916C174.311 134.999 177.981 129.031 178.724 125.912C179.861 128.507 184.189 134.358 192.41 136.999Z" stroke="#21DEA2" stroke-width="3.5"/>
<path d="M106.729 168.49C115.289 166.745 119.373 162.781 120.345 161.017C120.894 162.564 122.421 166.594 124.138 170.337C125.855 174.081 130.476 177.012 132.572 178.01C130.36 178.508 125.423 180.968 123.365 186.827C121.307 192.686 123.118 198.676 124.28 200.939C121.609 200.9 115.507 201.264 109.438 204.807C103.976 207.996 100.308 212.627 96.9704 216.882C97.2401 213.393 97.836 208.079 96.5001 201.4C95.5001 196.4 90.0734 192.114 88 190.9C90 189.9 95.8697 185.705 96.715 181.257C97.7846 175.628 96.0001 170.9 94.5001 168.4C97.0001 168.9 101.195 169.619 106.729 168.49Z" stroke="#21DEA2" stroke-width="3.5"/>
<path d="M146.25 157.546V156.829L153.658 155.315L146.25 157.546ZM112.557 176.229L109.82 181.266L111.572 175.792L112.557 176.229Z" fill="#D9D9D9" stroke="#21DEA1" stroke-width="3.5"/>
<circle cx="124" cy="142.4" r="10.25" fill="#FF5D5E" stroke="url(#paint0_linear_697_761)" stroke-width="3.5"/>
<circle cx="145" cy="157.4" r="13.25" fill="#FF5D5E" stroke="url(#paint1_linear_697_761)" stroke-width="3.5"/>
<circle cx="120.5" cy="165.9" r="11.75" fill="#FF5D5E" stroke="url(#paint2_linear_697_761)" stroke-width="3.5"/>
<g opacity="0.5">
<ellipse cx="140.842" cy="151.408" rx="3.27556" ry="2.54155" transform="rotate(-37.3732 140.842 151.408)" fill="#FFC0A5"/>
<ellipse cx="140.842" cy="151.408" rx="3.27556" ry="2.54155" transform="rotate(-37.3732 140.842 151.408)" fill="#FFC0A5"/>
<ellipse cx="121.887" cy="138.038" rx="2.56571" ry="2.05257" transform="rotate(-28.4259 121.887 138.038)" fill="#FFC0A5"/>
<ellipse cx="121.887" cy="138.038" rx="2.56571" ry="2.05257" transform="rotate(-28.4259 121.887 138.038)" fill="#FFC0A5"/>
<ellipse cx="118.486" cy="160.058" rx="3.29309" ry="2.54929" transform="rotate(-15.6131 118.486 160.058)" fill="#FFC0A5"/>
<ellipse cx="118.486" cy="160.058" rx="3.29309" ry="2.54929" transform="rotate(-15.6131 118.486 160.058)" fill="#FFC0A5"/>
</g>
<defs>
<linearGradient id="paint0_linear_697_761" x1="128.8" y1="154.4" x2="112" y2="111.2" gradientUnits="userSpaceOnUse">
<stop stop-color="#D7445C"/>
<stop offset="1" stop-color="#FF5D5E"/>
</linearGradient>
<linearGradient id="paint1_linear_697_761" x1="154.5" y1="172.4" x2="130" y2="121.4" gradientUnits="userSpaceOnUse">
<stop stop-color="#D7445C"/>
<stop offset="1" stop-color="#FF5D5E"/>
</linearGradient>
<linearGradient id="paint2_linear_697_761" x1="125.173" y1="180.958" x2="103.365" y2="132.669" gradientUnits="userSpaceOnUse">
<stop stop-color="#D7445C"/>
<stop offset="1" stop-color="#FF5D5E"/>
</linearGradient>
</defs>
</svg>
