<svg width="221" height="226" viewBox="0 0 221 226" fill="none" xmlns="http://www.w3.org/2000/svg">
<path d="M48.4436 85.3467V66.3993H123.942C134.085 66.3993 142.307 74.8824 142.307 85.3467H48.4436Z" fill="#0497EC"/>
<path d="M123.942 93.7677L123.942 190.61C134.085 190.61 142.307 182.127 142.307 171.662V93.7677H123.942Z" fill="#0497EC"/>
<path d="M117.821 171.663H115.78V190.61H40.2815C30.1391 190.61 21.917 182.127 21.917 171.662L117.821 171.663Z" fill="#0497EC"/>
<path d="M40.2816 66.3993V163.241H21.917V85.3467C21.917 74.8824 30.1391 66.3993 40.2816 66.3993Z" fill="#0497EC"/>
<path d="M80.3802 104.293C78.5185 104.293 77.0093 105.811 77.0093 107.684V121.135H64.055C62.1933 121.135 60.6841 122.654 60.6841 124.526V130.376C60.6841 132.249 62.1933 133.767 64.055 133.767H77.0093V147.219C77.0093 149.091 78.5185 150.609 80.3802 150.609H85.8814C87.7431 150.609 89.2523 149.091 89.2523 147.219V133.767H102.204C104.066 133.767 105.575 132.249 105.575 130.376V124.526C105.575 122.654 104.066 121.135 102.204 121.135H89.2523V107.684C89.2523 105.811 87.7431 104.293 85.8814 104.293H80.3802Z" fill="#0497EC"/>
<path d="M87.4171 73.8993H87.2053L86.9981 73.9437C84.3686 74.5072 81.8464 75.062 79.4234 75.5951C68.8185 77.9282 60.1144 79.8431 52.6404 80.228C43.6211 80.6925 36.7467 78.9004 30.8313 72.9851C29.3348 71.4886 28.6405 70.0307 28.5109 68.5597C28.3787 67.0596 28.8096 65.2719 30.0813 63.096C32.6682 58.6693 38.3665 53.2499 47.5959 46.5149C51.5666 43.6174 54.6477 41.2438 57.1796 39.2933C57.6127 38.9596 58.0298 38.6384 58.4324 38.329C61.2075 36.1967 63.2493 34.6691 65.2036 33.4847C68.9879 31.1912 72.5494 30.1142 80.7166 28.8767C96.3927 26.5016 109.82 34.5725 117.784 40.0474C119.611 41.3032 122.203 42.5836 124.896 43.9139L125.2 44.0641C128.068 45.4817 131.14 47.0101 133.984 48.776C139.798 52.3868 143.917 56.5405 143.917 61.8993C143.917 67.8305 141.8 71.2682 138.583 73.3437C135.198 75.5276 130.296 76.3993 124.417 76.3993C118.532 76.3993 112.13 75.7856 105.737 75.1589L105.268 75.1129C99.0799 74.5058 92.8971 73.8993 87.4171 73.8993ZM29.706 191.005L29.6716 190.936L29.6321 190.87C29.6451 190.892 29.6435 190.883 29.6363 190.846C29.5875 190.588 29.2814 188.974 31.4959 186.127C32.9393 184.271 35.9438 182.128 40.2344 180.545C44.4786 178.979 49.8256 178.022 55.7924 178.395C57.5511 178.505 59.6142 178.715 61.884 178.945C62.1328 178.971 62.384 178.996 62.6376 179.022C65.1845 179.28 67.9414 179.549 70.6761 179.708C76.0321 180.02 81.7229 179.944 85.705 178.238C87.7832 177.347 89.7395 175.776 91.5891 174.062C92.757 172.979 93.9837 171.74 95.2165 170.494C95.919 169.785 96.6235 169.073 97.3202 168.387C101.314 164.456 105.462 160.963 110.36 159.85C115.139 158.764 119.595 160.353 123.911 162.663C125.31 163.411 126.604 164.183 127.886 164.947C128.617 165.383 129.344 165.817 130.084 166.243C132.018 167.354 134.026 168.4 135.967 168.848C138.932 169.532 144.286 171.805 149.185 174.974C151.618 176.548 153.87 178.299 155.625 180.122C157.398 181.964 158.549 183.758 158.983 185.408C159.548 187.556 159.484 189.069 158.948 190.219C158.418 191.356 157.248 192.522 154.759 193.581C149.661 195.751 140.159 197.012 123.87 197.4C81.9172 198.399 60.4892 197.399 48.0766 196.406C42.7331 195.978 38.5581 195.612 35.4034 194.774C32.2944 193.948 30.5882 192.769 29.706 191.005ZM3.46815 113.075C4.98692 110.404 7.50386 108.942 10.2951 109.8C10.3594 109.838 10.4579 109.899 10.5845 109.988C10.9053 110.213 11.3335 110.561 11.7611 111.015C12.6364 111.944 13.3516 113.14 13.4196 114.499C13.6342 118.792 11.7481 121.069 9.74463 121.94C7.62632 122.861 5.05514 122.396 3.40368 120.561C1.95738 118.954 1.88501 115.86 3.46815 113.075Z" fill="url(#paint0_linear_697_761)" stroke="url(#paint1_linear_697_761)" stroke-width="4"/>
<path d="M51.2303 148.13C49.2938 146.515 48.6182 144.707 48.6699 143.327C48.7207 141.975 49.4511 140.895 50.7299 140.41C51.4755 140.128 52.8002 140.001 53.9271 140.414C54.9008 140.77 55.8304 141.549 56.0722 143.439C56.3051 145.259 56.0767 146.415 55.7413 147.125C55.4202 147.805 54.95 148.19 54.4218 148.409C53.861 148.641 53.1889 148.7 52.5416 148.607C51.8686 148.511 51.4086 148.278 51.2303 148.13Z" fill="white" stroke="url(#paint2_linear_697_761)" stroke-width="3.5"/>
<path d="M157.254 105.286C160.771 103.421 162.415 100.849 162.749 98.6493C163.078 96.49 162.206 94.456 160.15 93.2222C158.975 92.5172 156.834 91.8982 154.824 92.2008C152.992 92.4768 151.197 93.5091 150.244 96.3668C149.365 99.0052 149.364 100.856 149.706 102.114C150.038 103.339 150.737 104.167 151.615 104.73C152.525 105.313 153.657 105.624 154.766 105.682C155.906 105.741 156.804 105.525 157.254 105.286Z" fill="#F5FCFF" stroke="url(#paint3_linear_697_761)" stroke-width="4"/>
<defs>
<linearGradient id="paint0_linear_697_761" x1="-58.583" y1="91.3993" x2="358.917" y2="102.899" gradientUnits="userSpaceOnUse">
<stop stop-color="white"/>
<stop offset="1" stop-color="#E9F7FF"/>
</linearGradient>
<linearGradient id="paint1_linear_697_761" x1="192.417" y1="93.3994" x2="-17.0271" y2="103.701" gradientUnits="userSpaceOnUse">
<stop stop-color="#D1ECFF"/>
<stop offset="1" stop-color="#F0F9FF"/>
</linearGradient>
<linearGradient id="paint2_linear_697_761" x1="162.076" y1="107.001" x2="-3.39697" y2="114.812" gradientUnits="userSpaceOnUse">
<stop stop-color="#D1ECFF"/>
<stop offset="1" stop-color="#F0F9FF"/>
</linearGradient>
<linearGradient id="paint3_linear_697_761" x1="1.46171" y1="12.9401" x2="248.234" y2="73.0092" gradientUnits="userSpaceOnUse">
<stop stop-color="#D1ECFF"/>
<stop offset="1" stop-color="#F0F9FF"/>
</linearGradient>
</defs>
</svg>
