<svg width="1496" height="768" fill="none" xmlns="http://www.w3.org/2000/svg"><g filter="url(#a)"><g clip-path="url(#b)"><rect x="2" width="1492" height="762" rx="20" fill="url(#c)"/><rect x="60" y="42" width="80" height="80" rx="40" fill="url(#d)"/><path fill-rule="evenodd" clip-rule="evenodd" d="M116.678 65.322H86.576V58h30.102A7.322 7.322 0 0 1 124 65.32h-7.32v.002h-.002zm.002 2.44h-.002V98.68h.002V106a7.322 7.322 0 0 0 7.32-7.322V68.575h-7.32v-.812zm-2.443 30.916v.002h-.812V106H83.322A7.322 7.322 0 0 1 76 98.678h38.237zM83.322 58v37.424H76V65.322A7.322 7.322 0 0 1 83.322 58z" fill="url(#e)"/><path fill-rule="evenodd" clip-rule="evenodd" d="M98.669 72.644a.7.7 0 0 0-.7.7v5.808H92.16a.7.7 0 0 0-.7.7v3.482a.7.7 0 0 0 .7.7h5.808v5.809a.7.7 0 0 0 .7.7h3.481a.7.7 0 0 0 .7-.7v-5.81h5.809a.7.7 0 0 0 .7-.7v-3.48a.7.7 0 0 0-.7-.7h-5.809v-5.809a.7.7 0 0 0-.7-.7h-3.481z" fill="url(#f)"/><path d="M170.953 66.64v4.61h-2.437v-4.61h2.437zm-.297 25.516v4.203h-2.437v-4.203h2.437zm1.719-5.125c0-.594-.109-1.099-.328-1.515-.208-.417-.552-.787-1.031-1.11-.469-.323-1.105-.635-1.907-.937-1.354-.521-2.547-1.073-3.578-1.656-1.021-.594-1.817-1.329-2.39-2.204-.573-.885-.86-2.005-.86-3.359 0-1.292.308-2.412.922-3.36.615-.947 1.464-1.677 2.547-2.187 1.094-.52 2.365-.781 3.812-.781 1.105 0 2.105.166 3 .5a6.295 6.295 0 0 1 2.313 1.437c.646.625 1.141 1.391 1.484 2.297.344.906.516 1.943.516 3.11h-4.484c0-.625-.068-1.178-.203-1.657-.136-.479-.334-.88-.594-1.203a2.32 2.32 0 0 0-.906-.719 2.72 2.72 0 0 0-1.172-.25c-.636 0-1.157.126-1.563.376a2.22 2.22 0 0 0-.891 1.015c-.177.417-.265.896-.265 1.438 0 .53.094.994.281 1.39.198.396.537.76 1.016 1.094.479.323 1.135.656 1.968 1 1.355.52 2.542 1.083 3.563 1.688 1.021.604 1.818 1.343 2.391 2.218s.859 1.99.859 3.344c0 1.344-.313 2.49-.937 3.438-.626.937-1.5 1.656-2.626 2.156-1.124.49-2.427.734-3.906.734-.958 0-1.911-.125-2.859-.375a7.701 7.701 0 0 1-2.578-1.25c-.771-.573-1.386-1.333-1.844-2.281-.458-.959-.687-2.135-.687-3.531h4.5c0 .76.098 1.395.296 1.906.198.5.459.9.782 1.203.333.292.708.5 1.125.625.416.125.838.188 1.265.188.667 0 1.214-.12 1.641-.36.437-.24.765-.568.984-.984.229-.427.344-.906.344-1.438zm27.999-5.937v1.078c0 1.729-.235 3.281-.703 4.656-.469 1.375-1.131 2.547-1.985 3.516a8.604 8.604 0 0 1-3.062 2.203c-1.177.51-2.485.766-3.922.766-1.427 0-2.734-.256-3.922-.766a8.784 8.784 0 0 1-3.062-2.203c-.865-.969-1.537-2.14-2.016-3.516-.469-1.375-.703-2.927-.703-4.656v-1.078c0-1.74.234-3.292.703-4.656.469-1.376 1.13-2.547 1.984-3.516a8.707 8.707 0 0 1 3.063-2.219c1.187-.51 2.495-.766 3.922-.766 1.437 0 2.744.256 3.922.766a8.519 8.519 0 0 1 3.062 2.219c.865.969 1.531 2.14 2 3.516.479 1.364.719 2.916.719 4.656zm-4.735 1.078v-1.11c0-1.208-.109-2.27-.328-3.187-.218-.917-.541-1.688-.968-2.313-.428-.624-.948-1.093-1.563-1.406-.615-.323-1.318-.484-2.109-.484-.792 0-1.495.161-2.11.484-.604.313-1.12.781-1.547 1.406-.416.626-.734 1.396-.953 2.313-.218.917-.328 1.98-.328 3.188v1.109c0 1.198.11 2.26.328 3.187.219.917.542 1.693.969 2.329.427.624.948 1.099 1.563 1.421.614.323 1.317.485 2.109.485s1.495-.162 2.109-.485c.615-.322 1.13-.796 1.547-1.421.417-.636.735-1.412.953-2.329.219-.927.328-1.99.328-3.187zm17.249 6.078 5.36-18h5.218L215.544 93h-3.437l.781-4.75zm-4.937-18 5.343 18 .813 4.75h-3.469l-7.875-22.75h5.188zm37.436 0V93h-4.688l-9.14-15.25V93h-4.688V70.25h4.688l9.156 15.266V70.25h4.672zm23.935 0V93h-4.672V70.25h4.672zm7 0v3.672h-18.563V70.25h18.563zm22.202 10.844v1.078c0 1.729-.235 3.281-.703 4.656-.469 1.375-1.131 2.547-1.985 3.516a8.604 8.604 0 0 1-3.062 2.203c-1.177.51-2.485.766-3.922.766-1.427 0-2.734-.256-3.922-.766a8.784 8.784 0 0 1-3.062-2.203c-.865-.969-1.537-2.14-2.016-3.516-.469-1.375-.703-2.927-.703-4.656v-1.078c0-1.74.234-3.292.703-4.656.469-1.376 1.13-2.547 1.984-3.516a8.707 8.707 0 0 1 3.063-2.219c1.187-.51 2.495-.766 3.922-.766 1.437 0 2.744.256 3.922.766a8.519 8.519 0 0 1 3.062 2.219c.865.969 1.531 2.14 2 3.516.479 1.364.719 2.916.719 4.656zm-4.735 1.078v-1.11c0-1.208-.109-2.27-.328-3.187-.218-.917-.541-1.688-.968-2.313-.428-.624-.948-1.093-1.563-1.406-.615-.323-1.318-.484-2.109-.484-.792 0-1.495.161-2.11.484-.604.313-1.12.781-1.547 1.406-.416.626-.734 1.396-.953 2.313-.218.917-.328 1.98-.328 3.188v1.109c0 1.198.11 2.26.328 3.187.219.917.542 1.693.969 2.329.427.624.948 1.099 1.563 1.421.614.323 1.317.485 2.109.485s1.495-.162 2.109-.485c.615-.322 1.13-.796 1.547-1.421.417-.636.735-1.412.953-2.329.219-.927.328-1.99.328-3.187zm14.077-11.922V93h-4.687V70.25h4.687zm13.625 0-9.015 11.234-5.203 5.594-.844-4.437 3.515-4.813 5.797-7.578h5.75zM316.163 93l-6.703-10.516 3.469-2.906L321.71 93h-5.547zm23.905-3.656V93h-12.109v-3.656h12.109zM329.49 70.25V93h-4.687V70.25h4.687zm9 9.266v3.562h-10.531v-3.562h10.531zm1.563-9.266v3.672h-12.094V70.25h12.094zm22.545 0V93h-4.687l-9.141-15.25V93h-4.687V70.25h4.687l9.156 15.266V70.25h4.672zm23.857 3.89L380.268 93h-4.985l8.453-22.75h3.172l-.453 3.89zM391.596 93l-6.203-18.86-.5-3.89h3.203l8.5 22.75h-5zm-.282-8.469v3.672h-12.015v-3.672h12.015zm23.296 4.813V93h-11.453v-3.656h11.453zm-9.937-19.094V93h-4.688V70.25h4.688zm28.53 19.094V93h-11.454v-3.656h11.454zm-9.938-19.094V93h-4.687V70.25h4.687zm31.561 10.844v1.078c0 1.729-.234 3.281-.703 4.656-.469 1.375-1.13 2.547-1.984 3.516a8.599 8.599 0 0 1-3.063 2.203c-1.177.51-2.484.766-3.922.766-1.427 0-2.734-.256-3.921-.766a8.787 8.787 0 0 1-3.063-2.203c-.865-.969-1.536-2.14-2.016-3.516-.468-1.375-.703-2.927-.703-4.656v-1.078c0-1.74.235-3.292.703-4.656.469-1.376 1.131-2.547 1.985-3.516a8.694 8.694 0 0 1 3.062-2.219c1.188-.51 2.495-.766 3.922-.766 1.438 0 2.745.256 3.922.766a8.522 8.522 0 0 1 3.063 2.219c.864.969 1.531 2.14 2 3.516.479 1.364.718 2.916.718 4.656zm-4.734 1.078v-1.11c0-1.208-.109-2.27-.328-3.187-.219-.917-.542-1.688-.969-2.313-.427-.624-.948-1.093-1.562-1.406-.615-.323-1.318-.484-2.11-.484-.792 0-1.495.161-2.109.484-.604.313-1.12.781-1.547 1.406-.417.626-.734 1.396-.953 2.313-.219.917-.328 1.98-.328 3.188v1.109c0 1.198.109 2.26.328 3.187.219.917.541 1.693.969 2.329.427.624.947 1.099 1.562 1.421.615.323 1.318.485 2.109.485.792 0 1.495-.162 2.11-.485a4.202 4.202 0 0 0 1.547-1.421c.416-.636.734-1.412.953-2.329.219-.927.328-1.99.328-3.187zm22.577 3.281h4.672c-.094 1.531-.516 2.89-1.266 4.078-.74 1.188-1.776 2.115-3.109 2.781-1.323.667-2.917 1-4.782 1-1.458 0-2.765-.25-3.921-.75a8.34 8.34 0 0 1-2.969-2.187c-.813-.948-1.433-2.094-1.86-3.438-.427-1.343-.64-2.849-.64-4.515v-1.578c0-1.667.219-3.172.656-4.516.448-1.354 1.083-2.505 1.906-3.453a8.497 8.497 0 0 1 2.985-2.188c1.156-.51 2.448-.765 3.875-.765 1.895 0 3.494.344 4.797 1.031 1.312.688 2.328 1.635 3.046 2.844.73 1.208 1.167 2.583 1.313 4.125h-4.688c-.052-.917-.234-1.693-.546-2.328a3.107 3.107 0 0 0-1.422-1.453c-.625-.334-1.459-.5-2.5-.5-.782 0-1.464.145-2.047.437-.584.292-1.073.734-1.469 1.328-.396.594-.693 1.344-.891 2.25-.187.896-.281 1.948-.281 3.156v1.61c0 1.177.089 2.213.266 3.11.177.885.448 1.635.812 2.25a3.779 3.779 0 0 0 1.438 1.374c.594.302 1.307.453 2.14.453.98 0 1.787-.156 2.422-.468a3.232 3.232 0 0 0 1.453-1.391c.344-.615.547-1.38.61-2.297zm18.28-11.312L484.761 93h-4.984l8.453-22.75h3.172l-.453 3.89zM496.089 93l-6.203-18.86-.5-3.89h3.203l8.5 22.75h-5zm-.281-8.469v3.672h-12.015v-3.672h12.015zm16.905-14.281V93h-4.672V70.25h4.672zm7 0v3.672h-18.562V70.25h18.562zm8.936 0V93h-4.671V70.25h4.671zm24.359 10.844v1.078c0 1.729-.235 3.281-.704 4.656-.468 1.375-1.13 2.547-1.984 3.516a8.604 8.604 0 0 1-3.062 2.203c-1.178.51-2.485.766-3.922.766-1.427 0-2.735-.256-3.922-.766a8.796 8.796 0 0 1-3.063-2.203c-.864-.969-1.536-2.14-2.015-3.516-.469-1.375-.703-2.927-.703-4.656v-1.078c0-1.74.234-3.292.703-4.656.468-1.376 1.13-2.547 1.984-3.516a8.698 8.698 0 0 1 3.063-2.219c1.187-.51 2.494-.766 3.921-.766 1.438 0 2.745.256 3.922.766a8.514 8.514 0 0 1 3.063 2.219c.864.969 1.531 2.14 2 3.516.479 1.364.719 2.916.719 4.656zm-4.735 1.078v-1.11c0-1.208-.109-2.27-.328-3.187-.219-.917-.542-1.688-.969-2.313-.427-.624-.948-1.093-1.562-1.406-.615-.323-1.318-.484-2.11-.484-.791 0-1.494.161-2.109.484-.604.313-1.12.781-1.547 1.406-.417.626-.734 1.396-.953 2.313-.219.917-.328 1.98-.328 3.188v1.109c0 1.198.109 2.26.328 3.187.219.917.542 1.693.969 2.329.427.624.948 1.099 1.562 1.421.615.323 1.318.485 2.11.485.791 0 1.494-.162 2.109-.485.615-.322 1.13-.796 1.547-1.421.417-.636.734-1.412.953-2.329.219-.927.328-1.99.328-3.187zm27.905-11.922V93h-4.687l-9.141-15.25V93h-4.687V70.25h4.687l9.156 15.266V70.25h4.672z" fill="#1C95E7"/><path d="M271.996 291.031V294h-18.613v-2.598l9.316-10.371c1.146-1.276 2.031-2.357 2.656-3.242.638-.898 1.081-1.699 1.329-2.402.26-.716.39-1.446.39-2.188 0-.937-.195-1.784-.586-2.539a4.39 4.39 0 0 0-1.679-1.836c-.743-.456-1.641-.683-2.696-.683-1.263 0-2.317.247-3.164.742a4.573 4.573 0 0 0-1.875 2.031c-.416.872-.625 1.875-.625 3.008h-3.613c0-1.602.352-3.067 1.055-4.395.703-1.328 1.744-2.382 3.125-3.164 1.38-.794 3.079-1.191 5.097-1.191 1.797 0 3.334.319 4.61.957 1.276.625 2.252 1.51 2.929 2.656.69 1.133 1.036 2.461 1.036 3.985 0 .833-.144 1.679-.43 2.539a12.937 12.937 0 0 1-1.153 2.539 19.715 19.715 0 0 1-1.699 2.5 38.89 38.89 0 0 1-2.051 2.422l-7.617 8.261h14.258zm8.438-10.566-2.891-.742 1.426-14.161h14.59v3.34h-11.524l-.859 7.735c.521-.3 1.178-.58 1.972-.84.808-.261 1.732-.391 2.774-.391 1.315 0 2.493.228 3.535.684a7.247 7.247 0 0 1 2.656 1.914c.742.833 1.309 1.836 1.699 3.008.391 1.172.586 2.48.586 3.926 0 1.367-.188 2.623-.566 3.769a8.488 8.488 0 0 1-1.66 3.008c-.742.846-1.68 1.504-2.813 1.973-1.119.468-2.441.703-3.964.703-1.146 0-2.234-.157-3.262-.469a8.413 8.413 0 0 1-2.735-1.465 7.937 7.937 0 0 1-1.953-2.461c-.494-.989-.807-2.148-.937-3.476h3.437c.157 1.067.469 1.966.938 2.695a4.6 4.6 0 0 0 1.836 1.66c.768.365 1.66.547 2.676.547.859 0 1.621-.15 2.285-.449.664-.3 1.224-.73 1.679-1.289.456-.56.801-1.237 1.036-2.032.247-.794.371-1.686.371-2.675 0-.899-.124-1.732-.371-2.5a5.725 5.725 0 0 0-1.114-2.012 4.87 4.87 0 0 0-1.777-1.328c-.703-.326-1.511-.489-2.422-.489-1.211 0-2.129.163-2.754.489-.612.325-1.243.768-1.894 1.328zm17.617-7.93v-1.504c0-1.08.234-2.064.703-2.949a5.45 5.45 0 0 1 2.012-2.129c.872-.534 1.907-.801 3.105-.801 1.224 0 2.266.267 3.125.801a5.456 5.456 0 0 1 2.012 2.129c.469.885.703 1.869.703 2.949v1.504a6.117 6.117 0 0 1-.703 2.91 5.308 5.308 0 0 1-1.992 2.129c-.86.534-1.895.801-3.106.801-1.211 0-2.259-.267-3.144-.801a5.443 5.443 0 0 1-2.012-2.129 6.117 6.117 0 0 1-.703-2.91zm2.715-1.504v1.504c0 .599.11 1.166.332 1.699.234.534.586.97 1.054 1.309.469.325 1.055.488 1.758.488.703 0 1.283-.163 1.738-.488a3.056 3.056 0 0 0 1.016-1.309c.221-.533.332-1.1.332-1.699v-1.504c0-.612-.117-1.185-.351-1.719a2.867 2.867 0 0 0-1.036-1.308c-.455-.339-1.035-.508-1.738-.508-.69 0-1.269.169-1.738.508a3.037 3.037 0 0 0-1.035 1.308 4.432 4.432 0 0 0-.332 1.719zm11.132 17.52v-1.524c0-1.067.235-2.044.704-2.929a5.44 5.44 0 0 1 2.011-2.129c.873-.534 1.908-.801 3.106-.801 1.224 0 2.265.267 3.125.801a5.44 5.44 0 0 1 2.011 2.129c.469.885.704 1.862.704 2.929v1.524c0 1.067-.235 2.044-.704 2.929a5.288 5.288 0 0 1-1.992 2.129c-.859.534-1.894.801-3.105.801s-2.253-.267-3.125-.801a5.572 5.572 0 0 1-2.031-2.129c-.469-.885-.704-1.862-.704-2.929zm2.715-1.524v1.524c0 .599.111 1.172.332 1.719.235.533.586.97 1.055 1.308.469.326 1.055.488 1.758.488.703 0 1.282-.162 1.738-.488a2.999 2.999 0 0 0 1.035-1.308 4.432 4.432 0 0 0 .332-1.719v-1.524c0-.612-.117-1.185-.351-1.718a2.883 2.883 0 0 0-1.035-1.289c-.456-.339-1.042-.508-1.758-.508-.69 0-1.27.169-1.739.508-.455.325-.8.755-1.035 1.289a4.442 4.442 0 0 0-.332 1.718zm4.004-17.422-13.887 22.227-2.031-1.289 13.887-22.227 2.031 1.289z" fill="#22ABAC"/><path d="M337.571 279.781V294h-1.855v-14.219h1.855zm4.571 0v1.543h-10.987v-1.543h10.987zm2.909 0h4.707c1.068 0 1.97.163 2.705.489.742.325 1.306.807 1.69 1.445.39.631.586 1.409.586 2.334 0 .651-.134 1.247-.401 1.787a3.79 3.79 0 0 1-1.133 1.367c-.488.371-1.074.648-1.757.83l-.528.205h-4.424l-.019-1.533h3.34c.677 0 1.24-.117 1.689-.351a2.48 2.48 0 0 0 1.016-.967c.228-.404.342-.85.342-1.338 0-.547-.108-1.026-.323-1.436-.214-.41-.553-.726-1.015-.947-.456-.228-1.045-.342-1.768-.342h-2.822V294h-1.885v-14.219zM353.362 294l-3.457-6.445 1.963-.01 3.505 6.338V294h-2.011zm13.847-1.533V294h-7.53v-1.533h7.53zm-7.149-12.686V294h-1.885v-14.219h1.885zm6.153 6.114v1.533h-6.534v-1.533h6.534zm.898-6.114v1.543h-7.432v-1.543h7.432zm8.495 1.26L370.899 294h-1.924l5.42-14.219h1.241l-.03 1.26zM379.552 294l-4.717-12.959-.03-1.26h1.241L381.485 294h-1.933zm-.245-5.264v1.543h-7.988v-1.543h7.988zm12.461 1.67c0-.332-.053-.625-.157-.879a1.673 1.673 0 0 0-.527-.703c-.247-.208-.592-.407-1.035-.595-.436-.189-.99-.381-1.66-.577a15.257 15.257 0 0 1-1.905-.693 6.657 6.657 0 0 1-1.455-.889 3.507 3.507 0 0 1-.927-1.142c-.215-.43-.323-.921-.323-1.475 0-.553.114-1.064.342-1.533.228-.469.553-.876.977-1.221.429-.351.94-.625 1.533-.82a6.314 6.314 0 0 1 1.982-.293c1.068 0 1.973.205 2.715.615.749.404 1.318.934 1.709 1.592.391.651.586 1.348.586 2.09h-1.875c0-.534-.114-1.006-.342-1.416a2.358 2.358 0 0 0-1.035-.977c-.462-.241-1.048-.361-1.758-.361-.67 0-1.224.101-1.66.303-.436.201-.762.475-.976.82a2.235 2.235 0 0 0-.313 1.182c0 .299.062.573.186.82.13.241.328.465.595.674.274.208.619.4 1.035.576.424.176.928.345 1.514.508.807.228 1.504.481 2.09.761.586.28 1.068.596 1.445.948.384.345.668.739.85 1.181.189.437.283.931.283 1.485 0 .579-.117 1.103-.351 1.572-.235.469-.57.869-1.006 1.201a4.886 4.886 0 0 1-1.573.772 7.302 7.302 0 0 1-2.031.263 7.051 7.051 0 0 1-1.943-.273 5.797 5.797 0 0 1-1.729-.82 4.312 4.312 0 0 1-1.24-1.348c-.306-.54-.459-1.165-.459-1.875h1.875c0 .488.094.908.283 1.26.189.345.446.631.772.859a3.6 3.6 0 0 0 1.123.508c.423.104.862.156 1.318.156.658 0 1.214-.091 1.67-.273.456-.183.801-.443 1.035-.782.241-.338.362-.739.362-1.201zm13.231-10.625h1.875v9.619c0 1.068-.237 1.957-.713 2.666a4.444 4.444 0 0 1-1.894 1.602 6.131 6.131 0 0 1-2.549.527c-.964 0-1.836-.175-2.617-.527a4.282 4.282 0 0 1-1.846-1.602c-.449-.709-.674-1.598-.674-2.666v-9.619h1.865v9.619c0 .743.137 1.355.411 1.836.273.482.654.84 1.142 1.075.495.234 1.068.351 1.719.351.658 0 1.23-.117 1.719-.351a2.555 2.555 0 0 0 1.152-1.075c.274-.481.41-1.093.41-1.836v-9.619zm5.634 0h4.707c1.068 0 1.97.163 2.705.489.743.325 1.306.807 1.69 1.445.39.631.586 1.409.586 2.334 0 .651-.134 1.247-.401 1.787-.26.534-.638.99-1.132 1.367-.489.371-1.075.648-1.758.83l-.528.205h-4.423l-.02-1.533h3.34c.677 0 1.24-.117 1.689-.351.45-.241.788-.564 1.016-.967.228-.404.342-.85.342-1.338 0-.547-.108-1.026-.323-1.436-.214-.41-.553-.726-1.015-.947-.456-.228-1.045-.342-1.768-.342h-2.822V294h-1.885v-14.219zM418.944 294l-3.457-6.445 1.963-.01 3.505 6.338V294h-2.011zm4.999-14.219 3.691 7.139 3.702-7.139h2.138l-4.902 8.907V294h-1.885v-5.312l-4.902-8.907h2.158z" fill="#29323E"/><path stroke="#22ABAC" d="M510 304.5H251"/><path d="M1127.6 246.406V275h-3.62v-24.082l-7.28 2.656v-3.262l10.33-3.906h.57zm25.47 20.899c0 1.731-.41 3.203-1.21 4.414-.8 1.198-1.88 2.109-3.25 2.734-1.35.625-2.88.938-4.59.938-1.7 0-3.24-.313-4.61-.938-1.36-.625-2.44-1.536-3.24-2.734-.79-1.211-1.19-2.683-1.19-4.414 0-1.133.22-2.168.64-3.106a7.702 7.702 0 0 1 1.86-2.48 8.572 8.572 0 0 1 2.85-1.621c1.11-.391 2.33-.586 3.65-.586 1.75 0 3.31.338 4.67 1.015 1.37.664 2.44 1.582 3.23 2.754s1.19 2.513 1.19 4.024zm-3.64-.078c0-1.055-.22-1.986-.68-2.793a4.844 4.844 0 0 0-1.91-1.914c-.82-.456-1.77-.684-2.86-.684-1.1 0-2.06.228-2.87.684a4.762 4.762 0 0 0-1.85 1.914c-.44.807-.67 1.738-.67 2.793 0 1.093.22 2.031.65 2.812a4.503 4.503 0 0 0 1.87 1.777c.82.404 1.79.606 2.91.606s2.09-.202 2.89-.606a4.363 4.363 0 0 0 1.86-1.777c.44-.781.66-1.719.66-2.812zm2.97-13.262c0 1.38-.36 2.624-1.09 3.73-.73 1.107-1.73 1.979-2.99 2.617-1.26.639-2.7.958-4.3.958-1.62 0-3.08-.319-4.35-.958-1.27-.638-2.25-1.51-2.97-2.617-.72-1.106-1.08-2.35-1.08-3.73 0-1.654.36-3.06 1.08-4.219a7.09 7.09 0 0 1 2.99-2.656c1.26-.612 2.7-.918 4.31-.918 1.63 0 3.08.306 4.34.918 1.26.612 2.25 1.497 2.97 2.656.73 1.159 1.09 2.565 1.09 4.219zm-3.61.058c0-.95-.2-1.79-.61-2.519a4.393 4.393 0 0 0-1.68-1.719c-.71-.43-1.55-.644-2.5-.644s-1.78.201-2.5.605c-.7.391-1.25.951-1.66 1.68-.39.729-.58 1.595-.58 2.597 0 .977.19 1.83.58 2.559.41.729.97 1.296 1.68 1.699.72.404 1.55.606 2.5.606s1.78-.202 2.48-.606c.72-.403 1.28-.97 1.68-1.699.41-.729.61-1.582.61-2.559zm8.92-.488v-1.504c0-1.08.24-2.064.71-2.949a5.473 5.473 0 0 1 2.01-2.129c.87-.534 1.91-.801 3.11-.801 1.22 0 2.26.267 3.12.801a5.473 5.473 0 0 1 2.01 2.129c.47.885.71 1.869.71 2.949v1.504a6.11 6.11 0 0 1-.71 2.91c-.45.886-1.12 1.595-1.99 2.129-.86.534-1.89.801-3.11.801-1.21 0-2.25-.267-3.14-.801a5.466 5.466 0 0 1-2.01-2.129 6.11 6.11 0 0 1-.71-2.91zm2.72-1.504v1.504c0 .599.11 1.166.33 1.699.24.534.59.97 1.06 1.309.47.325 1.05.488 1.75.488.71 0 1.29-.163 1.74-.488.46-.339.8-.775 1.02-1.309.22-.533.33-1.1.33-1.699v-1.504c0-.612-.12-1.185-.35-1.719a2.856 2.856 0 0 0-1.04-1.308c-.45-.339-1.03-.508-1.73-.508-.69 0-1.27.169-1.74.508-.46.325-.8.762-1.04 1.308a4.468 4.468 0 0 0-.33 1.719zm11.13 17.52v-1.524c0-1.067.24-2.044.71-2.929a5.326 5.326 0 0 1 2.01-2.129c.87-.534 1.9-.801 3.1-.801 1.23 0 2.27.267 3.13.801a5.466 5.466 0 0 1 2.01 2.129c.47.885.7 1.862.7 2.929v1.524c0 1.067-.23 2.044-.7 2.929a5.338 5.338 0 0 1-1.99 2.129c-.86.534-1.9.801-3.11.801s-2.25-.267-3.12-.801a5.51 5.51 0 0 1-2.03-2.129 6.152 6.152 0 0 1-.71-2.929zm2.72-1.524v1.524c0 .599.11 1.172.33 1.719.23.533.59.97 1.05 1.308.47.326 1.06.488 1.76.488s1.28-.162 1.74-.488c.47-.338.81-.775 1.04-1.308.22-.534.33-1.107.33-1.719v-1.524c0-.612-.12-1.185-.35-1.718a2.935 2.935 0 0 0-1.04-1.289c-.46-.339-1.04-.508-1.76-.508-.69 0-1.27.169-1.74.508-.45.325-.8.755-1.03 1.289a4.46 4.46 0 0 0-.33 1.718zm4-17.422-13.89 22.227-2.03-1.289 13.89-22.227 2.03 1.289z" fill="#CF3F92"/><path d="M1204.11 271.406c0-.332-.05-.625-.15-.879-.1-.26-.28-.494-.53-.703-.25-.208-.59-.407-1.04-.595a14.14 14.14 0 0 0-1.66-.577c-.7-.208-1.34-.439-1.9-.693a6.745 6.745 0 0 1-1.46-.889 3.47 3.47 0 0 1-.92-1.142c-.22-.43-.33-.921-.33-1.475 0-.553.12-1.064.34-1.533.23-.469.56-.876.98-1.221a4.75 4.75 0 0 1 1.53-.82c.6-.195 1.26-.293 1.99-.293 1.06 0 1.97.205 2.71.615.75.404 1.32.934 1.71 1.592.39.651.59 1.348.59 2.09h-1.88c0-.534-.11-1.006-.34-1.416a2.34 2.34 0 0 0-1.04-.977c-.46-.241-1.04-.361-1.75-.361-.67 0-1.23.101-1.66.303-.44.201-.76.475-.98.82-.21.345-.31.739-.31 1.182 0 .299.06.573.18.82.13.241.33.465.6.674.27.208.62.4 1.03.576.43.176.93.345 1.52.508.81.228 1.5.481 2.09.761.58.28 1.07.596 1.44.948.39.345.67.739.85 1.181.19.437.29.931.29 1.485a3.418 3.418 0 0 1-1.36 2.773 4.92 4.92 0 0 1-1.57.772c-.61.175-1.29.263-2.04.263-.65 0-1.3-.091-1.94-.273a5.814 5.814 0 0 1-1.73-.82 4.446 4.446 0 0 1-1.24-1.348c-.3-.54-.46-1.165-.46-1.875h1.88c0 .488.09.908.28 1.26.19.345.45.631.77.859.34.228.71.397 1.13.508.42.104.86.156 1.31.156.66 0 1.22-.091 1.67-.273.46-.183.81-.443 1.04-.782.24-.338.36-.739.36-1.201zm14.13 2.061V275h-7.53v-1.533h7.53zm-7.15-12.686V275h-1.88v-14.219h1.88zm6.16 6.114v1.533h-6.54v-1.533h6.54zm.89-6.114v1.543h-7.43v-1.543h7.43zm12.27 12.686V275h-7.53v-1.533h7.53zm-7.15-12.686V275h-1.88v-14.219h1.88zm6.15 6.114v1.533h-6.53v-1.533h6.53zm.9-6.114v1.543h-7.43v-1.543h7.43zm7.08 14.219h-2.97l.02-1.533h2.95c1.02 0 1.86-.212 2.54-.635.68-.43 1.18-1.029 1.52-1.797.35-.775.52-1.68.52-2.715v-.869c0-.814-.1-1.536-.29-2.168-.2-.638-.48-1.175-.86-1.611a3.635 3.635 0 0 0-1.39-1.006c-.54-.228-1.16-.342-1.86-.342h-3.21v-1.543h3.21c.93 0 1.78.157 2.54.469a5.55 5.55 0 0 1 1.99 1.338c.56.579.99 1.282 1.29 2.109.3.821.45 1.745.45 2.774v.849c0 1.029-.15 1.957-.45 2.784-.3.82-.74 1.52-1.3 2.099a5.689 5.689 0 0 1-2.03 1.338c-.79.306-1.68.459-2.67.459zm-1.96-14.219V275h-1.89v-14.219h1.89zm19.82 0V275h-1.88v-14.219h1.88zm15.17 0V275h-1.9l-7.16-10.967V275h-1.88v-14.219h1.88l7.19 10.996v-10.996h1.87zm8.72 12.061 4.19-12.061h2.05L1280.11 275h-1.45l.48-2.158zm-3.91-12.061 4.15 12.061.52 2.158h-1.46l-5.25-14.219h2.04zm21.89 12.686V275h-7.53v-1.533h7.53zm-7.15-12.686V275h-1.88v-14.219h1.88zm6.16 6.114v1.533h-6.54v-1.533h6.54zm.89-6.114v1.543h-7.43v-1.543h7.43zm10.81 10.625c0-.332-.05-.625-.15-.879-.1-.26-.27-.494-.53-.703-.25-.208-.59-.407-1.03-.595-.44-.189-.99-.381-1.66-.577-.71-.208-1.34-.439-1.91-.693a6.664 6.664 0 0 1-1.45-.889 3.38 3.38 0 0 1-.93-1.142c-.22-.43-.32-.921-.32-1.475 0-.553.11-1.064.34-1.533.23-.469.55-.876.97-1.221.43-.351.95-.625 1.54-.82.59-.195 1.25-.293 1.98-.293 1.07 0 1.97.205 2.72.615.74.404 1.31.934 1.7 1.592.39.651.59 1.348.59 2.09h-1.87c0-.534-.12-1.006-.35-1.416-.22-.417-.57-.742-1.03-.977-.46-.241-1.05-.361-1.76-.361-.67 0-1.22.101-1.66.303-.44.201-.76.475-.98.82-.2.345-.31.739-.31 1.182 0 .299.06.573.19.82.13.241.33.465.59.674.28.208.62.4 1.04.576.42.176.93.345 1.51.508.81.228 1.51.481 2.09.761.59.28 1.07.596 1.45.948.38.345.66.739.85 1.181.18.437.28.931.28 1.485 0 .579-.12 1.103-.35 1.572-.24.469-.57.869-1.01 1.201-.43.332-.96.589-1.57.772-.61.175-1.28.263-2.03.263-.66 0-1.31-.091-1.95-.273a5.758 5.758 0 0 1-1.72-.82 4.208 4.208 0 0 1-1.24-1.348c-.31-.54-.46-1.165-.46-1.875h1.87c0 .488.1.908.29 1.26.18.345.44.631.77.859.33.228.7.397 1.12.508.42.104.86.156 1.32.156.66 0 1.21-.091 1.67-.273.45-.183.8-.443 1.03-.782.24-.338.36-.739.36-1.201zm10.36-10.625V275h-1.86v-14.219h1.86zm4.57 0v1.543h-10.99v-1.543h10.99zm13.58 6.66v.899c0 1.068-.13 2.025-.4 2.871-.27.846-.65 1.566-1.15 2.158a5.026 5.026 0 0 1-1.81 1.358c-.7.312-1.48.468-2.34.468-.84 0-1.62-.156-2.32-.468-.7-.313-1.3-.765-1.81-1.358-.51-.592-.91-1.312-1.19-2.158-.28-.846-.42-1.803-.42-2.871v-.899c0-1.067.14-2.021.41-2.861.28-.846.68-1.566 1.19-2.158a5.022 5.022 0 0 1 1.8-1.367 5.676 5.676 0 0 1 2.32-.469c.86 0 1.64.156 2.34.469.7.312 1.31.768 1.81 1.367.5.592.89 1.312 1.16 2.158.27.84.41 1.794.41 2.861zm-1.87.899v-.918c0-.846-.08-1.595-.26-2.246-.17-.651-.42-1.198-.75-1.641a3.238 3.238 0 0 0-1.22-1.006c-.48-.228-1.02-.341-1.62-.341-.59 0-1.12.113-1.6.341-.46.228-.87.563-1.21 1.006-.33.443-.59.99-.77 1.641-.18.651-.27 1.4-.27 2.246v.918c0 .853.09 1.608.27 2.265.18.652.44 1.202.78 1.651.35.443.76.778 1.22 1.006.48.228 1.01.342 1.6.342.61 0 1.15-.114 1.63-.342.47-.228.87-.563 1.2-1.006.33-.449.58-.999.75-1.651.17-.657.25-1.412.25-2.265zm5.49-7.559h4.71c1.07 0 1.97.163 2.7.489.75.325 1.31.807 1.69 1.445.39.631.59 1.409.59 2.334 0 .651-.13 1.247-.4 1.787-.26.534-.64.99-1.13 1.367-.49.371-1.08.648-1.76.83l-.53.205h-4.42l-.02-1.533h3.34c.67 0 1.24-.117 1.69-.351a2.47 2.47 0 0 0 1.01-.967c.23-.404.34-.85.34-1.338 0-.547-.1-1.026-.32-1.436-.21-.41-.55-.726-1.01-.947-.46-.228-1.05-.342-1.77-.342h-2.82V275h-1.89v-14.219zm8.31 14.219-3.46-6.445 1.97-.01 3.5 6.338V275h-2.01zm12.39-3.594c0-.332-.05-.625-.15-.879-.1-.26-.28-.494-.53-.703-.25-.208-.59-.407-1.04-.595-.43-.189-.98-.381-1.66-.577-.7-.208-1.33-.439-1.9-.693a6.432 6.432 0 0 1-1.45-.889 3.38 3.38 0 0 1-.93-1.142c-.22-.43-.32-.921-.32-1.475 0-.553.11-1.064.34-1.533.23-.469.55-.876.97-1.221.43-.351.94-.625 1.54-.82.59-.195 1.25-.293 1.98-.293 1.07 0 1.97.205 2.71.615.75.404 1.32.934 1.71 1.592.39.651.59 1.348.59 2.09h-1.88c0-.534-.11-1.006-.34-1.416a2.367 2.367 0 0 0-1.03-.977c-.47-.241-1.05-.361-1.76-.361-.67 0-1.22.101-1.66.303-.44.201-.76.475-.98.82-.21.345-.31.739-.31 1.182 0 .299.06.573.19.82.13.241.32.465.59.674.27.208.62.4 1.04.576.42.176.92.345 1.51.508.81.228 1.5.481 2.09.761.59.28 1.07.596 1.45.948.38.345.66.739.84 1.181.19.437.29.931.29 1.485 0 .579-.12 1.103-.35 1.572-.24.469-.57.869-1.01 1.201a4.92 4.92 0 0 1-1.57.772c-.61.175-1.28.263-2.03.263-.66 0-1.31-.091-1.95-.273a5.758 5.758 0 0 1-1.72-.82 4.208 4.208 0 0 1-1.24-1.348c-.31-.54-.46-1.165-.46-1.875h1.87c0 .488.1.908.28 1.26.19.345.45.631.78.859.33.228.7.397 1.12.508.42.104.86.156 1.32.156.65 0 1.21-.091 1.67-.273.45-.183.8-.443 1.03-.782.24-.338.36-.739.36-1.201zm-238.75 14.635-4.7 12.959h-1.93l5.42-14.219h1.24l-.03 1.26zm3.95 12.959-4.72-12.959-.03-1.26h1.24l5.44 14.219h-1.93zm-.24-5.264v1.543h-7.99v-1.543h7.99zm15.81-8.955V299h-1.89l-7.16-10.967V299h-1.88v-14.219h1.88l7.19 10.996v-10.996h1.86zm7.99 14.219h-2.97l.02-1.533h2.95c1.02 0 1.86-.212 2.54-.635a3.894 3.894 0 0 0 1.52-1.797c.35-.775.52-1.68.52-2.715v-.869c0-.814-.1-1.536-.29-2.168-.2-.638-.48-1.175-.86-1.611a3.635 3.635 0 0 0-1.39-1.006c-.54-.228-1.16-.342-1.86-.342h-3.21v-1.543h3.21c.93 0 1.78.157 2.55.469.77.306 1.43.752 1.98 1.338.56.579.99 1.282 1.29 2.109.3.821.45 1.745.45 2.774v.849c0 1.029-.15 1.957-.45 2.784-.3.82-.73 1.52-1.3 2.099a5.689 5.689 0 0 1-2.03 1.338c-.79.306-1.68.459-2.67.459zm-1.96-14.219V299h-1.89v-14.219h1.89zm23.06 1.26-4.7 12.959h-1.93l5.42-14.219h1.24l-.03 1.26zm3.95 12.959-4.72-12.959-.03-1.26h1.24L1176.4 299h-1.93zm-.24-5.264v1.543h-7.99v-1.543h7.99zm8.73 5.264h-2.97l.02-1.533h2.95c1.01 0 1.86-.212 2.53-.635a3.973 3.973 0 0 0 1.53-1.797c.34-.775.52-1.68.52-2.715v-.869c0-.814-.1-1.536-.3-2.168a4.275 4.275 0 0 0-.86-1.611 3.6 3.6 0 0 0-1.38-1.006c-.54-.228-1.17-.342-1.87-.342h-3.2v-1.543h3.2c.93 0 1.78.157 2.55.469.77.306 1.43.752 1.98 1.338.56.579.99 1.282 1.29 2.109.3.821.45 1.745.45 2.774v.849c0 1.029-.15 1.957-.45 2.784-.3.82-.73 1.52-1.3 2.099a5.602 5.602 0 0 1-2.03 1.338c-.79.306-1.68.459-2.66.459zm-1.97-14.219V299h-1.88v-14.219h1.88zm16.42 12.061 4.19-12.061h2.04L1198.37 299h-1.45l.49-2.158zm-3.92-12.061 4.15 12.061.52 2.158h-1.46l-5.25-14.219h2.04zm14.88 0V299h-1.88v-14.219h1.88zm11.81 10.625c0-.332-.05-.625-.16-.879-.09-.26-.27-.494-.52-.703-.25-.208-.6-.407-1.04-.595-.44-.189-.99-.381-1.66-.577-.7-.208-1.34-.439-1.9-.693a6.51 6.51 0 0 1-1.46-.889c-.4-.332-.71-.713-.93-1.142-.21-.43-.32-.921-.32-1.475 0-.553.11-1.064.34-1.533.23-.469.56-.876.98-1.221a4.75 4.75 0 0 1 1.53-.82c.6-.195 1.26-.293 1.99-.293 1.06 0 1.97.205 2.71.615.75.404 1.32.934 1.71 1.592.39.651.58 1.348.58 2.09h-1.87c0-.534-.11-1.006-.34-1.416a2.34 2.34 0 0 0-1.04-.977c-.46-.241-1.05-.361-1.75-.361-.68 0-1.23.101-1.67.303-.43.201-.76.475-.97.82-.21.345-.31.739-.31 1.182 0 .299.06.573.18.82.13.241.33.465.6.674.27.208.62.4 1.03.576.43.176.93.345 1.52.508.8.228 1.5.481 2.09.761.58.28 1.06.596 1.44.948.39.345.67.739.85 1.181.19.437.28.931.28 1.485 0 .579-.11 1.103-.35 1.572-.23.469-.57.869-1 1.201-.44.332-.96.589-1.58.772-.6.175-1.28.263-2.03.263-.65 0-1.3-.091-1.94-.273a5.814 5.814 0 0 1-1.73-.82 4.323 4.323 0 0 1-1.24-1.348c-.31-.54-.46-1.165-.46-1.875h1.88c0 .488.09.908.28 1.26.19.345.45.631.77.859.33.228.71.397 1.12.508.43.104.87.156 1.32.156.66 0 1.22-.091 1.67-.273.46-.183.8-.443 1.04-.782.24-.338.36-.739.36-1.201zm16.04-3.965v.899c0 1.068-.13 2.025-.4 2.871-.26.846-.65 1.566-1.15 2.158-.5.593-1.1 1.045-1.81 1.358-.69.312-1.47.468-2.34.468a5.61 5.61 0 0 1-2.31-.468 5.148 5.148 0 0 1-1.82-1.358c-.51-.592-.9-1.312-1.18-2.158-.28-.846-.42-1.803-.42-2.871v-.899c0-1.067.13-2.021.41-2.861.28-.846.67-1.566 1.18-2.158a5.056 5.056 0 0 1 1.81-1.367c.7-.313 1.47-.469 2.31-.469.87 0 1.65.156 2.34.469a4.89 4.89 0 0 1 1.81 1.367c.51.592.9 1.312 1.16 2.158.28.84.41 1.794.41 2.861zm-1.86.899v-.918c0-.846-.09-1.595-.27-2.246a4.536 4.536 0 0 0-.75-1.641 3.238 3.238 0 0 0-1.22-1.006c-.47-.228-1.01-.341-1.62-.341-.59 0-1.12.113-1.59.341-.47.228-.87.563-1.21 1.006-.33.443-.59.99-.77 1.641-.19.651-.28 1.4-.28 2.246v.918c0 .853.09 1.608.28 2.265.18.652.44 1.202.78 1.651.34.443.75.778 1.22 1.006.47.228 1 .342 1.59.342.61 0 1.16-.114 1.63-.342.48-.228.88-.563 1.2-1.006.33-.449.59-.999.75-1.651.17-.657.26-1.412.26-2.265zm5.49-7.559h4.7c1.07 0 1.97.163 2.71.489.74.325 1.3.807 1.69 1.445.39.631.58 1.409.58 2.334 0 .651-.13 1.247-.4 1.787-.26.534-.64.99-1.13 1.367-.49.371-1.07.648-1.76.83l-.53.205h-4.42l-.02-1.533h3.34c.68 0 1.24-.117 1.69-.351.45-.241.79-.564 1.02-.967.22-.404.34-.85.34-1.338 0-.547-.11-1.026-.32-1.436-.22-.41-.56-.726-1.02-.947-.46-.228-1.04-.342-1.77-.342h-2.82V299h-1.88v-14.219zm8.31 14.219-3.46-6.445 1.96-.01 3.51 6.338V299h-2.01zm12.39-3.594c0-.332-.05-.625-.16-.879-.1-.26-.27-.494-.53-.703-.24-.208-.59-.407-1.03-.595-.44-.189-.99-.381-1.66-.577-.7-.208-1.34-.439-1.91-.693a6.664 6.664 0 0 1-1.45-.889c-.4-.332-.71-.713-.93-1.142-.21-.43-.32-.921-.32-1.475 0-.553.11-1.064.34-1.533.23-.469.55-.876.98-1.221a4.75 4.75 0 0 1 1.53-.82c.59-.195 1.25-.293 1.98-.293 1.07 0 1.98.205 2.72.615.75.404 1.32.934 1.71 1.592.39.651.58 1.348.58 2.09h-1.87c0-.534-.12-1.006-.34-1.416-.23-.417-.58-.742-1.04-.977-.46-.241-1.05-.361-1.76-.361-.67 0-1.22.101-1.66.303-.43.201-.76.475-.97.82a2.23 2.23 0 0 0-.32 1.182c0 .299.07.573.19.82.13.241.33.465.6.674.27.208.61.4 1.03.576.42.176.93.345 1.51.508.81.228 1.51.481 2.09.761.59.28 1.07.596 1.45.948.38.345.67.739.85 1.181.19.437.28.931.28 1.485 0 .579-.11 1.103-.35 1.572-.23.469-.57.869-1 1.201-.44.332-.97.589-1.58.772-.6.175-1.28.263-2.03.263-.66 0-1.3-.091-1.94-.273a5.814 5.814 0 0 1-1.73-.82 4.323 4.323 0 0 1-1.24-1.348c-.31-.54-.46-1.165-.46-1.875h1.88c0 .488.09.908.28 1.26.19.345.44.631.77.859.33.228.71.397 1.12.508.43.104.87.156 1.32.156.66 0 1.22-.091 1.67-.273.46-.183.8-.443 1.04-.782.24-.338.36-.739.36-1.201z" fill="#29323E"/><path stroke="#CF3F92" d="M1041 309.5h323"/><path d="M270.996 531.031V534h-18.613v-2.598l9.316-10.371c1.146-1.276 2.031-2.357 2.656-3.242.638-.898 1.081-1.699 1.329-2.402.26-.716.39-1.446.39-2.188 0-.937-.195-1.784-.586-2.539a4.39 4.39 0 0 0-1.679-1.836c-.743-.456-1.641-.683-2.696-.683-1.263 0-2.317.247-3.164.742a4.573 4.573 0 0 0-1.875 2.031c-.416.872-.625 1.875-.625 3.008h-3.613c0-1.602.352-3.067 1.055-4.395.703-1.328 1.744-2.382 3.125-3.164 1.38-.794 3.079-1.191 5.097-1.191 1.797 0 3.334.319 4.61.957 1.276.625 2.252 1.51 2.929 2.656.69 1.133 1.036 2.461 1.036 3.985 0 .833-.144 1.679-.43 2.539a12.937 12.937 0 0 1-1.153 2.539 19.715 19.715 0 0 1-1.699 2.5 38.89 38.89 0 0 1-2.051 2.422l-7.617 8.261h14.258zm8.438-10.566-2.891-.742 1.426-14.161h14.59v3.34h-11.524l-.859 7.735c.521-.3 1.178-.58 1.972-.84.808-.261 1.732-.391 2.774-.391 1.315 0 2.493.228 3.535.684a7.247 7.247 0 0 1 2.656 1.914c.742.833 1.309 1.836 1.699 3.008.391 1.172.586 2.48.586 3.926 0 1.367-.188 2.623-.566 3.769a8.488 8.488 0 0 1-1.66 3.008c-.742.846-1.68 1.504-2.813 1.973-1.119.468-2.441.703-3.964.703-1.146 0-2.234-.157-3.262-.469a8.413 8.413 0 0 1-2.735-1.465 7.937 7.937 0 0 1-1.953-2.461c-.494-.989-.807-2.148-.937-3.476h3.437c.157 1.067.469 1.966.938 2.695a4.6 4.6 0 0 0 1.836 1.66c.768.365 1.66.547 2.676.547.859 0 1.621-.15 2.285-.449.664-.3 1.224-.73 1.679-1.289.456-.56.801-1.237 1.036-2.032.247-.794.371-1.686.371-2.675 0-.899-.124-1.732-.371-2.5a5.725 5.725 0 0 0-1.114-2.012 4.87 4.87 0 0 0-1.777-1.328c-.703-.326-1.511-.489-2.422-.489-1.211 0-2.129.163-2.754.489-.612.325-1.243.768-1.894 1.328zm17.617-7.93v-1.504c0-1.08.234-2.064.703-2.949a5.45 5.45 0 0 1 2.012-2.129c.872-.534 1.907-.801 3.105-.801 1.224 0 2.266.267 3.125.801a5.456 5.456 0 0 1 2.012 2.129c.469.885.703 1.869.703 2.949v1.504a6.117 6.117 0 0 1-.703 2.91 5.308 5.308 0 0 1-1.992 2.129c-.86.534-1.895.801-3.106.801-1.211 0-2.259-.267-3.144-.801a5.443 5.443 0 0 1-2.012-2.129 6.117 6.117 0 0 1-.703-2.91zm2.715-1.504v1.504c0 .599.11 1.166.332 1.699.234.534.586.97 1.054 1.309.469.325 1.055.488 1.758.488.703 0 1.283-.163 1.738-.488a3.056 3.056 0 0 0 1.016-1.309c.221-.533.332-1.1.332-1.699v-1.504c0-.612-.117-1.185-.351-1.719a2.867 2.867 0 0 0-1.036-1.308c-.455-.339-1.035-.508-1.738-.508-.69 0-1.269.169-1.738.508a3.037 3.037 0 0 0-1.035 1.308 4.432 4.432 0 0 0-.332 1.719zm11.132 17.52v-1.524c0-1.067.235-2.044.704-2.929a5.44 5.44 0 0 1 2.011-2.129c.873-.534 1.908-.801 3.106-.801 1.224 0 2.265.267 3.125.801a5.44 5.44 0 0 1 2.011 2.129c.469.885.704 1.862.704 2.929v1.524c0 1.067-.235 2.044-.704 2.929a5.288 5.288 0 0 1-1.992 2.129c-.859.534-1.894.801-3.105.801s-2.253-.267-3.125-.801a5.572 5.572 0 0 1-2.031-2.129c-.469-.885-.704-1.862-.704-2.929zm2.715-1.524v1.524c0 .599.111 1.172.332 1.719.235.533.586.97 1.055 1.308.469.326 1.055.488 1.758.488.703 0 1.282-.162 1.738-.488a2.999 2.999 0 0 0 1.035-1.308 4.432 4.432 0 0 0 .332-1.719v-1.524c0-.612-.117-1.185-.351-1.718a2.883 2.883 0 0 0-1.035-1.289c-.456-.339-1.042-.508-1.758-.508-.69 0-1.27.169-1.739.508-.455.325-.8.755-1.035 1.289a4.442 4.442 0 0 0-.332 1.718zm4.004-17.422-13.887 22.227-2.031-1.289 13.887-22.227 2.031 1.289z" fill="#FE7F2D"/><path d="M337.891 519.781V534h-1.885v-14.219h1.885zm15.165 0V534h-1.895l-7.158-10.967V534h-1.885v-14.219h1.885l7.188 10.996v-10.996h1.865zm12.724 9.698h1.875c-.098.898-.355 1.702-.772 2.412a4.515 4.515 0 0 1-1.767 1.689c-.762.41-1.713.615-2.852.615-.833 0-1.592-.156-2.275-.468a5.062 5.062 0 0 1-1.748-1.329c-.489-.579-.866-1.272-1.133-2.08-.261-.813-.391-1.718-.391-2.714v-1.416c0-.997.13-1.898.391-2.706.267-.813.648-1.51 1.142-2.089a5.093 5.093 0 0 1 1.807-1.338c.703-.313 1.494-.469 2.373-.469 1.074 0 1.982.202 2.725.605a4.34 4.34 0 0 1 1.728 1.68c.417.71.674 1.533.772 2.471h-1.875c-.091-.664-.261-1.234-.508-1.709a2.638 2.638 0 0 0-1.055-1.113c-.456-.261-1.051-.391-1.787-.391-.631 0-1.188.12-1.67.361a3.369 3.369 0 0 0-1.201 1.026c-.319.442-.56.973-.723 1.591a8.137 8.137 0 0 0-.244 2.061v1.436c0 .696.072 1.35.215 1.962.15.612.374 1.149.674 1.612.299.462.68.827 1.142 1.093.463.261 1.01.391 1.641.391.801 0 1.439-.127 1.914-.381a2.493 2.493 0 0 0 1.074-1.093c.248-.476.424-1.045.528-1.709zm14.276 2.988V534h-7.529v-1.533h7.529zm-7.148-12.686V534h-1.885v-14.219h1.885zm6.152 6.114v1.533h-6.533v-1.533h6.533zm.899-6.114v1.543h-7.432v-1.543h7.432zm14.169 0V534h-1.895l-7.158-10.967V534h-1.885v-14.219h1.885l7.187 10.996v-10.996h1.866zm9.101 0V534h-1.856v-14.219h1.856zm4.57 0v1.543h-10.987v-1.543h10.987zm4.931 0V534h-1.885v-14.219h1.885zm8.817 12.061 4.19-12.061h2.041L422.514 534h-1.455l.488-2.158zm-3.916-12.061 4.151 12.061.517 2.158h-1.455l-5.254-14.219h2.041zm21.894 12.686V534h-7.529v-1.533h7.529zm-7.148-12.686V534h-1.885v-14.219h1.885zm6.152 6.114v1.533h-6.533v-1.533h6.533zm.898-6.114v1.543h-7.431v-1.543h7.431zm10.81 10.625c0-.332-.052-.625-.156-.879a1.69 1.69 0 0 0-.527-.703c-.248-.208-.593-.407-1.036-.595a14.474 14.474 0 0 0-1.66-.577 15.182 15.182 0 0 1-1.904-.693 6.61 6.61 0 0 1-1.455-.889 3.51 3.51 0 0 1-.928-1.142c-.215-.43-.322-.921-.322-1.475 0-.553.114-1.064.342-1.533.227-.469.553-.876.976-1.221.43-.351.941-.625 1.533-.82a6.325 6.325 0 0 1 1.983-.293c1.068 0 1.972.205 2.715.615.748.404 1.318.934 1.709 1.592a4 4 0 0 1 .586 2.09h-1.875c0-.534-.114-1.006-.342-1.416a2.358 2.358 0 0 0-1.035-.977c-.463-.241-1.049-.361-1.758-.361-.671 0-1.224.101-1.66.303-.437.201-.762.475-.977.82a2.244 2.244 0 0 0-.312 1.182c0 .299.061.573.185.82.13.241.329.465.596.674.273.208.618.4 1.035.576.423.176.928.345 1.514.508.807.228 1.504.481 2.09.761.585.28 1.067.596 1.445.948.384.345.667.739.849 1.181.189.437.284.931.284 1.485 0 .579-.118 1.103-.352 1.572-.234.469-.57.869-1.006 1.201-.436.332-.96.589-1.572.772a7.312 7.312 0 0 1-2.031.263 7.053 7.053 0 0 1-1.944-.273 5.803 5.803 0 0 1-1.728-.82 4.3 4.3 0 0 1-1.24-1.348c-.306-.54-.459-1.165-.459-1.875h1.875c0 .488.094.908.283 1.26.189.345.446.631.771.859.332.228.707.397 1.123.508.424.104.863.156 1.319.156.657 0 1.214-.091 1.67-.273.455-.183.8-.443 1.035-.782.241-.338.361-.739.361-1.201z" fill="#29323E"/><path stroke="#FE7F2D" d="M543 546.5H248"/><path d="M1099.06 557.031V560h-18.62v-2.598l9.32-10.371c1.15-1.276 2.03-2.357 2.66-3.242.64-.898 1.08-1.699 1.33-2.402.26-.716.39-1.446.39-2.188 0-.937-.2-1.784-.59-2.539a4.424 4.424 0 0 0-1.68-1.836c-.74-.456-1.64-.683-2.69-.683-1.27 0-2.32.247-3.17.742a4.54 4.54 0 0 0-1.87 2.031c-.42.872-.63 1.875-.63 3.008h-3.61c0-1.602.35-3.067 1.05-4.395.71-1.328 1.75-2.382 3.13-3.164 1.38-.794 3.08-1.191 5.1-1.191 1.79 0 3.33.319 4.6.957 1.28.625 2.26 1.51 2.93 2.656.69 1.133 1.04 2.461 1.04 3.985 0 .833-.14 1.679-.43 2.539-.27.846-.66 1.692-1.15 2.539-.48.846-1.05 1.679-1.7 2.5-.64.82-1.32 1.627-2.05 2.422l-7.62 8.261h14.26zm8.44-10.566-2.89-.742 1.42-14.161h14.59v3.34h-11.52l-.86 7.735c.52-.3 1.18-.58 1.97-.84.81-.261 1.73-.391 2.77-.391 1.32 0 2.5.228 3.54.684a7.287 7.287 0 0 1 2.66 1.914c.74.833 1.3 1.836 1.69 3.008.4 1.172.59 2.48.59 3.926 0 1.367-.19 2.623-.57 3.769-.36 1.146-.91 2.148-1.66 3.008-.74.846-1.68 1.504-2.81 1.973-1.12.468-2.44.703-3.96.703-1.15 0-2.24-.157-3.27-.469a8.47 8.47 0 0 1-2.73-1.465 8.016 8.016 0 0 1-1.95-2.461c-.5-.989-.81-2.148-.94-3.476h3.44c.15 1.067.47 1.966.93 2.695a4.651 4.651 0 0 0 1.84 1.66c.77.365 1.66.547 2.68.547.86 0 1.62-.15 2.28-.449.67-.3 1.23-.73 1.68-1.289.46-.56.8-1.237 1.04-2.032.24-.794.37-1.686.37-2.675 0-.899-.13-1.732-.37-2.5a5.69 5.69 0 0 0-1.12-2.012 4.853 4.853 0 0 0-1.77-1.328c-.71-.326-1.51-.489-2.43-.489-1.21 0-2.12.163-2.75.489-.61.325-1.24.768-1.89 1.328zm17.61-7.93v-1.504c0-1.08.24-2.064.71-2.949.46-.885 1.14-1.595 2.01-2.129.87-.534 1.91-.801 3.1-.801 1.23 0 2.27.267 3.13.801a5.473 5.473 0 0 1 2.01 2.129c.47.885.7 1.869.7 2.949v1.504c0 1.055-.23 2.025-.7 2.91a5.345 5.345 0 0 1-1.99 2.129c-.86.534-1.9.801-3.11.801s-2.26-.267-3.14-.801c-.87-.534-1.55-1.243-2.01-2.129a6.11 6.11 0 0 1-.71-2.91zm2.72-1.504v1.504c0 .599.11 1.166.33 1.699.23.534.59.97 1.05 1.309.47.325 1.06.488 1.76.488.71 0 1.28-.163 1.74-.488.46-.339.79-.775 1.02-1.309.22-.533.33-1.1.33-1.699v-1.504c0-.612-.12-1.185-.35-1.719a2.856 2.856 0 0 0-1.04-1.308c-.45-.339-1.03-.508-1.74-.508-.69 0-1.27.169-1.74.508-.45.325-.8.762-1.03 1.308a4.468 4.468 0 0 0-.33 1.719zm11.13 17.52v-1.524c0-1.067.23-2.044.7-2.929a5.42 5.42 0 0 1 2.02-2.129c.87-.534 1.9-.801 3.1-.801 1.22 0 2.27.267 3.13.801a5.466 5.466 0 0 1 2.01 2.129c.47.885.7 1.862.7 2.929v1.524c0 1.067-.23 2.044-.7 2.929a5.338 5.338 0 0 1-1.99 2.129c-.86.534-1.9.801-3.11.801s-2.25-.267-3.13-.801a5.66 5.66 0 0 1-2.03-2.129c-.47-.885-.7-1.862-.7-2.929zm2.72-1.524v1.524c0 .599.11 1.172.33 1.719.23.533.58.97 1.05 1.308.47.326 1.06.488 1.76.488s1.28-.162 1.74-.488c.47-.338.81-.775 1.03-1.308.22-.534.34-1.107.34-1.719v-1.524c0-.612-.12-1.185-.36-1.718a2.847 2.847 0 0 0-1.03-1.289c-.46-.339-1.04-.508-1.76-.508-.69 0-1.27.169-1.74.508-.45.325-.8.755-1.03 1.289a4.46 4.46 0 0 0-.33 1.718zm4-17.422-13.89 22.227-2.03-1.289 13.89-22.227 2.03 1.289z" fill="#3D8DFF"/><path d="M1164.63 545.781V560h-1.85v-14.219h1.85zm4.57 0v1.543h-10.98v-1.543h10.98zm11.95 12.686V560h-7.53v-1.533h7.53zm-7.15-12.686V560h-1.89v-14.219h1.89zm6.15 6.114v1.533h-6.53v-1.533h6.53zm.9-6.114v1.543h-7.43v-1.543h7.43zm8.49 1.26-4.7 12.959h-1.93l5.42-14.219h1.24l-.03 1.26zm3.95 12.959-4.72-12.959-.03-1.26h1.24l5.44 14.219h-1.93zm-.24-5.264v1.543h-7.99v-1.543h7.99zm5.47-8.955h1.83l4.66 11.592 4.65-11.592h1.83L1205.91 560h-1.43l-5.76-14.219zm-.59 0h1.61l.26 8.672V560h-1.87v-14.219zm12.54 0h1.61V560h-1.88v-5.547l.27-8.672z" fill="#29323E"/><path stroke="#3D8DFF" d="M982 571.5h237"/><path d="M1042.12 59.563v2.03L1030.83 88h-3.65l11.25-25.469h-14.28v-2.968h17.97zm3.59 6.972v-1.504c0-1.08.24-2.064.71-2.949a5.47 5.47 0 0 1 2.01-2.129c.87-.534 1.91-.8 3.11-.8 1.22 0 2.26.266 3.12.8a5.47 5.47 0 0 1 2.01 2.129c.47.885.71 1.868.71 2.95v1.503c0 1.055-.24 2.025-.71 2.91a5.278 5.278 0 0 1-1.99 2.13c-.86.533-1.89.8-3.11.8-1.21 0-2.25-.267-3.14-.8a5.469 5.469 0 0 1-2.01-2.13 6.114 6.114 0 0 1-.71-2.91zm2.72-1.504v1.504c0 .6.11 1.166.33 1.7.24.533.59.97 1.06 1.308.47.325 1.05.488 1.75.488.71 0 1.29-.163 1.74-.488.46-.339.8-.775 1.02-1.309.22-.533.33-1.1.33-1.699v-1.504a4.3 4.3 0 0 0-.35-1.719 2.855 2.855 0 0 0-1.04-1.308c-.45-.339-1.03-.508-1.73-.508-.69 0-1.27.17-1.74.508-.46.325-.8.762-1.04 1.309a4.467 4.467 0 0 0-.33 1.718zm11.13 17.52v-1.524c0-1.067.24-2.044.71-2.93a5.328 5.328 0 0 1 2.01-2.128c.87-.534 1.9-.801 3.1-.801 1.23 0 2.27.267 3.13.8a5.468 5.468 0 0 1 2.01 2.13c.47.885.7 1.862.7 2.93v1.523c0 1.067-.23 2.044-.7 2.93a5.348 5.348 0 0 1-1.99 2.128c-.86.534-1.9.801-3.11.801s-2.25-.267-3.12-.8a5.52 5.52 0 0 1-2.03-2.13 6.154 6.154 0 0 1-.71-2.93zm2.72-1.524v1.524c0 .599.11 1.172.33 1.718.23.534.59.97 1.05 1.31.47.325 1.06.487 1.76.487s1.28-.162 1.74-.488c.47-.338.81-.775 1.04-1.309.22-.533.33-1.106.33-1.718v-1.524a4.3 4.3 0 0 0-.35-1.718 2.939 2.939 0 0 0-1.04-1.29c-.46-.338-1.04-.507-1.76-.507-.69 0-1.27.169-1.74.507-.45.326-.8.756-1.03 1.29a4.466 4.466 0 0 0-.33 1.718zm4-17.422-13.89 22.227-2.03-1.289 13.89-22.227 2.03 1.29z" fill="#FCCA46"/><path d="M1084.53 73.781h4.71c1.07 0 1.97.163 2.71.488.74.326 1.3.808 1.68 1.446.4.631.59 1.41.59 2.334 0 .65-.13 1.247-.4 1.787-.26.534-.64.99-1.13 1.367-.49.371-1.08.648-1.76.83l-.53.205h-4.42l-.02-1.533h3.34c.68 0 1.24-.117 1.69-.352.45-.24.79-.563 1.01-.966.23-.404.35-.85.35-1.338 0-.547-.11-1.026-.33-1.436-.21-.41-.55-.726-1.01-.947-.46-.228-1.05-.342-1.77-.342h-2.82V88h-1.89V73.781zM1092.84 88l-3.45-6.445 1.96-.01 3.51 6.338V88h-2.02zm13.85-1.533V88h-7.53v-1.533h7.53zm-7.15-12.686V88h-1.88V73.781h1.88zm6.15 6.113v1.534h-6.53v-1.534h6.53zm.9-6.113v1.543h-7.43v-1.543h7.43zm10.81 10.625c0-.332-.05-.625-.15-.879-.1-.26-.28-.494-.53-.703-.25-.208-.59-.407-1.04-.596-.43-.188-.99-.38-1.66-.576-.7-.208-1.33-.44-1.9-.693a6.76 6.76 0 0 1-1.46-.889c-.4-.332-.71-.713-.92-1.142-.22-.43-.33-.921-.33-1.475 0-.553.12-1.064.35-1.533.22-.469.55-.876.97-1.22.43-.352.94-.626 1.54-.821.59-.195 1.25-.293 1.98-.293 1.07 0 1.97.205 2.71.615.75.404 1.32.934 1.71 1.592.39.651.59 1.348.59 2.09h-1.88c0-.534-.11-1.006-.34-1.416a2.365 2.365 0 0 0-1.03-.977c-.47-.24-1.05-.361-1.76-.361-.67 0-1.23.1-1.66.303-.44.201-.76.475-.98.82-.21.345-.31.739-.31 1.182 0 .3.06.573.18.82.13.24.33.465.6.674.27.208.62.4 1.04.576.42.176.92.345 1.51.508.81.228 1.5.481 2.09.761.59.28 1.07.596 1.44.948.39.345.67.739.85 1.181.19.436.29.931.29 1.485 0 .58-.12 1.103-.35 1.572-.24.469-.57.87-1.01 1.201-.44.332-.96.59-1.57.772-.61.175-1.28.263-2.03.263-.66 0-1.31-.09-1.95-.273a5.928 5.928 0 0 1-1.73-.82 4.441 4.441 0 0 1-1.24-1.348c-.3-.54-.45-1.166-.45-1.875h1.87c0 .488.09.908.28 1.26.19.345.45.631.77.859.34.228.71.397 1.13.508.42.104.86.156 1.32.156.65 0 1.21-.091 1.67-.273.45-.183.8-.443 1.03-.782.24-.338.36-.739.36-1.2zm14.13 2.06V88H1124v-1.533h7.53zm-7.15-12.685V88h-1.88V73.781h1.88zm6.16 6.113v1.534H1124v-1.534h6.54zm.9-6.113v1.543H1124v-1.543h7.44zm3.23 0h4.7c1.07 0 1.97.163 2.71.488.74.326 1.3.808 1.69 1.446.39.631.58 1.41.58 2.334 0 .65-.13 1.247-.4 1.787-.26.534-.63.99-1.13 1.367-.49.371-1.07.648-1.76.83l-.52.205h-4.43l-.02-1.533h3.34c.68 0 1.24-.117 1.69-.352.45-.24.79-.563 1.02-.966.23-.404.34-.85.34-1.338 0-.547-.11-1.026-.32-1.436-.22-.41-.56-.726-1.02-.947-.45-.228-1.04-.342-1.77-.342h-2.82V88h-1.88V73.781zM1142.98 88l-3.46-6.445 1.96-.01 3.51 6.338V88h-2.01zm9.21-2.158 4.19-12.06h2.04L1153.15 88h-1.45l.49-2.158zm-3.92-12.06 4.15 12.06.52 2.158h-1.46l-5.25-14.219h2.04zm21.89 12.685V88h-7.53v-1.533h7.53zm-7.15-12.686V88h-1.88V73.781h1.88zm6.16 6.113v1.534h-6.54v-1.534h6.54zm.9-6.113v1.543h-7.44v-1.543h7.44zM1177.14 88h-2.96l.02-1.533h2.94c1.02 0 1.87-.212 2.54-.635a3.97 3.97 0 0 0 1.53-1.797c.34-.775.52-1.68.52-2.715v-.869c0-.814-.1-1.536-.3-2.168a4.278 4.278 0 0 0-.86-1.611 3.603 3.603 0 0 0-1.38-1.006c-.54-.228-1.17-.342-1.87-.342h-3.2v-1.543h3.2c.93 0 1.78.156 2.55.469.77.306 1.43.752 1.98 1.338.56.58.99 1.282 1.29 2.11.3.82.45 1.744.45 2.773v.85c0 1.028-.15 1.956-.45 2.782-.3.82-.73 1.52-1.3 2.1a5.615 5.615 0 0 1-2.03 1.338c-.79.306-1.68.459-2.67.459zm-1.96-14.219V88h-1.88V73.781h1.88zm-148.64 24V112h-1.89V97.781h1.89zm5.95 6.397v1.543h-6.37v-1.543h6.37zm.97-6.397v1.543h-7.34v-1.543h7.34zm13.99 6.66v.899c0 1.068-.13 2.025-.4 2.871-.26.846-.65 1.566-1.15 2.158-.5.593-1.1 1.045-1.81 1.358-.69.312-1.47.468-2.34.468-.84 0-1.61-.156-2.32-.468a5.203 5.203 0 0 1-1.81-1.358c-.51-.592-.9-1.312-1.18-2.158-.28-.846-.42-1.803-.42-2.871v-.899c0-1.067.13-2.021.41-2.861.28-.846.67-1.566 1.18-2.158a5.063 5.063 0 0 1 1.81-1.367c.7-.313 1.47-.47 2.31-.47.87 0 1.65.157 2.34.47.71.312 1.31.768 1.81 1.367.51.592.9 1.312 1.16 2.158.28.84.41 1.794.41 2.861zm-1.86.899v-.918c0-.846-.09-1.595-.27-2.246-.17-.651-.42-1.198-.75-1.641a3.237 3.237 0 0 0-1.22-1.006c-.47-.228-1.01-.341-1.62-.341-.59 0-1.12.113-1.59.341-.47.228-.87.563-1.21 1.006-.34.443-.59.99-.77 1.641-.19.651-.28 1.4-.28 2.246v.918c0 .853.09 1.608.28 2.265.18.652.44 1.202.78 1.651.34.443.75.778 1.22 1.006.47.228 1 .342 1.59.342.61 0 1.15-.114 1.63-.342.48-.228.88-.563 1.2-1.006.33-.449.58-.999.75-1.651.17-.657.26-1.412.26-2.265zm5.48-7.559h4.71c1.07 0 1.97.163 2.71.488.74.326 1.3.808 1.69 1.446.39.631.58 1.409.58 2.334 0 .651-.13 1.247-.4 1.787-.26.534-.64.99-1.13 1.367-.49.371-1.08.648-1.76.83l-.53.205h-4.42l-.02-1.533h3.34c.68 0 1.24-.117 1.69-.351.45-.241.79-.564 1.02-.967.22-.404.34-.85.34-1.338 0-.547-.11-1.026-.33-1.436-.21-.41-.55-.726-1.01-.947-.46-.228-1.05-.342-1.77-.342h-2.82V112h-1.89V97.781zm8.32 14.219-3.46-6.445 1.96-.01 3.51 6.338V112h-2.01zm15.81-5.576h-3.79v-1.533h3.79c.74 0 1.34-.118 1.79-.352.46-.234.79-.56 1-.977.21-.416.32-.891.32-1.425 0-.489-.11-.948-.32-1.377-.21-.43-.54-.775-1-1.035-.45-.267-1.05-.4-1.79-.4h-3.36V112h-1.88V97.781h5.24c1.08 0 1.99.186 2.73.557.74.371 1.3.885 1.69 1.543.38.651.57 1.396.57 2.236 0 .912-.19 1.69-.57 2.334-.39.645-.95 1.136-1.69 1.475-.74.332-1.65.498-2.73.498zm16.31-8.643h1.88v9.619c0 1.068-.24 1.957-.72 2.666-.47.71-1.1 1.244-1.89 1.602-.78.352-1.63.527-2.55.527-.96 0-1.84-.175-2.62-.527a4.26 4.26 0 0 1-1.84-1.602c-.45-.709-.68-1.598-.68-2.666v-9.619h1.87v9.619c0 .743.14 1.355.41 1.836.27.482.65.84 1.14 1.075.5.234 1.07.351 1.72.351.66 0 1.23-.117 1.72-.351a2.56 2.56 0 0 0 1.15-1.075c.28-.481.41-1.093.41-1.836v-9.619zm10.7 7.569h-3.6l-.02-1.514h3.27c.54 0 1.01-.091 1.42-.274.4-.182.71-.442.94-.781.22-.345.34-.755.34-1.23 0-.521-.1-.944-.3-1.27-.2-.332-.5-.573-.91-.722-.41-.157-.92-.235-1.55-.235h-2.77V112h-1.88V97.781h4.65c.73 0 1.38.075 1.96.225.57.143 1.05.371 1.45.683.41.306.71.697.92 1.172.21.476.31 1.045.31 1.709a2.92 2.92 0 0 1-.45 1.592 3.4 3.4 0 0 1-1.25 1.152c-.52.3-1.14.492-1.85.577l-.68.459zm-.08 6.65h-4.26l1.06-1.533h3.2c.6 0 1.1-.104 1.52-.313.42-.208.75-.501.97-.879.22-.384.33-.836.33-1.357 0-.527-.1-.983-.28-1.367a1.983 1.983 0 0 0-.89-.889c-.41-.208-.93-.312-1.57-.312h-2.68l.02-1.514h3.67l.4.547c.68.058 1.26.254 1.74.586.47.325.84.742 1.08 1.25.26.508.38 1.067.38 1.679 0 .886-.19 1.635-.58 2.247a3.722 3.722 0 0 1-1.63 1.386c-.71.313-1.53.469-2.48.469zm16.9-1.533V112h-7.11v-1.533h7.11zm-6.74-12.686V112h-1.88V97.781h1.88zm11.72 0V112h-1.89V97.781h1.89zm12.81 9.698h1.88c-.1.898-.36 1.702-.78 2.412-.41.709-1 1.272-1.76 1.689-.76.41-1.72.615-2.85.615-.84 0-1.6-.156-2.28-.468a5.06 5.06 0 0 1-1.75-1.329c-.49-.579-.86-1.272-1.13-2.08-.26-.813-.39-1.718-.39-2.714v-1.416c0-.997.13-1.898.39-2.706.27-.813.65-1.51 1.14-2.09.5-.579 1.11-1.025 1.81-1.337.7-.313 1.49-.47 2.37-.47 1.08 0 1.98.203 2.73.606.74.404 1.31.964 1.72 1.68.42.71.68 1.533.78 2.471h-1.88c-.09-.664-.26-1.234-.51-1.709-.24-.482-.6-.853-1.05-1.114-.46-.26-1.05-.39-1.79-.39-.63 0-1.19.12-1.67.361-.47.241-.87.583-1.2 1.026-.32.442-.56.973-.72 1.591-.17.619-.25 1.306-.25 2.061v1.436c0 .696.08 1.35.22 1.962.15.612.37 1.149.67 1.612.3.462.68.827 1.14 1.093.47.261 1.01.391 1.65.391.8 0 1.43-.127 1.91-.381.47-.254.83-.618 1.07-1.093.25-.476.43-1.045.53-1.709zm18.58.927c0-.332-.05-.625-.15-.879-.1-.26-.28-.494-.53-.703-.25-.208-.59-.407-1.04-.595-.43-.189-.98-.381-1.66-.577-.7-.208-1.33-.439-1.9-.693a6.432 6.432 0 0 1-1.45-.889 3.38 3.38 0 0 1-.93-1.142c-.22-.43-.32-.921-.32-1.475 0-.553.11-1.064.34-1.533.22-.469.55-.876.97-1.22.43-.352.94-.626 1.54-.821.59-.195 1.25-.293 1.98-.293 1.07 0 1.97.205 2.71.615.75.404 1.32.934 1.71 1.592.39.651.59 1.348.59 2.09h-1.88c0-.534-.11-1.006-.34-1.416a2.364 2.364 0 0 0-1.03-.977c-.47-.24-1.05-.361-1.76-.361-.67 0-1.22.1-1.66.303-.44.201-.76.475-.98.82-.21.345-.31.739-.31 1.182 0 .299.06.573.19.82.13.241.32.465.59.674.27.208.62.4 1.04.576.42.176.92.345 1.51.508.81.228 1.5.481 2.09.761.59.28 1.07.596 1.45.948.38.345.66.739.84 1.181.19.437.29.931.29 1.485 0 .579-.12 1.103-.35 1.572-.24.469-.57.869-1.01 1.201a4.92 4.92 0 0 1-1.57.772c-.61.175-1.28.263-2.03.263-.66 0-1.31-.091-1.95-.273a5.758 5.758 0 0 1-1.72-.82 4.208 4.208 0 0 1-1.24-1.348c-.31-.54-.46-1.165-.46-1.875h1.87c0 .488.1.908.28 1.26.19.345.45.631.78.859.33.228.7.397 1.12.508.42.104.86.156 1.32.156.65 0 1.21-.091 1.67-.273.45-.183.8-.443 1.03-.782.24-.338.36-.739.36-1.201zm10.36-9.365-4.7 12.959h-1.93l5.42-14.219h1.24l-.03 1.26zm3.95 12.959-4.72-12.959-.03-1.26h1.24l5.44 14.219h-1.93zm-.24-5.264v1.543h-7.99v-1.543h7.99zm13.5 3.731V112h-7.11v-1.533h7.11zm-6.74-12.686V112h-1.88V97.781h1.88zm18.73 12.686V112h-7.53v-1.533h7.53zm-7.15-12.686V112h-1.88V97.781h1.88zm6.16 6.114v1.533h-6.54v-1.533h6.54zm.89-6.114v1.543h-7.43v-1.543h7.43z" fill="#29323E"/><path stroke="#FCCA46" d="M1199 122.5H846"/><path fill-rule="evenodd" clip-rule="evenodd" d="M1188.37 680.627h-31.35V673h31.35c4.21 0 7.63 3.414 7.63 7.625h-7.62v.002h-.01zm.01 2.542h-.01v32.206h.01V723a7.623 7.623 0 0 0 7.62-7.627v-31.358h-7.62v-.846zm-2.55 32.204v.002h-.84V723h-31.36a7.625 7.625 0 0 1-7.63-7.627H1185.83zM1153.63 673V711.983H1146v-31.356a7.625 7.625 0 0 1 7.63-7.627z" fill="url(#g)"/><path fill-rule="evenodd" clip-rule="evenodd" d="M1169.6 688.254c-.39 0-.7.313-.7.7v6.081h-6.09c-.38 0-.7.314-.7.7v3.685c0 .387.32.7.7.7h6.09v6.078c0 .387.31.7.7.7h3.68c.39 0 .7-.313.7-.7v-6.078h6.08c.38 0 .7-.313.7-.7v-3.685c0-.386-.32-.7-.7-.7h-6.08v-6.081c0-.387-.31-.7-.7-.7h-3.68z" fill="url(#h)"/><path d="M1220.74 710.951c-2.34 0-4.43-.474-6.26-1.424-1.81-.98-3.23-2.372-4.27-4.176-1.05-1.803-1.57-3.939-1.57-6.407v-.711c0-2.468.52-4.588 1.57-6.36 1.04-1.803 2.46-3.195 4.27-4.176 1.83-.981 3.92-1.471 6.26-1.471s4.43.49 6.27 1.471c1.83.981 3.27 2.373 4.32 4.176 1.04 1.772 1.56 3.892 1.56 6.36v.711c0 2.468-.52 4.604-1.56 6.407a10.82 10.82 0 0 1-4.32 4.176c-1.84.95-3.93 1.424-6.27 1.424zm0-4.366c2.15 0 3.89-.68 5.22-2.041 1.36-1.392 2.04-3.306 2.04-5.742v-.427c0-2.436-.66-4.335-1.99-5.695-1.33-1.392-3.08-2.088-5.27-2.088-2.12 0-3.86.696-5.22 2.088-1.33 1.36-1.99 3.259-1.99 5.695v.427c0 2.436.66 4.35 1.99 5.742 1.36 1.361 3.1 2.041 5.22 2.041z" fill="url(#i)"/><path d="m1244.5 710.287-7.88-23.397h5.18l6.21 19.79h.76l6.22-19.79h5.17l-7.87 23.397h-7.79z" fill="url(#j)"/><path d="M1275.75 710.951c-2.38 0-4.45-.49-6.22-1.471-1.77-1.012-3.16-2.42-4.18-4.224-.98-1.835-1.47-3.955-1.47-6.359v-.57c0-2.436.49-4.556 1.47-6.359.98-1.835 2.34-3.243 4.08-4.224 1.78-1.012 3.82-1.518 6.13-1.518 2.24 0 4.2.506 5.88 1.518 1.71.981 3.04 2.357 3.99 4.129.95 1.772 1.42 3.844 1.42 6.217v1.851h-17.98c.06 2.056.74 3.702 2.04 4.936 1.32 1.202 2.97 1.803 4.93 1.803 1.84 0 3.21-.411 4.13-1.234.95-.823 1.68-1.772 2.18-2.847l4.04 2.088c-.45.886-1.09 1.819-1.95 2.8-.82.981-1.91 1.803-3.27 2.468-1.36.664-3.1.996-5.22.996zm-6.84-14.759h12.96c-.13-1.772-.76-3.148-1.9-4.129-1.14-1.012-2.63-1.519-4.46-1.519-1.84 0-3.34.507-4.51 1.519-1.14.981-1.83 2.357-2.09 4.129z" fill="url(#k)"/><path d="M1293.69 710.287V686.89h4.79v2.753h.76c.38-.981.98-1.693 1.8-2.136.86-.474 1.9-.712 3.13-.712h2.8v4.414h-2.99c-1.58 0-2.88.443-3.89 1.329-1.01.854-1.52 2.183-1.52 3.986v13.763h-4.88z" fill="url(#l)"/><path d="M1312.99 710.287V686.89h4.79v3.512h.76c.44-.949 1.23-1.835 2.37-2.658 1.14-.822 2.83-1.234 5.08-1.234 1.77 0 3.34.396 4.7 1.187 1.39.791 2.48 1.914 3.27 3.369.79 1.424 1.19 3.148 1.19 5.173v14.048h-4.89v-13.668c0-2.025-.5-3.512-1.52-4.461-1.01-.981-2.4-1.471-4.17-1.471-2.03 0-3.66.664-4.89 1.993-1.2 1.329-1.8 3.259-1.8 5.79v11.817h-4.89z" fill="url(#m)"/><path d="M1343.13 710.287V686.89h4.89v23.397h-4.89zm2.47-26.577c-.95 0-1.75-.3-2.42-.901-.63-.633-.95-1.44-.95-2.421 0-.98.32-1.771.95-2.372.67-.633 1.47-.95 2.42-.95.98 0 1.79.317 2.42.95.63.601.95 1.392.95 2.372 0 .981-.32 1.788-.95 2.421-.63.601-1.44.901-2.42.901z" fill="url(#n)"/><path d="M1355.09 698.707v-.712c0-2.468.49-4.572 1.47-6.312 1.01-1.74 2.34-3.084 3.98-4.034 1.65-.949 3.45-1.423 5.41-1.423 2.28 0 4.02.427 5.22 1.281 1.24.854 2.14 1.772 2.71 2.753h.76v-3.37h4.74v28.19c0 1.424-.42 2.563-1.28 3.417-.82.854-1.96 1.281-3.41 1.281h-12.37a3.391 3.391 0 0 1-3.39-3.39v-.881h14.24c.92 0 1.37-.474 1.37-1.424v-7.45h-.76c-.34.569-.83 1.154-1.47 1.755-.63.602-1.47 1.092-2.51 1.472-1.01.379-2.3.569-3.85.569-1.96 0-3.78-.459-5.45-1.376-1.65-.949-2.96-2.294-3.94-4.034-.98-1.772-1.47-3.876-1.47-6.312zm12.19 7.451c2.12 0 3.86-.664 5.22-1.993 1.4-1.361 2.09-3.227 2.09-5.6v-.427c0-2.437-.68-4.303-2.04-5.6-1.36-1.329-3.12-1.994-5.27-1.994-2.09 0-3.83.665-5.22 1.994-1.36 1.297-2.04 3.163-2.04 5.6v.427c0 2.373.68 4.239 2.04 5.6 1.39 1.329 3.13 1.993 5.22 1.993z" fill="url(#o)"/><path d="M1387.53 710.287v-33.221h4.89v13.146h.76c.31-.601.76-1.186 1.33-1.756.6-.569 1.37-1.028 2.32-1.376.98-.38 2.22-.57 3.7-.57 1.78 0 3.34.396 4.7 1.187 1.39.791 2.49 1.914 3.28 3.369.79 1.424 1.18 3.148 1.18 5.173v14.048h-4.88v-13.668c0-2.025-.51-3.512-1.52-4.461-1.02-.981-2.41-1.471-4.18-1.471-2.02 0-3.65.664-4.89 1.993-1.2 1.329-1.8 3.259-1.8 5.79v11.817h-4.89z" fill="url(#p)"/><path d="M1425.81 710.287c-1.43 0-2.56-.427-3.42-1.282-.82-.854-1.23-1.993-1.23-3.417v-14.569h-6.46v-4.129h6.46v-7.735h4.89v7.735h6.97v4.129h-6.97v13.715c0 .949.44 1.424 1.32 1.424h4.89v4.129h-6.45z" fill="url(#q)"/><path d="M-246.3 416.453c90.915-20.71 179.025-53.135 268.318-80.323 53.314-18.123 109.072-25.971 162.192-44.485 74.155-28.272 138.679-79.926 216.872-97.902 52.453-13.816 105.593-7.751 156.845.542 85.911 10.073 169.331 30.76 255.345 39.974 100.664 12.158 216.618 5.429 296.658-69.269 75.16-61.446 133.26-147.775 226.55-185.026 156.72-46.307 308.87 52.156 466.48 25.79" stroke="url(#r)" stroke-opacity=".4" stroke-width="3" stroke-miterlimit="10" stroke-linecap="round" stroke-dasharray="2 6"/><path d="M-247.662 437.184c90.863-21.17 177.725-57.184 266.273-86.591 52.953-19.563 108.685-28.531 162.05-46.195 79.694-29.879 148.354-86.329 232.316-104.733 46.826-11.679 94.529-8.425 140.435-1.693 92.657 7.707 181.617 32.124 273.606 42.749 98.48 13.076 211.802 6.357 290.642-66.132 73.43-59.617 129.9-141.42 217.85-182.341 153.59-56.892 319.28 41.185 477.04 12.64" stroke="url(#s)" stroke-opacity=".4" stroke-width="3" stroke-miterlimit="10" stroke-linecap="round" stroke-dasharray="2 6"/><path d="M-248.658 459.354c140.219-35.557 269.442-107.57 411.102-137.369 84.706-26.859 154.895-86.978 240.282-111.748 131.519-38.208 298.981 19.359 429.833 35.994 98.597 15.445 212.661 10.945 292.691-61.644 73.55-59.357 129.86-140.43 216.83-182.97 153.67-60.65 321.4 31.24 479.65.837" stroke="url(#t)" stroke-opacity=".4" stroke-width="3" stroke-miterlimit="10" stroke-linecap="round" stroke-dasharray="2 6"/><path d="M-249.361 482.831c135.4-34.629 256.1-113.911 392.967-143.442 94.731-24.377 170.532-93.419 263.565-122.294 146.9-43.391 297.104 15.92 438.971 36.327 96.257 16.763 208.088 12.722 286.598-58.308 73.82-59.167 130.18-139.78 216.18-183.94 153.05-64.39 323.47 20.506 481.94-11.946" stroke="url(#u)" stroke-opacity=".4" stroke-width="3" stroke-miterlimit="10" stroke-linecap="round" stroke-dasharray="2 6"/><path d="M-249.879 507.03c119.981-32.015 224.876-104.126 342.927-141.819 42.559-12.48 86.314-21.831 125.824-43.318 64.401-32.343 123.811-75.483 192.635-98.529 149.391-48.668 296.91 11.971 439.793 36.567 96.849 19.382 208.56 18.309 288.91-53.63 72.31-57.608 127.56-134.763 209.02-181.694 148.66-74.345 332.64 5.947 490.66-29.194" stroke="url(#v)" stroke-opacity=".4" stroke-width="3" stroke-miterlimit="10" stroke-linecap="round" stroke-dasharray="2 6"/><path d="M-250.277 531.816c112.27-31.598 208.632-101.752 316.736-143.906 46.695-19.056 97.21-25.766 142.208-49.32 67.959-32.972 129.156-79.259 200.073-106.253 151.38-58.872 303.333 5.397 447.849 34.36 98.418 21.842 207.691 24.727 291.011-48.681 72.8-57.688 128.25-134.782 208.93-182.943 146.56-77.514 334.97-6.047 492.52-43.547" stroke="url(#w)" stroke-opacity=".4" stroke-width="3" stroke-miterlimit="10" stroke-linecap="round" stroke-dasharray="2 6"/><path d="M-250.84 557.006c109.879-32.519 201.898-105.053 306.183-150.657 48.506-22.863 102.35-29.602 149.956-54.285 71.069-34.51 134.179-83.685 207.691-113.257 154.849-66.087 310.016 4.68 457.039 36.932 97.609 23.051 201.301 26.754 284.931-45.674 71.28-56.13 125.93-130.236 202.46-180.387 141.13-85.992 343.69-21.846 501.14-62.045" stroke="url(#x)" stroke-opacity=".4" stroke-width="3" stroke-miterlimit="10" stroke-linecap="round" stroke-dasharray="2 6"/><path d="M-251.61 582.131c107.695-33.378 195.485-107.704 295.735-156.487 50.047-26.861 107.038-34.348 157.651-59.71 69.72-33.681 131.327-81.627 201.626-114.138 162.735-81.798 317.158-6.133 471.585 31.839 99.177 25.51 200.513 32.97 286.963-40.856 71.77-56.209 126.76-130.326 202.85-181.716 136.84-87.913 347.73-34.679 503.66-76.877" stroke="url(#y)" stroke-opacity=".4" stroke-width="3" stroke-miterlimit="10" stroke-linecap="round" stroke-dasharray="2 6"/><path d="M-252.708 606.941c108.169-34.907 193.761-113.322 293.226-165.114 45.023-25.993 96.038-34.892 143.26-55.016 57.616-25.429 109.216-61.955 163.143-94.131 207.943-132.308 331.563-55.965 533.144-.555 100.335 27.849 200.215 38.777 289.005-36.368 72.47-56.229 127.74-130.485 203.4-183.115 130.2-88.514 352.51-47.401 506.28-91.12" stroke="url(#z)" stroke-opacity=".4" stroke-width="3" stroke-miterlimit="10" stroke-linecap="round" stroke-dasharray="2 6"/><path d="M-254.349 631.37c108.773-36.177 192.23-118.55 291.104-172.961 42.31-25.784 90.345-36.443 135.999-53.69 44.241-18.326 85.01-43.671 125.227-69.065 249.442-169.337 326.947-115.797 578.434-37.033 103.599 31.249 205.425 49.304 299.825-29.427 70.81-54.6 125.5-126.138 197.44-179.519 57.77-45.729 132.67-57.218 202.87-67.52C1681 8.175 1786.94 7.53 1889.96-19.652" stroke="url(#A)" stroke-opacity=".4" stroke-width="3" stroke-miterlimit="10" stroke-linecap="round" stroke-dasharray="2 6"/><path d="M-256.498 654.756c109.017-37.106 190.65-122.458 288.506-179.279 41.861-26.693 89.329-38.852 135.434-55.189 44.639-17.876 85.82-43.101 126.255-68.765 264.41-179.977 323.987-130.671 591.875-42.225 100.528 31.797 200.048 51.96 293.498-23.383 74.02-55.219 129.98-129.165 203.87-184.644 59.46-48.017 136.98-59.516 209.63-71.996 103.07-16.049 207.74-21.402 309.45-48.745" stroke="url(#B)" stroke-opacity=".4" stroke-width="3" stroke-miterlimit="10" stroke-linecap="round" stroke-dasharray="2 6"/><path d="M-259.368 677.045C-149.85 639.529-70.056 551.527 27.119 492.618c41.475-27.473 88.583-41.071 135.061-56.299 42.57-16.368 82.145-39.504 120.653-63.73 278.416-187.228 316.514-156.09 603.45-54.745 103.819 34.537 204.077 59.029 302.017-19.671 74.02-55.219 130.39-129.045 204.09-184.914 59.14-48.667 136.28-60.946 208.77-74.806 104.56-18.726 210.63-28.007 313.95-55.99" stroke="url(#C)" stroke-opacity=".4" stroke-width="3" stroke-miterlimit="10" stroke-linecap="round" stroke-dasharray="2 6"/><path d="M-262.945 697.902C-149.778 659.227-69.96 565.229 30.119 504.721c41.488-27.803 89.355-39.512 135.729-55.659 42.725-16.768 82.582-40.043 121.373-64.409 282.708-188.866 312.284-163.219 604.478-56.224 104.526 35.967 203.661 62.467 303.621-16.422 74.64-55.039 131.63-128.685 204.86-185.134 60.91-51.485 141.18-63.853 216.36-79.37 104.21-20.167 209.53-33.446 312.55-60.629" stroke="url(#D)" stroke-opacity=".4" stroke-width="3" stroke-miterlimit="10" stroke-linecap="round" stroke-dasharray="2 6"/><path d="M-267.572 717.014c116.714-38.973 196.325-138.369 299.565-199.955 48.324-32.479 106.421-39.866 158.563-63.557 78.805-35.587 147.865-88.029 222.119-131.394 55.995-31.906 116.913-63.821 181.719-67.248 107.151.375 201.348 50.672 298.24 83.298 107.276 38.327 208.096 67.875 311.896-13.561 79.27-58.136 138.68-137.189 218.4-194.745 58.4-45.549 133.15-55.19 202.8-70.879 106.28-22.005 213.39-38.431 318.82-65.354" stroke="url(#E)" stroke-opacity=".4" stroke-width="3" stroke-miterlimit="10" stroke-linecap="round" stroke-dasharray="2 6"/><path d="M-273.422 733.983c119.709-39.322 200.5-142.376 306.94-204.251 46.577-30.32 101.744-37.229 151.793-58.752 72.111-30.981 136.469-76.568 203.141-117.477 64-38.13 132.407-79.088 207.391-85.77 107.098-1.864 201.437 48.363 297.841 81.069 105.695 37.976 209.346 71.464 313.536-7.414 82.37-57.895 143.6-138.976 225.04-198.031 60.43-47.847 138.21-57.047 210.52-73.405 106.29-22.334 213.07-40.86 318.67-66.733" stroke="url(#F)" stroke-opacity=".4" stroke-width="3" stroke-miterlimit="10" stroke-linecap="round" stroke-dasharray="2 6"/><path d="M-280.441 748.614c118.616-39.752 201.876-138.527 307.764-200.453 50.996-33.477 111.805-41.073 166.414-65.823 82.673-37.015 155.279-91.535 233.735-136.008 51.769-28.359 107.007-56.817 165.952-62.845 112.509-3.731 212.092 48.916 314.046 81.464 108.11 36.458 205.82 65.766 310.85-13.202 84.08-59.064 147.35-140.994 231.75-199.408 61.31-45.698 138.72-54.228 210.7-70.906 106.15-22.265 212.87-41.25 318.54-66.994" stroke="url(#G)" stroke-opacity=".4" stroke-width="3" stroke-miterlimit="10" stroke-linecap="round" stroke-dasharray="2 6"/><path d="M-288.623 761.235C-173.297 722.301-88.248 631.053 14.35 569.946c25.968-15.434 52.976-29.118 81.503-39.024 33.538-10.444 67.77-19.129 99.765-34.471 86.065-38.693 161.561-96.26 244.322-140.922 49.803-25.931 103.153-52.161 159.503-55.611 109.297-1.333 207.349 46.086 307.568 76.904 112.099 35.62 210.979 66.937 319.869-13.458 86.24-59.323 152.04-142.182 239.68-200.095 62.35-43.948 139.61-52.079 211.6-69.087 106.58-22.474 213.67-42.13 319.82-67.953" stroke="url(#H)" stroke-opacity=".4" stroke-width="3" stroke-miterlimit="10" stroke-linecap="round" stroke-dasharray="2 6"/><path d="M-297.514 772.428c117.562-39.392 206.865-129.51 313.293-189.276 44.804-27.502 95.086-40.729 144.429-56.565 42.185-15.369 81.953-36.336 120.615-59.182 295.945-185.224 309.376-181.191 624.738-78.217 116.229 34.381 216.599 66.909 329.529-14.195 86.4-57.944 153.7-138.473 240.89-195.517 64.9-45.207 144.88-53.876 219.53-71.553 107.14-22.754 214.75-43.149 321.25-68.982" stroke="url(#I)" stroke-opacity=".4" stroke-width="3" stroke-miterlimit="10" stroke-linecap="round" stroke-dasharray="2 6"/><path d="M-307.332 782.458C-187.765 743.206-93.9 655.2 15.998 597.114c45.306-26.133 95.485-38.5 144.558-54.527 43.805-16.008 84.999-38.004 125.074-61.549 291.011-183.106 312.694-170.215 622.22-77.618 115.02 31.582 219.24 63.011 331.05-13.975 89.12-56.703 158.91-137.172 248.03-193.875 65.29-44.427 144.6-53.737 219.25-71.414 109.95-23.822 220.44-45.156 329.95-71.667" stroke="url(#J)" stroke-opacity=".4" stroke-width="3" stroke-miterlimit="10" stroke-linecap="round" stroke-dasharray="2 6"/><path d="M-317.793 791.521c119.451-38.062 216.723-120.96 327.444-177.027 45.884-24.963 95.755-38.31 145.073-53.486 43.29-15.269 84.241-36.335 123.944-59.211 290.857-180.927 314.39-171.054 626.664-84.993 118.418 29.904 226.948 60.815 341.728-15.86 91.46-56.243 164.31-136.93 256.49-192.074 66.72-42.227 146.02-51.207 220.62-69.344 110.66-24.172 221.8-46.315 332.08-73.046" stroke="url(#K)" stroke-opacity=".4" stroke-width="3" stroke-miterlimit="10" stroke-linecap="round" stroke-dasharray="2 6"/><path d="M-328.732 800.002c119.118-36.603 219.501-113.923 330.891-167.57 48.39-25.232 101.036-38.659 152.744-54.694 40.053-13.99 78.292-33.068 115.078-54.016 288.404-176.64 314.274-173.423 627.574-94.179 119.265 27.706 237.195 59.47 353.315-14.477 94.17-54.672 169.84-134.649 264.08-189.192 67.16-40.988 146.07-50.747 220.74-69.084 113.77-25.38 227.79-48.462 341.15-76.071" stroke="url(#L)" stroke-opacity=".4" stroke-width="3" stroke-miterlimit="10" stroke-linecap="round" stroke-dasharray="2 6"/><path d="M-340.141 808.236c118.99-35.084 222.344-106.756 334.608-157.924 46.682-22.284 96.05-37.001 145.652-50.538 40.001-12.671 78.253-30.3 115.079-50.458 277.882-164.48 306.098-182.482 615.515-110.375 121.294 25.408 257.897 63.624 377.407-6.333 97.44-51.603 176.12-130.479 271.41-185.381 69.37-42.567 150.62-53.645 227.88-72.451 116.78-26.389 234.04-50.748 350.48-79.236" stroke="url(#M)" stroke-opacity=".4" stroke-width="3" stroke-miterlimit="10" stroke-linecap="round" stroke-dasharray="2 6"/><path d="M-351.96 816.348c119.35-33.645 225.827-100.068 339.442-148.507 78.42-36.367 165.661-46.363 242.113-87.418 106.417-54.099 204.629-130.83 323.673-154.779 77.397-13.539 154.57.21 229.289 12.909 77.237 13.878 153.564 31.605 231.863 41.236 78.38 11.21 161.93 7.25 235.26-31.937 100.48-49.384 182.52-127.499 280.01-181.871 72.57-42.855 156.55-54.472 236.54-74.146 117.7-27.009 235.82-52.118 353.12-81.025" stroke="url(#N)" stroke-opacity=".4" stroke-width="3" stroke-miterlimit="10" stroke-linecap="round" stroke-dasharray="2 6"/><path d="M-364.008 825.058c119.569-32.135 228.746-93.1 343.364-138.8 78.896-34.338 165.444-44.314 242.384-83.67 205.509-107.001 279.161-190.347 523.621-150.326 84.665 11.822 167.995 29.481 253.07 39.644 84.689 11.163 174.899 10.373 255.279-29.872 105.44-48.602 192.19-128.235 294.97-181.505 71.44-38.738 152.5-50.206 229.92-69.741 120.87-28.087 242.16-54.604 362.74-84.33" stroke="url(#O)" stroke-opacity=".4" stroke-width="3" stroke-miterlimit="10" stroke-linecap="round" stroke-dasharray="2 6"/><path d="M-376.011 834.231c122.036-31.415 235.854-88.69 354.122-131.99 78.922-31.439 164.429-41.386 240.779-79.802 178.346-91.138 273.278-179.834 485.658-154.517 94.842 8.568 187.643 26.879 282.075 37.105 88.467 10.265 182.057 11.685 267.227-27.049 122.54-51.725 221.82-145.157 344.75-196.102 67.65-26.835 139.9-37.986 209.92-56.124 118.56-27.758 237.16-54.396 355.51-83.663" stroke="url(#P)" stroke-opacity=".4" stroke-width="3" stroke-miterlimit="10" stroke-linecap="round" stroke-dasharray="2 6"/><path d="M-386.477 842.963c122.487-30.505 238.49-83.361 357.851-124.452 79.552-29.81 164.789-39.947 241.641-76.994 168.286-83.734 268.871-173.448 468.694-156.801 98.555 5.76 195.289 22.774 293.138 32.441 92.583 9.686 190.063 12.577 280.053-25.306 125.44-49.435 228.27-141.717 353.21-192.521 70.51-27.444 145.56-39.333 218.46-58.41 119.21-28.237 238.59-55.425 357.36-84.902" stroke="url(#Q)" stroke-opacity=".4" stroke-width="3" stroke-miterlimit="10" stroke-linecap="round" stroke-dasharray="2 6"/><path d="M-396.971 852.684c122.731-29.655 240.368-78.143 360.475-117.015 79.912-28.37 164.944-38.567 242.502-74.185 164.638-79.018 263.386-167.823 458.504-158.553 105.108 3.003 208.305 19.569 312.579 27.999 93.261 8.217 190.801 9.788 281.541-26.205 127.8-47.855 234.04-138.586 360.69-188.78 70.78-26.924 145.56-39.334 218.32-58.341 122.09-29.175 244.42-57.502 366.48-87.797" stroke="url(#R)" stroke-opacity=".4" stroke-width="3" stroke-miterlimit="10" stroke-linecap="round" stroke-dasharray="2 6"/><path d="M-407.091 863.517c123.052-29.005 241.988-73.445 362.918-110.297 80.414-27.001 165.317-37.458 243.582-71.646 60.187-25.568 115.552-60.883 173.682-90.609 87.939-45.929 186.216-72.384 283.896-69.104 108.513.996 215.154 16.343 322.872 23.555 91.521 6.487 186.581 7.668 276.151-24.667 132.98-45.565 244.31-137.034 375.13-187.677 70.82-26.464 145.48-39.133 218.18-58.27 125.11-30.185 250.39-59.649 375.4-90.753" stroke="url(#S)" stroke-opacity=".4" stroke-width="3" stroke-miterlimit="10" stroke-linecap="round" stroke-dasharray="2 6"/><path d="M-417.124 875.598c123.527-28.756 244.058-69.617 366.03-104.72 79.09-25.052 161.937-36.109 239.046-67.299 65.546-26.116 125.048-64.448 188.086-95.632 81.079-40.594 170.514-66.072 260.097-66.712 115.092-2.422 228.338 12.409 342.405 18.583 92.75 5.398 188.5 6.559 279.4-24.496 135.76-43.865 250.64-134.183 383.69-184.955 73.63-27.203 151.09-40.611 226.58-60.487 125.82-30.534 251.54-60.538 377.18-91.792" stroke="url(#T)" stroke-opacity=".4" stroke-width="3" stroke-miterlimit="10" stroke-linecap="round" stroke-dasharray="2 6"/><path d="M-426.734 889.248c123.733-28.696 245.319-66.358 367.92-99.831 81.776-24.602 167.001-36.188 246.565-68.107 66.239-26.135 126.448-64.817 190.514-95.701 78.985-38.425 165.4-62.895 252.13-65.036 118.215-4.289 234.827 9.523 352.132 14.419 90.853 4.068 184.253 5.098 273.663-23.279 140.82-42.163 260.8-133.22 398.04-184.77 73.61-26.873 150.94-40.541 226.37-60.547 128.7-31.472 257.44-62.485 386.08-94.417" stroke="url(#U)" stroke-opacity=".4" stroke-width="3" stroke-miterlimit="10" stroke-linecap="round" stroke-dasharray="2 6"/><path d="M-436.003 904.666c126.471-29.565 251.796-65.356 377.559-98.129 79.76-22.633 162.31-35 240.063-64.89 71.199-27.133 135.546-68.832 204.508-100.844 72.907-33.64 151.561-56.373 230.953-60.545 124.215-7.096 246.803 6.348 370.108 10.216 91.182 2.939 184.722 3.899 274.452-23.828 143.09-41.833 266.27-131.399 405.46-183.269 76.21-27.671 156.2-42.008 234.15-62.612 129.11-31.353 258.15-62.835 386.93-94.838" stroke="url(#V)" stroke-opacity=".4" stroke-width="3" stroke-miterlimit="10" stroke-linecap="round" stroke-dasharray="2 6"/><path d="M-444.789 922.116c126.561-30.094 252.555-63.466 378.768-95.33 80.428-21.993 163.3-35.489 241.849-64.479 72.986-26.723 138.733-68.791 209.173-101.373 72.406-33.23 150.238-56.203 228.897-61.145 127.041-8.494 252.791 3.871 379.039 6.931 91.423 2.009 185.023 3.1 274.933-23.908 145.18-41.892 271.64-130.168 412.86-182.556 78.74-28.601 161.31-43.406 242.06-64.75 129.06-31.812 258.17-63.494 387.3-95.506" stroke="url(#W)" stroke-opacity=".4" stroke-width="3" stroke-miterlimit="10" stroke-linecap="round" stroke-dasharray="2 6"/><path d="M-452.947 941.525c129.194-31.883 258.465-63.965 387.66-95.847 78.436-20.684 158.647-35.291 235.334-62.712 73.166-26.004 139.504-67.232 209.546-100.263 73.549-34.12 152.203-58.632 232.34-64.143 132.914-9.782 264.767 2.476 396.877 4.578 88.27.979 178.77 1.828 265.58-23.971 149.87-43.08 281.09-132.744 427.32-185.67 79.06-27.951 161.65-43.087 242.54-64.5 129.33-31.622 258.6-63.704 387.79-95.586" stroke="url(#X)" stroke-opacity=".4" stroke-width="3" stroke-miterlimit="10" stroke-linecap="round" stroke-dasharray="2 6"/></g></g><defs><linearGradient id="c" x1="50.5" y1="35.992" x2="1509.31" y2="729.816" gradientUnits="userSpaceOnUse"><stop offset=".215" stop-color="#fff"/><stop offset="1" stop-color="#E0E5EC"/></linearGradient><linearGradient id="A" x1="899.226" y1="470.451" x2="722.831" y2="113.874" gradientUnits="userSpaceOnUse"><stop stop-color="#4091E5" stop-opacity=".15"/><stop offset=".44" stop-color="#CEE4FF"/><stop offset=".773" stop-color="#67BCFB" stop-opacity=".31"/></linearGradient><linearGradient id="e" x1="76" y1="58" x2="125.03" y2="59.076" gradientUnits="userSpaceOnUse"><stop stop-color="#3EB1FE"/><stop offset="1" stop-color="#0678C4" stop-opacity=".992"/></linearGradient><linearGradient id="f" x1="91.461" y1="72.644" x2="109.743" y2="73.046" gradientUnits="userSpaceOnUse"><stop stop-color="#3EB1FE"/><stop offset="1" stop-color="#0678C4" stop-opacity=".992"/></linearGradient><linearGradient id="g" x1="1146" y1="673" x2="1197.07" y2="674.121" gradientUnits="userSpaceOnUse"><stop stop-color="#28A0F0"/><stop offset="1" stop-color="#0678C4" stop-opacity=".992"/></linearGradient><linearGradient id="h" x1="1162.11" y1="688.254" x2="1181.16" y2="688.672" gradientUnits="userSpaceOnUse"><stop stop-color="#28A0F0"/><stop offset="1" stop-color="#0678C4" stop-opacity=".992"/></linearGradient><linearGradient id="i" x1="1208.64" y1="677.066" x2="1240.91" y2="783.419" gradientUnits="userSpaceOnUse"><stop stop-color="#011845"/><stop offset="1" stop-color="#15141D"/></linearGradient><linearGradient id="j" x1="1208.64" y1="677.066" x2="1240.91" y2="783.419" gradientUnits="userSpaceOnUse"><stop stop-color="#011845"/><stop offset="1" stop-color="#15141D"/></linearGradient><linearGradient id="k" x1="1208.64" y1="677.066" x2="1240.91" y2="783.419" gradientUnits="userSpaceOnUse"><stop stop-color="#011845"/><stop offset="1" stop-color="#15141D"/></linearGradient><linearGradient id="l" x1="1208.64" y1="677.066" x2="1240.91" y2="783.419" gradientUnits="userSpaceOnUse"><stop stop-color="#011845"/><stop offset="1" stop-color="#15141D"/></linearGradient><linearGradient id="m" x1="1208.64" y1="677.066" x2="1240.91" y2="783.419" gradientUnits="userSpaceOnUse"><stop stop-color="#011845"/><stop offset="1" stop-color="#15141D"/></linearGradient><linearGradient id="n" x1="1208.64" y1="677.066" x2="1240.91" y2="783.419" gradientUnits="userSpaceOnUse"><stop stop-color="#011845"/><stop offset="1" stop-color="#15141D"/></linearGradient><linearGradient id="o" x1="1208.64" y1="677.066" x2="1240.91" y2="783.419" gradientUnits="userSpaceOnUse"><stop stop-color="#011845"/><stop offset="1" stop-color="#15141D"/></linearGradient><linearGradient id="p" x1="1208.64" y1="677.066" x2="1240.91" y2="783.419" gradientUnits="userSpaceOnUse"><stop stop-color="#011845"/><stop offset="1" stop-color="#15141D"/></linearGradient><linearGradient id="q" x1="1208.64" y1="677.066" x2="1240.91" y2="783.419" gradientUnits="userSpaceOnUse"><stop stop-color="#011845"/><stop offset="1" stop-color="#15141D"/></linearGradient><linearGradient id="r" x1="898.165" y1="453.347" x2="658.496" y2="-31.139" gradientUnits="userSpaceOnUse"><stop stop-color="#4091E5" stop-opacity=".15"/><stop offset=".44" stop-color="#CEE4FF"/><stop offset=".773" stop-color="#67BCFB" stop-opacity=".31"/></linearGradient><linearGradient id="s" x1="899.067" y1="456.781" x2="665.826" y2="-14.709" gradientUnits="userSpaceOnUse"><stop stop-color="#4091E5" stop-opacity=".15"/><stop offset=".44" stop-color="#CEE4FF"/><stop offset=".773" stop-color="#67BCFB" stop-opacity=".31"/></linearGradient><linearGradient id="t" x1="899.267" y1="458.786" x2="673.805" y2="3.021" gradientUnits="userSpaceOnUse"><stop stop-color="#4091E5" stop-opacity=".15"/><stop offset=".44" stop-color="#CEE4FF"/><stop offset=".773" stop-color="#67BCFB" stop-opacity=".31"/></linearGradient><linearGradient id="u" x1="899.142" y1="460.14" x2="682.36" y2="21.919" gradientUnits="userSpaceOnUse"><stop stop-color="#4091E5" stop-opacity=".15"/><stop offset=".44" stop-color="#CEE4FF"/><stop offset=".773" stop-color="#67BCFB" stop-opacity=".31"/></linearGradient><linearGradient id="v" x1="898.767" y1="460.974" x2="691.242" y2="41.468" gradientUnits="userSpaceOnUse"><stop stop-color="#4091E5" stop-opacity=".15"/><stop offset=".44" stop-color="#CEE4FF"/><stop offset=".773" stop-color="#67BCFB" stop-opacity=".31"/></linearGradient><linearGradient id="w" x1="898.394" y1="461.807" x2="700.384" y2="61.535" gradientUnits="userSpaceOnUse"><stop stop-color="#4091E5" stop-opacity=".15"/><stop offset=".44" stop-color="#CEE4FF"/><stop offset=".773" stop-color="#67BCFB" stop-opacity=".31"/></linearGradient><linearGradient id="x" x1="898.075" y1="462.774" x2="709.612" y2="81.801" gradientUnits="userSpaceOnUse"><stop stop-color="#4091E5" stop-opacity=".15"/><stop offset=".44" stop-color="#CEE4FF"/><stop offset=".773" stop-color="#67BCFB" stop-opacity=".31"/></linearGradient><linearGradient id="y" x1="898.012" y1="464.256" x2="714.729" y2="93.753" gradientUnits="userSpaceOnUse"><stop stop-color="#4091E5" stop-opacity=".15"/><stop offset=".44" stop-color="#CEE4FF"/><stop offset=".773" stop-color="#67BCFB" stop-opacity=".31"/></linearGradient><linearGradient id="z" x1="898.27" y1="466.557" x2="719.177" y2="104.525" gradientUnits="userSpaceOnUse"><stop stop-color="#4091E5" stop-opacity=".15"/><stop offset=".44" stop-color="#CEE4FF"/><stop offset=".773" stop-color="#67BCFB" stop-opacity=".31"/></linearGradient><linearGradient id="d" x1="60" y1="42" x2="157.931" y2="103.437" gradientUnits="userSpaceOnUse"><stop offset=".163" stop-color="#062C76"/><stop offset="1" stop-color="#15141D"/></linearGradient><linearGradient id="B" x1="900.967" y1="475.738" x2="726.614" y2="123.289" gradientUnits="userSpaceOnUse"><stop stop-color="#4091E5" stop-opacity=".15"/><stop offset=".44" stop-color="#CEE4FF"/><stop offset=".773" stop-color="#67BCFB" stop-opacity=".31"/></linearGradient><linearGradient id="C" x1="903.605" y1="482.845" x2="730.89" y2="133.706" gradientUnits="userSpaceOnUse"><stop stop-color="#4091E5" stop-opacity=".15"/><stop offset=".44" stop-color="#CEE4FF"/><stop offset=".773" stop-color="#67BCFB" stop-opacity=".31"/></linearGradient><linearGradient id="D" x1="907.26" y1="492.36" x2="735.326" y2="144.801" gradientUnits="userSpaceOnUse"><stop stop-color="#4091E5" stop-opacity=".15"/><stop offset=".44" stop-color="#CEE4FF"/><stop offset=".773" stop-color="#67BCFB" stop-opacity=".31"/></linearGradient><linearGradient id="E" x1="912.199" y1="504.314" x2="740.63" y2="157.494" gradientUnits="userSpaceOnUse"><stop stop-color="#4091E5" stop-opacity=".15"/><stop offset=".44" stop-color="#CEE4FF"/><stop offset=".773" stop-color="#67BCFB" stop-opacity=".31"/></linearGradient><linearGradient id="F" x1="918.493" y1="519.158" x2="746.194" y2="170.862" gradientUnits="userSpaceOnUse"><stop stop-color="#4091E5" stop-opacity=".15"/><stop offset=".44" stop-color="#CEE4FF"/><stop offset=".773" stop-color="#67BCFB" stop-opacity=".31"/></linearGradient><linearGradient id="G" x1="925.681" y1="535.658" x2="751.916" y2="184.398" gradientUnits="userSpaceOnUse"><stop stop-color="#4091E5" stop-opacity=".15"/><stop offset=".44" stop-color="#CEE4FF"/><stop offset=".773" stop-color="#67BCFB" stop-opacity=".31"/></linearGradient><linearGradient id="H" x1="933.403" y1="552.866" x2="757.789" y2="197.868" gradientUnits="userSpaceOnUse"><stop stop-color="#4091E5" stop-opacity=".15"/><stop offset=".44" stop-color="#CEE4FF"/><stop offset=".773" stop-color="#67BCFB" stop-opacity=".31"/></linearGradient><linearGradient id="I" x1="941.367" y1="570.927" x2="763.701" y2="211.78" gradientUnits="userSpaceOnUse"><stop stop-color="#4091E5" stop-opacity=".15"/><stop offset=".44" stop-color="#CEE4FF"/><stop offset=".773" stop-color="#67BCFB" stop-opacity=".31"/></linearGradient><linearGradient id="J" x1="949.71" y1="589.929" x2="768.724" y2="224.071" gradientUnits="userSpaceOnUse"><stop stop-color="#4091E5" stop-opacity=".15"/><stop offset=".44" stop-color="#CEE4FF"/><stop offset=".773" stop-color="#67BCFB" stop-opacity=".31"/></linearGradient><linearGradient id="K" x1="958.528" y1="609.513" x2="773.837" y2="236.167" gradientUnits="userSpaceOnUse"><stop stop-color="#4091E5" stop-opacity=".15"/><stop offset=".44" stop-color="#CEE4FF"/><stop offset=".773" stop-color="#67BCFB" stop-opacity=".31"/></linearGradient><linearGradient id="L" x1="967.594" y1="629.45" x2="778.934" y2="248.078" gradientUnits="userSpaceOnUse"><stop stop-color="#4091E5" stop-opacity=".15"/><stop offset=".44" stop-color="#CEE4FF"/><stop offset=".773" stop-color="#67BCFB" stop-opacity=".31"/></linearGradient><linearGradient id="M" x1="976.918" y1="650.074" x2="780.836" y2="253.701" gradientUnits="userSpaceOnUse"><stop stop-color="#4091E5" stop-opacity=".15"/><stop offset=".44" stop-color="#CEE4FF"/><stop offset=".773" stop-color="#67BCFB" stop-opacity=".31"/></linearGradient><linearGradient id="N" x1="986.427" y1="671.253" x2="780.96" y2="255.905" gradientUnits="userSpaceOnUse"><stop stop-color="#4091E5" stop-opacity=".15"/><stop offset=".44" stop-color="#CEE4FF"/><stop offset=".773" stop-color="#67BCFB" stop-opacity=".31"/></linearGradient><linearGradient id="O" x1="996.127" y1="692.984" x2="781.208" y2="258.532" gradientUnits="userSpaceOnUse"><stop stop-color="#4091E5" stop-opacity=".15"/><stop offset=".44" stop-color="#CEE4FF"/><stop offset=".773" stop-color="#67BCFB" stop-opacity=".31"/></linearGradient><linearGradient id="P" x1="1006.16" y1="714.873" x2="781.856" y2="261.447" gradientUnits="userSpaceOnUse"><stop stop-color="#4091E5" stop-opacity=".15"/><stop offset=".44" stop-color="#CEE4FF"/><stop offset=".773" stop-color="#67BCFB" stop-opacity=".31"/></linearGradient><linearGradient id="Q" x1="1014.9" y1="734.326" x2="782.556" y2="264.656" gradientUnits="userSpaceOnUse"><stop stop-color="#4091E5" stop-opacity=".15"/><stop offset=".44" stop-color="#CEE4FF"/><stop offset=".773" stop-color="#67BCFB" stop-opacity=".31"/></linearGradient><linearGradient id="R" x1="1023.57" y1="753.813" x2="783.582" y2="268.678" gradientUnits="userSpaceOnUse"><stop stop-color="#4091E5" stop-opacity=".15"/><stop offset=".44" stop-color="#CEE4FF"/><stop offset=".773" stop-color="#67BCFB" stop-opacity=".31"/></linearGradient><linearGradient id="S" x1="1032.51" y1="773.823" x2="785.122" y2="273.743" gradientUnits="userSpaceOnUse"><stop stop-color="#4091E5" stop-opacity=".15"/><stop offset=".44" stop-color="#CEE4FF"/><stop offset=".773" stop-color="#67BCFB" stop-opacity=".31"/></linearGradient><linearGradient id="T" x1="1041.23" y1="793.771" x2="787.032" y2="279.915" gradientUnits="userSpaceOnUse"><stop stop-color="#4091E5" stop-opacity=".15"/><stop offset=".44" stop-color="#CEE4FF"/><stop offset=".773" stop-color="#67BCFB" stop-opacity=".31"/></linearGradient><linearGradient id="U" x1="1050.16" y1="813.779" x2="789.789" y2="287.447" gradientUnits="userSpaceOnUse"><stop stop-color="#4091E5" stop-opacity=".15"/><stop offset=".44" stop-color="#CEE4FF"/><stop offset=".773" stop-color="#67BCFB" stop-opacity=".31"/></linearGradient><linearGradient id="V" x1="1059.01" y1="833.986" x2="793.171" y2="296.607" gradientUnits="userSpaceOnUse"><stop stop-color="#4091E5" stop-opacity=".15"/><stop offset=".44" stop-color="#CEE4FF"/><stop offset=".773" stop-color="#67BCFB" stop-opacity=".31"/></linearGradient><linearGradient id="W" x1="1067.92" y1="854.491" x2="797.388" y2="307.625" gradientUnits="userSpaceOnUse"><stop stop-color="#4091E5" stop-opacity=".15"/><stop offset=".44" stop-color="#CEE4FF"/><stop offset=".773" stop-color="#67BCFB" stop-opacity=".31"/></linearGradient><linearGradient id="X" x1="1076.58" y1="874.474" x2="802.516" y2="320.461" gradientUnits="userSpaceOnUse"><stop stop-color="#4091E5" stop-opacity=".15"/><stop offset=".44" stop-color="#CEE4FF"/><stop offset=".773" stop-color="#67BCFB" stop-opacity=".31"/></linearGradient><clipPath id="b"><rect x="2" width="1492" height="762" rx="20" fill="#fff"/></clipPath><filter id="a" x="0" y="0" width="1496" height="768" filterUnits="userSpaceOnUse" color-interpolation-filters="sRGB"><feFlood flood-opacity="0" result="BackgroundImageFix"/><feColorMatrix in="SourceAlpha" values="0 0 0 0 0 0 0 0 0 0 0 0 0 0 0 0 0 0 127 0" result="hardAlpha"/><feOffset dy="4"/><feGaussianBlur stdDeviation="1"/><feComposite in2="hardAlpha" operator="out"/><feColorMatrix values="0 0 0 0 0.0352941 0 0 0 0 0.215686 0 0 0 0 0.384314 0 0 0 0.25 0"/><feBlend in2="BackgroundImageFix" result="effect1_dropShadow_10306_85026"/><feBlend in="SourceGraphic" in2="effect1_dropShadow_10306_85026" result="shape"/></filter></defs></svg>