<svg width="176" height="29" viewBox="0 0 176 29" fill="none" xmlns="http://www.w3.org/2000/svg">
    <path d="M7.78062 9.14697H9.05894L12.3197 17.2612L15.5736 9.14697H16.8587L12.8119 19.1001H11.8138L7.78062 9.14697ZM7.36363 9.14697H8.49156L8.67613 15.2173V19.1001H7.36363V9.14697ZM16.141 9.14697H17.2689V19.1001H15.9564V15.2173L16.141 9.14697ZM21.4213 9.14697V19.1001H20.102V9.14697H21.4213ZM31.897 9.14697V19.1001H30.5708L25.5601 11.4233V19.1001H24.2407V9.14697H25.5601L30.5913 16.8442V9.14697H31.897ZM38.1275 9.14697V19.1001H36.8287V9.14697H38.1275ZM41.3268 9.14697V10.2271H33.6363V9.14697H41.3268ZM54.4988 9.14697V19.1001H53.1726L48.1619 11.4233V19.1001H46.8425V9.14697H48.1619L53.1931 16.8442V9.14697H54.4988ZM58.576 9.14697V19.1001H57.2567V9.14697H58.576ZM62.7459 13.6245V14.7046H58.2889V13.6245H62.7459ZM63.4227 9.14697V10.2271H58.2889V9.14697H63.4227ZM69.2294 9.14697V19.1001H67.9306V9.14697H69.2294ZM72.4286 9.14697V10.2271H64.7382V9.14697H72.4286ZM85.6075 13.8091V14.438C85.6075 15.1854 85.5141 15.8553 85.3272 16.4478C85.1404 17.0402 84.8715 17.5438 84.5206 17.9585C84.1697 18.3732 83.7481 18.6899 83.2559 18.9087C82.7683 19.1274 82.2214 19.2368 81.6153 19.2368C81.0274 19.2368 80.4874 19.1274 79.9952 18.9087C79.5076 18.6899 79.0837 18.3732 78.7237 17.9585C78.3682 17.5438 78.0925 17.0402 77.8966 16.4478C77.7006 15.8553 77.6026 15.1854 77.6026 14.438V13.8091C77.6026 13.0617 77.6983 12.394 77.8897 11.8062C78.0857 11.2137 78.3614 10.7101 78.7169 10.2954C79.0723 9.87614 79.4939 9.55713 79.9815 9.33838C80.4737 9.11963 81.0137 9.01025 81.6016 9.01025C82.2078 9.01025 82.7546 9.11963 83.2423 9.33838C83.7345 9.55713 84.156 9.87614 84.5069 10.2954C84.8624 10.7101 85.1335 11.2137 85.3204 11.8062C85.5118 12.394 85.6075 13.0617 85.6075 13.8091ZM84.3018 14.438V13.7954C84.3018 13.203 84.2403 12.6789 84.1173 12.2231C83.9988 11.7674 83.8233 11.3846 83.5909 11.0747C83.3585 10.7648 83.0736 10.5301 82.7364 10.3706C82.4037 10.2111 82.0255 10.1313 81.6016 10.1313C81.1915 10.1313 80.8201 10.2111 80.4874 10.3706C80.1593 10.5301 79.8767 10.7648 79.6397 11.0747C79.4073 11.3846 79.2273 11.7674 79.0997 12.2231C78.9721 12.6789 78.9083 13.203 78.9083 13.7954V14.438C78.9083 15.035 78.9721 15.5636 79.0997 16.0239C79.2273 16.4797 79.4096 16.8647 79.6466 17.1792C79.8881 17.4891 80.1729 17.7238 80.5011 17.8833C80.8337 18.0428 81.2052 18.1226 81.6153 18.1226C82.0437 18.1226 82.4242 18.0428 82.7569 17.8833C83.0896 17.7238 83.3699 17.4891 83.5977 17.1792C83.8302 16.8647 84.0056 16.4797 84.1241 16.0239C84.2426 15.5636 84.3018 15.035 84.3018 14.438ZM95.6593 9.14697V19.1001H94.3332L89.3224 11.4233V19.1001H88.0031V9.14697H89.3224L94.3537 16.8442V9.14697H95.6593ZM109.665 14.144V17.7876C109.542 17.9699 109.346 18.175 109.077 18.4028C108.809 18.6261 108.437 18.8221 107.963 18.9907C107.494 19.1548 106.888 19.2368 106.145 19.2368C105.539 19.2368 104.98 19.132 104.47 18.9224C103.964 18.7082 103.524 18.3983 103.151 17.9927C102.782 17.5825 102.494 17.0858 102.289 16.5024C102.089 15.9146 101.989 15.2492 101.989 14.5063V13.7339C101.989 12.991 102.075 12.328 102.248 11.7446C102.426 11.1613 102.686 10.6668 103.028 10.2612C103.369 9.85107 103.789 9.54118 104.285 9.33154C104.782 9.11735 105.352 9.01025 105.994 9.01025C106.756 9.01025 107.391 9.14242 107.902 9.40674C108.417 9.6665 108.818 10.0265 109.105 10.4868C109.396 10.9471 109.583 11.4712 109.665 12.0591H108.346C108.287 11.6991 108.168 11.3709 107.991 11.0747C107.817 10.7785 107.569 10.5415 107.245 10.3638C106.922 10.1815 106.505 10.0903 105.994 10.0903C105.534 10.0903 105.135 10.1746 104.798 10.3433C104.461 10.5119 104.183 10.7534 103.964 11.0679C103.745 11.3823 103.581 11.7629 103.472 12.2095C103.367 12.6561 103.315 13.1597 103.315 13.7202V14.5063C103.315 15.0806 103.381 15.5933 103.513 16.0444C103.65 16.4956 103.843 16.8807 104.094 17.1997C104.345 17.5142 104.643 17.7534 104.99 17.9175C105.34 18.0815 105.728 18.1636 106.152 18.1636C106.621 18.1636 107.002 18.1248 107.293 18.0474C107.585 17.9653 107.813 17.8696 107.977 17.7603C108.141 17.6463 108.266 17.5392 108.353 17.439V15.2104H106.049V14.144H109.665ZM115.957 10.0288L112.662 19.1001H111.316L115.11 9.14697H115.978L115.957 10.0288ZM118.719 19.1001L115.417 10.0288L115.397 9.14697H116.265L120.073 19.1001H118.719ZM118.548 15.4155V16.4956H112.956V15.4155H118.548ZM127.862 18.0269V19.1001H122.885V18.0269H127.862ZM123.145 9.14697V19.1001H121.826V9.14697H123.145ZM130.647 9.14697L133.04 12.9614L135.432 9.14697H136.97L133.826 14.0757L137.045 19.1001H135.494L133.04 15.2104L130.586 19.1001H129.034L132.253 14.0757L129.109 9.14697H130.647ZM145.313 18.0269V19.1001H140.043V18.0269H145.313ZM140.309 9.14697V19.1001H138.99V9.14697H140.309ZM144.616 13.4263V14.4995H140.043V13.4263H144.616ZM145.245 9.14697V10.2271H140.043V9.14697H145.245Z" fill="#1C95E7"/>
    <path d="M161.667 6.6001V8.26676H164.658L156.467 16.4584L157.642 17.6334L165.833 9.44176V12.4334H167.5V6.6001M165.833 19.9334H154.167V8.26676H160V6.6001H154.167C153.725 6.6001 153.301 6.77569 152.988 7.08825C152.676 7.40081 152.5 7.82474 152.5 8.26676V19.9334C152.5 20.3755 152.676 20.7994 152.988 21.1119C153.301 21.4245 153.725 21.6001 154.167 21.6001H165.833C166.275 21.6001 166.699 21.4245 167.012 21.1119C167.324 20.7994 167.5 20.3755 167.5 19.9334V14.1001H165.833V19.9334Z" fill="#1C95E7"/>
    <rect x="0.5" y="0.600098" width="175" height="27" rx="1.5" stroke="url(#paint0_linear_10306_84894)"/>
    <defs>
        <linearGradient id="paint0_linear_10306_84894" x1="0" y1="0.100098" x2="176.504" y2="24.4502" gradientUnits="userSpaceOnUse">
            <stop stop-color="#28A0F0"/>
            <stop offset="1" stop-color="#0678C4" stop-opacity="0.9917"/>
        </linearGradient>
    </defs>
</svg>
