<svg width="26" height="24" viewBox="0 0 26 24" fill="none" xmlns="http://www.w3.org/2000/svg">
    <path d="M2.66667 0C1.95942 0 1.28115 0.280951 0.781048 0.781048C0.280951 1.28115 0 1.95942 0 2.66667V21.3333C0 22.0406 0.280951 22.7189 0.781048 23.219C1.28115 23.719 1.95942 24 2.66667 24H21.3333C22.0406 24 22.7189 23.719 23.2189 23.219C23.719 22.7189 24 22.0406 24 21.3333V18.2933C24.403 18.0607 24.7382 17.7265 24.9721 17.3242C25.206 16.9219 25.3305 16.4654 25.3333 16V8C25.3305 7.53463 25.206 7.0781 24.9721 6.67578C24.7382 6.27345 24.403 5.93935 24 5.70667V2.66667C24 1.95942 23.719 1.28115 23.2189 0.781048C22.7189 0.280951 22.0406 0 21.3333 0H2.66667ZM2.66667 2.66667H21.3333V5.33333H13.3333C12.6261 5.33333 11.9478 5.61428 11.4477 6.11438C10.9476 6.61448 10.6667 7.29276 10.6667 8V16C10.6667 16.7072 10.9476 17.3855 11.4477 17.8856C11.9478 18.3857 12.6261 18.6667 13.3333 18.6667H21.3333V21.3333H2.66667V2.66667ZM13.3333 8H22.6667V16H13.3333V8ZM17.3333 10C16.8029 10 16.2942 10.2107 15.9191 10.5858C15.544 10.9609 15.3333 11.4696 15.3333 12C15.3333 12.5304 15.544 13.0391 15.9191 13.4142C16.2942 13.7893 16.8029 14 17.3333 14C17.8638 14 18.3725 13.7893 18.7475 13.4142C19.1226 13.0391 19.3333 12.5304 19.3333 12C19.3333 11.4696 19.1226 10.9609 18.7475 10.5858C18.3725 10.2107 17.8638 10 17.3333 10Z" fill="white"/>
</svg>
