<svg width="30" height="22" viewBox="0 0 30 22" fill="none" xmlns="http://www.w3.org/2000/svg">
    <path d="M18.9987 0.333496C21.8277 0.333496 24.5408 1.4573 26.5412 3.45769C28.5416 5.45808 29.6654 8.17119 29.6654 11.0002C29.6654 13.8291 28.5416 16.5422 26.5412 18.5426C24.5408 20.543 21.8277 21.6668 18.9987 21.6668C16.1697 21.6668 13.4566 20.543 11.4562 18.5426C9.45584 16.5422 8.33203 13.8291 8.33203 11.0002C8.33203 8.17119 9.45584 5.45808 11.4562 3.45769C13.4566 1.4573 16.1697 0.333496 18.9987 0.333496M18.9987 19.0002C21.1204 19.0002 23.1553 18.1573 24.6556 16.657C26.1558 15.1567 26.9987 13.1219 26.9987 11.0002C26.9987 8.87843 26.1558 6.8436 24.6556 5.34331C23.1553 3.84302 21.1204 3.00016 18.9987 3.00016C16.877 3.00016 14.8421 3.84302 13.3418 5.34331C11.8416 6.8436 10.9987 8.87843 10.9987 11.0002C10.9987 13.1219 11.8416 15.1567 13.3418 16.657C14.8421 18.1573 16.877 19.0002 18.9987 19.0002ZM2.9987 11.0002C2.99864 12.6534 3.51164 14.266 4.46692 15.6153C5.4222 16.9646 6.77268 17.9843 8.33203 18.5335V21.3202C3.73203 20.1335 0.332031 15.9735 0.332031 11.0002C0.332031 6.02683 3.73203 1.86683 8.33203 0.680163V3.46683C5.22537 4.56016 2.9987 7.52016 2.9987 11.0002Z" fill="white"/>
</svg>
