<svg width="16" height="16" viewBox="0 0 16 16" fill="none" xmlns="http://www.w3.org/2000/svg">
    <path d="M9.66667 0.600098V2.26676H12.6583L4.46667 10.4584L5.64167 11.6334L13.8333 3.44176V6.43343H15.5V0.600098M13.8333 13.9334H2.16667V2.26676H8V0.600098H2.16667C1.72464 0.600098 1.30072 0.775692 0.988155 1.08825C0.675595 1.40081 0.5 1.82474 0.5 2.26676V13.9334C0.5 14.3755 0.675595 14.7994 0.988155 15.1119C1.30072 15.4245 1.72464 15.6001 2.16667 15.6001H13.8333C14.2754 15.6001 14.6993 15.4245 15.0118 15.1119C15.3244 14.7994 15.5 14.3755 15.5 13.9334V8.1001H13.8333V13.9334Z" fill="url(#paint0_linear_10340_18842)"/>
    <defs>
        <linearGradient id="paint0_linear_10340_18842" x1="0.5" y1="0.600098" x2="15.8218" y2="0.936379" gradientUnits="userSpaceOnUse">
            <stop stop-color="#28A0F0"/>
            <stop offset="1" stop-color="#0678C4" stop-opacity="0.9917"/>
        </linearGradient>
    </defs>
</svg>
