<?xml version="1.0" encoding="UTF-8"?>
<!DOCTYPE svg PUBLIC "-//W3C//DTD SVG 1.1//EN" "http://www.w3.org/Graphics/SVG/1.1/DTD/svg11.dtd">
<svg xmlns="http://www.w3.org/2000/svg" version="1.1" width="104px" height="100px" style="shape-rendering:geometricPrecision; text-rendering:geometricPrecision; image-rendering:optimizeQuality; fill-rule:evenodd; clip-rule:evenodd" xmlns:xlink="http://www.w3.org/1999/xlink">
<g><path style="opacity:0.977" fill="#082a6b" d="M 39.5,-0.5 C 45.5,-0.5 51.5,-0.5 57.5,-0.5C 53.7231,5.78374 49.7231,11.9504 45.5,18C 46.056,18.3826 46.3893,18.8826 46.5,19.5C 42.1667,19.5 37.8333,19.5 33.5,19.5C 33.5,22.5 33.5,25.5 33.5,28.5C 35.0419,29.1635 36.7086,29.8302 38.5,30.5C 36.351,34.2737 34.0177,37.9404 31.5,41.5C 30.8333,49.9904 30.1666,58.3237 29.5,66.5C 29.5,50.8333 29.5,35.1667 29.5,19.5C 27.2972,19.6036 25.2972,20.2702 23.5,21.5C 26.7482,15.7358 30.2482,10.0691 34,4.5C 34.4696,3.42317 34.3029,2.42317 33.5,1.5C 35.6976,1.12487 37.6976,0.458201 39.5,-0.5 Z"/></g>
<g><path style="opacity:0.975" fill="#0a245b" d="M 57.5,-0.5 C 58.8333,-0.5 60.1667,-0.5 61.5,-0.5C 68.0265,1.42991 74.0265,4.42991 79.5,8.5C 78.5497,12.3006 76.883,15.8006 74.5,19C 75.056,19.3826 75.3893,19.8826 75.5,20.5C 65.8859,19.5514 56.2193,19.2181 46.5,19.5C 46.3893,18.8826 46.056,18.3826 45.5,18C 49.7231,11.9504 53.7231,5.78374 57.5,-0.5 Z"/></g>
<g><path style="opacity:0.993" fill="#072a6f" d="M 33.5,1.5 C 34.3029,2.42317 34.4696,3.42317 34,4.5C 30.2482,10.0691 26.7482,15.7358 23.5,21.5C 22.4955,22.6828 21.6622,24.0161 21,25.5C 20.5001,37.4954 20.3335,49.4954 20.5,61.5C 19.5041,61.4142 18.6708,61.7476 18,62.5C 15.9164,66.3359 13.583,70.0026 11,73.5C 9.99136,75.0249 9.49136,76.6916 9.5,78.5C 5.36073,73.2172 2.52739,67.2172 1,60.5C -2.74638,32.6499 8.08695,12.9833 33.5,1.5 Z"/></g>
<g><path style="opacity:1" fill="#1d8dd9" d="M 46.5,19.5 C 56.2193,19.2181 65.8859,19.5514 75.5,20.5C 78.6818,22.1927 80.3484,24.8593 80.5,28.5C 64.8333,28.5 49.1667,28.5 33.5,28.5C 33.5,25.5 33.5,22.5 33.5,19.5C 37.8333,19.5 42.1667,19.5 46.5,19.5 Z"/></g>
<g><path style="opacity:1" fill="#39abf8" d="M 29.5,66.5 C 26.5,66.5 23.5,66.5 20.5,66.5C 20.5,64.8333 20.5,63.1667 20.5,61.5C 20.3335,49.4954 20.5001,37.4954 21,25.5C 21.6622,24.0161 22.4955,22.6828 23.5,21.5C 25.2972,20.2702 27.2972,19.6036 29.5,19.5C 29.5,35.1667 29.5,50.8333 29.5,66.5 Z"/></g>
<g><path style="opacity:1" fill="#0b265c" d="M 33.5,28.5 C 49.1667,28.5 64.8333,28.5 80.5,28.5C 73.011,29.329 65.3443,29.829 57.5,30C 56.0268,32.4476 54.6935,34.9476 53.5,37.5C 51.5,37.5 49.5,37.5 47.5,37.5C 47.5,40.1667 47.5,42.8333 47.5,45.5C 44.8333,45.5 42.1667,45.5 39.5,45.5C 39.5,47.8333 39.5,50.1667 39.5,52.5C 42.1667,52.5 44.8333,52.5 47.5,52.5C 47.1984,55.0593 47.5318,57.3926 48.5,59.5C 48.5,59.8333 48.5,60.1667 48.5,60.5C 46.595,63.3269 44.595,66.1602 42.5,69C 51.0101,69.1706 59.3434,69.6706 67.5,70.5C 61.5,70.5 55.5,70.5 49.5,70.5C 39.8333,70.5 30.1667,70.5 20.5,70.5C 20.9319,74.5897 22.9319,77.5897 26.5,79.5C 24.5,82.8333 22.5,86.1667 20.5,89.5C 15.8547,86.8547 12.188,83.1881 9.5,78.5C 9.49136,76.6916 9.99136,75.0249 11,73.5C 13.583,70.0026 15.9164,66.3359 18,62.5C 18.6708,61.7476 19.5041,61.4142 20.5,61.5C 20.5,63.1667 20.5,64.8333 20.5,66.5C 23.5,66.5 26.5,66.5 29.5,66.5C 30.1666,58.3237 30.8333,49.9904 31.5,41.5C 34.0177,37.9404 36.351,34.2737 38.5,30.5C 36.7086,29.8302 35.0419,29.1635 33.5,28.5 Z"/></g>
<g><path style="opacity:1" fill="#0d214d" d="M 79.5,8.5 C 85.1667,12.1667 89.8333,16.8333 93.5,22.5C 89.4138,29.0069 85.0804,35.3402 80.5,41.5C 80.5,38.5 80.5,35.5 80.5,32.5C 77.5,32.5 74.5,32.5 71.5,32.5C 71.5,45.8333 71.5,59.1667 71.5,72.5C 70.396,74.3885 69.0627,76.0552 67.5,77.5C 67.5,75.1667 67.5,72.8333 67.5,70.5C 59.3434,69.6706 51.0101,69.1706 42.5,69C 44.595,66.1602 46.595,63.3269 48.5,60.5C 50.5,60.5 52.5,60.5 54.5,60.5C 54.5,57.8333 54.5,55.1667 54.5,52.5C 57.1667,52.5 59.8333,52.5 62.5,52.5C 62.5,50.1667 62.5,47.8333 62.5,45.5C 59.8333,45.5 57.1667,45.5 54.5,45.5C 54.8064,42.6146 54.4731,39.9479 53.5,37.5C 54.6935,34.9476 56.0268,32.4476 57.5,30C 65.3443,29.829 73.011,29.329 80.5,28.5C 80.3484,24.8593 78.6818,22.1927 75.5,20.5C 75.3893,19.8826 75.056,19.3826 74.5,19C 76.883,15.8006 78.5497,12.3006 79.5,8.5 Z"/></g>
<g><path style="opacity:0.982" fill="#0f1c3b" d="M 93.5,22.5 C 100.333,35.0354 102.333,48.3687 99.5,62.5C 92.9682,61.5298 86.6349,62.5298 80.5,65.5C 80.5,57.5 80.5,49.5 80.5,41.5C 85.0804,35.3402 89.4138,29.0069 93.5,22.5 Z"/></g>
<g><path style="opacity:0.995" fill="#0b7bc7" d="M 80.5,41.5 C 80.5,49.5 80.5,57.5 80.5,65.5C 77.2139,67.4512 74.2139,69.7846 71.5,72.5C 71.5,59.1667 71.5,45.8333 71.5,32.5C 74.5,32.5 77.5,32.5 80.5,32.5C 80.5,35.5 80.5,38.5 80.5,41.5 Z"/></g>
<g><path style="opacity:1" fill="#2391dc" d="M 48.5,59.5 C 47.5318,57.3926 47.1984,55.0593 47.5,52.5C 44.8333,52.5 42.1667,52.5 39.5,52.5C 39.5,50.1667 39.5,47.8333 39.5,45.5C 42.1667,45.5 44.8333,45.5 47.5,45.5C 48.4682,43.3926 48.8016,41.0593 48.5,38.5C 50.1667,38.5 51.8333,38.5 53.5,38.5C 53.5,45.5 53.5,52.5 53.5,59.5C 51.8333,59.5 50.1667,59.5 48.5,59.5 Z"/></g>
<g><path style="opacity:1" fill="#1471b7" d="M 53.5,37.5 C 54.4731,39.9479 54.8064,42.6146 54.5,45.5C 57.1667,45.5 59.8333,45.5 62.5,45.5C 62.5,47.8333 62.5,50.1667 62.5,52.5C 59.8333,52.5 57.1667,52.5 54.5,52.5C 54.5,55.1667 54.5,57.8333 54.5,60.5C 52.5,60.5 50.5,60.5 48.5,60.5C 48.5,60.1667 48.5,59.8333 48.5,59.5C 50.1667,59.5 51.8333,59.5 53.5,59.5C 53.5,52.5 53.5,45.5 53.5,38.5C 51.8333,38.5 50.1667,38.5 48.5,38.5C 48.8016,41.0593 48.4682,43.3926 47.5,45.5C 47.5,42.8333 47.5,40.1667 47.5,37.5C 49.5,37.5 51.5,37.5 53.5,37.5 Z"/></g>
<g><path style="opacity:1" fill="#2b9de9" d="M 49.5,70.5 C 49.7359,73.6085 49.4025,76.6085 48.5,79.5C 41.1667,79.5 33.8333,79.5 26.5,79.5C 22.9319,77.5897 20.9319,74.5897 20.5,70.5C 30.1667,70.5 39.8333,70.5 49.5,70.5 Z"/></g>
<g><path style="opacity:1" fill="#1a8ad6" d="M 49.5,70.5 C 55.5,70.5 61.5,70.5 67.5,70.5C 67.5,72.8333 67.5,75.1667 67.5,77.5C 67.6716,78.4916 67.3382,79.1583 66.5,79.5C 60.5,79.5 54.5,79.5 48.5,79.5C 49.4025,76.6085 49.7359,73.6085 49.5,70.5 Z"/></g>
<g><path style="opacity:0.934" fill="#168bd9" d="M 86.5,73.5 C 90.7504,76.0786 94.417,79.4119 97.5,83.5C 97.1667,84.5 96.5,85.1667 95.5,85.5C 93.5171,84.018 91.6837,82.3513 90,80.5C 89.501,84.8206 89.3343,89.1539 89.5,93.5C 88.1667,93.5 86.8333,93.5 85.5,93.5C 85.6657,89.1539 85.499,84.8206 85,80.5C 83.3163,82.3513 81.4829,84.018 79.5,85.5C 78.5,85.1667 77.8333,84.5 77.5,83.5C 80.5222,80.1467 83.5222,76.8134 86.5,73.5 Z"/></g>
<g><path style="opacity:0.983" fill="#0d1f48" d="M 26.5,79.5 C 33.8333,79.5 41.1667,79.5 48.5,79.5C 54.5,79.5 60.5,79.5 66.5,79.5C 64.6008,85.3014 64.2675,91.1347 65.5,97C 63.8251,97.9853 62.1585,98.8186 60.5,99.5C 53.8333,99.5 47.1667,99.5 40.5,99.5C 34.3281,97.7117 28.3281,95.2117 22.5,92C 21.6195,91.2917 20.9528,90.4584 20.5,89.5C 22.5,86.1667 24.5,82.8333 26.5,79.5 Z"/></g>
</svg>
