<svg width="27" height="26" fill="none" xmlns="http://www.w3.org/2000/svg"><path d="M24.028 19.887a1.048 1.048 0 0 1-.049.037l-.05.035a3.7 3.7 0 0 1-.098.066l-.012.007c-.026.018-.055.034-.083.05a6.337 6.337 0 0 1-1.017.471c-.289.108-.582.2-.877.283-.424.118-.854.216-1.286.302-.42.084-.842.156-1.266.218a30.817 30.817 0 0 1-1.694.198c-.28.026-.56.048-.84.067l-.422.027c-.314.018-.628.031-.942.041-.057.002-.114.005-.172.006l-.158.005c.13-.159.258-.317.376-.485.016-.02.034-.041.05-.064.265-.357.52-.722.763-1.094.026 0 .05-.003.075-.004.154-.01.308-.018.463-.03a31.608 31.608 0 0 0 2.797-.307c.237-.037.472-.077.707-.12a17.455 17.455 0 0 0 1.626-.376c.117-.034.234-.07.351-.106.06-.017.117-.037.175-.056.087.015.17.052.25.083l.218.083c.205.082.407.172.602.274.078.04.153.083.227.13.1.06.196.122.286.195.027.02.034.03.024.042a.14.14 0 0 1-.025.022h.001z" fill="#F1ECE2"/><path d="M16.442 23.656a.058.058 0 0 1-.051.005l.012-.006c.007-.003.013-.003.02-.003.006 0 .014.001.02.004zM16.374 23.661a.09.09 0 0 1-.065.003c.02-.013.043-.012.065-.003zM16.29 23.664a.095.095 0 0 1-.063.004c.02-.013.043-.012.063-.004zM16.208 23.668a.08.08 0 0 1-.063.003h.003c.02-.01.041-.01.062-.003h-.002zM16.08 23.667a.088.088 0 0 1 .044.004.083.083 0 0 1-.065.003.06.06 0 0 1 .02-.007h.002zM16.012 23.67c.01 0 .022.001.032.006a.086.086 0 0 1-.064.003.062.062 0 0 1 .032-.01zM15.944 23.674l.014.005a.08.08 0 0 1-.063.003.064.064 0 0 1 .046-.008h.002zM15.878 23.681a.115.115 0 0 1-.077.003.106.106 0 0 1 .077-.003zM15.783 23.685a.086.086 0 0 1-.064.003.07.07 0 0 1 .064-.003zM21.256 18.705c.01.002.023.002.033.003.015 0 .028.005.039.018a.222.222 0 0 1-.082-.022h.011v.001z" fill="#5E93FF"/><path d="m9.371 25.586.006.014h-.436l.008-.014h.422z" fill="#3180F4"/><path d="M22.444 19.058a10.635 10.635 0 0 1-.526.162c-.536.152-1.08.274-1.627.376a31.39 31.39 0 0 1-3.503.427l-.464.03c-.025 0-.049.003-.074.004.168-.256.33-.516.49-.78.228-.38.444-.768.652-1.159.394.034.788.074 1.183.123.03.003.057.01.087.014.176.013.351.04.525.065a26.455 26.455 0 0 1 1.573.279l.484.106a.22.22 0 0 0 .082.022c.345.09.69.181 1.027.294.031.01.067.013.09.04v-.003z" fill="#FDBF41"/><path d="M10.973 21.599c.139.01.278.022.418.03-.14-.008-.279-.02-.418-.03z" fill="#F1ECE2"/><path d="M6.519 24.71a.032.032 0 0 1-.027-.013h.015l.004.003h.002l.004.006.002.003zM6.492 24.697c-.01 0-.021-.002-.027-.012h.007s.014.005.018.012h.002zM6.462 24.684c-.012 0-.022 0-.028-.014.011 0 .02.002.026.012l.002.002zM6.437 24.669c-.012 0-.024.003-.027-.012.012-.003.022 0 .028.012h-.001zM6.329 24.6a.389.389 0 0 0 .025.014l.02.009c.01.006.02.012.027.022l.008.012a.166.166 0 0 1-.096-.042l.017-.014H6.33z" fill="#404A5A"/><path d="m8.829 23.425-.09.014a3.126 3.126 0 0 1-.352.028H8.27l-.12-.003c-.017 0-.033-.003-.05-.005l-.05-.006a.09.09 0 0 1-.055-.025 3.822 3.822 0 0 1-.135-.13c.324.047.647.089.97.127z" fill="#F1ECE2"/><path d="M13.915 17.97c-.233 0-.466.003-.697.007a18.199 18.199 0 0 1-1.552 2.073c-.25.284-.51.558-.784.82-.239.23-.486.45-.746.656-.201.162-.409.316-.625.458-.4.264-.816.49-1.265.657a3.975 3.975 0 0 1-.7.191.29.29 0 0 0-.038.012c0 .004.001.009.003.012 0 .003 0 .004.003.007l.052.077c.035.05.072.101.11.15.059.073.12.142.185.21.323.048.646.09.97.128.085-.013.171-.03.257-.05a4.505 4.505 0 0 0 .855-.298c.092-.042.183-.088.272-.134l.115-.062c.269-.148.527-.313.773-.49.247-.179.485-.371.714-.573l.098-.087.073-.067c.148-.135.292-.274.433-.417l.163-.167a15.872 15.872 0 0 0 .814-.924c.011-.014.023-.03.035-.043a18.71 18.71 0 0 0 1.093-1.515 29.627 29.627 0 0 0 .383-.615 44.589 44.589 0 0 0-.996-.012l.002-.004z" fill="#F1ECE2"/><path d="M5.063 24.06c-.01.001-.02 0-.024-.012.012-.003.02 0 .024.012z" fill="#C18B00"/><path d="M11.944 18.019c-.166.007-.332.016-.498.026-.182.258-.37.512-.566.76-.193.242-.39.481-.598.712-.117.132-.237.261-.357.39a11.141 11.141 0 0 1-1.395 1.244 7.241 7.241 0 0 1-.904.578c-.175.095-.356.18-.54.257 0 .008 0 .017.003.026a5.086 5.086 0 0 0 .176.414c.066.135.138.265.22.393.006.01.015.016.022.023l.038-.011c.24-.04.473-.109.7-.192.45-.164.867-.392 1.265-.656a8.67 8.67 0 0 0 .625-.459c.258-.206.506-.425.746-.655a13.215 13.215 0 0 0 1.076-1.163c.455-.55.873-1.13 1.26-1.73-.424.007-.85.02-1.273.041v.002z" fill="#FDBF41"/><path d="M20.289 11.631c.013 0 .028 0 .02-.02.005 0 .013 0 .018.002-.004 0-.007 0-.008.003-.006.005-.006.014-.005.023-.009 0-.016 0-.025-.002h-.015a.592.592 0 0 1-.102-.016c.04-.003.078.012.117.013v-.003z" fill="#E7AA24"/><path d="m8.182 19.674.05.01c-.326.314-.667.609-1.031.878-.134.098-.266.198-.41.28-.026-.115-.038-.232-.051-.348a9.475 9.475 0 0 1-.064-1.122l.273.064a20.65 20.65 0 0 0 1.233.24v-.002z" fill="#F1ECE2"/><path d="M9.67 18.198a3.02 3.02 0 0 1-.115.012 14.864 14.864 0 0 1-1.324 1.473.31.31 0 0 1 .039.008l-.04-.006c-.326.314-.667.61-1.032.88-.133.097-.265.196-.409.28 0 .016.002.03.005.047v.013c.002.018.007.036.01.053l.007.043c.008.036.014.073.021.109.042.206.09.409.153.609.028.09.05.182.095.265.183-.077.364-.161.54-.256a7.047 7.047 0 0 0 .904-.578 10.732 10.732 0 0 0 1.394-1.244 15.245 15.245 0 0 0 .955-1.103c.196-.248.384-.501.567-.76-.592.037-1.183.087-1.772.152l.003.003z" fill="#F10"/><path d="M8.27 19.69c-.013-.002-.026-.005-.04-.006l.039.005h.001z" fill="#F1ECE2"/><path d="m8.234 19.682-.05-.009.05.01zM7.75 19.6z" fill="#F10"/><path d="M9.303 18.245c.084-.017.169-.026.253-.035-.384.488-.794.953-1.238 1.39-.028.029-.056.055-.086.083l-.05-.008a21.767 21.767 0 0 1-1.233-.24l-.273-.064a13.624 13.624 0 0 1 .016-.678c.308-.074.618-.138.931-.197.532-.1 1.067-.182 1.604-.249.009 0 .018-.003.025-.003.01 0 .02-.003.03-.001.006 0 .012 0 .018.003h.003z" fill="#FDBF41"/><path d="m18.794 11.426.933.114a.039.039 0 0 1-.008.01l-.58-.072c-.055-.007-.112-.012-.168-.018-.056-.006-.113-.012-.168-.023-.003-.003-.006-.008-.01-.01h.002z" fill="#007FFF"/><path d="m17.273 12.391.035-.133-.035.133zM26.2 18.633V17.35a1.077 1.077 0 0 0-.131-.34 1.692 1.692 0 0 0-.393-.44 4.12 4.12 0 0 0-.52-.354c-.252-.14-.515-.26-.777-.38-.048-.02-.095-.03-.142-.05a14.04 14.04 0 0 0-1.827-.557 23.58 23.58 0 0 0-1.198-.255c-.45-.084-.902-.157-1.356-.22a39.722 39.722 0 0 0-.94-.117l-.42-.044a45.148 45.148 0 0 0-3.42-.209l-.07-.001c-.493-.01-.988-.014-1.482-.01h-.023c-.509.004-1.017.016-1.526.036-.03 0-.06.003-.09.005a42.86 42.86 0 0 0-1.801.114c-.88.074-1.758.175-2.633.313l-.062.01c-.034.119-.064.239-.107.354l-.089.356c-.08.314-.153.632-.216.949l.133-.022.175-.03a33.39 33.39 0 0 1 2.145-.28 44.896 44.896 0 0 1 1.59-.128c.3-.018.6-.034.9-.046l.232-.01c.114-.005.23-.007.345-.012l.223-.006c.27-.006.54-.01.812-.013.102 0 .203 0 .305-.002a65.015 65.015 0 0 1 .918.006c.185.003.37.008.554.014.186.006.37.011.555.019.03 0 .06.003.092.004a38.207 38.207 0 0 1 1.05.058 35.078 35.078 0 0 1 1.338.11l.452.044c.242.024.482.054.724.085.24.031.48.067.72.102l.3.046a26.179 26.179 0 0 1 1.937.388c.262.066.525.134.783.211.345.102.686.215 1.021.348.085.033.168.069.25.104.127.055.251.114.374.175.03.015.061.03.09.046l.072.036c.03.014.062.03.093.048.039.021.077.044.114.069.14.096.282.187.411.296.03.025.06.052.087.079a1.375 1.375 0 0 1 .335.418c.014.026.026.055.038.083a.846.846 0 0 1 .03.086l.02.062v.003-.003c.016-.086.006-.173.007-.26l-.003-.005z" fill="#F1ECE2"/><path d="M26.203 17.181v-.97c0-.15-.001-.3-.003-.448-.025-.085-.043-.171-.083-.252a1.574 1.574 0 0 0-.412-.509 3.466 3.466 0 0 0-.602-.408 7.223 7.223 0 0 0-.962-.438 13.552 13.552 0 0 0-1.168-.376 21.07 21.07 0 0 0-1.957-.436 30.158 30.158 0 0 0-1.095-.174c-.174-.024-.347-.048-.52-.069-.389-.05-.779-.093-1.169-.127-.072-.006-.143-.018-.216-.022-.295-.022-.59-.045-.884-.065l-.126-.01a25.99 25.99 0 0 0-1.358-.069h-.007c-.267-.009-.535-.02-.802-.024a53.772 53.772 0 0 0-.707-.007h-.312c-.413 0-.825.006-1.239.018h-.018c-.484.014-.97.034-1.452.065-.373.024-.745.044-1.117.075-.15.014-.3.032-.45.046-.524.052-1.045.113-1.567.187l-.018.003a21.593 21.593 0 0 0-.56 1.641l-.012.042c.02-.003.041-.008.062-.01.873-.138 1.75-.24 2.633-.313.6-.05 1.2-.088 1.801-.115.03 0 .06-.002.09-.004.509-.02 1.017-.033 1.526-.037h.024c.495-.005.988 0 1.482.01a39.74 39.74 0 0 1 1.007.034l.596.03a45.453 45.453 0 0 1 2.307.191c.313.036.626.074.939.117.454.063.906.135 1.357.22a22 22 0 0 1 1.197.255c.62.151 1.232.326 1.827.557.047.018.095.03.142.05.262.12.525.238.777.38.184.102.353.224.52.353.159.123.286.274.393.442.067.105.104.22.13.34.01-.057.005-.113.005-.17l.001-.003z" fill="#FDBF41"/><path d="M17.03 4.948c.215.337.371.7.49 1.08a6.47 6.47 0 0 1 .218.96l.025.178c.015.118.028.239.038.359l.014.179c.022.326.03.652.022.978a13.97 13.97 0 0 1-.202 2.036c-.034.201-.07.402-.11.602a35.434 35.434 0 0 0-1.437-.088c.105-.452.194-.909.264-1.368.077-.51.13-1.021.15-1.534.017-.438.015-.875-.02-1.312a8.053 8.053 0 0 0-.157-1.083 5.295 5.295 0 0 0-.39-1.163 4.975 4.975 0 0 0-.236-.429c.068-.022.14-.023.208-.03a1.36 1.36 0 0 1 .11-.01l.093-.004h.151c.036 0 .071.003.107.004.027 0 .055.003.081.005l.014.001a.16.16 0 0 1 .076.043 3.182 3.182 0 0 1 .202.208c.107.121.204.25.29.387v.001z" fill="#F1ECE2"/><path d="M16.323 5.937c.078.357.127.717.157 1.082.036.437.039.875.02 1.312-.018.514-.073 1.026-.15 1.534-.07.461-.159.917-.264 1.369l-.355-.017c-.27-.01-.54-.016-.809-.022l-.3-.006a18.05 18.05 0 0 0 .48-2.542 13.681 13.681 0 0 0 .08-1.247 9.825 9.825 0 0 0-.08-1.43 7.031 7.031 0 0 0-.141-.767 4.965 4.965 0 0 0-.18-.599c.052-.032.111-.049.168-.07.115-.042.232-.08.35-.112.118-.033.238-.06.36-.08l.025-.005c.005 0 .01 0 .015.002.083.14.166.282.236.428.177.372.302.762.39 1.164l-.002.006z" fill="#FDBF41"/><path d="M19.714 5.275s-.003-.002-.003-.004v-.003l.004.003v.004h-.001z" fill="#3180F4"/><path d="m26.198 20.432.002-.06v-1.003l-.002-.433c0-.008.004-.017.002-.026l-.007-.015-.02-.062a.836.836 0 0 0-.03-.086c-.012-.028-.024-.057-.038-.083a1.314 1.314 0 0 0-.099-.166 1.308 1.308 0 0 0-.236-.252 1.088 1.088 0 0 0-.087-.079c-.129-.11-.271-.2-.41-.296a1.09 1.09 0 0 0-.115-.069l-.093-.049-.071-.035c-.03-.015-.061-.03-.09-.046a8.514 8.514 0 0 0-.625-.279 11.354 11.354 0 0 0-1.021-.348 17.885 17.885 0 0 0-1.303-.33 23.142 23.142 0 0 0-1.717-.314c-.24-.037-.48-.072-.72-.103-.24-.033-.482-.061-.724-.085l-.452-.044c-.007 0-.015 0-.022-.002-.21-.02-.42-.04-.63-.058a46.575 46.575 0 0 0-1.141-.079l-.595-.029c-.031 0-.061-.003-.092-.004a34.221 34.221 0 0 0-1.109-.033l-.205-.003-.19-.001-.523-.002c-.102 0-.204 0-.305.002-.271.001-.541.006-.812.013-.075.002-.149.003-.223.006l-.345.012-.231.01a41.604 41.604 0 0 0-3.435.28 33.4 33.4 0 0 0-.942.132l-.259.042-.175.03-.133.022c.063-.319.136-.635.216-.949l.089-.356c.043-.115.073-.236.107-.354l.012-.042a22.053 22.053 0 0 1 1.29-3.326c.355-.731.747-1.441 1.182-2.13.406-.645.85-1.263 1.335-1.852.01-.012.017-.025.026-.039.146-.167.29-.336.439-.5a11.402 11.402 0 0 1 1.588-1.471c.142-.107.29-.21.436-.313a.096.096 0 0 1 .046-.012c.007-.02.026-.03.043-.041.299-.192.609-.362.936-.498l.036-.015.012-.003h.012c.052-.033.11-.05.167-.07a3.72 3.72 0 0 1 .71-.193l.025-.004.015.001c.069-.022.14-.023.208-.03a1.36 1.36 0 0 1 .11-.01l.093-.004h.151c.036 0 .071.003.107.004.027 0 .055.003.082.005a.11.11 0 0 1 .037.009.16.16 0 0 1 .051.035 3.182 3.182 0 0 1 .203.208c.107.121.204.25.291.387.215.336.37.7.49 1.08a6.47 6.47 0 0 1 .217.96 9.572 9.572 0 0 1 .064.537c.004.059.01.12.013.179.023.326.031.652.023.978a13.97 13.97 0 0 1-.202 2.035 20.56 20.56 0 0 1-.111.602c.052.005.104.008.157.012.375.031.75.068 1.123.104-.002-.003-.005-.007-.01-.01l.933.114a.039.039 0 0 1-.008.009l.056.007a17.484 17.484 0 0 0 .359-2.926c0-.017-.007-.039.018-.046l-.001-.707c-.014-.005-.014-.017-.015-.029-.003-.047-.01-.094-.01-.142a9.42 9.42 0 0 0-.088-1.021 7.826 7.826 0 0 0-.23-1.11c-.025-.09-.047-.183-.087-.269l-.01-.031-.002-.005v-.003L19.7 5.23a4.69 4.69 0 0 0-.618-1.222 3.112 3.112 0 0 0-.962-.888c-.145-.084-.302-.143-.452-.219-.013-.006-.031-.006-.046-.009-.013-.018-.034-.022-.052-.03-.351-.155-.703-.31-1.055-.467-.046-.019-.086-.05-.138-.056l-.025-.009c-.06-.02-.122-.032-.18-.06l-.015-.006a.011.011 0 0 1-.007-.003h-.002s-.01.001-.014-.005a3.385 3.385 0 0 0-.59-.092 4.646 4.646 0 0 0-.332 0 3.45 3.45 0 0 0-.328.03c-.191.027-.38.067-.566.118-.027.008-.054.015-.08.024a5.833 5.833 0 0 0-1.011.412 8.32 8.32 0 0 0-.607.347l-.093.06-.092.06a3.984 3.984 0 0 0-.182.128l-.09.065v.006l-.004.004c-.001.002-.006.003-.01.003v.005l-.003.006H12.138c-.132.092-.26.19-.387.29-.056.045-.111.09-.166.137-.009.007-.018.014-.025.022a8.022 8.022 0 0 0-.168.145v.005c0 .003-.001.006-.004.008H11.379c-.002.003-.005.006-.006.01l-.009.008a.056.056 0 0 1-.016.008c0 .007-.002.01-.005.013-.004.003-.013 0-.019.002-.02.022-.043.042-.064.065l-.004.004v.003c0 .003-.002.005-.003.008 0 0-.005.003-.009.001l-.058.046-.004.004-.206.196-.014.013c-.02.021-.043.042-.065.061-.055.05-.111.1-.163.153l-.084.086a15.45 15.45 0 0 0-1.057 1.173l-.08.097a.066.066 0 0 0-.012.017c-.006.007-.01.016-.017.023-.007.01-.013.023-.02.032l-.017.022-.006.006c-.008.009-.017.017-.028.025l-.001.004c0 .002 0 .003-.002.005l-.003.003-.006.003c-.004.022-.022.032-.037.047l-.003.003-.011.013c0 .003-.003.005-.003.008l-.003.009v.004c0 .005-.002.006-.005.01h-.004l-.003.002-.104.13-.006.006v.015c0 .003-.001.006-.004.01v.002l-.01.008c-.004.003-.01.004-.014.005l-.016.018-.006.006-.014.015-.265.356c0 .003-.002.006-.005.009h-.001s-.004.004-.006.004c-.06.086-.123.17-.184.258l-.035.052c-.09.132-.174.267-.266.399l-.132.198a3.561 3.561 0 0 1-.135.198c-.075.103-.14.216-.207.327l-.086.143c-.32.532-.632 1.07-.897 1.632a.718.718 0 0 1-.052.093c-.018.031-.037.06-.052.094-.09.182-.18.364-.264.548l-.094.206c-.042.09-.082.18-.122.271l-.151.347-.062.147c-.027.06-.052.121-.078.184-.089.216-.174.434-.258.653l-.072.193c-.058.156-.113.313-.168.469l-.04.112c-.01.03-.019.06-.03.088-.025.074-.05.15-.072.224l-.084.274c-.021.065-.04.13-.063.196-.047.145-.104.29-.121.444 0 .008-.01.015-.015.023-.024.063-.037.129-.053.195l-.027.094c-.01.03-.02.062-.028.093a20.293 20.293 0 0 0-.404 1.841l-.041.255a12.3 12.3 0 0 0-.049.325c-.013.098-.027.194-.039.292-.032.267-.059.535-.08.805a12.045 12.045 0 0 0-.027.462l-.014.463v.138c0 .197.007.394.013.59v.027a8.09 8.09 0 0 0 .074.82l.006.04c.027.195.057.39.095.583.071.36.166.715.295 1.059l.008.018c.096.255.209.502.346.738a3.454 3.454 0 0 0 .986 1.1c.043.03.088.055.132.081a.347.347 0 0 0 .025.014l.02.009c.01.006.02.012.028.022.003.003.004.007.007.012.012-.003.023 0 .028.012.012 0 .021.003.027.013h.008s.013.004.017.012h.015l.005.003h.001l.005.006c.014.016.035.02.053.028l1.17.517c.192.086.384.175.588.232.203.056.41.093.623.102h.421c.102-.003.203-.017.304-.031.409-.061.803-.183 1.183-.346.695-.3 1.323-.707 1.913-1.18.13-.104.257-.21.381-.319a48.222 48.222 0 0 0 2.564-.022.069.069 0 0 1 .063-.003h.02a.106.106 0 0 1 .077-.003h.019a.064.064 0 0 1 .046-.007h.003l.015.004h.019a.061.061 0 0 1 .031-.008c.01 0 .022.001.033.005h.019a.06.06 0 0 1 .02-.007.088.088 0 0 1 .044.004h.02c.021-.01.042-.01.063-.002h.018c.02-.014.043-.012.063-.005h.018c.02-.013.043-.012.065-.003h.018l.012-.006c.007-.003.013-.003.02-.003.007 0 .014.002.02.005.095-.005.19-.008.285-.014.727-.043 1.455-.1 2.18-.18a29.149 29.149 0 0 0 3.278-.534c.737-.168 1.463-.37 2.166-.652a5.813 5.813 0 0 0 1.08-.555c.205-.138.393-.292.545-.49.094-.125.171-.26.203-.417a.07.07 0 0 0 .017-.043 1.977 1.977 0 0 0 0-.338l-.002-.002zm-9.782-2.386zm-4.499 3.683-.098.088c-.23.201-.467.394-.714.572a7.711 7.711 0 0 1-.773.49c-.038.022-.077.042-.115.063a4.627 4.627 0 0 1-.55.25 4.58 4.58 0 0 1-.577.181c-.086.021-.172.037-.258.05-.03.005-.06.011-.09.014a3.126 3.126 0 0 1-.352.028h-.118c-.04 0-.079-.001-.119-.003-.018 0-.034-.003-.05-.004l-.05-.006a.09.09 0 0 1-.055-.025c-.046-.043-.092-.086-.135-.13a2.75 2.75 0 0 1-.347-.438c-.002-.001-.002-.004-.003-.007a.028.028 0 0 0-.003-.012c-.008-.008-.016-.014-.022-.023a4.905 4.905 0 0 1-.313-.598 4.04 4.04 0 0 1-.083-.21c-.003-.008-.003-.017-.003-.026-.045-.085-.068-.177-.095-.265a6.209 6.209 0 0 1-.153-.61c-.007-.037-.015-.072-.02-.108l-.008-.043-.01-.053v-.014l-.005-.047c-.026-.116-.038-.233-.052-.348a9.477 9.477 0 0 1-.063-1.123 13.626 13.626 0 0 1 .016-.677c.308-.074.618-.138.93-.197.533-.101 1.068-.183 1.605-.25l.025-.002c.01 0 .02-.003.03-.002.006 0 .012 0 .018.003.084-.018.169-.026.253-.035l.116-.012a35.584 35.584 0 0 1 2.27-.178 40.708 40.708 0 0 1 2.964-.037c-.071.12-.145.239-.22.357l-.162.258a18.646 18.646 0 0 1-1.128 1.558 14.418 14.418 0 0 1-1.41 1.508c.046.001.09.004.136.006-.046-.002-.09-.005-.136-.006l-.073.066v-.003zm.789-.037zm11.346-1.828s-.011.012-.025.023a1 1 0 0 1-.049.037l-.05.035c-.033.023-.065.045-.098.066l-.012.007c-.027.018-.055.034-.083.05a6.342 6.342 0 0 1-1.017.471c-.289.108-.582.2-.877.282a17.34 17.34 0 0 1-1.286.303c-.42.084-.842.156-1.266.218a31.01 31.01 0 0 1-1.694.198 40.3 40.3 0 0 1-.84.067l-.422.027c-.314.018-.628.031-.942.041l-.172.006-.158.005c.13-.159.258-.317.375-.485a22.823 22.823 0 0 0 .777-1.101l.097-.149a23.614 23.614 0 0 0 1.082-1.848c.394.034.788.074 1.183.123.03.003.058.009.087.013.177.014.352.04.525.065a26.45 26.45 0 0 1 1.573.279l.485.107h.01l.033.003c.014 0 .028.004.038.017.346.09.69.181 1.027.294.032.01.067.013.09.04.088.015.17.052.252.083l.217.083c.205.082.407.172.602.274a3.46 3.46 0 0 1 .513.325c.027.02.034.03.024.041h.001z" fill="#007FFF"/><path d="M26.207 14.24a.92.92 0 0 0-.188-.501 2.192 2.192 0 0 0-.565-.527 6.091 6.091 0 0 0-1.171-.597 10.63 10.63 0 0 0-.69-.248 14.982 14.982 0 0 0-1.074-.299 26.645 26.645 0 0 0-2.201-.431c-.01 0-.017 0-.026-.002h-.015a.592.592 0 0 1-.102-.016l-.249-.04-.145-.02c-.02-.004-.037-.007-.056-.008-.193-.024-.387-.046-.58-.072-.056-.007-.113-.011-.17-.017-.056-.006-.112-.012-.167-.024-.375-.034-.748-.073-1.123-.104a35.407 35.407 0 0 0-1.127-.076c-.156-.007-.311-.014-.467-.023-.119-.006-.236-.012-.354-.016-.27-.01-.54-.017-.81-.023l-.3-.005c-.17-.004 0 0 0 0s.185-.745.259-1.121a18.2 18.2 0 0 0 .148-.85 14.939 14.939 0 0 0 .127-1.174c.014-.215.023-.43.027-.645a9.825 9.825 0 0 0-.081-1.43 7.056 7.056 0 0 0-.141-.767 4.983 4.983 0 0 0-.18-.599h-.011c-.005 0-.008 0-.012.003l-.036.015a6.366 6.366 0 0 0-.937.498c-.016.01-.035.02-.043.042.072.453.106.909.11 1.368.006.657-.043 1.31-.132 1.958-.068.49-.157.976-.267 1.456-.095.418-.204.832-.326 1.242-.295.004-.588.012-.883.023-.392.013-.783.03-1.175.056-.345.022-.69.044-1.034.074-.448.039-.896.083-1.34.138a23.266 23.266 0 0 0-.73 1.686 36.78 36.78 0 0 1 1.585-.19c.148-.015.298-.033.45-.046.37-.031.743-.052 1.115-.076.484-.03.969-.05 1.453-.065h.018c.414-.012.826-.018 1.24-.018h.31c.236 0 .472.003.708.008.267.004.535.014.802.023h.007c.257.01.512.018.768.031.197.01.394.024.59.04l.126.008c.295.02.59.043.884.065.072.006.143.016.216.022.39.035.78.079 1.168.128a30.722 30.722 0 0 1 1.616.243 21.07 21.07 0 0 1 1.957.436c.396.107.784.233 1.168.375.332.123.652.268.962.439.214.117.417.249.602.407.168.146.314.307.412.509.039.08.056.167.083.252 0-.168.003-.335.003-.503v-.747c0-.09.003-.18 0-.271l-.006.006z" fill="#F10"/><path d="M16.355 2.337c-.06-.019-.121-.032-.18-.06 0-.008 0-.017.002-.024.071.022.14.052.203.093l-.025-.009zM16.146 2.265l.007.004h-.002s-.01.002-.014-.004h.009zM8.89 6.803s0 .006-.004.009h-.001l-.006.004v-.003s.003-.007.006-.009l.004-.001h.002zM9.214 6.393l-.01.008c-.002.003-.008.004-.013.006v-.014s.003-.007.006-.01l.01-.009c.002-.003.007-.004.011-.006v.015c0 .003-.001.006-.004.009v.003-.002z" fill="#404A5A"/><path d="M9.336 6.227H9.33l-.003.003.012-.015v.005c0 .004-.002.006-.004.009v-.002zM9.4 6.132s.003-.007.006-.008c.001 0 .003 0 .004-.002l-.001.005-.002.004-.003.003-.006.003v-.005H9.4z" fill="#215CB5"/><path d="M14.938 1.712c.014-.006.025 0 .032.012-.013.003-.027.006-.033-.012z" fill="#FEC35E"/><path d="m11.238 4.167.014-.012v.003c0 .003-.002.004-.003.007 0 0-.005.003-.01.002zM11.33 4.075l.014-.005c0 .008-.002.01-.004.014-.005.003-.014 0-.02.001a.035.035 0 0 1 .01-.01zM11.388 4.036s-.001.006-.004.01H11.375a.11.11 0 0 0 .012-.016v.005l.001.001zM12.162 3.424l-.003.004c-.002.002-.006.003-.01.003l.013-.013v.006zM12.149 3.432v.003l-.003.006H12.137l.013-.008-.001-.001z" fill="#404A5A"/><path d="m16.172 2.249-1.158-.516c-.014-.008-.03 0-.044-.01-.013.002-.027.005-.033-.013-.016.008-.03 0-.045-.004a2.977 2.977 0 0 0-1.035-.114 4.333 4.333 0 0 0-1.346.305 5.65 5.65 0 0 0-.402.172l-.098.048-.114.057-.151.08a8.308 8.308 0 0 0-.765.476l-.154.109-.03.022a12.168 12.168 0 0 0-1.205 1.014 17.426 17.426 0 0 0-2.043 2.363l-.048.066s0 .006-.002.008a.011.011 0 0 1-.008.003l-.164.236c-.092.13-.183.262-.272.395-.084.126-.167.255-.25.383a34.834 34.834 0 0 0-.36.582 21.064 21.064 0 0 0-.344.593.193.193 0 0 1-.015.023.049.049 0 0 1-.006.022l-.01.015-.103.188a27.512 27.512 0 0 0-.53 1.021 26.201 26.201 0 0 0-1.272 3.085c-.103.303-.196.608-.288.913l-.11.379-.003.008a22.08 22.08 0 0 0-.283 1.139c-.034.154-.065.31-.096.465a2.907 2.907 0 0 0-.021.112l-.009.044a.053.053 0 0 1-.003.016l-.018.09a17.426 17.426 0 0 0-.206 1.44l-.015.159v.012l-.008.098c-.01.132-.021.264-.029.395-.007.132-.013.266-.017.398 0 .018 0 .034-.002.052A11.627 11.627 0 0 0 3.1 20.06a8.972 8.972 0 0 0 .16 1.06c.083.387.194.766.347 1.133l.032.077a6.377 6.377 0 0 0 .117.252c.05.096.1.19.155.283a3.633 3.633 0 0 0 .705.86c.11.096.227.183.352.262.023.015.05.024.068.046.003.003.004.007.006.01.011-.003.02 0 .023.012.05.012.088.045.132.064.237.105.475.21.71.316l.407.178.017-.015a4.072 4.072 0 0 1-.132-.082 3.454 3.454 0 0 1-.986-1.1 4.855 4.855 0 0 1-.346-.738l-.008-.018a6.714 6.714 0 0 1-.295-1.058 9.524 9.524 0 0 1-.095-.583l-.006-.041a9.61 9.61 0 0 1-.068-.715l-.006-.105v-.027c-.007-.197-.014-.393-.013-.59v-.138l.015-.462.012-.231a18.486 18.486 0 0 1 .095-1.036c.011-.099.025-.195.038-.293a12.3 12.3 0 0 1 .05-.324c.012-.086.027-.17.04-.255l.052-.29.072-.364c.028-.138.057-.277.089-.415a20.225 20.225 0 0 1 .191-.772l.028-.094c.009-.031.02-.062.027-.093.016-.066.03-.132.053-.196.006-.007.013-.013.015-.022.02-.154.074-.298.121-.445l.063-.196.084-.274.073-.224.03-.087.04-.113c.056-.155.11-.313.167-.468.024-.064.047-.13.073-.193a24.844 24.844 0 0 1 .335-.838l.062-.146.151-.347a22.338 22.338 0 0 1 .48-1.026l.052-.094c.018-.03.036-.06.052-.093.266-.562.577-1.1.897-1.632l.086-.142c.067-.112.13-.224.208-.328.047-.064.09-.13.135-.197.042-.067.085-.134.131-.199.09-.132.175-.267.266-.399l.035-.051.184-.258v-.003s.003-.008.006-.01h.005a55.352 55.352 0 0 1 .278-.371l.006-.006.017-.018V6.385s.002-.008.005-.01l.01-.01c.002-.003.007-.004.011-.006.002-.001.005-.004.006-.007l.104-.129.012-.015.003-.009c0-.003.003-.004.003-.007a.095.095 0 0 1 .012-.014l.003-.002c.014-.014.034-.026.037-.048v-.004a.01.01 0 0 1 .005-.01h.005a.228.228 0 0 0 .028-.026l.006-.006a.213.213 0 0 0 .016-.022c.008-.01.015-.02.021-.031.006-.008.01-.017.016-.024l.012-.016.08-.098a16.552 16.552 0 0 1 1.057-1.173l.085-.086c.053-.053.108-.102.163-.152l.065-.061.013-.014.207-.195.004-.005c.018-.016.038-.03.058-.046l.013-.011.005-.005.063-.065a.035.035 0 0 1 .01-.01c.005-.003.01-.003.015-.005a.024.024 0 0 0 .017-.007l.009-.01c.003-.002.004-.005.006-.008a.104.104 0 0 0 .011-.015 7.8 7.8 0 0 1 .168-.145l.025-.022.166-.137c.126-.1.255-.199.387-.29l.014-.008.013-.015.09-.065a12.987 12.987 0 0 1 .275-.188l.093-.06a8.19 8.19 0 0 1 .606-.346c.325-.168.66-.309 1.011-.412.027-.008.054-.015.08-.024a4.37 4.37 0 0 1 .567-.119 3.45 3.45 0 0 1 .576-.032 2.833 2.833 0 0 1 .332.028c.114.016.229.037.341.066h.01c.002 0 .004.003.007.005.003 0 .004.001.007.003l.015.006.001-.024-.006-.004.01.009z" fill="#F1ECE2"/><path d="M14.938 1.712c-.006-.024-.029-.027-.046-.034-.332-.148-.666-.295-1-.442-.088-.038-.174-.084-.266-.116-.01.006-.021.006-.033.002a2.78 2.78 0 0 0-.706-.128c-.219-.013-.438 0-.656.03-.18.025-.356.062-.531.108-.34.09-.666.215-.98.37-.121.06-.239.128-.357.192-.04.02-.082.04-.12.062a9.441 9.441 0 0 0-.988.668c-.078.06-.16.12-.232.186-.048.043-.094.086-.146.123a.384.384 0 0 0-.056.043.056.056 0 0 1-.013.027.03.03 0 0 1-.012.006H8.787s-.004 0-.007-.002c-.003 0-.005.003-.006.005-.027.02-.043.053-.067.073l-.012.007c-.065.034-.105.096-.163.138-.056.04-.102.095-.154.142-.255.234-.497.483-.735.735-.073.078-.14.16-.21.24-.04.047-.085.087-.125.133-.109.124-.214.25-.32.376a4.69 4.69 0 0 0-.226.288c-.056.078-.123.148-.182.225-.183.233-.355.473-.527.713-.17.237-.326.482-.487.725-.146.218-.279.443-.417.666-.05.083-.096.169-.147.25-.089.142-.17.288-.247.436-.05.058-.077.127-.114.193-.077.135-.15.272-.217.413-.02.045-.052.085-.074.13-.062.125-.124.251-.188.376-.162.313-.304.636-.45.956-.161.347-.302.701-.443 1.057-.094.24-.19.482-.266.73-.012.04-.036.076-.05.116-.073.214-.148.427-.217.642a25.643 25.643 0 0 0-.345 1.173c-.102.373-.193.75-.272 1.128l-.06.303c-.067.342-.127.687-.176 1.033-.046.329-.083.66-.112.99l-.008.092v.084-.084a13.309 13.309 0 0 0-.044 1.171c0 .1.01.199.009.298 0 .153.012.304.02.455.003.056.006.111.012.168l.003.03c.018.145.03.291.05.437.02.14.04.281.066.422.037.194.072.39.133.58.02.059.03.121.046.182.036.134.079.264.126.393.068.185.146.366.232.544a3.9 3.9 0 0 0 .481.763c.18.224.384.421.62.587l.03.02a.61.61 0 0 0 .051.032l.03.018c.033.02.065.042.096.064.01.009.02.015.029.022 0 .002.001.003.003.005.006.007.016.009.025.011.405.18.81.36 1.217.539.016.007.031.017.052.013l-.006-.01c-.018-.023-.045-.032-.068-.046a2.938 2.938 0 0 1-.522-.423 3.636 3.636 0 0 1-.535-.7 4.026 4.026 0 0 1-.154-.283c-.03-.058-.057-.115-.085-.175l-.034-.075-.033-.077a6.448 6.448 0 0 1-.347-1.133 8.977 8.977 0 0 1-.16-1.06 11.635 11.635 0 0 1-.041-1.482l.001-.052c.005-.132.01-.266.018-.398.007-.131.018-.263.028-.395l.01-.098v-.012l.014-.159a20.268 20.268 0 0 1 .206-1.44l.018-.09c0-.005.001-.011.003-.016l.009-.044.02-.112c.032-.155.063-.31.097-.465a22.08 22.08 0 0 1 .283-1.139c0-.002 0-.005.003-.008a27.156 27.156 0 0 1 .397-1.291 25.114 25.114 0 0 1 .522-1.402c.23-.57.48-1.13.75-1.684a23.609 23.609 0 0 1 .53-1.021l.105-.188.009-.015c.004-.008.007-.013.005-.022l.015-.023c.037-.066.076-.131.113-.198a21.064 21.064 0 0 1 .399-.67 17.005 17.005 0 0 1 .443-.69c.089-.133.18-.263.271-.395l.165-.236v-.005L7.5 6.31a.011.011 0 0 1 .008-.002c.016-.023.03-.045.047-.067a17.426 17.426 0 0 1 2.043-2.363 12.169 12.169 0 0 1 1.205-1.014l.03-.022c.05-.038.102-.073.154-.109.248-.172.502-.332.765-.476l.151-.08.114-.057.098-.048c.132-.062.265-.12.402-.172.434-.167.88-.281 1.346-.305.351-.02.697.012 1.035.114.014.004.03.012.046.004l-.006-.001zM1.754 18.956v.022-.022z" fill="#FDBF41"/><path d="M7.491 6.308s.005-.003.008-.003c0 .003 0 .006-.003.007a.011.011 0 0 1-.008.003v-.004s0-.002.002-.003h.001zM8.785 2.785s.01-.009.018-.009c.004 0 .01 0 .016.002a.056.056 0 0 1-.013.027l-.012.005H8.785l-.008-.001a.05.05 0 0 1 .01-.022l-.002-.002z" fill="#C18B00"/><path d="M13.554 1.09c-.301-.136-.605-.266-.906-.404a2.904 2.904 0 0 0-1.08-.271H11.172c-.19.01-.378.038-.564.078a5.67 5.67 0 0 0-1.553.602 9.25 9.25 0 0 0-1.389.952c-.056.046-.115.087-.163.14-.004.002-.007.005-.01.01V2.2h-.006l-.037.03c-.483.413-.933.862-1.357 1.335A19.28 19.28 0 0 0 4.69 5.342a23.642 23.642 0 0 0-1.732 2.89 25.534 25.534 0 0 0-.941 2.07c-.295.736-.564 1.48-.781 2.242-.024.084-.054.167-.079.252a21.51 21.51 0 0 0-.452 1.903c-.102.544-.185 1.09-.239 1.641-.04.4-.067.8-.067 1.203 0 .182 0 .364.002.548.003.025.003.05.004.076l-.001.115c.001.223.02.444.041.665.036.36.09.719.17 1.071.099.444.235.873.43 1.286.21.44.474.84.83 1.175.208.196.438.36.696.48.23.109.463.21.694.312.159.07.316.145.479.209l-.028-.022a1.362 1.362 0 0 0-.097-.066l-.03-.017a1.056 1.056 0 0 1-.051-.033l-.03-.02a3.022 3.022 0 0 1-.62-.586 3.897 3.897 0 0 1-.481-.764 6.51 6.51 0 0 1-.232-.544l-.051-.05.051.05a4.48 4.48 0 0 1-.126-.393c-.016-.06-.026-.123-.046-.182-.06-.19-.094-.386-.133-.58-.027-.139-.046-.281-.065-.422-.021-.145-.033-.292-.05-.438 0-.01-.002-.019-.004-.03v.56-.56c-.006-.054-.007-.11-.011-.167-.008-.15-.021-.302-.021-.455 0-.1-.01-.198-.01-.298.002-.209.004-.416.013-.625.007-.183.018-.364.032-.546l.008-.092a18.53 18.53 0 0 1 .348-2.326c.079-.38.17-.754.271-1.128a25.488 25.488 0 0 1 .346-1.173c.07-.214.144-.428.216-.641.014-.04.037-.078.05-.117.078-.248.173-.49.268-.73.14-.354.281-.71.441-1.057.147-.32.29-.643.451-.956.064-.125.127-.25.188-.377.022-.044.054-.083.074-.129.067-.14.14-.278.217-.413.037-.065.065-.135.114-.193a6.33 6.33 0 0 1 .248-.436c.051-.081.096-.169.146-.25.138-.223.272-.448.417-.666.161-.243.317-.488.488-.725.172-.24.345-.48.526-.713.06-.075.126-.145.182-.225.071-.1.145-.196.226-.288.106-.126.212-.252.32-.376.04-.046.084-.086.126-.132.07-.08.136-.163.209-.24.238-.252.48-.501.735-.736.052-.047.098-.1.154-.142.058-.041.098-.104.163-.138.005-.003.01-.004.012-.007.025-.02.04-.054.067-.073l.006-.004a.05.05 0 0 1 .009-.023.021.021 0 0 1 .017-.008l.017.001.025-.022c.012-.008.02-.015.031-.021.052-.037.098-.08.145-.123.075-.067.155-.126.233-.187.314-.244.646-.464.987-.667.039-.024.08-.041.12-.062.12-.064.236-.132.358-.191.314-.156.64-.28.98-.371.175-.046.351-.083.53-.108.218-.03.438-.042.657-.03.239.015.476.052.706.128.012.003.022.004.032-.002-.019-.02-.049-.02-.072-.032l.009-.002z" fill="#F10"/><path d="m8.795 2.698-.006-.005c.002 0 .005.003.006.005zM8.754 2.672l.024.014-.024-.014z" fill="#F10"/><path d="M11.567.415H11.17L11.164.4h.408c0 .004-.003.009-.005.015z" fill="#FEC35E"/><path d="M7.487 2.203h-.003v-.006h.006V2.2h-.003v.002z" fill="#C18B00"/><path opacity=".48" d="M24.042 19.875c.038-.03.038-.033 0-.064a2.505 2.505 0 0 0-.286-.196c-.33-.2-.684-.352-1.047-.486-.083-.03-.163-.067-.25-.083-.024-.027-.06-.03-.09-.04a15.275 15.275 0 0 0-1.028-.293.222.222 0 0 1-.082-.023 55.961 55.961 0 0 0-.485-.105c-.299-.065-.598-.122-.9-.172a35.439 35.439 0 0 0-.672-.105c-.175-.025-.35-.052-.527-.065l-.087-.014a33.817 33.817 0 0 0-1.856-.175 41.925 41.925 0 0 0-2.806-.095c-.659 0-1.315.017-1.972.048-.759.037-1.515.095-2.27.18-.123.013-.247.021-.37.047-.025-.006-.05 0-.074.003-.538.066-1.074.148-1.606.249-.314.059-.627.124-.938.198l-.006.01s-.08 1.157.098 2.287c.307.072.615.138.923.195.276.052.553.101.832.141.39.056.781.113 1.174.154.381.04.762.082 1.144.109.227.016.453.035.68.049a45.63 45.63 0 0 0 1.922.07 40.53 40.53 0 0 0 2.882-.06c.562-.031 1.12-.076 1.681-.133.852-.09 1.7-.207 2.541-.376.734-.146 1.46-.326 2.164-.585.307-.113.607-.24.893-.4.145-.08.284-.168.416-.27h.002z" fill="url(#a)"/><defs><linearGradient id="a" x1="15.405" y1="18.393" x2="15.297" y2="21.192" gradientUnits="userSpaceOnUse"><stop offset=".16" stop-color="#191919"/><stop offset=".97" stop-color="#191919" stop-opacity="0"/></linearGradient></defs></svg>