<svg width="24" height="24" viewBox="0 0 24 24" fill="none" xmlns="http://www.w3.org/2000/svg">
    <path d="M10.832 15.6003H13.1654V17.9336H10.832V15.6003ZM10.832 6.26693H13.1654V13.2669H10.832V6.26693ZM11.9987 0.433594C5.54703 0.433594 0.332031 5.68359 0.332031 12.1003C0.332031 15.1945 1.56119 18.1619 3.74912 20.3498C4.83247 21.4332 6.11859 22.2926 7.53406 22.8789C8.94952 23.4652 10.4666 23.7669 11.9987 23.7669C15.0929 23.7669 18.0604 22.5378 20.2483 20.3498C22.4362 18.1619 23.6654 15.1945 23.6654 12.1003C23.6654 10.5682 23.3636 9.05109 22.7773 7.63562C22.191 6.22016 21.3316 4.93403 20.2483 3.85068C19.1649 2.76733 17.8788 1.90797 16.4633 1.32167C15.0479 0.735361 13.5308 0.433594 11.9987 0.433594ZM11.9987 21.4336C9.52334 21.4336 7.14937 20.4503 5.39903 18.6999C3.6487 16.9496 2.66536 14.5756 2.66536 12.1003C2.66536 9.62491 3.6487 7.25094 5.39903 5.5006C7.14937 3.75026 9.52334 2.76693 11.9987 2.76693C14.4741 2.76693 16.848 3.75026 18.5984 5.5006C20.3487 7.25094 21.332 9.62491 21.332 12.1003C21.332 14.5756 20.3487 16.9496 18.5984 18.6999C16.848 20.4503 14.4741 21.4336 11.9987 21.4336Z" fill="url(#paint0_linear_10340_50217)"/>
    <defs>
        <linearGradient id="paint0_linear_10340_50217" x1="0.332031" y1="0.433594" x2="24.166" y2="0.956699" gradientUnits="userSpaceOnUse">
            <stop stop-color="#28A0F0"/>
            <stop offset="1" stop-color="#0678C4" stop-opacity="0.9917"/>
        </linearGradient>
    </defs>
</svg>
