<svg width="24" height="20" viewBox="0 0 24 20" fill="none" xmlns="http://www.w3.org/2000/svg">
    <path d="M17.8333 18.2655H2.66667C2.35725 18.2655 2.0605 18.1425 1.84171 17.9238C1.62292 17.705 1.5 17.4082 1.5 17.0988V3.0988C1.5 2.78938 1.62292 2.49263 1.84171 2.27384C2.0605 2.05505 2.35725 1.93213 2.66667 1.93213H17.8333M17.8333 18.2655H21.3333C21.6428 18.2655 21.9395 18.1425 22.1583 17.9238C22.3771 17.705 22.5 17.4082 22.5 17.0988V3.0988C22.5 2.78938 22.3771 2.49263 22.1583 2.27384C21.9395 2.05505 21.6428 1.93213 21.3333 1.93213H17.8333M17.8333 18.2655V17.0988M17.8333 1.93213V3.0988M17.8333 6.59996V6.5988M17.8333 10.1V10.0988M17.8333 13.6V13.5988" stroke="url(#paint0_linear_10306_84872)" stroke-width="2" stroke-linecap="round" stroke-linejoin="round"/>
    <path d="M6.16406 11.2668L8.4974 13.6001L13.1641 6.6001" stroke="url(#paint1_linear_10306_84872)" stroke-width="2" stroke-linecap="round" stroke-linejoin="round"/>
    <defs>
        <linearGradient id="paint0_linear_10306_84872" x1="1.5" y1="1.93213" x2="22.9438" y2="2.53725" gradientUnits="userSpaceOnUse">
            <stop stop-color="#28A0F0"/>
            <stop offset="1" stop-color="#0678C4" stop-opacity="0.9917"/>
        </linearGradient>
        <linearGradient id="paint1_linear_10306_84872" x1="6.16406" y1="6.6001" x2="13.3143" y2="6.75703" gradientUnits="userSpaceOnUse">
            <stop stop-color="#28A0F0"/>
            <stop offset="1" stop-color="#0678C4" stop-opacity="0.9917"/>
        </linearGradient>
    </defs>
</svg>
