<svg width="23" height="22" viewBox="0 0 23 22" fill="none" xmlns="http://www.w3.org/2000/svg">
    <path d="M2.83333 0.600098C2.21449 0.600098 1.621 0.84593 1.18342 1.28352C0.745833 1.7211 0.5 2.31459 0.5 2.93343V19.2668C0.5 19.8856 0.745833 20.4791 1.18342 20.9167C1.621 21.3543 2.21449 21.6001 2.83333 21.6001H19.1667C19.7855 21.6001 20.379 21.3543 20.8166 20.9167C21.2542 20.4791 21.5 19.8856 21.5 19.2668V16.6068C21.8527 16.4032 22.1459 16.1108 22.3506 15.7588C22.5552 15.4068 22.6642 15.0073 22.6667 14.6001V7.6001C22.6642 7.1929 22.5552 6.79343 22.3506 6.4414C22.1459 6.08937 21.8527 5.79703 21.5 5.59343V2.93343C21.5 2.31459 21.2542 1.7211 20.8166 1.28352C20.379 0.84593 19.7855 0.600098 19.1667 0.600098H2.83333ZM2.83333 2.93343H19.1667V5.26676H12.1667C11.5478 5.26676 10.9543 5.5126 10.5168 5.95018C10.0792 6.38777 9.83333 6.98126 9.83333 7.6001V14.6001C9.83333 15.2189 10.0792 15.8124 10.5168 16.25C10.9543 16.6876 11.5478 16.9334 12.1667 16.9334H19.1667V19.2668H2.83333V2.93343ZM12.1667 7.6001H20.3333V14.6001H12.1667V7.6001ZM15.6667 9.3501C15.2025 9.3501 14.7574 9.53447 14.4292 9.86266C14.101 10.1908 13.9167 10.636 13.9167 11.1001C13.9167 11.5642 14.101 12.0093 14.4292 12.3375C14.7574 12.6657 15.2025 12.8501 15.6667 12.8501C16.1308 12.8501 16.5759 12.6657 16.9041 12.3375C17.2323 12.0093 17.4167 11.5642 17.4167 11.1001C17.4167 10.636 17.2323 10.1908 16.9041 9.86266C16.5759 9.53447 16.1308 9.3501 15.6667 9.3501Z" fill="url(#paint0_linear_10340_39987)"/>
    <defs>
        <linearGradient id="paint0_linear_10340_39987" x1="0.5" y1="0.600098" x2="23.141" y2="1.12463" gradientUnits="userSpaceOnUse">
            <stop stop-color="#28A0F0"/>
            <stop offset="1" stop-color="#0678C4" stop-opacity="0.9917"/>
        </linearGradient>
    </defs>
</svg>
