<svg width="24" height="16" viewBox="0 0 24 16" fill="none" xmlns="http://www.w3.org/2000/svg">
    <path d="M0.5 0.100098V14.1001H12.54C12.2921 13.3472 12.1661 12.5595 12.1667 11.7668H5.16667C5.16667 11.1479 4.92083 10.5544 4.48325 10.1168C4.04566 9.67927 3.45217 9.43343 2.83333 9.43343V4.76676C4.12833 4.76676 5.16667 3.72843 5.16667 2.43343H16.8333C16.8333 3.05227 17.0792 3.64576 17.5168 4.08335C17.9543 4.52093 18.5478 4.76676 19.1667 4.76676V4.83677C19.9483 4.83677 20.73 4.97676 21.5 5.23343V0.100098H0.5ZM11 3.6001C9.01667 3.6351 7.5 5.11676 7.5 7.1001C7.5 9.08343 9.01667 10.5301 11 10.6001C11.4433 10.6001 11.8983 10.5068 12.33 10.3318C12.645 9.04843 13.17 7.8351 14.465 6.6451C14.325 5.09343 12.855 3.5651 11 3.6001ZM22.235 7.4151L17.72 11.9651L16.145 10.3668L14.5 12.0234L17.7083 15.2668L23.8683 9.0601L22.235 7.4151Z" fill="url(#paint0_linear_10340_39635)"/>
    <defs>
        <linearGradient id="paint0_linear_10340_39635" x1="0.5" y1="0.100098" x2="24.3539" y2="0.906757" gradientUnits="userSpaceOnUse">
            <stop stop-color="#28A0F0"/>
            <stop offset="1" stop-color="#0678C4" stop-opacity="0.9917"/>
        </linearGradient>
    </defs>
</svg>
