<svg width="25" height="24" viewBox="0 0 25 24" fill="none" xmlns="http://www.w3.org/2000/svg">
    <path d="M8.58084 20.5714C16.2198 20.5714 20.3973 14.2405 20.3973 8.75056C20.3973 8.57077 20.3936 8.3918 20.3855 8.21357C21.1984 7.62519 21.8999 6.89669 22.4571 6.06221C21.713 6.39316 20.9122 6.61591 20.0722 6.71634C20.9296 6.20201 21.5879 5.38833 21.8985 4.41843C21.0832 4.90222 20.1913 5.24327 19.2613 5.42688C18.5034 4.61933 17.4245 4.11426 16.2298 4.11426C13.9363 4.11426 12.0765 5.97482 12.0765 8.26825C12.0765 8.5943 12.113 8.91135 12.1843 9.21556C8.73257 9.04181 5.67187 7.38861 3.62349 4.87482C3.25456 5.50885 3.06051 6.22944 3.06115 6.96299C3.06115 8.40439 3.79432 9.67681 4.90929 10.4213C4.24977 10.4011 3.60473 10.2229 3.0284 9.90162C3.02779 9.91906 3.02779 9.93605 3.02779 9.95469C3.02779 11.9667 4.45931 13.6466 6.35962 14.0273C6.00271 14.1245 5.63443 14.1737 5.26452 14.1734C4.99738 14.1734 4.73702 14.1471 4.484 14.0986C5.01272 15.7493 6.54587 16.9505 8.3636 16.9841C6.94216 18.0986 5.15158 18.7625 3.20548 18.7625C2.87443 18.7628 2.54364 18.7435 2.21484 18.7049C4.05286 19.8835 6.23532 20.5711 8.58104 20.5711" fill="white"/>
</svg>
