<?xml version="1.0" encoding="UTF-8"?>
<!DOCTYPE svg PUBLIC "-//W3C//DTD SVG 1.1//EN" "http://www.w3.org/Graphics/SVG/1.1/DTD/svg11.dtd">
<svg xmlns="http://www.w3.org/2000/svg" version="1.1" width="40px" height="40px" style="shape-rendering:geometricPrecision; text-rendering:geometricPrecision; image-rendering:optimizeQuality; fill-rule:evenodd; clip-rule:evenodd" xmlns:xlink="http://www.w3.org/1999/xlink">
<g><path style="opacity:0.974" fill="#e35e14" d="M 16.5,-0.5 C 19.5,-0.5 22.5,-0.5 25.5,-0.5C 25.5,0.166667 25.8333,0.5 26.5,0.5C 23.0702,1.70969 19.7369,1.37636 16.5,-0.5 Z"/></g>
<g><path style="opacity:1" fill="#f3780c" d="M 12.5,0.5 C 12.8333,0.5 13.1667,0.5 13.5,0.5C 15.6976,0.875132 17.6976,1.5418 19.5,2.5C 16.8127,2.66409 14.146,2.49742 11.5,2C 12.056,1.61742 12.3893,1.11742 12.5,0.5 Z"/></g>
<g><path style="opacity:1" fill="#ec7111" d="M 13.5,0.5 C 13.5,0.166667 13.5,-0.166667 13.5,-0.5C 14.5,-0.5 15.5,-0.5 16.5,-0.5C 19.7369,1.37636 23.0702,1.70969 26.5,0.5C 26.8333,0.5 27.1667,0.5 27.5,0.5C 27.5,1.5 27.5,2.5 27.5,3.5C 26.1667,3.5 24.8333,3.5 23.5,3.5C 22.4324,2.56552 21.099,2.23219 19.5,2.5C 17.6976,1.5418 15.6976,0.875132 13.5,0.5 Z"/></g>
<g><path style="opacity:1" fill="#f48717" d="M 12.5,0.5 C 12.3893,1.11742 12.056,1.61742 11.5,2C 14.146,2.49742 16.8127,2.66409 19.5,2.5C 21.099,2.23219 22.4324,2.56552 23.5,3.5C 22.8333,3.5 22.1667,3.5 21.5,3.5C 16.9691,3.14989 12.6358,3.81656 8.5,5.5C 8.06178,5.56544 7.72845,5.39877 7.5,5C 8.7101,3.9609 9.7101,2.79423 10.5,1.5C 10.8417,0.661754 11.5084,0.32842 12.5,0.5 Z"/></g>
<g><path style="opacity:1" fill="#f38b28" d="M 27.5,0.5 C 28.7095,0.932053 29.7095,1.59872 30.5,2.5C 30.6495,3.55198 30.4828,4.55198 30,5.5C 29.3292,4.74756 28.4959,4.41423 27.5,4.5C 25.5,4.5 23.5,4.5 21.5,4.5C 21.5,4.16667 21.5,3.83333 21.5,3.5C 22.1667,3.5 22.8333,3.5 23.5,3.5C 24.8333,3.5 26.1667,3.5 27.5,3.5C 27.5,2.5 27.5,1.5 27.5,0.5 Z"/></g>
<g><path style="opacity:1" fill="#f49b2a" d="M 10.5,1.5 C 9.7101,2.79423 8.7101,3.9609 7.5,5C 7.72845,5.39877 8.06178,5.56544 8.5,5.5C 8.5,5.83333 8.5,6.16667 8.5,6.5C 7.2946,7.68566 5.96126,7.68566 4.5,6.5C 5.86505,4.14016 7.86505,2.47349 10.5,1.5 Z"/></g>
<g><path style="opacity:1" fill="#f3920d" d="M 21.5,3.5 C 21.5,3.83333 21.5,4.16667 21.5,4.5C 19.076,4.19244 16.7427,4.52577 14.5,5.5C 15.6119,6.26515 16.2786,7.26515 16.5,8.5C 15.8333,8.5 15.5,8.83333 15.5,9.5C 14.8333,9.5 14.1667,9.5 13.5,9.5C 12.5,9.5 11.5,9.5 10.5,9.5C 10.7148,7.82124 10.0481,6.82124 8.5,6.5C 8.5,6.16667 8.5,5.83333 8.5,5.5C 12.6358,3.81656 16.9691,3.14989 21.5,3.5 Z"/></g>
<g><path style="opacity:1" fill="#f59813" d="M 21.5,4.5 C 23.5,4.5 25.5,4.5 27.5,4.5C 27.5,4.83333 27.5,5.16667 27.5,5.5C 24.8127,5.33591 22.146,5.50258 19.5,6C 20.056,6.38258 20.3893,6.88258 20.5,7.5C 19.209,7.26269 18.209,7.59603 17.5,8.5C 17.1667,8.5 16.8333,8.5 16.5,8.5C 16.2786,7.26515 15.6119,6.26515 14.5,5.5C 16.7427,4.52577 19.076,4.19244 21.5,4.5 Z"/></g>
<g><path style="opacity:1" fill="#f5a124" d="M 27.5,5.5 C 28.7095,5.93205 29.7095,6.59872 30.5,7.5C 27.1148,6.372 23.7814,6.372 20.5,7.5C 20.3893,6.88258 20.056,6.38258 19.5,6C 22.146,5.50258 24.8127,5.33591 27.5,5.5 Z"/></g>
<g><path style="opacity:1" fill="#ec9025" d="M 30.5,2.5 C 31.5,2.83333 32.1667,3.5 32.5,4.5C 31.6457,5.63163 31.6457,6.96497 32.5,8.5C 32.5,8.83333 32.5,9.16667 32.5,9.5C 31.8333,9.16667 31.1667,8.83333 30.5,8.5C 30.5,8.16667 30.5,7.83333 30.5,7.5C 29.7095,6.59872 28.7095,5.93205 27.5,5.5C 27.5,5.16667 27.5,4.83333 27.5,4.5C 28.4959,4.41423 29.3292,4.74756 30,5.5C 30.4828,4.55198 30.6495,3.55198 30.5,2.5 Z"/></g>
<g><path style="opacity:1" fill="#de8124" d="M 32.5,4.5 C 32.8333,4.5 33.1667,4.5 33.5,4.5C 33.427,6.02694 34.0937,7.02694 35.5,7.5C 35.5,7.83333 35.5,8.16667 35.5,8.5C 34.5,8.5 33.5,8.5 32.5,8.5C 31.6457,6.96497 31.6457,5.63163 32.5,4.5 Z"/></g>
<g><path style="opacity:0.569" fill="#fbd899" d="M 33.5,4.5 C 34.9063,4.97306 35.573,5.97306 35.5,7.5C 34.0937,7.02694 33.427,6.02694 33.5,4.5 Z"/></g>
<g><path style="opacity:1" fill="#f5980e" d="M 4.5,6.5 C 5.96126,7.68566 7.2946,7.68566 8.5,6.5C 10.0481,6.82124 10.7148,7.82124 10.5,9.5C 10.5,10.1667 10.1667,10.5 9.5,10.5C 9.15829,9.66175 8.49162,9.32842 7.5,9.5C 6.09982,8.89992 5.09982,7.89992 4.5,6.5 Z"/></g>
<g><path style="opacity:1" fill="#f2a933" d="M 30.5,7.5 C 30.5,7.83333 30.5,8.16667 30.5,8.5C 28.3742,8.84987 26.0408,8.84987 23.5,8.5C 21.5,8.5 19.5,8.5 17.5,8.5C 18.209,7.59603 19.209,7.26269 20.5,7.5C 23.7814,6.372 27.1148,6.372 30.5,7.5 Z"/></g>
<g><path style="opacity:1" fill="#f5a815" d="M 4.5,6.5 C 5.09982,7.89992 6.09982,8.89992 7.5,9.5C 6.5,9.83333 5.83333,10.5 5.5,11.5C 5.16667,11.5 4.83333,11.5 4.5,11.5C 3.62356,11.6309 2.95689,11.2975 2.5,10.5C 3.12723,9.58317 3.46056,8.58317 3.5,7.5C 3.5,6.83333 3.83333,6.5 4.5,6.5 Z"/></g>
<g><path style="opacity:1" fill="#d8b88e" d="M 15.5,9.5 C 15.5,8.83333 15.8333,8.5 16.5,8.5C 16.8333,8.5 17.1667,8.5 17.5,8.5C 19.5,8.5 21.5,8.5 23.5,8.5C 23.5,8.83333 23.5,9.16667 23.5,9.5C 22.209,9.26269 21.209,9.59603 20.5,10.5C 19.8333,10.5 19.1667,10.5 18.5,10.5C 17.791,9.59603 16.791,9.26269 15.5,9.5 Z"/></g>
<g><path style="opacity:1" fill="#edb13d" d="M 23.5,9.5 C 23.5,9.16667 23.5,8.83333 23.5,8.5C 26.0408,8.84987 28.3742,8.84987 30.5,8.5C 31.1667,8.83333 31.8333,9.16667 32.5,9.5C 32.5,9.83333 32.5,10.1667 32.5,10.5C 30.8333,10.5 29.1667,10.5 27.5,10.5C 26.609,9.89022 25.609,9.55688 24.5,9.5C 24.1667,9.5 23.8333,9.5 23.5,9.5 Z"/></g>
<g><path style="opacity:1" fill="#f3a21a" d="M 7.5,9.5 C 8.49162,9.32842 9.15829,9.66175 9.5,10.5C 9.16667,11.5 8.5,12.1667 7.5,12.5C 6.83333,12.1667 6.16667,11.8333 5.5,11.5C 5.83333,10.5 6.5,9.83333 7.5,9.5 Z"/></g>
<g><path style="opacity:1" fill="#f4edcc" d="M 15.5,9.5 C 16.791,9.26269 17.791,9.59603 18.5,10.5C 18.5,11.1667 18.5,11.8333 18.5,12.5C 17.8333,12.5 17.5,12.8333 17.5,13.5C 15.8235,12.8166 15.1568,11.4832 15.5,9.5 Z"/></g>
<g><path style="opacity:1" fill="#cd8d3a" d="M 32.5,8.5 C 33.5,8.5 34.5,8.5 35.5,8.5C 35.6107,9.11742 35.944,9.61742 36.5,10C 35.2625,10.2321 34.2625,10.7321 33.5,11.5C 32.8333,11.5 32.5,11.1667 32.5,10.5C 32.5,10.1667 32.5,9.83333 32.5,9.5C 32.5,9.16667 32.5,8.83333 32.5,8.5 Z"/></g>
<g><path style="opacity:1" fill="#f6e9c3" d="M 23.5,9.5 C 23.7678,11.099 23.4345,12.4324 22.5,13.5C 21.5987,12.7095 20.9321,11.7095 20.5,10.5C 21.209,9.59603 22.209,9.26269 23.5,9.5 Z"/></g>
<g><path style="opacity:1" fill="#c8a160" d="M 35.5,7.5 C 36.9063,7.97306 37.573,8.97306 37.5,10.5C 37.5,11.1667 37.5,11.8333 37.5,12.5C 36.3478,11.375 35.3478,11.375 34.5,12.5C 34.1667,12.5 33.8333,12.5 33.5,12.5C 33.5,12.1667 33.5,11.8333 33.5,11.5C 34.2625,10.7321 35.2625,10.2321 36.5,10C 35.944,9.61742 35.6107,9.11742 35.5,8.5C 35.5,8.16667 35.5,7.83333 35.5,7.5 Z"/></g>
<g><path style="opacity:1" fill="#f6c040" d="M 3.5,7.5 C 3.46056,8.58317 3.12723,9.58317 2.5,10.5C 2.95689,11.2975 3.62356,11.6309 4.5,11.5C 4.5,12.1667 4.5,12.8333 4.5,13.5C 3.04125,13.4326 1.70792,13.7659 0.5,14.5C 0.5,14.1667 0.5,13.8333 0.5,13.5C 0.460951,10.911 1.46095,8.91104 3.5,7.5 Z"/></g>
<g><path style="opacity:1" fill="#f1ad24" d="M 4.5,11.5 C 4.83333,11.5 5.16667,11.5 5.5,11.5C 6.16667,11.8333 6.83333,12.1667 7.5,12.5C 7.5,13.1667 7.5,13.8333 7.5,14.5C 6.83333,14.5 6.16667,14.5 5.5,14.5C 4.83333,14.5 4.5,14.1667 4.5,13.5C 4.5,12.8333 4.5,12.1667 4.5,11.5 Z"/></g>
<g><path style="opacity:1" fill="#f1d9a5" d="M 13.5,9.5 C 14.1667,9.5 14.8333,9.5 15.5,9.5C 15.1568,11.4832 15.8235,12.8166 17.5,13.5C 16.8333,14.5 16.1667,15.5 15.5,16.5C 13.7202,15.0101 13.0535,13.0101 13.5,10.5C 13.5,10.1667 13.5,9.83333 13.5,9.5 Z"/></g>
<g><path style="opacity:1" fill="#dbb54c" d="M 27.5,10.5 C 29.1667,10.5 30.8333,10.5 32.5,10.5C 32.5,11.1667 32.8333,11.5 33.5,11.5C 33.5,11.8333 33.5,12.1667 33.5,12.5C 32.5,13.1667 31.5,13.8333 30.5,14.5C 29.5,14.1667 28.8333,13.5 28.5,12.5C 28.1667,11.8333 27.8333,11.1667 27.5,10.5 Z"/></g>
<g><path style="opacity:1" fill="#908f68" d="M 37.5,12.5 C 37.5,13.1667 37.5,13.8333 37.5,14.5C 36.8333,14.5 36.5,14.8333 36.5,15.5C 35.8333,15.5 35.1667,15.5 34.5,15.5C 34.5,14.5 34.5,13.5 34.5,12.5C 35.3478,11.375 36.3478,11.375 37.5,12.5 Z"/></g>
<g><path style="opacity:1" fill="#ed9e20" d="M 10.5,9.5 C 11.5,9.5 12.5,9.5 13.5,9.5C 13.5,9.83333 13.5,10.1667 13.5,10.5C 12.8333,10.5 12.5,10.8333 12.5,11.5C 11.8826,11.6107 11.3826,11.944 11,12.5C 10.5034,14.8098 10.3367,17.1432 10.5,19.5C 10.5,21.1667 10.5,22.8333 10.5,24.5C 10.5,24.8333 10.5,25.1667 10.5,25.5C 9.5,25.1667 8.83333,24.5 8.5,23.5C 8.16667,22.8333 7.83333,22.1667 7.5,21.5C 7.5,19.1667 7.5,16.8333 7.5,14.5C 7.5,13.8333 7.5,13.1667 7.5,12.5C 8.5,12.1667 9.16667,11.5 9.5,10.5C 10.1667,10.5 10.5,10.1667 10.5,9.5 Z"/></g>
<g><path style="opacity:1" fill="#f4d591" d="M 23.5,9.5 C 23.8333,9.5 24.1667,9.5 24.5,9.5C 26.8563,11.8057 26.8563,14.139 24.5,16.5C 23.0937,16.0269 22.427,15.0269 22.5,13.5C 23.4345,12.4324 23.7678,11.099 23.5,9.5 Z"/></g>
<g><path style="opacity:1" fill="#edb55e" d="M 24.5,9.5 C 25.609,9.55688 26.609,9.89022 27.5,10.5C 27.8333,11.1667 28.1667,11.8333 28.5,12.5C 27.5655,13.5676 27.2322,14.901 27.5,16.5C 26.5,16.8333 25.8333,17.5 25.5,18.5C 24.8333,18.5 24.5,18.1667 24.5,17.5C 24.5,17.1667 24.5,16.8333 24.5,16.5C 26.8563,14.139 26.8563,11.8057 24.5,9.5 Z"/></g>
<g><path style="opacity:1" fill="#aeb064" d="M 33.5,12.5 C 33.8333,12.5 34.1667,12.5 34.5,12.5C 34.5,13.5 34.5,14.5 34.5,15.5C 32.7376,16.2623 31.7376,17.5956 31.5,19.5C 31.6716,20.4916 31.3382,21.1583 30.5,21.5C 30.5,19.8333 30.5,18.1667 30.5,16.5C 30.5,15.8333 30.5,15.1667 30.5,14.5C 31.5,13.8333 32.5,13.1667 33.5,12.5 Z"/></g>
<g><path style="opacity:0.992" fill="#f0ba30" d="M 4.5,13.5 C 4.5,14.1667 4.83333,14.5 5.5,14.5C 5.5,15.5 5.5,16.5 5.5,17.5C 4.18047,16.0582 2.5138,15.3915 0.5,15.5C 0.5,15.1667 0.5,14.8333 0.5,14.5C 1.70792,13.7659 3.04125,13.4326 4.5,13.5 Z"/></g>
<g><path style="opacity:1" fill="#e3a636" d="M 5.5,14.5 C 6.16667,14.5 6.83333,14.5 7.5,14.5C 7.5,16.8333 7.5,19.1667 7.5,21.5C 6.83333,21.5 6.16667,21.5 5.5,21.5C 5.5,21.1667 5.5,20.8333 5.5,20.5C 5.5,19.5 5.5,18.5 5.5,17.5C 5.5,16.5 5.5,15.5 5.5,14.5 Z"/></g>
<g><path style="opacity:1" fill="#f7c45f" d="M 12.5,11.5 C 12.6633,13.8568 12.4966,16.1902 12,18.5C 11.6174,19.056 11.1174,19.3893 10.5,19.5C 10.3367,17.1432 10.5034,14.8098 11,12.5C 11.3826,11.944 11.8826,11.6107 12.5,11.5 Z"/></g>
<g><path style="opacity:1" fill="#f1ce74" d="M 13.5,10.5 C 13.0535,13.0101 13.7202,15.0101 15.5,16.5C 15.5,16.8333 15.5,17.1667 15.5,17.5C 14.5987,18.2905 13.9321,19.2905 13.5,20.5C 12.5,21.8333 11.5,23.1667 10.5,24.5C 10.5,22.8333 10.5,21.1667 10.5,19.5C 11.1174,19.3893 11.6174,19.056 12,18.5C 12.4966,16.1902 12.6633,13.8568 12.5,11.5C 12.5,10.8333 12.8333,10.5 13.5,10.5 Z"/></g>
<g><path style="opacity:1" fill="#e99018" d="M 18.5,12.5 C 19.3764,12.3691 20.0431,12.7025 20.5,13.5C 19.1931,14.865 19.1931,16.1984 20.5,17.5C 18.8333,17.5 17.1667,17.5 15.5,17.5C 15.5,17.1667 15.5,16.8333 15.5,16.5C 16.1667,15.5 16.8333,14.5 17.5,13.5C 17.5,12.8333 17.8333,12.5 18.5,12.5 Z"/></g>
<g><path style="opacity:1" fill="#f08d39" d="M 28.5,12.5 C 28.8333,13.5 29.5,14.1667 30.5,14.5C 30.5,15.1667 30.5,15.8333 30.5,16.5C 29.6618,16.8417 29.3284,17.5084 29.5,18.5C 29.1667,18.5 28.8333,18.5 28.5,18.5C 28.1667,17.8333 27.8333,17.1667 27.5,16.5C 27.2322,14.901 27.5655,13.5676 28.5,12.5 Z"/></g>
<g><path style="opacity:0.494" fill="#e4d3a4" d="M 37.5,10.5 C 38.1667,11.5 38.8333,12.5 39.5,13.5C 39.5,14.8333 39.5,16.1667 39.5,17.5C 39.1667,17.5 38.8333,17.5 38.5,17.5C 38.5,17.1667 38.5,16.8333 38.5,16.5C 38.6716,15.5084 38.3382,14.8417 37.5,14.5C 37.5,13.8333 37.5,13.1667 37.5,12.5C 37.5,11.8333 37.5,11.1667 37.5,10.5 Z"/></g>
<g><path style="opacity:1" fill="#ebbe43" d="M 0.5,15.5 C 2.5138,15.3915 4.18047,16.0582 5.5,17.5C 5.5,18.5 5.5,19.5 5.5,20.5C 3.66754,19.7515 2.00087,18.7515 0.5,17.5C 0.5,16.8333 0.5,16.1667 0.5,15.5 Z"/></g>
<g><path style="opacity:1" fill="#e5831c" d="M 18.5,10.5 C 19.1667,10.5 19.8333,10.5 20.5,10.5C 20.9321,11.7095 21.5987,12.7095 22.5,13.5C 22.427,15.0269 23.0937,16.0269 24.5,16.5C 24.5,16.8333 24.5,17.1667 24.5,17.5C 23.1667,17.5 21.8333,17.5 20.5,17.5C 19.1931,16.1984 19.1931,14.865 20.5,13.5C 20.0431,12.7025 19.3764,12.3691 18.5,12.5C 18.5,11.8333 18.5,11.1667 18.5,10.5 Z"/></g>
<g><path style="opacity:1" fill="#7db280" d="M 34.5,15.5 C 35.1667,15.5 35.8333,15.5 36.5,15.5C 35.4489,16.2223 34.7822,17.2223 34.5,18.5C 33.391,18.5569 32.391,18.8902 31.5,19.5C 31.7376,17.5956 32.7376,16.2623 34.5,15.5 Z"/></g>
<g><path style="opacity:1" fill="#e4bf4c" d="M 0.5,17.5 C 2.00087,18.7515 3.66754,19.7515 5.5,20.5C 5.5,20.8333 5.5,21.1667 5.5,21.5C 2.41245,21.8034 0.745782,20.4701 0.5,17.5 Z"/></g>
<g><path style="opacity:1" fill="#f4ad20" d="M 27.5,16.5 C 27.8333,17.1667 28.1667,17.8333 28.5,18.5C 28.1667,19.5 27.5,20.1667 26.5,20.5C 25.6618,20.1583 25.3284,19.4916 25.5,18.5C 25.8333,17.5 26.5,16.8333 27.5,16.5 Z"/></g>
<g><path style="opacity:1" fill="#354b42" d="M 15.5,17.5 C 17.1667,17.5 18.8333,17.5 20.5,17.5C 21.8333,17.5 23.1667,17.5 24.5,17.5C 24.5,18.1667 24.8333,18.5 25.5,18.5C 25.3284,19.4916 25.6618,20.1583 26.5,20.5C 26.5,21.1667 26.5,21.8333 26.5,22.5C 22.4973,18.8844 18.164,18.551 13.5,21.5C 13.5,21.1667 13.5,20.8333 13.5,20.5C 13.9321,19.2905 14.5987,18.2905 15.5,17.5 Z"/></g>
<g><path style="opacity:1" fill="#245859" d="M 26.5,22.5 C 27.3382,22.8417 27.6716,23.5084 27.5,24.5C 26.609,23.8902 25.609,23.5569 24.5,23.5C 24.5,22.8333 24.1667,22.5 23.5,22.5C 21.7354,21.5386 19.7354,21.2053 17.5,21.5C 15.9382,21.7329 14.6049,22.3995 13.5,23.5C 13.5,22.8333 13.5,22.1667 13.5,21.5C 18.164,18.551 22.4973,18.8844 26.5,22.5 Z"/></g>
<g><path style="opacity:1" fill="#48a78d" d="M 34.5,18.5 C 34.5,19.1667 34.5,19.8333 34.5,20.5C 34.5,21.1667 34.5,21.8333 34.5,22.5C 33.2101,23.0577 32.3768,24.0577 32,25.5C 31.7679,24.2625 31.2679,23.2625 30.5,22.5C 30.5,22.1667 30.5,21.8333 30.5,21.5C 31.3382,21.1583 31.6716,20.4916 31.5,19.5C 32.391,18.8902 33.391,18.5569 34.5,18.5 Z"/></g>
<g><path style="opacity:1" fill="#4e9e92" d="M 37.5,14.5 C 38.3382,14.8417 38.6716,15.5084 38.5,16.5C 37.8333,16.5 37.5,16.8333 37.5,17.5C 36.2719,18.3065 35.2719,19.3065 34.5,20.5C 34.5,19.8333 34.5,19.1667 34.5,18.5C 34.7822,17.2223 35.4489,16.2223 36.5,15.5C 36.5,14.8333 36.8333,14.5 37.5,14.5 Z"/></g>
<g><path style="opacity:1" fill="#126d96" d="M 38.5,16.5 C 38.5,16.8333 38.5,17.1667 38.5,17.5C 38.7578,21.3721 38.0911,25.0388 36.5,28.5C 35.4613,30.5311 33.7946,31.8645 31.5,32.5C 31.5,32.1667 31.5,31.8333 31.5,31.5C 31.5,31.1667 31.5,30.8333 31.5,30.5C 32.4916,30.6716 33.1583,30.3382 33.5,29.5C 34.4582,27.6976 35.1249,25.6976 35.5,23.5C 36.6298,21.6854 37.2964,19.6854 37.5,17.5C 37.5,16.8333 37.8333,16.5 38.5,16.5 Z"/></g>
<g><path style="opacity:1" fill="#dbbf61" d="M -0.5,13.5 C -0.166667,13.5 0.166667,13.5 0.5,13.5C 0.5,13.8333 0.5,14.1667 0.5,14.5C 0.5,14.8333 0.5,15.1667 0.5,15.5C 0.5,16.1667 0.5,16.8333 0.5,17.5C 0.745782,20.4701 2.41245,21.8034 5.5,21.5C 6.16667,21.5 6.83333,21.5 7.5,21.5C 7.83333,22.1667 8.16667,22.8333 8.5,23.5C 8.16667,23.5 7.83333,23.5 7.5,23.5C 5.11826,24.5463 2.78493,24.5463 0.5,23.5C 0.5,22.8333 0.166667,22.5 -0.5,22.5C -0.5,19.5 -0.5,16.5 -0.5,13.5 Z"/></g>
<g><path style="opacity:1" fill="#e87a17" d="M 30.5,16.5 C 30.5,18.1667 30.5,19.8333 30.5,21.5C 30.5,21.8333 30.5,22.1667 30.5,22.5C 30.0133,23.4734 29.5133,24.4734 29,25.5C 28.6012,25.2716 28.4346,24.9382 28.5,24.5C 28.8333,22.5 29.1667,20.5 29.5,18.5C 29.3284,17.5084 29.6618,16.8417 30.5,16.5 Z"/></g>
<g><path style="opacity:1" fill="#e38017" d="M 28.5,18.5 C 28.8333,18.5 29.1667,18.5 29.5,18.5C 29.1667,20.5 28.8333,22.5 28.5,24.5C 28.1667,24.5 27.8333,24.5 27.5,24.5C 27.6716,23.5084 27.3382,22.8417 26.5,22.5C 26.5,21.8333 26.5,21.1667 26.5,20.5C 27.5,20.1667 28.1667,19.5 28.5,18.5 Z"/></g>
<g><path style="opacity:1" fill="#1d8fa8" d="M 37.5,17.5 C 37.2964,19.6854 36.6298,21.6854 35.5,23.5C 35.1667,23.5 34.8333,23.5 34.5,23.5C 34.5,23.1667 34.5,22.8333 34.5,22.5C 34.5,21.8333 34.5,21.1667 34.5,20.5C 35.2719,19.3065 36.2719,18.3065 37.5,17.5 Z"/></g>
<g><path style="opacity:1" fill="#cb9736" d="M 17.5,21.5 C 19.7354,21.2053 21.7354,21.5386 23.5,22.5C 22.5525,23.9779 21.2191,24.9779 19.5,25.5C 18.0937,25.0269 17.427,24.0269 17.5,22.5C 17.5,22.1667 17.5,21.8333 17.5,21.5 Z"/></g>
<g><path style="opacity:0.643" fill="#a7d3cf" d="M 38.5,17.5 C 38.8333,17.5 39.1667,17.5 39.5,17.5C 39.5,20.1667 39.5,22.8333 39.5,25.5C 38.6873,27.2608 37.6873,28.9275 36.5,30.5C 36.5,29.8333 36.5,29.1667 36.5,28.5C 38.0911,25.0388 38.7578,21.3721 38.5,17.5 Z"/></g>
<g><path style="opacity:1" fill="#c8be65" d="M 0.5,23.5 C 2.78493,24.5463 5.11826,24.5463 7.5,23.5C 7.5,23.8333 7.5,24.1667 7.5,24.5C 6.51776,25.1408 5.51776,25.8075 4.5,26.5C 3.58317,25.8728 2.58317,25.5394 1.5,25.5C 1.16667,24.8333 0.833333,24.1667 0.5,23.5 Z"/></g>
<g><path style="opacity:1" fill="#315953" d="M 13.5,20.5 C 13.5,20.8333 13.5,21.1667 13.5,21.5C 13.5,22.1667 13.5,22.8333 13.5,23.5C 12.7515,25.3325 11.7515,26.9991 10.5,28.5C 9.83333,28.8333 9.16667,29.1667 8.5,29.5C 8.5,29.1667 8.5,28.8333 8.5,28.5C 9.16667,27.5 9.83333,26.5 10.5,25.5C 10.5,25.1667 10.5,24.8333 10.5,24.5C 11.5,23.1667 12.5,21.8333 13.5,20.5 Z"/></g>
<g><path style="opacity:1" fill="#bbc473" d="M 7.5,24.5 C 7.5,25.5 7.5,26.5 7.5,27.5C 5.95819,28.3007 4.29152,28.634 2.5,28.5C 1.89022,27.609 1.55688,26.609 1.5,25.5C 2.58317,25.5394 3.58317,25.8728 4.5,26.5C 5.51776,25.8075 6.51776,25.1408 7.5,24.5 Z"/></g>
<g><path style="opacity:1" fill="#a9ce9c" d="M 23.5,22.5 C 24.1667,22.5 24.5,22.8333 24.5,23.5C 24.5,23.8333 24.5,24.1667 24.5,24.5C 24.1667,25.5 23.5,26.1667 22.5,26.5C 21.391,26.5569 20.391,26.8902 19.5,27.5C 19.5,26.8333 19.5,26.1667 19.5,25.5C 21.2191,24.9779 22.5525,23.9779 23.5,22.5 Z"/></g>
<g><path style="opacity:1" fill="#257e76" d="M 30.5,22.5 C 31.2679,23.2625 31.7679,24.2625 32,25.5C 32.3768,24.0577 33.2101,23.0577 34.5,22.5C 34.5,22.8333 34.5,23.1667 34.5,23.5C 33.8902,24.391 33.5569,25.391 33.5,26.5C 32.8333,26.5 32.1667,26.5 31.5,26.5C 29.5786,27.3627 27.5786,28.0293 25.5,28.5C 25.7678,26.901 25.4345,25.5676 24.5,24.5C 24.5,24.1667 24.5,23.8333 24.5,23.5C 25.609,23.5569 26.609,23.8902 27.5,24.5C 27.8333,24.5 28.1667,24.5 28.5,24.5C 28.4346,24.9382 28.6012,25.2716 29,25.5C 29.5133,24.4734 30.0133,23.4734 30.5,22.5 Z"/></g>
<g><path style="opacity:1" fill="#afaf63" d="M 7.5,23.5 C 7.83333,23.5 8.16667,23.5 8.5,23.5C 8.83333,24.5 9.5,25.1667 10.5,25.5C 9.83333,26.5 9.16667,27.5 8.5,28.5C 7.83333,28.5 7.5,28.1667 7.5,27.5C 7.5,26.5 7.5,25.5 7.5,24.5C 7.5,24.1667 7.5,23.8333 7.5,23.5 Z"/></g>
<g><path style="opacity:1" fill="#1d7674" d="M 17.5,21.5 C 17.5,21.8333 17.5,22.1667 17.5,22.5C 15.8958,23.287 15.2291,24.6203 15.5,26.5C 14.6618,26.8417 14.3284,27.5084 14.5,28.5C 13.5,29.8333 12.5,29.8333 11.5,28.5C 11.1667,28.5 10.8333,28.5 10.5,28.5C 11.7515,26.9991 12.7515,25.3325 13.5,23.5C 14.6049,22.3995 15.9382,21.7329 17.5,21.5 Z"/></g>
<g><path style="opacity:1" fill="#9eaa6a" d="M 17.5,22.5 C 17.427,24.0269 18.0937,25.0269 19.5,25.5C 19.5,26.1667 19.5,26.8333 19.5,27.5C 17.901,27.7678 16.5676,27.4345 15.5,26.5C 15.2291,24.6203 15.8958,23.287 17.5,22.5 Z"/></g>
<g><path style="opacity:1" fill="#3ecfc9" d="M 24.5,24.5 C 25.4345,25.5676 25.7678,26.901 25.5,28.5C 23.9582,29.3007 22.2915,29.634 20.5,29.5C 21.1667,28.5 21.8333,27.5 22.5,26.5C 23.5,26.1667 24.1667,25.5 24.5,24.5 Z"/></g>
<g><path style="opacity:1" fill="#0a6d88" d="M 34.5,23.5 C 34.8333,23.5 35.1667,23.5 35.5,23.5C 35.1249,25.6976 34.4582,27.6976 33.5,29.5C 32.1667,28.5 32.1667,27.5 33.5,26.5C 33.5569,25.391 33.8902,24.391 34.5,23.5 Z"/></g>
<g><path style="opacity:0.106" fill="#dce2c7" d="M -0.5,22.5 C 0.166667,22.5 0.5,22.8333 0.5,23.5C 0.833333,24.1667 1.16667,24.8333 1.5,25.5C 1.55688,26.609 1.89022,27.609 2.5,28.5C 3.16667,29.5 3.83333,30.5 4.5,31.5C 4.5,31.8333 4.5,32.1667 4.5,32.5C 2.08551,30.66 0.41884,28.3267 -0.5,25.5C -0.5,24.5 -0.5,23.5 -0.5,22.5 Z"/></g>
<g><path style="opacity:1" fill="#0b687b" d="M 31.5,26.5 C 32.1667,26.5 32.8333,26.5 33.5,26.5C 32.1667,27.5 32.1667,28.5 33.5,29.5C 33.1583,30.3382 32.4916,30.6716 31.5,30.5C 31.5,29.8333 31.1667,29.5 30.5,29.5C 31.1098,28.609 31.4431,27.609 31.5,26.5 Z"/></g>
<g><path style="opacity:1" fill="#90dbbe" d="M 15.5,26.5 C 16.5676,27.4345 17.901,27.7678 19.5,27.5C 20.391,26.8902 21.391,26.5569 22.5,26.5C 21.8333,27.5 21.1667,28.5 20.5,29.5C 20.5,29.8333 20.5,30.1667 20.5,30.5C 19.5,30.5 18.5,30.5 17.5,30.5C 16.5,29.8333 15.5,29.1667 14.5,28.5C 14.3284,27.5084 14.6618,26.8417 15.5,26.5 Z"/></g>
<g><path style="opacity:1" fill="#188281" d="M 31.5,26.5 C 31.4431,27.609 31.1098,28.609 30.5,29.5C 28.4862,29.3915 26.8195,30.0582 25.5,31.5C 23.7839,31.3713 22.1172,31.038 20.5,30.5C 20.5,30.1667 20.5,29.8333 20.5,29.5C 22.2915,29.634 23.9582,29.3007 25.5,28.5C 27.5786,28.0293 29.5786,27.3627 31.5,26.5 Z"/></g>
<g><path style="opacity:1" fill="#9ec488" d="M 7.5,27.5 C 7.5,28.1667 7.83333,28.5 8.5,28.5C 8.5,28.8333 8.5,29.1667 8.5,29.5C 7.83333,29.5 7.5,29.8333 7.5,30.5C 6.39105,30.5569 5.39105,30.8902 4.5,31.5C 3.83333,30.5 3.16667,29.5 2.5,28.5C 4.29152,28.634 5.95819,28.3007 7.5,27.5 Z"/></g>
<g><path style="opacity:1" fill="#18787a" d="M 10.5,28.5 C 10.8333,28.5 11.1667,28.5 11.5,28.5C 11.5,29.5 11.5,30.5 11.5,31.5C 10.1667,31.5 8.83333,31.5 7.5,31.5C 7.5,31.1667 7.5,30.8333 7.5,30.5C 7.5,29.8333 7.83333,29.5 8.5,29.5C 9.16667,29.1667 9.83333,28.8333 10.5,28.5 Z"/></g>
<g><path style="opacity:1" fill="#3b9289" d="M 11.5,28.5 C 12.5,29.8333 13.5,29.8333 14.5,28.5C 15.5,29.1667 16.5,29.8333 17.5,30.5C 17.5,30.8333 17.5,31.1667 17.5,31.5C 16.391,31.4431 15.391,31.1098 14.5,30.5C 13.391,30.5569 12.391,30.8902 11.5,31.5C 11.5,30.5 11.5,29.5 11.5,28.5 Z"/></g>
<g><path style="opacity:1" fill="#0d656a" d="M 30.5,29.5 C 31.1667,29.5 31.5,29.8333 31.5,30.5C 31.5,30.8333 31.5,31.1667 31.5,31.5C 29.5447,31.7986 28.2114,32.7986 27.5,34.5C 25.2646,34.7947 23.2646,34.4614 21.5,33.5C 23.153,33.3404 24.4863,32.6737 25.5,31.5C 26.8195,30.0582 28.4862,29.3915 30.5,29.5 Z"/></g>
<g><path style="opacity:1" fill="#6dcaa1" d="M 7.5,30.5 C 7.5,30.8333 7.5,31.1667 7.5,31.5C 8.56764,32.4345 9.90097,32.7678 11.5,32.5C 11.4326,33.9587 11.7659,35.2921 12.5,36.5C 11.8333,36.5 11.1667,36.5 10.5,36.5C 10.6198,33.7952 9.61979,33.1285 7.5,34.5C 6.48224,33.8075 5.48224,33.1408 4.5,32.5C 4.5,32.1667 4.5,31.8333 4.5,31.5C 5.39105,30.8902 6.39105,30.5569 7.5,30.5 Z"/></g>
<g><path style="opacity:1" fill="#3abea7" d="M 14.5,30.5 C 14.5,31.1667 14.5,31.8333 14.5,32.5C 13.1472,34.1284 13.4805,35.4617 15.5,36.5C 15.5,37.1667 15.1667,37.5 14.5,37.5C 13.5084,37.6716 12.8417,37.3382 12.5,36.5C 11.7659,35.2921 11.4326,33.9587 11.5,32.5C 9.90097,32.7678 8.56764,32.4345 7.5,31.5C 8.83333,31.5 10.1667,31.5 11.5,31.5C 12.391,30.8902 13.391,30.5569 14.5,30.5 Z"/></g>
<g><path style="opacity:1" fill="#34ab98" d="M 14.5,30.5 C 15.391,31.1098 16.391,31.4431 17.5,31.5C 19.099,31.2322 20.4324,31.5655 21.5,32.5C 20.1667,32.8333 18.8333,33.1667 17.5,33.5C 16.609,32.8902 15.609,32.5569 14.5,32.5C 14.5,31.8333 14.5,31.1667 14.5,30.5 Z"/></g>
<g><path style="opacity:1" fill="#0baba4" d="M 14.5,32.5 C 15.609,32.5569 16.609,32.8902 17.5,33.5C 17.5,34.5 17.5,35.5 17.5,36.5C 16.8333,36.5 16.1667,36.5 15.5,36.5C 13.4805,35.4617 13.1472,34.1284 14.5,32.5 Z"/></g>
<g><path style="opacity:1" fill="#127c78" d="M 17.5,31.5 C 17.5,31.1667 17.5,30.8333 17.5,30.5C 18.5,30.5 19.5,30.5 20.5,30.5C 22.1172,31.038 23.7839,31.3713 25.5,31.5C 24.4863,32.6737 23.153,33.3404 21.5,33.5C 21.5,33.1667 21.5,32.8333 21.5,32.5C 20.4324,31.5655 19.099,31.2322 17.5,31.5 Z"/></g>
<g><path style="opacity:1" fill="#70c4d2" d="M 36.5,28.5 C 36.5,29.1667 36.5,29.8333 36.5,30.5C 35.1667,33.1667 33.1667,35.1667 30.5,36.5C 30.5,36.1667 30.5,35.8333 30.5,35.5C 30.5569,34.391 30.8902,33.391 31.5,32.5C 33.7946,31.8645 35.4613,30.5311 36.5,28.5 Z"/></g>
<g><path style="opacity:1" fill="#a3d7b5" d="M 4.5,32.5 C 5.48224,33.1408 6.48224,33.8075 7.5,34.5C 9.61979,33.1285 10.6198,33.7952 10.5,36.5C 9.60895,35.8902 8.60895,35.5569 7.5,35.5C 5.5,35.5 4.5,34.5 4.5,32.5 Z"/></g>
<g><path style="opacity:1" fill="#0d7f9a" d="M 31.5,31.5 C 31.5,31.8333 31.5,32.1667 31.5,32.5C 30.8902,33.391 30.5569,34.391 30.5,35.5C 29.5,35.5 28.5,35.5 27.5,35.5C 27.5,35.1667 27.5,34.8333 27.5,34.5C 28.2114,32.7986 29.5447,31.7986 31.5,31.5 Z"/></g>
<g><path style="opacity:1" fill="#128f89" d="M 21.5,32.5 C 21.5,32.8333 21.5,33.1667 21.5,33.5C 19.1759,33.8773 18.5092,34.8773 19.5,36.5C 18.8333,36.5 18.1667,36.5 17.5,36.5C 17.5,35.5 17.5,34.5 17.5,33.5C 18.8333,33.1667 20.1667,32.8333 21.5,32.5 Z"/></g>
<g><path style="opacity:1" fill="#0b7c7e" d="M 21.5,33.5 C 23.2646,34.4614 25.2646,34.7947 27.5,34.5C 27.5,34.8333 27.5,35.1667 27.5,35.5C 26.5,35.5 25.5,35.5 24.5,35.5C 22.7839,35.6287 21.1172,35.962 19.5,36.5C 18.5092,34.8773 19.1759,33.8773 21.5,33.5 Z"/></g>
<g><path style="opacity:0.929" fill="#aee2d7" d="M 7.5,35.5 C 8.60895,35.5569 9.60895,35.8902 10.5,36.5C 11.1667,36.5 11.8333,36.5 12.5,36.5C 12.8417,37.3382 13.5084,37.6716 14.5,37.5C 16.9479,38.4731 19.6146,38.8064 22.5,38.5C 23.5,38.5 24.5,38.5 25.5,38.5C 25.5,38.8333 25.5,39.1667 25.5,39.5C 21.5,39.5 17.5,39.5 13.5,39.5C 11.1898,38.675 9.18975,37.3417 7.5,35.5 Z"/></g>
<g><path style="opacity:1" fill="#0a9a97" d="M 24.5,35.5 C 23.8333,36.1667 23.1667,36.8333 22.5,37.5C 20.5853,37.7845 18.9187,37.4511 17.5,36.5C 18.1667,36.5 18.8333,36.5 19.5,36.5C 21.1172,35.962 22.7839,35.6287 24.5,35.5 Z"/></g>
<g><path style="opacity:1" fill="#1bb7b8" d="M 24.5,35.5 C 25.5,35.5 26.5,35.5 27.5,35.5C 28.5,35.5 29.5,35.5 30.5,35.5C 30.5,35.8333 30.5,36.1667 30.5,36.5C 27.8333,36.8333 25.1667,37.1667 22.5,37.5C 23.1667,36.8333 23.8333,36.1667 24.5,35.5 Z"/></g>
<g><path style="opacity:1" fill="#1cbdbd" d="M 15.5,36.5 C 16.1667,36.5 16.8333,36.5 17.5,36.5C 18.9187,37.4511 20.5853,37.7845 22.5,37.5C 22.5,37.8333 22.5,38.1667 22.5,38.5C 19.6146,38.8064 16.9479,38.4731 14.5,37.5C 15.1667,37.5 15.5,37.1667 15.5,36.5 Z"/></g>
<g><path style="opacity:1" fill="#68d0d2" d="M 30.5,36.5 C 29.2196,37.9313 27.5529,38.5979 25.5,38.5C 24.5,38.5 23.5,38.5 22.5,38.5C 22.5,38.1667 22.5,37.8333 22.5,37.5C 25.1667,37.1667 27.8333,36.8333 30.5,36.5 Z"/></g>
</svg>
