<?xml version="1.0" encoding="UTF-8"?>
<!DOCTYPE svg PUBLIC "-//W3C//DTD SVG 1.1//EN" "http://www.w3.org/Graphics/SVG/1.1/DTD/svg11.dtd">
<svg xmlns="http://www.w3.org/2000/svg" version="1.1" width="40px" height="40px" style="shape-rendering:geometricPrecision; text-rendering:geometricPrecision; image-rendering:optimizeQuality; fill-rule:evenodd; clip-rule:evenodd" xmlns:xlink="http://www.w3.org/1999/xlink">
<g><path style="opacity:0.67" fill="#d2f859" d="M 22.5,28.5 C 23.4916,28.6716 24.1583,28.3382 24.5,27.5C 25.1667,27.5 25.5,27.1667 25.5,26.5C 26.1667,26.5 26.5,26.1667 26.5,25.5C 27.1667,25.5 27.5,25.1667 27.5,24.5C 28.3382,24.1583 28.6716,23.4916 28.5,22.5C 29.8333,20.5 29.8333,18.5 28.5,16.5C 28.5,15.1667 28.5,13.8333 28.5,12.5C 27.5,12.5 26.5,12.5 25.5,12.5C 25.5,11.8333 25.1667,11.5 24.5,11.5C 24.1583,10.6618 23.4916,10.3284 22.5,10.5C 20.5,9.16667 18.5,9.16667 16.5,10.5C 15.5084,10.3284 14.8417,10.6618 14.5,11.5C 13.8333,11.5 13.5,11.8333 13.5,12.5C 12.8333,12.5 12.5,12.8333 12.5,13.5C 10.9519,13.8212 10.2852,14.8212 10.5,16.5C 9.16667,18.5 9.16667,20.5 10.5,22.5C 10.3284,23.4916 10.6618,24.1583 11.5,24.5C 11.5,25.1667 11.8333,25.5 12.5,25.5C 12.5,26.1667 12.8333,26.5 13.5,26.5C 13.5,27.1667 13.8333,27.5 14.5,27.5C 14.8417,28.3382 15.5084,28.6716 16.5,28.5C 17.209,29.404 18.209,29.7373 19.5,29.5C 19.5,32.1667 19.5,34.8333 19.5,37.5C 7.83907,37.1724 1.83907,31.1724 1.5,19.5C 3.07987,5.18713 11.0799,-0.646208 25.5,2C 35.5517,6.60495 39.385,14.4383 37,25.5C 34.298,33.2741 28.798,37.2741 20.5,37.5C 20.0914,34.1445 20.7581,31.1445 22.5,28.5 Z M 14.5,3.5 C 20.9035,2.52865 26.5701,4.02865 31.5,8C 30.0337,8.63547 28.7003,9.46881 27.5,10.5C 21.72,6.53377 15.8866,6.53377 10,10.5C 8.72024,10.3865 7.88691,9.71986 7.5,8.5C 9.72429,6.56604 12.0576,4.89938 14.5,3.5 Z M 17.5,12.5 C 25.0182,12.8875 27.5182,16.5542 25,23.5C 19.0225,28.102 14.8559,26.7686 12.5,19.5C 13.0599,16.288 14.7266,13.9547 17.5,12.5 Z M 25.5,12.5 C 26.5,12.5 27.5,12.5 28.5,12.5C 28.5,13.8333 28.5,15.1667 28.5,16.5C 27.5116,15.205 26.5116,13.8717 25.5,12.5 Z M 12.5,13.5 C 12.0679,14.7095 11.4013,15.7095 10.5,16.5C 10.2852,14.8212 10.9519,13.8212 12.5,13.5 Z M 33.5,19.5 C 34.0768,18.2267 34.7435,18.2267 35.5,19.5C 35.0302,20.463 34.3635,20.463 33.5,19.5 Z"/></g>
<g><path style="opacity:0.527" fill="#d3f859" d="M 16.5,10.5 C 18.5,10.5 20.5,10.5 22.5,10.5C 22.8417,11.3382 23.5084,11.6716 24.5,11.5C 25.1667,11.5 25.5,11.8333 25.5,12.5C 26.5116,13.8717 27.5116,15.205 28.5,16.5C 28.5,18.5 28.5,20.5 28.5,22.5C 27.6618,22.8417 27.3284,23.5084 27.5,24.5C 26.8333,24.5 26.5,24.8333 26.5,25.5C 25.8333,25.5 25.5,25.8333 25.5,26.5C 24.8333,26.5 24.5,26.8333 24.5,27.5C 23.5084,27.3284 22.8417,27.6618 22.5,28.5C 20.5,28.5 18.5,28.5 16.5,28.5C 16.1583,27.6618 15.4916,27.3284 14.5,27.5C 13.8333,27.5 13.5,27.1667 13.5,26.5C 12.8333,26.5 12.5,26.1667 12.5,25.5C 11.8333,25.5 11.5,25.1667 11.5,24.5C 11.6716,23.5084 11.3382,22.8417 10.5,22.5C 10.5,20.5 10.5,18.5 10.5,16.5C 11.4013,15.7095 12.0679,14.7095 12.5,13.5C 13.1667,13.5 13.5,13.1667 13.5,12.5C 14.1667,12.5 14.5,12.1667 14.5,11.5C 15.4916,11.6716 16.1583,11.3382 16.5,10.5 Z M 17.5,12.5 C 14.7266,13.9547 13.0599,16.288 12.5,19.5C 14.8559,26.7686 19.0225,28.102 25,23.5C 27.5182,16.5542 25.0182,12.8875 17.5,12.5 Z"/></g>
</svg>
