<?xml version="1.0" encoding="UTF-8"?>
<!DOCTYPE svg PUBLIC "-//W3C//DTD SVG 1.1//EN" "http://www.w3.org/Graphics/SVG/1.1/DTD/svg11.dtd">
<svg xmlns="http://www.w3.org/2000/svg" version="1.1" width="40px" height="40px" style="shape-rendering:geometricPrecision; text-rendering:geometricPrecision; image-rendering:optimizeQuality; fill-rule:evenodd; clip-rule:evenodd" xmlns:xlink="http://www.w3.org/1999/xlink">
<g><path style="opacity:0.169" fill="#115d90" d="M 2.5,2.5 C 10.0191,2.17503 17.3524,2.50837 24.5,3.5C 24.44,4.04309 24.1067,4.37642 23.5,4.5C 16.3703,3.86586 9.3703,3.19919 2.5,2.5 Z"/></g>
<g><path style="opacity:0.896" fill="#115e8f" d="M 2.5,2.5 C 9.3703,3.19919 16.3703,3.86586 23.5,4.5C 24.1067,4.37642 24.44,4.04309 24.5,3.5C 36.1502,6.45843 40.3169,13.7918 37,25.5C 35.0732,30.4277 31.5732,33.5944 26.5,35C 18.1467,35.8317 9.8134,35.6651 1.5,34.5C 2.64768,32.8513 3.98101,31.3513 5.5,30C 11.1667,29.6667 16.8333,29.3333 22.5,29C 20.3799,26.5913 18.3799,24.0913 16.5,21.5C 21.7023,19.2658 25.3689,20.7658 27.5,26C 30.8879,25.4748 32.5545,23.3081 32.5,19.5C 32.0545,13.2217 28.7212,9.72172 22.5,9C 11.9933,6.75079 10.8266,8.91746 19,15.5C 19.4828,16.448 19.6495,17.448 19.5,18.5C 17.0108,18.7022 14.6775,18.2022 12.5,17C 8.64408,12.6451 4.97741,8.14509 1.5,3.5C 1.62358,2.89333 1.95691,2.55999 2.5,2.5 Z"/></g>
</svg>
