<?xml version="1.0" encoding="UTF-8"?>
<!DOCTYPE svg PUBLIC "-//W3C//DTD SVG 1.1//EN" "http://www.w3.org/Graphics/SVG/1.1/DTD/svg11.dtd">
<svg xmlns="http://www.w3.org/2000/svg" version="1.1" width="43px" height="43px" style="shape-rendering:geometricPrecision; text-rendering:geometricPrecision; image-rendering:optimizeQuality; fill-rule:evenodd; clip-rule:evenodd" xmlns:xlink="http://www.w3.org/1999/xlink">
<g><path style="opacity:0.982" fill="#ca9731" d="M 14.5,-0.5 C 18.8333,-0.5 23.1667,-0.5 27.5,-0.5C 34.8333,2.16667 39.8333,7.16667 42.5,14.5C 42.5,18.8333 42.5,23.1667 42.5,27.5C 39.8333,34.8333 34.8333,39.8333 27.5,42.5C 26.5,42.5 25.5,42.5 24.5,42.5C 24.9158,37.8114 24.2491,33.3114 22.5,29C 22.8333,28.5 23.1667,28 23.5,27.5C 24.3888,30.2787 25.5555,32.9454 27,35.5C 27.4415,32.6947 26.9415,30.0281 25.5,27.5C 27.1207,25.3761 28.954,23.3761 31,21.5C 32.4475,18.1999 33.2809,15.0332 33.5,12C 33.1081,10.9895 32.4415,10.4895 31.5,10.5C 32.6446,9.10903 32.6446,7.7757 31.5,6.5C 25.8888,8.39583 23.8888,12.0625 25.5,17.5C 25.3318,19.1705 24.6651,20.5039 23.5,21.5C 23.5,20.5 23.5,19.5 23.5,18.5C 23.0962,17.2436 22.4295,16.0769 21.5,15C 22.4925,12.5787 21.4925,11.9121 18.5,13C 19.0126,15.7181 19.0126,18.5515 18.5,21.5C 16.2374,19.2335 15.9041,16.5668 17.5,13.5C 15.8767,10.5091 13.5433,8.17574 10.5,6.5C 9.35536,7.7757 9.35536,9.10903 10.5,10.5C 9.55855,10.4895 8.89188,10.9895 8.5,12C 8.56041,16.9345 10.3937,21.4345 14,25.5C 14.8928,24.2888 15.7261,24.2888 16.5,25.5C 15.6559,29.2008 14.3225,32.7008 12.5,36C 13.3317,36.6877 13.9984,36.521 14.5,35.5C 18.5208,23.4449 19.1874,23.6116 16.5,36C 17.0767,38.137 17.41,40.3037 17.5,42.5C 16.5,42.5 15.5,42.5 14.5,42.5C 7.16667,39.8333 2.16667,34.8333 -0.5,27.5C -0.5,23.1667 -0.5,18.8333 -0.5,14.5C 2.16667,7.16667 7.16667,2.16667 14.5,-0.5 Z"/></g>
<g><path style="opacity:1" fill="#130e04" d="M 18.5,21.5 C 18.5,22.5 18.5,23.5 18.5,24.5C 20.1992,24.6602 21.8659,24.4935 23.5,24C 22.4019,23.2303 22.4019,22.397 23.5,21.5C 24.6651,20.5039 25.3318,19.1705 25.5,17.5C 23.8888,12.0625 25.8888,8.39583 31.5,6.5C 32.6446,7.7757 32.6446,9.10903 31.5,10.5C 32.4415,10.4895 33.1081,10.9895 33.5,12C 33.2809,15.0332 32.4475,18.1999 31,21.5C 28.954,23.3761 27.1207,25.3761 25.5,27.5C 26.9415,30.0281 27.4415,32.6947 27,35.5C 25.5555,32.9454 24.3888,30.2787 23.5,27.5C 23.1667,28 22.8333,28.5 22.5,29C 24.2491,33.3114 24.9158,37.8114 24.5,42.5C 22.1667,42.5 19.8333,42.5 17.5,42.5C 17.41,40.3037 17.0767,38.137 16.5,36C 19.1874,23.6116 18.5208,23.4449 14.5,35.5C 13.9984,36.521 13.3317,36.6877 12.5,36C 14.3225,32.7008 15.6559,29.2008 16.5,25.5C 15.7261,24.2888 14.8928,24.2888 14,25.5C 10.3937,21.4345 8.56041,16.9345 8.5,12C 8.89188,10.9895 9.55855,10.4895 10.5,10.5C 9.35536,9.10903 9.35536,7.7757 10.5,6.5C 13.5433,8.17574 15.8767,10.5091 17.5,13.5C 15.9041,16.5668 16.2374,19.2335 18.5,21.5 Z"/></g>
<g><path style="opacity:1" fill="#030200" d="M 23.5,18.5 C 22.3249,19.9738 21.3249,21.6404 20.5,23.5C 19.8182,22.7573 19.1515,22.0906 18.5,21.5C 19.0126,18.5515 19.0126,15.7181 18.5,13C 21.4925,11.9121 22.4925,12.5787 21.5,15C 22.4295,16.0769 23.0962,17.2436 23.5,18.5 Z"/></g>
<g><path style="opacity:1" fill="#694e19" d="M 23.5,18.5 C 23.5,19.5 23.5,20.5 23.5,21.5C 22.4019,22.397 22.4019,23.2303 23.5,24C 21.8659,24.4935 20.1992,24.6602 18.5,24.5C 18.5,23.5 18.5,22.5 18.5,21.5C 19.1515,22.0906 19.8182,22.7573 20.5,23.5C 21.3249,21.6404 22.3249,19.9738 23.5,18.5 Z"/></g>
</svg>
