<?xml version="1.0" encoding="UTF-8"?>
<!DOCTYPE svg PUBLIC "-//W3C//DTD SVG 1.1//EN" "http://www.w3.org/Graphics/SVG/1.1/DTD/svg11.dtd">
<svg xmlns="http://www.w3.org/2000/svg" version="1.1" width="80px" height="80px" style="shape-rendering:geometricPrecision; text-rendering:geometricPrecision; image-rendering:optimizeQuality; fill-rule:evenodd; clip-rule:evenodd" xmlns:xlink="http://www.w3.org/1999/xlink">
<g><path style="opacity:0.992" fill="#131314" d="M -0.5,-0.5 C 26.1667,-0.5 52.8333,-0.5 79.5,-0.5C 79.5,26.1667 79.5,52.8333 79.5,79.5C 52.8333,79.5 26.1667,79.5 -0.5,79.5C -0.5,52.8333 -0.5,26.1667 -0.5,-0.5 Z"/></g>
<g><path style="opacity:0.94" fill="#d9821f" d="M 37.5,7.5 C 38.9305,7.42082 40.2638,7.75415 41.5,8.5C 42.43,13.1372 43.0967,17.8038 43.5,22.5C 40.8333,22.5 38.1667,22.5 35.5,22.5C 35.6741,20.139 36.0074,17.8056 36.5,15.5C 40.1331,15.557 40.2998,14.557 37,12.5C 36.3603,10.735 36.5269,9.06831 37.5,7.5 Z"/></g>
<g><path style="opacity:0.931" fill="#dc8420" d="M 37.5,23.5 C 43.8274,25.2187 50.1608,27.052 56.5,29C 57.3366,30.0113 57.67,31.1779 57.5,32.5C 51.5027,31.8899 45.6694,30.5566 40,28.5C 33.9306,30.3583 27.7639,31.6916 21.5,32.5C 21.5,31.1667 21.5,29.8333 21.5,28.5C 27.1467,27.6165 32.48,25.9499 37.5,23.5 Z"/></g>
<g><path style="opacity:0.987" fill="#bc6c15" d="M 35.5,30.5 C 36.4959,30.4142 37.3292,30.7476 38,31.5C 38.6667,36.8333 38.6667,42.1667 38,47.5C 35.2633,48.5604 32.43,49.3937 29.5,50C 28.9781,50.5613 28.6448,51.228 28.5,52C 29.2779,54.3899 30.4445,56.5566 32,58.5C 31.6393,53.6965 33.806,51.3632 38.5,51.5C 38.8293,57.5368 38.4959,63.5368 37.5,69.5C 30.5145,63.3549 24.8478,56.1882 20.5,48C 20.9054,47.0546 21.572,46.3879 22.5,46C 25.5285,45.461 28.5285,44.7943 31.5,44C 32.5914,41.9361 32.7581,39.7695 32,37.5C 27.7492,38.5713 24.0825,40.5713 21,43.5C 20.228,43.3552 19.5613,43.0219 19,42.5C 18.654,40.7818 18.154,39.1151 17.5,37.5C 17.7093,36.914 18.0426,36.414 18.5,36C 22.8693,35.1577 27.2026,34.1577 31.5,33C 33.3197,32.7996 34.653,31.9663 35.5,30.5 Z"/></g>
<g><path style="opacity:0.994" fill="#ba6b14" d="M 41.5,30.5 C 43.371,30.8588 44.871,31.8588 46,33.5C 46.2069,37.0894 46.7069,40.5894 47.5,44C 49.6864,45.309 51.8531,45.4757 54,44.5C 53.8452,41.1597 53.3452,37.8264 52.5,34.5C 55.4802,34.6203 58.3135,35.287 61,36.5C 60.6656,41.6647 59.1656,46.498 56.5,51C 55.1667,51.3333 53.8333,51.6667 52.5,52C 53.5742,52.7387 54.2409,53.7387 54.5,55C 53.3758,57.411 51.8758,59.5777 50,61.5C 49.4657,57.6952 48.4657,54.0286 47,50.5C 46.7199,55.1966 46.2199,59.8633 45.5,64.5C 45.0367,67.5071 43.5367,68.5071 41,67.5C 40.2485,55.1405 40.4152,42.8072 41.5,30.5 Z"/></g>
</svg>
