<?xml version="1.0" encoding="UTF-8"?>
<!DOCTYPE svg PUBLIC "-//W3C//DTD SVG 1.1//EN" "http://www.w3.org/Graphics/SVG/1.1/DTD/svg11.dtd">
<svg xmlns="http://www.w3.org/2000/svg" version="1.1" width="40px" height="40px" style="shape-rendering:geometricPrecision; text-rendering:geometricPrecision; image-rendering:optimizeQuality; fill-rule:evenodd; clip-rule:evenodd" xmlns:xlink="http://www.w3.org/1999/xlink">
<g><path style="opacity:0.999" fill="#ea3c39" d="M 13.5,-0.5 C 17.5,-0.5 21.5,-0.5 25.5,-0.5C 27.2608,0.312714 28.9275,1.31271 30.5,2.5C 31.7847,4.45155 33.4514,6.11822 35.5,7.5C 37.3417,9.18975 38.675,11.1898 39.5,13.5C 39.5,17.5 39.5,21.5 39.5,25.5C 37.1667,32.5 32.5,37.1667 25.5,39.5C 21.5,39.5 17.5,39.5 13.5,39.5C 6.61442,37.0703 1.94775,32.4036 -0.5,25.5C -0.5,21.5 -0.5,17.5 -0.5,13.5C 0.166667,12.5 0.833333,11.5 1.5,10.5C 2.90632,10.0269 3.57298,9.02694 3.5,7.5C 5.16667,6.5 6.5,5.16667 7.5,3.5C 9.18975,1.65832 11.1898,0.324982 13.5,-0.5 Z"/></g>
<g><path style="opacity:1" fill="#f79089" d="M 30.5,2.5 C 33.1894,3.18936 34.8561,4.85603 35.5,7.5C 33.4514,6.11822 31.7847,4.45155 30.5,2.5 Z"/></g>
<g><path style="opacity:0.714" fill="#f4a3a2" d="M 7.5,3.5 C 6.5,5.16667 5.16667,6.5 3.5,7.5C 3.83333,5.16667 5.16667,3.83333 7.5,3.5 Z"/></g>
<g><path style="opacity:0.6" fill="#f4a3a1" d="M 3.5,7.5 C 3.57298,9.02694 2.90632,10.0269 1.5,10.5C 1.42702,8.97306 2.09368,7.97306 3.5,7.5 Z"/></g>
<g><path style="opacity:1" fill="#f4c5c6" d="M 18.5,9.5 C 20.1969,11.3052 21.0302,13.6385 21,16.5C 23.3494,13.9832 25.8494,11.6499 28.5,9.5C 29.521,10.0016 29.6877,10.6683 29,11.5C 26.8333,13.6667 24.6667,15.8333 22.5,18C 31.8333,19 31.8333,20 22.5,21C 27.8929,28.5021 27.3929,29.0021 21,22.5C 20,31.8333 19,31.8333 18,22.5C 15.6094,25.5968 12.776,27.7635 9.5,29C 12.0168,26.6506 14.3501,24.1506 16.5,21.5C 7.23352,20.0285 7.23352,18.8618 16.5,18C 15.3333,16.8333 14.1667,15.6667 13,14.5C 12.3123,13.6683 12.479,13.0016 13.5,12.5C 15.1487,13.6477 16.6487,14.981 18,16.5C 18.4966,14.1902 18.6633,11.8568 18.5,9.5 Z"/></g>
</svg>
