<?xml version="1.0" encoding="UTF-8"?>
<!DOCTYPE svg PUBLIC "-//W3C//DTD SVG 1.1//EN" "http://www.w3.org/Graphics/SVG/1.1/DTD/svg11.dtd">
<svg xmlns="http://www.w3.org/2000/svg" version="1.1" width="160px" height="160px" style="shape-rendering:geometricPrecision; text-rendering:geometricPrecision; image-rendering:optimizeQuality; fill-rule:evenodd; clip-rule:evenodd" xmlns:xlink="http://www.w3.org/1999/xlink">
<g><path style="opacity:1" fill="#51c9bb" d="M 75.5,-0.5 C 79.8333,-0.5 84.1667,-0.5 88.5,-0.5C 89.5691,2.40803 89.7358,5.40803 89,8.5C 87.0517,9.10936 85.2184,9.77602 83.5,10.5C 83.6696,13.204 85.0029,14.8707 87.5,15.5C 87.5,15.8333 87.5,16.1667 87.5,16.5C 87.2291,18.3797 87.8958,19.713 89.5,20.5C 89.7386,26.5652 89.2386,32.5652 88,38.5C 86.8873,37.695 85.7206,37.0283 84.5,36.5C 83.7529,33.6385 82.0862,31.6385 79.5,30.5C 78.8783,29.3734 78.045,28.3734 77,27.5C 75.8111,29.2331 74.6444,30.8998 73.5,32.5C 72.2502,32.5774 71.4169,33.244 71,34.5C 70.6667,34.1667 70.3333,33.8333 70,33.5C 69.3088,25.8053 69.4754,18.1387 70.5,10.5C 70.5,10.1667 70.5,9.83333 70.5,9.5C 72.543,8.42065 73.8763,6.75398 74.5,4.5C 74.366,2.70848 74.6993,1.04181 75.5,-0.5 Z"/></g>
<g><path style="opacity:0.996" fill="#60bdb0" d="M 88.5,-0.5 C 91.5,-0.5 94.5,-0.5 97.5,-0.5C 100.683,1.00996 104.016,2.34329 107.5,3.5C 106.791,4.40397 105.791,4.73731 104.5,4.5C 104.5,7.5 104.5,10.5 104.5,13.5C 112.099,12.9495 116.766,16.2828 118.5,23.5C 117.833,23.5 117.167,23.5 116.5,23.5C 116.179,21.9519 115.179,21.2852 113.5,21.5C 112.395,20.3995 111.062,19.7329 109.5,19.5C 109.179,17.9519 108.179,17.2852 106.5,17.5C 104.927,14.1069 102.26,12.7736 98.5,13.5C 98.1667,13.5 97.8333,13.5 97.5,13.5C 97.3893,12.8826 97.056,12.3826 96.5,12C 94.1902,11.5034 91.8568,11.3367 89.5,11.5C 88.8333,11.5 88.1667,11.5 87.5,11.5C 86.4324,10.5655 85.099,10.2322 83.5,10.5C 85.2184,9.77602 87.0517,9.10936 89,8.5C 89.7358,5.40803 89.5691,2.40803 88.5,-0.5 Z"/></g>
<g><path style="opacity:1" fill="#428c8c" d="M 51.5,13.5 C 51.5,10.5 51.5,7.5 51.5,4.5C 49.8333,4.5 48.1667,4.5 46.5,4.5C 47.0577,3.21009 48.0577,2.37675 49.5,2C 52.036,1.66079 54.536,1.16079 57,0.5C 58.0588,0.630078 58.8921,1.13008 59.5,2C 56.5554,5.74039 53.8888,9.57372 51.5,13.5 Z"/></g>
<g><path style="opacity:0.997" fill="#91cfc7" d="M 45.5,4.5 C 45.8333,4.5 46.1667,4.5 46.5,4.5C 48.1667,4.5 49.8333,4.5 51.5,4.5C 51.5,7.5 51.5,10.5 51.5,13.5C 48.1394,15.4471 44.4727,17.1137 40.5,18.5C 39.8003,15.8068 38.1336,13.8068 35.5,12.5C 36.8665,11.16 38.1999,9.82669 39.5,8.5C 40.3382,8.15829 40.6716,7.49162 40.5,6.5C 40.8333,6.5 41.1667,6.5 41.5,6.5C 43.3797,6.77089 44.713,6.10422 45.5,4.5 Z"/></g>
<g><path style="opacity:0.577" fill="#466f73" d="M 108.5,3.5 C 111.987,4.40763 114.987,6.0743 117.5,8.5C 114.689,8.17426 112.022,7.34093 109.5,6C 108.748,5.32924 108.414,4.4959 108.5,3.5 Z"/></g>
<g><path style="opacity:0.788" fill="#436d71" d="M 45.5,4.5 C 44.713,6.10422 43.3797,6.77089 41.5,6.5C 42.287,4.89578 43.6203,4.22911 45.5,4.5 Z"/></g>
<g><path style="opacity:0.212" fill="#2c5457" d="M 74.5,4.5 C 73.8763,6.75398 72.543,8.42065 70.5,9.5C 70.6696,6.796 72.0029,5.12933 74.5,4.5 Z"/></g>
<g><path style="opacity:0.994" fill="#96d5cf" d="M 107.5,3.5 C 107.833,3.5 108.167,3.5 108.5,3.5C 108.414,4.4959 108.748,5.32924 109.5,6C 112.022,7.34093 114.689,8.17426 117.5,8.5C 118.167,8.5 118.833,8.5 119.5,8.5C 119.894,10.7099 121.227,12.0432 123.5,12.5C 124.167,12.5 124.833,12.5 125.5,12.5C 125.833,16.1667 127.833,18.1667 131.5,18.5C 132.167,18.5 132.5,18.8333 132.5,19.5C 133.167,20.8333 133.833,22.1667 134.5,23.5C 135.344,27.0991 135.677,30.7657 135.5,34.5C 133.167,34.5 130.833,34.5 128.5,34.5C 128.833,31.5 127.5,30.1667 124.5,30.5C 124.5,30.1667 124.5,29.8333 124.5,29.5C 124.306,27.0882 122.973,26.0882 120.5,26.5C 120.573,24.9731 119.906,23.9731 118.5,23.5C 116.766,16.2828 112.099,12.9495 104.5,13.5C 104.5,10.5 104.5,7.5 104.5,4.5C 105.791,4.73731 106.791,4.40397 107.5,3.5 Z"/></g>
<g><path style="opacity:0.373" fill="#2c5054" d="M 40.5,6.5 C 40.6716,7.49162 40.3382,8.15829 39.5,8.5C 38.8333,8.5 38.1667,8.5 37.5,8.5C 37.9731,7.09368 38.9731,6.42702 40.5,6.5 Z"/></g>
<g><path style="opacity:0.02" fill="#375e62" d="M 119.5,8.5 C 121.773,8.95681 123.106,10.2901 123.5,12.5C 121.227,12.0432 119.894,10.7099 119.5,8.5 Z"/></g>
<g><path style="opacity:0.435" fill="#21474b" d="M 83.5,10.5 C 85.099,10.2322 86.4324,10.5655 87.5,11.5C 86.7611,11.369 86.0944,11.5357 85.5,12C 86.305,13.1127 86.9717,14.2794 87.5,15.5C 85.0029,14.8707 83.6696,13.204 83.5,10.5 Z"/></g>
<g><path style="opacity:0.078" fill="#2b5256" d="M 89.5,11.5 C 91.8568,11.3367 94.1902,11.5034 96.5,12C 97.056,12.3826 97.3893,12.8826 97.5,13.5C 94.5718,13.4349 91.9052,12.7682 89.5,11.5 Z"/></g>
<g><path style="opacity:0.999" fill="#a1f3e0" d="M 29.5,13.5 C 29.8333,13.5 30.1667,13.5 30.5,13.5C 31.9778,13.238 33.3112,13.5713 34.5,14.5C 31.4297,17.5638 28.7631,20.8971 26.5,24.5C 21.6189,29.5916 18.2855,35.5916 16.5,42.5C 15.5489,43.9187 15.2155,45.5853 15.5,47.5C 14.0687,48.7804 13.4021,50.4471 13.5,52.5C 17.9155,52.1394 21.9155,50.8061 25.5,48.5C 25.8333,48.5 26.1667,48.5 26.5,48.5C 29.5,48.5 32.5,48.5 35.5,48.5C 35.5,52.1667 35.5,55.8333 35.5,59.5C 35.1583,60.3382 34.4916,60.6716 33.5,60.5C 31.5,60.5 29.5,60.5 27.5,60.5C 28.5676,67.5072 28.5676,74.5072 27.5,81.5C 26.3777,80.3698 25.0443,79.7031 23.5,79.5C 23.1788,77.9519 22.1788,77.2852 20.5,77.5C 18.9092,74.5691 16.9092,71.9024 14.5,69.5C 14.1667,67.1667 12.8333,65.8333 10.5,65.5C 9.5,65.1667 8.83333,64.5 8.5,63.5C 8.28756,60.2876 6.62089,58.2876 3.5,57.5C 1.89578,56.713 1.22911,55.3797 1.5,53.5C 2.43448,52.4324 2.76781,51.099 2.5,49.5C 2.39151,47.4862 3.05817,45.8195 4.5,44.5C 6.74085,43.7002 7.74085,42.0336 7.5,39.5C 7.26269,38.209 7.59603,37.209 8.5,36.5C 10.0481,36.1788 10.7148,35.1788 10.5,33.5C 12.9971,32.8707 14.3304,31.204 14.5,28.5C 16.4456,27.9653 17.4456,26.632 17.5,24.5C 19.5,24.5 20.5,23.5 20.5,21.5C 22.5,21.5 23.5,20.5 23.5,18.5C 26.7322,18.2283 28.7322,16.5616 29.5,13.5 Z"/></g>
<g><path style="opacity:1" fill="#60b6ab" d="M 37.5,8.5 C 38.1667,8.5 38.8333,8.5 39.5,8.5C 38.1999,9.82669 36.8665,11.16 35.5,12.5C 38.1336,13.8068 39.8003,15.8068 40.5,18.5C 39.0154,22.761 36.0154,25.4277 31.5,26.5C 29.8333,25.8333 28.1667,25.1667 26.5,24.5C 28.7631,20.8971 31.4297,17.5638 34.5,14.5C 33.3112,13.5713 31.9778,13.238 30.5,13.5C 32.2666,11.1099 34.5999,9.44325 37.5,8.5 Z"/></g>
<g><path style="opacity:0.993" fill="#57b7b9" d="M 70.5,10.5 C 69.4754,18.1387 69.3088,25.8053 70,33.5C 70.3333,33.8333 70.6667,34.1667 71,34.5C 71.4169,33.244 72.2502,32.5774 73.5,32.5C 71.1653,36.5032 68.832,40.5032 66.5,44.5C 64.0882,44.6941 63.0882,46.0274 63.5,48.5C 62.7224,52.8991 60.0557,54.8991 55.5,54.5C 52.4299,54.3677 49.4299,54.701 46.5,55.5C 48.099,51.4278 47.4323,47.7611 44.5,44.5C 46.8185,44.0075 48.8185,43.0075 50.5,41.5C 52.5,38.5 54.5,35.5 56.5,32.5C 58.0481,32.1788 58.7148,31.1788 58.5,29.5C 61.2517,22.319 65.2517,15.9856 70.5,10.5 Z"/></g>
<g><path style="opacity:0.702" fill="#285155" d="M 98.5,13.5 C 102.26,12.7736 104.927,14.1069 106.5,17.5C 103.279,17.1039 100.612,15.7705 98.5,13.5 Z"/></g>
<g><path style="opacity:0.351" fill="#548685" d="M 29.5,13.5 C 28.7322,16.5616 26.7322,18.2283 23.5,18.5C 24.8908,16.1097 26.8908,14.4431 29.5,13.5 Z"/></g>
<g><path style="opacity:0.267" fill="#437778" d="M 125.5,12.5 C 128.438,13.622 130.438,15.622 131.5,18.5C 127.833,18.1667 125.833,16.1667 125.5,12.5 Z"/></g>
<g><path style="opacity:0.102" fill="#376164" d="M 87.5,16.5 C 88.9744,17.4363 89.9744,18.7697 90.5,20.5C 90.1667,20.5 89.8333,20.5 89.5,20.5C 87.8958,19.713 87.2291,18.3797 87.5,16.5 Z"/></g>
<g><path style="opacity:0.102" fill="#31595c" d="M 106.5,17.5 C 108.179,17.2852 109.179,17.9519 109.5,19.5C 107.973,19.573 106.973,18.9063 106.5,17.5 Z"/></g>
<g><path style="opacity:0.349" fill="#4e8383" d="M 23.5,18.5 C 23.5,20.5 22.5,21.5 20.5,21.5C 21.1667,20.1667 22.1667,19.1667 23.5,18.5 Z"/></g>
<g><path style="opacity:0.996" fill="#60bdb1" d="M 89.5,20.5 C 89.8333,20.5 90.1667,20.5 90.5,20.5C 91.6737,21.5137 92.3404,22.847 92.5,24.5C 92.8449,27.1979 94.1782,29.1979 96.5,30.5C 97.1667,30.5 97.5,30.8333 97.5,31.5C 97.2852,33.1788 97.9519,34.1788 99.5,34.5C 99.2852,36.1788 99.9519,37.1788 101.5,37.5C 102.338,37.8417 102.672,38.5084 102.5,39.5C 102.5,40.1667 102.5,40.8333 102.5,41.5C 101.175,40.0474 100.342,40.3808 100,42.5C 98.4512,48.3334 99.9512,53.0001 104.5,56.5C 102.097,56.552 99.7638,56.2186 97.5,55.5C 96.5,52.5 94.5,50.5 91.5,49.5C 90.596,48.791 90.2627,47.791 90.5,46.5C 90.1551,43.8021 88.8218,41.8021 86.5,40.5C 84.8958,39.713 84.2291,38.3797 84.5,36.5C 85.7206,37.0283 86.8873,37.695 88,38.5C 89.2386,32.5652 89.7386,26.5652 89.5,20.5 Z"/></g>
<g><path style="opacity:0.078" fill="#31595c" d="M 113.5,21.5 C 115.179,21.2852 116.179,21.9519 116.5,23.5C 114.973,23.573 113.973,22.9063 113.5,21.5 Z"/></g>
<g><path style="opacity:0.294" fill="#477979" d="M 20.5,21.5 C 20.5,23.5 19.5,24.5 17.5,24.5C 18.1667,23.1667 19.1667,22.1667 20.5,21.5 Z"/></g>
<g><path style="opacity:0.373" fill="#2b5054" d="M 116.5,23.5 C 117.167,23.5 117.833,23.5 118.5,23.5C 119.906,23.9731 120.573,24.9731 120.5,26.5C 118.77,25.9744 117.436,24.9744 116.5,23.5 Z"/></g>
<g><path style="opacity:0.978" fill="#418c8b" d="M 26.5,24.5 C 28.1667,25.1667 29.8333,25.8333 31.5,26.5C 28.9021,31.3441 25.5688,35.6775 21.5,39.5C 19.5887,40.075 17.922,41.075 16.5,42.5C 18.2855,35.5916 21.6189,29.5916 26.5,24.5 Z"/></g>
<g><path style="opacity:0.545" fill="#325f63" d="M 132.5,19.5 C 136.167,21.1667 138.833,23.8333 140.5,27.5C 138.228,26.5589 136.228,25.2255 134.5,23.5C 133.833,22.1667 133.167,20.8333 132.5,19.5 Z"/></g>
<g><path style="opacity:0.467" fill="#427273" d="M 17.5,24.5 C 17.4456,26.632 16.4456,27.9653 14.5,28.5C 14.7376,26.5956 15.7376,25.2623 17.5,24.5 Z"/></g>
<g><path style="opacity:1" fill="#65beba" d="M 134.5,23.5 C 136.228,25.2255 138.228,26.5589 140.5,27.5C 143.323,28.9923 144.99,31.3257 145.5,34.5C 147.078,36.3747 146.745,37.7081 144.5,38.5C 143.5,38.5 142.5,38.5 141.5,38.5C 140.025,36.3101 138.025,34.9767 135.5,34.5C 135.677,30.7657 135.344,27.0991 134.5,23.5 Z"/></g>
<g><path style="opacity:0.373" fill="#2d5357" d="M 120.5,26.5 C 122.973,26.0882 124.306,27.0882 124.5,29.5C 122.77,28.9744 121.436,27.9744 120.5,26.5 Z"/></g>
<g><path style="opacity:0.373" fill="#285357" d="M 92.5,24.5 C 94.8218,25.8021 96.1551,27.8021 96.5,30.5C 94.1782,29.1979 92.8449,27.1979 92.5,24.5 Z"/></g>
<g><path style="opacity:0.212" fill="#30595d" d="M 58.5,29.5 C 58.7148,31.1788 58.0481,32.1788 56.5,32.5C 56.427,30.9731 57.0937,29.9731 58.5,29.5 Z"/></g>
<g><path style="opacity:0.89" fill="#548580" d="M 14.5,28.5 C 14.3304,31.204 12.9971,32.8707 10.5,33.5C 11.0798,31.2512 12.4131,29.5846 14.5,28.5 Z"/></g>
<g><path style="opacity:0.588" fill="#325a5d" d="M 124.5,30.5 C 127.5,30.1667 128.833,31.5 128.5,34.5C 126.833,33.5 125.5,32.1667 124.5,30.5 Z"/></g>
<g><path style="opacity:0.322" fill="#295054" d="M 79.5,30.5 C 82.0862,31.6385 83.7529,33.6385 84.5,36.5C 82.1637,35.155 80.497,33.155 79.5,30.5 Z"/></g>
<g><path style="opacity:0.078" fill="#2f5a5d" d="M 97.5,31.5 C 98.9063,31.9731 99.573,32.9731 99.5,34.5C 97.9519,34.1788 97.2852,33.1788 97.5,31.5 Z"/></g>
<g><path style="opacity:0.102" fill="#396366" d="M 10.5,33.5 C 10.7148,35.1788 10.0481,36.1788 8.5,36.5C 8.42702,34.9731 9.09368,33.9731 10.5,33.5 Z"/></g>
<g><path style="opacity:0.322" fill="#294e51" d="M 99.5,34.5 C 100.906,34.9731 101.573,35.9731 101.5,37.5C 99.9519,37.1788 99.2852,36.1788 99.5,34.5 Z"/></g>
<g><path style="opacity:0.267" fill="#3f6d6e" d="M 128.5,34.5 C 130.833,34.5 133.167,34.5 135.5,34.5C 138.025,34.9767 140.025,36.3101 141.5,38.5C 137.642,37.1608 133.642,36.3275 129.5,36C 128.944,35.6174 128.611,35.1174 128.5,34.5 Z"/></g>
<g><path style="opacity:0.059" fill="#2e5458" d="M 145.5,34.5 C 147.741,35.2998 148.741,36.9664 148.5,39.5C 146.901,39.7678 145.568,39.4345 144.5,38.5C 146.745,37.7081 147.078,36.3747 145.5,34.5 Z"/></g>
<g><path style="opacity:0.435" fill="#244c50" d="M 21.5,39.5 C 20.2307,43.0536 18.2307,46.0536 15.5,48.5C 15.5,48.1667 15.5,47.8333 15.5,47.5C 15.2155,45.5853 15.5489,43.9187 16.5,42.5C 17.922,41.075 19.5887,40.075 21.5,39.5 Z"/></g>
<g><path style="opacity:0.997" fill="#98e1dc" d="M 102.5,41.5 C 102.842,42.3382 103.508,42.6716 104.5,42.5C 105.635,44.2132 107.302,44.8799 109.5,44.5C 109.833,44.5 110.167,44.5 110.5,44.5C 112.936,45.871 115.603,46.871 118.5,47.5C 123.624,49.6163 124.624,52.9497 121.5,57.5C 120.051,58.1719 118.718,58.8386 117.5,59.5C 117.167,59.5 116.833,59.5 116.5,59.5C 113.444,56.9137 110.111,56.2471 106.5,57.5C 105.833,57.1667 105.167,56.8333 104.5,56.5C 99.9512,53.0001 98.4512,48.3334 100,42.5C 100.342,40.3808 101.175,40.0474 102.5,41.5 Z"/></g>
<g><path style="opacity:0.102" fill="#345d60" d="M 102.5,39.5 C 103.906,39.9731 104.573,40.9731 104.5,42.5C 103.508,42.6716 102.842,42.3382 102.5,41.5C 102.5,40.8333 102.5,40.1667 102.5,39.5 Z"/></g>
<g><path style="opacity:0.416" fill="#3f7579" d="M 50.5,41.5 C 48.8185,43.0075 46.8185,44.0075 44.5,44.5C 43.1667,44.5 41.8333,44.5 40.5,44.5C 43.381,42.32 46.7144,41.32 50.5,41.5 Z"/></g>
<g><path style="opacity:0.349" fill="#63a19c" d="M 7.5,39.5 C 7.74085,42.0336 6.74085,43.7002 4.5,44.5C 4.2729,42.0672 5.2729,40.4006 7.5,39.5 Z"/></g>
<g><path style="opacity:0.02" fill="#2f575a" d="M 86.5,40.5 C 88.8218,41.8021 90.1551,43.8021 90.5,46.5C 88.1782,45.1979 86.8449,43.1979 86.5,40.5 Z"/></g>
<g><path style="opacity:0.718" fill="#3f696b" d="M 104.5,42.5 C 106.553,42.4021 108.22,43.0687 109.5,44.5C 107.302,44.8799 105.635,44.2132 104.5,42.5 Z"/></g>
<g><path style="opacity:1" fill="#7bd4cf" d="M 40.5,44.5 C 41.8333,44.5 43.1667,44.5 44.5,44.5C 47.4323,47.7611 48.099,51.4278 46.5,55.5C 43.6239,55.9272 40.7906,56.5938 38,57.5C 36.9701,57.8361 36.4701,58.5028 36.5,59.5C 36.1667,59.5 35.8333,59.5 35.5,59.5C 35.5,55.8333 35.5,52.1667 35.5,48.5C 32.5,48.5 29.5,48.5 26.5,48.5C 30.7118,45.9436 35.3784,44.6102 40.5,44.5 Z"/></g>
<g><path style="opacity:0.122" fill="#2c5357" d="M 66.5,44.5 C 65.9744,46.2303 64.9744,47.5637 63.5,48.5C 63.0882,46.0274 64.0882,44.6941 66.5,44.5 Z"/></g>
<g><path style="opacity:0.392" fill="#456d72" d="M 110.5,44.5 C 114.924,44.2724 118.924,45.2724 122.5,47.5C 121.167,47.5 119.833,47.5 118.5,47.5C 115.603,46.871 112.936,45.871 110.5,44.5 Z"/></g>
<g><path style="opacity:0.982" fill="#89cece" d="M 118.5,47.5 C 119.833,47.5 121.167,47.5 122.5,47.5C 123.959,47.4326 125.292,47.7659 126.5,48.5C 128.072,49.6873 129.739,50.6873 131.5,51.5C 131.5,61.1667 131.5,70.8333 131.5,80.5C 128.547,84.625 125.381,88.625 122,92.5C 121.51,93.7932 121.343,95.1266 121.5,96.5C 120.837,98.6413 120.503,100.975 120.5,103.5C 120.363,107.447 121.03,111.114 122.5,114.5C 123.814,124.484 124.647,134.484 125,144.5C 122.667,145.413 120.834,146.913 119.5,149C 118.552,149.483 117.552,149.649 116.5,149.5C 118.524,128.575 119.024,107.575 118,86.5C 117.818,83.7737 117.318,81.1071 116.5,78.5C 115.817,78.8627 115.15,79.1961 114.5,79.5C 114.5,79.1667 114.5,78.8333 114.5,78.5C 114.5,78.1667 114.5,77.8333 114.5,77.5C 116.5,77.5 117.5,76.5 117.5,74.5C 120.122,70.5428 123.122,66.8761 126.5,63.5C 127.376,63.6309 128.043,63.2975 128.5,62.5C 127.311,61.5713 125.978,61.238 124.5,61.5C 124.167,61.5 123.833,61.5 123.5,61.5C 122.01,59.7202 120.01,59.0535 117.5,59.5C 118.718,58.8386 120.051,58.1719 121.5,57.5C 124.624,52.9497 123.624,49.6163 118.5,47.5 Z"/></g>
<g><path style="opacity:0.584" fill="#629a97" d="M 15.5,47.5 C 15.5,47.8333 15.5,48.1667 15.5,48.5C 15.3691,49.3764 15.7025,50.0431 16.5,50.5C 19.333,49.0668 22.333,48.4001 25.5,48.5C 21.9155,50.8061 17.9155,52.1394 13.5,52.5C 13.4021,50.4471 14.0687,48.7804 15.5,47.5 Z"/></g>
<g><path style="opacity:0.71" fill="#47777b" d="M 126.5,48.5 C 130.982,48.0339 134.982,49.0339 138.5,51.5C 136.167,51.5 133.833,51.5 131.5,51.5C 129.739,50.6873 128.072,49.6873 126.5,48.5 Z"/></g>
<g><path style="opacity:0.082" fill="#497a7a" d="M 2.5,49.5 C 2.76781,51.099 2.43448,52.4324 1.5,53.5C 0.529087,52.0379 0.862421,50.7046 2.5,49.5 Z"/></g>
<g><path style="opacity:0.997" fill="#67bbbf" d="M 131.5,51.5 C 133.833,51.5 136.167,51.5 138.5,51.5C 138.833,51.5 139.167,51.5 139.5,51.5C 140.913,52.9348 142.58,53.9348 144.5,54.5C 141.535,54.73 140.202,56.3966 140.5,59.5C 140.467,62.1016 141.467,64.1016 143.5,65.5C 143.5,66.1667 143.5,66.8333 143.5,67.5C 140.208,72.4601 136.208,76.7934 131.5,80.5C 131.5,70.8333 131.5,61.1667 131.5,51.5 Z"/></g>
<g><path style="opacity:0.635" fill="#336365" d="M 91.5,49.5 C 94.5,50.5 96.5,52.5 97.5,55.5C 94.5,54.5 92.5,52.5 91.5,49.5 Z"/></g>
<g><path style="opacity:0.577" fill="#436c70" d="M 139.5,51.5 C 143.837,51.5841 147.837,52.5841 151.5,54.5C 149.167,54.5 146.833,54.5 144.5,54.5C 142.58,53.9348 140.913,52.9348 139.5,51.5 Z"/></g>
<g><path style="opacity:0.997" fill="#95d6d0" d="M 144.5,54.5 C 146.833,54.5 149.167,54.5 151.5,54.5C 153.263,69.7632 153.93,85.0966 153.5,100.5C 152.735,103.096 152.401,105.763 152.5,108.5C 152.461,111.535 151.461,114.202 149.5,116.5C 147.088,116.694 146.088,118.027 146.5,120.5C 146.672,121.492 146.338,122.158 145.5,122.5C 144.167,122.833 142.833,123.167 141.5,123.5C 141.423,119.123 140.923,114.79 140,110.5C 139.329,111.252 138.496,111.586 137.5,111.5C 138.6,110.395 139.267,109.062 139.5,107.5C 141.446,106.965 142.446,105.632 142.5,103.5C 144.129,105.858 145.295,108.524 146,111.5C 150.198,99.5066 151.532,87.1733 150,74.5C 148.96,71.1766 147.46,68.1766 145.5,65.5C 144.833,64.1667 144.167,64.1667 143.5,65.5C 141.467,64.1016 140.467,62.1016 140.5,59.5C 140.202,56.3966 141.535,54.73 144.5,54.5 Z"/></g>
<g><path style="opacity:0.997" fill="#4eb4b2" d="M 151.5,54.5 C 152.833,54.5 154.167,54.5 155.5,54.5C 155.5,56.1667 155.5,57.8333 155.5,59.5C 156.774,70.4577 157.441,81.4577 157.5,92.5C 157.717,95.4206 157.051,98.0872 155.5,100.5C 154.833,100.5 154.167,100.5 153.5,100.5C 153.93,85.0966 153.263,69.7632 151.5,54.5 Z"/></g>
<g><path style="opacity:0.631" fill="#427578" d="M 55.5,54.5 C 49.4692,56.9257 43.1359,58.5923 36.5,59.5C 36.4701,58.5028 36.9701,57.8361 38,57.5C 40.7906,56.5938 43.6239,55.9272 46.5,55.5C 49.4299,54.701 52.4299,54.3677 55.5,54.5 Z"/></g>
<g><path style="opacity:0.718" fill="#3c6567" d="M 3.5,57.5 C 6.62089,58.2876 8.28756,60.2876 8.5,63.5C 6.10973,62.1092 4.44306,60.1092 3.5,57.5 Z"/></g>
<g><path style="opacity:0.635" fill="#5a9191" d="M 106.5,57.5 C 110.111,56.2471 113.444,56.9137 116.5,59.5C 113.012,59.4601 109.679,58.7934 106.5,57.5 Z"/></g>
<g><path style="opacity:0.718" fill="#457072" d="M 117.5,59.5 C 120.01,59.0535 122.01,59.7202 123.5,61.5C 121.102,61.7406 119.102,61.0739 117.5,59.5 Z"/></g>
<g><path style="opacity:0.42" fill="#376468" d="M 124.5,61.5 C 125.978,61.238 127.311,61.5713 128.5,62.5C 128.043,63.2975 127.376,63.6309 126.5,63.5C 125.5,63.1667 124.833,62.5 124.5,61.5 Z"/></g>
<g><path style="opacity:0.993" fill="#86dad1" d="M 33.5,60.5 C 31.9581,61.1635 30.2914,61.8302 28.5,62.5C 32.2671,66.5921 35.9338,70.5921 39.5,74.5C 39.5,75.5 39.5,76.5 39.5,77.5C 38.8629,98.3992 39.5296,119.066 41.5,139.5C 39.4862,139.392 37.8195,140.058 36.5,141.5C 35.5,141.5 34.5,141.5 33.5,141.5C 34.9727,136.912 33.9727,132.912 30.5,129.5C 31.4916,129.672 32.1583,129.338 32.5,128.5C 33.4281,115.845 33.5948,103.178 33,90.5C 29.2792,87.2815 26.1125,83.6149 23.5,79.5C 25.0443,79.7031 26.3777,80.3698 27.5,81.5C 28.5676,74.5072 28.5676,67.5072 27.5,60.5C 29.5,60.5 31.5,60.5 33.5,60.5 Z"/></g>
<g><path style="opacity:0.518" fill="#1b4c52" d="M 155.5,59.5 C 157.025,62.0791 158.359,64.7458 159.5,67.5C 159.5,75.1667 159.5,82.8333 159.5,90.5C 158.833,91.1667 158.167,91.8333 157.5,92.5C 157.441,81.4577 156.774,70.4577 155.5,59.5 Z"/></g>
<g><path style="opacity:0.443" fill="#2b5458" d="M 145.5,65.5 C 145.5,66.8333 145.5,68.1667 145.5,69.5C 144.833,68.8333 144.167,68.1667 143.5,67.5C 143.5,66.8333 143.5,66.1667 143.5,65.5C 144.167,64.1667 144.833,64.1667 145.5,65.5 Z"/></g>
<g><path style="opacity:0.157" fill="#406d6f" d="M 10.5,65.5 C 12.8333,65.8333 14.1667,67.1667 14.5,69.5C 12.5,68.8333 11.1667,67.5 10.5,65.5 Z"/></g>
<g><path style="opacity:0.973" fill="#5daea6" d="M 145.5,65.5 C 147.46,68.1766 148.96,71.1766 150,74.5C 151.532,87.1733 150.198,99.5066 146,111.5C 145.295,108.524 144.129,105.858 142.5,103.5C 142.5,102.5 142.5,101.5 142.5,100.5C 144.866,90.3119 145.866,79.9786 145.5,69.5C 145.5,68.1667 145.5,66.8333 145.5,65.5 Z"/></g>
<g><path style="opacity:0.991" fill="#5daea6" d="M -0.5,74.5 C 0.922032,75.925 2.5887,76.925 4.5,77.5C 8.79306,79.4738 10.4597,82.8071 9.5,87.5C 9.43177,91.5704 10.4318,95.237 12.5,98.5C 12.5,98.8333 12.5,99.1667 12.5,99.5C 11.6912,102.368 12.6912,104.702 15.5,106.5C 18.9249,111.255 21.9249,116.255 24.5,121.5C 23.7494,122.573 22.7494,122.74 21.5,122C 10.6102,110.384 3.27682,96.8839 -0.5,81.5C -0.5,79.1667 -0.5,76.8333 -0.5,74.5 Z"/></g>
<g><path style="opacity:0.267" fill="#295358" d="M -0.5,72.5 C 2.14397,73.1439 3.81064,74.8106 4.5,77.5C 2.5887,76.925 0.922032,75.925 -0.5,74.5C -0.5,73.8333 -0.5,73.1667 -0.5,72.5 Z"/></g>
<g><path style="opacity:0.376" fill="#386366" d="M 39.5,74.5 C 40.9744,75.4363 41.9744,76.7697 42.5,78.5C 41.391,78.4431 40.391,78.1098 39.5,77.5C 39.5,76.5 39.5,75.5 39.5,74.5 Z"/></g>
<g><path style="opacity:0.329" fill="#407375" d="M 117.5,74.5 C 117.5,76.5 116.5,77.5 114.5,77.5C 115.167,76.1667 116.167,75.1667 117.5,74.5 Z"/></g>
<g><path style="opacity:0.102" fill="#376164" d="M 20.5,77.5 C 22.1788,77.2852 23.1788,77.9519 23.5,79.5C 21.9731,79.573 20.9731,78.9063 20.5,77.5 Z"/></g>
<g><path style="opacity:1" fill="#79d3cf" d="M 39.5,77.5 C 40.391,78.1098 41.391,78.4431 42.5,78.5C 42.8333,78.5 43.1667,78.5 43.5,78.5C 43.2852,80.1788 43.9519,81.1788 45.5,81.5C 45.5,81.8333 45.5,82.1667 45.5,82.5C 47.8232,86.3121 48.8232,90.4788 48.5,95C 47.7289,103.484 47.3956,111.984 47.5,120.5C 47.5,125.5 47.5,130.5 47.5,135.5C 45.901,135.232 44.5676,135.566 43.5,136.5C 42.8902,137.391 42.5569,138.391 42.5,139.5C 42.1667,139.5 41.8333,139.5 41.5,139.5C 39.5296,119.066 38.8629,98.3992 39.5,77.5 Z"/></g>
<g><path style="opacity:0.267" fill="#396568" d="M 114.5,78.5 C 114.5,78.8333 114.5,79.1667 114.5,79.5C 113.115,81.8835 111.115,83.5501 108.5,84.5C 109.622,81.5622 111.622,79.5622 114.5,78.5 Z"/></g>
<g><path style="opacity:1" fill="#a0e5e2" d="M 116.5,149.5 C 116.5,150.167 116.167,150.5 115.5,150.5C 113.958,149.699 112.292,149.366 110.5,149.5C 110.332,145.831 111.332,142.498 113.5,139.5C 112.643,138.575 111.643,137.908 110.5,137.5C 109.609,136.89 108.609,136.557 107.5,136.5C 107.167,136.5 106.833,136.5 106.5,136.5C 106.167,135.833 105.833,135.167 105.5,134.5C 104.999,129.847 105.666,125.514 107.5,121.5C 108.222,121.082 108.722,120.416 109,119.5C 109.167,117.333 109.333,115.167 109.5,113C 109.672,109.523 109.006,106.356 107.5,103.5C 107.5,101.833 107.5,100.167 107.5,98.5C 107.467,94.1311 107.8,89.7978 108.5,85.5C 108.5,85.1667 108.5,84.8333 108.5,84.5C 111.115,83.5501 113.115,81.8835 114.5,79.5C 115.15,79.1961 115.817,78.8627 116.5,78.5C 117.318,81.1071 117.818,83.7737 118,86.5C 119.024,107.575 118.524,128.575 116.5,149.5 Z"/></g>
<g><path style="opacity:0.102" fill="#325e61" d="M 43.5,78.5 C 44.9063,78.9731 45.573,79.9731 45.5,81.5C 43.9519,81.1788 43.2852,80.1788 43.5,78.5 Z"/></g>
<g><path style="opacity:0.999" fill="#a0f3df" d="M -0.5,81.5 C 3.27682,96.8839 10.6102,110.384 21.5,122C 22.7494,122.74 23.7494,122.573 24.5,121.5C 25.4013,122.29 26.0679,123.29 26.5,124.5C 27.604,126.389 28.9373,128.055 30.5,129.5C 33.9727,132.912 34.9727,136.912 33.5,141.5C 31.1667,141.5 28.8333,141.5 26.5,141.5C 25.1667,140.5 23.8333,139.5 22.5,138.5C 22.5,135.167 20.8333,133.5 17.5,133.5C 17.5,132.5 17.5,131.5 17.5,130.5C 16.5,130.5 15.5,130.5 14.5,130.5C 14.5,129.833 14.5,129.167 14.5,128.5C 14.5,126.5 13.5,125.5 11.5,125.5C 10.8333,125.5 10.5,125.167 10.5,124.5C 10.1933,119.872 8.1933,116.205 4.5,113.5C 3.12285,111.711 2.12285,109.711 1.5,107.5C 2.76937,103.268 2.1027,99.268 -0.5,95.5C -0.5,90.8333 -0.5,86.1667 -0.5,81.5 Z"/></g>
<g><path style="opacity:0.417" fill="#2a4f53" d="M 108.5,85.5 C 107.8,89.7978 107.467,94.1311 107.5,98.5C 106.657,95.6743 105.991,92.6743 105.5,89.5C 105.561,87.3472 106.561,86.0138 108.5,85.5 Z"/></g>
<g><path style="opacity:0.064" fill="#345b5e" d="M 45.5,82.5 C 46.4959,82.4142 47.3292,82.7476 48,83.5C 48.3333,84.8333 48.6667,86.1667 49,87.5C 49.4838,98.1751 49.3171,108.842 48.5,119.5C 48.5,120.167 48.1667,120.5 47.5,120.5C 47.3956,111.984 47.7289,103.484 48.5,95C 48.8232,90.4788 47.8232,86.3121 45.5,82.5 Z"/></g>
<g><path style="opacity:0.42" fill="#386366" d="M 9.5,87.5 C 11.2576,90.8544 12.2576,94.521 12.5,98.5C 10.4318,95.237 9.43177,91.5704 9.5,87.5 Z"/></g>
<g><path style="opacity:0.831" fill="#69a29a" d="M -0.5,95.5 C 2.1027,99.268 2.76937,103.268 1.5,107.5C 1.01131,106.005 0.344644,104.671 -0.5,103.5C -0.5,100.833 -0.5,98.1667 -0.5,95.5 Z"/></g>
<g><path style="opacity:0.324" fill="#4e7f82" d="M 121.5,96.5 C 122.413,102.441 122.746,108.441 122.5,114.5C 121.03,111.114 120.363,107.447 120.5,103.5C 120.503,100.975 120.837,98.6413 121.5,96.5 Z"/></g>
<g><path style="opacity:0.624" fill="#446f73" d="M 153.5,100.5 C 154.167,100.5 154.833,100.5 155.5,100.5C 155.982,103.831 154.982,106.497 152.5,108.5C 152.401,105.763 152.735,103.096 153.5,100.5 Z"/></g>
<g><path style="opacity:0.78" fill="#366669" d="M 12.5,99.5 C 14.4484,101.32 15.4484,103.654 15.5,106.5C 12.6912,104.702 11.6912,102.368 12.5,99.5 Z"/></g>
<g><path style="opacity:0.329" fill="#3b6567" d="M 142.5,100.5 C 142.5,101.5 142.5,102.5 142.5,103.5C 142.446,105.632 141.446,106.965 139.5,107.5C 140.323,105.013 141.323,102.679 142.5,100.5 Z"/></g>
<g><path style="opacity:0.506" fill="#619596" d="M 107.5,103.5 C 109.006,106.356 109.672,109.523 109.5,113C 109.333,115.167 109.167,117.333 109,119.5C 108.722,120.416 108.222,121.082 107.5,121.5C 107.167,120.833 106.833,120.167 106.5,119.5C 107.478,119.189 108.145,118.522 108.5,117.5C 107.557,112.9 107.223,108.233 107.5,103.5 Z"/></g>
<g><path style="opacity:1" fill="#50c6b9" d="M 84.5,110.5 C 84.8102,112.144 85.8102,113.144 87.5,113.5C 88.4299,117.4 88.7633,121.4 88.5,125.5C 86.8333,125.5 85.1667,125.5 83.5,125.5C 81.5648,124.85 79.5648,124.517 77.5,124.5C 76.8333,124.5 76.1667,124.5 75.5,124.5C 72.6874,124.025 70.6874,125.025 69.5,127.5C 68.8333,127.5 68.1667,127.5 67.5,127.5C 66.6868,126.347 65.6868,126.347 64.5,127.5C 63.1667,123.5 63.1667,119.5 64.5,115.5C 67.1751,114.479 69.1751,112.813 70.5,110.5C 75.179,107.91 79.8457,107.91 84.5,110.5 Z"/></g>
<g><path style="opacity:0.49" fill="#316062" d="M 84.5,110.5 C 86.8185,110.992 88.8185,111.992 90.5,113.5C 89.5,113.5 88.5,113.5 87.5,113.5C 85.8102,113.144 84.8102,112.144 84.5,110.5 Z"/></g>
<g><path style="opacity:1" fill="#bedad6" d="M 141.5,123.5 C 140.28,125.284 140.28,126.95 141.5,128.5C 141.144,130.19 140.144,131.19 138.5,131.5C 138.068,130.29 137.401,129.29 136.5,128.5C 135.908,125.873 135.575,123.206 135.5,120.5C 135.517,118.435 135.85,116.435 136.5,114.5C 137.11,113.609 137.443,112.609 137.5,111.5C 138.496,111.586 139.329,111.252 140,110.5C 140.923,114.79 141.423,119.123 141.5,123.5 Z"/></g>
<g><path style="opacity:1" fill="#57b4b7" d="M 70.5,110.5 C 69.1751,112.813 67.1751,114.479 64.5,115.5C 63.1667,119.5 63.1667,123.5 64.5,127.5C 65.6868,126.347 66.6868,126.347 67.5,127.5C 65.3877,129.771 62.721,131.104 59.5,131.5C 56.6874,131.025 54.6874,132.025 53.5,134.5C 51.8583,136.081 49.8583,136.747 47.5,136.5C 46.1667,136.5 44.8333,136.5 43.5,136.5C 44.5676,135.566 45.901,135.232 47.5,135.5C 47.5,130.5 47.5,125.5 47.5,120.5C 48.1667,120.5 48.5,120.167 48.5,119.5C 50.0418,118.699 51.7085,118.366 53.5,118.5C 53.4346,118.938 53.6012,119.272 54,119.5C 55.3988,118.773 56.8988,118.273 58.5,118C 60.6355,117.124 61.9688,115.624 62.5,113.5C 65.0067,112.108 67.6733,111.108 70.5,110.5 Z"/></g>
<g><path style="opacity:0.999" fill="#61bfb2" d="M 87.5,113.5 C 88.5,113.5 89.5,113.5 90.5,113.5C 91.791,113.263 92.791,113.596 93.5,114.5C 95.0361,117.092 97.3695,118.092 100.5,117.5C 102.579,117.971 104.579,118.637 106.5,119.5C 106.833,120.167 107.167,120.833 107.5,121.5C 105.666,125.514 104.999,129.847 105.5,134.5C 101.981,133.036 98.3139,132.036 94.5,131.5C 92.4862,131.608 90.8195,130.942 89.5,129.5C 88.3646,127.787 86.698,127.12 84.5,127.5C 84.1667,127.5 83.8333,127.5 83.5,127.5C 83.5,126.833 83.5,126.167 83.5,125.5C 85.1667,125.5 86.8333,125.5 88.5,125.5C 88.7633,121.4 88.4299,117.4 87.5,113.5 Z"/></g>
<g><path style="opacity:0.839" fill="#3c797e" d="M 62.5,113.5 C 61.9688,115.624 60.6355,117.124 58.5,118C 56.8988,118.273 55.3988,118.773 54,119.5C 53.6012,119.272 53.4346,118.938 53.5,118.5C 56.0125,116.074 59.0125,114.408 62.5,113.5 Z"/></g>
<g><path style="opacity:0.941" fill="#4b7473" d="M 4.5,113.5 C 8.1933,116.205 10.1933,119.872 10.5,124.5C 7.21973,121.612 5.21973,117.945 4.5,113.5 Z"/></g>
<g><path style="opacity:0.588" fill="#2c5659" d="M 93.5,114.5 C 96.3462,114.552 98.6796,115.552 100.5,117.5C 97.3695,118.092 95.0361,117.092 93.5,114.5 Z"/></g>
<g><path style="opacity:0.039" fill="#32585c" d="M 136.5,114.5 C 135.85,116.435 135.517,118.435 135.5,120.5C 134.861,119.903 134.528,119.07 134.5,118C 134.387,116.301 135.053,115.134 136.5,114.5 Z"/></g>
<g><path style="opacity:0.22" fill="#447376" d="M 149.5,116.5 C 148.974,118.23 147.974,119.564 146.5,120.5C 146.088,118.027 147.088,116.694 149.5,116.5 Z"/></g>
<g><path style="opacity:0.788" fill="#436e71" d="M 145.5,122.5 C 145.155,125.198 143.822,127.198 141.5,128.5C 140.28,126.95 140.28,125.284 141.5,123.5C 142.833,123.167 144.167,122.833 145.5,122.5 Z"/></g>
<g><path style="opacity:0.588" fill="#2f595b" d="M 77.5,124.5 C 79.5648,124.517 81.5648,124.85 83.5,125.5C 83.5,126.167 83.5,126.833 83.5,127.5C 81.1815,127.008 79.1815,126.008 77.5,124.5 Z"/></g>
<g><path style="opacity:0.404" fill="#4c787a" d="M 11.5,125.5 C 13.5,125.5 14.5,126.5 14.5,128.5C 12.5,128.5 11.5,127.5 11.5,125.5 Z"/></g>
<g><path style="opacity:0.078" fill="#2b5457" d="M 75.5,124.5 C 73.9674,126.245 71.9674,127.245 69.5,127.5C 70.6874,125.025 72.6874,124.025 75.5,124.5 Z"/></g>
<g><path style="opacity:0.549" fill="#2d595b" d="M 84.5,127.5 C 86.698,127.12 88.3646,127.787 89.5,129.5C 87.4471,129.598 85.7804,128.931 84.5,127.5 Z"/></g>
<g><path style="opacity:0.157" fill="#3d6769" d="M 26.5,124.5 C 28.7541,125.415 30.7541,126.748 32.5,128.5C 32.1583,129.338 31.4916,129.672 30.5,129.5C 28.9373,128.055 27.604,126.389 26.5,124.5 Z"/></g>
<g><path style="opacity:0.02" fill="#335556" d="M 136.5,128.5 C 137.401,129.29 138.068,130.29 138.5,131.5C 138.44,132.043 138.107,132.376 137.5,132.5C 136.571,131.311 136.238,129.978 136.5,128.5 Z"/></g>
<g><path style="opacity:0.267" fill="#30585c" d="M 14.5,130.5 C 15.5,130.5 16.5,130.5 17.5,130.5C 17.5,131.5 17.5,132.5 17.5,133.5C 16.1667,132.833 15.1667,131.833 14.5,130.5 Z"/></g>
<g><path style="opacity:0.192" fill="#2c5256" d="M 59.5,131.5 C 57.8185,133.008 55.8185,134.008 53.5,134.5C 54.6874,132.025 56.6874,131.025 59.5,131.5 Z"/></g>
<g><path style="opacity:0.42" fill="#345e62" d="M 94.5,131.5 C 98.3139,132.036 101.981,133.036 105.5,134.5C 105.833,135.167 106.167,135.833 106.5,136.5C 102.099,135.594 98.0986,133.928 94.5,131.5 Z"/></g>
<g><path style="opacity:0.467" fill="#497778" d="M 17.5,133.5 C 20.8333,133.5 22.5,135.167 22.5,138.5C 20.5,137.167 18.8333,135.5 17.5,133.5 Z"/></g>
<g><path style="opacity:0.42" fill="#345d61" d="M 43.5,136.5 C 44.8333,136.5 46.1667,136.5 47.5,136.5C 46.2318,138.047 44.5652,139.047 42.5,139.5C 42.5569,138.391 42.8902,137.391 43.5,136.5 Z"/></g>
<g><path style="opacity:0.039" fill="#3b6265" d="M 107.5,136.5 C 108.609,136.557 109.609,136.89 110.5,137.5C 110.5,138.167 110.167,138.5 109.5,138.5C 108.5,138.167 107.833,137.5 107.5,136.5 Z"/></g>
<g><path style="opacity:0.982" fill="#85c6c0" d="M 110.5,137.5 C 111.643,137.908 112.643,138.575 113.5,139.5C 111.332,142.498 110.332,145.831 110.5,149.5C 112.292,149.366 113.958,149.699 115.5,150.5C 112.47,152.403 109.137,153.737 105.5,154.5C 104.833,154.5 104.167,154.5 103.5,154.5C 104.555,151.927 104.722,149.261 104,146.5C 98.3353,148.665 92.502,150.332 86.5,151.5C 85.2867,151.253 84.62,150.586 84.5,149.5C 84.5,149.167 84.5,148.833 84.5,148.5C 86.8984,148.741 88.8984,148.074 90.5,146.5C 90.8333,146.5 91.1667,146.5 91.5,146.5C 94.5533,146.889 97.22,146.223 99.5,144.5C 102.356,142.907 105.356,141.573 108.5,140.5C 109.298,140.043 109.631,139.376 109.5,138.5C 110.167,138.5 110.5,138.167 110.5,137.5 Z"/></g>
<g><path style="opacity:0.157" fill="#3c686b" d="M 26.5,141.5 C 28.8333,141.5 31.1667,141.5 33.5,141.5C 34.5,141.5 35.5,141.5 36.5,141.5C 33.1667,145.5 29.8333,145.5 26.5,141.5 Z"/></g>
<g><path style="opacity:0.329" fill="#3a6567" d="M 99.5,144.5 C 97.22,146.223 94.5533,146.889 91.5,146.5C 93.9052,145.232 96.5718,144.565 99.5,144.5 Z"/></g>
<g><path style="opacity:0.871" fill="#315f62" d="M 90.5,146.5 C 88.8984,148.074 86.8984,148.741 84.5,148.5C 75.1425,148.65 65.8092,148.317 56.5,147.5C 57.7767,146.102 59.4434,145.436 61.5,145.5C 71.1245,147.564 80.7911,147.898 90.5,146.5 Z"/></g>
<g><path style="opacity:1" fill="#5bc6b9" d="M 103.5,154.5 C 101.973,154.427 100.973,155.094 100.5,156.5C 99.8333,156.5 99.1667,156.5 98.5,156.5C 84.8333,157.833 71.1667,157.833 57.5,156.5C 57.1667,156.5 56.8333,156.5 56.5,156.5C 56.6107,155.883 56.944,155.383 57.5,155C 60.7568,153.957 64.0901,153.457 67.5,153.5C 67.5,152.167 67.5,150.833 67.5,149.5C 73.1667,149.5 78.8333,149.5 84.5,149.5C 84.62,150.586 85.2867,151.253 86.5,151.5C 92.502,150.332 98.3353,148.665 104,146.5C 104.722,149.261 104.555,151.927 103.5,154.5 Z"/></g>
<g><path style="opacity:0.994" fill="#409392" d="M 56.5,147.5 C 65.8092,148.317 75.1425,148.65 84.5,148.5C 84.5,148.833 84.5,149.167 84.5,149.5C 78.8333,149.5 73.1667,149.5 67.5,149.5C 67.5,150.833 67.5,152.167 67.5,153.5C 64.0901,153.457 60.7568,153.957 57.5,155C 56.944,155.383 56.6107,155.883 56.5,156.5C 43.2358,153.69 43.2358,150.69 56.5,147.5 Z"/></g>
<g><path style="opacity:0.329" fill="#355d5f" d="M 103.5,154.5 C 104.167,154.5 104.833,154.5 105.5,154.5C 104.365,156.213 102.698,156.88 100.5,156.5C 100.973,155.094 101.973,154.427 103.5,154.5 Z"/></g>
<g><path style="opacity:0.31" fill="#3b7e7e" d="M 57.5,156.5 C 71.1667,157.833 84.8333,157.833 98.5,156.5C 96.9275,157.687 95.2608,158.687 93.5,159.5C 83.1667,159.5 72.8333,159.5 62.5,159.5C 60.7392,158.687 59.0725,157.687 57.5,156.5 Z"/></g>
</svg>
