<?xml version="1.0" encoding="UTF-8"?>
<!DOCTYPE svg PUBLIC "-//W3C//DTD SVG 1.1//EN" "http://www.w3.org/Graphics/SVG/1.1/DTD/svg11.dtd">
<svg xmlns="http://www.w3.org/2000/svg" version="1.1" width="40px" height="40px" style="shape-rendering:geometricPrecision; text-rendering:geometricPrecision; image-rendering:optimizeQuality; fill-rule:evenodd; clip-rule:evenodd" xmlns:xlink="http://www.w3.org/1999/xlink">
<g><path style="opacity:1" fill="#52bbaf" d="M 18.5,-0.5 C 20.8333,-0.5 23.1667,-0.5 25.5,-0.5C 25.5,-0.166667 25.5,0.166667 25.5,0.5C 24.9569,0.559992 24.6236,0.893326 24.5,1.5C 25.7701,2.28763 26.7701,3.28763 27.5,4.5C 25.8828,3.962 24.2161,3.62867 22.5,3.5C 22.1667,2.16667 21.8333,2.16667 21.5,3.5C 20.2954,1.86242 18.9621,1.52909 17.5,2.5C 17.5569,1.39105 17.8902,0.391047 18.5,-0.5 Z"/></g>
<g><path style="opacity:1" fill="#50d0c1" d="M 21.5,3.5 C 21.7845,5.41467 21.4511,7.08134 20.5,8.5C 20.1788,6.95186 19.1788,6.28519 17.5,6.5C 17.5,5.16667 17.5,3.83333 17.5,2.5C 18.9621,1.52909 20.2954,1.86242 21.5,3.5 Z"/></g>
<g><path style="opacity:1" fill="#70b8b2" d="M 12.5,-0.5 C 13.1667,-0.5 13.8333,-0.5 14.5,-0.5C 14.2914,0.921673 13.7914,2.25501 13,3.5C 10.2132,4.80486 7.71318,6.47152 5.5,8.5C 5.70311,6.95568 6.36977,5.62235 7.5,4.5C 7.37642,3.89333 7.04309,3.55999 6.5,3.5C 8.5,2.16667 10.5,0.833333 12.5,-0.5 Z"/></g>
<g><path style="opacity:1" fill="#8fd9d4" d="M 25.5,0.5 C 27.5138,0.391506 29.1805,1.05817 30.5,2.5C 30.1788,4.04814 29.1788,4.71481 27.5,4.5C 26.7701,3.28763 25.7701,2.28763 24.5,1.5C 24.6236,0.893326 24.9569,0.559992 25.5,0.5 Z"/></g>
<g><path style="opacity:1" fill="#4fbab5" d="M 17.5,2.5 C 17.5,3.83333 17.5,5.16667 17.5,6.5C 19.1788,6.28519 20.1788,6.95186 20.5,8.5C 19.8826,8.38929 19.3826,8.05596 19,7.5C 18.1482,8.57075 17.3149,9.57075 16.5,10.5C 15.5489,9.08134 15.2155,7.41467 15.5,5.5C 15.427,3.97306 16.0937,2.97306 17.5,2.5 Z"/></g>
<g><path style="opacity:1" fill="#50b0a5" d="M 21.5,3.5 C 21.8333,3.5 22.1667,3.5 22.5,3.5C 23.1667,5.16667 23.8333,6.83333 24.5,8.5C 23.8826,8.38929 23.3826,8.05596 23,7.5C 22.51,8.79323 22.3433,10.1266 22.5,11.5C 21.0937,11.0269 20.427,10.0269 20.5,8.5C 21.4511,7.08134 21.7845,5.41467 21.5,3.5 Z"/></g>
<g><path style="opacity:1" fill="#74bfbc" d="M 30.5,2.5 C 32.8122,4.14552 34.8122,6.14552 36.5,8.5C 35.277,9.61385 33.9437,9.78052 32.5,9C 30.7605,7.48305 29.0938,5.98305 27.5,4.5C 29.1788,4.71481 30.1788,4.04814 30.5,2.5 Z"/></g>
<g><path style="opacity:1" fill="#82cfc3" d="M 6.5,3.5 C 7.04309,3.55999 7.37642,3.89333 7.5,4.5C 6.36977,5.62235 5.70311,6.95568 5.5,8.5C 5.67158,9.49162 5.33825,10.1583 4.5,10.5C 4.71481,8.82124 4.04814,7.82124 2.5,7.5C 3.5,5.83333 4.83333,4.5 6.5,3.5 Z"/></g>
<g><path style="opacity:1" fill="#53aeb1" d="M 15.5,5.5 C 15.2155,7.41467 15.5489,9.08134 16.5,10.5C 16.3059,12.9118 14.9726,13.9118 12.5,13.5C 14.129,11.8041 13.7957,10.8041 11.5,10.5C 12.604,8.61145 13.9373,6.94478 15.5,5.5 Z"/></g>
<g><path style="opacity:1" fill="#5bbaad" d="M 24.5,8.5 C 24.5,10.1667 24.5,11.8333 24.5,13.5C 23.1667,13.5 22.5,12.8333 22.5,11.5C 22.3433,10.1266 22.51,8.79323 23,7.5C 23.3826,8.05596 23.8826,8.38929 24.5,8.5 Z"/></g>
<g><path style="opacity:1" fill="#9ef0dd" d="M 2.5,7.5 C 4.04814,7.82124 4.71481,8.82124 4.5,10.5C 3.95691,10.56 3.62358,10.8933 3.5,11.5C 5.65509,12.0014 7.32176,13.0014 8.5,14.5C 7.16667,15.8333 5.83333,17.1667 4.5,18.5C 2.47266,17.1394 0.805998,15.4727 -0.5,13.5C -0.5,12.8333 -0.5,12.1667 -0.5,11.5C 0.488369,10.205 1.48837,8.87165 2.5,7.5 Z"/></g>
<g><path style="opacity:0.996" fill="#60b9bd" d="M 7.5,11.5 C 8.56764,10.5655 9.90097,10.2322 11.5,10.5C 13.7957,10.8041 14.129,11.8041 12.5,13.5C 12.1583,14.3382 11.4916,14.6716 10.5,14.5C 11.5669,12.1205 10.5669,11.1205 7.5,11.5 Z"/></g>
<g><path style="opacity:0.998" fill="#80d2cb" d="M 4.5,10.5 C 5.20895,11.404 6.20895,11.7373 7.5,11.5C 10.5669,11.1205 11.5669,12.1205 10.5,14.5C 9.83333,14.5 9.16667,14.5 8.5,14.5C 7.32176,13.0014 5.65509,12.0014 3.5,11.5C 3.62358,10.8933 3.95691,10.56 4.5,10.5 Z"/></g>
<g><path style="opacity:1" fill="#76c2bc" d="M 24.5,8.5 C 26.1131,9.69234 27.7798,10.6923 29.5,11.5C 28.5,11.5 27.5,11.5 26.5,11.5C 26.5,12.5 26.5,13.5 26.5,14.5C 25.5084,14.6716 24.8417,14.3382 24.5,13.5C 24.5,11.8333 24.5,10.1667 24.5,8.5 Z"/></g>
<g><path style="opacity:1" fill="#96dfde" d="M 29.5,11.5 C 29.8333,11.5 30.1667,11.5 30.5,11.5C 33.0401,13.666 32.3734,14.666 28.5,14.5C 27.8333,14.5 27.1667,14.5 26.5,14.5C 26.5,13.5 26.5,12.5 26.5,11.5C 27.5,11.5 28.5,11.5 29.5,11.5 Z"/></g>
<g><path style="opacity:1" fill="#73c0c1" d="M 30.5,11.5 C 31.791,11.2627 32.791,11.596 33.5,12.5C 33.5,14.5 33.5,16.5 33.5,18.5C 33.573,20.0269 32.9063,21.0269 31.5,21.5C 31.6567,20.1266 31.49,18.7932 31,17.5C 30.3292,18.2524 29.4959,18.5858 28.5,18.5C 28.9528,17.5416 29.6195,16.7083 30.5,16C 29.5842,15.7216 28.9175,15.2216 28.5,14.5C 32.3734,14.666 33.0401,13.666 30.5,11.5 Z"/></g>
<g><path style="opacity:0.996" fill="#59a5a8" d="M 33.5,12.5 C 35.099,12.2322 36.4324,12.5655 37.5,13.5C 36.6236,13.3691 35.9569,13.7025 35.5,14.5C 36.7665,16.9724 36.7665,19.3057 35.5,21.5C 35.6567,20.1266 35.49,18.7932 35,17.5C 34.6174,18.056 34.1174,18.3893 33.5,18.5C 33.5,16.5 33.5,14.5 33.5,12.5 Z"/></g>
<g><path style="opacity:1" fill="#76c7c1" d="M 37.5,13.5 C 38.1667,13.8333 38.8333,14.1667 39.5,14.5C 39.5,17.8333 39.5,21.1667 39.5,24.5C 38.4335,26.964 37.1002,29.2974 35.5,31.5C 35.7845,29.5853 35.4511,27.9187 34.5,26.5C 35.038,24.8828 35.3713,23.2161 35.5,21.5C 36.7665,19.3057 36.7665,16.9724 35.5,14.5C 35.9569,13.7025 36.6236,13.3691 37.5,13.5 Z"/></g>
<g><path style="opacity:0.982" fill="#92e2d6" d="M 8.5,14.5 C 7.52909,15.9621 7.86242,17.2954 9.5,18.5C 9.5,19.1667 9.5,19.8333 9.5,20.5C 9.67158,21.4916 9.33825,22.1583 8.5,22.5C 6.83333,21.5 5.5,20.1667 4.5,18.5C 5.83333,17.1667 7.16667,15.8333 8.5,14.5 Z"/></g>
<g><path style="opacity:1" fill="#94d8d7" d="M 31.5,21.5 C 30.2233,25.7823 30.2233,30.1157 31.5,34.5C 30.8999,36.4677 29.5666,37.4677 27.5,37.5C 26.5655,36.4324 26.2322,35.099 26.5,33.5C 27.7943,31.9522 28.4609,29.9522 28.5,27.5C 28.4954,25.3035 28.162,23.3035 27.5,21.5C 27.5,21.1667 27.5,20.8333 27.5,20.5C 27.8333,19.8333 28.1667,19.1667 28.5,18.5C 29.4959,18.5858 30.3292,18.2524 31,17.5C 31.49,18.7932 31.6567,20.1266 31.5,21.5 Z"/></g>
<g><path style="opacity:1" fill="#4e9f9c" d="M -0.5,17.5 C 0.458367,17.9528 1.2917,18.6195 2,19.5C 2.73875,22.5465 3.57209,25.5465 4.5,28.5C 3.83333,28.1667 3.16667,27.8333 2.5,27.5C 1.48779,24.7428 0.48779,22.0761 -0.5,19.5C -0.5,18.8333 -0.5,18.1667 -0.5,17.5 Z"/></g>
<g><path style="opacity:1" fill="#82dbd6" d="M 9.5,20.5 C 10.4861,24.97 10.8195,29.6367 10.5,34.5C 10.1667,34.5 9.83333,34.5 9.5,34.5C 9.81,31.2869 9.47667,28.2869 8.5,25.5C 8.5,24.5 8.5,23.5 8.5,22.5C 9.33825,22.1583 9.67158,21.4916 9.5,20.5 Z"/></g>
<g><path style="opacity:1" fill="#a7ebe7" d="M 27.5,21.5 C 28.162,23.3035 28.4954,25.3035 28.5,27.5C 28.4609,29.9522 27.7943,31.9522 26.5,33.5C 27.2721,29.5483 27.6054,25.5483 27.5,21.5 Z"/></g>
<g><path style="opacity:0.973" fill="#8de0d0" d="M -0.5,19.5 C 0.48779,22.0761 1.48779,24.7428 2.5,27.5C 1.66175,27.8417 1.32842,28.5084 1.5,29.5C 0.833333,28.5 0.166667,27.5 -0.5,26.5C -0.5,24.1667 -0.5,21.8333 -0.5,19.5 Z"/></g>
<g><path style="opacity:0.706" fill="#8ed6d0" d="M 27.5,20.5 C 27.5,20.8333 27.5,21.1667 27.5,21.5C 27.6054,25.5483 27.2721,29.5483 26.5,33.5C 26.1667,33.5 25.8333,33.5 25.5,33.5C 24.3143,32.0387 24.3143,30.7054 25.5,29.5C 26.1667,26.5 26.8333,23.5 27.5,20.5 Z"/></g>
<g><path style="opacity:0.999" fill="#8adfd5" d="M 8.5,25.5 C 9.47667,28.2869 9.81,31.2869 9.5,34.5C 8.16667,35.8333 6.83333,35.8333 5.5,34.5C 8.24764,34.5983 8.9143,33.5983 7.5,31.5C 8.46138,29.7354 8.79472,27.7354 8.5,25.5 Z"/></g>
<g><path style="opacity:0.196" fill="#619c9c" d="M 8.5,25.5 C 8.79472,27.7354 8.46138,29.7354 7.5,31.5C 7.16667,31.5 6.83333,31.5 6.5,31.5C 6.5,31.1667 6.5,30.8333 6.5,30.5C 7.16667,28.8333 7.83333,27.1667 8.5,25.5 Z"/></g>
<g><path style="opacity:1" fill="#4fc7bb" d="M 21.5,27.5 C 21.5,28.5 21.5,29.5 21.5,30.5C 20.209,30.2627 19.209,30.596 18.5,31.5C 18.1667,31.5 17.8333,31.5 17.5,31.5C 15.9519,31.1788 15.2852,30.1788 15.5,28.5C 17.2082,26.4876 19.2082,26.1542 21.5,27.5 Z"/></g>
<g><path style="opacity:1" fill="#54b5aa" d="M 21.5,27.5 C 23.153,27.6596 24.4863,28.3263 25.5,29.5C 24.3143,30.7054 24.3143,32.0387 25.5,33.5C 23.1667,32.8333 20.8333,32.1667 18.5,31.5C 19.209,30.596 20.209,30.2627 21.5,30.5C 21.5,29.5 21.5,28.5 21.5,27.5 Z"/></g>
<g><path style="opacity:0.996" fill="#96e1d2" d="M 2.5,27.5 C 3.16667,27.8333 3.83333,28.1667 4.5,28.5C 5.5,28.8333 6.16667,29.5 6.5,30.5C 6.5,30.8333 6.5,31.1667 6.5,31.5C 3.47695,28.8216 2.81029,29.4882 4.5,33.5C 3.02561,32.5637 2.02561,31.2303 1.5,29.5C 1.32842,28.5084 1.66175,27.8417 2.5,27.5 Z"/></g>
<g><path style="opacity:1" fill="#50a6a9" d="M 11.5,20.5 C 12.4731,22.9479 12.8064,25.6146 12.5,28.5C 13.5,28.5 14.5,28.5 15.5,28.5C 15.2852,30.1788 15.9519,31.1788 17.5,31.5C 16.791,32.404 15.791,32.7373 14.5,32.5C 14.1436,30.8102 13.1436,29.8102 11.5,29.5C 11.5,26.5 11.5,23.5 11.5,20.5 Z"/></g>
<g><path style="opacity:0.992" fill="#b0d0cc" d="M 34.5,26.5 C 35.4511,27.9187 35.7845,29.5853 35.5,31.5C 35.2172,32.2891 34.7172,32.9558 34,33.5C 33.2967,31.0709 33.4634,28.7375 34.5,26.5 Z"/></g>
<g><path style="opacity:1" fill="#73cdcc" d="M 9.5,18.5 C 10.5,18.8333 11.1667,19.5 11.5,20.5C 11.5,23.5 11.5,26.5 11.5,29.5C 11.5,31.1667 11.5,32.8333 11.5,34.5C 11.1667,34.5 10.8333,34.5 10.5,34.5C 10.8195,29.6367 10.4861,24.97 9.5,20.5C 9.5,19.8333 9.5,19.1667 9.5,18.5 Z"/></g>
<g><path style="opacity:0.996" fill="#5cb7bc" d="M 11.5,29.5 C 13.1436,29.8102 14.1436,30.8102 14.5,32.5C 13.7095,33.4013 12.7095,34.0679 11.5,34.5C 11.5,32.8333 11.5,31.1667 11.5,29.5 Z"/></g>
<g><path style="opacity:0.961" fill="#9ef0de" d="M 6.5,31.5 C 6.83333,31.5 7.16667,31.5 7.5,31.5C 8.9143,33.5983 8.24764,34.5983 5.5,34.5C 4.83333,34.5 4.5,34.1667 4.5,33.5C 2.81029,29.4882 3.47695,28.8216 6.5,31.5 Z"/></g>
<g><path style="opacity:1" fill="#76bbb5" d="M 25.5,33.5 C 25.8333,33.5 26.1667,33.5 26.5,33.5C 26.2322,35.099 26.5655,36.4324 27.5,37.5C 26.8333,38.1667 26.1667,38.8333 25.5,39.5C 24.8333,39.5 24.1667,39.5 23.5,39.5C 23.6107,38.8826 23.944,38.3826 24.5,38C 23.2068,37.51 21.8734,37.3433 20.5,37.5C 20.5,37.1667 20.5,36.8333 20.5,36.5C 22.8477,36.4077 24.5144,35.4077 25.5,33.5 Z"/></g>
<g><path style="opacity:1" fill="#479e9c" d="M 20.5,36.5 C 20.5,36.8333 20.5,37.1667 20.5,37.5C 18.4471,37.4021 16.7804,38.0687 15.5,39.5C 14.8333,39.5 14.1667,39.5 13.5,39.5C 12.9094,38.8485 12.2427,38.1818 11.5,37.5C 12.6283,36.7379 13.7949,36.0712 15,35.5C 16.6995,36.4061 18.5328,36.7394 20.5,36.5 Z"/></g>
<g><path style="opacity:1" fill="#59c3b6" d="M 20.5,37.5 C 21.8734,37.3433 23.2068,37.51 24.5,38C 23.944,38.3826 23.6107,38.8826 23.5,39.5C 20.8333,39.5 18.1667,39.5 15.5,39.5C 16.7804,38.0687 18.4471,37.4021 20.5,37.5 Z"/></g>
</svg>
