<?xml version="1.0" encoding="UTF-8"?>
<!DOCTYPE svg PUBLIC "-//W3C//DTD SVG 1.1//EN" "http://www.w3.org/Graphics/SVG/1.1/DTD/svg11.dtd">
<svg xmlns="http://www.w3.org/2000/svg" version="1.1" width="40px" height="40px" style="shape-rendering:geometricPrecision; text-rendering:geometricPrecision; image-rendering:optimizeQuality; fill-rule:evenodd; clip-rule:evenodd" xmlns:xlink="http://www.w3.org/1999/xlink">
<g><path style="opacity:1" fill="#fb4110" d="M 8.5,3.5 C 10.0627,4.94478 11.396,6.61145 12.5,8.5C 11.3702,10.3146 10.7036,12.3146 10.5,14.5C 8.91774,11.1244 8.25108,7.45777 8.5,3.5 Z"/></g>
<g><path style="opacity:0.78" fill="#a017d5" d="M 31.5,3.5 C 33.8743,6.6859 34.8743,10.3526 34.5,14.5C 32.0882,14.3059 31.0882,12.9726 31.5,10.5C 31.5,8.16667 31.5,5.83333 31.5,3.5 Z"/></g>
<g><path style="opacity:0.576" fill="#6d11ac" d="M 8.5,3.5 C 8.25108,7.45777 8.91774,11.1244 10.5,14.5C 10.5987,17.2372 10.2653,19.9039 9.5,22.5C 8.22235,22.2178 7.22235,21.5511 6.5,20.5C 5.46042,16.2201 5.29375,11.8868 6,7.5C 6.29033,5.08082 7.12366,3.74749 8.5,3.5 Z"/></g>
<g><path style="opacity:0.99" fill="#fe640b" d="M 12.5,8.5 C 14.5869,9.58457 15.9202,11.2512 16.5,13.5C 16.4142,14.4959 16.7476,15.3292 17.5,16C 13.4135,17.3157 11.0802,20.149 10.5,24.5C 10.1667,24.5 9.83333,24.5 9.5,24.5C 9.5,23.8333 9.5,23.1667 9.5,22.5C 10.2653,19.9039 10.5987,17.2372 10.5,14.5C 10.7036,12.3146 11.3702,10.3146 12.5,8.5 Z"/></g>
<g><path style="opacity:0.994" fill="#fd4e0f" d="M 31.5,3.5 C 31.5,5.83333 31.5,8.16667 31.5,10.5C 29.9261,12.1016 29.2594,14.1016 29.5,16.5C 27.326,16.2503 25.6594,15.2503 24.5,13.5C 24.5,12.8333 24.5,12.1667 24.5,11.5C 26.8432,8.79276 29.1765,6.1261 31.5,3.5 Z"/></g>
<g><path style="opacity:1" fill="#fd6801" d="M 24.5,13.5 C 25.6594,15.2503 27.326,16.2503 29.5,16.5C 29.5,18.1667 29.5,19.8333 29.5,21.5C 29.1667,21.5 28.8333,21.5 28.5,21.5C 25.9108,20.5806 23.9108,18.914 22.5,16.5C 22.9424,15.2613 23.6091,14.2613 24.5,13.5 Z"/></g>
<g><path style="opacity:0.995" fill="#fe780c" d="M 24.5,11.5 C 24.5,12.1667 24.5,12.8333 24.5,13.5C 23.6091,14.2613 22.9424,15.2613 22.5,16.5C 23.9108,18.914 25.9108,20.5806 28.5,21.5C 28.6716,22.4916 28.3382,23.1583 27.5,23.5C 25.7299,22.236 24.0632,20.736 22.5,19C 16.0211,17.5232 12.6877,20.0232 12.5,26.5C 11.5,26.1667 10.8333,25.5 10.5,24.5C 11.0802,20.149 13.4135,17.3157 17.5,16C 16.7476,15.3292 16.4142,14.4959 16.5,13.5C 17.5307,14.355 18.6974,15.0217 20,15.5C 21.7153,14.3955 23.2153,13.0622 24.5,11.5 Z"/></g>
<g><path style="opacity:0.957" fill="#461497" d="M 31.5,10.5 C 31.0882,12.9726 32.0882,14.3059 34.5,14.5C 34.1667,16.5 33.8333,18.5 33.5,20.5C 32.8333,20.5 32.5,20.8333 32.5,21.5C 31.8333,21.5 31.5,21.8333 31.5,22.5C 30.8333,22.1667 30.1667,21.8333 29.5,21.5C 29.5,19.8333 29.5,18.1667 29.5,16.5C 29.2594,14.1016 29.9261,12.1016 31.5,10.5 Z"/></g>
<g><path style="opacity:1" fill="#fc8506" d="M 27.5,23.5 C 27.5,24.5 27.5,25.5 27.5,26.5C 26.609,27.1098 25.609,27.4431 24.5,27.5C 21.0212,19.5623 18.0212,19.8957 15.5,28.5C 14.5,27.8333 13.5,27.1667 12.5,26.5C 12.6877,20.0232 16.0211,17.5232 22.5,19C 24.0632,20.736 25.7299,22.236 27.5,23.5 Z"/></g>
<g><path style="opacity:0.97" fill="#ff5a19" d="M 33.5,20.5 C 34.5,20.5 35.5,20.5 36.5,20.5C 36.5,21.8333 36.5,23.1667 36.5,24.5C 37.5,24.5 38.5,24.5 39.5,24.5C 39.5,25.1667 39.5,25.8333 39.5,26.5C 38.1667,27.5 36.8333,28.5 35.5,29.5C 34.7784,29.0825 34.2784,28.4158 34,27.5C 33.6667,28.1667 33.3333,28.8333 33,29.5C 32.4145,27.8707 31.5812,26.3707 30.5,25C 30.7432,24.0979 31.0766,23.2646 31.5,22.5C 31.5,21.8333 31.8333,21.5 32.5,21.5C 33.1667,21.5 33.5,21.1667 33.5,20.5 Z"/></g>
<g><path style="opacity:1" fill="#ff5313" d="M 6.5,21.5 C 6.62799,23.6547 6.12799,25.6547 5,27.5C 4.01381,28.1712 2.84714,28.1712 1.5,27.5C 0.275285,25.5509 0.941952,24.2175 3.5,23.5C 2.69398,20.7196 3.69398,20.0529 6.5,21.5 Z"/></g>
<g><path style="opacity:0.995" fill="#ff6811" d="M 6.5,20.5 C 7.22235,21.5511 8.22235,22.2178 9.5,22.5C 9.5,23.1667 9.5,23.8333 9.5,24.5C 9.43255,25.9587 9.76589,27.2921 10.5,28.5C 9.89992,29.9002 8.89992,30.9002 7.5,31.5C 5.14746,30.6597 3.14746,29.3264 1.5,27.5C 2.84714,28.1712 4.01381,28.1712 5,27.5C 6.12799,25.6547 6.62799,23.6547 6.5,21.5C 6.5,21.1667 6.5,20.8333 6.5,20.5 Z"/></g>
<g><path style="opacity:1" fill="#fea025" d="M 24.5,27.5 C 23.8902,28.391 23.5569,29.391 23.5,30.5C 21.4168,28.3956 19.0835,28.0623 16.5,29.5C 15.8333,29.5 15.5,29.1667 15.5,28.5C 18.0212,19.8957 21.0212,19.5623 24.5,27.5 Z"/></g>
<g><path style="opacity:0.995" fill="#fb741b" d="M 28.5,21.5 C 28.8333,21.5 29.1667,21.5 29.5,21.5C 30.1667,21.8333 30.8333,22.1667 31.5,22.5C 31.0766,23.2646 30.7432,24.0979 30.5,25C 31.5812,26.3707 32.4145,27.8707 33,29.5C 33.3333,28.8333 33.6667,28.1667 34,27.5C 34.2784,28.4158 34.7784,29.0825 35.5,29.5C 33.6644,31.588 31.3311,32.9213 28.5,33.5C 27.8999,32.0998 26.8999,31.0998 25.5,30.5C 27.7217,29.4639 28.8884,27.7972 29,25.5C 28.6174,26.056 28.1174,26.3893 27.5,26.5C 27.5,25.5 27.5,24.5 27.5,23.5C 28.3382,23.1583 28.6716,22.4916 28.5,21.5 Z"/></g>
<g><path style="opacity:1" fill="#5c0b98" d="M 9.5,24.5 C 9.83333,24.5 10.1667,24.5 10.5,24.5C 10.8333,25.5 11.5,26.1667 12.5,26.5C 13.5,27.1667 14.5,27.8333 15.5,28.5C 15.5,29.1667 15.8333,29.5 16.5,29.5C 16.5,30.1667 16.5,30.8333 16.5,31.5C 14.7837,29.9752 12.7837,28.9752 10.5,28.5C 9.76589,27.2921 9.43255,25.9587 9.5,24.5 Z"/></g>
<g><path style="opacity:1" fill="#4c099b" d="M 25.5,30.5 C 24.6043,31.5063 23.9377,31.5063 23.5,30.5C 23.5569,29.391 23.8902,28.391 24.5,27.5C 25.609,27.4431 26.609,27.1098 27.5,26.5C 28.1174,26.3893 28.6174,26.056 29,25.5C 28.8884,27.7972 27.7217,29.4639 25.5,30.5 Z"/></g>
<g><path style="opacity:0.992" fill="#f69421" d="M 10.5,28.5 C 12.7837,28.9752 14.7837,29.9752 16.5,31.5C 16.5,31.8333 16.5,32.1667 16.5,32.5C 15.8407,35.4082 15.0074,35.7416 14,33.5C 13.5357,34.0944 13.369,34.7611 13.5,35.5C 11.2228,34.5514 9.22275,33.2181 7.5,31.5C 8.89992,30.9002 9.89992,29.9002 10.5,28.5 Z"/></g>
<g><path style="opacity:0.998" fill="#faaf18" d="M 26.5,35.5 C 25.4726,37.1942 24.1392,38.5275 22.5,39.5C 20.5,39.5 18.5,39.5 16.5,39.5C 15.5,38.1667 14.5,36.8333 13.5,35.5C 13.369,34.7611 13.5357,34.0944 14,33.5C 15.0074,35.7416 15.8407,35.4082 16.5,32.5C 17.7901,30.86 19.4567,30.36 21.5,31C 22.39,33.3913 24.0567,34.8913 26.5,35.5 Z"/></g>
<g><path style="opacity:0.952" fill="#f99e0b" d="M 23.5,30.5 C 23.9377,31.5063 24.6043,31.5063 25.5,30.5C 26.8999,31.0998 27.8999,32.0998 28.5,33.5C 28.1667,34.5 27.5,35.1667 26.5,35.5C 24.0567,34.8913 22.39,33.3913 21.5,31C 19.4567,30.36 17.7901,30.86 16.5,32.5C 16.5,32.1667 16.5,31.8333 16.5,31.5C 16.5,30.8333 16.5,30.1667 16.5,29.5C 19.0835,28.0623 21.4168,28.3956 23.5,30.5 Z"/></g>
<g><path style="opacity:0.984" fill="#572b70" d="M 18.5,36.5 C 21.7973,36.3287 22.1306,36.9954 19.5,38.5C 18.7025,38.0431 18.3691,37.3764 18.5,36.5 Z"/></g>
</svg>
