<?xml version="1.0" encoding="UTF-8"?>
<!DOCTYPE svg PUBLIC "-//W3C//DTD SVG 1.1//EN" "http://www.w3.org/Graphics/SVG/1.1/DTD/svg11.dtd">
<svg xmlns="http://www.w3.org/2000/svg" version="1.1" width="115px" height="110px" style="shape-rendering:geometricPrecision; text-rendering:geometricPrecision; image-rendering:optimizeQuality; fill-rule:evenodd; clip-rule:evenodd" xmlns:xlink="http://www.w3.org/1999/xlink">
<g><path style="opacity:0.998" fill="#6301fd" d="M 46.5,-0.5 C 54.1667,-0.5 61.8333,-0.5 69.5,-0.5C 106.481,12.793 119.648,38.4597 109,76.5C 100.759,93.5889 87.5921,104.589 69.5,109.5C 61.5,109.5 53.5,109.5 45.5,109.5C 18.3665,101.346 3.6998,83.013 1.5,54.5C 3.78597,25.5647 18.786,7.23134 46.5,-0.5 Z"/></g>
<g><path style="opacity:1" fill="#fdfcff" d="M 84.5,35.5 C 85.4944,45.9869 85.8278,56.6536 85.5,67.5C 65.6596,67.8304 45.9929,67.4971 26.5,66.5C 36.0401,61.5632 45.7068,56.8966 55.5,52.5C 56.1663,56.0208 56.8329,59.6875 57.5,63.5C 58.1067,63.3764 58.44,63.0431 58.5,62.5C 67.1942,53.4735 75.8609,44.4735 84.5,35.5 Z"/></g>
<g><path style="opacity:1" fill="#d3b7ff" d="M 84.5,35.5 C 84.56,34.9569 84.8933,34.6236 85.5,34.5C 86.4988,45.4798 86.8321,56.4798 86.5,67.5C 86.1667,67.5 85.8333,67.5 85.5,67.5C 85.8278,56.6536 85.4944,45.9869 84.5,35.5 Z"/></g>
<g><path style="opacity:1" fill="#dcc5ff" d="M 55.5,52.5 C 55.56,51.9569 55.8933,51.6236 56.5,51.5C 57.1671,55.3125 57.8337,58.9792 58.5,62.5C 58.44,63.0431 58.1067,63.3764 57.5,63.5C 56.8329,59.6875 56.1663,56.0208 55.5,52.5 Z"/></g>
<g><path style="opacity:1" fill="#ba8eff" d="M 26.5,66.5 C 45.9929,67.4971 65.6596,67.8304 85.5,67.5C 85.8333,67.5 86.1667,67.5 86.5,67.5C 66.0041,68.6626 45.3374,68.8293 24.5,68C 25.0442,67.2828 25.7109,66.7828 26.5,66.5 Z"/></g>
</svg>
