<svg width="64" height="64" version="1.1" xmlns="http://www.w3.org/2000/svg"><path fill="rgb(0,0,0)" stroke="rgb(0,0,0)" stroke-width="1" opacity="0" d="M 0 0 L 25 0.5 Q 12.4 3.4 6 12.5 L 1 21.5 L 0.5 25 L 0 0 Z "></path><path fill="rgb(0,0,0)" stroke="rgb(0,0,0)" stroke-width="1" opacity="0" d="M 39.5 0 L 64 0 L 64 25.5 L 63 25.5 L 60 15.5 L 51.5 6 Q 47.2 1.8 39.5 1 L 39.5 0 Z "></path><path fill="rgb(0,0,0)" stroke="rgb(0,0,0)" stroke-width="1" opacity="0" d="M 63.5 38 L 64 64 L 38 63.5 Q 50.2 60.7 57 52.5 L 63 41.5 L 63.5 38 Z "></path><path fill="rgb(0,0,0)" stroke="rgb(0,0,0)" stroke-width="1" opacity="0" d="M 0.5 39 Q 3.1 50.9 11.5 57 Q 16.7 62.3 26 63.5 L 0 64 L 0.5 39 Z "></path><path fill="rgb(254,255,255)" stroke="rgb(254,255,255)" stroke-width="1" opacity="0.4196078431372549" d="M 56.5 52 L 52.5 57 L 56.5 52 Z "></path><path fill="rgb(255,255,255)" stroke="rgb(255,255,255)" stroke-width="1" opacity="1" d="M 26.5 0 L 41.5 1 Q 50.6 3.9 56 10.5 Q 64.5 18.5 64 35.5 Q 61.3 51.8 49.5 59 Q 41.7 64.7 27.5 64 Q 14.3 61.2 7 52.5 L 1 41.5 L 0 26.5 Q 2.9 12.9 12.5 6 L 26.5 0 Z M 16 18 L 16 45 L 17 45 L 22 45 L 23 31 Q 27 36 28 44 Q 29 46 34 45 L 39 31 L 41 31 L 41 37 L 47 37 L 47 18 L 41 18 L 32 37 L 24 20 Q 22 16 16 18 Z M 41 39 L 40 44 Q 41 47 46 46 Q 48 45 47 41 Q 46 38 41 39 Z "></path><path fill="rgb(38,43,69)" stroke="rgb(38,43,69)" stroke-width="1" opacity="1" d="M 16 18 L 22.5 18 L 23 19.5 L 31.5 37 L 40.5 18 L 47 18 L 47 35.5 Q 45.6 38.3 41 37 L 41 31 L 39 31 L 34 45 L 29 45 L 29 43.5 L 24 31 L 22 31.5 L 22 45 L 16 45 L 16 18 Z "></path><path fill="rgb(33,185,237)" stroke="rgb(33,185,237)" stroke-width="1" opacity="1" d="M 42.5 39 Q 46.3 38.3 47 40.5 Q 48 45 45.5 46 Q 40.8 46.8 40 43.5 Q 39.5 39.5 42.5 39 Z "></path></svg>