<?xml version="1.0" encoding="UTF-8"?>
<!DOCTYPE svg PUBLIC "-//W3C//DTD SVG 1.1//EN" "http://www.w3.org/Graphics/SVG/1.1/DTD/svg11.dtd">
<svg xmlns="http://www.w3.org/2000/svg" version="1.1" width="40px" height="40px" style="shape-rendering:geometricPrecision; text-rendering:geometricPrecision; image-rendering:optimizeQuality; fill-rule:evenodd; clip-rule:evenodd" xmlns:xlink="http://www.w3.org/1999/xlink">
<g><path style="opacity:0.747" fill="#673404" d="M 8.5,-0.5 C 10.8333,-0.5 13.1667,-0.5 15.5,-0.5C 17.3236,2.84616 17.9903,6.51282 17.5,10.5C 18.8333,10.5 20.1667,10.5 21.5,10.5C 21.0097,6.51282 21.6764,2.84616 23.5,-0.5C 25.5,-0.5 27.5,-0.5 29.5,-0.5C 32.6592,2.92091 33.3259,6.92091 31.5,11.5C 34.189,14.5198 36.8556,17.5198 39.5,20.5C 39.5,23.8333 39.5,27.1667 39.5,30.5C 36.3439,35.2413 32.0106,38.2413 26.5,39.5C 21.8333,39.5 17.1667,39.5 12.5,39.5C 6.98939,38.2413 2.65606,35.2413 -0.5,30.5C -0.5,27.1667 -0.5,23.8333 -0.5,20.5C 1.45168,17.8816 3.78501,15.5482 6.5,13.5C 7.45448,10.8876 7.45448,8.22096 6.5,5.5C 6.61134,3.28569 7.27801,1.28569 8.5,-0.5 Z"/></g>
<g><path style="opacity:1" fill="#ce864d" d="M 37.5,26.5 C 32.9322,32.527 26.7656,35.1937 19,34.5C 11.6537,34.907 5.8204,32.2404 1.5,26.5C 1.5382,20.2829 4.5382,16.1162 10.5,14C 9.18496,10.2758 8.68496,6.44249 9,2.5C 11,1.16667 13,1.16667 15,2.5C 15.4983,5.81677 15.665,9.1501 15.5,12.5C 18.1667,12.5 20.8333,12.5 23.5,12.5C 23.335,9.1501 23.5017,5.81677 24,2.5C 25.8138,1.24039 27.6471,1.24039 29.5,2.5C 29.6907,6.41701 29.8574,10.417 30,14.5C 35.2523,16.8937 37.7523,20.8937 37.5,26.5 Z"/></g>
<g><path style="opacity:1" fill="#693505" d="M 11.5,20.5 C 14.0838,21.0483 15.0838,22.715 14.5,25.5C 10.7162,25.4747 9.71615,23.8081 11.5,20.5 Z"/></g>
<g><path style="opacity:1" fill="#6a3606" d="M 24.5,20.5 C 28.1612,20.3501 29.1612,21.8501 27.5,25C 26.552,25.4828 25.552,25.6495 24.5,25.5C 24.5,23.8333 24.5,22.1667 24.5,20.5 Z"/></g>
<g><path style="opacity:0.998" fill="#f4ce85" d="M 1.5,26.5 C 5.8204,32.2404 11.6537,34.907 19,34.5C 26.7656,35.1937 32.9322,32.527 37.5,26.5C 36.2215,32.9373 32.2215,36.4373 25.5,37C 17.586,38.6827 10.4194,37.1827 4,32.5C 2.44124,30.7834 1.60791,28.7834 1.5,26.5 Z"/></g>
</svg>
