<?xml version="1.0" encoding="UTF-8"?>
<!DOCTYPE svg PUBLIC "-//W3C//DTD SVG 1.1//EN" "http://www.w3.org/Graphics/SVG/1.1/DTD/svg11.dtd">
<svg xmlns="http://www.w3.org/2000/svg" version="1.1" width="40px" height="40px" style="shape-rendering:geometricPrecision; text-rendering:geometricPrecision; image-rendering:optimizeQuality; fill-rule:evenodd; clip-rule:evenodd" xmlns:xlink="http://www.w3.org/1999/xlink">
<g><path style="opacity:0.956" fill="#4d8fcc" d="M 26.5,2.5 C 25.9744,4.23033 24.9744,5.56366 23.5,6.5C 22.8333,6.5 22.5,6.83333 22.5,7.5C 20.9988,6.55725 19.6654,6.89059 18.5,8.5C 18.1667,8.5 17.8333,8.5 17.5,8.5C 16.1667,8.83333 16.1667,9.16667 17.5,9.5C 17.5,10.1667 17.5,10.8333 17.5,11.5C 15.4907,13.0652 13.1573,14.0652 10.5,14.5C 10.1667,14.5 9.83333,14.5 9.5,14.5C 10.7591,10.3173 13.4258,7.15068 17.5,5C 11.4291,5.54344 7.09577,8.7101 4.5,14.5C 5.85318,15.5237 6.51985,16.857 6.5,18.5C 5.5041,18.4142 4.67076,18.7476 4,19.5C 3.80192,17.6183 3.30192,15.9516 2.5,14.5C 6.90728,3.62941 14.9073,-0.370591 26.5,2.5 Z"/></g>
<g><path style="opacity:0.97" fill="#458bc9" d="M 28.5,3.5 C 37.126,8.71226 39.9593,16.0456 37,25.5C 36.297,21.7642 34.797,18.4309 32.5,15.5C 33.552,15.6495 34.552,15.4828 35.5,15C 34.0899,13.6283 32.4233,12.795 30.5,12.5C 30.1583,11.6618 29.4916,11.3284 28.5,11.5C 27.3285,10.6554 25.9952,9.98869 24.5,9.5C 25.8465,7.46316 27.1798,5.46316 28.5,3.5 Z"/></g>
<g><path style="opacity:0.812" fill="#252d50" d="M 27.5,-0.5 C 27.8333,-0.5 28.1667,-0.5 28.5,-0.5C 28.5,0.833333 28.5,2.16667 28.5,3.5C 27.1798,5.46316 25.8465,7.46316 24.5,9.5C 22.5615,11.1628 20.2282,11.8294 17.5,11.5C 17.5,10.8333 17.5,10.1667 17.5,9.5C 17.5,9.16667 17.5,8.83333 17.5,8.5C 17.8333,8.5 18.1667,8.5 18.5,8.5C 20.099,8.76781 21.4324,8.43448 22.5,7.5C 23.1667,7.5 23.5,7.16667 23.5,6.5C 24.9744,5.56366 25.9744,4.23033 26.5,2.5C 27.1098,1.60895 27.4431,0.608953 27.5,-0.5 Z"/></g>
<g><path style="opacity:1" fill="#75a2d5" d="M 9.5,14.5 C 8.16667,14.5 7.5,15.1667 7.5,16.5C 7.5,17.1667 7.5,17.8333 7.5,18.5C 7.16667,18.5 6.83333,18.5 6.5,18.5C 6.51985,16.857 5.85318,15.5237 4.5,14.5C 7.09577,8.7101 11.4291,5.54344 17.5,5C 13.4258,7.15068 10.7591,10.3173 9.5,14.5 Z"/></g>
<g><path style="opacity:0.471" fill="#253156" d="M 28.5,11.5 C 28.8417,12.3382 29.5084,12.6716 30.5,12.5C 32.4233,12.795 34.0899,13.6283 35.5,15C 34.552,15.4828 33.552,15.6495 32.5,15.5C 30.1177,14.4283 27.7844,13.2617 25.5,12C 26.448,11.5172 27.448,11.3505 28.5,11.5 Z"/></g>
<g><path style="opacity:0.996" fill="#3f85c4" d="M 2.5,14.5 C 3.30192,15.9516 3.80192,17.6183 4,19.5C 4.67076,18.7476 5.5041,18.4142 6.5,18.5C 6.83333,18.5 7.16667,18.5 7.5,18.5C 8.8823,20.898 10.549,21.0647 12.5,19C 17.8699,17.5119 21.2032,19.3452 22.5,24.5C 18.5008,29.4836 13.5008,30.6503 7.5,28C 5.26589,25.9373 3.26589,23.7706 1.5,21.5C 1.19845,18.9407 1.53178,16.6074 2.5,14.5 Z"/></g>
<g><path style="opacity:0.816" fill="#262f55" d="M 32.5,30.5 C 32.0948,22.0949 27.7615,17.0949 19.5,15.5C 18.1667,15.8333 18.1667,16.1667 19.5,16.5C 16.9548,17.5036 13.6214,17.837 9.5,17.5C 9.15829,16.6618 8.49162,16.3284 7.5,16.5C 7.5,15.1667 8.16667,14.5 9.5,14.5C 9.83333,14.5 10.1667,14.5 10.5,14.5C 10.4701,15.4972 10.9701,16.1639 12,16.5C 21.3177,11.7483 28.3177,14.0816 33,23.5C 33.7958,26.0385 33.6291,28.3718 32.5,30.5 Z"/></g>
<g><path style="opacity:0.993" fill="#242d6e" d="M 19.5,16.5 C 19.5,16.1667 19.5,15.8333 19.5,15.5C 27.7615,17.0949 32.0948,22.0949 32.5,30.5C 31.8566,33.9875 29.8566,36.4875 26.5,38C 22.1667,38.6667 17.8333,38.6667 13.5,38C 12.5842,37.7216 11.9175,37.2216 11.5,36.5C 17.0227,36.8224 21.5227,34.8224 25,30.5C 25.6667,29.1667 25.6667,27.8333 25,26.5C 23.3745,27.4119 22.5412,26.7453 22.5,24.5C 21.2032,19.3452 17.8699,17.5119 12.5,19C 10.549,21.0647 8.8823,20.898 7.5,18.5C 8.16667,18.1667 8.83333,17.8333 9.5,17.5C 13.6214,17.837 16.9548,17.5036 19.5,16.5 Z"/></g>
<g><path style="opacity:1" fill="#182145" d="M 1.5,21.5 C 3.26589,23.7706 5.26589,25.9373 7.5,28C 13.5008,30.6503 18.5008,29.4836 22.5,24.5C 22.5412,26.7453 23.3745,27.4119 25,26.5C 25.6667,27.8333 25.6667,29.1667 25,30.5C 21.5227,34.8224 17.0227,36.8224 11.5,36.5C 4.99479,33.6539 1.66146,28.6539 1.5,21.5 Z"/></g>
</svg>
