<?xml version="1.0" encoding="UTF-8"?>
<!DOCTYPE svg PUBLIC "-//W3C//DTD SVG 1.1//EN" "http://www.w3.org/Graphics/SVG/1.1/DTD/svg11.dtd">
<svg xmlns="http://www.w3.org/2000/svg" version="1.1" width="40px" height="40px" style="shape-rendering:geometricPrecision; text-rendering:geometricPrecision; image-rendering:optimizeQuality; fill-rule:evenodd; clip-rule:evenodd" xmlns:xlink="http://www.w3.org/1999/xlink">
<g><path style="opacity:0.947" fill="#262626" d="M 12.5,-0.5 C 17.1667,-0.5 21.8333,-0.5 26.5,-0.5C 28.7686,0.97576 31.1019,2.47576 33.5,4C 35.7519,6.73612 37.7519,9.56945 39.5,12.5C 39.5,17.1667 39.5,21.8333 39.5,26.5C 38.0242,28.7686 36.5242,31.1019 35,33.5C 32.2639,35.7519 29.4305,37.7519 26.5,39.5C 21.8333,39.5 17.1667,39.5 12.5,39.5C 10.2314,38.0242 7.89805,36.5242 5.5,35C 3.24806,32.2639 1.24806,29.4305 -0.5,26.5C -0.5,21.8333 -0.5,17.1667 -0.5,12.5C 0.97576,10.2314 2.47576,7.89805 4,5.5C 6.73612,3.24806 9.56945,1.24806 12.5,-0.5 Z"/></g>
<g><path style="opacity:1" fill="#828282" d="M 13.5,11.5 C 11.9153,10.9976 11.4153,9.99762 12,8.5C 13.0386,9.24382 13.5386,10.2438 13.5,11.5 Z"/></g>
<g><path style="opacity:1" fill="#828282" d="M 24.5,12.5 C 24.4614,11.2438 24.9614,10.2438 26,9.5C 26.5847,10.9976 26.0847,11.9976 24.5,12.5 Z"/></g>
<g><path style="opacity:1" fill="#7c7c7c" d="M 21.5,11.5 C 20.596,12.209 20.2627,13.209 20.5,14.5C 18.4588,14.1459 16.6255,14.1459 15,14.5C 13.9614,13.7562 13.4614,12.7562 13.5,11.5C 14.3635,12.463 15.0302,12.463 15.5,11.5C 14.5721,10.2322 14.4054,8.89888 15,7.5C 15.8624,9.08698 16.5291,10.7536 17,12.5C 17.6667,5.83333 18.3333,5.83333 19,12.5C 19.4709,10.7536 20.1376,9.08698 21,7.5C 21.49,8.79323 21.6567,10.1266 21.5,11.5 Z"/></g>
<g><path style="opacity:1" fill="#707070" d="M 24.5,12.5 C 24.1788,14.0481 23.1788,14.7148 21.5,14.5C 21.5,13.5 21.5,12.5 21.5,11.5C 22.2323,10.1917 23.0656,8.85841 24,7.5C 23.5241,9.32007 23.6907,10.9867 24.5,12.5 Z"/></g>
<g><path style="opacity:1" fill="#585858" d="M 5.5,19.5 C 8.57186,19.1826 11.5719,19.5159 14.5,20.5C 13,20.8333 11.5,21.1667 10,21.5C 8.01448,21.4313 6.51448,20.7647 5.5,19.5 Z"/></g>
<g><path style="opacity:1" fill="#636363" d="M 24.5,19.5 C 27.2469,19.1866 29.9135,19.52 32.5,20.5C 31.1667,20.8333 29.8333,21.1667 28.5,21.5C 26.6672,21.4146 25.3339,20.7479 24.5,19.5 Z"/></g>
<g><path style="opacity:1" fill="#5d5d5d" d="M 23.5,27.5 C 26.2469,27.1866 28.9135,27.52 31.5,28.5C 30.1667,28.8333 28.8333,29.1667 27.5,29.5C 25.6672,29.4146 24.3339,28.7479 23.5,27.5 Z"/></g>
</svg>
