<?xml version="1.0" encoding="UTF-8"?>
<!DOCTYPE svg PUBLIC "-//W3C//DTD SVG 1.1//EN" "http://www.w3.org/Graphics/SVG/1.1/DTD/svg11.dtd">
<svg xmlns="http://www.w3.org/2000/svg" version="1.1" width="40px" height="40px" style="shape-rendering:geometricPrecision; text-rendering:geometricPrecision; image-rendering:optimizeQuality; fill-rule:evenodd; clip-rule:evenodd" xmlns:xlink="http://www.w3.org/1999/xlink">
<g><path style="opacity:0.353" fill="#0c0d13" d="M 13.5,6.5 C 12.7321,7.26253 12.2321,8.26253 12,9.5C 9.82148,8.16016 9.32148,8.4935 10.5,10.5C 9.20895,10.7373 8.20895,10.404 7.5,9.5C 8.15767,8.60164 8.82434,7.60164 9.5,6.5C 10.8543,6.45801 12.1877,6.45801 13.5,6.5 Z"/></g>
<g><path style="opacity:0.325" fill="#0c0e17" d="M 17.5,5.5 C 20.6207,5.73613 22.954,7.06946 24.5,9.5C 23.609,8.89022 22.609,8.55688 21.5,8.5C 20.1667,7.83333 18.8333,7.16667 17.5,6.5C 17.5,6.16667 17.5,5.83333 17.5,5.5 Z"/></g>
<g><path style="opacity:0.894" fill="#141a28" d="M 17.5,5.5 C 17.5,5.83333 17.5,6.16667 17.5,6.5C 16.6618,6.84171 16.3284,7.50838 16.5,8.5C 16.5,9.16667 16.1667,9.5 15.5,9.5C 14.8333,8.5 14.1667,7.5 13.5,6.5C 14.4716,4.50691 15.8049,4.17357 17.5,5.5 Z"/></g>
<g><path style="opacity:1" fill="#2572b5" d="M 13.5,6.5 C 14.1667,7.5 14.8333,8.5 15.5,9.5C 14.8333,9.5 14.5,9.83333 14.5,10.5C 13.5,10.5 12.5,10.5 11.5,10.5C 11.1667,10.5 10.8333,10.5 10.5,10.5C 9.32148,8.4935 9.82148,8.16016 12,9.5C 12.2321,8.26253 12.7321,7.26253 13.5,6.5 Z"/></g>
<g><path style="opacity:1" fill="#781b18" d="M 16.5,8.5 C 18.9935,8.13068 19.6602,8.79734 18.5,10.5C 16.8235,11.1834 16.1568,12.5168 16.5,14.5C 16.1667,14.5 15.8333,14.5 15.5,14.5C 15.7678,12.901 15.4345,11.5676 14.5,10.5C 14.5,9.83333 14.8333,9.5 15.5,9.5C 16.1667,9.5 16.5,9.16667 16.5,8.5 Z"/></g>
<g><path style="opacity:1" fill="#6b82a9" d="M 17.5,6.5 C 18.8333,7.16667 20.1667,7.83333 21.5,8.5C 21.8333,9.16667 22.1667,9.83333 22.5,10.5C 21.8333,10.5 21.1667,10.5 20.5,10.5C 19.8333,10.5 19.1667,10.5 18.5,10.5C 19.6602,8.79734 18.9935,8.13068 16.5,8.5C 16.3284,7.50838 16.6618,6.84171 17.5,6.5 Z"/></g>
<g><path style="opacity:1" fill="#2f0c1c" d="M 11.5,11.5 C 11.5,11.1667 11.5,10.8333 11.5,10.5C 12.5,10.5 13.5,10.5 14.5,10.5C 13.8902,11.391 13.5569,12.391 13.5,13.5C 13.1667,14.1667 12.8333,14.8333 12.5,15.5C 12.1667,15.5 11.8333,15.5 11.5,15.5C 11.5,14.8333 11.5,14.1667 11.5,13.5C 12.8333,12.8333 12.8333,12.1667 11.5,11.5 Z"/></g>
<g><path style="opacity:0.992" fill="#535c69" d="M 18.5,10.5 C 19.1667,10.5 19.8333,10.5 20.5,10.5C 19.7659,11.7079 19.4326,13.0413 19.5,14.5C 20.8333,14.5 22.1667,14.5 23.5,14.5C 23.5,15.1667 23.1667,15.5 22.5,15.5C 20.3792,15.6747 18.3792,15.3414 16.5,14.5C 16.1568,12.5168 16.8235,11.1834 18.5,10.5 Z"/></g>
<g><path style="opacity:0.98" fill="#2e3137" d="M 21.5,8.5 C 22.609,8.55688 23.609,8.89022 24.5,9.5C 25.1667,9.5 25.8333,9.5 26.5,9.5C 26.8333,10.1667 27.1667,10.8333 27.5,11.5C 26.0413,11.5674 24.7079,11.2341 23.5,10.5C 23.1667,10.5 22.8333,10.5 22.5,10.5C 22.1667,9.83333 21.8333,9.16667 21.5,8.5 Z"/></g>
<g><path style="opacity:1" fill="#444a4c" d="M 32.5,12.5 C 31.1667,12.5 29.8333,12.5 28.5,12.5C 28.5,11.8333 28.1667,11.5 27.5,11.5C 27.1667,10.8333 26.8333,10.1667 26.5,9.5C 26.7828,8.71087 27.2828,8.0442 28,7.5C 29.517,9.23953 31.017,10.9062 32.5,12.5 Z"/></g>
<g><path style="opacity:0.059" fill="#0a080f" d="M 6.5,9.5 C 6.55688,10.609 6.89022,11.609 7.5,12.5C 6.32496,12.281 5.32496,12.6143 4.5,13.5C 4.95689,14.2975 5.62356,14.6309 6.5,14.5C 5.79105,15.404 4.79105,15.7373 3.5,15.5C 2.66175,15.8417 2.32842,16.5084 2.5,17.5C 2.15195,15.7601 2.15195,14.0935 2.5,12.5C 3.37598,11.7492 4.37598,11.2492 5.5,11C 4.28882,10.1072 4.28882,9.2739 5.5,8.5C 6.10667,8.62358 6.44001,8.95691 6.5,9.5 Z"/></g>
<g><path style="opacity:1" fill="#0b4d8a" d="M 6.5,9.5 C 6.83333,9.5 7.16667,9.5 7.5,9.5C 8.20895,10.404 9.20895,10.7373 10.5,10.5C 10.8333,10.5 11.1667,10.5 11.5,10.5C 11.5,10.8333 11.5,11.1667 11.5,11.5C 10.8333,11.8333 10.1667,12.1667 9.5,12.5C 8.83333,12.5 8.16667,12.5 7.5,12.5C 6.89022,11.609 6.55688,10.609 6.5,9.5 Z"/></g>
<g><path style="opacity:1" fill="#1a1d68" d="M 20.5,10.5 C 21.1667,10.5 21.8333,10.5 22.5,10.5C 22.8333,10.5 23.1667,10.5 23.5,10.5C 23.5,11.8333 23.5,13.1667 23.5,14.5C 22.1667,14.5 20.8333,14.5 19.5,14.5C 19.4326,13.0413 19.7659,11.7079 20.5,10.5 Z"/></g>
<g><path style="opacity:1" fill="#93979e" d="M 23.5,10.5 C 24.7079,11.2341 26.0413,11.5674 27.5,11.5C 28.1667,11.5 28.5,11.8333 28.5,12.5C 27.5,12.5 26.5,12.5 25.5,12.5C 24.8333,13.1667 24.1667,13.8333 23.5,14.5C 23.5,13.1667 23.5,11.8333 23.5,10.5 Z"/></g>
<g><path style="opacity:1" fill="#c00408" d="M 14.5,10.5 C 15.4345,11.5676 15.7678,12.901 15.5,14.5C 15.5,14.8333 15.5,15.1667 15.5,15.5C 14.8333,14.8333 14.1667,14.1667 13.5,13.5C 13.5569,12.391 13.8902,11.391 14.5,10.5 Z"/></g>
<g><path style="opacity:0.941" fill="#0b3367" d="M 7.5,12.5 C 8.16667,12.5 8.83333,12.5 9.5,12.5C 9.5,13.1667 9.16667,13.5 8.5,13.5C 7.50838,13.3284 6.84171,13.6618 6.5,14.5C 5.62356,14.6309 4.95689,14.2975 4.5,13.5C 5.32496,12.6143 6.32496,12.281 7.5,12.5 Z"/></g>
<g><path style="opacity:1" fill="#4bd0f9" d="M 25.5,12.5 C 26.5,12.5 27.5,12.5 28.5,12.5C 29.8333,12.5 31.1667,12.5 32.5,12.5C 31.1667,13.5 31.1667,14.5 32.5,15.5C 30.1667,15.5 27.8333,15.5 25.5,15.5C 25.5,14.5 25.5,13.5 25.5,12.5 Z"/></g>
<g><path style="opacity:1" fill="#63919f" d="M 32.5,12.5 C 33.791,12.2627 34.791,12.596 35.5,13.5C 35.8333,14.1667 36.1667,14.8333 36.5,15.5C 34.9382,15.7329 33.6049,16.3995 32.5,17.5C 32.5,16.8333 32.5,16.1667 32.5,15.5C 31.1667,14.5 31.1667,13.5 32.5,12.5 Z"/></g>
<g><path style="opacity:1" fill="#7e0620" d="M 11.5,11.5 C 12.8333,12.1667 12.8333,12.8333 11.5,13.5C 10.2719,14.3065 9.27187,15.3065 8.5,16.5C 8.5,15.8333 8.16667,15.5 7.5,15.5C 7.83333,14.8333 8.16667,14.1667 8.5,13.5C 9.16667,13.5 9.5,13.1667 9.5,12.5C 10.1667,12.1667 10.8333,11.8333 11.5,11.5 Z"/></g>
<g><path style="opacity:0.898" fill="#08438d" d="M 8.5,13.5 C 8.16667,14.1667 7.83333,14.8333 7.5,15.5C 7.67158,16.4916 7.33825,17.1583 6.5,17.5C 6.15829,16.6618 5.49162,16.3284 4.5,16.5C 3.83333,16.5 3.5,16.1667 3.5,15.5C 4.79105,15.7373 5.79105,15.404 6.5,14.5C 6.84171,13.6618 7.50838,13.3284 8.5,13.5 Z"/></g>
<g><path style="opacity:1" fill="#37a0d3" d="M 25.5,12.5 C 25.5,13.5 25.5,14.5 25.5,15.5C 25.6107,16.1174 25.944,16.6174 26.5,17C 25.1667,17.3333 23.8333,17.6667 22.5,18C 25.8168,18.4983 29.1501,18.665 32.5,18.5C 32.5,18.8333 32.5,19.1667 32.5,19.5C 30.1667,19.5 27.8333,19.5 25.5,19.5C 24.1667,19.5 22.8333,19.5 21.5,19.5C 20.791,18.596 19.791,18.2627 18.5,18.5C 18.5,18.1667 18.5,17.8333 18.5,17.5C 20.3797,17.7709 21.713,17.1042 22.5,15.5C 23.1667,15.5 23.5,15.1667 23.5,14.5C 24.1667,13.8333 24.8333,13.1667 25.5,12.5 Z"/></g>
<g><path style="opacity:1" fill="#98023f" d="M 11.5,13.5 C 11.5,14.1667 11.5,14.8333 11.5,15.5C 10.2584,17.3888 10.2584,19.3888 11.5,21.5C 10.6618,21.8417 10.3284,22.5084 10.5,23.5C 10.5654,23.9382 10.3988,24.2716 10,24.5C 9.72158,23.5842 9.22158,22.9175 8.5,22.5C 8.5,20.5 8.5,18.5 8.5,16.5C 9.27187,15.3065 10.2719,14.3065 11.5,13.5 Z"/></g>
<g><path style="opacity:1" fill="#540532" d="M 11.5,15.5 C 11.8333,15.5 12.1667,15.5 12.5,15.5C 12.5,16.5 12.5,17.5 12.5,18.5C 12.5,19.8333 12.5,21.1667 12.5,22.5C 11.8333,22.5 11.5,22.1667 11.5,21.5C 10.2584,19.3888 10.2584,17.3888 11.5,15.5 Z"/></g>
<g><path style="opacity:1" fill="#e00616" d="M 13.5,13.5 C 14.1667,14.1667 14.8333,14.8333 15.5,15.5C 15.8333,16.8333 16.1667,18.1667 16.5,19.5C 15.6365,18.537 14.9698,18.537 14.5,19.5C 15.1272,20.4168 15.4606,21.4168 15.5,22.5C 14.1429,21.4097 13.1429,20.0764 12.5,18.5C 12.5,17.5 12.5,16.5 12.5,15.5C 12.8333,14.8333 13.1667,14.1667 13.5,13.5 Z"/></g>
<g><path style="opacity:1" fill="#123695" d="M 16.5,14.5 C 18.3792,15.3414 20.3792,15.6747 22.5,15.5C 21.713,17.1042 20.3797,17.7709 18.5,17.5C 17.0937,17.0269 16.427,16.0269 16.5,14.5 Z"/></g>
<g><path style="opacity:1" fill="#11c0f7" d="M 25.5,15.5 C 27.8333,15.5 30.1667,15.5 32.5,15.5C 32.5,16.1667 32.5,16.8333 32.5,17.5C 32.5,17.8333 32.5,18.1667 32.5,18.5C 29.1501,18.665 25.8168,18.4983 22.5,18C 23.8333,17.6667 25.1667,17.3333 26.5,17C 25.944,16.6174 25.6107,16.1174 25.5,15.5 Z"/></g>
<g><path style="opacity:1" fill="#28aedf" d="M 36.5,15.5 C 38.1042,16.287 38.7709,17.6203 38.5,19.5C 36.8828,20.038 35.2161,20.3713 33.5,20.5C 33.5,19.8333 33.1667,19.5 32.5,19.5C 32.5,19.1667 32.5,18.8333 32.5,18.5C 32.5,18.1667 32.5,17.8333 32.5,17.5C 33.6049,16.3995 34.9382,15.7329 36.5,15.5 Z"/></g>
<g><path style="opacity:1" fill="#101347" d="M 15.5,14.5 C 15.8333,14.5 16.1667,14.5 16.5,14.5C 16.427,16.0269 17.0937,17.0269 18.5,17.5C 18.5,17.8333 18.5,18.1667 18.5,18.5C 18.5,18.8333 18.5,19.1667 18.5,19.5C 17.8333,19.5 17.1667,19.5 16.5,19.5C 16.1667,18.1667 15.8333,16.8333 15.5,15.5C 15.5,15.1667 15.5,14.8333 15.5,14.5 Z"/></g>
<g><path style="opacity:1" fill="#164492" d="M 18.5,18.5 C 19.791,18.2627 20.791,18.596 21.5,19.5C 22.1667,20.1667 22.8333,20.8333 23.5,21.5C 21.4471,21.5979 19.7804,20.9313 18.5,19.5C 18.5,19.1667 18.5,18.8333 18.5,18.5 Z"/></g>
<g><path style="opacity:0.153" fill="#141319" d="M 35.5,13.5 C 37.0618,13.7329 38.3951,14.3995 39.5,15.5C 39.5,16.8333 39.5,18.1667 39.5,19.5C 39.1667,19.5 38.8333,19.5 38.5,19.5C 38.7709,17.6203 38.1042,16.287 36.5,15.5C 36.1667,14.8333 35.8333,14.1667 35.5,13.5 Z"/></g>
<g><path style="opacity:0.894" fill="#0d0c16" d="M 3.5,15.5 C 3.5,16.1667 3.83333,16.5 4.5,16.5C 4.41423,17.4959 4.74756,18.3292 5.5,19C 4.55198,19.4828 3.55198,19.6495 2.5,19.5C 1.66175,19.8417 1.32842,20.5084 1.5,21.5C 0.833333,21.5 0.166667,21.5 -0.5,21.5C -0.5,20.8333 -0.5,20.1667 -0.5,19.5C 1.44501,19.1358 2.44501,18.4692 2.5,17.5C 2.32842,16.5084 2.66175,15.8417 3.5,15.5 Z"/></g>
<g><path style="opacity:0.922" fill="#0d56b3" d="M 4.5,16.5 C 5.49162,16.3284 6.15829,16.6618 6.5,17.5C 6.51715,19.5648 6.85048,21.5648 7.5,23.5C 7.5,23.8333 7.5,24.1667 7.5,24.5C 7.15829,25.3382 6.49162,25.6716 5.5,25.5C 5.5,25.1667 5.5,24.8333 5.5,24.5C 5.69005,22.0411 4.69005,20.3745 2.5,19.5C 3.55198,19.6495 4.55198,19.4828 5.5,19C 4.74756,18.3292 4.41423,17.4959 4.5,16.5 Z"/></g>
<g><path style="opacity:1" fill="#830516" d="M 7.5,15.5 C 8.16667,15.5 8.5,15.8333 8.5,16.5C 8.5,18.5 8.5,20.5 8.5,22.5C 8.5,23.1667 8.16667,23.5 7.5,23.5C 6.85048,21.5648 6.51715,19.5648 6.5,17.5C 7.33825,17.1583 7.67158,16.4916 7.5,15.5 Z"/></g>
<g><path style="opacity:1" fill="#0a71cf" d="M 21.5,19.5 C 22.8333,19.5 24.1667,19.5 25.5,19.5C 26.1667,20.1667 26.8333,20.8333 27.5,21.5C 26.5,21.5 25.5,21.5 24.5,21.5C 24.1667,21.5 23.8333,21.5 23.5,21.5C 22.8333,20.8333 22.1667,20.1667 21.5,19.5 Z"/></g>
<g><path style="opacity:1" fill="#0e87c9" d="M 25.5,19.5 C 27.8333,19.5 30.1667,19.5 32.5,19.5C 33.1667,19.5 33.5,19.8333 33.5,20.5C 31.7354,21.4614 29.7354,21.7947 27.5,21.5C 26.8333,20.8333 26.1667,20.1667 25.5,19.5 Z"/></g>
<g><path style="opacity:0.624" fill="#071b41" d="M 2.5,19.5 C 4.69005,20.3745 5.69005,22.0411 5.5,24.5C 4.36339,23.2112 3.03005,22.2112 1.5,21.5C 1.32842,20.5084 1.66175,19.8417 2.5,19.5 Z"/></g>
<g><path style="opacity:0.835" fill="#173050" d="M 38.5,19.5 C 37.3933,21.9689 35.3933,22.9689 32.5,22.5C 30.1667,22.5 27.8333,22.5 25.5,22.5C 25.1667,22.5 24.8333,22.5 24.5,22.5C 24.5,22.1667 24.5,21.8333 24.5,21.5C 25.5,21.5 26.5,21.5 27.5,21.5C 29.7354,21.7947 31.7354,21.4614 33.5,20.5C 35.2161,20.3713 36.8828,20.038 38.5,19.5 Z"/></g>
<g><path style="opacity:1" fill="#7f0144" d="M 12.5,18.5 C 13.1429,20.0764 14.1429,21.4097 15.5,22.5C 15.5,22.8333 15.5,23.1667 15.5,23.5C 14.391,23.4431 13.391,23.1098 12.5,22.5C 12.5,21.1667 12.5,19.8333 12.5,18.5 Z"/></g>
<g><path style="opacity:1" fill="#f42710" d="M 16.5,19.5 C 18.5027,21.9819 21.1694,22.9819 24.5,22.5C 24.8333,22.5 25.1667,22.5 25.5,22.5C 25.5,22.8333 25.5,23.1667 25.5,23.5C 24.391,23.5569 23.391,23.8902 22.5,24.5C 21.1667,24.5 19.8333,24.5 18.5,24.5C 17.791,23.596 16.791,23.2627 15.5,23.5C 15.5,23.1667 15.5,22.8333 15.5,22.5C 15.4606,21.4168 15.1272,20.4168 14.5,19.5C 14.9698,18.537 15.6365,18.537 16.5,19.5 Z"/></g>
<g><path style="opacity:1" fill="#9b0920" d="M 16.5,19.5 C 17.1667,19.5 17.8333,19.5 18.5,19.5C 19.7804,20.9313 21.4471,21.5979 23.5,21.5C 23.8333,21.5 24.1667,21.5 24.5,21.5C 24.5,21.8333 24.5,22.1667 24.5,22.5C 21.1694,22.9819 18.5027,21.9819 16.5,19.5 Z"/></g>
<g><path style="opacity:0.082" fill="#140d10" d="M 25.5,23.5 C 25.5,23.1667 25.5,22.8333 25.5,22.5C 27.8333,22.5 30.1667,22.5 32.5,22.5C 31.0484,23.3019 29.3817,23.8019 27.5,24C 28.056,24.3826 28.3893,24.8826 28.5,25.5C 27.8333,25.5 27.1667,25.5 26.5,25.5C 26.6716,24.5084 26.3382,23.8417 25.5,23.5 Z"/></g>
<g><path style="opacity:1" fill="#ab0a37" d="M 11.5,21.5 C 11.5,22.1667 11.8333,22.5 12.5,22.5C 12.3284,23.4916 12.6618,24.1583 13.5,24.5C 12.7659,25.7079 12.4326,27.0413 12.5,28.5C 11.8333,28.5 11.5,28.1667 11.5,27.5C 11.7678,25.901 11.4345,24.5676 10.5,23.5C 10.3284,22.5084 10.6618,21.8417 11.5,21.5 Z"/></g>
<g><path style="opacity:0.325" fill="#0b0913" d="M 1.5,21.5 C 3.03005,22.2112 4.36339,23.2112 5.5,24.5C 5.5,24.8333 5.5,25.1667 5.5,25.5C 6.29049,26.4013 7.29049,27.0679 8.5,27.5C 9.29049,28.4013 10.2905,29.0679 11.5,29.5C 11.5,29.8333 11.5,30.1667 11.5,30.5C 6.26038,28.903 2.92704,25.903 1.5,21.5 Z"/></g>
<g><path style="opacity:1" fill="#8b0134" d="M 8.5,22.5 C 9.22158,22.9175 9.72158,23.5842 10,24.5C 10.3988,24.2716 10.5654,23.9382 10.5,23.5C 11.4345,24.5676 11.7678,25.901 11.5,27.5C 10.8333,27.1667 10.1667,26.8333 9.5,26.5C 9.16667,25.5 8.5,24.8333 7.5,24.5C 7.5,24.1667 7.5,23.8333 7.5,23.5C 8.16667,23.5 8.5,23.1667 8.5,22.5 Z"/></g>
<g><path style="opacity:1" fill="#47112e" d="M 12.5,22.5 C 13.391,23.1098 14.391,23.4431 15.5,23.5C 16.791,23.2627 17.791,23.596 18.5,24.5C 17.5084,24.3284 16.8417,24.6618 16.5,25.5C 15.5655,26.5676 15.2322,27.901 15.5,29.5C 14.8333,29.5 14.1667,29.5 13.5,29.5C 13.5,29.1667 13.5,28.8333 13.5,28.5C 14.6857,27.0387 14.6857,25.7054 13.5,24.5C 12.6618,24.1583 12.3284,23.4916 12.5,22.5 Z"/></g>
<g><path style="opacity:1" fill="#a7bfcd" d="M 18.5,24.5 C 18.5,24.8333 18.5,25.1667 18.5,25.5C 18.5,25.8333 18.5,26.1667 18.5,26.5C 18.7373,27.791 18.404,28.791 17.5,29.5C 17.1667,28.1667 16.8333,26.8333 16.5,25.5C 16.8417,24.6618 17.5084,24.3284 18.5,24.5 Z"/></g>
<g><path style="opacity:1" fill="#1d4080" d="M 7.5,24.5 C 8.5,24.8333 9.16667,25.5 9.5,26.5C 9.5,27.1667 9.16667,27.5 8.5,27.5C 7.29049,27.0679 6.29049,26.4013 5.5,25.5C 6.49162,25.6716 7.15829,25.3382 7.5,24.5 Z"/></g>
<g><path style="opacity:1" fill="#d48d1c" d="M 13.5,24.5 C 14.6857,25.7054 14.6857,27.0387 13.5,28.5C 13.1667,28.5 12.8333,28.5 12.5,28.5C 12.4326,27.0413 12.7659,25.7079 13.5,24.5 Z"/></g>
<g><path style="opacity:1" fill="#c2d35e" d="M 25.5,23.5 C 26.3382,23.8417 26.6716,24.5084 26.5,25.5C 26.5,26.5 26.5,27.5 26.5,28.5C 25.5,27.8333 24.5,27.1667 23.5,26.5C 23.1667,25.8333 22.8333,25.1667 22.5,24.5C 23.391,23.8902 24.391,23.5569 25.5,23.5 Z"/></g>
<g><path style="opacity:1" fill="#2191e9" d="M 16.5,25.5 C 16.8333,26.8333 17.1667,28.1667 17.5,29.5C 17.5,29.8333 17.5,30.1667 17.5,30.5C 16.8333,30.1667 16.1667,29.8333 15.5,29.5C 15.2322,27.901 15.5655,26.5676 16.5,25.5 Z"/></g>
<g><path style="opacity:1" fill="#b9d36d" d="M 18.5,25.5 C 18.5,25.1667 18.5,24.8333 18.5,24.5C 19.8333,24.5 21.1667,24.5 22.5,24.5C 22.8333,25.1667 23.1667,25.8333 23.5,26.5C 22.791,27.404 21.791,27.7373 20.5,27.5C 20.5,26.1667 19.8333,25.5 18.5,25.5 Z"/></g>
<g><path style="opacity:0.941" fill="#21385e" d="M 9.5,26.5 C 10.1667,26.8333 10.8333,27.1667 11.5,27.5C 11.5,28.1667 11.8333,28.5 12.5,28.5C 12.8333,28.5 13.1667,28.5 13.5,28.5C 13.5,28.8333 13.5,29.1667 13.5,29.5C 12.8333,29.5 12.1667,29.5 11.5,29.5C 10.2905,29.0679 9.29049,28.4013 8.5,27.5C 9.16667,27.5 9.5,27.1667 9.5,26.5 Z"/></g>
<g><path style="opacity:1" fill="#7e9263" d="M 18.5,26.5 C 18.5,26.1667 18.5,25.8333 18.5,25.5C 19.8333,25.5 20.5,26.1667 20.5,27.5C 21.9179,29.3079 23.9179,29.9746 26.5,29.5C 26.5,29.8333 26.5,30.1667 26.5,30.5C 24.1667,30.5 21.8333,30.5 19.5,30.5C 19.7678,28.901 19.4345,27.5676 18.5,26.5 Z"/></g>
<g><path style="opacity:1" fill="#c0e26b" d="M 23.5,26.5 C 24.5,27.1667 25.5,27.8333 26.5,28.5C 26.5,28.8333 26.5,29.1667 26.5,29.5C 23.9179,29.9746 21.9179,29.3079 20.5,27.5C 21.791,27.7373 22.791,27.404 23.5,26.5 Z"/></g>
<g><path style="opacity:1" fill="#6896bb" d="M 18.5,26.5 C 19.4345,27.5676 19.7678,28.901 19.5,30.5C 21.8333,30.5 24.1667,30.5 26.5,30.5C 24.3926,31.4682 22.0593,31.8016 19.5,31.5C 18.5084,31.6716 17.8417,31.3382 17.5,30.5C 17.5,30.1667 17.5,29.8333 17.5,29.5C 18.404,28.791 18.7373,27.791 18.5,26.5 Z"/></g>
<g><path style="opacity:0.996" fill="#1e405d" d="M 26.5,25.5 C 27.1667,25.5 27.8333,25.5 28.5,25.5C 29.4345,26.5676 29.7678,27.901 29.5,29.5C 29.5,30.1667 29.1667,30.5 28.5,30.5C 28.6567,29.1266 28.49,27.7932 28,26.5C 27.79,28.0581 27.29,29.3915 26.5,30.5C 26.5,30.1667 26.5,29.8333 26.5,29.5C 26.5,29.1667 26.5,28.8333 26.5,28.5C 26.5,27.5 26.5,26.5 26.5,25.5 Z"/></g>
<g><path style="opacity:0.475" fill="#0f0a11" d="M 32.5,28.5 C 34.3904,28.2965 35.8904,28.9632 37,30.5C 37.5281,31.816 37.0281,32.4827 35.5,32.5C 35.2294,30.5695 34.2294,29.2362 32.5,28.5 Z"/></g>
<g><path style="opacity:0.91" fill="#111e47" d="M 11.5,29.5 C 12.1667,29.5 12.8333,29.5 13.5,29.5C 14.1667,29.5 14.8333,29.5 15.5,29.5C 16.1667,29.8333 16.8333,30.1667 17.5,30.5C 17.8417,31.3382 18.5084,31.6716 19.5,31.5C 19.5,31.8333 19.5,32.1667 19.5,32.5C 19.5,32.8333 19.5,33.1667 19.5,33.5C 16.5145,33.0972 13.8478,32.0972 11.5,30.5C 11.5,30.1667 11.5,29.8333 11.5,29.5 Z"/></g>
<g><path style="opacity:0.996" fill="#5696ca" d="M 28.5,30.5 C 28.1667,31.1667 27.8333,31.8333 27.5,32.5C 24.8333,32.5 22.1667,32.5 19.5,32.5C 19.5,32.1667 19.5,31.8333 19.5,31.5C 22.0593,31.8016 24.3926,31.4682 26.5,30.5C 27.29,29.3915 27.79,28.0581 28,26.5C 28.49,27.7932 28.6567,29.1266 28.5,30.5 Z"/></g>
<g><path style="opacity:0.937" fill="#3e3e42" d="M 32.5,28.5 C 34.2294,29.2362 35.2294,30.5695 35.5,32.5C 34.8485,33.0906 34.1818,33.7573 33.5,34.5C 31.6442,34.2077 29.9776,34.2077 28.5,34.5C 28.6716,33.5084 28.3382,32.8417 27.5,32.5C 27.8333,31.8333 28.1667,31.1667 28.5,30.5C 29.1667,30.5 29.5,30.1667 29.5,29.5C 30.391,28.8902 31.391,28.5569 32.5,28.5 Z"/></g>
<g><path style="opacity:0.502" fill="#172140" d="M 19.5,32.5 C 22.1667,32.5 24.8333,32.5 27.5,32.5C 28.3382,32.8417 28.6716,33.5084 28.5,34.5C 25.3549,33.6886 22.3549,33.3553 19.5,33.5C 19.5,33.1667 19.5,32.8333 19.5,32.5 Z"/></g>
<g><path style="opacity:0.031" fill="#1a0a0c" d="M 15.5,34.5 C 16.8333,35.1667 16.8333,35.1667 15.5,34.5 Z"/></g>
</svg>
