<?xml version="1.0" encoding="UTF-8"?>
<!DOCTYPE svg PUBLIC "-//W3C//DTD SVG 1.1//EN" "http://www.w3.org/Graphics/SVG/1.1/DTD/svg11.dtd">
<svg xmlns="http://www.w3.org/2000/svg" version="1.1" width="40px" height="31px" style="shape-rendering:geometricPrecision; text-rendering:geometricPrecision; image-rendering:optimizeQuality; fill-rule:evenodd; clip-rule:evenodd" xmlns:xlink="http://www.w3.org/1999/xlink">
<g><path style="opacity:0.325" fill="#090911" d="M 19.5,2.5 C 19.5,2.16667 19.5,1.83333 19.5,1.5C 22.0336,1.25915 23.7002,2.25915 24.5,4.5C 23.609,3.89022 22.609,3.55688 21.5,3.5C 21.1583,2.66175 20.4916,2.32842 19.5,2.5 Z"/></g>
<g><path style="opacity:0.212" fill="#0d0b0e" d="M 13.5,1.5 C 12.7321,2.26253 12.2321,3.26253 12,4.5C 11.2828,3.9558 10.7828,3.28913 10.5,2.5C 11.1515,1.90935 11.8182,1.24269 12.5,0.5C 13.1067,0.62358 13.44,0.956913 13.5,1.5 Z"/></g>
<g><path style="opacity:0.898" fill="#141b2c" d="M 14.5,-0.5 C 15.1667,-0.5 15.8333,-0.5 16.5,-0.5C 17.5,0.166667 18.5,0.833333 19.5,1.5C 19.5,1.83333 19.5,2.16667 19.5,2.5C 18.5041,2.58577 17.6708,2.25244 17,1.5C 16.5357,2.09442 16.369,2.76109 16.5,3.5C 16.5,4.16667 16.1667,4.5 15.5,4.5C 14.8333,3.5 14.1667,2.5 13.5,1.5C 14.3382,1.15829 14.6716,0.491622 14.5,-0.5 Z"/></g>
<g><path style="opacity:0.541" fill="#090a10" d="M 10.5,2.5 C 9.37505,3.34775 9.37505,4.34775 10.5,5.5C 9.20895,5.73731 8.20895,5.40397 7.5,4.5C 8.15767,3.60164 8.82434,2.60164 9.5,1.5C 10.1067,1.62358 10.44,1.95691 10.5,2.5 Z"/></g>
<g><path style="opacity:0.988" fill="#43484c" d="M 32.5,7.5 C 31.1667,7.5 29.8333,7.5 28.5,7.5C 28.5,6.83333 28.1667,6.5 27.5,6.5C 27.1667,5.83333 26.8333,5.16667 26.5,4.5C 26.7828,3.71087 27.2828,3.0442 28,2.5C 29.517,4.23953 31.017,5.9062 32.5,7.5 Z"/></g>
<g><path style="opacity:0.996" fill="#206db0" d="M 13.5,1.5 C 14.1667,2.5 14.8333,3.5 15.5,4.5C 14.8333,4.5 14.5,4.83333 14.5,5.5C 13.5,5.5 12.5,5.5 11.5,5.5C 11.1667,5.5 10.8333,5.5 10.5,5.5C 9.37505,4.34775 9.37505,3.34775 10.5,2.5C 10.7828,3.28913 11.2828,3.9558 12,4.5C 12.2321,3.26253 12.7321,2.26253 13.5,1.5 Z"/></g>
<g><path style="opacity:1" fill="#7e1f17" d="M 16.5,3.5 C 18.9935,3.13068 19.6602,3.79734 18.5,5.5C 17.1001,6.09982 16.1001,7.09982 15.5,8.5C 15.7373,7.20895 15.404,6.20895 14.5,5.5C 14.5,4.83333 14.8333,4.5 15.5,4.5C 16.1667,4.5 16.5,4.16667 16.5,3.5 Z"/></g>
<g><path style="opacity:1" fill="#637798" d="M 19.5,2.5 C 20.4916,2.32842 21.1583,2.66175 21.5,3.5C 21.8333,4.16667 22.1667,4.83333 22.5,5.5C 20.0882,5.69408 19.0882,7.02741 19.5,9.5C 20.8333,9.5 22.1667,9.5 23.5,9.5C 23.5,10.1667 23.1667,10.5 22.5,10.5C 21.1667,10.5 19.8333,10.5 18.5,10.5C 18.5,8.83333 18.5,7.16667 18.5,5.5C 19.6602,3.79734 18.9935,3.13068 16.5,3.5C 16.369,2.76109 16.5357,2.09442 17,1.5C 17.6708,2.25244 18.5041,2.58577 19.5,2.5 Z"/></g>
<g><path style="opacity:1" fill="#2e091c" d="M 11.5,6.5 C 11.5,6.16667 11.5,5.83333 11.5,5.5C 12.5,5.5 13.5,5.5 14.5,5.5C 13.8902,6.39105 13.5569,7.39105 13.5,8.5C 13.1667,9.16667 12.8333,9.83333 12.5,10.5C 12.1667,10.5 11.8333,10.5 11.5,10.5C 12.3543,8.96497 12.3543,7.63163 11.5,6.5 Z"/></g>
<g><path style="opacity:0.992" fill="#434247" d="M 18.5,5.5 C 18.5,7.16667 18.5,8.83333 18.5,10.5C 16.7973,9.33985 16.1307,10.0065 16.5,12.5C 15.6618,12.1583 15.3284,11.4916 15.5,10.5C 15.5,9.83333 15.5,9.16667 15.5,8.5C 16.1001,7.09982 17.1001,6.09982 18.5,5.5 Z"/></g>
<g><path style="opacity:0.992" fill="#2d333b" d="M 21.5,3.5 C 22.609,3.55688 23.609,3.89022 24.5,4.5C 25.1667,4.5 25.8333,4.5 26.5,4.5C 26.8333,5.16667 27.1667,5.83333 27.5,6.5C 26.0413,6.56745 24.7079,6.23411 23.5,5.5C 23.1667,5.5 22.8333,5.5 22.5,5.5C 22.1667,4.83333 21.8333,4.16667 21.5,3.5 Z"/></g>
<g><path style="opacity:0.325" fill="#0b0a10" d="M 6.5,4.5 C 6.55688,5.60895 6.89022,6.60895 7.5,7.5C 6.20895,7.26269 5.20895,7.59603 4.5,8.5C 4.16667,8.5 3.83333,8.5 3.5,8.5C 2.95691,8.44001 2.62358,8.10667 2.5,7.5C 3.37598,6.74917 4.37598,6.24917 5.5,6C 5.04265,5.58605 4.70931,5.08605 4.5,4.5C 5.2565,3.22671 5.92317,3.22671 6.5,4.5 Z"/></g>
<g><path style="opacity:1" fill="#0b5089" d="M 6.5,4.5 C 6.83333,4.5 7.16667,4.5 7.5,4.5C 8.20895,5.40397 9.20895,5.73731 10.5,5.5C 10.8333,5.5 11.1667,5.5 11.5,5.5C 11.5,5.83333 11.5,6.16667 11.5,6.5C 10.8333,6.83333 10.1667,7.16667 9.5,7.5C 8.83333,7.5 8.16667,7.5 7.5,7.5C 6.89022,6.60895 6.55688,5.60895 6.5,4.5 Z"/></g>
<g><path style="opacity:1" fill="#191d69" d="M 22.5,5.5 C 22.8333,5.5 23.1667,5.5 23.5,5.5C 23.5,6.83333 23.5,8.16667 23.5,9.5C 22.1667,9.5 20.8333,9.5 19.5,9.5C 19.0882,7.02741 20.0882,5.69408 22.5,5.5 Z"/></g>
<g><path style="opacity:1" fill="#95989f" d="M 23.5,5.5 C 24.7079,6.23411 26.0413,6.56745 27.5,6.5C 28.1667,6.5 28.5,6.83333 28.5,7.5C 27.5,7.5 26.5,7.5 25.5,7.5C 24.6618,7.84171 24.3284,8.50838 24.5,9.5C 24.1667,9.5 23.8333,9.5 23.5,9.5C 23.5,8.16667 23.5,6.83333 23.5,5.5 Z"/></g>
<g><path style="opacity:1" fill="#103b75" d="M 7.5,7.5 C 8.16667,7.5 8.83333,7.5 9.5,7.5C 8.83333,8.5 8.16667,9.5 7.5,10.5C 7.67158,11.4916 7.33825,12.1583 6.5,12.5C 6.5,11.8333 6.5,11.1667 6.5,10.5C 5.83333,9.83333 5.16667,9.16667 4.5,8.5C 5.20895,7.59603 6.20895,7.26269 7.5,7.5 Z"/></g>
<g><path style="opacity:1" fill="#84042a" d="M 11.5,6.5 C 12.3543,7.63163 12.3543,8.96497 11.5,10.5C 11.1667,10.5 10.8333,10.5 10.5,10.5C 10.5654,10.0618 10.3988,9.72845 10,9.5C 9.76791,10.7375 9.26791,11.7375 8.5,12.5C 8.67158,11.5084 8.33825,10.8417 7.5,10.5C 8.16667,9.5 8.83333,8.5 9.5,7.5C 10.1667,7.16667 10.8333,6.83333 11.5,6.5 Z"/></g>
<g><path style="opacity:0.996" fill="#bf0408" d="M 14.5,5.5 C 15.404,6.20895 15.7373,7.20895 15.5,8.5C 15.5,9.16667 15.5,9.83333 15.5,10.5C 15.1667,10.5 14.8333,10.5 14.5,10.5C 14.6716,9.50838 14.3382,8.84171 13.5,8.5C 13.5569,7.39105 13.8902,6.39105 14.5,5.5 Z"/></g>
<g><path style="opacity:1" fill="#4ad0fa" d="M 25.5,7.5 C 26.5,7.5 27.5,7.5 28.5,7.5C 29.8333,7.5 31.1667,7.5 32.5,7.5C 31.1667,8.5 31.1667,9.5 32.5,10.5C 30.1667,10.5 27.8333,10.5 25.5,10.5C 25.5,9.5 25.5,8.5 25.5,7.5 Z"/></g>
<g><path style="opacity:1" fill="#557a87" d="M 32.5,7.5 C 35.089,7.46095 37.089,8.46095 38.5,10.5C 36.901,10.2322 35.5676,10.5655 34.5,11.5C 33.0755,13.0311 32.4088,12.6977 32.5,10.5C 31.1667,9.5 31.1667,8.5 32.5,7.5 Z"/></g>
<g><path style="opacity:0.149" fill="#0d0918" d="M 3.5,8.5 C 3.83333,8.5 4.16667,8.5 4.5,8.5C 5.16667,9.16667 5.83333,9.83333 6.5,10.5C 4.00651,10.1307 3.33985,10.7973 4.5,12.5C 4.16667,12.5 3.83333,12.5 3.5,12.5C 2.50278,12.5299 1.83611,12.0299 1.5,11C 2.05558,9.98894 2.72225,9.15561 3.5,8.5 Z"/></g>
<g><path style="opacity:1" fill="#db0f23" d="M 13.5,8.5 C 14.3382,8.84171 14.6716,9.50838 14.5,10.5C 14.1667,11.8333 13.8333,13.1667 13.5,14.5C 12.5655,13.4324 12.2322,12.099 12.5,10.5C 12.8333,9.83333 13.1667,9.16667 13.5,8.5 Z"/></g>
<g><path style="opacity:1" fill="#27b9ef" d="M 25.5,7.5 C 25.5,8.5 25.5,9.5 25.5,10.5C 26.6602,12.2027 25.9935,12.8693 23.5,12.5C 24.1098,11.609 24.4431,10.609 24.5,9.5C 24.3284,8.50838 24.6618,7.84171 25.5,7.5 Z"/></g>
<g><path style="opacity:1" fill="#a0033f" d="M 10.5,10.5 C 10.1706,13.2282 10.8372,15.5615 12.5,17.5C 12.3284,18.4916 12.6618,19.1583 13.5,19.5C 12.7659,20.7079 12.4326,22.0413 12.5,23.5C 11.8333,23.5 11.5,23.1667 11.5,22.5C 11.0652,19.8427 10.0652,17.5093 8.5,15.5C 8.5,14.5 8.5,13.5 8.5,12.5C 9.26791,11.7375 9.76791,10.7375 10,9.5C 10.3988,9.72845 10.5654,10.0618 10.5,10.5 Z"/></g>
<g><path style="opacity:1" fill="#133793" d="M 18.5,10.5 C 19.8333,10.5 21.1667,10.5 22.5,10.5C 21.713,12.1042 20.3797,12.7709 18.5,12.5C 17.8333,12.5 17.1667,12.5 16.5,12.5C 16.1307,10.0065 16.7973,9.33985 18.5,10.5 Z"/></g>
<g><path style="opacity:1" fill="#10bff7" d="M 25.5,10.5 C 27.8333,10.5 30.1667,10.5 32.5,10.5C 32.4088,12.6977 33.0755,13.0311 34.5,11.5C 35.8333,11.5 36.5,12.1667 36.5,13.5C 36.1667,13.5 35.8333,13.5 35.5,13.5C 31.5,13.5 27.5,13.5 23.5,13.5C 23.1667,13.5 22.8333,13.5 22.5,13.5C 22.5,12.8333 22.8333,12.5 23.5,12.5C 25.9935,12.8693 26.6602,12.2027 25.5,10.5 Z"/></g>
<g><path style="opacity:1" fill="#670339" d="M 10.5,10.5 C 10.8333,10.5 11.1667,10.5 11.5,10.5C 11.8333,10.5 12.1667,10.5 12.5,10.5C 12.2322,12.099 12.5655,13.4324 13.5,14.5C 14.1667,15.8333 14.8333,17.1667 15.5,18.5C 14.391,18.4431 13.391,18.1098 12.5,17.5C 10.8372,15.5615 10.1706,13.2282 10.5,10.5 Z"/></g>
<g><path style="opacity:1" fill="#3095cc" d="M 23.5,9.5 C 23.8333,9.5 24.1667,9.5 24.5,9.5C 24.4431,10.609 24.1098,11.609 23.5,12.5C 22.8333,12.5 22.5,12.8333 22.5,13.5C 20.901,13.7678 19.5676,13.4345 18.5,12.5C 20.3797,12.7709 21.713,12.1042 22.5,10.5C 23.1667,10.5 23.5,10.1667 23.5,9.5 Z"/></g>
<g><path style="opacity:1" fill="#2ab4e3" d="M 34.5,11.5 C 35.5676,10.5655 36.901,10.2322 38.5,10.5C 38.7148,12.1788 38.0481,13.1788 36.5,13.5C 36.5,12.1667 35.8333,11.5 34.5,11.5 Z"/></g>
<g><path style="opacity:0.325" fill="#09060b" d="M 3.5,12.5 C 3.83333,12.5 4.16667,12.5 4.5,12.5C 4.83333,13.1667 5.16667,13.8333 5.5,14.5C 3.90097,14.2322 2.56764,14.5655 1.5,15.5C 1.5,15.8333 1.5,16.1667 1.5,16.5C 0.833333,16.5 0.166667,16.5 -0.5,16.5C -0.5,15.8333 -0.5,15.1667 -0.5,14.5C 0.995216,14.0113 2.32855,13.3446 3.5,12.5 Z"/></g>
<g><path style="opacity:1" fill="#e30813" d="M 14.5,10.5 C 14.8333,10.5 15.1667,10.5 15.5,10.5C 15.3284,11.4916 15.6618,12.1583 16.5,12.5C 16.5,13.1667 16.5,13.8333 16.5,14.5C 16.9731,15.9063 17.9731,16.573 19.5,16.5C 20.8333,16.5 22.1667,16.5 23.5,16.5C 23.8333,16.5 24.1667,16.5 24.5,16.5C 24.5,16.8333 24.5,17.1667 24.5,17.5C 21.9407,17.1984 19.6074,17.5318 17.5,18.5C 16.8333,18.5 16.1667,18.5 15.5,18.5C 14.8333,17.1667 14.1667,15.8333 13.5,14.5C 13.8333,13.1667 14.1667,11.8333 14.5,10.5 Z"/></g>
<g><path style="opacity:1" fill="#1e3e7d" d="M 16.5,12.5 C 17.1667,12.5 17.8333,12.5 18.5,12.5C 19.5676,13.4345 20.901,13.7678 22.5,13.5C 22.8333,13.5 23.1667,13.5 23.5,13.5C 23.5,13.8333 23.5,14.1667 23.5,14.5C 22.448,14.3505 21.448,14.5172 20.5,15C 21.7375,15.2321 22.7375,15.7321 23.5,16.5C 22.1667,16.5 20.8333,16.5 19.5,16.5C 19.0269,15.0937 18.0269,14.427 16.5,14.5C 16.5,13.8333 16.5,13.1667 16.5,12.5 Z"/></g>
<g><path style="opacity:1" fill="#429ac0" d="M 23.5,14.5 C 23.5,14.1667 23.5,13.8333 23.5,13.5C 27.5,13.5 31.5,13.5 35.5,13.5C 35.5,14.1667 35.5,14.8333 35.5,15.5C 34.8333,15.5 34.1667,15.5 33.5,15.5C 31.3926,14.5318 29.0593,14.1984 26.5,14.5C 25.5,14.5 24.5,14.5 23.5,14.5 Z"/></g>
<g><path style="opacity:0.941" fill="#144fa5" d="M 1.5,15.5 C 2.56764,14.5655 3.90097,14.2322 5.5,14.5C 5.5,15.1667 5.83333,15.5 6.5,15.5C 7.10978,16.391 7.44312,17.391 7.5,18.5C 8.16667,19.5 8.83333,20.5 9.5,21.5C 9.5,22.1667 9.16667,22.5 8.5,22.5C 7.79105,21.596 6.79105,21.2627 5.5,21.5C 5.5,20.1667 5.5,18.8333 5.5,17.5C 4.71304,15.8958 3.3797,15.2291 1.5,15.5 Z"/></g>
<g><path style="opacity:1" fill="#0658b4" d="M 6.5,10.5 C 6.5,11.1667 6.5,11.8333 6.5,12.5C 6.5,13.5 6.5,14.5 6.5,15.5C 5.83333,15.5 5.5,15.1667 5.5,14.5C 5.16667,13.8333 4.83333,13.1667 4.5,12.5C 3.33985,10.7973 4.00651,10.1307 6.5,10.5 Z"/></g>
<g><path style="opacity:1" fill="#840517" d="M 7.5,10.5 C 8.33825,10.8417 8.67158,11.5084 8.5,12.5C 8.5,13.5 8.5,14.5 8.5,15.5C 8.73731,16.791 8.40397,17.791 7.5,18.5C 7.44312,17.391 7.10978,16.391 6.5,15.5C 6.5,14.5 6.5,13.5 6.5,12.5C 7.33825,12.1583 7.67158,11.4916 7.5,10.5 Z"/></g>
<g><path style="opacity:1" fill="#0c70cd" d="M 23.5,14.5 C 24.5,14.5 25.5,14.5 26.5,14.5C 26.5,15.1667 26.5,15.8333 26.5,16.5C 25.8333,16.5 25.1667,16.5 24.5,16.5C 24.1667,16.5 23.8333,16.5 23.5,16.5C 22.7375,15.7321 21.7375,15.2321 20.5,15C 21.448,14.5172 22.448,14.3505 23.5,14.5 Z"/></g>
<g><path style="opacity:1" fill="#0f87c8" d="M 26.5,14.5 C 29.0593,14.1984 31.3926,14.5318 33.5,15.5C 31.3926,16.4682 29.0593,16.8016 26.5,16.5C 26.5,15.8333 26.5,15.1667 26.5,14.5 Z"/></g>
<g><path style="opacity:1" fill="#2c5065" d="M 38.5,10.5 C 38.8333,10.5 39.1667,10.5 39.5,10.5C 39.5,11.8333 39.5,13.1667 39.5,14.5C 39.1667,14.5 38.8333,14.5 38.5,14.5C 37.391,14.5569 36.391,14.8902 35.5,15.5C 35.5,14.8333 35.5,14.1667 35.5,13.5C 35.8333,13.5 36.1667,13.5 36.5,13.5C 38.0481,13.1788 38.7148,12.1788 38.5,10.5 Z"/></g>
<g><path style="opacity:1" fill="#820a2b" d="M 16.5,14.5 C 18.0269,14.427 19.0269,15.0937 19.5,16.5C 17.9731,16.573 16.9731,15.9063 16.5,14.5 Z"/></g>
<g><path style="opacity:0.875" fill="#182d4e" d="M 38.5,14.5 C 37.3933,16.9689 35.3933,17.9689 32.5,17.5C 30.1667,17.5 27.8333,17.5 25.5,17.5C 25.1667,17.5 24.8333,17.5 24.5,17.5C 24.5,17.1667 24.5,16.8333 24.5,16.5C 25.1667,16.5 25.8333,16.5 26.5,16.5C 29.0593,16.8016 31.3926,16.4682 33.5,15.5C 34.1667,15.5 34.8333,15.5 35.5,15.5C 36.391,14.8902 37.391,14.5569 38.5,14.5 Z"/></g>
<g><path style="opacity:0.18" fill="#101224" d="M 1.5,15.5 C 3.3797,15.2291 4.71304,15.8958 5.5,17.5C 4.83333,17.5 4.16667,17.5 3.5,17.5C 3.16667,17.5 2.83333,17.5 2.5,17.5C 1.83333,17.5 1.5,17.1667 1.5,16.5C 1.5,16.1667 1.5,15.8333 1.5,15.5 Z"/></g>
<g><path style="opacity:0.796" fill="#0d1635" d="M 3.5,17.5 C 4.16667,17.5 4.83333,17.5 5.5,17.5C 5.5,18.8333 5.5,20.1667 5.5,21.5C 6.79105,21.2627 7.79105,21.596 8.5,22.5C 7.83333,22.5 7.16667,22.5 6.5,22.5C 5.16667,22.5 4.5,21.8333 4.5,20.5C 4.44312,19.391 4.10978,18.391 3.5,17.5 Z"/></g>
<g><path style="opacity:1" fill="#890234" d="M 8.5,15.5 C 10.0652,17.5093 11.0652,19.8427 11.5,22.5C 10.8333,22.1667 10.1667,21.8333 9.5,21.5C 8.83333,20.5 8.16667,19.5 7.5,18.5C 8.40397,17.791 8.73731,16.791 8.5,15.5 Z"/></g>
<g><path style="opacity:1" fill="#f3310e" d="M 17.5,18.5 C 19.6074,17.5318 21.9407,17.1984 24.5,17.5C 24.8333,17.5 25.1667,17.5 25.5,17.5C 25.5,17.8333 25.5,18.1667 25.5,18.5C 24.5084,18.3284 23.8417,18.6618 23.5,19.5C 21.8333,19.5 20.1667,19.5 18.5,19.5C 18.5,18.8333 18.1667,18.5 17.5,18.5 Z"/></g>
<g><path style="opacity:0.078" fill="#110d10" d="M 25.5,18.5 C 25.5,18.1667 25.5,17.8333 25.5,17.5C 27.8333,17.5 30.1667,17.5 32.5,17.5C 31.0484,18.3019 29.3817,18.8019 27.5,19C 28.056,19.3826 28.3893,19.8826 28.5,20.5C 27.8333,20.5 27.1667,20.5 26.5,20.5C 26.6716,19.5084 26.3382,18.8417 25.5,18.5 Z"/></g>
<g><path style="opacity:0.749" fill="#09070b" d="M 2.5,17.5 C 2.83333,17.5 3.16667,17.5 3.5,17.5C 4.10978,18.391 4.44312,19.391 4.5,20.5C 1.75236,20.5983 1.0857,19.5983 2.5,17.5 Z"/></g>
<g><path style="opacity:1" fill="#551025" d="M 12.5,17.5 C 13.391,18.1098 14.391,18.4431 15.5,18.5C 16.1667,18.5 16.8333,18.5 17.5,18.5C 18.1667,18.5 18.5,18.8333 18.5,19.5C 17.8333,19.5 17.1667,19.5 16.5,19.5C 15.8333,19.5 15.1667,19.5 14.5,19.5C 14.1667,19.5 13.8333,19.5 13.5,19.5C 12.6618,19.1583 12.3284,18.4916 12.5,17.5 Z"/></g>
<g><path style="opacity:1" fill="#a7bfcd" d="M 16.5,19.5 C 17.1667,19.5 17.8333,19.5 18.5,19.5C 18.5,19.8333 18.5,20.1667 18.5,20.5C 18.5,20.8333 18.5,21.1667 18.5,21.5C 18.7373,22.791 18.404,23.791 17.5,24.5C 17.1667,23.1667 16.8333,21.8333 16.5,20.5C 16.5,20.1667 16.5,19.8333 16.5,19.5 Z"/></g>
<g><path style="opacity:1" fill="#d38d1a" d="M 13.5,19.5 C 13.8333,19.5 14.1667,19.5 14.5,19.5C 14.5674,20.9587 14.2341,22.2921 13.5,23.5C 13.1667,23.5 12.8333,23.5 12.5,23.5C 12.4326,22.0413 12.7659,20.7079 13.5,19.5 Z"/></g>
<g><path style="opacity:1" fill="#bad36d" d="M 18.5,20.5 C 18.5,20.1667 18.5,19.8333 18.5,19.5C 20.1667,19.5 21.8333,19.5 23.5,19.5C 23.5,20.1667 23.5,20.8333 23.5,21.5C 22.791,22.404 21.791,22.7373 20.5,22.5C 20.5,21.1667 19.8333,20.5 18.5,20.5 Z"/></g>
<g><path style="opacity:1" fill="#c0d25c" d="M 25.5,18.5 C 26.3382,18.8417 26.6716,19.5084 26.5,20.5C 26.5,21.5 26.5,22.5 26.5,23.5C 25.5,22.8333 24.5,22.1667 23.5,21.5C 23.5,20.8333 23.5,20.1667 23.5,19.5C 23.8417,18.6618 24.5084,18.3284 25.5,18.5 Z"/></g>
<g><path style="opacity:1" fill="#2192e8" d="M 16.5,20.5 C 16.8333,21.8333 17.1667,23.1667 17.5,24.5C 17.5,24.8333 17.5,25.1667 17.5,25.5C 16.8333,25.1667 16.1667,24.8333 15.5,24.5C 15.2322,22.901 15.5655,21.5676 16.5,20.5 Z"/></g>
<g><path style="opacity:0.486" fill="#09070d" d="M 6.5,22.5 C 7.16667,22.5 7.83333,22.5 8.5,22.5C 9.29049,23.4013 10.2905,24.0679 11.5,24.5C 11.5,24.8333 11.5,25.1667 11.5,25.5C 9.32604,25.2503 7.65938,24.2503 6.5,22.5 Z"/></g>
<g><path style="opacity:0.988" fill="#263a5e" d="M 9.5,21.5 C 10.1667,21.8333 10.8333,22.1667 11.5,22.5C 11.5,23.1667 11.8333,23.5 12.5,23.5C 12.8333,23.5 13.1667,23.5 13.5,23.5C 13.5,23.8333 13.5,24.1667 13.5,24.5C 12.8333,24.5 12.1667,24.5 11.5,24.5C 10.2905,24.0679 9.29049,23.4013 8.5,22.5C 9.16667,22.5 9.5,22.1667 9.5,21.5 Z"/></g>
<g><path style="opacity:1" fill="#391737" d="M 14.5,19.5 C 15.1667,19.5 15.8333,19.5 16.5,19.5C 16.5,19.8333 16.5,20.1667 16.5,20.5C 15.5655,21.5676 15.2322,22.901 15.5,24.5C 14.8333,24.5 14.1667,24.5 13.5,24.5C 13.5,24.1667 13.5,23.8333 13.5,23.5C 14.2341,22.2921 14.5674,20.9587 14.5,19.5 Z"/></g>
<g><path style="opacity:1" fill="#c1e36c" d="M 23.5,21.5 C 24.5,22.1667 25.5,22.8333 26.5,23.5C 26.5,23.8333 26.5,24.1667 26.5,24.5C 23.9179,24.9746 21.9179,24.3079 20.5,22.5C 21.791,22.7373 22.791,22.404 23.5,21.5 Z"/></g>
<g><path style="opacity:1" fill="#132151" d="M 11.5,24.5 C 12.1667,24.5 12.8333,24.5 13.5,24.5C 14.1667,24.5 14.8333,24.5 15.5,24.5C 15.5,25.8333 14.8333,26.5 13.5,26.5C 12.5084,26.6716 11.8417,26.3382 11.5,25.5C 11.5,25.1667 11.5,24.8333 11.5,24.5 Z"/></g>
<g><path style="opacity:1" fill="#5087b1" d="M 18.5,21.5 C 19.4345,22.5676 19.7678,23.901 19.5,25.5C 19.8333,26.1667 20.1667,26.8333 20.5,27.5C 20.1667,27.5 19.8333,27.5 19.5,27.5C 18.5,27.1667 17.8333,26.5 17.5,25.5C 17.5,25.1667 17.5,24.8333 17.5,24.5C 18.404,23.791 18.7373,22.791 18.5,21.5 Z"/></g>
<g><path style="opacity:1" fill="#809066" d="M 18.5,21.5 C 18.5,21.1667 18.5,20.8333 18.5,20.5C 19.8333,20.5 20.5,21.1667 20.5,22.5C 21.9179,24.3079 23.9179,24.9746 26.5,24.5C 24.3926,25.4682 22.0593,25.8016 19.5,25.5C 19.7678,23.901 19.4345,22.5676 18.5,21.5 Z"/></g>
<g><path style="opacity:0.878" fill="#0e1834" d="M 15.5,24.5 C 16.1667,24.8333 16.8333,25.1667 17.5,25.5C 17.8333,26.5 18.5,27.1667 19.5,27.5C 19.5,27.8333 19.5,28.1667 19.5,28.5C 17.3024,28.1249 15.3024,27.4582 13.5,26.5C 14.8333,26.5 15.5,25.8333 15.5,24.5 Z"/></g>
<g><path style="opacity:0.973" fill="#3c3e46" d="M 28.5,20.5 C 29.29,21.6085 29.79,22.9419 30,24.5C 30.6708,23.7476 31.5041,23.4142 32.5,23.5C 34.9224,25.0478 34.9224,26.7145 32.5,28.5C 31.8333,28.5 31.1667,28.5 30.5,28.5C 30.5,27.8333 30.1667,27.5 29.5,27.5C 29.6107,26.8826 29.944,26.3826 30.5,26C 28.8078,24.5993 28.1412,22.7659 28.5,20.5 Z"/></g>
<g><path style="opacity:0.922" fill="#638fb4" d="M 26.5,20.5 C 27.1667,20.5 27.8333,20.5 28.5,20.5C 28.1412,22.7659 28.8078,24.5993 30.5,26C 29.944,26.3826 29.6107,26.8826 29.5,27.5C 28.5,27.5 27.5,27.5 26.5,27.5C 24.5,27.5 22.5,27.5 20.5,27.5C 20.1667,26.8333 19.8333,26.1667 19.5,25.5C 22.0593,25.8016 24.3926,25.4682 26.5,24.5C 26.5,24.1667 26.5,23.8333 26.5,23.5C 26.5,22.5 26.5,21.5 26.5,20.5 Z"/></g>
<g><path style="opacity:0.439" fill="#1e1d1e" d="M 32.5,23.5 C 38.4414,24.698 38.7747,26.698 33.5,29.5C 32.8933,29.3764 32.56,29.0431 32.5,28.5C 34.9224,26.7145 34.9224,25.0478 32.5,23.5 Z"/></g>
<g><path style="opacity:0.475" fill="#191e4a" d="M 19.5,27.5 C 19.8333,27.5 20.1667,27.5 20.5,27.5C 22.5,27.5 24.5,27.5 26.5,27.5C 26.5,27.8333 26.5,28.1667 26.5,28.5C 23.9213,28.8652 21.588,28.8652 19.5,28.5C 19.5,28.1667 19.5,27.8333 19.5,27.5 Z"/></g>
<g><path style="opacity:0.024" fill="#270609" d="M 14.5,30.5 C 15.1667,29.1667 15.8333,29.1667 16.5,30.5C 15.8333,30.5 15.1667,30.5 14.5,30.5 Z"/></g>
<g><path style="opacity:0.102" fill="#21191c" d="M 26.5,28.5 C 26.5,28.1667 26.5,27.8333 26.5,27.5C 27.5,27.5 28.5,27.5 29.5,27.5C 30.1667,27.5 30.5,27.8333 30.5,28.5C 30.5,29.1667 30.5,29.8333 30.5,30.5C 29.8333,30.5 29.1667,30.5 28.5,30.5C 28.1667,29.5 27.5,28.8333 26.5,28.5 Z"/></g>
</svg>
