<?xml version="1.0" encoding="UTF-8"?>
<!DOCTYPE svg PUBLIC "-//W3C//DTD SVG 1.1//EN" "http://www.w3.org/Graphics/SVG/1.1/DTD/svg11.dtd">
<svg xmlns="http://www.w3.org/2000/svg" version="1.1" width="96px" height="135px" style="shape-rendering:geometricPrecision; text-rendering:geometricPrecision; image-rendering:optimizeQuality; fill-rule:evenodd; clip-rule:evenodd" xmlns:xlink="http://www.w3.org/1999/xlink">
<g><path style="opacity:0.992" fill="#01ebc1" d="M 39.5,31.5 C 34.5,30.9969 34.8333,30.6636 40.5,30.5C 41.0366,26.0193 39.3699,24.686 35.5,26.5C 35.5086,24.6916 35.0086,23.0249 34,21.5C 33.0228,22.7736 32.1894,22.7736 31.5,21.5C 36.046,17.6365 41.2126,14.6365 47,12.5C 51.0291,13.9445 54.6958,15.9445 58,18.5C 58.4453,20.5943 57.612,22.0943 55.5,23C 50.2713,26.1133 44.938,28.9466 39.5,31.5 Z"/></g>
<g><path style="opacity:0.951" fill="#02f1c3" d="M 31.5,21.5 C 32.1894,22.7736 33.0228,22.7736 34,21.5C 35.0086,23.0249 35.5086,24.6916 35.5,26.5C 39.3699,24.686 41.0366,26.0193 40.5,30.5C 34.8333,30.6636 34.5,30.9969 39.5,31.5C 32.2253,36.4779 24.5587,40.9779 16.5,45C 14.253,46.995 13.253,49.495 13.5,52.5C 11.3375,57.1773 8.1708,61.1773 4,64.5C 3.11534,67.9523 2.282,71.2856 1.5,74.5C 1.5,70.1667 1.5,65.8333 1.5,61.5C 2.88585,57.6758 4.71918,54.0091 7,50.5C 8.85511,48.6449 10.6884,46.8116 12.5,45C 12.1802,43.3468 11.1802,42.3468 9.5,42C 11.7529,40.2876 13.4196,38.1209 14.5,35.5C 12.9547,34.5481 11.288,34.2148 9.5,34.5C 16.1381,29.1737 23.4714,24.8404 31.5,21.5 Z"/></g>
<g><path style="opacity:0.957" fill="#02cfb9" d="M 72.5,27.5 C 71.802,31.8974 69.802,35.5641 66.5,38.5C 63.8599,37.1799 61.1932,35.8466 58.5,34.5C 57.4173,33.635 57.2506,32.635 58,31.5C 62.2398,28.6168 66.7398,26.7835 71.5,26C 72.056,26.3826 72.3893,26.8826 72.5,27.5 Z"/></g>
<g><path style="opacity:0.963" fill="#00c8b7" d="M 72.5,27.5 C 75.4848,28.3257 78.1515,29.659 80.5,31.5C 79.1888,33.5598 79.1888,35.7265 80.5,38C 78.1825,39.9927 75.5158,41.1594 72.5,41.5C 70.5168,40.5294 68.5168,39.5294 66.5,38.5C 69.802,35.5641 71.802,31.8974 72.5,27.5 Z"/></g>
<g><path style="opacity:0.928" fill="#01b6b3" d="M 80.5,31.5 C 84.8068,33.6534 89.1401,35.8201 93.5,38C 94.2524,38.6708 94.5858,39.5041 94.5,40.5C 92.9902,39.2721 91.4902,39.2721 90,40.5C 89.8253,44.211 89.3253,47.8776 88.5,51.5C 85.7232,49.9811 83.7232,50.6477 82.5,53.5C 82.573,51.9731 81.9063,50.9731 80.5,50.5C 80.6495,49.448 80.4828,48.448 80,47.5C 77.5216,45.3606 75.0216,43.3606 72.5,41.5C 75.5158,41.1594 78.1825,39.9927 80.5,38C 79.1888,35.7265 79.1888,33.5598 80.5,31.5 Z"/></g>
<g><path style="opacity:0.993" fill="#00f9c4" d="M 9.5,34.5 C 11.288,34.2148 12.9547,34.5481 14.5,35.5C 13.4196,38.1209 11.7529,40.2876 9.5,42C 11.1802,42.3468 12.1802,43.3468 12.5,45C 10.6884,46.8116 8.85511,48.6449 7,50.5C 4.71918,54.0091 2.88585,57.6758 1.5,61.5C 1.74061,59.1016 1.07394,57.1016 -0.5,55.5C -0.5,50.8333 -0.5,46.1667 -0.5,41.5C 1.72678,37.6096 5.06011,35.2762 9.5,34.5 Z"/></g>
<g><path style="opacity:0.96" fill="#00d6bf" d="M 56.5,43.5 C 56.6567,44.8734 56.49,46.2068 56,47.5C 53.9565,49.208 52.2899,51.208 51,53.5C 49.1839,54.3295 47.3506,55.1628 45.5,56C 46.6843,57.1455 46.6843,58.3121 45.5,59.5C 39.9099,57.3716 34.5765,54.7049 29.5,51.5C 28.4173,50.635 28.2506,49.635 29,48.5C 34.5324,44.3988 40.5324,41.0654 47,38.5C 50.4149,39.7897 53.5815,41.4564 56.5,43.5 Z"/></g>
<g><path style="opacity:0.914" fill="#00adb3" d="M 94.5,40.5 C 94.5,44.8333 94.5,49.1667 94.5,53.5C 93.5148,56.0571 92.5148,58.7237 91.5,61.5C 90.549,60.6744 89.549,60.5078 88.5,61C 87.8971,62.8254 87.2304,64.6587 86.5,66.5C 85.3591,63.9382 84.5257,61.2716 84,58.5C 83.8171,61.3647 83.3171,64.0314 82.5,66.5C 82.5,62.1667 82.5,57.8333 82.5,53.5C 83.7232,50.6477 85.7232,49.9811 88.5,51.5C 89.3253,47.8776 89.8253,44.211 90,40.5C 91.4902,39.2721 92.9902,39.2721 94.5,40.5 Z"/></g>
<g><path style="opacity:0.965" fill="#00c9b8" d="M 56.5,43.5 C 59.8691,45.5146 63.2024,47.5146 66.5,49.5C 65.6521,51.0931 64.3187,52.2597 62.5,53C 64.5967,56.0628 63.7634,58.5628 60,60.5C 59.7811,61.938 59.2811,63.2713 58.5,64.5C 56.7751,62.9084 55.7751,63.2417 55.5,65.5C 51.4945,64.5023 48.1612,62.5023 45.5,59.5C 46.6843,58.3121 46.6843,57.1455 45.5,56C 47.3506,55.1628 49.1839,54.3295 51,53.5C 52.2899,51.208 53.9565,49.208 56,47.5C 56.49,46.2068 56.6567,44.8734 56.5,43.5 Z"/></g>
<g><path style="opacity:0.995" fill="#00bab5" d="M 66.5,49.5 C 68.0174,49.5106 69.1841,50.1772 70,51.5C 70.9931,54.4741 71.8264,57.4741 72.5,60.5C 71.2169,63.7833 68.8836,66.1166 65.5,67.5C 64.6143,66.675 64.281,65.675 64.5,64.5C 61.656,64.3426 59.9893,65.676 59.5,68.5C 57.7697,67.9744 56.4363,66.9744 55.5,65.5C 55.7751,63.2417 56.7751,62.9084 58.5,64.5C 59.2811,63.2713 59.7811,61.938 60,60.5C 63.7634,58.5628 64.5967,56.0628 62.5,53C 64.3187,52.2597 65.6521,51.0931 66.5,49.5 Z"/></g>
<g><path style="opacity:0.951" fill="#00abac" d="M 80.5,50.5 C 81.9063,50.9731 82.573,51.9731 82.5,53.5C 82.5,57.8333 82.5,62.1667 82.5,66.5C 81.9753,72.1745 79.8087,72.8411 76,68.5C 74.9207,71.0627 74.4207,73.7294 74.5,76.5C 69.0506,74.6095 64.0506,71.9429 59.5,68.5C 59.9893,65.676 61.656,64.3426 64.5,64.5C 64.281,65.675 64.6143,66.675 65.5,67.5C 68.8836,66.1166 71.2169,63.7833 72.5,60.5C 74.8895,61.446 77.0562,62.7794 79,64.5C 80.2252,59.9147 80.7252,55.248 80.5,50.5 Z"/></g>
<g><path style="opacity:0.991" fill="#03e1b5" d="M 13.5,52.5 C 16.3702,53.4333 18.7036,55.1 20.5,57.5C 20.9612,59.5504 21.6279,61.5504 22.5,63.5C 18.8238,63.7375 16.1571,65.4041 14.5,68.5C 13.596,69.209 13.2627,70.209 13.5,71.5C 12.5655,70.4324 12.2322,69.099 12.5,67.5C 10.14,66.0838 8.14001,66.4172 6.5,68.5C 5.16222,71.1756 3.82889,73.8422 2.5,76.5C 1.70245,76.0431 1.36912,75.3764 1.5,74.5C 2.282,71.2856 3.11534,67.9523 4,64.5C 8.1708,61.1773 11.3375,57.1773 13.5,52.5 Z"/></g>
<g><path style="opacity:0.916" fill="#00a4af" d="M 94.5,53.5 C 94.5,59.8333 94.5,66.1667 94.5,72.5C 93.6156,69.9768 92.7823,67.3102 92,64.5C 89.207,67.4532 87.0403,70.7865 85.5,74.5C 83.3817,76.6417 81.0484,78.3083 78.5,79.5C 76.7697,78.9744 75.4363,77.9744 74.5,76.5C 74.4207,73.7294 74.9207,71.0627 76,68.5C 79.8087,72.8411 81.9753,72.1745 82.5,66.5C 83.3171,64.0314 83.8171,61.3647 84,58.5C 84.5257,61.2716 85.3591,63.9382 86.5,66.5C 87.2304,64.6587 87.8971,62.8254 88.5,61C 89.549,60.5078 90.549,60.6744 91.5,61.5C 92.5148,58.7237 93.5148,56.0571 94.5,53.5 Z"/></g>
<g><path style="opacity:0.9" fill="#00dfbf" d="M -0.5,55.5 C 1.07394,57.1016 1.74061,59.1016 1.5,61.5C 1.5,65.8333 1.5,70.1667 1.5,74.5C 1.36912,75.3764 1.70245,76.0431 2.5,76.5C 3.82889,73.8422 5.16222,71.1756 6.5,68.5C 8.14001,66.4172 10.14,66.0838 12.5,67.5C 12.2322,69.099 12.5655,70.4324 13.5,71.5C 13.5,75.1667 13.5,78.8333 13.5,82.5C 12.3794,80.0458 11.546,77.3791 11,74.5C 9.79777,76.6775 9.29777,79.0108 9.5,81.5C 8.16667,81.5 6.83333,81.5 5.5,81.5C 5.15937,84.5158 3.9927,87.1825 2,89.5C 1.62638,87.5087 0.793048,85.842 -0.5,84.5C -0.5,74.8333 -0.5,65.1667 -0.5,55.5 Z"/></g>
<g><path style="opacity:0.954" fill="#00d6bf" d="M 20.5,57.5 C 25.3195,59.0741 29.6528,61.4074 33.5,64.5C 29.8393,67.1647 26.8393,70.498 24.5,74.5C 23.7348,73.3881 22.7348,72.7214 21.5,72.5C 18.9684,71.4043 16.6351,70.0709 14.5,68.5C 16.1571,65.4041 18.8238,63.7375 22.5,63.5C 21.6279,61.5504 20.9612,59.5504 20.5,57.5 Z"/></g>
<g><path style="opacity:0.961" fill="#04c9b8" d="M 33.5,64.5 C 37.8638,66.3437 41.8638,68.677 45.5,71.5C 43.665,72.1223 42.4983,73.4556 42,75.5C 41.461,78.5285 40.7943,81.5285 40,84.5C 39.1072,85.7112 38.2739,85.7112 37.5,84.5C 38.9501,83.1502 39.6168,81.4835 39.5,79.5C 38.1667,79.5 36.8333,79.5 35.5,79.5C 35.297,82.2329 34.297,84.5662 32.5,86.5C 29.3933,85.1113 26.3933,83.4446 23.5,81.5C 22.5109,78.5623 21.8442,75.5623 21.5,72.5C 22.7348,72.7214 23.7348,73.3881 24.5,74.5C 26.8393,70.498 29.8393,67.1647 33.5,64.5 Z"/></g>
<g><path style="opacity:0.926" fill="#009dab" d="M 94.5,72.5 C 94.5,75.5 94.5,78.5 94.5,81.5C 93.678,79.6115 92.8447,77.6115 92,75.5C 90.9591,78.1126 89.4591,80.4459 87.5,82.5C 85.4902,80.8287 83.1569,80.162 80.5,80.5C 79.8333,80.1667 79.1667,79.8333 78.5,79.5C 81.0484,78.3083 83.3817,76.6417 85.5,74.5C 87.0403,70.7865 89.207,67.4532 92,64.5C 92.7823,67.3102 93.6156,69.9768 94.5,72.5 Z"/></g>
<g><path style="opacity:0.973" fill="#00d1bd" d="M 13.5,82.5 C 14.2698,85.9563 16.2698,88.623 19.5,90.5C 18.5169,91.8503 17.1836,92.8503 15.5,93.5C 17.0622,95.9007 16.7288,97.9007 14.5,99.5C 13.6143,98.675 13.281,97.675 13.5,96.5C 11.6203,96.2291 10.287,96.8958 9.5,98.5C 5.16914,98.0076 1.83581,96.0076 -0.5,92.5C -0.5,89.8333 -0.5,87.1667 -0.5,84.5C 0.793048,85.842 1.62638,87.5087 2,89.5C 3.9927,87.1825 5.15937,84.5158 5.5,81.5C 6.83333,81.5 8.16667,81.5 9.5,81.5C 9.29777,79.0108 9.79777,76.6775 11,74.5C 11.546,77.3791 12.3794,80.0458 13.5,82.5 Z"/></g>
<g><path style="opacity:0.953" fill="#01b6b3" d="M 50.5,74.5 C 53.1473,74.9287 55.1473,76.2621 56.5,78.5C 52.8183,79.8561 50.485,82.5228 49.5,86.5C 48.3112,87.4287 46.9778,87.762 45.5,87.5C 45.5,89.5 45.5,91.5 45.5,93.5C 43.0532,93.385 41.0532,92.385 39.5,90.5C 40.5676,89.5655 41.901,89.2322 43.5,89.5C 41.8456,85.4566 42.1789,81.6233 44.5,78C 46.9096,77.4005 48.9096,76.2338 50.5,74.5 Z"/></g>
<g><path style="opacity:0.989" fill="#048ea9" d="M 94.5,81.5 C 94.7899,85.9362 94.2899,90.2695 93,94.5C 89.7168,96.8912 86.2168,98.8912 82.5,100.5C 80.9892,99.0425 79.9892,97.2092 79.5,95C 80.4506,94.2825 80.6172,93.4491 80,92.5C 77.2355,91.9754 76.4022,90.6421 77.5,88.5C 77.3939,85.3855 78.3939,82.7188 80.5,80.5C 83.1569,80.162 85.4902,80.8287 87.5,82.5C 89.4591,80.4459 90.9591,78.1126 92,75.5C 92.8447,77.6115 93.678,79.6115 94.5,81.5 Z"/></g>
<g><path style="opacity:0.972" fill="#00aeb3" d="M 56.5,78.5 C 59.1794,79.2261 61.846,80.0594 64.5,81C 65.7472,82.4936 65.7472,83.9936 64.5,85.5C 59.5,88.3333 54.5,91.1667 49.5,94C 47.9343,94.765 46.6009,94.5983 45.5,93.5C 45.5,91.5 45.5,89.5 45.5,87.5C 46.9778,87.762 48.3112,87.4287 49.5,86.5C 50.485,82.5228 52.8183,79.8561 56.5,78.5 Z"/></g>
<g><path style="opacity:0.975" fill="#00bdb5" d="M 45.5,71.5 C 47.4113,72.075 49.078,73.075 50.5,74.5C 48.9096,76.2338 46.9096,77.4005 44.5,78C 42.1789,81.6233 41.8456,85.4566 43.5,89.5C 41.901,89.2322 40.5676,89.5655 39.5,90.5C 36.6829,89.9049 34.3495,88.5716 32.5,86.5C 34.297,84.5662 35.297,82.2329 35.5,79.5C 36.8333,79.5 38.1667,79.5 39.5,79.5C 39.6168,81.4835 38.9501,83.1502 37.5,84.5C 38.2739,85.7112 39.1072,85.7112 40,84.5C 40.7943,81.5285 41.461,78.5285 42,75.5C 42.4983,73.4556 43.665,72.1223 45.5,71.5 Z"/></g>
<g><path style="opacity:0.934" fill="#0294aa" d="M 77.5,88.5 C 76.4022,90.6421 77.2355,91.9754 80,92.5C 80.6172,93.4491 80.4506,94.2825 79.5,95C 79.9892,97.2092 80.9892,99.0425 82.5,100.5C 72.3384,106.749 62.005,112.749 51.5,118.5C 51.1231,115.475 50.9565,112.475 51,109.5C 52.3876,110.554 53.8876,110.72 55.5,110C 57.0685,107.696 58.2352,105.196 59,102.5C 60.6667,101.5 62.3333,100.5 64,99.5C 64.4828,98.552 64.6495,97.552 64.5,96.5C 68.658,93.5857 72.9914,90.9191 77.5,88.5 Z"/></g>
<g><path style="opacity:0.954" fill="#00c0b7" d="M 19.5,90.5 C 23.1122,91.6395 26.4456,93.3061 29.5,95.5C 28.3522,98.0888 26.3522,99.7555 23.5,100.5C 22.7492,99.624 22.2492,98.624 22,97.5C 19.6744,99.0657 17.5078,100.732 15.5,102.5C 12.8021,102.155 10.8021,100.822 9.5,98.5C 10.287,96.8958 11.6203,96.2291 13.5,96.5C 13.281,97.675 13.6143,98.675 14.5,99.5C 16.7288,97.9007 17.0622,95.9007 15.5,93.5C 17.1836,92.8503 18.5169,91.8503 19.5,90.5 Z"/></g>
<g><path style="opacity:0.98" fill="#04b7af" d="M 29.5,95.5 C 32.3702,96.4333 34.7036,98.1 36.5,100.5C 33.2173,103.482 29.5507,105.982 25.5,108C 21.8042,106.982 18.4708,105.149 15.5,102.5C 17.5078,100.732 19.6744,99.0657 22,97.5C 22.2492,98.624 22.7492,99.624 23.5,100.5C 26.3522,99.7555 28.3522,98.0888 29.5,95.5 Z"/></g>
<g><path style="opacity:0.945" fill="#019eab" d="M 64.5,96.5 C 64.6495,97.552 64.4828,98.552 64,99.5C 62.3333,100.5 60.6667,101.5 59,102.5C 58.2352,105.196 57.0685,107.696 55.5,110C 53.8876,110.72 52.3876,110.554 51,109.5C 50.9565,112.475 51.1231,115.475 51.5,118.5C 49.2046,120.385 46.538,120.885 43.5,120C 40.5,117.833 37.5,115.667 34.5,113.5C 44.23,107.303 54.23,101.637 64.5,96.5 Z"/></g>
</svg>
