<?xml version="1.0" encoding="UTF-8"?>
<!DOCTYPE svg PUBLIC "-//W3C//DTD SVG 1.1//EN" "http://www.w3.org/Graphics/SVG/1.1/DTD/svg11.dtd">
<svg xmlns="http://www.w3.org/2000/svg" version="1.1" width="40px" height="40px" style="shape-rendering:geometricPrecision; text-rendering:geometricPrecision; image-rendering:optimizeQuality; fill-rule:evenodd; clip-rule:evenodd" xmlns:xlink="http://www.w3.org/1999/xlink">
<g><path style="opacity:1" fill="#c5e2eb" d="M 26.5,3.5 C 23.6146,3.1936 20.9479,3.52693 18.5,4.5C 13.0138,4.56028 9.34714,7.06028 7.5,12C 8.6767,16.008 11.3434,18.508 15.5,19.5C 14.8373,25.9092 11.8373,27.9092 6.5,25.5C 4.76776,22.7904 3.10109,20.1237 1.5,17.5C 3.41873,7.58153 9.41873,2.2482 19.5,1.5C 22.2046,1.31608 24.5379,1.98274 26.5,3.5 Z"/></g>
<g><path style="opacity:1" fill="#9eb9c2" d="M 24.5,7.5 C 24.5,10.5 24.5,13.5 24.5,16.5C 21.0955,15.9622 18.0955,14.6288 15.5,12.5C 13.9343,8.36463 15.6009,6.36463 20.5,6.5C 21.9245,6.62328 23.2579,6.95661 24.5,7.5 Z"/></g>
<g><path style="opacity:1" fill="#73858e" d="M 18.5,4.5 C 20.9479,3.52693 23.6146,3.1936 26.5,3.5C 31.8221,5.32412 35.3221,8.99079 37,14.5C 38.1667,30.6667 30.6667,38.1667 14.5,37C 5.54309,33.587 1.20976,27.087 1.5,17.5C 3.10109,20.1237 4.76776,22.7904 6.5,25.5C 5.47498,25.8966 5.30831,26.5632 6,27.5C 11.7325,34.5866 18.8991,36.4199 27.5,33C 29.3333,31.1667 31.1667,29.3333 33,27.5C 33.065,24.8023 31.8983,22.6356 29.5,21C 25.8333,19.3333 22.1667,17.6667 18.5,16C 17.2899,14.9609 16.2899,13.7942 15.5,12.5C 18.0955,14.6288 21.0955,15.9622 24.5,16.5C 24.5,13.5 24.5,10.5 24.5,7.5C 26.7567,7.96166 28.7567,8.96166 30.5,10.5C 30.8333,10.3333 31.1667,10.1667 31.5,10C 28.3381,5.41955 24.0048,3.58621 18.5,4.5 Z"/></g>
<g><path style="opacity:1" fill="#c52d3d" d="M 18.5,4.5 C 24.0048,3.58621 28.3381,5.41955 31.5,10C 31.1667,10.1667 30.8333,10.3333 30.5,10.5C 28.7567,8.96166 26.7567,7.96166 24.5,7.5C 23.2579,6.95661 21.9245,6.62328 20.5,6.5C 15.6009,6.36463 13.9343,8.36463 15.5,12.5C 16.2899,13.7942 17.2899,14.9609 18.5,16C 22.1667,17.6667 25.8333,19.3333 29.5,21C 31.8983,22.6356 33.065,24.8023 33,27.5C 31.1667,29.3333 29.3333,31.1667 27.5,33C 18.8991,36.4199 11.7325,34.5866 6,27.5C 5.30831,26.5632 5.47498,25.8966 6.5,25.5C 7.26231,27.2624 8.59565,28.2624 10.5,28.5C 14.0389,32.165 18.3722,33.3317 23.5,32C 26.4864,28.0995 25.8197,24.9328 21.5,22.5C 19.7496,21.1302 17.7496,20.1302 15.5,19.5C 11.3434,18.508 8.6767,16.008 7.5,12C 9.34714,7.06028 13.0138,4.56028 18.5,4.5 Z"/></g>
<g><path style="opacity:1" fill="#778e97" d="M 21.5,22.5 C 25.8197,24.9328 26.4864,28.0995 23.5,32C 18.3722,33.3317 14.0389,32.165 10.5,28.5C 12.9909,30.1677 15.1575,29.8344 17,27.5C 16.9227,28.7376 17.0894,29.7376 17.5,30.5C 19.7631,28.2538 21.0964,25.5871 21.5,22.5 Z"/></g>
<g><path style="opacity:1" fill="#9cb7c0" d="M 15.5,19.5 C 17.7496,20.1302 19.7496,21.1302 21.5,22.5C 21.0964,25.5871 19.7631,28.2538 17.5,30.5C 17.0894,29.7376 16.9227,28.7376 17,27.5C 15.1575,29.8344 12.9909,30.1677 10.5,28.5C 8.59565,28.2624 7.26231,27.2624 6.5,25.5C 11.8373,27.9092 14.8373,25.9092 15.5,19.5 Z"/></g>
</svg>
