<?xml version="1.0" encoding="UTF-8"?>
<!DOCTYPE svg PUBLIC "-//W3C//DTD SVG 1.1//EN" "http://www.w3.org/Graphics/SVG/1.1/DTD/svg11.dtd">
<svg xmlns="http://www.w3.org/2000/svg" version="1.1" width="40px" height="38px" style="shape-rendering:geometricPrecision; text-rendering:geometricPrecision; image-rendering:optimizeQuality; fill-rule:evenodd; clip-rule:evenodd" xmlns:xlink="http://www.w3.org/1999/xlink">
<g><path style="opacity:0.843" fill="#5282c0" d="M 10.5,-0.5 C 12.8333,-0.5 15.1667,-0.5 17.5,-0.5C 17.8417,0.338246 18.5084,0.67158 19.5,0.5C 19.5,1.16667 19.1667,1.5 18.5,1.5C 15.8127,1.33591 13.146,1.50258 10.5,2C 9.94404,2.38258 9.61071,2.88258 9.5,3.5C 8.84851,4.09065 8.18185,4.75731 7.5,5.5C 6.89333,5.37642 6.55999,5.04309 6.5,4.5C 7.13554,2.20537 8.46888,0.538701 10.5,-0.5 Z"/></g>
<g><path style="opacity:1" fill="#f8f6f9" d="M 18.5,1.5 C 20.7886,3.38729 23.4553,4.72062 26.5,5.5C 28.6068,7.72667 30.9401,9.72667 33.5,11.5C 35.7928,14.3046 37.4594,17.4713 38.5,21C 37.7977,22.8563 36.4643,24.023 34.5,24.5C 30.5357,24.5107 26.869,23.5107 23.5,21.5C 21.5368,20.1798 19.5368,18.8465 17.5,17.5C 14.6082,14.729 11.9416,11.729 9.5,8.5C 9.5,6.83333 9.5,5.16667 9.5,3.5C 9.61071,2.88258 9.94404,2.38258 10.5,2C 13.146,1.50258 15.8127,1.33591 18.5,1.5 Z"/></g>
<g><path style="opacity:0.776" fill="#878aa9" d="M 19.5,0.5 C 22.6963,1.92873 25.6963,3.5954 28.5,5.5C 27.8333,5.5 27.1667,5.5 26.5,5.5C 23.4553,4.72062 20.7886,3.38729 18.5,1.5C 19.1667,1.5 19.5,1.16667 19.5,0.5 Z"/></g>
<g><path style="opacity:0.875" fill="#9879a7" d="M 26.5,5.5 C 27.1667,5.5 27.8333,5.5 28.5,5.5C 31.4323,6.79973 33.7656,8.79973 35.5,11.5C 34.8333,11.5 34.1667,11.5 33.5,11.5C 30.9401,9.72667 28.6068,7.72667 26.5,5.5 Z"/></g>
<g><path style="opacity:0.973" fill="#8389a7" d="M 9.5,3.5 C 9.5,5.16667 9.5,6.83333 9.5,8.5C 6.05545,9.05994 3.05545,10.3933 0.5,12.5C 2.14675,9.52653 4.14675,6.85986 6.5,4.5C 6.55999,5.04309 6.89333,5.37642 7.5,5.5C 8.18185,4.75731 8.84851,4.09065 9.5,3.5 Z"/></g>
<g><path style="opacity:1" fill="#b578b0" d="M 26.5,11.5 C 24.1737,12.1447 22.507,13.478 21.5,15.5C 18.3182,13.8073 16.6516,11.1407 16.5,7.5C 20.567,7.20633 23.9003,8.53966 26.5,11.5 Z"/></g>
<g><path style="opacity:1" fill="#b072aa" d="M 9.5,8.5 C 11.9416,11.729 14.6082,14.729 17.5,17.5C 15.3393,17.8258 13.5059,18.8258 12,20.5C 11.6667,20.1667 11.3333,19.8333 11,19.5C 8.27988,20.2232 6.11321,21.7232 4.5,24C 4.72845,24.3988 5.06178,24.5654 5.5,24.5C 8.19379,27.8605 11.1938,30.8605 14.5,33.5C 7.80184,30.1352 2.80184,25.1352 -0.5,18.5C -0.5,16.5 -0.5,14.5 -0.5,12.5C -0.166667,12.5 0.166667,12.5 0.5,12.5C 3.05545,10.3933 6.05545,9.05994 9.5,8.5 Z"/></g>
<g><path style="opacity:1" fill="#c970aa" d="M 26.5,11.5 C 29.5177,12.855 30.851,15.1884 30.5,18.5C 26.9966,18.8711 23.9966,17.8711 21.5,15.5C 22.507,13.478 24.1737,12.1447 26.5,11.5 Z"/></g>
<g><path style="opacity:1" fill="#cd6aa6" d="M 17.5,17.5 C 19.5368,18.8465 21.5368,20.1798 23.5,21.5C 19.9929,20.9935 16.8263,21.6602 14,23.5C 12.0021,22.7286 10.3354,23.3952 9,25.5C 7.98873,24.6634 6.82207,24.33 5.5,24.5C 5.06178,24.5654 4.72845,24.3988 4.5,24C 6.11321,21.7232 8.27988,20.2232 11,19.5C 11.3333,19.8333 11.6667,20.1667 12,20.5C 13.5059,18.8258 15.3393,17.8258 17.5,17.5 Z"/></g>
<g><path style="opacity:1" fill="#b66da0" d="M 33.5,11.5 C 34.1667,11.5 34.8333,11.5 35.5,11.5C 36.8637,13.1911 38.197,14.8577 39.5,16.5C 39.5,19.1667 39.5,21.8333 39.5,24.5C 38.1667,25.8333 36.8333,27.1667 35.5,28.5C 35.5674,27.0413 35.2341,25.7079 34.5,24.5C 36.4643,24.023 37.7977,22.8563 38.5,21C 37.4594,17.4713 35.7928,14.3046 33.5,11.5 Z"/></g>
<g><path style="opacity:1" fill="#da63a1" d="M 23.5,21.5 C 26.869,23.5107 30.5357,24.5107 34.5,24.5C 35.2341,25.7079 35.5674,27.0413 35.5,28.5C 33.7376,29.2623 32.7376,30.5956 32.5,32.5C 32.6716,33.4916 32.3382,34.1583 31.5,34.5C 25.7505,35.862 20.0838,35.5287 14.5,33.5C 11.1938,30.8605 8.19379,27.8605 5.5,24.5C 6.82207,24.33 7.98873,24.6634 9,25.5C 10.3354,23.3952 12.0021,22.7286 14,23.5C 16.8263,21.6602 19.9929,20.9935 23.5,21.5 Z"/></g>
<g><path style="opacity:0.129" fill="#8d6595" d="M 35.5,28.5 C 35.2624,30.4044 34.2624,31.7377 32.5,32.5C 32.7376,30.5956 33.7376,29.2623 35.5,28.5 Z"/></g>
<g><path style="opacity:0.055" fill="#3c6ba7" d="M 11.5,37.5 C 13.1667,36.1667 14.8333,36.1667 16.5,37.5C 14.8333,37.5 13.1667,37.5 11.5,37.5 Z"/></g>
<g><path style="opacity:0.02" fill="#a6659e" d="M 14.5,33.5 C 20.0838,35.5287 25.7505,35.862 31.5,34.5C 30.6935,35.7281 29.6935,36.7281 28.5,37.5C 26.5,37.5 24.5,37.5 22.5,37.5C 19.5962,36.7148 16.9296,35.3815 14.5,33.5 Z"/></g>
</svg>
