<?xml version="1.0" encoding="UTF-8"?>
<!DOCTYPE svg PUBLIC "-//W3C//DTD SVG 1.1//EN" "http://www.w3.org/Graphics/SVG/1.1/DTD/svg11.dtd">
<svg xmlns="http://www.w3.org/2000/svg" version="1.1" width="276px" height="263px" style="shape-rendering:geometricPrecision; text-rendering:geometricPrecision; image-rendering:optimizeQuality; fill-rule:evenodd; clip-rule:evenodd" xmlns:xlink="http://www.w3.org/1999/xlink">
<g><path style="opacity:1" fill="#0765fe" d="M 164.5,31.5 C 165.848,32.1859 167.015,33.1859 168,34.5C 169.011,33.6634 170.178,33.33 171.5,33.5C 172.189,34.7072 172.355,36.0406 172,37.5C 174.245,35.2084 176.745,34.875 179.5,36.5C 184.855,38.5058 189.521,41.5058 193.5,45.5C 193.833,47.8333 195.167,49.1667 197.5,49.5C 197.738,51.4044 198.738,52.7377 200.5,53.5C 203.839,56.8349 206.172,60.8349 207.5,65.5C 208.962,70.3966 210.129,75.3966 211,80.5C 211.5,92.1619 211.667,103.829 211.5,115.5C 211.784,117.415 211.451,119.081 210.5,120.5C 209.806,117.579 208.973,114.579 208,111.5C 205.049,108.428 202.216,105.261 199.5,102C 194.614,99.0623 189.281,97.8957 183.5,98.5C 178.5,98.5 173.5,98.5 168.5,98.5C 166.833,98.5 165.167,98.5 163.5,98.5C 161.5,98.5 159.5,98.5 157.5,98.5C 154.833,98.5 152.167,98.5 149.5,98.5C 147.5,98.5 145.5,98.5 143.5,98.5C 134.494,98.3336 125.494,98.5002 116.5,99C 115.263,99.2321 114.263,99.7321 113.5,100.5C 110.008,100.446 107.008,101.446 104.5,103.5C 103.833,103.5 103.5,103.833 103.5,104.5C 99.9336,104.792 96.9336,106.126 94.5,108.5C 92.2512,109.08 90.5846,110.413 89.5,112.5C 85.5644,114.766 82.2311,117.766 79.5,121.5C 77.4131,122.585 76.0798,124.251 75.5,126.5C 69.1307,133.918 65.464,142.585 64.5,152.5C 63.5024,129.006 63.1691,105.339 63.5,81.5C 63.5,80.5 63.5,79.5 63.5,78.5C 65.5682,75.237 66.5682,71.5704 66.5,67.5C 67.3257,64.5152 68.659,61.8485 70.5,59.5C 71.9063,59.0269 72.573,58.0269 72.5,56.5C 74.2624,55.7377 75.2624,54.4044 75.5,52.5C 77.5869,51.4154 78.9202,49.7488 79.5,47.5C 81.7488,46.9202 83.4154,45.5869 84.5,43.5C 88.0972,42.2085 91.0972,40.2085 93.5,37.5C 94.5137,36.3263 95.847,35.6596 97.5,35.5C 102.176,34.9392 106.509,33.6059 110.5,31.5C 128.47,30.1786 146.47,30.1786 164.5,31.5 Z"/></g>
<g><path style="opacity:1" fill="#6e9bfa" d="M 164.5,31.5 C 167.152,31.4095 169.485,32.0762 171.5,33.5C 170.178,33.33 169.011,33.6634 168,34.5C 167.015,33.1859 165.848,32.1859 164.5,31.5 Z"/></g>
<g><path style="opacity:0.851" fill="#6194f2" d="M 110.5,31.5 C 106.509,33.6059 102.176,34.9392 97.5,35.5C 101.502,33.3902 105.835,32.0569 110.5,31.5 Z"/></g>
<g><path style="opacity:1" fill="#5380f5" d="M 171.5,33.5 C 174.542,33.7329 177.208,34.7329 179.5,36.5C 176.745,34.875 174.245,35.2084 172,37.5C 172.355,36.0406 172.189,34.7072 171.5,33.5 Z"/></g>
<g><path style="opacity:0.694" fill="#6e98f3" d="M 93.5,37.5 C 91.0972,40.2085 88.0972,42.2085 84.5,43.5C 86.9505,40.7232 89.9505,38.7232 93.5,37.5 Z"/></g>
<g><path style="opacity:0.675" fill="#85adf5" d="M 84.5,43.5 C 83.4154,45.5869 81.7488,46.9202 79.5,47.5C 80.5846,45.4131 82.2512,44.0798 84.5,43.5 Z"/></g>
<g><path style="opacity:0.82" fill="#72a5f7" d="M 193.5,45.5 C 195.167,46.5 196.5,47.8333 197.5,49.5C 195.167,49.1667 193.833,47.8333 193.5,45.5 Z"/></g>
<g><path style="opacity:0.561" fill="#94b6f3" d="M 79.5,47.5 C 78.9202,49.7488 77.5869,51.4154 75.5,52.5C 76.0798,50.2512 77.4131,48.5846 79.5,47.5 Z"/></g>
<g><path style="opacity:0.702" fill="#83b1f0" d="M 197.5,49.5 C 199.262,50.2623 200.262,51.5956 200.5,53.5C 198.738,52.7377 197.738,51.4044 197.5,49.5 Z"/></g>
<g><path style="opacity:0.824" fill="#74a4f4" d="M 75.5,52.5 C 75.2624,54.4044 74.2624,55.7377 72.5,56.5C 72.7376,54.5956 73.7376,53.2623 75.5,52.5 Z"/></g>
<g><path style="opacity:0.369" fill="#8eb7f4" d="M 72.5,56.5 C 72.573,58.0269 71.9063,59.0269 70.5,59.5C 70.427,57.9731 71.0937,56.9731 72.5,56.5 Z"/></g>
<g><path style="opacity:0.933" fill="#77a4f2" d="M 66.5,67.5 C 66.5682,71.5704 65.5682,75.237 63.5,78.5C 63.9257,74.5732 64.9257,70.9065 66.5,67.5 Z"/></g>
<g><path style="opacity:0.314" fill="#83b1fd" d="M 63.5,81.5 C 63.1691,105.339 63.5024,129.006 64.5,152.5C 64.6567,153.873 64.49,155.207 64,156.5C 63.7216,155.584 63.2216,154.918 62.5,154.5C 62.169,129.994 62.5024,105.661 63.5,81.5 Z"/></g>
<g><path style="opacity:0.671" fill="#5a99fa" d="M 207.5,65.5 C 209.865,69.4239 211.365,73.7573 212,78.5C 212.5,87.8274 212.666,97.1607 212.5,106.5C 212.81,109.713 212.477,112.713 211.5,115.5C 211.667,103.829 211.5,92.1619 211,80.5C 210.129,75.3966 208.962,70.3966 207.5,65.5 Z"/></g>
<g><path style="opacity:1" fill="#168cf6" d="M 157.5,98.5 C 159.5,98.5 161.5,98.5 163.5,98.5C 164.572,101.63 166.406,104.296 169,106.5C 170.656,110.963 172.489,115.296 174.5,119.5C 175.5,119.5 176.5,119.5 177.5,119.5C 178.167,122.167 178.833,124.833 179.5,127.5C 180.833,127.5 182.167,127.5 183.5,127.5C 185.17,132.477 187.003,137.477 189,142.5C 189.654,143.696 190.154,143.696 190.5,142.5C 189.091,137.714 189.758,137.38 192.5,141.5C 193.086,141.291 193.586,140.957 194,140.5C 194.333,141.833 194.667,143.167 195,144.5C 195.671,145.252 196.504,145.586 197.5,145.5C 196.766,146.708 196.433,148.041 196.5,149.5C 195.041,149.433 193.708,149.766 192.5,150.5C 189.645,150.158 188.145,148.491 188,145.5C 186.316,143.649 184.483,141.982 182.5,140.5C 181.114,136.142 179.448,131.809 177.5,127.5C 176.5,127.5 175.5,127.5 174.5,127.5C 169.244,117.581 163.577,107.914 157.5,98.5 Z"/></g>
<g><path style="opacity:1" fill="#1386f7" d="M 163.5,98.5 C 165.167,98.5 166.833,98.5 168.5,98.5C 171.595,101.12 173.761,104.454 175,108.5C 175.667,109.833 176.333,109.833 177,108.5C 177.687,110.555 178.854,112.221 180.5,113.5C 181.259,116.157 181.926,118.823 182.5,121.5C 184.49,122.498 186.49,123.498 188.5,124.5C 189.386,125.325 189.719,126.325 189.5,127.5C 191.5,127.5 193.5,127.5 195.5,127.5C 195.657,128.873 195.49,130.207 195,131.5C 194.667,131.167 194.333,130.833 194,130.5C 191.728,133.489 192.561,134.822 196.5,134.5C 196.52,143.741 197.186,143.741 198.5,134.5C 199.167,136.5 199.833,138.5 200.5,140.5C 201.72,140.113 202.387,139.28 202.5,138C 201.355,135.801 201.355,133.635 202.5,131.5C 204.712,132.089 206.712,131.423 208.5,129.5C 206.384,135.941 202.718,141.274 197.5,145.5C 196.504,145.586 195.671,145.252 195,144.5C 194.667,143.167 194.333,141.833 194,140.5C 193.586,140.957 193.086,141.291 192.5,141.5C 189.758,137.38 189.091,137.714 190.5,142.5C 190.154,143.696 189.654,143.696 189,142.5C 187.003,137.477 185.17,132.477 183.5,127.5C 182.167,127.5 180.833,127.5 179.5,127.5C 178.833,124.833 178.167,122.167 177.5,119.5C 176.5,119.5 175.5,119.5 174.5,119.5C 172.489,115.296 170.656,110.963 169,106.5C 166.406,104.296 164.572,101.63 163.5,98.5 Z"/></g>
<g><path style="opacity:1" fill="#22a3f1" d="M 143.5,98.5 C 142.722,99.1556 142.056,99.9889 141.5,101C 144.011,101.707 146.511,103.207 149,105.5C 149.497,107.81 149.663,110.143 149.5,112.5C 150.5,112.5 151.5,112.5 152.5,112.5C 154.928,118.56 158.094,124.227 162,129.5C 160.913,134.802 163.079,138.302 168.5,140C 167.833,140.333 167.167,140.667 166.5,141C 170.737,142.156 172.737,144.99 172.5,149.5C 176.481,149.985 178.648,152.319 179,156.5C 180.011,157.337 181.178,157.67 182.5,157.5C 180.314,158.27 178.148,159.27 176,160.5C 175.5,160.167 175,159.833 174.5,159.5C 175.5,158.667 176.5,157.833 177.5,157C 174.158,157.544 170.825,157.377 167.5,156.5C 162.635,151.408 158.802,145.742 156,139.5C 151.605,137.187 149.105,133.52 148.5,128.5C 147.675,127.614 146.675,127.281 145.5,127.5C 141.747,117.972 137.081,109.305 131.5,101.5C 129.283,100.428 126.95,99.7611 124.5,99.5C 120.868,100.246 117.202,100.579 113.5,100.5C 114.263,99.7321 115.263,99.2321 116.5,99C 125.494,98.5002 134.494,98.3336 143.5,98.5 Z"/></g>
<g><path style="opacity:1" fill="#35c3e9" d="M 103.5,104.5 C 104.675,104.281 105.675,104.614 106.5,105.5C 107.635,107.799 108.968,109.966 110.5,112C 110.167,112.333 109.833,112.667 109.5,113C 111.004,114.491 111.837,116.324 112,118.5C 116.005,119.994 117.672,122.66 117,126.5C 122.606,131.438 126.606,137.438 129,144.5C 133.009,148.519 136.009,153.185 138,158.5C 138.317,156.699 138.984,156.366 140,157.5C 139.097,162.023 140.93,164.69 145.5,165.5C 143.167,165.5 140.833,165.5 138.5,165.5C 136.215,163.882 134.215,161.882 132.5,159.5C 131.289,158.28 131.289,157.113 132.5,156C 131.437,154.812 130.103,154.312 128.5,154.5C 129.153,150.134 127.486,147.134 123.5,145.5C 122.174,141.338 119.841,137.838 116.5,135C 116.957,134.586 117.291,134.086 117.5,133.5C 116.066,132.77 114.9,131.77 114,130.5C 114.006,128.702 114.339,127.035 115,125.5C 114.667,125.833 114.333,126.167 114,126.5C 110.771,123.057 107.771,119.39 105,115.5C 104.405,114.101 104.572,112.768 105.5,111.5C 102.623,107.591 98.9559,106.591 94.5,108.5C 96.9336,106.126 99.9336,104.792 103.5,104.5 Z"/></g>
<g><path style="opacity:1" fill="#0e7df9" d="M 168.5,98.5 C 173.5,98.5 178.5,98.5 183.5,98.5C 185.382,99.7512 187.382,100.918 189.5,102C 188.833,102.333 188.167,102.667 187.5,103C 190.323,106.689 193.49,110.189 197,113.5C 198.31,118.124 200.644,122.124 204,125.5C 204.333,124.5 204.667,123.5 205,122.5C 205.667,124.5 206.333,126.5 207,128.5C 207.383,127.944 207.883,127.611 208.5,127.5C 208.5,128.167 208.5,128.833 208.5,129.5C 206.712,131.423 204.712,132.089 202.5,131.5C 201.355,133.635 201.355,135.801 202.5,138C 202.387,139.28 201.72,140.113 200.5,140.5C 199.833,138.5 199.167,136.5 198.5,134.5C 197.186,143.741 196.52,143.741 196.5,134.5C 192.561,134.822 191.728,133.489 194,130.5C 194.333,130.833 194.667,131.167 195,131.5C 195.49,130.207 195.657,128.873 195.5,127.5C 193.5,127.5 191.5,127.5 189.5,127.5C 189.719,126.325 189.386,125.325 188.5,124.5C 186.49,123.498 184.49,122.498 182.5,121.5C 181.926,118.823 181.259,116.157 180.5,113.5C 178.854,112.221 177.687,110.555 177,108.5C 176.333,109.833 175.667,109.833 175,108.5C 173.761,104.454 171.595,101.12 168.5,98.5 Z"/></g>
<g><path style="opacity:1" fill="#27abef" d="M 182.5,157.5 C 183.391,156.89 184.391,156.557 185.5,156.5C 185.047,157.458 184.381,158.292 183.5,159C 178.376,161.115 173.043,162.615 167.5,163.5C 166.022,163.762 164.689,163.429 163.5,162.5C 160.244,156.802 157.744,151.136 156,145.5C 155.259,146.641 154.425,146.641 153.5,145.5C 151.037,142.072 148.704,138.572 146.5,135C 141.312,134.924 139.645,132.591 141.5,128C 141.451,124.947 140.118,122.614 137.5,121C 137.905,120.055 138.572,119.388 139.5,119C 137.699,118.683 137.366,118.016 138.5,117C 137.146,115.706 135.812,115.54 134.5,116.5C 132.807,114.973 130.973,113.64 129,112.5C 128.667,112.833 128.333,113.167 128,113.5C 127.57,110.808 127.737,108.141 128.5,105.5C 125.432,105.453 122.432,104.953 119.5,104C 120.738,103.31 120.738,102.81 119.5,102.5C 114.587,101.58 109.587,101.913 104.5,103.5C 107.008,101.446 110.008,100.446 113.5,100.5C 117.202,100.579 120.868,100.246 124.5,99.5C 126.95,99.7611 129.283,100.428 131.5,101.5C 137.081,109.305 141.747,117.972 145.5,127.5C 146.675,127.281 147.675,127.614 148.5,128.5C 149.105,133.52 151.605,137.187 156,139.5C 158.802,145.742 162.635,151.408 167.5,156.5C 170.825,157.377 174.158,157.544 177.5,157C 176.5,157.833 175.5,158.667 174.5,159.5C 175,159.833 175.5,160.167 176,160.5C 178.148,159.27 180.314,158.27 182.5,157.5 Z"/></g>
<g><path style="opacity:1" fill="#0671fc" d="M 183.5,98.5 C 189.281,97.8957 194.614,99.0623 199.5,102C 202.216,105.261 205.049,108.428 208,111.5C 208.973,114.579 209.806,117.579 210.5,120.5C 210.279,123.067 209.612,125.401 208.5,127.5C 207.883,127.611 207.383,127.944 207,128.5C 206.333,126.5 205.667,124.5 205,122.5C 204.667,123.5 204.333,124.5 204,125.5C 200.644,122.124 198.31,118.124 197,113.5C 193.49,110.189 190.323,106.689 187.5,103C 188.167,102.667 188.833,102.333 189.5,102C 187.382,100.918 185.382,99.7512 183.5,98.5 Z"/></g>
<g><path style="opacity:1" fill="#1892f4" d="M 149.5,98.5 C 152.167,98.5 154.833,98.5 157.5,98.5C 163.577,107.914 169.244,117.581 174.5,127.5C 175.5,127.5 176.5,127.5 177.5,127.5C 179.448,131.809 181.114,136.142 182.5,140.5C 184.483,141.982 186.316,143.649 188,145.5C 188.145,148.491 189.645,150.158 192.5,150.5C 191.147,152.738 189.147,154.071 186.5,154.5C 184.952,154.179 184.285,153.179 184.5,151.5C 183.448,151.649 182.448,151.483 181.5,151C 182.949,149.883 184.616,149.216 186.5,149C 182.701,143.701 178.368,138.867 173.5,134.5C 171.682,128.733 169.015,123.399 165.5,118.5C 163.639,117.472 162.305,115.972 161.5,114C 159.655,112.872 157.655,112.372 155.5,112.5C 157.477,105.444 154.977,102.11 148,102.5C 147.308,101.975 146.808,101.308 146.5,100.5C 147.602,99.8243 148.602,99.1577 149.5,98.5 Z"/></g>
<g><path style="opacity:1" fill="#3fd2e6" d="M 212.5,106.5 C 242.665,127.153 252.498,155.153 242,190.5C 231.333,214.826 212.833,228.993 186.5,233C 165.167,233.667 143.833,233.667 122.5,233C 97.3911,228.86 79.2244,215.36 68,192.5C 63.2417,180.28 61.4083,167.614 62.5,154.5C 63.2216,154.918 63.7216,155.584 64,156.5C 64.49,155.207 64.6567,153.873 64.5,152.5C 65.464,142.585 69.1307,133.918 75.5,126.5C 77.5869,125.415 78.9202,123.749 79.5,121.5C 82.2311,117.766 85.5644,114.766 89.5,112.5C 91.0443,112.297 92.3777,111.63 93.5,110.5C 94.5237,111.853 95.857,112.52 97.5,112.5C 97.4708,115.753 98.6375,118.419 101,120.5C 101.497,122.81 101.663,125.143 101.5,127.5C 103.5,127.5 105.5,127.5 107.5,127.5C 106.341,128.772 105.341,130.772 104.5,133.5C 107.252,133.998 109.585,135.164 111.5,137C 111.94,140.986 112.273,145.153 112.5,149.5C 114.467,149.739 116.301,149.406 118,148.5C 119.167,150.167 120.333,151.833 121.5,153.5C 120.833,154.167 120.167,154.833 119.5,155.5C 121.686,156.221 123.853,156.887 126,157.5C 126.495,159.473 126.662,161.473 126.5,163.5C 130.37,164.799 134.37,165.466 138.5,165.5C 140.833,165.5 143.167,165.5 145.5,165.5C 153.019,165.825 160.352,165.492 167.5,164.5C 167.5,164.167 167.5,163.833 167.5,163.5C 173.043,162.615 178.376,161.115 183.5,159C 184.381,158.292 185.047,157.458 185.5,156.5C 186.338,156.158 186.672,155.492 186.5,154.5C 189.147,154.071 191.147,152.738 192.5,150.5C 193.708,149.766 195.041,149.433 196.5,149.5C 196.433,148.041 196.766,146.708 197.5,145.5C 202.718,141.274 206.384,135.941 208.5,129.5C 208.5,128.833 208.5,128.167 208.5,127.5C 209.612,125.401 210.279,123.067 210.5,120.5C 211.451,119.081 211.784,117.415 211.5,115.5C 212.477,112.713 212.81,109.713 212.5,106.5 Z"/></g>
<g><path style="opacity:1" fill="#1c98f3" d="M 143.5,98.5 C 145.5,98.5 147.5,98.5 149.5,98.5C 148.602,99.1577 147.602,99.8243 146.5,100.5C 146.808,101.308 147.308,101.975 148,102.5C 154.977,102.11 157.477,105.444 155.5,112.5C 157.655,112.372 159.655,112.872 161.5,114C 162.305,115.972 163.639,117.472 165.5,118.5C 169.015,123.399 171.682,128.733 173.5,134.5C 178.368,138.867 182.701,143.701 186.5,149C 184.616,149.216 182.949,149.883 181.5,151C 182.448,151.483 183.448,151.649 184.5,151.5C 184.285,153.179 184.952,154.179 186.5,154.5C 186.672,155.492 186.338,156.158 185.5,156.5C 184.391,156.557 183.391,156.89 182.5,157.5C 181.178,157.67 180.011,157.337 179,156.5C 178.648,152.319 176.481,149.985 172.5,149.5C 172.737,144.99 170.737,142.156 166.5,141C 167.167,140.667 167.833,140.333 168.5,140C 163.079,138.302 160.913,134.802 162,129.5C 158.094,124.227 154.928,118.56 152.5,112.5C 151.5,112.5 150.5,112.5 149.5,112.5C 149.663,110.143 149.497,107.81 149,105.5C 146.511,103.207 144.011,101.707 141.5,101C 142.056,99.9889 142.722,99.1556 143.5,98.5 Z"/></g>
<g><path style="opacity:1" fill="#2ea9f1" d="M 79.5,121.5 C 78.9202,123.749 77.5869,125.415 75.5,126.5C 76.0798,124.251 77.4131,122.585 79.5,121.5 Z"/></g>
<g><path style="opacity:1" fill="#2fbceb" d="M 119.5,102.5 C 116.269,103.098 115.936,104.264 118.5,106C 118.167,106.333 117.833,106.667 117.5,107C 120.087,109.756 123.087,111.923 126.5,113.5C 126.4,116.065 126.9,118.732 128,121.5C 129.074,122.618 130.24,123.618 131.5,124.5C 131.167,125.167 130.833,125.833 130.5,126.5C 132.396,127.466 134.396,127.799 136.5,127.5C 139.702,134.911 142.702,142.244 145.5,149.5C 147.359,149.461 148.692,150.294 149.5,152C 149.384,153.268 149.051,154.602 148.5,156C 150.81,156.497 153.143,156.663 155.5,156.5C 155.318,158.591 155.652,160.591 156.5,162.5C 155.011,162.533 153.678,163.033 152.5,164C 157.489,164.499 162.489,164.666 167.5,164.5C 160.352,165.492 153.019,165.825 145.5,165.5C 140.93,164.69 139.097,162.023 140,157.5C 138.984,156.366 138.317,156.699 138,158.5C 136.009,153.185 133.009,148.519 129,144.5C 126.606,137.438 122.606,131.438 117,126.5C 117.672,122.66 116.005,119.994 112,118.5C 111.837,116.324 111.004,114.491 109.5,113C 109.833,112.667 110.167,112.333 110.5,112C 108.968,109.966 107.635,107.799 106.5,105.5C 105.675,104.614 104.675,104.281 103.5,104.5C 103.5,103.833 103.833,103.5 104.5,103.5C 109.587,101.913 114.587,101.58 119.5,102.5 Z"/></g>
<g><path style="opacity:1" fill="#29b2ed" d="M 119.5,102.5 C 120.738,102.81 120.738,103.31 119.5,104C 122.432,104.953 125.432,105.453 128.5,105.5C 127.737,108.141 127.57,110.808 128,113.5C 128.333,113.167 128.667,112.833 129,112.5C 130.973,113.64 132.807,114.973 134.5,116.5C 135.812,115.54 137.146,115.706 138.5,117C 137.366,118.016 137.699,118.683 139.5,119C 138.572,119.388 137.905,120.055 137.5,121C 140.118,122.614 141.451,124.947 141.5,128C 139.645,132.591 141.312,134.924 146.5,135C 148.704,138.572 151.037,142.072 153.5,145.5C 154.425,146.641 155.259,146.641 156,145.5C 157.744,151.136 160.244,156.802 163.5,162.5C 164.689,163.429 166.022,163.762 167.5,163.5C 167.5,163.833 167.5,164.167 167.5,164.5C 162.489,164.666 157.489,164.499 152.5,164C 153.678,163.033 155.011,162.533 156.5,162.5C 155.652,160.591 155.318,158.591 155.5,156.5C 153.143,156.663 150.81,156.497 148.5,156C 149.051,154.602 149.384,153.268 149.5,152C 148.692,150.294 147.359,149.461 145.5,149.5C 142.702,142.244 139.702,134.911 136.5,127.5C 134.396,127.799 132.396,127.466 130.5,126.5C 130.833,125.833 131.167,125.167 131.5,124.5C 130.24,123.618 129.074,122.618 128,121.5C 126.9,118.732 126.4,116.065 126.5,113.5C 123.087,111.923 120.087,109.756 117.5,107C 117.833,106.667 118.167,106.333 118.5,106C 115.936,104.264 116.269,103.098 119.5,102.5 Z"/></g>
<g><path style="opacity:1" fill="#39cbe7" d="M 138.5,165.5 C 134.37,165.466 130.37,164.799 126.5,163.5C 126.662,161.473 126.495,159.473 126,157.5C 123.853,156.887 121.686,156.221 119.5,155.5C 120.167,154.833 120.833,154.167 121.5,153.5C 120.333,151.833 119.167,150.167 118,148.5C 116.301,149.406 114.467,149.739 112.5,149.5C 112.273,145.153 111.94,140.986 111.5,137C 109.585,135.164 107.252,133.998 104.5,133.5C 105.341,130.772 106.341,128.772 107.5,127.5C 105.5,127.5 103.5,127.5 101.5,127.5C 101.663,125.143 101.497,122.81 101,120.5C 98.6375,118.419 97.4708,115.753 97.5,112.5C 95.857,112.52 94.5237,111.853 93.5,110.5C 92.3777,111.63 91.0443,112.297 89.5,112.5C 90.5846,110.413 92.2512,109.08 94.5,108.5C 98.9559,106.591 102.623,107.591 105.5,111.5C 104.572,112.768 104.405,114.101 105,115.5C 107.771,119.39 110.771,123.057 114,126.5C 114.333,126.167 114.667,125.833 115,125.5C 114.339,127.035 114.006,128.702 114,130.5C 114.9,131.77 116.066,132.77 117.5,133.5C 117.291,134.086 116.957,134.586 116.5,135C 119.841,137.838 122.174,141.338 123.5,145.5C 127.486,147.134 129.153,150.134 128.5,154.5C 130.103,154.312 131.437,154.812 132.5,156C 131.289,157.113 131.289,158.28 132.5,159.5C 134.215,161.882 136.215,163.882 138.5,165.5 Z"/></g>
</svg>
