<?xml version="1.0" encoding="UTF-8"?>
<!DOCTYPE svg PUBLIC "-//W3C//DTD SVG 1.1//EN" "http://www.w3.org/Graphics/SVG/1.1/DTD/svg11.dtd">
<svg xmlns="http://www.w3.org/2000/svg" version="1.1" width="40px" height="40px" style="shape-rendering:geometricPrecision; text-rendering:geometricPrecision; image-rendering:optimizeQuality; fill-rule:evenodd; clip-rule:evenodd" xmlns:xlink="http://www.w3.org/1999/xlink">
<g><path style="opacity:0.082" fill="#fe0078" d="M 2.5,-0.5 C 2.83333,-0.5 3.16667,-0.5 3.5,-0.5C 3.5,-0.166667 3.5,0.166667 3.5,0.5C 3.16667,0.166667 2.83333,-0.166667 2.5,-0.5 Z"/></g>
<g><path style="opacity:0.314" fill="#ff0078" d="M 3.5,0.5 C 4.90632,0.973056 5.57298,1.97306 5.5,3.5C 4.09368,3.02694 3.42702,2.02694 3.5,0.5 Z"/></g>
<g><path style="opacity:0.569" fill="#fe0078" d="M 5.5,3.5 C 6.16667,3.5 6.5,3.83333 6.5,4.5C 6.16667,4.16667 5.83333,3.83333 5.5,3.5 Z"/></g>
<g><path style="opacity:0.749" fill="#fe0079" d="M 6.5,4.5 C 7.16667,4.5 7.5,4.83333 7.5,5.5C 7.16667,5.16667 6.83333,4.83333 6.5,4.5 Z"/></g>
<g><path style="opacity:0.723" fill="#ff0079" d="M 7.5,5.5 C 9.79663,7.29413 11.9633,9.29413 14,11.5C 14.49,10.2068 14.6567,8.87344 14.5,7.5C 15.791,7.26269 16.791,7.59603 17.5,8.5C 17.5,8.83333 17.5,9.16667 17.5,9.5C 17.5191,11.0603 17.8524,12.5603 18.5,14C 17.0678,14.0822 16.0678,15.2489 15.5,17.5C 14.325,17.281 13.325,17.6143 12.5,18.5C 11.7349,20.2951 11.0682,22.1284 10.5,24C 12.2956,25.7534 13.4623,27.92 14,30.5C 19.4076,26.9445 22.9076,28.2779 24.5,34.5C 28.3347,36.1632 28.0014,36.6632 23.5,36C 22.7894,34.7453 21.956,33.5786 21,32.5C 20.5814,33.6721 19.9147,34.6721 19,35.5C 16.1593,32.3908 12.826,31.3908 9,32.5C 6.63211,30.3156 5.96544,27.6489 7,24.5C 9.3942,20.9674 10.7275,17.3007 11,13.5C 11.8373,15.0074 13.0039,15.5074 14.5,15C 11.9245,11.9372 9.59116,8.77054 7.5,5.5 Z"/></g>
<g><path style="opacity:0.767" fill="#ff007a" d="M 17.5,9.5 C 17.5,9.16667 17.5,8.83333 17.5,8.5C 20.511,9.86826 23.6777,10.8683 27,11.5C 29.2885,9.1868 30.7885,9.85347 31.5,13.5C 30.1667,13.8333 30.1667,14.1667 31.5,14.5C 32.6843,15.6879 32.6843,16.8545 31.5,18C 33.5938,19.255 34.5938,21.0884 34.5,23.5C 34.0643,26.1786 33.5643,28.8453 33,31.5C 32.5831,32.756 31.7498,33.4226 30.5,33.5C 30.2378,30.309 28.9045,27.6423 26.5,25.5C 24.1329,27.3952 21.4663,27.8952 18.5,27C 22.7127,26.9084 25.3794,24.9084 26.5,21C 23.9057,19.661 22.4057,17.4944 22,14.5C 20.9509,12.3825 19.4509,10.7158 17.5,9.5 Z"/></g>
<g><path style="opacity:0.035" fill="#fe007c" d="M 31.5,13.5 C 32.8333,14.1667 32.8333,14.1667 31.5,13.5 Z"/></g>
<g><path style="opacity:0.643" fill="#ff007a" d="M 15.5,17.5 C 16.5,17.5 17.5,17.5 18.5,17.5C 18.5,18.5 18.5,19.5 18.5,20.5C 17.5,20.5 16.5,20.5 15.5,20.5C 15.5,19.5 15.5,18.5 15.5,17.5 Z"/></g>
<g><path style="opacity:0.125" fill="#fe0078" d="M 30.5,33.5 C 29.8333,34.1667 29.8333,34.1667 30.5,33.5 Z"/></g>
</svg>
