<?xml version="1.0" encoding="UTF-8"?>
<!DOCTYPE svg PUBLIC "-//W3C//DTD SVG 1.1//EN" "http://www.w3.org/Graphics/SVG/1.1/DTD/svg11.dtd">
<svg xmlns="http://www.w3.org/2000/svg" version="1.1" width="787px" height="682px" style="shape-rendering:geometricPrecision; text-rendering:geometricPrecision; image-rendering:optimizeQuality; fill-rule:evenodd; clip-rule:evenodd" xmlns:xlink="http://www.w3.org/1999/xlink">
<g><path style="opacity:0.982" fill="#00e8c9" d="M -0.5,-0.5 C 40.1667,-0.5 80.8333,-0.5 121.5,-0.5C 133.569,9.39402 145.235,19.894 156.5,31C 235.333,107.167 314.167,183.333 393,259.5C 481.083,172.583 569.249,85.916 657.5,-0.5C 700.5,-0.5 743.5,-0.5 786.5,-0.5C 786.5,0.166667 786.5,0.833333 786.5,1.5C 655.515,228.131 524.515,454.798 393.5,681.5C 392.833,681.5 392.167,681.5 391.5,681.5C 261.254,455.396 130.587,229.062 -0.5,2.5C -0.5,1.5 -0.5,0.5 -0.5,-0.5 Z M 193.5,151.5 C 259.941,188.89 326.274,226.556 392.5,264.5C 458.555,227.143 524.555,189.809 590.5,152.5C 589.972,153.721 589.305,154.887 588.5,156C 588.833,156.333 589.167,156.667 589.5,157C 586.5,161.333 583.5,165.667 580.5,170C 580.833,170.333 581.167,170.667 581.5,171C 579.167,174 576.833,177 574.5,180C 574.5,181 574.5,182 574.5,183C 571.096,186.645 568.429,190.311 566.5,194C 567.634,195.016 567.301,195.683 565.5,196C 565.833,196.333 566.167,196.667 566.5,197C 564.132,199.969 561.799,202.969 559.5,206C 559.5,207 559.5,208 559.5,209C 557.659,210.866 555.992,212.866 554.5,215C 504.449,303.318 450.616,397.151 393,496.5C 325.983,381.8 259.483,266.8 193.5,151.5 Z"/></g>
</svg>
