<?xml version="1.0" encoding="UTF-8"?>
<!DOCTYPE svg PUBLIC "-//W3C//DTD SVG 1.1//EN" "http://www.w3.org/Graphics/SVG/1.1/DTD/svg11.dtd">
<svg xmlns="http://www.w3.org/2000/svg" version="1.1" width="40px" height="40px" style="shape-rendering:geometricPrecision; text-rendering:geometricPrecision; image-rendering:optimizeQuality; fill-rule:evenodd; clip-rule:evenodd" xmlns:xlink="http://www.w3.org/1999/xlink">
<g><path style="opacity:0.722" fill="#91d2b9" d="M 25.5,-0.5 C 26.1667,-0.5 26.8333,-0.5 27.5,-0.5C 27.0679,0.709515 26.4013,1.70951 25.5,2.5C 24.8333,2.5 24.5,2.83333 24.5,3.5C 23.8333,3.5 23.1667,3.5 22.5,3.5C 23.5,2.16667 24.5,0.833333 25.5,-0.5 Z"/></g>
<g><path style="opacity:0.412" fill="#2eb17d" d="M 25.5,2.5 C 26.2614,4.25923 25.9281,5.92589 24.5,7.5C 24.1667,7.5 23.8333,7.5 23.5,7.5C 23.4326,6.04125 23.7659,4.70792 24.5,3.5C 24.5,2.83333 24.8333,2.5 25.5,2.5 Z"/></g>
<g><path style="opacity:0.82" fill="#38d8ab" d="M 22.5,3.5 C 23.1667,3.5 23.8333,3.5 24.5,3.5C 23.7659,4.70792 23.4326,6.04125 23.5,7.5C 22.1429,8.59026 21.1429,9.92359 20.5,11.5C 20.5,11.1667 20.5,10.8333 20.5,10.5C 20.8782,8.07905 21.5448,5.74571 22.5,3.5 Z"/></g>
<g><path style="opacity:1" fill="#6ae0c1" d="M 22.5,3.5 C 21.5448,5.74571 20.8782,8.07905 20.5,10.5C 20.1667,10.5 19.8333,10.5 19.5,10.5C 19.1667,9.83333 18.8333,9.16667 18.5,8.5C 19.604,6.61145 20.9373,4.94478 22.5,3.5 Z"/></g>
<g><path style="opacity:1" fill="#6ae0cd" d="M 18.5,8.5 C 18.8333,9.16667 19.1667,9.83333 19.5,10.5C 18.7515,12.3325 17.7515,13.9991 16.5,15.5C 16.1667,15.5 15.8333,15.5 15.5,15.5C 15.5,15.1667 15.5,14.8333 15.5,14.5C 16.1408,13.5178 16.8075,12.5178 17.5,11.5C 17.3764,10.8933 17.0431,10.56 16.5,10.5C 16.8333,9.5 17.5,8.83333 18.5,8.5 Z"/></g>
<g><path style="opacity:0.51" fill="#30c88b" d="M 23.5,7.5 C 23.8333,7.5 24.1667,7.5 24.5,7.5C 23.871,10.3973 22.871,13.064 21.5,15.5C 20.8333,15.1667 20.1667,14.8333 19.5,14.5C 20.1098,13.609 20.4431,12.609 20.5,11.5C 21.1429,9.92359 22.1429,8.59026 23.5,7.5 Z"/></g>
<g><path style="opacity:1" fill="#71dac3" d="M 16.5,10.5 C 17.0431,10.56 17.3764,10.8933 17.5,11.5C 16.8075,12.5178 16.1408,13.5178 15.5,14.5C 14.5,14.5 13.5,14.5 12.5,14.5C 13.5,12.8333 14.8333,11.5 16.5,10.5 Z"/></g>
<g><path style="opacity:0.98" fill="#30d9c0" d="M 19.5,10.5 C 19.8333,10.5 20.1667,10.5 20.5,10.5C 20.5,10.8333 20.5,11.1667 20.5,11.5C 20.4431,12.609 20.1098,13.609 19.5,14.5C 18.8902,15.391 18.5569,16.391 18.5,17.5C 17.8333,16.8333 17.1667,16.1667 16.5,15.5C 17.7515,13.9991 18.7515,12.3325 19.5,10.5 Z"/></g>
<g><path style="opacity:0.59" fill="#32d292" d="M 19.5,14.5 C 20.1667,14.8333 20.8333,15.1667 21.5,15.5C 21.5,16.1667 21.5,16.8333 21.5,17.5C 21.1667,17.5 20.8333,17.5 20.5,17.5C 19.8333,17.5 19.1667,17.5 18.5,17.5C 18.5569,16.391 18.8902,15.391 19.5,14.5 Z"/></g>
<g><path style="opacity:1" fill="#36dec9" d="M 15.5,15.5 C 15.8333,15.5 16.1667,15.5 16.5,15.5C 17.1667,16.1667 17.8333,16.8333 18.5,17.5C 19.1667,17.5 19.8333,17.5 20.5,17.5C 20.5,17.8333 20.5,18.1667 20.5,18.5C 19.325,18.281 18.325,18.6143 17.5,19.5C 19.396,20.4656 21.396,20.7989 23.5,20.5C 23.5,21.1667 23.5,21.8333 23.5,22.5C 22.8333,23.1667 22.1667,23.8333 21.5,24.5C 21.5,24.1667 21.5,23.8333 21.5,23.5C 21.5,23.1667 21.5,22.8333 21.5,22.5C 18.7131,21.5233 15.7131,21.19 12.5,21.5C 12.5,20.8333 12.1667,20.5 11.5,20.5C 11.5,20.1667 11.5,19.8333 11.5,19.5C 14.142,19.5123 15.4754,18.179 15.5,15.5 Z"/></g>
<g><path style="opacity:0.165" fill="#91cdc2" d="M 20.5,18.5 C 20.5,18.1667 20.5,17.8333 20.5,17.5C 20.8333,17.5 21.1667,17.5 21.5,17.5C 25.226,17.1774 28.8927,17.5108 32.5,18.5C 32.3764,19.1067 32.0431,19.44 31.5,19.5C 30.791,18.596 29.791,18.2627 28.5,18.5C 26.8333,18.5 25.1667,18.5 23.5,18.5C 22.5,18.5 21.5,18.5 20.5,18.5 Z"/></g>
<g><path style="opacity:1" fill="#55dabc" d="M 12.5,14.5 C 12.634,16.2915 12.3007,17.9582 11.5,19.5C 11.5,19.8333 11.5,20.1667 11.5,20.5C 10.2976,19.5946 8.9643,19.5946 7.5,20.5C 9.19637,18.4752 10.863,16.4752 12.5,14.5 Z"/></g>
<g><path style="opacity:1" fill="#47dfcb" d="M 12.5,14.5 C 13.5,14.5 14.5,14.5 15.5,14.5C 15.5,14.8333 15.5,15.1667 15.5,15.5C 15.4754,18.179 14.142,19.5123 11.5,19.5C 12.3007,17.9582 12.634,16.2915 12.5,14.5 Z"/></g>
<g><path style="opacity:1" fill="#53e0ce" d="M 23.5,19.5 C 23.5,19.1667 23.5,18.8333 23.5,18.5C 25.1667,18.5 26.8333,18.5 28.5,18.5C 28.5,18.8333 28.5,19.1667 28.5,19.5C 27.8333,19.8333 27.1667,20.1667 26.5,20.5C 25.391,20.4431 24.391,20.1098 23.5,19.5 Z"/></g>
<g><path style="opacity:1" fill="#4dd5b3" d="M 28.5,19.5 C 28.5,19.1667 28.5,18.8333 28.5,18.5C 29.791,18.2627 30.791,18.596 31.5,19.5C 31.0679,20.7095 30.4013,21.7095 29.5,22.5C 29.7373,21.209 29.404,20.209 28.5,19.5 Z"/></g>
<g><path style="opacity:0.665" fill="#45d8b3" d="M 11.5,20.5 C 12.1667,20.5 12.5,20.8333 12.5,21.5C 11.5084,21.3284 10.8417,21.6618 10.5,22.5C 9.02218,22.762 7.68884,22.4287 6.5,21.5C 6.62358,20.8933 6.95691,20.56 7.5,20.5C 8.9643,19.5946 10.2976,19.5946 11.5,20.5 Z"/></g>
<g><path style="opacity:1" fill="#42e1d4" d="M 20.5,18.5 C 21.5,18.5 22.5,18.5 23.5,18.5C 23.5,18.8333 23.5,19.1667 23.5,19.5C 23.5,19.8333 23.5,20.1667 23.5,20.5C 21.396,20.7989 19.396,20.4656 17.5,19.5C 18.325,18.6143 19.325,18.281 20.5,18.5 Z"/></g>
<g><path style="opacity:0.345" fill="#35bd95" d="M 12.5,21.5 C 15.7131,21.19 18.7131,21.5233 21.5,22.5C 17.9581,22.1872 14.6248,22.5206 11.5,23.5C 10.8333,23.5 10.5,23.1667 10.5,22.5C 10.8417,21.6618 11.5084,21.3284 12.5,21.5 Z"/></g>
<g><path style="opacity:0.976" fill="#369f6b" d="M 11.5,23.5 C 14.6248,22.5206 17.9581,22.1872 21.5,22.5C 21.5,22.8333 21.5,23.1667 21.5,23.5C 21.1667,23.5 20.8333,23.5 20.5,23.5C 19.8333,23.8333 19.1667,24.1667 18.5,24.5C 16.1944,24.0074 13.861,23.6741 11.5,23.5 Z"/></g>
<g><path style="opacity:1" fill="#3edfcb" d="M 23.5,19.5 C 24.391,20.1098 25.391,20.4431 26.5,20.5C 26.2671,22.0618 25.6005,23.3951 24.5,24.5C 23.6618,24.1583 23.3284,23.4916 23.5,22.5C 23.5,21.8333 23.5,21.1667 23.5,20.5C 23.5,20.1667 23.5,19.8333 23.5,19.5 Z"/></g>
<g><path style="opacity:1" fill="#33e1c7" d="M 23.5,22.5 C 23.3284,23.4916 23.6618,24.1583 24.5,24.5C 24.5,24.8333 24.5,25.1667 24.5,25.5C 22.8041,27.129 21.8041,26.7957 21.5,24.5C 22.1667,23.8333 22.8333,23.1667 23.5,22.5 Z"/></g>
<g><path style="opacity:1" fill="#30deba" d="M 28.5,19.5 C 29.404,20.209 29.7373,21.209 29.5,22.5C 29.5,23.1667 29.1667,23.5 28.5,23.5C 26.9382,23.7329 25.6049,24.3995 24.5,25.5C 24.5,25.1667 24.5,24.8333 24.5,24.5C 25.6005,23.3951 26.2671,22.0618 26.5,20.5C 27.1667,20.1667 27.8333,19.8333 28.5,19.5 Z"/></g>
<g><path style="opacity:0.918" fill="#2ed5ae" d="M 20.5,23.5 C 20.8333,23.5 21.1667,23.5 21.5,23.5C 21.5,23.8333 21.5,24.1667 21.5,24.5C 21.8041,26.7957 22.8041,27.129 24.5,25.5C 25.6049,24.3995 26.9382,23.7329 28.5,23.5C 26.6281,26.5819 24.2948,29.2486 21.5,31.5C 21.5106,29.9826 22.1772,28.8159 23.5,28C 22.552,27.5172 21.552,27.3505 20.5,27.5C 20.7373,28.791 20.404,29.791 19.5,30.5C 19.5,29.8333 19.5,29.1667 19.5,28.5C 19.6287,26.7839 19.962,25.1172 20.5,23.5 Z"/></g>
<g><path style="opacity:0.518" fill="#32ca8b" d="M 20.5,23.5 C 19.962,25.1172 19.6287,26.7839 19.5,28.5C 18.5987,29.2905 17.9321,30.2905 17.5,31.5C 17.1667,31.5 16.8333,31.5 16.5,31.5C 17.1667,29.1667 17.8333,26.8333 18.5,24.5C 19.1667,24.1667 19.8333,23.8333 20.5,23.5 Z"/></g>
<g><path style="opacity:1" fill="#30e0b6" d="M 21.5,31.5 C 20.5084,31.6716 19.8417,31.3382 19.5,30.5C 20.404,29.791 20.7373,28.791 20.5,27.5C 21.552,27.3505 22.552,27.5172 23.5,28C 22.1772,28.8159 21.5106,29.9826 21.5,31.5 Z"/></g>
<g><path style="opacity:0.973" fill="#30d0a0" d="M 19.5,28.5 C 19.5,29.1667 19.5,29.8333 19.5,30.5C 19.8417,31.3382 20.5084,31.6716 21.5,31.5C 21.0679,32.7095 20.4013,33.7095 19.5,34.5C 19.5,33.1667 18.8333,32.5 17.5,32.5C 17.5,32.1667 17.5,31.8333 17.5,31.5C 17.9321,30.2905 18.5987,29.2905 19.5,28.5 Z"/></g>
<g><path style="opacity:0.961" fill="#31d49b" d="M 17.5,32.5 C 18.8333,32.5 19.5,33.1667 19.5,34.5C 19.5,35.1667 19.1667,35.5 18.5,35.5C 16.2043,35.1959 15.871,34.1959 17.5,32.5 Z"/></g>
<g><path style="opacity:0.565" fill="#2db17b" d="M 16.5,31.5 C 16.8333,31.5 17.1667,31.5 17.5,31.5C 17.5,31.8333 17.5,32.1667 17.5,32.5C 15.871,34.1959 16.2043,35.1959 18.5,35.5C 17.5,36.8333 16.5,38.1667 15.5,39.5C 15.1667,39.5 14.8333,39.5 14.5,39.5C 15.0427,36.7816 15.7094,34.115 16.5,31.5 Z"/></g>
</svg>
