<?xml version="1.0" encoding="UTF-8"?>
<!DOCTYPE svg PUBLIC "-//W3C//DTD SVG 1.1//EN" "http://www.w3.org/Graphics/SVG/1.1/DTD/svg11.dtd">
<svg xmlns="http://www.w3.org/2000/svg" version="1.1" width="160px" height="160px" style="shape-rendering:geometricPrecision; text-rendering:geometricPrecision; image-rendering:optimizeQuality; fill-rule:evenodd; clip-rule:evenodd" xmlns:xlink="http://www.w3.org/1999/xlink">
<g><path style="opacity:0.988" fill="#8060f1" d="M 66.5,-0.5 C 69.1667,-0.5 71.8333,-0.5 74.5,-0.5C 76.6975,1.39685 79.3642,2.39685 82.5,2.5C 82.33,3.82207 82.6634,4.98873 83.5,6C 85.2464,6.47093 86.913,7.13759 88.5,8C 91.5271,11.6938 94.8604,15.0271 98.5,18C 97.2899,19.0391 96.2899,20.2058 95.5,21.5C 87.591,19.9058 79.591,19.2392 71.5,19.5C 70.8724,18.0668 69.3724,16.7334 67,15.5C 65.8555,13.749 65.3555,11.9157 65.5,10C 64.5509,9.38277 63.7175,9.54943 63,10.5C 60.1519,8.07259 57.3186,5.73925 54.5,3.5C 58.4086,1.85706 62.4086,0.523724 66.5,-0.5 Z"/></g>
<g><path style="opacity:0.994" fill="#8560f1" d="M 74.5,-0.5 C 80.1667,-0.5 85.8333,-0.5 91.5,-0.5C 91.5,0.166667 91.8333,0.5 92.5,0.5C 98.986,2.45039 104.319,6.28372 108.5,12C 106.009,12.6259 106.009,13.4593 108.5,14.5C 110.045,15.4519 111.712,15.7852 113.5,15.5C 113.343,16.8734 113.51,18.2068 114,19.5C 115.049,18.4829 116.216,18.3162 117.5,19C 119.952,23.0329 123.285,25.8663 127.5,27.5C 127.5,28.8333 127.5,30.1667 127.5,31.5C 128.833,31.5 130.167,31.5 131.5,31.5C 134.661,35.7147 137.828,40.048 141,44.5C 141.718,43.5494 142.551,43.3828 143.5,44C 145.578,45.4858 146.911,47.4858 147.5,50C 151.795,50.6301 153.962,53.1301 154,57.5C 155.039,56.7562 155.539,55.7562 155.5,54.5C 157.143,58.4086 158.476,62.4086 159.5,66.5C 159.5,74.8333 159.5,83.1667 159.5,91.5C 158.833,93.5 158.167,95.5 157.5,97.5C 155.956,97.2969 154.622,96.6302 153.5,95.5C 152.914,95.7093 152.414,96.0426 152,96.5C 148.682,92.6819 145.182,89.0152 141.5,85.5C 140.67,79.8624 140.17,74.1958 140,68.5C 139.95,66.256 139.117,64.5893 137.5,63.5C 135.674,58.5156 133.341,53.8489 130.5,49.5C 126.12,40.9499 119.787,34.1165 111.5,29C 106.192,26.1885 100.859,23.6885 95.5,21.5C 96.2899,20.2058 97.2899,19.0391 98.5,18C 94.8604,15.0271 91.5271,11.6938 88.5,8C 86.913,7.13759 85.2464,6.47093 83.5,6C 82.6634,4.98873 82.33,3.82207 82.5,2.5C 79.3642,2.39685 76.6975,1.39685 74.5,-0.5 Z"/></g>
<g><path style="opacity:0.984" fill="#8b5ef1" d="M 92.5,0.5 C 123.971,6.30573 144.971,24.3057 155.5,54.5C 155.539,55.7562 155.039,56.7562 154,57.5C 153.962,53.1301 151.795,50.6301 147.5,50C 146.911,47.4858 145.578,45.4858 143.5,44C 142.551,43.3828 141.718,43.5494 141,44.5C 137.828,40.048 134.661,35.7147 131.5,31.5C 130.167,31.5 128.833,31.5 127.5,31.5C 127.5,30.1667 127.5,28.8333 127.5,27.5C 123.285,25.8663 119.952,23.0329 117.5,19C 116.216,18.3162 115.049,18.4829 114,19.5C 113.51,18.2068 113.343,16.8734 113.5,15.5C 111.712,15.7852 110.045,15.4519 108.5,14.5C 106.009,13.4593 106.009,12.6259 108.5,12C 104.319,6.28372 98.986,2.45039 92.5,0.5 Z"/></g>
<g><path style="opacity:0.984" fill="#7563f1" d="M 54.5,3.5 C 57.3186,5.73925 60.1519,8.07259 63,10.5C 63.7175,9.54943 64.5509,9.38277 65.5,10C 65.3555,11.9157 65.8555,13.749 67,15.5C 69.3724,16.7334 70.8724,18.0668 71.5,19.5C 64.7028,21.2071 58.0361,23.5405 51.5,26.5C 50.5041,26.5858 49.6708,26.2524 49,25.5C 48.6758,27.5689 47.8425,27.9023 46.5,26.5C 44.428,29.1537 42.7613,28.8204 41.5,25.5C 41.7093,24.914 42.0426,24.414 42.5,24C 40.5506,22.1653 38.2173,20.9986 35.5,20.5C 34.1667,19.5 34.1667,18.5 35.5,17.5C 34.8118,16.1451 33.8118,15.1451 32.5,14.5C 38.9683,9.26581 46.3016,5.59914 54.5,3.5 Z"/></g>
<g><path style="opacity:1" fill="#eeedf8" d="M 71.5,19.5 C 79.591,19.2392 87.591,19.9058 95.5,21.5C 100.859,23.6885 106.192,26.1885 111.5,29C 119.787,34.1165 126.12,40.9499 130.5,49.5C 129.503,49.4701 128.836,49.9701 128.5,51C 128.989,52.1385 129.322,53.3052 129.5,54.5C 128.167,53.8333 127.167,52.8333 126.5,51.5C 125.785,47.5148 123.452,44.1814 119.5,41.5C 108.688,29.8263 95.1884,23.8263 79,23.5C 70.5628,23.6803 62.7295,25.6803 55.5,29.5C 50.6783,30.9977 46.6783,33.6644 43.5,37.5C 33.6962,44.7683 27.6962,54.4349 25.5,66.5C 25.5,66.8333 25.5,67.1667 25.5,67.5C 21.3004,88.4732 26.967,106.473 42.5,121.5C 41.5987,122.29 40.9321,123.29 40.5,124.5C 38.8333,123.167 37.1667,121.833 35.5,120.5C 22.7505,105.517 17.7505,88.1836 20.5,68.5C 22.0116,61.8201 24.3449,55.4868 27.5,49.5C 33.5483,39.7848 41.5483,32.1181 51.5,26.5C 58.0361,23.5405 64.7028,21.2071 71.5,19.5 Z"/></g>
<g><path style="opacity:0.989" fill="#6a65f1" d="M 32.5,14.5 C 33.8118,15.1451 34.8118,16.1451 35.5,17.5C 34.1667,18.5 34.1667,19.5 35.5,20.5C 38.2173,20.9986 40.5506,22.1653 42.5,24C 42.0426,24.414 41.7093,24.914 41.5,25.5C 42.7613,28.8204 44.428,29.1537 46.5,26.5C 47.8425,27.9023 48.6758,27.5689 49,25.5C 49.6708,26.2524 50.5041,26.5858 51.5,26.5C 41.5483,32.1181 33.5483,39.7848 27.5,49.5C 26.3473,48.6868 26.3473,47.6868 27.5,46.5C 26.011,46.4669 24.6776,45.9669 23.5,45C 24.3366,43.9887 24.67,42.8221 24.5,41.5C 22.2478,40.6669 20.0811,40.6669 18,41.5C 15.4507,40.41 14.6174,38.7433 15.5,36.5C 15.1445,35.4777 14.4778,34.811 13.5,34.5C 18.4337,26.5647 24.7671,19.898 32.5,14.5 Z"/></g>
<g><path style="opacity:1" fill="#7c63ef" d="M 119.5,41.5 C 119.719,42.675 119.386,43.675 118.5,44.5C 116.929,43.6906 115.262,43.3573 113.5,43.5C 111.784,43.3713 110.117,43.038 108.5,42.5C 106.19,41.8362 103.69,41.5029 101,41.5C 97.1952,41.3037 93.6952,41.9704 90.5,43.5C 88.079,43.8782 85.7457,44.5448 83.5,45.5C 81.2496,43.756 79.0829,41.756 77,39.5C 76.6667,40.1667 76.3333,40.8333 76,41.5C 74.8333,40.3333 73.6667,39.1667 72.5,38C 73.3081,37.6924 73.9747,37.1924 74.5,36.5C 73.04,34.5776 71.3733,33.9109 69.5,34.5C 65.8642,32.7931 65.8642,31.6264 69.5,31C 66.4557,30.6411 66.1224,29.9745 68.5,29C 68.1667,28.6667 67.8333,28.3333 67.5,28C 63.5268,28.2907 59.5268,28.7907 55.5,29.5C 62.7295,25.6803 70.5628,23.6803 79,23.5C 95.1884,23.8263 108.688,29.8263 119.5,41.5 Z"/></g>
<g><path style="opacity:1" fill="#7064f0" d="M 83.5,45.5 C 77.4224,49.0341 72.4224,53.7008 68.5,59.5C 67.8826,59.3893 67.3826,59.056 67,58.5C 66.0975,59.7014 64.9308,60.5348 63.5,61C 64.5171,62.0495 64.6838,63.2161 64,64.5C 56.9849,55.9764 49.4849,48.643 41.5,42.5C 43.0049,41.1585 43.6715,39.4918 43.5,37.5C 46.6783,33.6644 50.6783,30.9977 55.5,29.5C 59.5268,28.7907 63.5268,28.2907 67.5,28C 67.8333,28.3333 68.1667,28.6667 68.5,29C 66.1224,29.9745 66.4557,30.6411 69.5,31C 65.8642,31.6264 65.8642,32.7931 69.5,34.5C 71.3733,33.9109 73.04,34.5776 74.5,36.5C 73.9747,37.1924 73.3081,37.6924 72.5,38C 73.6667,39.1667 74.8333,40.3333 76,41.5C 76.3333,40.8333 76.6667,40.1667 77,39.5C 79.0829,41.756 81.2496,43.756 83.5,45.5 Z"/></g>
<g><path style="opacity:1" fill="#d2c8f2" d="M 108.5,42.5 C 102.471,42.4255 96.4707,42.7588 90.5,43.5C 93.6952,41.9704 97.1952,41.3037 101,41.5C 103.69,41.5029 106.19,41.8362 108.5,42.5 Z"/></g>
<g><path style="opacity:1" fill="#f4f3f9" d="M 108.5,42.5 C 110.117,43.038 111.784,43.3713 113.5,43.5C 118.266,45.3869 122.599,48.0536 126.5,51.5C 127.167,52.8333 128.167,53.8333 129.5,54.5C 129.953,55.4584 130.619,56.2917 131.5,57C 128.856,56.4376 126.356,55.2709 124,53.5C 122.644,54.3802 121.144,54.7135 119.5,54.5C 103.759,43.0671 91.0921,45.7338 81.5,62.5C 81.0623,61.4937 80.3957,61.4937 79.5,62.5C 79.5,61.5 79.5,60.5 79.5,59.5C 81.1585,55.3275 83.8252,51.8275 87.5,49C 78.8122,52.3538 72.6455,58.5205 69,67.5C 67.04,75.1806 67.04,82.8472 69,90.5C 72.5712,91.7916 76.4045,92.4583 80.5,92.5C 84.3492,92.4987 88.0159,92.1654 91.5,91.5C 92.3764,91.3691 93.0431,91.7025 93.5,92.5C 85.1667,93.1667 76.8333,93.8333 68.5,94.5C 68.3886,96.1086 68.722,97.7753 69.5,99.5C 69.1667,99.5 68.8333,99.5 68.5,99.5C 61.8697,86.1032 61.8697,72.7699 68.5,59.5C 72.4224,53.7008 77.4224,49.0341 83.5,45.5C 85.7457,44.5448 88.079,43.8782 90.5,43.5C 96.4707,42.7588 102.471,42.4255 108.5,42.5 Z"/></g>
<g><path style="opacity:1" fill="#8c6fe6" d="M 119.5,41.5 C 123.452,44.1814 125.785,47.5148 126.5,51.5C 122.599,48.0536 118.266,45.3869 113.5,43.5C 115.262,43.3573 116.929,43.6906 118.5,44.5C 119.386,43.675 119.719,42.675 119.5,41.5 Z"/></g>
<g><path style="opacity:1" fill="#7b65ee" d="M 119.5,54.5 C 128.325,68.8581 125.658,80.5247 111.5,89.5C 107.524,90.3307 103.524,90.4973 99.5,90C 109.416,86.6669 113.583,79.8336 112,69.5C 106.538,58.9016 98.3718,56.0683 87.5,61C 85.2911,62.8734 83.4578,65.04 82,67.5C 81.5065,65.8659 81.3398,64.1992 81.5,62.5C 91.0921,45.7338 103.759,43.0671 119.5,54.5 Z"/></g>
<g><path style="opacity:1" fill="#6366f1" d="M 43.5,37.5 C 43.6715,39.4918 43.0049,41.1585 41.5,42.5C 49.4849,48.643 56.9849,55.9764 64,64.5C 64.6838,63.2161 64.5171,62.0495 63.5,61C 64.9308,60.5348 66.0975,59.7014 67,58.5C 67.3826,59.056 67.8826,59.3893 68.5,59.5C 61.8697,72.7699 61.8697,86.1032 68.5,99.5C 67.1751,100.953 66.3418,100.619 66,98.5C 65.3333,99.8333 64.6667,99.8333 64,98.5C 63.3162,97.2161 63.4829,96.0495 64.5,95C 63.9535,94.0754 63.2868,93.2421 62.5,92.5C 60.5914,93.3482 58.5914,93.6816 56.5,93.5C 56.5,92.1667 56.5,90.8333 56.5,89.5C 54.5,89.5 52.5,89.5 50.5,89.5C 50.8076,87.076 50.4742,84.7427 49.5,82.5C 44.0737,84.3591 42.0737,82.3591 43.5,76.5C 41.5,76.5 39.5,76.5 37.5,76.5C 37.5,74.1667 37.5,71.8333 37.5,69.5C 35.4884,70.0138 33.4884,70.1805 31.5,70C 31.3937,67.6888 30.8937,65.1888 30,62.5C 29.5,63 29,63.5 28.5,64C 29.5536,65.3876 29.7203,66.8876 29,68.5C 27.883,67.0506 27.2163,65.3839 27,63.5C 26.7679,64.7375 26.2679,65.7375 25.5,66.5C 27.6962,54.4349 33.6962,44.7683 43.5,37.5 Z"/></g>
<g><path style="opacity:0.985" fill="#5868f3" d="M 13.5,34.5 C 14.4778,34.811 15.1445,35.4777 15.5,36.5C 14.6174,38.7433 15.4507,40.41 18,41.5C 20.0811,40.6669 22.2478,40.6669 24.5,41.5C 24.67,42.8221 24.3366,43.9887 23.5,45C 24.6776,45.9669 26.011,46.4669 27.5,46.5C 26.3473,47.6868 26.3473,48.6868 27.5,49.5C 24.3449,55.4868 22.0116,61.8201 20.5,68.5C 19.7321,69.2625 19.2321,70.2625 19,71.5C 18.6667,77.1667 18.3333,82.8333 18,88.5C 17.1072,89.7112 16.2739,89.7112 15.5,88.5C 13.585,86.9288 12.585,84.9288 12.5,82.5C 9.74262,82.6216 7.74262,81.4549 6.5,79C 4.19018,78.5034 1.85684,78.3367 -0.5,78.5C -0.5,74.8333 -0.5,71.1667 -0.5,67.5C 0.918578,60.4021 3.08524,53.4021 6,46.5C 7.77442,41.9305 10.2744,37.9305 13.5,34.5 Z"/></g>
<g><path style="opacity:1" fill="#5d67f2" d="M 68.5,99.5 C 68.8333,99.5 69.1667,99.5 69.5,99.5C 74.6814,108.996 82.6814,114.663 93.5,116.5C 95.4726,117.163 97.6392,117.496 100,117.5C 104.9,117.232 109.733,116.566 114.5,115.5C 116.698,115.12 118.365,115.787 119.5,117.5C 113.06,124.929 105.06,129.929 95.5,132.5C 91.2053,131.641 86.872,131.474 82.5,132C 73.2569,124.704 65.2569,117.371 58.5,110C 56.9052,110.617 55.5719,110.284 54.5,109C 55.4506,108.282 55.6172,107.449 55,106.5C 53.3331,104.372 51.1664,103.039 48.5,102.5C 48.7093,101.914 49.0426,101.414 49.5,101C 47.5896,98.1492 45.2563,96.6492 42.5,96.5C 43.8333,95.8333 45.1667,95.1667 46.5,94.5C 39.7209,87.3784 32.8875,80.3784 26,73.5C 25.5045,71.5273 25.3379,69.5273 25.5,67.5C 25.5,67.1667 25.5,66.8333 25.5,66.5C 26.2679,65.7375 26.7679,64.7375 27,63.5C 27.2163,65.3839 27.883,67.0506 29,68.5C 29.7203,66.8876 29.5536,65.3876 28.5,64C 29,63.5 29.5,63 30,62.5C 30.8937,65.1888 31.3937,67.6888 31.5,70C 33.4884,70.1805 35.4884,70.0138 37.5,69.5C 37.5,71.8333 37.5,74.1667 37.5,76.5C 39.5,76.5 41.5,76.5 43.5,76.5C 42.0737,82.3591 44.0737,84.3591 49.5,82.5C 50.4742,84.7427 50.8076,87.076 50.5,89.5C 52.5,89.5 54.5,89.5 56.5,89.5C 56.5,90.8333 56.5,92.1667 56.5,93.5C 58.5914,93.6816 60.5914,93.3482 62.5,92.5C 63.2868,93.2421 63.9535,94.0754 64.5,95C 63.4829,96.0495 63.3162,97.2161 64,98.5C 64.6667,99.8333 65.3333,99.8333 66,98.5C 66.3418,100.619 67.1751,100.953 68.5,99.5 Z"/></g>
<g><path style="opacity:1" fill="#6b68ee" d="M 79.5,59.5 C 78.0092,62.1864 77.3425,65.1864 77.5,68.5C 77.5046,70.6965 77.838,72.6965 78.5,74.5C 80.1806,82.1824 84.514,87.849 91.5,91.5C 88.0159,92.1654 84.3492,92.4987 80.5,92.5C 76.4045,92.4583 72.5712,91.7916 69,90.5C 67.04,82.8472 67.04,75.1806 69,67.5C 72.6455,58.5205 78.8122,52.3538 87.5,49C 83.8252,51.8275 81.1585,55.3275 79.5,59.5 Z"/></g>
<g><path style="opacity:1" fill="#cdccf4" d="M 79.5,59.5 C 79.5,60.5 79.5,61.5 79.5,62.5C 78.5701,66.3998 78.2367,70.3998 78.5,74.5C 77.838,72.6965 77.5046,70.6965 77.5,68.5C 77.3425,65.1864 78.0092,62.1864 79.5,59.5 Z"/></g>
<g><path style="opacity:1" fill="#f0eff9" d="M 130.5,49.5 C 133.341,53.8489 135.674,58.5156 137.5,63.5C 141.97,84.2837 137.636,102.95 124.5,119.5C 118.705,124.97 112.372,129.637 105.5,133.5C 100.41,134.974 95.4104,136.641 90.5,138.5C 74.6333,141.08 59.9667,138.08 46.5,129.5C 44.5,127.833 42.5,126.167 40.5,124.5C 40.9321,123.29 41.5987,122.29 42.5,121.5C 58.298,134.536 75.9647,138.202 95.5,132.5C 105.06,129.929 113.06,124.929 119.5,117.5C 123.259,114.928 125.759,111.595 127,107.5C 122.99,110.578 118.823,113.245 114.5,115.5C 109.733,116.566 104.9,117.232 100,117.5C 97.6392,117.496 95.4726,117.163 93.5,116.5C 96.1873,116.664 98.854,116.497 101.5,116C 100.978,115.439 100.645,114.772 100.5,114C 102.038,108.157 103.038,102.324 103.5,96.5C 103.5,102.167 103.5,107.833 103.5,113.5C 106.553,113.889 109.22,113.223 111.5,111.5C 117.667,109.917 122.667,106.583 126.5,101.5C 128.194,100.473 129.527,99.1392 130.5,97.5C 130.833,97.5 131.167,97.5 131.5,97.5C 131.882,95.6146 133.215,94.1146 135.5,93C 135.167,92.8333 134.833,92.6667 134.5,92.5C 127.371,93.8129 120.371,93.8129 113.5,92.5C 120.09,92.811 126.59,92.4777 133,91.5C 137.679,78.9631 135.679,67.6298 127,57.5C 131.54,72.0789 127.373,83.4123 114.5,91.5C 114.179,89.9519 113.179,89.2852 111.5,89.5C 125.658,80.5247 128.325,68.8581 119.5,54.5C 121.144,54.7135 122.644,54.3802 124,53.5C 126.356,55.2709 128.856,56.4376 131.5,57C 130.619,56.2917 129.953,55.4584 129.5,54.5C 129.322,53.3052 128.989,52.1385 128.5,51C 128.836,49.9701 129.503,49.4701 130.5,49.5 Z"/></g>
<g><path style="opacity:1" fill="#7d66ec" d="M 113.5,92.5 C 113.5,91.8333 113.833,91.5 114.5,91.5C 127.373,83.4123 131.54,72.0789 127,57.5C 135.679,67.6298 137.679,78.9631 133,91.5C 126.59,92.4777 120.09,92.811 113.5,92.5 Z"/></g>
<g><path style="opacity:0.992" fill="#506bf1" d="M 20.5,68.5 C 17.7505,88.1836 22.7505,105.517 35.5,120.5C 34.6071,122.73 34.6071,124.73 35.5,126.5C 33.244,125.579 32.244,123.912 32.5,121.5C 29.0844,122.106 26.4178,121.106 24.5,118.5C 22.8333,117.833 21.1667,117.167 19.5,116.5C 18.7695,113.891 18.2695,111.224 18,108.5C 12.0892,102.149 5.92253,96.1488 -0.5,90.5C -0.5,86.5 -0.5,82.5 -0.5,78.5C 1.85684,78.3367 4.19018,78.5034 6.5,79C 7.74262,81.4549 9.74262,82.6216 12.5,82.5C 12.585,84.9288 13.585,86.9288 15.5,88.5C 16.2739,89.7112 17.1072,89.7112 18,88.5C 18.3333,82.8333 18.6667,77.1667 19,71.5C 19.2321,70.2625 19.7321,69.2625 20.5,68.5 Z"/></g>
<g><path style="opacity:1" fill="#566af1" d="M 25.5,67.5 C 25.3379,69.5273 25.5045,71.5273 26,73.5C 32.8875,80.3784 39.7209,87.3784 46.5,94.5C 45.1667,95.1667 43.8333,95.8333 42.5,96.5C 45.2563,96.6492 47.5896,98.1492 49.5,101C 49.0426,101.414 48.7093,101.914 48.5,102.5C 51.1664,103.039 53.3331,104.372 55,106.5C 55.6172,107.449 55.4506,108.282 54.5,109C 55.5719,110.284 56.9052,110.617 58.5,110C 65.2569,117.371 73.2569,124.704 82.5,132C 86.872,131.474 91.2053,131.641 95.5,132.5C 75.9647,138.202 58.298,134.536 42.5,121.5C 26.967,106.473 21.3004,88.4732 25.5,67.5 Z"/></g>
<g><path style="opacity:1" fill="#f6f6fa" d="M 111.5,89.5 C 113.179,89.2852 114.179,89.9519 114.5,91.5C 113.833,91.5 113.5,91.8333 113.5,92.5C 120.371,93.8129 127.371,93.8129 134.5,92.5C 134.833,92.6667 135.167,92.8333 135.5,93C 133.215,94.1146 131.882,95.6146 131.5,97.5C 127.217,96.1734 122.551,95.5067 117.5,95.5C 112.654,95.5008 107.988,95.8341 103.5,96.5C 103.038,102.324 102.038,108.157 100.5,114C 100.645,114.772 100.978,115.439 101.5,116C 98.854,116.497 96.1873,116.664 93.5,116.5C 82.6814,114.663 74.6814,108.996 69.5,99.5C 68.722,97.7753 68.3886,96.1086 68.5,94.5C 76.8333,93.8333 85.1667,93.1667 93.5,92.5C 93.0431,91.7025 92.3764,91.3691 91.5,91.5C 84.514,87.849 80.1806,82.1824 78.5,74.5C 78.2367,70.3998 78.5701,66.3998 79.5,62.5C 80.3957,61.4937 81.0623,61.4937 81.5,62.5C 81.3398,64.1992 81.5065,65.8659 82,67.5C 83.4578,65.04 85.2911,62.8734 87.5,61C 98.3718,56.0683 106.538,58.9016 112,69.5C 113.583,79.8336 109.416,86.6669 99.5,90C 103.524,90.4973 107.524,90.3307 111.5,89.5 Z"/></g>
<g><path style="opacity:1" fill="#a69fd5" d="M 98.5,83.5 C 100.199,83.3398 101.866,83.5065 103.5,84C 102.756,85.0386 101.756,85.5386 100.5,85.5C 99.8333,84.8333 99.1667,84.1667 98.5,83.5 Z"/></g>
<g><path style="opacity:1" fill="#7167eb" d="M 87.5,67.5 C 88.1174,67.6107 88.6174,67.944 89,68.5C 89.1862,71.0356 89.6862,73.369 90.5,75.5C 91.5362,79.8696 94.2029,82.5363 98.5,83.5C 99.1667,84.1667 99.8333,84.8333 100.5,85.5C 97.4816,85.6646 94.4816,85.498 91.5,85C 88.9441,83.9455 87.2775,82.1122 86.5,79.5C 86.5,75.8333 86.5,72.1667 86.5,68.5C 86.5,67.8333 86.8333,67.5 87.5,67.5 Z"/></g>
<g><path style="opacity:1" fill="#827ae4" d="M 86.5,68.5 C 86.5,72.1667 86.5,75.8333 86.5,79.5C 83.8333,75.8333 83.8333,72.1667 86.5,68.5 Z"/></g>
<g><path style="opacity:1" fill="#7768ee" d="M 97.5,66.5 C 103.523,65.1966 107.189,67.53 108.5,73.5C 106.374,80.3138 102.208,81.9804 96,78.5C 93.6603,74.0521 94.1603,70.0521 97.5,66.5 Z"/></g>
<g><path style="opacity:1" fill="#7d70e7" d="M 90.5,75.5 C 89.6862,73.369 89.1862,71.0356 89,68.5C 88.6174,67.944 88.1174,67.6107 87.5,67.5C 89.2326,63.6246 92.2326,62.1246 96.5,63C 91.5712,65.7618 89.5712,69.9285 90.5,75.5 Z"/></g>
<g><path style="opacity:1" fill="#c7c8f4" d="M 99.5,96.5 C 90.1045,95.8623 81.1045,96.5289 72.5,98.5C 71.596,97.791 71.2627,96.791 71.5,95.5C 81.015,95.1731 90.3483,95.5064 99.5,96.5 Z"/></g>
<g><path style="opacity:1" fill="#cbc9f3" d="M 103.5,96.5 C 107.988,95.8341 112.654,95.5008 117.5,95.5C 122.551,95.5067 127.217,96.1734 131.5,97.5C 131.167,97.5 130.833,97.5 130.5,97.5C 121.682,96.5067 112.682,96.1734 103.5,96.5 Z"/></g>
<g><path style="opacity:1" fill="#6768ef" d="M 99.5,96.5 C 99.5,102.167 99.5,107.833 99.5,113.5C 87.9833,112.911 78.9833,107.911 72.5,98.5C 81.1045,96.5289 90.1045,95.8623 99.5,96.5 Z"/></g>
<g><path style="opacity:1" fill="#706ae6" d="M 103.5,96.5 C 112.682,96.1734 121.682,96.5067 130.5,97.5C 129.527,99.1392 128.194,100.473 126.5,101.5C 126.33,100.178 126.663,99.0113 127.5,98C 119.841,97.5003 112.174,97.3336 104.5,97.5C 104.5,101.833 104.5,106.167 104.5,110.5C 106.903,110.448 109.236,110.781 111.5,111.5C 109.22,113.223 106.553,113.889 103.5,113.5C 103.5,107.833 103.5,102.167 103.5,96.5 Z"/></g>
<g><path style="opacity:1" fill="#6c65f0" d="M 126.5,101.5 C 122.667,106.583 117.667,109.917 111.5,111.5C 109.236,110.781 106.903,110.448 104.5,110.5C 104.5,106.167 104.5,101.833 104.5,97.5C 112.174,97.3336 119.841,97.5003 127.5,98C 126.663,99.0113 126.33,100.178 126.5,101.5 Z"/></g>
<g><path style="opacity:0.984" fill="#486bf2" d="M -0.5,90.5 C 5.92253,96.1488 12.0892,102.149 18,108.5C 18.2695,111.224 18.7695,113.891 19.5,116.5C 21.1667,117.167 22.8333,117.833 24.5,118.5C 26.4178,121.106 29.0844,122.106 32.5,121.5C 32.244,123.912 33.244,125.579 35.5,126.5C 34.6071,124.73 34.6071,122.73 35.5,120.5C 37.1667,121.833 38.8333,123.167 40.5,124.5C 42.5,126.167 44.5,127.833 46.5,129.5C 45.5167,132.517 45.0167,135.85 45,139.5C 46.6995,140.406 48.5328,140.739 50.5,140.5C 49.7353,145.906 52.0687,147.906 57.5,146.5C 56.1667,151.833 58.1667,153.833 63.5,152.5C 63.9227,154.781 63.256,156.448 61.5,157.5C 34.999,151.175 16.1657,135.508 5,110.5C 2.83236,104.469 0.999023,98.4692 -0.5,92.5C -0.5,91.8333 -0.5,91.1667 -0.5,90.5 Z"/></g>
<g><path style="opacity:0.993" fill="#7264f0" d="M 137.5,63.5 C 139.117,64.5893 139.95,66.256 140,68.5C 140.17,74.1958 140.67,79.8624 141.5,85.5C 145.182,89.0152 148.682,92.6819 152,96.5C 152.414,96.0426 152.914,95.7093 153.5,95.5C 154.622,96.6302 155.956,97.2969 157.5,97.5C 154.904,111.028 148.904,122.695 139.5,132.5C 137.525,131.354 136.025,129.687 135,127.5C 134.549,129.929 133.715,130.096 132.5,128C 132.957,127.586 133.291,127.086 133.5,126.5C 130.443,124.279 127.943,121.612 126,118.5C 125.617,119.056 125.117,119.389 124.5,119.5C 137.636,102.95 141.97,84.2837 137.5,63.5 Z"/></g>
<g><path style="opacity:1" fill="#7771e6" d="M 119.5,117.5 C 118.365,115.787 116.698,115.12 114.5,115.5C 118.823,113.245 122.99,110.578 127,107.5C 125.759,111.595 123.259,114.928 119.5,117.5 Z"/></g>
<g><path style="opacity:0.985" fill="#6366f2" d="M 139.5,132.5 C 133.953,140.056 126.953,145.722 118.5,149.5C 116.799,149.034 115.299,149.034 114,149.5C 113.5,149 113,148.5 112.5,148C 114.291,145.894 114.958,143.394 114.5,140.5C 112.5,140.5 110.5,140.5 108.5,140.5C 108.349,137.282 107.516,136.949 106,139.5C 105.5,139 105,138.5 104.5,138C 104.912,136.436 105.245,134.936 105.5,133.5C 112.372,129.637 118.705,124.97 124.5,119.5C 125.117,119.389 125.617,119.056 126,118.5C 127.943,121.612 130.443,124.279 133.5,126.5C 133.291,127.086 132.957,127.586 132.5,128C 133.715,130.096 134.549,129.929 135,127.5C 136.025,129.687 137.525,131.354 139.5,132.5 Z"/></g>
<g><path style="opacity:0.993" fill="#4e6af1" d="M 46.5,129.5 C 59.9667,138.08 74.6333,141.08 90.5,138.5C 90.0825,139.222 89.4158,139.722 88.5,140C 82.8333,140.333 77.1667,140.667 71.5,141C 74.7793,143.789 77.7793,146.789 80.5,150C 82.9849,149.377 84.9849,150.377 86.5,153C 85.376,153.249 84.376,153.749 83.5,154.5C 87.0042,154.898 90.0042,156.231 92.5,158.5C 92.5,158.833 92.5,159.167 92.5,159.5C 84.1667,159.5 75.8333,159.5 67.5,159.5C 65.5,158.833 63.5,158.167 61.5,157.5C 63.256,156.448 63.9227,154.781 63.5,152.5C 58.1667,153.833 56.1667,151.833 57.5,146.5C 52.0687,147.906 49.7353,145.906 50.5,140.5C 48.5328,140.739 46.6995,140.406 45,139.5C 45.0167,135.85 45.5167,132.517 46.5,129.5 Z"/></g>
<g><path style="opacity:0.994" fill="#5968f3" d="M 105.5,133.5 C 105.245,134.936 104.912,136.436 104.5,138C 105,138.5 105.5,139 106,139.5C 107.516,136.949 108.349,137.282 108.5,140.5C 110.5,140.5 112.5,140.5 114.5,140.5C 114.958,143.394 114.291,145.894 112.5,148C 113,148.5 113.5,149 114,149.5C 115.299,149.034 116.799,149.034 118.5,149.5C 110.599,154.468 101.932,157.468 92.5,158.5C 90.0042,156.231 87.0042,154.898 83.5,154.5C 84.376,153.749 85.376,153.249 86.5,153C 84.9849,150.377 82.9849,149.377 80.5,150C 77.7793,146.789 74.7793,143.789 71.5,141C 77.1667,140.667 82.8333,140.333 88.5,140C 89.4158,139.722 90.0825,139.222 90.5,138.5C 95.4104,136.641 100.41,134.974 105.5,133.5 Z"/></g>
</svg>
