<svg width="209" height="76" viewBox="0 0 209 76" fill="none" xmlns="http://www.w3.org/2000/svg">
    <g clip-path="url(#clip0_9010_99630)">
        <rect x="10" width="60.8" height="60.8" rx="16" fill="#22ABAC" fill-opacity="0.1"/>
        <path d="M41.6667 42.75C43.0389 42.75 44.1736 42.3014 45.0708 41.4042C45.9681 40.507 46.4167 39.3722 46.4167 38C46.4167 36.6278 45.9681 35.4931 45.0708 34.5958C44.1736 33.6986 43.0389 33.25 41.6667 33.25C40.2944 33.25 39.1597 33.6986 38.2625 34.5958C37.3653 35.4931 36.9167 36.6278 36.9167 38C36.9167 39.3722 37.3653 40.507 38.2625 41.4042C39.1597 42.3014 40.2944 42.75 41.6667 42.75ZM6.83334 66.5C5.09167 66.5 3.60017 65.8793 2.35884 64.638C1.1175 63.3967 0.497894 61.9062 0.500005 60.1667V15.8333C0.500005 14.0917 1.12067 12.6002 2.36201 11.3588C3.60334 10.1175 5.09378 9.49789 6.83334 9.50001H51.1667C52.9083 9.50001 54.3998 10.1207 55.6412 11.362C56.8825 12.6033 57.5021 14.0938 57.5 15.8333V23.75H51.1667V15.8333H6.83334V60.1667H51.1667V52.25H57.5V60.1667C57.5 61.9083 56.8793 63.3998 55.638 64.6412C54.3967 65.8825 52.9062 66.5021 51.1667 66.5H6.83334ZM32.1667 53.8333C30.425 53.8333 28.9335 53.2127 27.6922 51.9713C26.4508 50.73 25.8312 49.2396 25.8333 47.5V28.5C25.8333 26.7583 26.454 25.2668 27.6953 24.0255C28.9367 22.7842 30.4271 22.1646 32.1667 22.1667H54.3333C56.075 22.1667 57.5665 22.7873 58.8078 24.0287C60.0492 25.27 60.6688 26.7605 60.6667 28.5V47.5C60.6667 49.2417 60.046 50.7332 58.8047 51.9745C57.5633 53.2158 56.0729 53.8355 54.3333 53.8333H32.1667ZM54.3333 47.5V28.5H32.1667V47.5H54.3333Z" fill="#22ABAC"/>
        <path d="M120.594 31.3506L111.727 22.4839L111.727 29.1339L96.2104 29.1339L96.2104 33.5672L111.727 33.5672L111.727 40.2172M89.5604 46.8672L105.077 46.8672L105.077 42.4339L89.5604 42.4339L89.5604 35.7839L80.6937 44.6506L89.5604 53.5172L89.5604 46.8672Z" fill="#DEE1E5"/>
        <path d="M165.131 75.8489C186.034 75.8489 202.98 58.9032 202.98 37.9996C202.98 17.0961 186.034 0.150391 165.131 0.150391C144.227 0.150391 127.281 17.0961 127.281 37.9996C127.281 58.9032 144.227 75.8489 165.131 75.8489Z" fill="#F5F5F5"/>
        <path d="M167.392 36.017C163.175 34.6194 161.138 33.7429 161.138 31.5162C161.138 29.1 163.768 28.2235 165.426 28.2235C168.529 28.2235 169.666 30.5687 169.927 31.3978L173.669 29.8107C173.314 28.7447 171.727 25.2625 167.653 24.5045V21.5671H162.915V24.5519C157.04 25.8784 157.016 31.3267 157.016 31.5636C157.016 36.9408 162.346 38.4569 164.952 39.4044C168.695 40.731 170.353 41.9391 170.353 44.2132C170.353 46.8899 167.866 48.027 165.663 48.027C161.351 48.027 160.12 43.5973 159.978 43.0761L156.045 44.6632C157.538 49.851 161.446 51.2486 162.915 51.675V54.7308H167.653V51.7934C168.6 51.5802 174.522 50.3958 174.522 44.1658C174.522 40.8731 173.077 37.9831 167.392 36.017ZM143.964 59.4684H139.227V45.2554H153.44V49.9931H147.565C151.379 55.702 157.893 59.4684 165.284 59.4684C170.938 59.4684 176.361 57.2223 180.359 53.2241C184.357 49.2259 186.603 43.8032 186.603 38.1489H191.341C191.341 52.5514 179.686 64.2061 165.284 64.2061C156.472 64.2061 148.678 59.8237 143.964 53.1436V59.4684ZM139.227 38.1489C139.227 23.7464 150.881 12.0918 165.284 12.0918C174.096 12.0918 181.889 16.4741 186.603 23.1542V16.8295H191.341V31.0424H177.128V26.3048H183.003C179.189 20.5959 172.674 16.8295 165.284 16.8295C159.629 16.8295 154.207 19.0756 150.209 23.0738C146.21 27.072 143.964 32.4947 143.964 38.1489H139.227Z" fill="#CED2D8"/>
    </g>
    <defs>
        <clipPath id="clip0_9010_99630">
            <rect width="209" height="76" fill="white"/>
        </clipPath>
    </defs>
</svg>
