<svg width="130" height="130" viewBox="0 0 130 130" fill="none" xmlns="http://www.w3.org/2000/svg">
<g clip-path="url(#clip0_9332_299281)">
<path d="M65 130C100.899 130 130 100.898 130 65C130 29.1015 100.899 0 65 0C29.1015 0 0 29.1015 0 65C0 100.898 29.1015 130 65 130Z" fill="url(#paint0_radial_9332_299281)"/>
<path d="M93.0019 98.3802C79.761 96.1734 45.7884 83.2714 38.8025 49.0976C35.3081 32.5389 38.6074 8.31943 38.6074 8.31943C12.7197 20.2171 -2.59032 48.6938 3.34713 77.9351C10.333 112.109 43.9149 134.387 78.2884 127.443C96.0063 123.972 110.203 113.45 119.451 99.3919C114.841 101.491 106.243 100.587 93.0019 98.3802Z" fill="url(#paint1_linear_9332_299281)"/>
<path fill-rule="evenodd" clip-rule="evenodd" d="M64.6574 7.93506L16.2616 34.6271V34.8355L22.1849 38.5125V38.4765L64.6574 14.417L107.13 38.4765V60.1776C107.13 67.6931 106.755 72.6659 104.562 78.5076L99.1349 74.9325C98.385 74.4384 97.4144 75.1066 97.6083 75.9835L101.133 91.9241C101.281 92.5927 102.042 92.9183 102.628 92.5636L116.055 84.4337C116.804 83.9803 116.65 82.8518 115.807 82.6154L110.061 81.0041C112.575 74.375 113.053 68.5525 113.053 60.1776V34.6271L64.6574 7.93506Z" fill="url(#paint2_linear_9332_299281)"/>
<path fill-rule="evenodd" clip-rule="evenodd" d="M22.2148 34.2989C21.8975 33.6922 21.078 33.5766 20.6053 34.0719L9.33317 45.8816C8.71312 46.5312 9.1972 47.6055 10.0946 47.5713L16.562 47.3251V60.2355C16.562 89.4315 36.6477 116.855 63.9796 123.553L64.6781 123.724L65.3766 123.553C82.7083 119.305 97.6408 106.057 105.871 89.9749L100.852 86.8523C93.4942 101.491 80.0489 113.624 64.6781 117.635C40.5612 111.341 22.451 86.6977 22.451 60.2355L22.4483 47.999L28.3353 49.6351C29.1786 49.8695 29.8948 48.9839 29.4892 48.2082L22.2148 34.2989Z" fill="url(#paint3_linear_9332_299281)"/>
<path d="M52.3956 76.4226V81.25H36.4075V76.4226H52.3956ZM38.4292 51.2129V81.25H32.2402V51.2129H38.4292ZM50.312 63.4464V68.15H36.4075V63.4464H50.312ZM52.375 51.2129V56.0609H36.4075V51.2129H52.375Z" fill="white"/>
<path d="M65.6235 51.2129V81.25H59.4552V51.2129H65.6235ZM74.8657 51.2129V56.0609H50.3574V51.2129H74.8657Z" fill="white"/>
<path d="M89.4758 73.39C89.4758 72.8536 89.3933 72.3723 89.2282 71.9459C89.0769 71.5058 88.7881 71.107 88.3618 70.7494C87.9354 70.3781 87.3371 70.0136 86.567 69.656C85.7968 69.2984 84.7997 68.9271 83.5756 68.542C82.2141 68.1019 80.9213 67.6068 79.6972 67.0566C78.4869 66.5065 77.4142 65.867 76.479 65.1381C75.5575 64.3954 74.8286 63.5358 74.2922 62.5593C73.7696 61.5828 73.5083 60.4482 73.5083 59.1554C73.5083 57.9038 73.7833 56.7692 74.3334 55.7515C74.8836 54.72 75.6538 53.8398 76.644 53.1108C77.6342 52.3682 78.8033 51.7974 80.1511 51.3986C81.5126 50.9997 83.0049 50.8003 84.6278 50.8003C86.842 50.8003 88.7744 51.1991 90.4248 51.9968C92.0751 52.7945 93.3542 53.8879 94.2619 55.277C95.1834 56.6661 95.6441 58.2546 95.6441 60.0425H89.4964C89.4964 59.1623 89.3107 58.3921 88.9394 57.7319C88.5818 57.058 88.0317 56.5285 87.289 56.1434C86.5601 55.7583 85.6386 55.5658 84.5246 55.5658C83.4519 55.5658 82.5579 55.7308 81.8427 56.0609C81.1276 56.3772 80.5912 56.8105 80.2336 57.3606C79.876 57.897 79.6972 58.5021 79.6972 59.176C79.6972 59.6849 79.821 60.1456 80.0686 60.5582C80.3299 60.9708 80.715 61.3559 81.2238 61.7135C81.7327 62.0711 82.3585 62.408 83.1011 62.7244C83.8438 63.0407 84.7034 63.3501 85.6799 63.6527C87.3165 64.1478 88.7537 64.7048 89.9915 65.3237C91.2431 65.9426 92.2883 66.6372 93.1273 67.4073C93.9662 68.1775 94.5989 69.0509 95.0252 70.0273C95.4516 71.0038 95.6647 72.111 95.6647 73.3488C95.6647 74.6553 95.4103 75.8243 94.9014 76.8558C94.3926 77.8873 93.6568 78.7607 92.694 79.4758C91.7313 80.191 90.5829 80.7343 89.2489 81.1056C87.9148 81.4769 86.4226 81.6626 84.7722 81.6626C83.2868 81.6626 81.8221 81.4701 80.378 81.085C78.9339 80.6861 77.6205 80.0878 76.4377 79.2902C75.2687 78.4925 74.3334 77.4747 73.632 76.2369C72.9306 74.9991 72.5799 73.5344 72.5799 71.8428H78.7895C78.7895 72.778 78.9339 73.5688 79.2227 74.2152C79.5115 74.8616 79.9173 75.3842 80.4399 75.7831C80.9763 76.1819 81.6089 76.4707 82.3378 76.6495C83.0805 76.8283 83.892 76.9177 84.7722 76.9177C85.8449 76.9177 86.7251 76.7664 87.4128 76.4639C88.1142 76.1613 88.63 75.7418 88.96 75.2054C89.3039 74.6691 89.4758 74.0639 89.4758 73.39Z" fill="white"/>
</g>
<defs>
<radialGradient id="paint0_radial_9332_299281" cx="0" cy="0" r="1" gradientUnits="userSpaceOnUse" gradientTransform="translate(130 -18.2) rotate(131.262) scale(162.131)">
<stop stop-color="#FBFAF5"/>
<stop offset="0.289222" stop-color="#D4FFFF"/>
<stop offset="0.527498" stop-color="#3D86F4"/>
<stop offset="0.738019" stop-color="#04228D"/>
</radialGradient>
<linearGradient id="paint1_linear_9332_299281" x1="21.4363" y1="108.366" x2="74.4" y2="63.2841" gradientUnits="userSpaceOnUse">
<stop stop-color="#8247E5"/>
<stop offset="1" stop-color="#8247E5" stop-opacity="0"/>
</linearGradient>
<linearGradient id="paint2_linear_9332_299281" x1="94.685" y1="1.2601" x2="30.3751" y2="31.1743" gradientUnits="userSpaceOnUse">
<stop offset="0.445694" stop-color="white"/>
<stop offset="1" stop-color="white" stop-opacity="0"/>
</linearGradient>
<linearGradient id="paint3_linear_9332_299281" x1="32.1728" y1="141.673" x2="102.165" y2="101.098" gradientUnits="userSpaceOnUse">
<stop offset="0.559619" stop-color="white"/>
<stop offset="0.918509" stop-color="white" stop-opacity="0"/>
</linearGradient>
<clipPath id="clip0_9332_299281">
<rect width="130" height="130" rx="65" fill="white"/>
</clipPath>
</defs>
</svg>
