<?xml version="1.0" encoding="UTF-8"?>
<!DOCTYPE svg PUBLIC "-//W3C//DTD SVG 1.1//EN" "http://www.w3.org/Graphics/SVG/1.1/DTD/svg11.dtd">
<svg xmlns="http://www.w3.org/2000/svg" version="1.1" width="437px" height="194px" style="shape-rendering:geometricPrecision; text-rendering:geometricPrecision; image-rendering:optimizeQuality; fill-rule:evenodd; clip-rule:evenodd" xmlns:xlink="http://www.w3.org/1999/xlink">
<g><path style="opacity:0.986" fill="#d6d9de" d="M 13.5,-0.5 C 149.833,-0.5 286.167,-0.5 422.5,-0.5C 429.167,2.16667 433.833,6.83333 436.5,13.5C 436.5,68.8333 436.5,124.167 436.5,179.5C 433.833,186.167 429.167,190.833 422.5,193.5C 286.167,193.5 149.833,193.5 13.5,193.5C 6.83333,190.833 2.16667,186.167 -0.5,179.5C -0.5,124.167 -0.5,68.8333 -0.5,13.5C 2.16667,6.83333 6.83333,2.16667 13.5,-0.5 Z"/></g>
<g><path style="opacity:1" fill="#1e2129" d="M 417.5,1.5 C 400.609,2.26067 394.109,10.9273 398,27.5C 407.918,40.7433 417.918,40.7433 428,27.5C 431.68,16.6915 428.513,8.52486 418.5,3C 419.094,2.53566 419.761,2.36899 420.5,2.5C 427.309,3.80476 431.809,7.80476 434,14.5C 434.667,68.8333 434.667,123.167 434,177.5C 433.058,182.758 430.224,186.424 425.5,188.5C 424.668,166.337 424.168,144.004 424,121.5C 422.542,119.04 420.709,116.873 418.5,115C 351.543,113.84 284.543,113.34 217.5,113.5C 151.833,113.667 86.1667,113.833 20.5,114C 17.3333,115.833 14.8333,118.333 13,121.5C 12.5,144.164 12.3334,166.831 12.5,189.5C 6.74481,187.572 3.24481,183.572 2,177.5C 1.33333,123.167 1.33333,68.8333 2,14.5C 4.16667,8.33333 8.33333,4.16667 14.5,2C 148.833,1.5 283.166,1.33333 417.5,1.5 Z"/></g>
<g><path style="opacity:1" fill="#2d333e" d="M 364.5,2.5 C 373.052,2.19136 379.219,5.85802 383,13.5C 384.671,33.0748 376.171,39.9082 357.5,34C 347.667,23.3239 348.334,13.3239 359.5,4C 361.382,3.80192 363.048,3.30192 364.5,2.5 Z"/></g>
<g><path style="opacity:1" fill="#2b303b" d="M 417.5,1.5 C 418.791,1.26269 419.791,1.59603 420.5,2.5C 419.761,2.36899 419.094,2.53566 418.5,3C 428.513,8.52486 431.68,16.6915 428,27.5C 417.918,40.7433 407.918,40.7433 398,27.5C 394.109,10.9273 400.609,2.26067 417.5,1.5 Z"/></g>
<g><path style="opacity:1" fill="#e3e3e5" d="M 184.5,11.5 C 187.187,11.3359 189.854,11.5026 192.5,12C 193.804,12.804 194.471,13.9707 194.5,15.5C 194.371,18.8033 194.037,22.1366 193.5,25.5C 190.579,26.4066 187.579,26.7399 184.5,26.5C 184.5,21.5 184.5,16.5 184.5,11.5 Z"/></g>
<g><path style="opacity:1" fill="#f5f6f6" d="M 204.5,11.5 C 205.833,11.5 206.5,12.1667 206.5,13.5C 206.5,12.1667 205.833,11.5 204.5,11.5 Z"/></g>
<g><path style="opacity:1" fill="#e4e5e7" d="M 410.5,11.5 C 412.167,11.5 413.833,11.5 415.5,11.5C 415.5,12.5 415.5,13.5 415.5,14.5C 417.144,14.2865 418.644,14.6198 420,15.5C 419.598,17.8739 419.764,20.2072 420.5,22.5C 418.731,24.557 416.731,26.3903 414.5,28C 413.207,28.49 411.873,28.6567 410.5,28.5C 410.5,27.5 410.5,26.5 410.5,25.5C 408.052,25.9899 406.385,25.1566 405.5,23C 406.332,20.5217 406.499,18.0217 406,15.5C 407.356,14.6198 408.856,14.2865 410.5,14.5C 410.5,13.5 410.5,12.5 410.5,11.5 Z"/></g>
<g><path style="opacity:1" fill="#e1e2e4" d="M 363.5,11.5 C 373.217,11.0365 376.717,15.3698 374,24.5C 370.302,29.1578 366.469,29.4911 362.5,25.5C 365.002,25.3787 367.668,25.2121 370.5,25C 374.644,21.0214 374.31,17.3547 369.5,14C 367.833,13.3333 366.167,13.3333 364.5,14C 363.167,15 363.167,16 364.5,17C 362.866,17.4935 361.199,17.6602 359.5,17.5C 359.215,15.712 359.548,14.0453 360.5,12.5C 361.922,13.7768 362.922,13.4435 363.5,11.5 Z"/></g>
<g><path style="opacity:1" fill="#30343c" d="M 187.5,14.5 C 188.833,14.5 190.167,14.5 191.5,14.5C 191.5,15.5 191.5,16.5 191.5,17.5C 190.167,17.5 188.833,17.5 187.5,17.5C 187.5,16.5 187.5,15.5 187.5,14.5 Z"/></g>
<g><path style="opacity:1" fill="#e9eaeb" d="M 202.5,15.5 C 202.5,16.1667 202.5,16.8333 202.5,17.5C 201.791,18.404 200.791,18.7373 199.5,18.5C 199.5,21.1667 199.5,23.8333 199.5,26.5C 198.5,26.5 197.5,26.5 196.5,26.5C 196.5,22.8333 196.5,19.1667 196.5,15.5C 198.5,15.5 200.5,15.5 202.5,15.5 Z"/></g>
<g><path style="opacity:1" fill="#73767c" d="M 204.5,11.5 C 204.5,12.8333 205.167,13.5 206.5,13.5C 205.833,14.1667 205.167,14.8333 204.5,15.5C 204.5,19.1667 204.5,22.8333 204.5,26.5C 203.833,23.5 203.167,20.5 202.5,17.5C 202.5,16.8333 202.5,16.1667 202.5,15.5C 203.167,14.1667 203.833,12.8333 204.5,11.5 Z"/></g>
<g><path style="opacity:1" fill="#f9f9fa" d="M 204.5,15.5 C 205.787,16.8714 206.453,18.7047 206.5,21C 206.453,23.2953 205.787,25.1286 204.5,26.5C 204.5,22.8333 204.5,19.1667 204.5,15.5 Z"/></g>
<g><path style="opacity:1" fill="#e6e7e9" d="M 215.5,11.5 C 216.5,11.5 217.5,11.5 218.5,11.5C 218.5,16.5 218.5,21.5 218.5,26.5C 210.509,28.34 207.342,25.34 209,17.5C 210.789,15.771 212.956,15.1043 215.5,15.5C 215.5,14.1667 215.5,12.8333 215.5,11.5 Z"/></g>
<g><path style="opacity:1" fill="#e8e8ea" d="M 221.5,15.5 C 224.654,16.0946 227.654,16.0946 230.5,15.5C 230.666,19.8461 230.499,24.1794 230,28.5C 226.616,31.3206 223.45,31.154 220.5,28C 222.035,27.5038 223.535,27.6705 225,28.5C 226.28,28.3865 227.113,27.7199 227.5,26.5C 225.35,26.85 223.183,26.1834 221,24.5C 220.366,21.4453 220.532,18.4453 221.5,15.5 Z"/></g>
<g><path style="opacity:1" fill="#e1e2e4" d="M 366.5,15.5 C 367.649,15.7911 368.316,16.6244 368.5,18C 369.166,19.6687 369.166,21.1687 368.5,22.5C 367.914,22.2907 367.414,21.9574 367,21.5C 366.505,19.5273 366.338,17.5273 366.5,15.5 Z"/></g>
<g><path style="opacity:1" fill="#dfe0e2" d="M 241.5,21.5 C 239.076,21.1924 236.743,21.5258 234.5,22.5C 234.887,23.7199 235.72,24.3865 237,24.5C 238.44,23.8524 239.94,23.5191 241.5,23.5C 239.947,26.254 237.614,27.0874 234.5,26C 229.934,21.0989 230.767,17.5989 237,15.5C 240.562,15.901 242.062,17.901 241.5,21.5 Z"/></g>
<g><path style="opacity:1" fill="#363941" d="M 212.5,17.5 C 213.496,17.4142 214.329,17.7476 215,18.5C 215.494,20.1341 215.66,21.8008 215.5,23.5C 214.167,23.5 212.833,23.5 211.5,23.5C 211.325,21.3792 211.659,19.3792 212.5,17.5 Z"/></g>
<g><path style="opacity:1" fill="#2e3139" d="M 223.5,18.5 C 224.833,18.5 226.167,18.5 227.5,18.5C 228.244,21.9496 226.91,23.6162 223.5,23.5C 223.5,21.8333 223.5,20.1667 223.5,18.5 Z"/></g>
<g><path style="opacity:1" fill="#3d424c" d="M 410.5,17.5 C 414.138,16.7366 415.638,18.0699 415,21.5C 411.331,23.0093 409.831,21.6759 410.5,17.5 Z"/></g>
<g><path style="opacity:1" fill="#21252d" d="M 187.5,20.5 C 188.833,20.5 190.167,20.5 191.5,20.5C 191.5,21.5 191.5,22.5 191.5,23.5C 190.167,23.5 188.833,23.5 187.5,23.5C 187.5,22.5 187.5,21.5 187.5,20.5 Z"/></g>
<g><path style="opacity:1" fill="#76797f" d="M 241.5,21.5 C 241.5,22.1667 241.5,22.8333 241.5,23.5C 239.94,23.5191 238.44,23.8524 237,24.5C 235.72,24.3865 234.887,23.7199 234.5,22.5C 236.743,21.5258 239.076,21.1924 241.5,21.5 Z"/></g>
<g><path style="opacity:1" fill="#c63d8c" d="M 178.5,59.5 C 201.82,64.8298 225.154,70.1631 248.5,75.5C 249.442,75.3918 250.275,75.0585 251,74.5C 251.696,71.5219 252.196,68.5219 252.5,65.5C 253.552,65.3505 254.552,65.5172 255.5,66C 261.5,72 267.5,78 273.5,84C 265.038,87.3203 256.372,90.1536 247.5,92.5C 247.306,88.8849 247.973,85.2182 249.5,81.5C 225.885,75.6798 202.219,70.0132 178.5,64.5C 178.5,62.8333 178.5,61.1667 178.5,59.5 Z"/></g>
<g><path style="opacity:1" fill="#ce3f91" d="M 274.5,61.5 C 327.167,61.5 379.833,61.5 432.5,61.5C 432.5,76.5 432.5,91.5 432.5,106.5C 379.833,106.5 327.167,106.5 274.5,106.5C 274.5,91.5 274.5,76.5 274.5,61.5 Z"/></g>
<g><path style="opacity:1" fill="#1e2129" d="M 279.5,66.5 C 328.833,66.5 378.167,66.5 427.5,66.5C 427.5,78.1667 427.5,89.8333 427.5,101.5C 378.167,101.5 328.833,101.5 279.5,101.5C 279.5,89.8333 279.5,78.1667 279.5,66.5 Z"/></g>
<g><path style="opacity:1" fill="#3f4758" d="M 306.5,69.5 C 344.168,69.3333 381.835,69.5 419.5,70C 422,71.1667 423.833,73 425,75.5C 425.667,80.8333 425.667,86.1667 425,91.5C 423.935,94.1518 422.102,95.9852 419.5,97C 381.5,97.6667 343.5,97.6667 305.5,97C 301.967,93.5015 300.634,89.1681 301.5,84C 301.667,80.8333 301.833,77.6667 302,74.5C 303.025,72.313 304.525,70.6464 306.5,69.5 Z"/></g>
<g><path style="opacity:1" fill="#d6d7da" d="M 12.5,77.5 C 15.2469,77.1866 17.9135,77.52 20.5,78.5C 18.9547,79.4519 17.288,79.7852 15.5,79.5C 15.5,80.8333 15.5,82.1667 15.5,83.5C 20.8333,84.1667 20.8333,84.8333 15.5,85.5C 15.5,87.1667 15.5,88.8333 15.5,90.5C 14.5,90.5 13.5,90.5 12.5,90.5C 12.5,86.1667 12.5,81.8333 12.5,77.5 Z"/></g>
<g><path style="opacity:1" fill="#b6c6e6" d="M 393.5,77.5 C 394.794,79.0478 395.461,81.0478 395.5,83.5C 395.167,85.5 394.833,87.5 394.5,89.5C 393.509,85.5546 393.176,81.5546 393.5,77.5 Z"/></g>
<g><path style="opacity:1" fill="#9aa9c6" d="M 397.5,77.5 C 398.794,79.0478 399.461,81.0478 399.5,83.5C 399.167,85.5 398.833,87.5 398.5,89.5C 397.509,85.5546 397.176,81.5546 397.5,77.5 Z"/></g>
<g><path style="opacity:1" fill="#a8b7d6" d="M 364.5,78.5 C 366.078,79.0656 367.412,80.0656 368.5,81.5C 365.833,83.8333 365.833,86.1667 368.5,88.5C 367.349,89.731 366.183,89.731 365,88.5C 364.028,85.0867 363.862,81.7534 364.5,78.5 Z"/></g>
<g><path style="opacity:1" fill="#9eacc9" d="M 408.5,82.5 C 409.302,77.6934 410.968,77.3601 413.5,81.5C 412.167,83.8333 412.167,86.1667 413.5,88.5C 412.349,89.731 411.183,89.731 410,88.5C 409.809,86.2922 409.309,84.2922 408.5,82.5 Z"/></g>
<g><path style="opacity:1" fill="#e8e9ea" d="M 26.5,80.5 C 27.0431,80.56 27.3764,80.8933 27.5,81.5C 26.7579,82.2868 25.9246,82.9535 25,83.5C 24.8142,85.9005 24.3142,88.2338 23.5,90.5C 22.5159,87.5719 22.1826,84.5719 22.5,81.5C 24.099,81.7678 25.4324,81.4345 26.5,80.5 Z"/></g>
<g><path style="opacity:1" fill="#72767d" d="M 44.5,81.5 C 42.5,81.5 40.5,81.5 38.5,81.5C 38.5,84.5 38.5,87.5 38.5,90.5C 37.8333,89.1667 37.1667,87.8333 36.5,86.5C 36.5,86.1667 36.5,85.8333 36.5,85.5C 37.4511,84.0813 37.7845,82.4147 37.5,80.5C 40.0593,80.1984 42.3926,80.5318 44.5,81.5 Z"/></g>
<g><path style="opacity:1" fill="#a8b7d6" d="M 330.5,80.5 C 337.359,79.8733 339.359,82.8733 336.5,89.5C 335.526,87.2573 335.192,84.924 335.5,82.5C 334.5,82.5 333.5,82.5 332.5,82.5C 332.808,84.924 332.474,87.2573 331.5,89.5C 330.516,86.5719 330.183,83.5719 330.5,80.5 Z"/></g>
<g><path style="opacity:1" fill="#909db9" d="M 338.5,80.5 C 345.065,79.422 347.232,82.0886 345,88.5C 342.746,80.3151 341.579,80.6485 341.5,89.5C 340.5,89.5 339.5,89.5 338.5,89.5C 338.5,86.5 338.5,83.5 338.5,80.5 Z"/></g>
<g><path style="opacity:1" fill="#e5e5e7" d="M 38.5,90.5 C 38.5,87.5 38.5,84.5 38.5,81.5C 40.5,81.5 42.5,81.5 44.5,81.5C 46.9909,79.8323 49.1575,80.1656 51,82.5C 51.4974,85.146 51.6641,87.8127 51.5,90.5C 50.5,90.5 49.5,90.5 48.5,90.5C 48.5,88.1667 48.5,85.8333 48.5,83.5C 47.5,83.5 46.5,83.5 45.5,83.5C 45.8076,85.924 45.4742,88.2573 44.5,90.5C 43.8953,87.6957 43.062,85.029 42,82.5C 41.2514,85.5026 40.0848,88.1693 38.5,90.5 Z"/></g>
<g><path style="opacity:1" fill="#a1b0ce" d="M 386.5,80.5 C 388.722,80.178 390.556,80.8446 392,82.5C 392.497,84.8098 392.663,87.1432 392.5,89.5C 390.473,89.6621 388.473,89.4955 386.5,89C 385.62,87.6439 385.286,86.1439 385.5,84.5C 386.978,84.762 388.311,84.4287 389.5,83.5C 388.609,82.4104 387.609,82.4104 386.5,83.5C 385.438,82.5754 385.438,81.5754 386.5,80.5 Z"/></g>
<g><path style="opacity:1" fill="#a5b4d3" d="M 408.5,82.5 C 408.5,83.5 408.5,84.5 408.5,85.5C 406.473,85.3379 404.473,85.5045 402.5,86C 404.078,87.1405 405.744,87.6405 407.5,87.5C 403.937,90.5205 401.604,89.6872 400.5,85C 401.863,80.1579 404.53,79.3245 408.5,82.5 Z"/></g>
<g><path style="opacity:1" fill="#acbbda" d="M 349.5,80.5 C 352.833,80.5 354.5,82.1667 354.5,85.5C 352.712,85.2148 351.045,85.5481 349.5,86.5C 350.776,87.6446 352.109,87.6446 353.5,86.5C 354.711,87.2739 354.711,88.1072 353.5,89C 349.833,90.0732 347.833,88.7399 347.5,85C 347.519,83.167 348.185,81.667 349.5,80.5 Z"/></g>
<g><path style="opacity:1" fill="#abbad9" d="M 373.5,80.5 C 375.045,81.2297 375.878,82.563 376,84.5C 377.667,79.1667 379.333,79.1667 381,84.5C 381.309,83.2341 381.809,82.0674 382.5,81C 383.332,80.3123 383.998,80.479 384.5,81.5C 383.803,84.2903 382.803,86.9569 381.5,89.5C 379.931,88.286 379.098,86.6193 379,84.5C 378.02,86.0589 377.187,87.7256 376.5,89.5C 374.441,86.9618 373.441,83.9618 373.5,80.5 Z"/></g>
<g><path style="opacity:1" fill="#abbad9" d="M 322.5,80.5 C 328.191,80.5544 329.858,83.2211 327.5,88.5C 325.833,89.8333 324.167,89.8333 322.5,88.5C 321.297,85.8401 321.297,83.1735 322.5,80.5 Z"/></g>
<g><path style="opacity:1" fill="#485062" d="M 323.5,82.5 C 324.5,82.5 325.5,82.5 326.5,82.5C 326.5,84.1667 326.5,85.8333 326.5,87.5C 325.5,87.5 324.5,87.5 323.5,87.5C 323.5,85.8333 323.5,84.1667 323.5,82.5 Z"/></g>
<g><path style="opacity:1" fill="#e9eaeb" d="M 36.5,85.5 C 36.5,85.8333 36.5,86.1667 36.5,86.5C 35.4665,90.3172 33.1332,91.3172 29.5,89.5C 28.4557,87.2324 28.289,84.8991 29,82.5C 33.1615,79.3323 35.6615,80.3323 36.5,85.5 Z"/></g>
<g><path style="opacity:1" fill="#2d3038" d="M 31.5,82.5 C 34.5131,83.3559 35.1797,85.1892 33.5,88C 32.552,88.4828 31.552,88.6495 30.5,88.5C 30.3253,86.3792 30.6586,84.3792 31.5,82.5 Z"/></g>
<g><path style="opacity:1" fill="#acbbdb" d="M 314.5,80.5 C 317.022,80.1281 319.022,80.9614 320.5,83C 318.893,82.9813 317.226,82.8146 315.5,82.5C 315.5,84.1667 315.5,85.8333 315.5,87.5C 317.226,87.1854 318.893,87.0187 320.5,87C 318.484,90.015 316.317,90.1816 314,87.5C 313.297,85.0709 313.463,82.7375 314.5,80.5 Z"/></g>
<g><path style="opacity:1" fill="#a8b7d6" d="M 357.5,80.5 C 359.665,80.1159 361.332,80.7826 362.5,82.5C 361.609,83.5896 360.609,83.5896 359.5,82.5C 356.833,84.1667 356.833,85.8333 359.5,87.5C 361.936,86.1091 362.602,86.6091 361.5,89C 358.783,90.033 356.949,89.1997 356,86.5C 355.252,84.1599 355.752,82.1599 357.5,80.5 Z"/></g>
<g><path style="opacity:1" fill="#292f3a" d="M 425.5,188.5 C 424.158,189.793 422.491,190.626 420.5,191C 294.5,191.5 168.5,191.667 42.5,191.5C 42.1979,184.368 38.5312,181.535 31.5,183C 29.2132,185.07 27.5466,187.57 26.5,190.5C 24.5,190.833 22.5,191.167 20.5,191.5C 17.4733,191.713 14.8066,191.047 12.5,189.5C 12.3334,166.831 12.5,144.164 13,121.5C 14.8333,118.333 17.3333,115.833 20.5,114C 86.1667,113.833 151.833,113.667 217.5,113.5C 284.543,113.34 351.543,113.84 418.5,115C 420.709,116.873 422.542,119.04 424,121.5C 424.168,144.004 424.668,166.337 425.5,188.5 Z"/></g>
<g><path style="opacity:1" fill="#3f4656" d="M 30.5,124.5 C 100.167,124.333 169.834,124.5 239.5,125C 241.848,125.346 243.681,126.513 245,128.5C 245.667,138.5 245.667,148.5 245,158.5C 244.167,160.667 242.667,162.167 240.5,163C 170.167,163.667 99.8333,163.667 29.5,163C 27.3834,161.269 25.8834,159.102 25,156.5C 24.3333,147.833 24.3333,139.167 25,130.5C 26.3597,127.977 28.193,125.977 30.5,124.5 Z"/></g>
<g><path style="opacity:1" fill="#3e4656" d="M 259.5,124.5 C 308.501,124.333 357.501,124.5 406.5,125C 409,126.167 410.833,128 412,130.5C 412.667,139.5 412.667,148.5 412,157.5C 410.74,160.428 408.573,162.261 405.5,163C 356.833,163.667 308.167,163.667 259.5,163C 256.898,162.065 255.398,160.232 255,157.5C 254.333,148.167 254.333,138.833 255,129.5C 256.025,127.313 257.525,125.646 259.5,124.5 Z"/></g>
<g><path style="opacity:1" fill="#e63633" d="M 40.5,128.5 C 53.6466,129.451 59.1466,136.451 57,149.5C 50.7938,160.13 42.7938,161.796 33,154.5C 26.3718,143.057 28.8718,134.39 40.5,128.5 Z"/></g>
<g><path style="opacity:1" fill="#0f2248" d="M 270.5,128.5 C 285.307,130.445 290.14,138.445 285,152.5C 277,161.833 269,161.833 261,152.5C 256.33,141.284 259.497,133.284 270.5,128.5 Z"/></g>
<g><path style="opacity:1" fill="#479642" d="M 276.5,132.5 C 272.212,132.509 268.212,133.343 264.5,135C 268.11,131.705 272.11,130.871 276.5,132.5 Z"/></g>
<g><path style="opacity:1" fill="#428e42" d="M 276.5,132.5 C 282.243,134.087 285.243,137.92 285.5,144C 285.083,146.498 284.749,148.998 284.5,151.5C 283.5,151.5 282.5,151.5 281.5,151.5C 285.374,143.585 283.708,137.252 276.5,132.5 Z"/></g>
<g><path style="opacity:1" fill="#d3d5d8" d="M 120.5,135.5 C 121.5,135.5 122.5,135.5 123.5,135.5C 122.754,139.31 121.754,139.31 120.5,135.5 Z"/></g>
<g><path style="opacity:1" fill="#e7e8e9" d="M 322.5,135.5 C 333.377,134.866 336.377,139.366 331.5,149C 328.649,150.289 325.649,150.789 322.5,150.5C 322.5,145.5 322.5,140.5 322.5,135.5 Z"/></g>
<g><path style="opacity:1" fill="#e2e3e5" d="M 93.5,136.5 C 94.5,136.5 95.5,136.5 96.5,136.5C 96.4802,138.143 97.1468,139.476 98.5,140.5C 95.8333,143.5 95.8333,146.5 98.5,149.5C 96.6531,150.83 95.1531,150.497 94,148.5C 93.0029,144.428 92.8362,140.428 93.5,136.5 Z"/></g>
<g><path style="opacity:1" fill="#464d5d" d="M 325.5,138.5 C 331.749,139.099 333.082,142.099 329.5,147.5C 328.264,148.246 326.93,148.579 325.5,148.5C 325.5,145.167 325.5,141.833 325.5,138.5 Z"/></g>
<g><path style="opacity:1" fill="#ebeced" d="M 70.5,135.5 C 78.44,135.682 81.2733,139.682 79,147.5C 75.3333,151.5 71.6667,151.5 68,147.5C 66.7734,142.938 67.6067,138.938 70.5,135.5 Z"/></g>
<g><path style="opacity:1" fill="#4b5261" d="M 71.5,138.5 C 75.2947,137.959 77.2947,139.625 77.5,143.5C 74.2628,150.313 71.5962,150.147 69.5,143C 69.5186,141.167 70.1852,139.667 71.5,138.5 Z"/></g>
<g><path style="opacity:1" fill="#cbced4" d="M 274.5,150.5 C 273.778,150.918 273.278,151.584 273,152.5C 271.64,150.895 270.14,149.395 268.5,148C 269.094,147.536 269.761,147.369 270.5,147.5C 272.035,148.788 273.701,148.788 275.5,147.5C 273.694,145.392 271.527,143.726 269,142.5C 268.333,141.5 268.333,140.5 269,139.5C 270.57,138.386 271.903,137.053 273,135.5C 274.067,136.943 275.234,138.276 276.5,139.5C 274.78,139.746 272.78,139.746 270.5,139.5C 270.281,140.675 270.614,141.675 271.5,142.5C 275.386,142.876 277.22,144.876 277,148.5C 276.583,149.756 275.75,150.423 274.5,150.5 Z"/></g>
<g><path style="opacity:1" fill="#e3e4e6" d="M 339.5,138.5 C 341.176,139.183 341.843,140.517 341.5,142.5C 346.833,143.167 346.833,143.833 341.5,144.5C 340.833,149.833 340.167,149.833 339.5,144.5C 338.5,144.5 337.5,144.5 336.5,144.5C 336.5,143.5 336.5,142.5 336.5,141.5C 337.5,141.5 338.5,141.5 339.5,141.5C 339.5,140.5 339.5,139.5 339.5,138.5 Z"/></g>
<g><path style="opacity:1" fill="#fdeae9" d="M 43.5,143.5 C 42.596,144.209 42.2627,145.209 42.5,146.5C 40.7354,147.461 38.7354,147.795 36.5,147.5C 35.4992,141.836 37.8325,139.502 43.5,140.5C 43.5,141.5 43.5,142.5 43.5,143.5 Z"/></g>
<g><path style="opacity:1" fill="#979aa2" d="M 100.5,139.5 C 100.5,143.167 100.5,146.833 100.5,150.5C 99.5128,145.695 99.1795,140.695 99.5,135.5C 100.5,135.5 101.5,135.5 102.5,135.5C 102.473,137.199 101.806,138.533 100.5,139.5 Z"/></g>
<g><path style="opacity:1" fill="#e7e8ea" d="M 100.5,139.5 C 101.787,140.871 102.453,142.705 102.5,145C 102.453,147.295 101.787,149.129 100.5,150.5C 100.5,146.833 100.5,143.167 100.5,139.5 Z"/></g>
<g><path style="opacity:1" fill="#e5e6e8" d="M 104.5,139.5 C 108.939,139.932 113.272,140.099 117.5,140C 118.791,143.455 118.791,146.955 117.5,150.5C 116.516,147.572 116.183,144.572 116.5,141.5C 115.5,141.5 114.5,141.5 113.5,141.5C 113.5,144.5 113.5,147.5 113.5,150.5C 112.5,150.5 111.5,150.5 110.5,150.5C 110.5,147.5 110.5,144.5 110.5,141.5C 109.5,141.5 108.5,141.5 107.5,141.5C 107.5,144.5 107.5,147.5 107.5,150.5C 106.5,150.5 105.5,150.5 104.5,150.5C 104.5,146.833 104.5,143.167 104.5,139.5 Z"/></g>
<g><path style="opacity:1" fill="#f0f0f1" d="M 121.5,139.5 C 122.787,140.871 123.453,142.705 123.5,145C 123.167,146.833 122.833,148.667 122.5,150.5C 121.511,146.893 121.177,143.226 121.5,139.5 Z"/></g>
<g><path style="opacity:1" fill="#e1e2e4" d="M 135.5,139.5 C 139.939,139.932 144.272,140.099 148.5,140C 150.263,143.243 150.929,146.743 150.5,150.5C 149.5,150.5 148.5,150.5 147.5,150.5C 147.5,147.5 147.5,144.5 147.5,141.5C 146.5,141.5 145.5,141.5 144.5,141.5C 144.5,144.5 144.5,147.5 144.5,150.5C 143.5,150.5 142.5,150.5 141.5,150.5C 141.5,147.5 141.5,144.5 141.5,141.5C 140.5,141.5 139.5,141.5 138.5,141.5C 138.5,144.5 138.5,147.5 138.5,150.5C 137.5,150.5 136.5,150.5 135.5,150.5C 135.5,146.833 135.5,143.167 135.5,139.5 Z"/></g>
<g><path style="opacity:1" fill="#e5e6e8" d="M 127.5,139.5 C 129.977,139.051 131.977,139.717 133.5,141.5C 131.883,141.669 130.216,142.003 128.5,142.5C 129.655,143.95 131.155,144.95 133,145.5C 133.72,147.112 133.554,148.612 132.5,150C 130.5,150.667 128.5,150.667 126.5,150C 126.043,149.586 125.709,149.086 125.5,148.5C 127.216,148.003 128.883,147.669 130.5,147.5C 125.48,146.032 124.48,143.365 127.5,139.5 Z"/></g>
<g><path style="opacity:1" fill="#f05f59" d="M 39.5,141.5 C 42.0628,142.998 42.0628,144.665 39.5,146.5C 38.3336,144.833 38.3336,143.166 39.5,141.5 Z"/></g>
<g><path style="opacity:1" fill="#fcbfbd" d="M 42.5,146.5 C 42.2627,145.209 42.596,144.209 43.5,143.5C 43.369,144.239 43.5357,144.906 44,145.5C 43.4712,140.357 45.6379,138.524 50.5,140C 51.0219,140.561 51.3552,141.228 51.5,142C 49.8649,144.333 47.8649,146.333 45.5,148C 44.212,148.239 43.212,147.739 42.5,146.5 Z"/></g>
<g><path style="opacity:1" fill="#b0b2b8" d="M 220.5,140.5 C 222.481,142.144 224.481,143.81 226.5,145.5C 228.483,144.018 230.316,142.351 232,140.5C 231.253,143.445 229.42,145.778 226.5,147.5C 223.734,145.741 221.734,143.407 220.5,140.5 Z"/></g>
<g><path style="opacity:1" fill="#b1b4ba" d="M 386.5,140.5 C 388.481,142.144 390.481,143.81 392.5,145.5C 394.483,144.018 396.316,142.351 398,140.5C 397.253,143.445 395.42,145.778 392.5,147.5C 389.734,145.741 387.734,143.407 386.5,140.5 Z"/></g>
<g><path style="opacity:1" fill="#dadbde" d="M 81.5,139.5 C 89.4912,137.66 92.6578,140.66 91,148.5C 89.2111,150.229 87.0444,150.896 84.5,150.5C 84.5,151.833 84.5,153.167 84.5,154.5C 83.5,154.5 82.5,154.5 81.5,154.5C 81.5,149.5 81.5,144.5 81.5,139.5 Z"/></g>
<g><path style="opacity:1" fill="#4a5161" d="M 85.5,141.5 C 87.7224,141.559 88.7224,142.725 88.5,145C 87.1667,149.667 85.8333,149.667 84.5,145C 84.6483,143.744 84.9816,142.577 85.5,141.5 Z"/></g>
<g><path style="opacity:1" fill="#275ba4" d="M 264.5,139.5 C 266.014,142.528 268.014,145.195 270.5,147.5C 269.761,147.369 269.094,147.536 268.5,148C 270.14,149.395 271.64,150.895 273,152.5C 273.278,151.584 273.778,150.918 274.5,150.5C 275.789,151.637 276.789,152.97 277.5,154.5C 276.833,154.5 276.5,154.833 276.5,155.5C 265.03,155.127 261.03,149.794 264.5,139.5 Z"/></g>
<g><path style="opacity:1" fill="#4b9c53" d="M 264.5,139.5 C 261.03,149.794 265.03,155.127 276.5,155.5C 271.21,157.353 266.71,156.019 263,151.5C 261.675,146.599 261.175,141.599 261.5,136.5C 262.5,136.5 263.5,136.5 264.5,136.5C 264.5,137.5 264.5,138.5 264.5,139.5 Z"/></g>
<g><path style="opacity:1" fill="#e2e3e5" d="M 296.5,135.5 C 297.5,135.5 298.5,135.5 299.5,135.5C 299.334,139.514 299.501,143.514 300,147.5C 301.938,148.86 303.604,148.527 305,146.5C 305.499,142.848 305.665,139.182 305.5,135.5C 306.5,135.5 307.5,135.5 308.5,135.5C 308.666,139.514 308.499,143.514 308,147.5C 304.333,151.5 300.667,151.5 297,147.5C 296.501,143.514 296.334,139.514 296.5,135.5 Z"/></g>
<g><path style="opacity:1" fill="#e7e8e9" d="M 312.5,135.5 C 316.224,134.773 318.891,136.106 320.5,139.5C 320,139.833 319.5,140.167 319,140.5C 317.403,139.115 315.57,138.449 313.5,138.5C 313.5,139.5 313.5,140.5 313.5,141.5C 318.372,141.533 320.539,143.866 320,148.5C 317,151.167 314,151.167 311,148.5C 310.312,147.668 310.479,147.002 311.5,146.5C 313.173,148.086 315.173,148.753 317.5,148.5C 317.67,147.178 317.337,146.011 316.5,145C 310.301,143.807 308.968,140.64 312.5,135.5 Z"/></g>
<g><path style="opacity:1" fill="#4b9e48" d="M 276.5,155.5 C 276.5,154.833 276.833,154.5 277.5,154.5C 278.721,153.972 279.887,153.305 281,152.5C 280.683,154.773 279.183,155.773 276.5,155.5 Z"/></g>
<g><path style="opacity:1" fill="#303641" d="M 32.5,185.5 C 37.3394,184.677 39.6728,186.677 39.5,191.5C 36.1501,191.665 32.8168,191.498 29.5,191C 30.2228,188.982 31.2228,187.148 32.5,185.5 Z"/></g>
</svg>
