<svg
width="20"
height="22"
viewBox="0 0 20 20"
fill="none"
xmlns="http://www.w3.org/2000/svg"
>
<path d="M12.5002 3.33325C14.2683 3.33325 15.964 4.03563 17.2142 5.28587C18.4645 6.53612 19.1668 8.23181 19.1668 9.99992C19.1668 11.768 18.4645 13.4637 17.2142 14.714C15.964 15.9642 14.2683 16.6666 12.5002 16.6666C10.7321 16.6666 9.03636 15.9642 7.78612 14.714C6.53587 13.4637 5.8335 11.768 5.8335 9.99992C5.8335 8.23181 6.53587 6.53612 7.78612 5.28587C9.03636 4.03563 10.7321 3.33325 12.5002 3.33325ZM12.5002 14.9999C13.8262 14.9999 15.098 14.4731 16.0357 13.5355C16.9734 12.5978 17.5002 11.326 17.5002 9.99992C17.5002 8.67384 16.9734 7.40207 16.0357 6.46439C15.098 5.5267 13.8262 4.99992 12.5002 4.99992C11.1741 4.99992 9.90231 5.5267 8.96463 6.46439C8.02695 7.40207 7.50016 8.67384 7.50016 9.99992C7.50016 11.326 8.02695 12.5978 8.96463 13.5355C9.90231 14.4731 11.1741 14.9999 12.5002 14.9999ZM2.50016 9.99992C2.50012 11.0332 2.82075 12.041 3.4178 12.8844C4.01485 13.7277 4.8589 14.365 5.8335 14.7083V16.4499C2.9585 15.7083 0.833496 13.1083 0.833496 9.99992C0.833496 6.89159 2.9585 4.29159 5.8335 3.54992V5.29159C3.89183 5.97492 2.50016 7.82492 2.50016 9.99992Z" fill="#ADB3BD"/>
</svg>