<svg width="28" height="28" viewBox="0 0 28 28" fill="none" xmlns="http://www.w3.org/2000/svg">
<path fill-rule="evenodd" clip-rule="evenodd" d="M16.332 10.5003H13.9987V7.00033H10.4987V4.66699H13.9987V1.16699H16.332V4.66699H19.832V7.00033H16.332V10.5003ZM6.9987 23.3337C6.9987 22.0503 8.03703 21.0003 9.32036 21.0003C10.6037 21.0003 11.6537 22.0503 11.6537 23.3337C11.6537 24.617 10.6037 25.667 9.32036 25.667C8.03703 25.667 6.9987 24.617 6.9987 23.3337ZM20.987 21.0003C19.7037 21.0003 18.6654 22.0503 18.6654 23.3337C18.6654 24.617 19.7037 25.667 20.987 25.667C22.2704 25.667 23.3204 24.617 23.3204 23.3337C23.3204 22.0503 22.2704 21.0003 20.987 21.0003ZM19.307 15.167H10.6154L9.33203 17.5003H23.332V19.8337H9.33203C7.5587 19.8337 6.4387 17.932 7.29036 16.3687L8.86536 13.522L4.66536 4.66699H2.33203V2.33366H6.14703L11.117 12.8337H19.307L23.822 4.66699L25.852 5.78699L21.3487 13.9653C20.952 14.6887 20.182 15.167 19.307 15.167Z" fill="#ADB3BD"/>
</svg>
