<svg width="22" height="24" viewBox="0 0 28 28" fill="none" xmlns="http://www.w3.org/2000/svg">
    <path fill="#ADB3BD" d="M4.18206 23.8182H2.00024V17.2727H8.5457V19.4545H5.84024C7.59661 22.0836 10.5966 23.8182 14.0002 23.8182C16.6042 23.8182 19.1015 22.7838 20.9427 20.9425C22.784 19.1012 23.8184 16.6039 23.8184 14H26.0002C26.0002 20.6327 20.633 26 14.0002 26C9.94206 26 6.35297 23.9818 4.18206 20.9055V23.8182ZM2.00024 14C2.00024 7.36727 7.36752 2 14.0002 2C18.0584 2 21.6475 4.01818 23.8184 7.09455V4.18182H26.0002V10.7273H19.4548V8.54545H22.1602C20.4039 5.91636 17.4039 4.18182 14.0002 4.18182C11.3963 4.18182 8.89901 5.21623 7.05774 7.0575C5.21648 8.89876 4.18206 11.3961 4.18206 14H2.00024Z"/>
    <path fill="#ADB3BD" d="M9 14.3962L13.7547 7L18.7736 14.3962L13.7547 21L9 14.3962Z"/>
    <path fill="#ADB3BD" fill-rule="evenodd" clip-rule="evenodd" d="M14.25 20.3484L18.7736 14.3963L14.25 7.72998V20.3484Z"/>
</svg>