<svg width="29" height="28" viewBox="0 0 29 28" fill="none" xmlns="http://www.w3.org/2000/svg">
<path d="M14.4998 21.0001C12.6433 21.0001 10.8628 20.2626 9.55009 18.9498C8.23734 17.6371 7.49984 15.8566 7.49984 14.0001C7.49984 12.8334 7.7915 11.7017 8.3165 10.7334L6.61317 9.03008C5.66788 10.5154 5.16601 12.2395 5.1665 14.0001C5.1665 16.4754 6.14983 18.8494 7.90017 20.5997C9.65051 22.3501 12.0245 23.3334 14.4998 23.3334V26.8334L19.1665 22.1667L14.4998 17.5001M14.4998 4.66675V1.16675L9.83317 5.83342L14.4998 10.5001V7.00008C16.3564 7.00008 18.1368 7.73758 19.4496 9.05033C20.7623 10.3631 21.4998 12.1436 21.4998 14.0001C21.4998 15.1667 21.2082 16.2984 20.6832 17.2667L22.3865 18.9701C23.3318 17.4848 23.8337 15.7607 23.8332 14.0001C23.8332 11.5247 22.8498 9.15076 21.0995 7.40042C19.3492 5.65008 16.9752 4.66675 14.4998 4.66675V4.66675Z" fill="#ADB3BD"/>
</svg>
