<svg width="27" height="20" viewBox="0 0 27 20" fill="none" xmlns="http://www.w3.org/2000/svg">
    <path d="M17.0013 0.666504C19.4767 0.666504 21.8506 1.64983 23.601 3.40017C25.3513 5.15051 26.3346 7.52448 26.3346 9.99984C26.3346 12.4752 25.3513 14.8492 23.601 16.5995C21.8506 18.3498 19.4767 19.3332 17.0013 19.3332C14.5259 19.3332 12.152 18.3498 10.4016 16.5995C8.6513 14.8492 7.66797 12.4752 7.66797 9.99984C7.66797 7.52448 8.6513 5.15051 10.4016 3.40017C12.152 1.64983 14.5259 0.666504 17.0013 0.666504ZM17.0013 16.9998C18.8578 16.9998 20.6383 16.2623 21.9511 14.9496C23.2638 13.6368 24.0013 11.8564 24.0013 9.99984C24.0013 8.14332 23.2638 6.36284 21.9511 5.05009C20.6383 3.73734 18.8578 2.99984 17.0013 2.99984C15.1448 2.99984 13.3643 3.73734 12.0516 5.05009C10.7388 6.36284 10.0013 8.14332 10.0013 9.99984C10.0013 11.8564 10.7388 13.6368 12.0516 14.9496C13.3643 16.2623 15.1448 16.9998 17.0013 16.9998ZM3.0013 9.99984C3.00125 11.4464 3.45012 12.8574 4.28599 14.0381C5.12186 15.2187 6.30353 16.1109 7.66797 16.5915V19.0298C3.64297 17.9915 0.667969 14.3515 0.667969 9.99984C0.667969 5.64817 3.64297 2.00817 7.66797 0.969838V3.40817C4.94964 4.36484 3.0013 6.95484 3.0013 9.99984Z" fill="#29323E"/>
</svg>
