<svg
    width="22"
    height="24"
    viewBox="0 0 20 20"
    fill="none"
    xmlns="http://www.w3.org/2000/svg"
>
    <path fill="#ADB3BD" d="M2.98715 17.0129H1.42871V12.3376H6.10404V13.896H4.17157C5.42611 15.7739 7.56897 17.0129 10.0001 17.0129C11.8601 17.0129 13.6439 16.274 14.9591 14.9588C16.2743 13.6436 17.0131 11.8599 17.0131 9.9999H18.5716C18.5716 14.7376 14.7378 18.5713 10.0001 18.5713C7.10144 18.5713 4.5378 17.1298 2.98715 14.9324V17.0129ZM1.42871 9.9999C1.42871 5.26223 5.26248 1.42847 10.0001 1.42847C12.8988 1.42847 15.4625 2.87003 17.0131 5.06743V2.98691H18.5716V7.66223H13.8962V6.10379H15.8287C14.5742 4.22587 12.4313 2.98691 10.0001 2.98691C8.14018 2.98691 6.3564 3.72577 5.04121 5.04097C3.72602 6.35616 2.98715 8.13994 2.98715 9.9999H1.42871Z"/>
    <path fill="#ADB3BD" d="M10.8243 14.9999V8.11763H13.1603V6.42847H6.42871V8.11763H8.76466V14.9999H10.8243Z"/>
</svg>