<?xml version="1.0" encoding="UTF-8"?>
<!DOCTYPE svg PUBLIC "-//W3C//DTD SVG 1.1//EN" "http://www.w3.org/Graphics/SVG/1.1/DTD/svg11.dtd">
<svg xmlns="http://www.w3.org/2000/svg" version="1.1" width="41px" height="40px" style="shape-rendering:geometricPrecision; text-rendering:geometricPrecision; image-rendering:optimizeQuality; fill-rule:evenodd; clip-rule:evenodd" xmlns:xlink="http://www.w3.org/1999/xlink">
<g><path style="opacity:1" fill="#1b9079" d="M 13.5,-0.5 C 17.8333,-0.5 22.1667,-0.5 26.5,-0.5C 34.0495,3.26919 38.7162,9.26919 40.5,17.5C 40.5,18.8333 40.5,20.1667 40.5,21.5C 38.7162,29.7308 34.0495,35.7308 26.5,39.5C 22.1667,39.5 17.8333,39.5 13.5,39.5C 11.1898,38.675 9.18975,37.3417 7.5,35.5C 7.02694,34.0937 6.02694,33.427 4.5,33.5C 2.30566,31.1003 0.638994,28.4336 -0.5,25.5C -0.5,21.5 -0.5,17.5 -0.5,13.5C 0.324982,11.1898 1.65832,9.18975 3.5,7.5C 5.16667,6.5 6.5,5.16667 7.5,3.5C 9.18975,1.65832 11.1898,0.324982 13.5,-0.5 Z"/></g>
<g><path style="opacity:0.71" fill="#8fccc0" d="M 7.5,3.5 C 6.5,5.16667 5.16667,6.5 3.5,7.5C 3.83333,5.16667 5.16667,3.83333 7.5,3.5 Z"/></g>
<g><path style="opacity:1" fill="#f5faf9" d="M 16.5,14.5 C 19.9079,13.828 22.5745,14.828 24.5,17.5C 39.1667,18.8333 39.1667,20.1667 24.5,21.5C 22.5592,24.3342 19.8926,25.1675 16.5,24C 12.5808,20.8397 12.5808,17.673 16.5,14.5 Z"/></g>
<g><path style="opacity:0.71" fill="#98cfc4" d="M 4.5,33.5 C 6.02694,33.427 7.02694,34.0937 7.5,35.5C 5.97306,35.573 4.97306,34.9063 4.5,33.5 Z"/></g>
</svg>
