<?xml version="1.0" encoding="UTF-8"?>
<!DOCTYPE svg PUBLIC "-//W3C//DTD SVG 1.1//EN" "http://www.w3.org/Graphics/SVG/1.1/DTD/svg11.dtd">
<svg xmlns="http://www.w3.org/2000/svg" version="1.1" width="40px" height="40px" style="shape-rendering:geometricPrecision; text-rendering:geometricPrecision; image-rendering:optimizeQuality; fill-rule:evenodd; clip-rule:evenodd" xmlns:xlink="http://www.w3.org/1999/xlink">
<g><path style="opacity:0.999" fill="#d3e2f3" d="M 2.5,-0.5 C 4.5,-0.5 6.5,-0.5 8.5,-0.5C 8.5,2.5 8.5,5.5 8.5,8.5C 5.5,8.5 2.5,8.5 -0.5,8.5C -0.5,6.5 -0.5,4.5 -0.5,2.5C 0.5,1.5 1.5,0.5 2.5,-0.5 Z"/></g>
<g><path style="opacity:0.998" fill="#d3e2f3" d="M 15.5,-0.5 C 22.5,-0.5 29.5,-0.5 36.5,-0.5C 37.5,0.5 38.5,1.5 39.5,2.5C 39.5,9.5 39.5,16.5 39.5,23.5C 31.5,23.5 23.5,23.5 15.5,23.5C 15.5,15.5 15.5,7.5 15.5,-0.5 Z"/></g>
<g><path style="opacity:0.62" fill="#cdcef5" d="M 8.5,-0.5 C 8.83333,-0.5 9.16667,-0.5 9.5,-0.5C 9.5,2.83333 9.5,6.16667 9.5,9.5C 6.16667,9.5 2.83333,9.5 -0.5,9.5C -0.5,9.16667 -0.5,8.83333 -0.5,8.5C 2.5,8.5 5.5,8.5 8.5,8.5C 8.5,5.5 8.5,2.5 8.5,-0.5 Z"/></g>
<g><path style="opacity:1" fill="#d2e2f3" d="M -0.5,14.5 C 2.5,14.5 5.5,14.5 8.5,14.5C 8.5,17.5 8.5,20.5 8.5,23.5C 5.5,23.5 2.5,23.5 -0.5,23.5C -0.5,20.5 -0.5,17.5 -0.5,14.5 Z"/></g>
<g><path style="opacity:0.91" fill="#cdd2f5" d="M 8.5,14.5 C 9.47944,17.6248 9.81277,20.9581 9.5,24.5C 6.16667,24.5 2.83333,24.5 -0.5,24.5C -0.5,24.1667 -0.5,23.8333 -0.5,23.5C 2.5,23.5 5.5,23.5 8.5,23.5C 8.5,20.5 8.5,17.5 8.5,14.5 Z"/></g>
<g><path style="opacity:0.69" fill="#cddbf5" d="M 14.5,-0.5 C 14.8333,-0.5 15.1667,-0.5 15.5,-0.5C 15.5,7.5 15.5,15.5 15.5,23.5C 23.5,23.5 31.5,23.5 39.5,23.5C 39.5,23.8333 39.5,24.1667 39.5,24.5C 31.1667,24.5 22.8333,24.5 14.5,24.5C 14.5,16.1667 14.5,7.83333 14.5,-0.5 Z"/></g>
<g><path style="opacity:0.441" fill="#c7c5f1" d="M 39.5,29.5 C 39.5,29.8333 39.5,30.1667 39.5,30.5C 36.5,30.5 33.5,30.5 30.5,30.5C 30.5,33.5 30.5,36.5 30.5,39.5C 30.1667,39.5 29.8333,39.5 29.5,39.5C 29.5,36.1667 29.5,32.8333 29.5,29.5C 32.8333,29.5 36.1667,29.5 39.5,29.5 Z"/></g>
<g><path style="opacity:1" fill="#d3e3f3" d="M -0.5,30.5 C 2.5,30.5 5.5,30.5 8.5,30.5C 8.5,33.5 8.5,36.5 8.5,39.5C 6.83333,39.5 5.16667,39.5 3.5,39.5C 2.13632,37.8089 0.802988,36.1423 -0.5,34.5C -0.5,33.1667 -0.5,31.8333 -0.5,30.5 Z"/></g>
<g><path style="opacity:0.608" fill="#ccccf4" d="M -0.5,30.5 C -0.5,30.1667 -0.5,29.8333 -0.5,29.5C 2.83333,29.5 6.16667,29.5 9.5,29.5C 9.5,32.8333 9.5,36.1667 9.5,39.5C 9.16667,39.5 8.83333,39.5 8.5,39.5C 8.5,36.5 8.5,33.5 8.5,30.5C 5.5,30.5 2.5,30.5 -0.5,30.5 Z"/></g>
<g><path style="opacity:1" fill="#d2e2f3" d="M 14.5,30.5 C 17.5,30.5 20.5,30.5 23.5,30.5C 23.5,33.5 23.5,36.5 23.5,39.5C 20.5,39.5 17.5,39.5 14.5,39.5C 14.5,36.5 14.5,33.5 14.5,30.5 Z"/></g>
<g><path style="opacity:0.894" fill="#cbcef3" d="M 14.5,30.5 C 17.6248,29.5206 20.9581,29.1872 24.5,29.5C 24.5,32.8333 24.5,36.1667 24.5,39.5C 24.1667,39.5 23.8333,39.5 23.5,39.5C 23.5,36.5 23.5,33.5 23.5,30.5C 20.5,30.5 17.5,30.5 14.5,30.5 Z"/></g>
<g><path style="opacity:0.999" fill="#d2e2f3" d="M 39.5,30.5 C 39.5,32.1667 39.5,33.8333 39.5,35.5C 38.0937,35.9731 37.427,36.9731 37.5,38.5C 37.5,38.8333 37.5,39.1667 37.5,39.5C 35.1667,39.5 32.8333,39.5 30.5,39.5C 30.5,36.5 30.5,33.5 30.5,30.5C 33.5,30.5 36.5,30.5 39.5,30.5 Z"/></g>
<g><path style="opacity:0.4" fill="#d4d5f6" d="M -0.5,34.5 C 0.802988,36.1423 2.13632,37.8089 3.5,39.5C 2.83333,39.5 2.16667,39.5 1.5,39.5C 1.16667,38.5 0.5,37.8333 -0.5,37.5C -0.5,36.5 -0.5,35.5 -0.5,34.5 Z"/></g>
<g><path style="opacity:0.043" fill="#dad7f9" d="M 39.5,35.5 C 39.5,36.1667 39.5,36.8333 39.5,37.5C 38.8333,37.8333 38.1667,38.1667 37.5,38.5C 37.427,36.9731 38.0937,35.9731 39.5,35.5 Z"/></g>
</svg>
