<?xml version="1.0" standalone="yes"?>
<svg xmlns="http://www.w3.org/2000/svg" width="128" height="128">
<path style="fill:#fefeff; stroke:none;" d="M0 0L0 128L128 128L128 0L0 0z"/>
<path style="fill:#97a0fe; stroke:none;" d="M52 26L53 26C57.5277 18.4538 76.3698 30.5274 81 34C83.6645 35.9983 91.4862 44.3716 86 43L80 51C72.3338 47.7761 54.8449 35.976 47 45C35.8792 42.6899 23.8538 54.7277 22 65C4.16761 65.4313 16.8399 77.9433 24 83L28 89L24 85L24 84L28 85L30 80L29 82L30 82L53 61L57 62L56 59C66.1253 63.3583 71.0244 71.0566 69 82C79.8933 83.6003 78.7196 79.4273 87.615 75.4522C95.5117 71.9233 106.247 79.4373 113.682 72.4861C118.998 67.5157 113.74 58.7373 110.771 54C102.253 40.4086 88.1938 27.011 73 21.2323C66.0226 18.5785 53.5663 16.0948 52 26z"/>
<path style="fill:#7d81f8; stroke:none;" d="M53 24C55.5777 32.7629 70.8981 37.6839 79 40L79 37L82 38L82 37L79 36L79 35L88 41C79.9374 29.649 66.6128 24.0376 53 24z"/>
<path style="fill:#97a0fe; stroke:none;" d="M53 27L54 28L53 27M54 28L55 29L54 28M56 29L57 30L56 29M57 30L58 31L57 30M59 31L60 32L59 31M61 32L62 33L61 32M63 33L64 34L63 33M65 34L66 35L65 34M67 35L68 36L67 35z"/>
<path style="fill:#584bbc; stroke:none;" d="M79 35L79 36L82 37L82 38L79 37L79 40L88 44C86.6587 39.2252 83.7748 36.3413 79 35z"/>
<path style="fill:#97a0fe; stroke:none;" d="M69 36L70 37L69 36M72 37L73 38L72 37M74 38L75 39L74 38z"/>
<path style="fill:#584bbc; stroke:none;" d="M77.6667 38.3333L78.3333 38.6667L77.6667 38.3333z"/>
<path style="fill:#97a0fe; stroke:none;" d="M76 39L77 40L76 39M79 40L80 41L79 40z"/>
<path style="fill:#7d81f8; stroke:none;" d="M80 40L81 41L80 40z"/>
<path style="fill:#97a0fe; stroke:none;" d="M81 41L82 42L81 41z"/>
<path style="fill:#7d81f8; stroke:none;" d="M82 41L83 42L82 41M84 42L85 43L84 42M46 44L47 45L46 44M36 48L38 50L36 48M35 51L36 52L35 51M25 58L26 59L25 58M56 59L57 62L53 61L29 82L30 80L29 80L28 85L24 84L24 85C38.9817 97.0029 54.4126 89.1666 71 94L71 93L68 92L69 87L71 89L75 88L74 85L78 87L78 86L65 81L65 66L68 68L64 62L56 59z"/>
<path style="fill:#584bbc; stroke:none;" d="M63 63L64 64L63 63M64 64L65 65L64 64z"/>
<path style="fill:#7d81f8; stroke:none;" d="M22 65L23 66L22 65z"/>
<path style="fill:#584bbc; stroke:none;" d="M65 66L65 81L69 82C69 75.975 69.8603 70.289 65 66z"/>
<path style="fill:#7d81f8; stroke:none;" d="M16 69L17 70L16 69M68 69L69 70L68 69M14 70L15 71L14 70M69 72L69 80L70 80L69 72M17 77L18 78L17 77M26 82L27 83L26 82M23 83L24 84L23 83z"/>
<path style="fill:#584bbc; stroke:none;" d="M76 84L78 86L78 87L74 85L75 88L69 87L68 92C71.9362 93.7009 80.4009 97.7423 84.6782 96.223C92.3226 93.5078 78.2078 85.0324 76 84z"/>
<path style="fill:#7d81f8; stroke:none;" d="M77.6667 84.3333L78.3333 84.6667L77.6667 84.3333M79 85L82 87L82 86L79 85z"/>
<path style="fill:#97a0fe; stroke:none;" d="M80 85L81 86L80 85z"/>
<path style="fill:#584bbc; stroke:none;" d="M71 86L72 87L71 86z"/>
<path style="fill:#7d81f8; stroke:none;" d="M82 87L83 88L82 87z"/>
<path style="fill:#97a0fe; stroke:none;" d="M83 87L84 88L83 87M84 88L85 89L84 88M29 89L30 90L29 89M85 89L86 90L85 89M31 90L32 91L31 90z"/>
<path style="fill:#584bbc; stroke:none;" d="M66 90L67 91L66 90z"/>
<path style="fill:#7d81f8; stroke:none;" d="M70 90L71 91L70 90z"/>
<path style="fill:#97a0fe; stroke:none;" d="M34.6667 91.3333L35.3333 91.6667L34.6667 91.3333z"/>
<path style="fill:#7d81f8; stroke:none;" d="M86 91L87 92L86 91z"/>
<path style="fill:#97a0fe; stroke:none;" d="M40 92L40 93L43 93L31 108C43.0903 110.878 52.0458 105.114 62 99L40 92z"/>
<path style="fill:#584bbc; stroke:none;" d="M47 93L47 94C54.6094 95.1238 63.3546 101.051 68 92L47 93z"/>
<path style="fill:#97a0fe; stroke:none;" d="M68 93L69 94L68 93M87 93L87 96L88 96L87 93z"/>
<path style="fill:#7d81f8; stroke:none;" d="M48 94L48 95L51 95L48 94z"/>
<path style="fill:#97a0fe; stroke:none;" d="M73.6667 94.3333L74.3333 94.6667L73.6667 94.3333z"/>
<path style="fill:#7d81f8; stroke:none;" d="M75 94L76 95L75 94M52.6667 95.3333L53.3333 95.6667L52.6667 95.3333z"/>
<path style="fill:#97a0fe; stroke:none;" d="M77 95L78 96L77 95z"/>
<path style="fill:#7d81f8; stroke:none;" d="M78 95L79 96L78 95M56 96L57 97L56 96z"/>
<path style="fill:#8f8bab; stroke:none;" d="M64 96L65 97L64 96z"/>
<path style="fill:#97a0fe; stroke:none;" d="M80.6667 96.3333L81.3333 96.6667L80.6667 96.3333z"/>
<path style="fill:#7d81f8; stroke:none;" d="M82 96L83 97L82 96M86 96L87 97L86 96M59.6667 97.3333L60.3333 97.6667L59.6667 97.3333z"/>
<path style="fill:#97a0fe; stroke:none;" d="M63 97L64 98L63 97z"/>
</svg>
