<?xml version="1.0" encoding="UTF-8"?>
<!DOCTYPE svg PUBLIC "-//W3C//DTD SVG 1.1//EN" "http://www.w3.org/Graphics/SVG/1.1/DTD/svg11.dtd">
<svg xmlns="http://www.w3.org/2000/svg" version="1.1" width="29px" height="40px" style="shape-rendering:geometricPrecision; text-rendering:geometricPrecision; image-rendering:optimizeQuality; fill-rule:evenodd; clip-rule:evenodd" xmlns:xlink="http://www.w3.org/1999/xlink">
<g><path style="opacity:0.995" fill="#1c77e9" d="M 1.5,-0.5 C 9.83333,-0.5 18.1667,-0.5 26.5,-0.5C 26.8333,0.5 27.5,1.16667 28.5,1.5C 28.5,11.8333 28.5,22.1667 28.5,32.5C 25.808,34.8623 23.1413,37.1956 20.5,39.5C 19.5,39.5 18.5,39.5 17.5,39.5C 17.6662,33.4908 17.4995,27.4908 17,21.5C 14.9592,20.5769 12.7925,20.2436 10.5,20.5C 10.5,26.8333 10.5,33.1667 10.5,39.5C 9.5,39.5 8.5,39.5 7.5,39.5C 5.14014,37.1468 2.47347,35.1468 -0.5,33.5C -0.5,22.8333 -0.5,12.1667 -0.5,1.5C 0.5,1.16667 1.16667,0.5 1.5,-0.5 Z M 10.5,4.5 C 12.8333,4.5 15.1667,4.5 17.5,4.5C 17.6646,7.51838 17.498,10.5184 17,13.5C 14.9592,14.4231 12.7925,14.7564 10.5,14.5C 10.5,11.1667 10.5,7.83333 10.5,4.5 Z"/></g>
</svg>
