<?xml version="1.0" encoding="UTF-8"?>
<!DOCTYPE svg PUBLIC "-//W3C//DTD SVG 1.1//EN" "http://www.w3.org/Graphics/SVG/1.1/DTD/svg11.dtd">
<svg xmlns="http://www.w3.org/2000/svg" version="1.1" width="40px" height="40px" style="shape-rendering:geometricPrecision; text-rendering:geometricPrecision; image-rendering:optimizeQuality; fill-rule:evenodd; clip-rule:evenodd" xmlns:xlink="http://www.w3.org/1999/xlink">
<g><path style="opacity:0.913" fill="#4b47f7" d="M 32.5,6.5 C 31.1667,10.8333 31.1667,15.1667 32.5,19.5C 34.0016,33.4389 28.0016,39.2722 14.5,37C 10.679,35.8383 8.3457,33.3383 7.5,29.5C 7.73731,28.209 7.40397,27.209 6.5,26.5C 6.20299,22.2325 6.53632,18.0659 7.5,14C 9.74632,12.9605 11.913,11.7938 14,10.5C 14.498,13.4816 14.6646,16.4816 14.5,19.5C 14.1984,22.0593 14.5318,24.3926 15.5,26.5C 17.0106,28.4411 19.0106,28.9411 21.5,28C 22.3802,26.6439 22.7135,25.1439 22.5,23.5C 23.7752,20.3962 23.7752,17.3962 22.5,14.5C 22.1826,11.4281 22.5159,8.42814 23.5,5.5C 26.2511,3.70727 29.0844,2.04061 32,0.5C 32.4955,2.4727 32.6621,4.4727 32.5,6.5 Z M 22.5,23.5 C 22.7135,25.1439 22.3802,26.6439 21.5,28C 19.0106,28.9411 17.0106,28.4411 15.5,26.5C 17.649,25.2638 19.9823,24.2638 22.5,23.5 Z"/></g>
<g><path style="opacity:0.941" fill="#34e1fe" d="M 39.5,1.5 C 39.5,6.5 39.5,11.5 39.5,16.5C 37.0462,17.2271 34.7128,18.2271 32.5,19.5C 31.1667,15.1667 31.1667,10.8333 32.5,6.5C 34.6572,4.58793 36.9906,2.92126 39.5,1.5 Z"/></g>
<g><path style="opacity:0.853" fill="#31e3fe" d="M 22.5,14.5 C 23.7752,17.3962 23.7752,20.3962 22.5,23.5C 19.9823,24.2638 17.649,25.2638 15.5,26.5C 14.5318,24.3926 14.1984,22.0593 14.5,19.5C 17.1667,17.8333 19.8333,16.1667 22.5,14.5 Z"/></g>
<g><path style="opacity:0.572" fill="#31e5fe" d="M 6.5,26.5 C 7.40397,27.209 7.73731,28.209 7.5,29.5C 4.82843,30.5014 2.16177,31.5014 -0.5,32.5C -0.5,31.8333 -0.5,31.1667 -0.5,30.5C 1.81621,29.1944 4.14955,27.8611 6.5,26.5 Z"/></g>
</svg>
