<?xml version="1.0" encoding="UTF-8"?>
<!DOCTYPE svg PUBLIC "-//W3C//DTD SVG 1.1//EN" "http://www.w3.org/Graphics/SVG/1.1/DTD/svg11.dtd">
<svg xmlns="http://www.w3.org/2000/svg" version="1.1" width="32px" height="32px" style="shape-rendering:geometricPrecision; text-rendering:geometricPrecision; image-rendering:optimizeQuality; fill-rule:evenodd; clip-rule:evenodd" xmlns:xlink="http://www.w3.org/1999/xlink">
<g><path style="opacity:0.948" fill="#ebd25d" d="M 10.5,-0.5 C 13.8333,-0.5 17.1667,-0.5 20.5,-0.5C 25.8333,1.5 29.5,5.16667 31.5,10.5C 31.5,13.8333 31.5,17.1667 31.5,20.5C 29.5,25.8333 25.8333,29.5 20.5,31.5C 17.1667,31.5 13.8333,31.5 10.5,31.5C 5.16667,29.5 1.5,25.8333 -0.5,20.5C -0.5,17.1667 -0.5,13.8333 -0.5,10.5C 1.5,5.16667 5.16667,1.5 10.5,-0.5 Z"/></g>
<g><path style="opacity:1" fill="#100e06" d="M 19.5,11.5 C 19.1667,9.16667 17.8333,7.83333 15.5,7.5C 15.4701,6.50278 15.9701,5.83611 17,5.5C 21.5582,6.48658 22.3915,8.48658 19.5,11.5 Z"/></g>
<g><path style="opacity:1" fill="#141208" d="M 15.5,7.5 C 15.5,8.5 15.5,9.5 15.5,10.5C 13.1816,10.8184 11.8483,12.1517 11.5,14.5C 12.491,16.8067 13.8243,18.8067 15.5,20.5C 14.0413,20.5674 12.7079,20.2341 11.5,19.5C 9.56799,16.8231 9.06799,13.8231 10,10.5C 11.2635,8.39297 13.0968,7.39297 15.5,7.5 Z"/></g>
<g><path style="opacity:1" fill="#ccb751" d="M 15.5,7.5 C 17.8333,7.83333 19.1667,9.16667 19.5,11.5C 18.2921,10.7659 16.9587,10.4326 15.5,10.5C 15.5,9.5 15.5,8.5 15.5,7.5 Z"/></g>
<g><path style="opacity:1" fill="#dfc859" d="M 15.5,10.5 C 15.5,11.5 15.5,12.5 15.5,13.5C 19.0714,13.4077 20.2381,15.0743 19,18.5C 18.1841,19.8228 17.0174,20.4894 15.5,20.5C 13.8243,18.8067 12.491,16.8067 11.5,14.5C 11.8483,12.1517 13.1816,10.8184 15.5,10.5 Z"/></g>
<g><path style="opacity:1" fill="#161309" d="M 15.5,10.5 C 16.9587,10.4326 18.2921,10.7659 19.5,11.5C 21.432,14.1769 21.932,17.1769 21,20.5C 19.5123,22.16 17.679,23.16 15.5,23.5C 15.5,22.5 15.5,21.5 15.5,20.5C 17.0174,20.4894 18.1841,19.8228 19,18.5C 20.2381,15.0743 19.0714,13.4077 15.5,13.5C 15.5,12.5 15.5,11.5 15.5,10.5 Z"/></g>
<g><path style="opacity:1" fill="#090803" d="M 11.5,19.5 C 11.8333,21.8333 13.1667,23.1667 15.5,23.5C 14.8213,25.8139 13.488,26.1472 11.5,24.5C 9.10368,22.4942 9.10368,20.8275 11.5,19.5 Z"/></g>
<g><path style="opacity:1" fill="#cab550" d="M 11.5,19.5 C 12.7079,20.2341 14.0413,20.5674 15.5,20.5C 15.5,21.5 15.5,22.5 15.5,23.5C 13.1667,23.1667 11.8333,21.8333 11.5,19.5 Z"/></g>
</svg>
