<?xml version="1.0" encoding="UTF-8"?>
<!DOCTYPE svg PUBLIC "-//W3C//DTD SVG 1.1//EN" "http://www.w3.org/Graphics/SVG/1.1/DTD/svg11.dtd">
<svg xmlns="http://www.w3.org/2000/svg" version="1.1" width="150px" height="150px" style="shape-rendering:geometricPrecision; text-rendering:geometricPrecision; image-rendering:optimizeQuality; fill-rule:evenodd; clip-rule:evenodd" xmlns:xlink="http://www.w3.org/1999/xlink">
<g><path style="opacity:1" fill="#d1d5db" d="M 68.5,-0.5 C 74.5,-0.5 80.5,-0.5 86.5,-0.5C 86.8417,0.338246 87.5084,0.67158 88.5,0.5C 91.7654,8.86259 96.4321,16.3626 102.5,23C 102.272,23.3988 101.938,23.5654 101.5,23.5C 92.2804,18.6394 83.1137,13.6394 74,8.5C 73.3292,9.25244 72.4959,9.58577 71.5,9.5C 70.1009,6.30125 69.1009,2.96791 68.5,-0.5 Z"/></g>
<g><path style="opacity:1" fill="#9ba5b1" d="M 62.5,-0.5 C 64.5,-0.5 66.5,-0.5 68.5,-0.5C 69.1009,2.96791 70.1009,6.30125 71.5,9.5C 69.8333,10.8333 68.1667,12.1667 66.5,13.5C 62.2717,15.0661 58.2717,17.0661 54.5,19.5C 52.0325,14.4302 50.3659,9.0969 49.5,3.5C 53.8753,1.9945 58.2086,0.661164 62.5,-0.5 Z"/></g>
<g><path style="opacity:1" fill="#fbfbfc" d="M 101.5,23.5 C 110.277,28.7258 119.277,33.7258 128.5,38.5C 129.499,51.1492 129.832,63.8158 129.5,76.5C 129.384,79.8599 129.051,83.1933 128.5,86.5C 127.434,88.7014 126.767,91.0347 126.5,93.5C 129.267,93.8583 131.933,94.525 134.5,95.5C 130.341,98.7467 126.008,101.747 121.5,104.5C 120.193,105.153 118.86,105.82 117.5,106.5C 116.081,105.995 115.415,104.995 115.5,103.5C 114.99,100.461 114.323,97.4606 113.5,94.5C 113.167,92.5 112.833,90.5 112.5,88.5C 112.351,87.448 112.517,86.448 113,85.5C 115.034,87.0316 117.201,88.3649 119.5,89.5C 121.259,85.7074 122.259,81.7074 122.5,77.5C 123.824,66.3265 123.824,54.9931 122.5,43.5C 109.977,36.7412 97.6436,29.7412 85.5,22.5C 81.7981,20.3104 77.9648,18.3104 74,16.5C 72.5405,16.8082 71.3739,17.4749 70.5,18.5C 70.1667,18.5 69.8333,18.5 69.5,18.5C 68.2632,17.0351 67.2632,15.3684 66.5,13.5C 68.1667,12.1667 69.8333,10.8333 71.5,9.5C 72.4959,9.58577 73.3292,9.25244 74,8.5C 83.1137,13.6394 92.2804,18.6394 101.5,23.5 Z"/></g>
<g><path style="opacity:1" fill="#e7e8ea" d="M 88.5,0.5 C 116.446,6.44692 135.446,22.7802 145.5,49.5C 140.519,49.0875 135.686,48.0875 131,46.5C 130.5,53.4921 130.334,60.4921 130.5,67.5C 130.81,70.7131 130.477,73.7131 129.5,76.5C 129.832,63.8158 129.499,51.1492 128.5,38.5C 119.277,33.7258 110.277,28.7258 101.5,23.5C 101.938,23.5654 102.272,23.3988 102.5,23C 96.4321,16.3626 91.7654,8.86259 88.5,0.5 Z"/></g>
<g><path style="opacity:1" fill="#4e5862" d="M 36.5,9.5 C 38.6708,14.6681 40.6708,20.0014 42.5,25.5C 40.8333,26.5 39.5,27.8333 38.5,29.5C 41.8931,35.9476 45.5598,42.281 49.5,48.5C 47.5,48.5 45.5,48.5 43.5,48.5C 43.5235,42.5279 41.0235,38.1946 36,35.5C 32.561,30.8818 29.7276,25.8818 27.5,20.5C 26.5832,21.1272 25.5832,21.4606 24.5,21.5C 24.5,20.5 24.5,19.5 24.5,18.5C 27.9103,14.7621 31.9103,11.7621 36.5,9.5 Z"/></g>
<g><path style="opacity:1" fill="#868d97" d="M 49.5,3.5 C 50.3659,9.0969 52.0325,14.4302 54.5,19.5C 50.3701,20.8812 49.3701,23.5478 51.5,27.5C 52.8333,27.5 54.1667,27.5 55.5,27.5C 61.84,33.7823 67.5066,40.7823 72.5,48.5C 70.5,48.5 68.5,48.5 66.5,48.5C 62.5223,43.0057 58.6889,37.339 55,31.5C 54.5172,30.552 54.3505,29.552 54.5,28.5C 52.2133,28.7239 50.0466,29.3906 48,30.5C 46.0124,29.7144 44.8457,28.2144 44.5,26C 46.5633,24.7647 47.5633,22.9313 47.5,20.5C 46.5979,15.4533 44.9312,10.7866 42.5,6.5C 44.5093,4.93482 46.8427,3.93482 49.5,3.5 Z"/></g>
<g><path style="opacity:1" fill="#d7dade" d="M 66.5,13.5 C 67.2632,15.3684 68.2632,17.0351 69.5,18.5C 67.5,19.8333 65.5,21.1667 63.5,22.5C 60.4604,23.6803 57.7937,25.347 55.5,27.5C 54.1667,27.5 52.8333,27.5 51.5,27.5C 49.3701,23.5478 50.3701,20.8812 54.5,19.5C 58.2717,17.0661 62.2717,15.0661 66.5,13.5 Z"/></g>
<g><path style="opacity:1" fill="#b9c0c9" d="M 85.5,22.5 C 94.2395,36.7087 106.573,46.3753 122.5,51.5C 122.5,54.8333 122.5,58.1667 122.5,61.5C 119.192,60.1822 115.859,58.8489 112.5,57.5C 109.584,59.6601 106.584,59.9934 103.5,58.5C 105.833,58.5 108.167,58.5 110.5,58.5C 109,51.0273 104.333,47.694 96.5,48.5C 92.6454,44.9645 88.8121,41.2979 85,37.5C 80.1261,31.0297 75.2928,24.6964 70.5,18.5C 71.3739,17.4749 72.5405,16.8082 74,16.5C 77.9648,18.3104 81.7981,20.3104 85.5,22.5 Z"/></g>
<g><path style="opacity:1" fill="#959eac" d="M 63.5,22.5 C 68.9869,31.9979 75.6535,40.6645 83.5,48.5C 79.8333,48.5 76.1667,48.5 72.5,48.5C 67.5066,40.7823 61.84,33.7823 55.5,27.5C 57.7937,25.347 60.4604,23.6803 63.5,22.5 Z"/></g>
<g><path style="opacity:0.894" fill="#24282b" d="M 24.5,18.5 C 24.5,19.5 24.5,20.5 24.5,21.5C 20.8333,26.1667 17.1667,30.8333 13.5,35.5C 10.0326,40.7691 7.36597,46.4357 5.5,52.5C 1.85309,61.682 0.853086,71.0153 2.5,80.5C 2.21552,82.4147 2.54885,84.0813 3.5,85.5C 6.31172,107.966 17.3117,125.133 36.5,137C 41.7949,140.375 47.4616,142.875 53.5,144.5C 55.9542,145.621 58.6209,146.454 61.5,147C 67.4908,147.499 73.4908,147.666 79.5,147.5C 85.6382,147.272 91.6382,146.272 97.5,144.5C 100.912,143.925 103.912,142.592 106.5,140.5C 111.137,139.184 115.137,136.851 118.5,133.5C 113.663,128.485 109.829,122.819 107,116.5C 104.099,115.763 101.932,114.097 100.5,111.5C 106.053,113.093 111.719,114.26 117.5,115C 120.837,119.196 124.503,123.029 128.5,126.5C 117.096,138.87 103.096,146.536 86.5,149.5C 78.5,149.5 70.5,149.5 62.5,149.5C 28.5,141.5 7.5,120.5 -0.5,86.5C -0.5,78.5 -0.5,70.5 -0.5,62.5C 2.73372,44.9336 11.067,30.267 24.5,18.5 Z"/></g>
<g><path style="opacity:1" fill="#caced5" d="M 85.5,22.5 C 97.6436,29.7412 109.977,36.7412 122.5,43.5C 123.824,54.9931 123.824,66.3265 122.5,77.5C 122.5,76.8333 122.5,76.1667 122.5,75.5C 122.5,70.8333 122.5,66.1667 122.5,61.5C 122.5,58.1667 122.5,54.8333 122.5,51.5C 106.573,46.3753 94.2395,36.7087 85.5,22.5 Z"/></g>
<g><path style="opacity:1" fill="#6e747d" d="M 42.5,6.5 C 44.9312,10.7866 46.5979,15.4533 47.5,20.5C 47.5633,22.9313 46.5633,24.7647 44.5,26C 44.8457,28.2144 46.0124,29.7144 48,30.5C 50.0466,29.3906 52.2133,28.7239 54.5,28.5C 54.3505,29.552 54.5172,30.552 55,31.5C 58.6889,37.339 62.5223,43.0057 66.5,48.5C 64.8333,48.5 63.1667,48.5 61.5,48.5C 60.5,48.5 59.5,48.5 58.5,48.5C 55.5,48.5 52.5,48.5 49.5,48.5C 45.5598,42.281 41.8931,35.9476 38.5,29.5C 39.5,27.8333 40.8333,26.5 42.5,25.5C 40.6708,20.0014 38.6708,14.6681 36.5,9.5C 38.1815,7.99249 40.1815,6.99249 42.5,6.5 Z"/></g>
<g><path style="opacity:1" fill="#a6aeba" d="M 69.5,18.5 C 69.8333,18.5 70.1667,18.5 70.5,18.5C 75.2928,24.6964 80.1261,31.0297 85,37.5C 88.8121,41.2979 92.6454,44.9645 96.5,48.5C 93.4121,48.3773 90.7454,49.3773 88.5,51.5C 87.6143,50.675 87.281,49.675 87.5,48.5C 86.1667,48.5 84.8333,48.5 83.5,48.5C 75.6535,40.6645 68.9869,31.9979 63.5,22.5C 65.5,21.1667 67.5,19.8333 69.5,18.5 Z"/></g>
<g><path style="opacity:1" fill="#f5f8fa" d="M 28.5,56.5 C 27.791,55.596 26.791,55.2627 25.5,55.5C 25.5,61.5 25.5,67.5 25.5,73.5C 26.3139,78.8624 27.3139,84.1957 28.5,89.5C 34.8244,109.488 47.4911,123.821 66.5,132.5C 70.4758,135.534 74.4758,135.867 78.5,133.5C 81.1667,132.5 83.8333,131.5 86.5,130.5C 89.5,130.833 91.1667,132.5 91.5,135.5C 86.1667,137.833 80.8333,140.167 75.5,142.5C 47.2113,134.878 29.2113,116.878 21.5,88.5C 18.8703,77.3556 17.8703,66.0223 18.5,54.5C 15.5,54.5 12.5,54.5 9.5,54.5C 12.7683,49.8927 16.4349,45.5594 20.5,41.5C 21.8149,40.5244 23.1482,39.5244 24.5,38.5C 27.7547,44.0084 30.7547,49.675 33.5,55.5C 31.9547,56.4519 30.288,56.7852 28.5,56.5 Z"/></g>
<g><path style="opacity:1" fill="#2d4f66" d="M 43.5,48.5 C 41.5,48.5 39.5,48.5 37.5,48.5C 37.5,54.8333 37.5,61.1667 37.5,67.5C 34.7392,63.6496 31.7392,59.9829 28.5,56.5C 30.288,56.7852 31.9547,56.4519 33.5,55.5C 30.7547,49.675 27.7547,44.0084 24.5,38.5C 23.1482,39.5244 21.8149,40.5244 20.5,41.5C 18.1873,39.6263 15.854,37.6263 13.5,35.5C 17.1667,30.8333 20.8333,26.1667 24.5,21.5C 25.5832,21.4606 26.5832,21.1272 27.5,20.5C 29.7276,25.8818 32.561,30.8818 36,35.5C 41.0235,38.1946 43.5235,42.5279 43.5,48.5 Z"/></g>
<g><path style="opacity:1" fill="#285e83" d="M 13.5,35.5 C 15.854,37.6263 18.1873,39.6263 20.5,41.5C 16.4349,45.5594 12.7683,49.8927 9.5,54.5C 8.39514,53.3995 7.06181,52.7329 5.5,52.5C 7.36597,46.4357 10.0326,40.7691 13.5,35.5 Z"/></g>
<g><path style="opacity:1" fill="#f8f8f9" d="M 61.5,48.5 C 63.1667,48.5 64.8333,48.5 66.5,48.5C 68.5,48.5 70.5,48.5 72.5,48.5C 76.1667,48.5 79.8333,48.5 83.5,48.5C 84.8333,48.5 86.1667,48.5 87.5,48.5C 87.281,49.675 87.6143,50.675 88.5,51.5C 90.7454,49.3773 93.4121,48.3773 96.5,48.5C 104.333,47.694 109,51.0273 110.5,58.5C 108.167,58.5 105.833,58.5 103.5,58.5C 102.967,55.4752 101.133,54.1419 98,54.5C 94.2332,54.2656 92.5665,55.9323 93,59.5C 97.638,62.3792 102.471,64.8792 107.5,67C 110.029,69.6417 111.029,72.8084 110.5,76.5C 109.749,79.7533 107.749,81.92 104.5,83C 101.518,83.498 98.5184,83.6646 95.5,83.5C 88.8333,82.8333 85.1667,79.1667 84.5,72.5C 85.5,72.5 86.5,72.5 87.5,72.5C 88.8333,72.5 90.1667,72.5 91.5,72.5C 92.5601,78.0953 95.8935,79.9286 101.5,78C 104.36,74.9699 104.027,72.3032 100.5,70C 94.5894,68.802 89.7561,65.9687 86,61.5C 85.5034,59.1902 85.3367,56.8568 85.5,54.5C 82.5,54.5 79.5,54.5 76.5,54.5C 79.6248,53.5206 82.9581,53.1872 86.5,53.5C 86.5,52.1667 86.5,50.8333 86.5,49.5C 77.9832,49.8261 69.6499,49.4927 61.5,48.5 Z"/></g>
<g><path style="opacity:1" fill="#fcfcfd" d="M 58.5,48.5 C 59.5,48.5 60.5,48.5 61.5,48.5C 69.6499,49.4927 77.9832,49.8261 86.5,49.5C 86.5,50.8333 86.5,52.1667 86.5,53.5C 82.9581,53.1872 79.6248,53.5206 76.5,54.5C 76.5,57.5 76.5,60.5 76.5,63.5C 76.5,67.8333 76.5,72.1667 76.5,76.5C 76.5,78.8333 76.5,81.1667 76.5,83.5C 75.5,83.5 74.5,83.5 73.5,83.5C 72.1667,83.5 70.8333,83.5 69.5,83.5C 69.5,73.8333 69.5,64.1667 69.5,54.5C 66.8333,54.5 64.1667,54.5 61.5,54.5C 56.1667,54.5 50.8333,54.5 45.5,54.5C 44.5233,57.2869 44.19,60.2869 44.5,63.5C 49.1667,63.5 53.8333,63.5 58.5,63.5C 58.9227,65.7812 58.256,67.4479 56.5,68.5C 53.8333,68.5 51.1667,68.5 48.5,68.5C 47.5,68.5 46.5,68.5 45.5,68.5C 44.5206,71.6248 44.1872,74.9581 44.5,78.5C 49.8333,78.5 55.1667,78.5 60.5,78.5C 60.5,80.1667 60.5,81.8333 60.5,83.5C 59.5,83.5 58.5,83.5 57.5,83.5C 55.5,83.5 53.5,83.5 51.5,83.5C 49.8333,83.5 48.1667,83.5 46.5,83.5C 43.8333,83.5 41.1667,83.5 38.5,83.5C 38.5,72.1667 38.5,60.8333 38.5,49.5C 45.3543,49.824 52.021,49.4907 58.5,48.5 Z"/></g>
<g><path style="opacity:1" fill="#737980" d="M 61.5,54.5 C 64.1667,54.5 66.8333,54.5 69.5,54.5C 69.5,64.1667 69.5,73.8333 69.5,83.5C 68.5655,82.4324 68.2322,81.099 68.5,79.5C 70.4804,69.7019 68.1471,61.3686 61.5,54.5 Z"/></g>
<g><path style="opacity:1" fill="#4e5257" d="M 45.5,54.5 C 50.8333,54.5 56.1667,54.5 61.5,54.5C 68.1471,61.3686 70.4804,69.7019 68.5,79.5C 63.8744,76.5422 59.8744,72.8755 56.5,68.5C 58.256,67.4479 58.9227,65.7812 58.5,63.5C 54.3656,62.5151 50.0323,62.1818 45.5,62.5C 45.5,59.8333 45.5,57.1667 45.5,54.5 Z"/></g>
<g><path style="opacity:1" fill="#a3abb8" d="M 103.5,58.5 C 106.584,59.9934 109.584,59.6601 112.5,57.5C 115.859,58.8489 119.192,60.1822 122.5,61.5C 122.5,66.1667 122.5,70.8333 122.5,75.5C 118.89,74.2967 115.223,73.2967 111.5,72.5C 111.768,74.099 111.434,75.4324 110.5,76.5C 111.029,72.8084 110.029,69.6417 107.5,67C 102.471,64.8792 97.638,62.3792 93,59.5C 92.5665,55.9323 94.2332,54.2656 98,54.5C 101.133,54.1419 102.967,55.4752 103.5,58.5 Z"/></g>
<g><path style="opacity:1" fill="#9b9fa4" d="M 45.5,54.5 C 45.5,57.1667 45.5,59.8333 45.5,62.5C 50.0323,62.1818 54.3656,62.5151 58.5,63.5C 53.8333,63.5 49.1667,63.5 44.5,63.5C 44.19,60.2869 44.5233,57.2869 45.5,54.5 Z"/></g>
<g><path style="opacity:1" fill="#c8d0d8" d="M 43.5,48.5 C 45.5,48.5 47.5,48.5 49.5,48.5C 52.5,48.5 55.5,48.5 58.5,48.5C 52.021,49.4907 45.3543,49.824 38.5,49.5C 38.5,60.8333 38.5,72.1667 38.5,83.5C 37.5119,78.3595 37.1786,73.0262 37.5,67.5C 37.5,61.1667 37.5,54.8333 37.5,48.5C 39.5,48.5 41.5,48.5 43.5,48.5 Z"/></g>
<g><path style="opacity:1" fill="#b5bcc6" d="M 145.5,49.5 C 147.006,53.8753 148.339,58.2086 149.5,62.5C 149.5,64.5 149.5,66.5 149.5,68.5C 143.222,68.9935 136.889,68.6601 130.5,67.5C 130.334,60.4921 130.5,53.4921 131,46.5C 135.686,48.0875 140.519,49.0875 145.5,49.5 Z"/></g>
<g><path style="opacity:1" fill="#2975a9" d="M 5.5,52.5 C 7.06181,52.7329 8.39514,53.3995 9.5,54.5C 12.5,54.5 15.5,54.5 18.5,54.5C 17.8703,66.0223 18.8703,77.3556 21.5,88.5C 19.9826,88.4894 18.8159,87.8228 18,86.5C 13.3767,80.2079 8.37671,74.2079 3,68.5C 2.50115,72.4862 2.33449,76.4862 2.5,80.5C 0.853086,71.0153 1.85309,61.682 5.5,52.5 Z"/></g>
<g><path style="opacity:1" fill="#7f8792" d="M 76.5,54.5 C 79.5,54.5 82.5,54.5 85.5,54.5C 85.3367,56.8568 85.5034,59.1902 86,61.5C 89.7561,65.9687 94.5894,68.802 100.5,70C 104.027,72.3032 104.36,74.9699 101.5,78C 95.8935,79.9286 92.5601,78.0953 91.5,72.5C 90.1667,72.5 88.8333,72.5 87.5,72.5C 84.0567,69.2714 80.39,66.2714 76.5,63.5C 76.5,60.5 76.5,57.5 76.5,54.5 Z"/></g>
<g><path style="opacity:1" fill="#254f6b" d="M 45.5,68.5 C 46.5,68.5 47.5,68.5 48.5,68.5C 49.5612,71.6223 50.8946,74.6223 52.5,77.5C 50.1667,77.5 47.8333,77.5 45.5,77.5C 45.5,74.5 45.5,71.5 45.5,68.5 Z"/></g>
<g><path style="opacity:1" fill="#97a1ae" d="M 130.5,67.5 C 136.889,68.6601 143.222,68.9935 149.5,68.5C 149.5,74.5 149.5,80.5 149.5,86.5C 149.167,86.5 148.833,86.5 148.5,86.5C 148.5,85.5 148.5,84.5 148.5,83.5C 142.161,82.2487 135.828,82.2487 129.5,83.5C 129.737,84.791 129.404,85.791 128.5,86.5C 129.051,83.1933 129.384,79.8599 129.5,76.5C 130.477,73.7131 130.81,70.7131 130.5,67.5 Z"/></g>
<g><path style="opacity:1" fill="#5c6067" d="M 76.5,63.5 C 80.39,66.2714 84.0567,69.2714 87.5,72.5C 86.5,72.5 85.5,72.5 84.5,72.5C 85.1667,79.1667 88.8333,82.8333 95.5,83.5C 101.457,83.8092 107.124,85.4759 112.5,88.5C 112.833,90.5 113.167,92.5 113.5,94.5C 100.223,90.361 87.8896,84.361 76.5,76.5C 76.5,72.1667 76.5,67.8333 76.5,63.5 Z"/></g>
<g><path style="opacity:1" fill="#9cabb7" d="M 45.5,68.5 C 45.5,71.5 45.5,74.5 45.5,77.5C 47.8333,77.5 50.1667,77.5 52.5,77.5C 55.5,77.5 58.5,77.5 61.5,77.5C 61.5,78.8333 61.5,80.1667 61.5,81.5C 61.6716,82.4916 61.3382,83.1583 60.5,83.5C 60.5,81.8333 60.5,80.1667 60.5,78.5C 55.1667,78.5 49.8333,78.5 44.5,78.5C 44.1872,74.9581 44.5206,71.6248 45.5,68.5 Z"/></g>
<g><path style="opacity:1" fill="#2870a1" d="M 25.5,73.5 C 43.1155,93.4547 60.7821,113.455 78.5,133.5C 74.4758,135.867 70.4758,135.534 66.5,132.5C 55.8781,119.373 45.0447,106.373 34,93.5C 32.549,91.5359 30.7157,90.2026 28.5,89.5C 27.3139,84.1957 26.3139,78.8624 25.5,73.5 Z"/></g>
<g><path style="opacity:1" fill="#2c89c9" d="M 21.5,88.5 C 29.2113,116.878 47.2113,134.878 75.5,142.5C 76.8333,144.167 78.1667,145.833 79.5,147.5C 73.4908,147.666 67.4908,147.499 61.5,147C 58.6209,146.454 55.9542,145.621 53.5,144.5C 54.525,144.103 54.6917,143.437 54,142.5C 37.3333,123.167 20.6667,103.833 4,84.5C 3.60123,84.7284 3.43456,85.0618 3.5,85.5C 2.54885,84.0813 2.21552,82.4147 2.5,80.5C 2.33449,76.4862 2.50115,72.4862 3,68.5C 8.37671,74.2079 13.3767,80.2079 18,86.5C 18.8159,87.8228 19.9826,88.4894 21.5,88.5 Z"/></g>
<g><path style="opacity:1" fill="#25597c" d="M 46.5,83.5 C 48.1667,83.5 49.8333,83.5 51.5,83.5C 62.992,97.1356 74.492,110.802 86,124.5C 87.129,126.141 88.629,127.141 90.5,127.5C 89.4863,128.674 88.153,129.34 86.5,129.5C 84.629,129.141 83.129,128.141 82,126.5C 70.1585,112.136 58.3252,97.8025 46.5,83.5 Z"/></g>
<g><path style="opacity:0.991" fill="#242526" d="M 61.5,81.5 C 81.4403,97.3308 104.107,107.497 129.5,112C 132.924,112.747 136.257,112.58 139.5,111.5C 136.985,117.348 133.318,122.348 128.5,126.5C 124.503,123.029 120.837,119.196 117.5,115C 111.719,114.26 106.053,113.093 100.5,111.5C 95.4379,110.035 90.4379,108.368 85.5,106.5C 80.5644,103.358 75.5644,100.191 70.5,97C 65.2902,93.2912 60.9569,88.7912 57.5,83.5C 58.5,83.5 59.5,83.5 60.5,83.5C 61.3382,83.1583 61.6716,82.4916 61.5,81.5 Z"/></g>
<g><path style="opacity:1" fill="#333436" d="M 48.5,68.5 C 51.1667,68.5 53.8333,68.5 56.5,68.5C 59.8744,72.8755 63.8744,76.5422 68.5,79.5C 68.2322,81.099 68.5655,82.4324 69.5,83.5C 70.8333,83.5 72.1667,83.5 73.5,83.5C 86.1348,92.8155 100.135,99.4821 115.5,103.5C 115.415,104.995 116.081,105.995 117.5,106.5C 118.86,105.82 120.193,105.153 121.5,104.5C 128.809,105.248 136.142,105.582 143.5,105.5C 142.649,107.882 141.316,109.882 139.5,111.5C 136.257,112.58 132.924,112.747 129.5,112C 104.107,107.497 81.4403,97.3308 61.5,81.5C 61.5,80.1667 61.5,78.8333 61.5,77.5C 58.5,77.5 55.5,77.5 52.5,77.5C 50.8946,74.6223 49.5612,71.6223 48.5,68.5 Z"/></g>
<g><path style="opacity:1" fill="#7b828c" d="M 122.5,75.5 C 122.5,76.1667 122.5,76.8333 122.5,77.5C 122.259,81.7074 121.259,85.7074 119.5,89.5C 117.201,88.3649 115.034,87.0316 113,85.5C 112.517,86.448 112.351,87.448 112.5,88.5C 107.124,85.4759 101.457,83.8092 95.5,83.5C 98.5184,83.6646 101.518,83.498 104.5,83C 107.749,81.92 109.749,79.7533 110.5,76.5C 111.434,75.4324 111.768,74.099 111.5,72.5C 115.223,73.2967 118.89,74.2967 122.5,75.5 Z"/></g>
<g><path style="opacity:1" fill="#757c86" d="M 148.5,86.5 C 148.58,89.7814 147.913,92.7814 146.5,95.5C 142.333,94.5952 138.333,94.5952 134.5,95.5C 131.933,94.525 129.267,93.8583 126.5,93.5C 126.767,91.0347 127.434,88.7014 128.5,86.5C 129.404,85.791 129.737,84.791 129.5,83.5C 135.828,82.2487 142.161,82.2487 148.5,83.5C 148.5,84.5 148.5,85.5 148.5,86.5 Z"/></g>
<g><path style="opacity:1" fill="#254f6b" d="M 51.5,83.5 C 53.5,83.5 55.5,83.5 57.5,83.5C 60.9569,88.7912 65.2902,93.2912 70.5,97C 75.5644,100.191 80.5644,103.358 85.5,106.5C 89.1448,112.141 93.4781,117.141 98.5,121.5C 98.1667,122.167 97.8333,122.833 97.5,123.5C 95.1667,124.833 92.8333,126.167 90.5,127.5C 88.629,127.141 87.129,126.141 86,124.5C 74.492,110.802 62.992,97.1356 51.5,83.5 Z"/></g>
<g><path style="opacity:1" fill="#45474c" d="M 76.5,76.5 C 87.8896,84.361 100.223,90.361 113.5,94.5C 114.323,97.4606 114.99,100.461 115.5,103.5C 100.135,99.4821 86.1348,92.8155 73.5,83.5C 74.5,83.5 75.5,83.5 76.5,83.5C 76.5,81.1667 76.5,78.8333 76.5,76.5 Z"/></g>
<g><path style="opacity:1" fill="#2895df" d="M 53.5,144.5 C 47.4616,142.875 41.7949,140.375 36.5,137C 17.3117,125.133 6.31172,107.966 3.5,85.5C 3.43456,85.0618 3.60123,84.7284 4,84.5C 20.6667,103.833 37.3333,123.167 54,142.5C 54.6917,143.437 54.525,144.103 53.5,144.5 Z"/></g>
<g><path style="opacity:1" fill="#2d7db3" d="M 28.5,89.5 C 30.7157,90.2026 32.549,91.5359 34,93.5C 45.0447,106.373 55.8781,119.373 66.5,132.5C 47.4911,123.821 34.8244,109.488 28.5,89.5 Z"/></g>
<g><path style="opacity:1" fill="#26638c" d="M 28.5,56.5 C 31.7392,59.9829 34.7392,63.6496 37.5,67.5C 37.1786,73.0262 37.5119,78.3595 38.5,83.5C 41.1667,83.5 43.8333,83.5 46.5,83.5C 58.3252,97.8025 70.1585,112.136 82,126.5C 83.129,128.141 84.629,129.141 86.5,129.5C 86.5,129.833 86.5,130.167 86.5,130.5C 83.8333,131.5 81.1667,132.5 78.5,133.5C 60.7821,113.455 43.1155,93.4547 25.5,73.5C 25.5,67.5 25.5,61.5 25.5,55.5C 26.791,55.2627 27.791,55.596 28.5,56.5 Z"/></g>
<g><path style="opacity:1" fill="#4d5055" d="M 146.5,95.5 C 145.901,98.9631 144.901,102.296 143.5,105.5C 136.142,105.582 128.809,105.248 121.5,104.5C 126.008,101.747 130.341,98.7467 134.5,95.5C 138.333,94.5952 142.333,94.5952 146.5,95.5 Z"/></g>
<g><path style="opacity:1" fill="#596e7d" d="M 101.5,128.5 C 100.864,126.205 99.5311,124.539 97.5,123.5C 97.8333,122.833 98.1667,122.167 98.5,121.5C 103.293,116.93 105.793,117.93 106,124.5C 104.629,126.041 103.129,127.375 101.5,128.5 Z"/></g>
<g><path style="opacity:1" fill="#264153" d="M 85.5,106.5 C 90.4379,108.368 95.4379,110.035 100.5,111.5C 101.932,114.097 104.099,115.763 107,116.5C 109.829,122.819 113.663,128.485 118.5,133.5C 115.137,136.851 111.137,139.184 106.5,140.5C 104.192,137.185 101.859,133.851 99.5,130.5C 99.8333,129.5 100.5,128.833 101.5,128.5C 103.129,127.375 104.629,126.041 106,124.5C 105.793,117.93 103.293,116.93 98.5,121.5C 93.4781,117.141 89.1448,112.141 85.5,106.5 Z"/></g>
<g><path style="opacity:1" fill="#9bb0be" d="M 97.5,123.5 C 99.5311,124.539 100.864,126.205 101.5,128.5C 100.5,128.833 99.8333,129.5 99.5,130.5C 96.8333,132.167 94.1667,133.833 91.5,135.5C 91.1667,132.5 89.5,130.833 86.5,130.5C 86.5,130.167 86.5,129.833 86.5,129.5C 88.153,129.34 89.4863,128.674 90.5,127.5C 92.8333,126.167 95.1667,124.833 97.5,123.5 Z"/></g>
<g><path style="opacity:1" fill="#255474" d="M 99.5,130.5 C 101.859,133.851 104.192,137.185 106.5,140.5C 103.912,142.592 100.912,143.925 97.5,144.5C 94.6895,142.026 92.6895,139.026 91.5,135.5C 94.1667,133.833 96.8333,132.167 99.5,130.5 Z"/></g>
<g><path style="opacity:1" fill="#286994" d="M 91.5,135.5 C 92.6895,139.026 94.6895,142.026 97.5,144.5C 91.6382,146.272 85.6382,147.272 79.5,147.5C 78.1667,145.833 76.8333,144.167 75.5,142.5C 80.8333,140.167 86.1667,137.833 91.5,135.5 Z"/></g>
</svg>
