<?xml version="1.0" encoding="UTF-8"?>
<!DOCTYPE svg PUBLIC "-//W3C//DTD SVG 1.1//EN" "http://www.w3.org/Graphics/SVG/1.1/DTD/svg11.dtd">
<svg xmlns="http://www.w3.org/2000/svg" version="1.1" width="150px" height="150px" style="shape-rendering:geometricPrecision; text-rendering:geometricPrecision; image-rendering:optimizeQuality; fill-rule:evenodd; clip-rule:evenodd" xmlns:xlink="http://www.w3.org/1999/xlink">
<g><path style="opacity:1" fill="#79cbfa" d="M 62.5,0.5 C 62.5,0.166667 62.5,-0.166667 62.5,-0.5C 70.5,-0.5 78.5,-0.5 86.5,-0.5C 86.8417,0.338246 87.5084,0.67158 88.5,0.5C 89.3343,7.18141 92.1677,13.1814 97,18.5C 97.6917,19.4368 97.525,20.1034 96.5,20.5C 88.8158,16.907 81.3158,12.907 74,8.5C 71.5255,9.98582 69.0255,11.3192 66.5,12.5C 66.1394,8.08454 64.8061,4.08454 62.5,0.5 Z"/></g>
<g><path style="opacity:1" fill="#97d7fc" d="M 88.5,0.5 C 91.0673,0.721485 93.4006,1.38815 95.5,2.5C 104.536,20.9216 118.869,31.9216 138.5,35.5C 140.588,37.3356 141.921,39.6689 142.5,42.5C 138.696,42.8449 134.863,42.1782 131,40.5C 130.501,45.8229 130.334,51.1563 130.5,56.5C 130.824,63.3543 130.491,70.021 129.5,76.5C 129.832,63.8158 129.499,51.1492 128.5,38.5C 117.538,32.8365 106.872,26.8365 96.5,20.5C 97.525,20.1034 97.6917,19.4368 97,18.5C 92.1677,13.1814 89.3343,7.18141 88.5,0.5 Z"/></g>
<g><path style="opacity:0.993" fill="#a8defe" d="M 95.5,2.5 C 114.492,7.48904 128.826,18.489 138.5,35.5C 118.869,31.9216 104.536,20.9216 95.5,2.5 Z"/></g>
<g><path style="opacity:1" fill="#2da4e8" d="M 62.5,0.5 C 64.8061,4.08454 66.1394,8.08454 66.5,12.5C 66.5,12.8333 66.5,13.1667 66.5,13.5C 62.3447,14.7417 58.678,16.7417 55.5,19.5C 53.5,20.1667 51.5,20.8333 49.5,21.5C 47.7333,16.7 46.0667,11.8666 44.5,7C 45.3805,6.2917 46.0472,5.45837 46.5,4.5C 51.5795,2.23011 56.9129,0.896781 62.5,0.5 Z"/></g>
<g><path style="opacity:1" fill="#fafcfe" d="M 96.5,20.5 C 106.872,26.8365 117.538,32.8365 128.5,38.5C 129.499,51.1492 129.832,63.8158 129.5,76.5C 129.5,77.8333 129.5,79.1667 129.5,80.5C 128.756,84.5524 127.756,88.5524 126.5,92.5C 129.073,93.8076 131.74,94.8076 134.5,95.5C 129.143,99.5006 123.476,103.167 117.5,106.5C 116.914,106.291 116.414,105.957 116,105.5C 115.479,101.394 114.646,97.3935 113.5,93.5C 112.737,90.8589 112.57,88.1922 113,85.5C 115.034,87.0316 117.201,88.3649 119.5,89.5C 121.086,87.8273 121.753,85.8273 121.5,83.5C 122.473,81.0521 122.806,78.3854 122.5,75.5C 123.823,64.9927 123.823,54.3261 122.5,43.5C 106.473,34.488 90.4727,25.488 74.5,16.5C 72.7162,16.8925 71.0495,17.5592 69.5,18.5C 67.953,17.2318 66.953,15.5652 66.5,13.5C 66.5,13.1667 66.5,12.8333 66.5,12.5C 69.0255,11.3192 71.5255,9.98582 74,8.5C 81.3158,12.907 88.8158,16.907 96.5,20.5 Z"/></g>
<g><path style="opacity:1" fill="#b5e1fa" d="M 66.5,13.5 C 66.953,15.5652 67.953,17.2318 69.5,18.5C 66.0012,20.7505 62.3346,22.7505 58.5,24.5C 56.7497,23.3406 55.7497,21.674 55.5,19.5C 58.678,16.7417 62.3447,14.7417 66.5,13.5 Z"/></g>
<g><path style="opacity:1" fill="#7abee6" d="M 55.5,19.5 C 55.7497,21.674 56.7497,23.3406 58.5,24.5C 58.1667,25.1667 57.8333,25.8333 57.5,26.5C 54.4037,27.5467 51.4037,28.88 48.5,30.5C 47.2485,28.9991 46.2485,27.3325 45.5,25.5C 46.5487,23.7844 47.882,22.4511 49.5,21.5C 51.5,20.8333 53.5,20.1667 55.5,19.5 Z"/></g>
<g><path style="opacity:0.901" fill="#2c5686" d="M 30.5,13.5 C 33.5435,17.895 36.2102,22.5616 38.5,27.5C 34.8367,30.297 34.8367,33.297 38.5,36.5C 39.5,35.8333 40.5,35.1667 41.5,34.5C 42.4933,39.1196 42.8266,43.7863 42.5,48.5C 40.5853,48.2155 38.9187,48.5489 37.5,49.5C 32.0133,42.8464 26.3466,36.3464 20.5,30C 19.5,29.3333 18.5,29.3333 17.5,30C 15.9415,32.0519 14.6082,34.2185 13.5,36.5C 10.614,40.4511 8.2807,44.7845 6.5,49.5C 6.16667,50.8333 5.83333,52.1667 5.5,53.5C 4.07513,57.3726 3.07513,61.3726 2.5,65.5C 2.5,68.8333 2.5,72.1667 2.5,75.5C 2.18723,79.0419 2.52056,82.3752 3.5,85.5C 3.20528,87.7354 3.53862,89.7354 4.5,91.5C 10.1972,115.193 24.1972,131.86 46.5,141.5C 46.8417,142.338 47.5084,142.672 48.5,142.5C 52.8139,144.704 57.4805,146.038 62.5,146.5C 67.9753,147.489 73.642,147.822 79.5,147.5C 80.8333,147.5 82.1667,147.5 83.5,147.5C 82.8333,148.167 82.1667,148.833 81.5,149.5C 75.1667,149.5 68.8333,149.5 62.5,149.5C 28.5,141.5 7.5,120.5 -0.5,86.5C -0.5,78.5 -0.5,70.5 -0.5,62.5C 3.49792,42.1735 13.8313,25.8401 30.5,13.5 Z"/></g>
<g><path style="opacity:1" fill="#38aff3" d="M 74.5,16.5 C 80.0875,28.7975 88.4209,38.9642 99.5,47C 98.5842,47.2784 97.9175,47.7784 97.5,48.5C 93.9966,48.1289 90.9966,49.1289 88.5,51.5C 87.596,50.791 87.2627,49.791 87.5,48.5C 82.5,48.5 77.5,48.5 72.5,48.5C 66.7181,41.7149 61.7181,34.3815 57.5,26.5C 57.8333,25.8333 58.1667,25.1667 58.5,24.5C 62.3346,22.7505 66.0012,20.7505 69.5,18.5C 71.0495,17.5592 72.7162,16.8925 74.5,16.5 Z"/></g>
<g><path style="opacity:1" fill="#6dc6f9" d="M 74.5,16.5 C 90.4727,25.488 106.473,34.488 122.5,43.5C 123.823,54.3261 123.823,64.9927 122.5,75.5C 122.5,70.1667 122.5,64.8333 122.5,59.5C 118.668,59.0556 115.168,57.7223 112,55.5C 111.51,56.7932 111.343,58.1266 111.5,59.5C 108.615,59.8064 105.948,59.4731 103.5,58.5C 105.833,58.5 108.167,58.5 110.5,58.5C 109.155,51.5058 104.822,48.1725 97.5,48.5C 97.9175,47.7784 98.5842,47.2784 99.5,47C 88.4209,38.9642 80.0875,28.7975 74.5,16.5 Z"/></g>
<g><path style="opacity:1" fill="#2391d1" d="M 46.5,4.5 C 46.0472,5.45837 45.3805,6.2917 44.5,7C 46.0667,11.8666 47.7333,16.7 49.5,21.5C 47.882,22.4511 46.5487,23.7844 45.5,25.5C 46.2485,27.3325 47.2485,28.9991 48.5,30.5C 51.4037,28.88 54.4037,27.5467 57.5,26.5C 61.7181,34.3815 66.7181,41.7149 72.5,48.5C 68.5,48.5 64.5,48.5 60.5,48.5C 58.5,48.5 56.5,48.5 54.5,48.5C 51.4951,43.9823 48.6618,39.3156 46,34.5C 44.9887,33.6634 43.8221,33.33 42.5,33.5C 42.6633,31.1432 42.4966,28.8098 42,26.5C 38.1495,21.799 35.6495,16.4656 34.5,10.5C 38.2165,7.97506 42.2165,5.97506 46.5,4.5 Z"/></g>
<g><path style="opacity:1" fill="#207bb5" d="M 34.5,10.5 C 35.6495,16.4656 38.1495,21.799 42,26.5C 42.4966,28.8098 42.6633,31.1432 42.5,33.5C 43.8221,33.33 44.9887,33.6634 46,34.5C 48.6618,39.3156 51.4951,43.9823 54.5,48.5C 50.5,48.5 46.5,48.5 42.5,48.5C 42.8266,43.7863 42.4933,39.1196 41.5,34.5C 40.5,35.1667 39.5,35.8333 38.5,36.5C 34.8367,33.297 34.8367,30.297 38.5,27.5C 36.2102,22.5616 33.5435,17.895 30.5,13.5C 31.795,12.5116 33.1283,11.5116 34.5,10.5 Z"/></g>
<g><path style="opacity:1" fill="#50426d" d="M 37.5,49.5 C 37.5,53.8333 37.5,58.1667 37.5,62.5C 35.1394,60.8061 33.1394,58.8061 31.5,56.5C 33.2252,56.1575 33.7252,55.1575 33,53.5C 30.1667,48.5 27.3333,43.5 24.5,38.5C 22.8144,39.8569 21.1477,41.1902 19.5,42.5C 17.9228,39.9501 15.9228,37.9501 13.5,36.5C 14.6082,34.2185 15.9415,32.0519 17.5,30C 18.5,29.3333 19.5,29.3333 20.5,30C 26.3466,36.3464 32.0133,42.8464 37.5,49.5 Z"/></g>
<g><path style="opacity:1" fill="#6d365e" d="M 13.5,36.5 C 15.9228,37.9501 17.9228,39.9501 19.5,42.5C 16.8333,45.8333 13.8333,48.8333 10.5,51.5C 9.39514,50.3995 8.06181,49.7329 6.5,49.5C 8.2807,44.7845 10.614,40.4511 13.5,36.5 Z"/></g>
<g><path style="opacity:1" fill="#faf5f6" d="M 31.5,56.5 C 29.5,56.1667 27.5,55.8333 25.5,55.5C 25.5,59.1667 25.5,62.8333 25.5,66.5C 25.3946,70.5483 25.7279,74.5483 26.5,78.5C 26.6761,81.7273 27.3428,84.7273 28.5,87.5C 33.8883,107.628 45.8883,122.294 64.5,131.5C 66.936,132.871 69.6027,133.871 72.5,134.5C 72.7352,135.097 73.2352,135.43 74,135.5C 76.489,134.394 78.989,133.394 81.5,132.5C 83.0495,131.559 84.7162,130.893 86.5,130.5C 88.9971,131.129 90.3304,132.796 90.5,135.5C 89.1667,136.5 87.8333,137.5 86.5,138.5C 82.6052,139.462 78.9385,140.796 75.5,142.5C 69.5379,141.291 63.8712,139.291 58.5,136.5C 43.6968,128.365 32.6968,116.698 25.5,101.5C 23.2934,94.8816 21.2934,88.2149 19.5,81.5C 18.7705,76.8696 18.4372,72.2029 18.5,67.5C 18.5,63.1667 18.5,58.8333 18.5,54.5C 15.4281,54.8174 12.4281,54.4841 9.5,53.5C 9.86273,52.8165 10.1961,52.1499 10.5,51.5C 13.8333,48.8333 16.8333,45.8333 19.5,42.5C 21.1477,41.1902 22.8144,39.8569 24.5,38.5C 27.3333,43.5 30.1667,48.5 33,53.5C 33.7252,55.1575 33.2252,56.1575 31.5,56.5 Z"/></g>
<g><path style="opacity:0.984" fill="#b5dff7" d="M 60.5,48.5 C 64.5,48.5 68.5,48.5 72.5,48.5C 77.5,48.5 82.5,48.5 87.5,48.5C 87.2627,49.791 87.596,50.791 88.5,51.5C 88.1667,52.5 87.5,53.1667 86.5,53.5C 86.5,52.1667 86.5,50.8333 86.5,49.5C 77.6506,49.8264 68.9839,49.493 60.5,48.5 Z"/></g>
<g><path style="opacity:1" fill="#f8fbfe" d="M 97.5,48.5 C 104.822,48.1725 109.155,51.5058 110.5,58.5C 108.167,58.5 105.833,58.5 103.5,58.5C 101.023,52.7715 97.5234,52.1049 93,56.5C 92.3698,58.9034 93.2031,60.7367 95.5,62C 99.7293,63.1146 103.729,64.7813 107.5,67C 110.029,69.6417 111.029,72.8084 110.5,76.5C 109.409,79.4278 107.409,81.5945 104.5,83C 100.5,83.6667 96.5,83.6667 92.5,83C 87.3623,81.3645 84.6957,77.8645 84.5,72.5C 86.1667,72.5 87.8333,72.5 89.5,72.5C 91.0789,74.2302 92.7455,76.0636 94.5,78C 100.979,80.1681 103.812,78.0014 103,71.5C 96.3381,69.6759 90.6715,66.3426 86,61.5C 85.5034,59.1902 85.3367,56.8568 85.5,54.5C 82.5,54.5 79.5,54.5 76.5,54.5C 79.6248,53.5206 82.9581,53.1872 86.5,53.5C 87.5,53.1667 88.1667,52.5 88.5,51.5C 90.9966,49.1289 93.9966,48.1289 97.5,48.5 Z"/></g>
<g><path style="opacity:1" fill="#77cafa" d="M 142.5,42.5 C 145.072,47.5414 147.072,52.8747 148.5,58.5C 142.5,57.8333 136.5,57.1667 130.5,56.5C 130.334,51.1563 130.501,45.8229 131,40.5C 134.863,42.1782 138.696,42.8449 142.5,42.5 Z"/></g>
<g><path style="opacity:1" fill="#f9fafb" d="M 42.5,48.5 C 46.5,48.5 50.5,48.5 54.5,48.5C 56.5,48.5 58.5,48.5 60.5,48.5C 68.9839,49.493 77.6506,49.8264 86.5,49.5C 86.5,50.8333 86.5,52.1667 86.5,53.5C 82.9581,53.1872 79.6248,53.5206 76.5,54.5C 76.5,57.1667 76.5,59.8333 76.5,62.5C 76.5,66.8333 76.5,71.1667 76.5,75.5C 76.5,78.1667 76.5,80.8333 76.5,83.5C 74.1667,83.5 71.8333,83.5 69.5,83.5C 69.5,73.8333 69.5,64.1667 69.5,54.5C 61.5,54.5 53.5,54.5 45.5,54.5C 44.5233,57.2869 44.19,60.2869 44.5,63.5C 49.1667,63.5 53.8333,63.5 58.5,63.5C 58.5,65.1667 58.5,66.8333 58.5,68.5C 55.1667,68.5 51.8333,68.5 48.5,68.5C 47.5,68.5 46.5,68.5 45.5,68.5C 44.5206,71.6248 44.1872,74.9581 44.5,78.5C 49.8333,78.5 55.1667,78.5 60.5,78.5C 60.5,80.1667 60.5,81.8333 60.5,83.5C 59.5,83.5 58.5,83.5 57.5,83.5C 54.8333,83.5 52.1667,83.5 49.5,83.5C 46.5,83.5 43.5,83.5 40.5,83.5C 39.5,83.5 38.5,83.5 37.5,83.5C 37.5,82.1667 37.5,80.8333 37.5,79.5C 37.5,73.8333 37.5,68.1667 37.5,62.5C 37.5,58.1667 37.5,53.8333 37.5,49.5C 38.9187,48.5489 40.5853,48.2155 42.5,48.5 Z"/></g>
<g><path style="opacity:1" fill="#227bb4" d="M 45.5,54.5 C 53.5,54.5 61.5,54.5 69.5,54.5C 69.5,64.1667 69.5,73.8333 69.5,83.5C 68.8339,80.3107 68.1672,76.9773 67.5,73.5C 64.8494,71.3501 62.3494,69.0168 60,66.5C 59.7216,67.4158 59.2216,68.0825 58.5,68.5C 58.5,66.8333 58.5,65.1667 58.5,63.5C 54.3656,62.5151 50.0323,62.1818 45.5,62.5C 45.5,59.8333 45.5,57.1667 45.5,54.5 Z"/></g>
<g><path style="opacity:1" fill="#2a9bdd" d="M 76.5,54.5 C 79.5,54.5 82.5,54.5 85.5,54.5C 85.3367,56.8568 85.5034,59.1902 86,61.5C 90.6715,66.3426 96.3381,69.6759 103,71.5C 103.812,78.0014 100.979,80.1681 94.5,78C 92.7455,76.0636 91.0789,74.2302 89.5,72.5C 85.1907,69.1976 80.8574,65.8643 76.5,62.5C 76.5,59.8333 76.5,57.1667 76.5,54.5 Z"/></g>
<g><path style="opacity:1" fill="#3cb0f3" d="M 103.5,58.5 C 105.948,59.4731 108.615,59.8064 111.5,59.5C 111.343,58.1266 111.51,56.7932 112,55.5C 115.168,57.7223 118.668,59.0556 122.5,59.5C 122.5,64.8333 122.5,70.1667 122.5,75.5C 122.806,78.3854 122.473,81.0521 121.5,83.5C 121.5,82.1667 121.5,80.8333 121.5,79.5C 117.658,79.1075 113.991,78.1075 110.5,76.5C 111.029,72.8084 110.029,69.6417 107.5,67C 103.729,64.7813 99.7293,63.1146 95.5,62C 93.2031,60.7367 92.3698,58.9034 93,56.5C 97.5234,52.1049 101.023,52.7715 103.5,58.5 Z"/></g>
<g><path style="opacity:1" fill="#862a51" d="M 6.5,49.5 C 8.06181,49.7329 9.39514,50.3995 10.5,51.5C 10.1961,52.1499 9.86273,52.8165 9.5,53.5C 12.4281,54.4841 15.4281,54.8174 18.5,54.5C 18.5,58.8333 18.5,63.1667 18.5,67.5C 14.1667,62.8333 9.83333,58.1667 5.5,53.5C 5.83333,52.1667 6.16667,50.8333 6.5,49.5 Z"/></g>
<g><path style="opacity:1" fill="#9e2448" d="M 5.5,53.5 C 9.83333,58.1667 14.1667,62.8333 18.5,67.5C 18.4372,72.2029 18.7705,76.8696 19.5,81.5C 14.1992,76.029 9.03253,70.3623 4,64.5C 3.61742,65.056 3.11742,65.3893 2.5,65.5C 3.07513,61.3726 4.07513,57.3726 5.5,53.5 Z"/></g>
<g><path style="opacity:1" fill="#71325a" d="M 31.5,56.5 C 33.1394,58.8061 35.1394,60.8061 37.5,62.5C 37.5,68.1667 37.5,73.8333 37.5,79.5C 33.5,75.1667 29.5,70.8333 25.5,66.5C 25.5,62.8333 25.5,59.1667 25.5,55.5C 27.5,55.8333 29.5,56.1667 31.5,56.5 Z"/></g>
<g><path style="opacity:1" fill="#8fb4ce" d="M 45.5,54.5 C 45.5,57.1667 45.5,59.8333 45.5,62.5C 50.0323,62.1818 54.3656,62.5151 58.5,63.5C 53.8333,63.5 49.1667,63.5 44.5,63.5C 44.19,60.2869 44.5233,57.2869 45.5,54.5 Z"/></g>
<g><path style="opacity:1" fill="#583a64" d="M 45.5,68.5 C 46.5,68.5 47.5,68.5 48.5,68.5C 49.5612,71.6223 50.8946,74.6223 52.5,77.5C 50.1667,77.5 47.8333,77.5 45.5,77.5C 45.5,74.5 45.5,71.5 45.5,68.5 Z"/></g>
<g><path style="opacity:1" fill="#3fb2f3" d="M 130.5,56.5 C 136.5,57.1667 142.5,57.8333 148.5,58.5C 148.232,60.099 148.566,61.4324 149.5,62.5C 149.5,68.8333 149.5,75.1667 149.5,81.5C 142.837,82.5047 136.171,82.1714 129.5,80.5C 129.5,79.1667 129.5,77.8333 129.5,76.5C 130.491,70.021 130.824,63.3543 130.5,56.5 Z"/></g>
<g><path style="opacity:1" fill="#b91e3e" d="M 19.5,81.5 C 21.2934,88.2149 23.2934,94.8816 25.5,101.5C 17.8333,92.8333 10.1667,84.1667 2.5,75.5C 2.5,72.1667 2.5,68.8333 2.5,65.5C 3.11742,65.3893 3.61742,65.056 4,64.5C 9.03253,70.3623 14.1992,76.029 19.5,81.5 Z"/></g>
<g><path style="opacity:1" fill="#b1a8bc" d="M 45.5,68.5 C 45.5,71.5 45.5,74.5 45.5,77.5C 47.8333,77.5 50.1667,77.5 52.5,77.5C 55.3854,77.1936 58.0521,77.5269 60.5,78.5C 55.1667,78.5 49.8333,78.5 44.5,78.5C 44.1872,74.9581 44.5206,71.6248 45.5,68.5 Z"/></g>
<g><path style="opacity:1" fill="#c91937" d="M 2.5,75.5 C 10.1667,84.1667 17.8333,92.8333 25.5,101.5C 32.6968,116.698 43.6968,128.365 58.5,136.5C 58.3505,137.552 58.5172,138.552 59,139.5C 61.0176,141.35 62.8509,143.35 64.5,145.5C 64.0431,146.298 63.3764,146.631 62.5,146.5C 57.4805,146.038 52.8139,144.704 48.5,142.5C 49.2389,142.631 49.9056,142.464 50.5,142C 49.0422,139.54 47.2089,137.373 45,135.5C 44.6667,134.167 44.3333,132.833 44,131.5C 30.2917,116.127 16.9584,100.461 4,84.5C 3.60123,84.7284 3.43456,85.0618 3.5,85.5C 2.52056,82.3752 2.18723,79.0419 2.5,75.5 Z"/></g>
<g><path style="opacity:1" fill="#98274b" d="M 26.5,78.5 C 41.8849,95.574 57.0515,112.907 72,130.5C 72.4652,131.931 73.2986,133.097 74.5,134C 73.9056,134.464 73.2389,134.631 72.5,134.5C 69.6027,133.871 66.936,132.871 64.5,131.5C 65.2389,131.631 65.9056,131.464 66.5,131C 53.9682,116.307 41.3016,101.807 28.5,87.5C 27.3428,84.7273 26.6761,81.7273 26.5,78.5 Z"/></g>
<g><path style="opacity:1" fill="#5f3862" d="M 49.5,83.5 C 52.1667,83.5 54.8333,83.5 57.5,83.5C 62.9111,90.8759 69.5777,96.8759 77.5,101.5C 82.7129,109.721 88.7129,117.388 95.5,124.5C 92.8333,126.167 90.1667,127.833 87.5,129.5C 75.2107,113.875 62.5441,98.542 49.5,83.5 Z"/></g>
<g><path style="opacity:0.992" fill="#155484" d="M 139.5,112.5 C 127.163,132.499 109.497,144.832 86.5,149.5C 84.8333,149.5 83.1667,149.5 81.5,149.5C 82.1667,148.833 82.8333,148.167 83.5,147.5C 86.546,146.938 89.546,146.271 92.5,145.5C 96.2232,144.703 99.8899,143.703 103.5,142.5C 107.683,140.913 111.35,138.579 114.5,135.5C 111.483,132.094 108.483,128.76 105.5,125.5C 108.337,122.005 107.67,119.339 103.5,117.5C 102.797,115.284 101.464,113.451 99.5,112C 91.745,109.288 84.4116,105.788 77.5,101.5C 69.5777,96.8759 62.9111,90.8759 57.5,83.5C 58.5,83.5 59.5,83.5 60.5,83.5C 61.2679,82.7375 61.7679,81.7375 62,80.5C 84.5488,99.7226 110.382,110.389 139.5,112.5 Z"/></g>
<g><path style="opacity:1" fill="#2588c5" d="M 76.5,62.5 C 80.8574,65.8643 85.1907,69.1976 89.5,72.5C 87.8333,72.5 86.1667,72.5 84.5,72.5C 84.6957,77.8645 87.3623,81.3645 92.5,83C 96.5,83.6667 100.5,83.6667 104.5,83C 107.409,81.5945 109.409,79.4278 110.5,76.5C 113.991,78.1075 117.658,79.1075 121.5,79.5C 121.5,80.8333 121.5,82.1667 121.5,83.5C 121.753,85.8273 121.086,87.8273 119.5,89.5C 117.201,88.3649 115.034,87.0316 113,85.5C 112.57,88.1922 112.737,90.8589 113.5,93.5C 100.196,89.3474 87.863,83.3474 76.5,75.5C 76.5,71.1667 76.5,66.8333 76.5,62.5 Z"/></g>
<g><path style="opacity:1" fill="#862b52" d="M 25.5,66.5 C 29.5,70.8333 33.5,75.1667 37.5,79.5C 37.5,80.8333 37.5,82.1667 37.5,83.5C 38.5,83.5 39.5,83.5 40.5,83.5C 54.543,99.5409 68.2097,115.874 81.5,132.5C 78.989,133.394 76.489,134.394 74,135.5C 73.2352,135.43 72.7352,135.097 72.5,134.5C 73.2389,134.631 73.9056,134.464 74.5,134C 73.2986,133.097 72.4652,131.931 72,130.5C 57.0515,112.907 41.8849,95.574 26.5,78.5C 25.7279,74.5483 25.3946,70.5483 25.5,66.5 Z"/></g>
<g><path style="opacity:1" fill="#743158" d="M 40.5,83.5 C 43.5,83.5 46.5,83.5 49.5,83.5C 62.5441,98.542 75.2107,113.875 87.5,129.5C 86.8333,129.5 86.5,129.833 86.5,130.5C 84.7162,130.893 83.0495,131.559 81.5,132.5C 68.2097,115.874 54.543,99.5409 40.5,83.5 Z"/></g>
<g><path style="opacity:1" fill="#d41031" d="M 48.5,142.5 C 47.5084,142.672 46.8417,142.338 46.5,141.5C 41.9067,135.062 37.0734,128.728 32,122.5C 22.356,112.511 13.1893,102.178 4.5,91.5C 3.53862,89.7354 3.20528,87.7354 3.5,85.5C 3.43456,85.0618 3.60123,84.7284 4,84.5C 16.9584,100.461 30.2917,116.127 44,131.5C 44.3333,132.833 44.6667,134.167 45,135.5C 47.2089,137.373 49.0422,139.54 50.5,142C 49.9056,142.464 49.2389,142.631 48.5,142.5 Z"/></g>
<g><path style="opacity:1" fill="#a52548" d="M 28.5,87.5 C 41.3016,101.807 53.9682,116.307 66.5,131C 65.9056,131.464 65.2389,131.631 64.5,131.5C 45.8883,122.294 33.8883,107.628 28.5,87.5 Z"/></g>
<g><path style="opacity:1" fill="#2691d1" d="M 129.5,80.5 C 136.171,82.1714 142.837,82.5047 149.5,81.5C 149.5,83.1667 149.5,84.8333 149.5,86.5C 148.51,89.7431 147.51,93.0764 146.5,96.5C 142.534,95.8379 138.534,95.5045 134.5,95.5C 131.74,94.8076 129.073,93.8076 126.5,92.5C 127.756,88.5524 128.756,84.5524 129.5,80.5 Z"/></g>
<g><path style="opacity:1" fill="#10689f" d="M 69.5,83.5 C 71.8333,83.5 74.1667,83.5 76.5,83.5C 76.5,80.8333 76.5,78.1667 76.5,75.5C 87.863,83.3474 100.196,89.3474 113.5,93.5C 114.646,97.3935 115.479,101.394 116,105.5C 116.414,105.957 116.914,106.291 117.5,106.5C 123.476,103.167 129.143,99.5006 134.5,95.5C 138.534,95.5045 142.534,95.8379 146.5,96.5C 145.228,102.371 142.894,107.704 139.5,112.5C 110.382,110.389 84.5488,99.7226 62,80.5C 61.7679,81.7375 61.2679,82.7375 60.5,83.5C 60.5,81.8333 60.5,80.1667 60.5,78.5C 58.0521,77.5269 55.3854,77.1936 52.5,77.5C 50.8946,74.6223 49.5612,71.6223 48.5,68.5C 51.8333,68.5 55.1667,68.5 58.5,68.5C 59.2216,68.0825 59.7216,67.4158 60,66.5C 62.3494,69.0168 64.8494,71.3501 67.5,73.5C 68.1672,76.9773 68.8339,80.3107 69.5,83.5 Z"/></g>
<g><path style="opacity:1" fill="#e10e2b" d="M 4.5,91.5 C 13.1893,102.178 22.356,112.511 32,122.5C 37.0734,128.728 41.9067,135.062 46.5,141.5C 24.1972,131.86 10.1972,115.193 4.5,91.5 Z"/></g>
<g><path style="opacity:1" fill="#42426e" d="M 77.5,101.5 C 84.4116,105.788 91.745,109.288 99.5,112C 101.464,113.451 102.797,115.284 103.5,117.5C 101.167,119.167 99.1667,121.167 97.5,123.5C 96.8333,123.833 96.1667,124.167 95.5,124.5C 88.7129,117.388 82.7129,109.721 77.5,101.5 Z"/></g>
<g><path style="opacity:1" fill="#727394" d="M 103.5,117.5 C 107.67,119.339 108.337,122.005 105.5,125.5C 104.078,126.925 102.411,127.925 100.5,128.5C 100.25,126.326 99.2503,124.659 97.5,123.5C 99.1667,121.167 101.167,119.167 103.5,117.5 Z"/></g>
<g><path style="opacity:1" fill="#b9abbd" d="M 97.5,123.5 C 99.2503,124.659 100.25,126.326 100.5,128.5C 99.027,130.395 97.3603,132.061 95.5,133.5C 93.8333,134.167 92.1667,134.833 90.5,135.5C 90.3304,132.796 88.9971,131.129 86.5,130.5C 86.5,129.833 86.8333,129.5 87.5,129.5C 90.1667,127.833 92.8333,126.167 95.5,124.5C 96.1667,124.167 96.8333,123.833 97.5,123.5 Z"/></g>
<g><path style="opacity:1" fill="#513d68" d="M 105.5,125.5 C 108.483,128.76 111.483,132.094 114.5,135.5C 111.35,138.579 107.683,140.913 103.5,142.5C 102.232,138.233 99.5649,135.233 95.5,133.5C 97.3603,132.061 99.027,130.395 100.5,128.5C 102.411,127.925 104.078,126.925 105.5,125.5 Z"/></g>
<g><path style="opacity:1" fill="#6d345c" d="M 95.5,133.5 C 99.5649,135.233 102.232,138.233 103.5,142.5C 99.8899,143.703 96.2232,144.703 92.5,145.5C 91.2003,142.568 89.2003,140.234 86.5,138.5C 87.8333,137.5 89.1667,136.5 90.5,135.5C 92.1667,134.833 93.8333,134.167 95.5,133.5 Z"/></g>
<g><path style="opacity:1" fill="#ad2143" d="M 58.5,136.5 C 63.8712,139.291 69.5379,141.291 75.5,142.5C 77.5869,143.585 78.9202,145.251 79.5,147.5C 73.642,147.822 67.9753,147.489 62.5,146.5C 63.3764,146.631 64.0431,146.298 64.5,145.5C 62.8509,143.35 61.0176,141.35 59,139.5C 58.5172,138.552 58.3505,137.552 58.5,136.5 Z"/></g>
<g><path style="opacity:1" fill="#8b2b51" d="M 86.5,138.5 C 89.2003,140.234 91.2003,142.568 92.5,145.5C 89.546,146.271 86.546,146.938 83.5,147.5C 82.1667,147.5 80.8333,147.5 79.5,147.5C 78.9202,145.251 77.5869,143.585 75.5,142.5C 78.9385,140.796 82.6052,139.462 86.5,138.5 Z"/></g>
</svg>
