<?xml version="1.0" encoding="UTF-8"?>
<!DOCTYPE svg PUBLIC "-//W3C//DTD SVG 1.1//EN" "http://www.w3.org/Graphics/SVG/1.1/DTD/svg11.dtd">
<svg xmlns="http://www.w3.org/2000/svg" version="1.1" width="150px" height="150px" style="shape-rendering:geometricPrecision; text-rendering:geometricPrecision; image-rendering:optimizeQuality; fill-rule:evenodd; clip-rule:evenodd" xmlns:xlink="http://www.w3.org/1999/xlink">
<g><path style="opacity:1" fill="#9fc0d9" d="M 62.5,-0.5 C 65.1667,-0.5 67.8333,-0.5 70.5,-0.5C 72.9743,1.89762 74.3076,4.89762 74.5,8.5C 72.0038,9.58044 69.6705,10.9138 67.5,12.5C 63.3674,14.4 59.3674,16.5667 55.5,19C 54.5769,21.0408 54.2436,23.2075 54.5,25.5C 55.5,25.5 56.5,25.5 57.5,25.5C 55.5,26.8333 53.5,28.1667 51.5,29.5C 49.6336,30.0138 47.8003,30.6805 46,31.5C 43.5268,29.7746 43.0268,27.6079 44.5,25C 48.2052,23.6152 50.8719,21.2819 52.5,18C 51.0028,13.2591 49.0028,8.75909 46.5,4.5C 51.8284,2.50674 57.1617,0.840071 62.5,-0.5 Z"/></g>
<g><path style="opacity:1" fill="#d3e4f0" d="M 70.5,-0.5 C 75.8333,-0.5 81.1667,-0.5 86.5,-0.5C 113.204,4.69168 132.204,19.6917 143.5,44.5C 143.03,45.6935 142.03,46.3601 140.5,46.5C 137.154,45.8295 133.821,45.1628 130.5,44.5C 130.5,49.8333 130.5,55.1667 130.5,60.5C 130.821,66.0262 130.488,71.3595 129.5,76.5C 129.832,63.8158 129.499,51.1492 128.5,38.5C 110.206,28.8367 92.2062,18.8367 74.5,8.5C 74.3076,4.89762 72.9743,1.89762 70.5,-0.5 Z"/></g>
<g><path style="opacity:1" fill="#fbfcfd" d="M 74.5,8.5 C 92.2062,18.8367 110.206,28.8367 128.5,38.5C 129.499,51.1492 129.832,63.8158 129.5,76.5C 129.5,77.5 129.5,78.5 129.5,79.5C 128.883,83.9168 127.883,88.2501 126.5,92.5C 129.073,93.8076 131.74,94.8076 134.5,95.5C 129.167,99.1667 123.833,102.833 118.5,106.5C 116.5,106.5 115.5,105.5 115.5,103.5C 115.041,100.123 114.374,96.7893 113.5,93.5C 112.962,91.8828 112.629,90.2161 112.5,88.5C 112.351,87.448 112.517,86.448 113,85.5C 115.034,87.0316 117.201,88.3649 119.5,89.5C 121.389,85.3922 122.389,81.0589 122.5,76.5C 123.824,65.6596 123.824,54.6596 122.5,43.5C 110.302,36.235 97.9684,29.235 85.5,22.5C 81.7981,20.3104 77.9648,18.3104 74,16.5C 72.8615,16.9891 71.6948,17.3225 70.5,17.5C 68.2591,16.7002 67.2591,15.0336 67.5,12.5C 69.6705,10.9138 72.0038,9.58044 74.5,8.5 Z"/></g>
<g><path style="opacity:1" fill="#d7e5f0" d="M 67.5,12.5 C 67.2591,15.0336 68.2591,16.7002 70.5,17.5C 70.5,17.8333 70.5,18.1667 70.5,18.5C 66.1362,20.3437 62.1362,22.677 58.5,25.5C 58.1667,25.5 57.8333,25.5 57.5,25.5C 56.5,25.5 55.5,25.5 54.5,25.5C 54.2436,23.2075 54.5769,21.0408 55.5,19C 59.3674,16.5667 63.3674,14.4 67.5,12.5 Z"/></g>
<g><path style="opacity:1" fill="#b1cfe5" d="M 85.5,22.5 C 94.7866,35.0967 106.787,44.43 121.5,50.5C 122.489,54.1073 122.823,57.774 122.5,61.5C 118.668,61.0556 115.168,59.7223 112,57.5C 110.82,58.6841 109.32,59.3507 107.5,59.5C 105.955,59.4892 104.622,59.1558 103.5,58.5C 105.833,58.5 108.167,58.5 110.5,58.5C 108.839,50.5457 103.839,47.2124 95.5,48.5C 85.6895,39.6932 77.3561,29.6932 70.5,18.5C 70.5,18.1667 70.5,17.8333 70.5,17.5C 71.6948,17.3225 72.8615,16.9891 74,16.5C 77.9648,18.3104 81.7981,20.3104 85.5,22.5 Z"/></g>
<g><path style="opacity:1" fill="#9cc2dd" d="M 70.5,18.5 C 77.3561,29.6932 85.6895,39.6932 95.5,48.5C 92.8205,48.6726 90.4872,49.6726 88.5,51.5C 87.6143,50.675 87.281,49.675 87.5,48.5C 82.8333,48.5 78.1667,48.5 73.5,48.5C 67.2934,41.6255 62.2934,33.9588 58.5,25.5C 62.1362,22.677 66.1362,20.3437 70.5,18.5 Z"/></g>
<g><path style="opacity:0.848" fill="#2d3b51" d="M 25.5,17.5 C 25.6567,18.8734 25.49,20.2068 25,21.5C 19.4892,26.8301 14.9892,32.8301 11.5,39.5C 8.10566,44.2961 5.77233,49.6294 4.5,55.5C 2.04498,63.4935 1.37832,71.4935 2.5,79.5C 2.20528,81.7354 2.53862,83.7354 3.5,85.5C 6.31172,107.966 17.3117,125.133 36.5,137C 40.8622,139.872 45.5288,142.039 50.5,143.5C 53.906,145.109 57.5727,146.276 61.5,147C 67.4908,147.499 73.4908,147.666 79.5,147.5C 84.5484,147.158 89.5484,146.492 94.5,145.5C 99.6594,143.891 104.659,141.891 109.5,139.5C 109.833,139.5 110.167,139.5 110.5,139.5C 111.167,139.5 111.833,139.5 112.5,139.5C 104.343,144.218 95.6768,147.551 86.5,149.5C 78.5,149.5 70.5,149.5 62.5,149.5C 28.5,141.5 7.5,120.5 -0.5,86.5C -0.5,78.5 -0.5,70.5 -0.5,62.5C 2.73611,44.361 11.4028,29.361 25.5,17.5 Z"/></g>
<g><path style="opacity:1" fill="#c1d9eb" d="M 85.5,22.5 C 97.9684,29.235 110.302,36.235 122.5,43.5C 123.824,54.6596 123.824,65.6596 122.5,76.5C 122.5,76.1667 122.5,75.8333 122.5,75.5C 122.5,70.8333 122.5,66.1667 122.5,61.5C 122.823,57.774 122.489,54.1073 121.5,50.5C 106.787,44.43 94.7866,35.0967 85.5,22.5 Z"/></g>
<g><path style="opacity:1" fill="#55728c" d="M 37.5,8.5 C 37.5858,9.4959 37.2524,10.3292 36.5,11C 39.8268,16.1259 40.8268,21.6259 39.5,27.5C 38.354,28.1449 37.354,28.9783 36.5,30C 37.5937,31.7803 38.5937,33.6136 39.5,35.5C 41.5645,33.7386 43.7311,33.4053 46,34.5C 48.6618,39.3156 51.4951,43.9823 54.5,48.5C 50.8333,48.5 47.1667,48.5 43.5,48.5C 43.0327,42.8874 40.5327,38.554 36,35.5C 34.691,33.3136 34.5243,31.1469 35.5,29C 33.3264,23.9797 31.6597,18.813 30.5,13.5C 32.6195,11.6002 34.9528,9.93357 37.5,8.5 Z"/></g>
<g><path style="opacity:1" fill="#f5f8fb" d="M 25.5,62.5 C 25.407,68.8627 25.7403,75.1961 26.5,81.5C 31.8756,107.872 47.2089,125.538 72.5,134.5C 72.7352,135.097 73.2352,135.43 74,135.5C 78.0584,134.101 81.8918,132.434 85.5,130.5C 85.8333,130.5 86.1667,130.5 86.5,130.5C 90.1716,130.183 91.8383,131.849 91.5,135.5C 90.8333,135.833 90.1667,136.167 89.5,136.5C 85.505,138.165 81.505,139.832 77.5,141.5C 76.3052,141.678 75.1385,142.011 74,142.5C 50.6016,135.557 34.1016,120.891 24.5,98.5C 20.8407,89.1856 18.8407,79.5189 18.5,69.5C 18.5,64.5 18.5,59.5 18.5,54.5C 15.4281,54.8174 12.4281,54.4841 9.5,53.5C 12.5222,50.1467 15.5222,46.8134 18.5,43.5C 20.2959,42.2073 21.9625,40.7073 23.5,39C 24.3317,38.3123 24.9984,38.479 25.5,39.5C 28.1667,44.8333 30.8333,50.1667 33.5,55.5C 30.8742,56.4492 28.2075,56.4492 25.5,55.5C 25.5,57.8333 25.5,60.1667 25.5,62.5 Z"/></g>
<g><path style="opacity:1" fill="#355f85" d="M 30.5,13.5 C 31.6597,18.813 33.3264,23.9797 35.5,29C 34.5243,31.1469 34.691,33.3136 36,35.5C 40.5327,38.554 43.0327,42.8874 43.5,48.5C 41.5,48.5 39.5,48.5 37.5,48.5C 37.5,57.5 37.5,66.5 37.5,75.5C 33.5,71.1667 29.5,66.8333 25.5,62.5C 25.5,60.1667 25.5,57.8333 25.5,55.5C 28.2075,56.4492 30.8742,56.4492 33.5,55.5C 30.8333,50.1667 28.1667,44.8333 25.5,39.5C 24.9984,38.479 24.3317,38.3123 23.5,39C 21.9625,40.7073 20.2959,42.2073 18.5,43.5C 15.6967,43.0387 13.3634,41.7053 11.5,39.5C 14.9892,32.8301 19.4892,26.8301 25,21.5C 25.49,20.2068 25.6567,18.8734 25.5,17.5C 26.5794,15.457 28.246,14.1237 30.5,13.5 Z"/></g>
<g><path style="opacity:1" fill="#7ea1bc" d="M 57.5,25.5 C 57.8333,25.5 58.1667,25.5 58.5,25.5C 62.2934,33.9588 67.2934,41.6255 73.5,48.5C 69.8333,48.5 66.1667,48.5 62.5,48.5C 58.434,42.4254 54.7673,36.092 51.5,29.5C 53.5,28.1667 55.5,26.8333 57.5,25.5 Z"/></g>
<g><path style="opacity:1" fill="#6e8ca6" d="M 46.5,4.5 C 49.0028,8.75909 51.0028,13.2591 52.5,18C 50.8719,21.2819 48.2052,23.6152 44.5,25C 43.0268,27.6079 43.5268,29.7746 46,31.5C 47.8003,30.6805 49.6336,30.0138 51.5,29.5C 54.7673,36.092 58.434,42.4254 62.5,48.5C 61.8333,48.5 61.1667,48.5 60.5,48.5C 59.8333,48.5 59.1667,48.5 58.5,48.5C 57.1667,48.5 55.8333,48.5 54.5,48.5C 51.4951,43.9823 48.6618,39.3156 46,34.5C 43.7311,33.4053 41.5645,33.7386 39.5,35.5C 38.5937,33.6136 37.5937,31.7803 36.5,30C 37.354,28.9783 38.354,28.1449 39.5,27.5C 40.8268,21.6259 39.8268,16.1259 36.5,11C 37.2524,10.3292 37.5858,9.4959 37.5,8.5C 40.3777,6.89456 43.3777,5.56123 46.5,4.5 Z"/></g>
<g><path style="opacity:1" fill="#f8fafc" d="M 60.5,48.5 C 61.1667,48.5 61.8333,48.5 62.5,48.5C 66.1667,48.5 69.8333,48.5 73.5,48.5C 78.1667,48.5 82.8333,48.5 87.5,48.5C 87.281,49.675 87.6143,50.675 88.5,51.5C 90.4872,49.6726 92.8205,48.6726 95.5,48.5C 103.839,47.2124 108.839,50.5457 110.5,58.5C 108.167,58.5 105.833,58.5 103.5,58.5C 101.023,52.7715 97.5234,52.1049 93,56.5C 92.3333,57.5 92.3333,58.5 93,59.5C 97.638,62.3792 102.471,64.8792 107.5,67C 110.029,69.6417 111.029,72.8084 110.5,76.5C 109.749,79.7533 107.749,81.92 104.5,83C 101.518,83.498 98.5184,83.6646 95.5,83.5C 89.7417,83.0764 86.075,80.0764 84.5,74.5C 86.2789,72.6565 88.6122,71.9898 91.5,72.5C 92.5601,78.0953 95.8935,79.9286 101.5,78C 103.576,76.1159 103.91,73.9492 102.5,71.5C 96.9725,69.4866 91.8059,66.8199 87,63.5C 85.8512,60.6074 85.3512,57.6074 85.5,54.5C 82.5,54.5 79.5,54.5 76.5,54.5C 79.6248,53.5206 82.9581,53.1872 86.5,53.5C 86.5,52.1667 86.5,50.8333 86.5,49.5C 77.6506,49.8264 68.9839,49.493 60.5,48.5 Z"/></g>
<g><path style="opacity:0.998" fill="#c9d5e0" d="M 43.5,48.5 C 47.1667,48.5 50.8333,48.5 54.5,48.5C 55.8333,48.5 57.1667,48.5 58.5,48.5C 52.021,49.4907 45.3543,49.824 38.5,49.5C 38.5,60.8333 38.5,72.1667 38.5,83.5C 37.5269,81.0521 37.1936,78.3854 37.5,75.5C 37.5,66.5 37.5,57.5 37.5,48.5C 39.5,48.5 41.5,48.5 43.5,48.5 Z"/></g>
<g><path style="opacity:1" fill="#fcfdfd" d="M 58.5,48.5 C 59.1667,48.5 59.8333,48.5 60.5,48.5C 68.9839,49.493 77.6506,49.8264 86.5,49.5C 86.5,50.8333 86.5,52.1667 86.5,53.5C 82.9581,53.1872 79.6248,53.5206 76.5,54.5C 76.5,59.1667 76.5,63.8333 76.5,68.5C 76.5,70.8333 76.5,73.1667 76.5,75.5C 76.5,78.1667 76.5,80.8333 76.5,83.5C 74.1667,83.5 71.8333,83.5 69.5,83.5C 69.5,73.8333 69.5,64.1667 69.5,54.5C 65.8333,54.5 62.1667,54.5 58.5,54.5C 54.1667,54.5 49.8333,54.5 45.5,54.5C 44.5233,57.2869 44.19,60.2869 44.5,63.5C 49.1667,63.5 53.8333,63.5 58.5,63.5C 58.5,65.1667 58.5,66.8333 58.5,68.5C 55.1667,68.5 51.8333,68.5 48.5,68.5C 47.5,68.5 46.5,68.5 45.5,68.5C 44.5206,71.6248 44.1872,74.9581 44.5,78.5C 49.8333,78.5 55.1667,78.5 60.5,78.5C 60.5,80.1667 60.5,81.8333 60.5,83.5C 59.5,83.5 58.5,83.5 57.5,83.5C 56.5,83.5 55.5,83.5 54.5,83.5C 51.1667,83.5 47.8333,83.5 44.5,83.5C 42.5,83.5 40.5,83.5 38.5,83.5C 38.5,72.1667 38.5,60.8333 38.5,49.5C 45.3543,49.824 52.021,49.4907 58.5,48.5 Z"/></g>
<g><path style="opacity:1" fill="#2b70a4" d="M 11.5,39.5 C 13.3634,41.7053 15.6967,43.0387 18.5,43.5C 15.5222,46.8134 12.5222,50.1467 9.5,53.5C 12.4281,54.4841 15.4281,54.8174 18.5,54.5C 18.5,59.5 18.5,64.5 18.5,69.5C 15.1983,66.0257 12.0316,62.359 9,58.5C 7.87099,56.8588 6.37099,55.8588 4.5,55.5C 5.77233,49.6294 8.10566,44.2961 11.5,39.5 Z"/></g>
<g><path style="opacity:1" fill="#7089a0" d="M 58.5,54.5 C 62.1667,54.5 65.8333,54.5 69.5,54.5C 69.5,64.1667 69.5,73.8333 69.5,83.5C 68.5318,81.3926 68.1984,79.0593 68.5,76.5C 68.6653,72.8183 68.4986,69.1516 68,65.5C 64.2271,62.2365 61.0604,58.5698 58.5,54.5 Z"/></g>
<g><path style="opacity:1" fill="#b7d3e7" d="M 143.5,44.5 C 146.353,50.0734 148.02,56.0734 148.5,62.5C 142.5,61.8333 136.5,61.1667 130.5,60.5C 130.5,55.1667 130.5,49.8333 130.5,44.5C 133.821,45.1628 137.154,45.8295 140.5,46.5C 142.03,46.3601 143.03,45.6935 143.5,44.5 Z"/></g>
<g><path style="opacity:1" fill="#9fc4df" d="M 103.5,58.5 C 104.622,59.1558 105.955,59.4892 107.5,59.5C 109.32,59.3507 110.82,58.6841 112,57.5C 115.168,59.7223 118.668,61.0556 122.5,61.5C 122.5,66.1667 122.5,70.8333 122.5,75.5C 118.777,74.653 115.111,73.653 111.5,72.5C 111.768,74.099 111.434,75.4324 110.5,76.5C 111.029,72.8084 110.029,69.6417 107.5,67C 102.471,64.8792 97.638,62.3792 93,59.5C 92.3333,58.5 92.3333,57.5 93,56.5C 97.5234,52.1049 101.023,52.7715 103.5,58.5 Z"/></g>
<g><path style="opacity:1" fill="#50657d" d="M 45.5,54.5 C 49.8333,54.5 54.1667,54.5 58.5,54.5C 61.0604,58.5698 64.2271,62.2365 68,65.5C 68.4986,69.1516 68.6653,72.8183 68.5,76.5C 67.448,76.6495 66.448,76.4828 65.5,76C 62.9334,73.6041 60.6,71.1041 58.5,68.5C 58.5,66.8333 58.5,65.1667 58.5,63.5C 54.3656,62.5151 50.0323,62.1818 45.5,62.5C 45.5,59.8333 45.5,57.1667 45.5,54.5 Z"/></g>
<g><path style="opacity:1" fill="#9fabb8" d="M 45.5,54.5 C 45.5,57.1667 45.5,59.8333 45.5,62.5C 50.0323,62.1818 54.3656,62.5151 58.5,63.5C 53.8333,63.5 49.1667,63.5 44.5,63.5C 44.19,60.2869 44.5233,57.2869 45.5,54.5 Z"/></g>
<g><path style="opacity:1" fill="#799ab5" d="M 76.5,54.5 C 79.5,54.5 82.5,54.5 85.5,54.5C 85.3512,57.6074 85.8512,60.6074 87,63.5C 91.8059,66.8199 96.9725,69.4866 102.5,71.5C 103.91,73.9492 103.576,76.1159 101.5,78C 95.8935,79.9286 92.5601,78.0953 91.5,72.5C 88.6122,71.9898 86.2789,72.6565 84.5,74.5C 81.8333,72.5 79.1667,70.5 76.5,68.5C 76.5,63.8333 76.5,59.1667 76.5,54.5 Z"/></g>
<g><path style="opacity:1" fill="#2e83c1" d="M 4.5,55.5 C 6.37099,55.8588 7.87099,56.8588 9,58.5C 12.0316,62.359 15.1983,66.0257 18.5,69.5C 18.8407,79.5189 20.8407,89.1856 24.5,98.5C 17.1982,90.3588 10.0315,82.0254 3,73.5C 2.50454,75.4727 2.33788,77.4727 2.5,79.5C 1.37832,71.4935 2.04498,63.4935 4.5,55.5 Z"/></g>
<g><path style="opacity:1" fill="#2a5d87" d="M 45.5,68.5 C 46.5,68.5 47.5,68.5 48.5,68.5C 49.5612,71.6223 50.8946,74.6223 52.5,77.5C 50.1667,77.5 47.8333,77.5 45.5,77.5C 45.5,74.5 45.5,71.5 45.5,68.5 Z"/></g>
<g><path style="opacity:1" fill="#9bc0dc" d="M 130.5,60.5 C 136.5,61.1667 142.5,61.8333 148.5,62.5C 148.833,62.5 149.167,62.5 149.5,62.5C 149.5,68.8333 149.5,75.1667 149.5,81.5C 142.776,81.3259 136.109,80.6592 129.5,79.5C 129.5,78.5 129.5,77.5 129.5,76.5C 130.488,71.3595 130.821,66.0262 130.5,60.5 Z"/></g>
<g><path style="opacity:1" fill="#9eb2c4" d="M 45.5,68.5 C 45.5,71.5 45.5,74.5 45.5,77.5C 47.8333,77.5 50.1667,77.5 52.5,77.5C 55.5,77.5 58.5,77.5 61.5,77.5C 61.5,78.5 61.5,79.5 61.5,80.5C 61.7373,81.791 61.404,82.791 60.5,83.5C 60.5,81.8333 60.5,80.1667 60.5,78.5C 55.1667,78.5 49.8333,78.5 44.5,78.5C 44.1872,74.9581 44.5206,71.6248 45.5,68.5 Z"/></g>
<g><path style="opacity:1" fill="#2d8dd1" d="M 24.5,98.5 C 34.1016,120.891 50.6016,135.557 74,142.5C 75.1385,142.011 76.3052,141.678 77.5,141.5C 77.3893,142.117 77.056,142.617 76.5,143C 78.1412,144.129 79.1412,145.629 79.5,147.5C 73.4908,147.666 67.4908,147.499 61.5,147C 57.5727,146.276 53.906,145.109 50.5,143.5C 53.9067,143.875 54.4067,142.875 52,140.5C 36.6667,122.5 21.3333,104.5 6,86.5C 5.32924,85.7476 4.4959,85.4142 3.5,85.5C 2.53862,83.7354 2.20528,81.7354 2.5,79.5C 2.33788,77.4727 2.50454,75.4727 3,73.5C 10.0315,82.0254 17.1982,90.3588 24.5,98.5 Z"/></g>
<g><path style="opacity:1" fill="#7b9bb5" d="M 122.5,75.5 C 122.5,75.8333 122.5,76.1667 122.5,76.5C 122.389,81.0589 121.389,85.3922 119.5,89.5C 117.201,88.3649 115.034,87.0316 113,85.5C 112.517,86.448 112.351,87.448 112.5,88.5C 111.596,87.791 111.263,86.791 111.5,85.5C 106.014,84.9818 100.681,84.3151 95.5,83.5C 98.5184,83.6646 101.518,83.498 104.5,83C 107.749,81.92 109.749,79.7533 110.5,76.5C 111.434,75.4324 111.768,74.099 111.5,72.5C 115.111,73.653 118.777,74.653 122.5,75.5 Z"/></g>
<g><path style="opacity:1" fill="#2a70a5" d="M 25.5,62.5 C 29.5,66.8333 33.5,71.1667 37.5,75.5C 37.1936,78.3854 37.5269,81.0521 38.5,83.5C 40.5,83.5 42.5,83.5 44.5,83.5C 55.7447,97.6225 67.2447,111.622 79,125.5C 80.7772,127.79 82.9438,129.457 85.5,130.5C 81.8918,132.434 78.0584,134.101 74,135.5C 73.2352,135.43 72.7352,135.097 72.5,134.5C 59.235,118.059 45.735,101.726 32,85.5C 30.549,83.5359 28.7157,82.2026 26.5,81.5C 25.7403,75.1961 25.407,68.8627 25.5,62.5 Z"/></g>
<g><path style="opacity:0.992" fill="#2d3a4f" d="M 61.5,80.5 C 84.2169,98.3578 109.884,109.358 138.5,113.5C 132.188,124.479 123.521,133.145 112.5,139.5C 111.833,139.5 111.167,139.5 110.5,139.5C 115.072,137.048 119.072,133.882 122.5,130C 118.199,123.7 113.199,118.034 107.5,113C 97.4132,111.362 88.0798,107.862 79.5,102.5C 70.9104,97.5739 63.5771,91.2406 57.5,83.5C 58.5,83.5 59.5,83.5 60.5,83.5C 61.404,82.791 61.7373,81.791 61.5,80.5 Z"/></g>
<g><path style="opacity:1" fill="#607a93" d="M 76.5,68.5 C 79.1667,70.5 81.8333,72.5 84.5,74.5C 86.075,80.0764 89.7417,83.0764 95.5,83.5C 100.681,84.3151 106.014,84.9818 111.5,85.5C 111.263,86.791 111.596,87.791 112.5,88.5C 112.629,90.2161 112.962,91.8828 113.5,93.5C 99.9468,89.8895 87.6135,83.8895 76.5,75.5C 76.5,73.1667 76.5,70.8333 76.5,68.5 Z"/></g>
<g><path style="opacity:1" fill="#2d7eba" d="M 26.5,81.5 C 28.7157,82.2026 30.549,83.5359 32,85.5C 45.735,101.726 59.235,118.059 72.5,134.5C 47.2089,125.538 31.8756,107.872 26.5,81.5 Z"/></g>
<g><path style="opacity:1" fill="#7797b2" d="M 129.5,79.5 C 136.109,80.6592 142.776,81.3259 149.5,81.5C 149.5,83.1667 149.5,84.8333 149.5,86.5C 148.626,89.5349 147.626,92.5349 146.5,95.5C 142.251,95.3167 138.251,95.3167 134.5,95.5C 131.74,94.8076 129.073,93.8076 126.5,92.5C 127.883,88.2501 128.883,83.9168 129.5,79.5 Z"/></g>
<g><path style="opacity:1" fill="#2a6492" d="M 44.5,83.5 C 47.8333,83.5 51.1667,83.5 54.5,83.5C 65.7989,98.7933 78.1322,113.127 91.5,126.5C 90.0158,128.074 88.3492,129.407 86.5,130.5C 86.1667,130.5 85.8333,130.5 85.5,130.5C 82.9438,129.457 80.7772,127.79 79,125.5C 67.2447,111.622 55.7447,97.6225 44.5,83.5 Z"/></g>
<g><path style="opacity:1" fill="#3a4a60" d="M 48.5,68.5 C 51.8333,68.5 55.1667,68.5 58.5,68.5C 60.6,71.1041 62.9334,73.6041 65.5,76C 66.448,76.4828 67.448,76.6495 68.5,76.5C 68.1984,79.0593 68.5318,81.3926 69.5,83.5C 71.8333,83.5 74.1667,83.5 76.5,83.5C 77.9784,85.3638 79.9784,86.6971 82.5,87.5C 83.8155,88.8066 84.8155,90.3066 85.5,92C 95.0131,97.2627 105.013,101.096 115.5,103.5C 115.5,105.5 116.5,106.5 118.5,106.5C 125.954,107.373 133.287,108.706 140.5,110.5C 140.573,112.027 139.906,113.027 138.5,113.5C 109.884,109.358 84.2169,98.3578 61.5,80.5C 61.5,79.5 61.5,78.5 61.5,77.5C 58.5,77.5 55.5,77.5 52.5,77.5C 50.8946,74.6223 49.5612,71.6223 48.5,68.5 Z"/></g>
<g><path style="opacity:1" fill="#4f647b" d="M 76.5,75.5 C 87.6135,83.8895 99.9468,89.8895 113.5,93.5C 114.374,96.7893 115.041,100.123 115.5,103.5C 105.013,101.096 95.0131,97.2627 85.5,92C 84.8155,90.3066 83.8155,88.8066 82.5,87.5C 79.9784,86.6971 77.9784,85.3638 76.5,83.5C 76.5,80.8333 76.5,78.1667 76.5,75.5 Z"/></g>
<g><path style="opacity:1" fill="#2b5a82" d="M 54.5,83.5 C 55.5,83.5 56.5,83.5 57.5,83.5C 63.5771,91.2406 70.9104,97.5739 79.5,102.5C 85.0791,109.419 91.0791,116.086 97.5,122.5C 96.6935,123.728 95.6935,124.728 94.5,125.5C 93.609,126.11 92.609,126.443 91.5,126.5C 78.1322,113.127 65.7989,98.7933 54.5,83.5 Z"/></g>
<g><path style="opacity:1" fill="#2998e3" d="M 3.5,85.5 C 4.4959,85.4142 5.32924,85.7476 6,86.5C 21.3333,104.5 36.6667,122.5 52,140.5C 54.4067,142.875 53.9067,143.875 50.5,143.5C 45.5288,142.039 40.8622,139.872 36.5,137C 17.3117,125.133 6.31172,107.966 3.5,85.5 Z"/></g>
<g><path style="opacity:1" fill="#4b5f76" d="M 146.5,95.5 C 145.657,101.043 143.657,106.043 140.5,110.5C 133.287,108.706 125.954,107.373 118.5,106.5C 123.833,102.833 129.167,99.1667 134.5,95.5C 138.251,95.3167 142.251,95.3167 146.5,95.5 Z"/></g>
<g><path style="opacity:1" fill="#2d4f6f" d="M 79.5,102.5 C 88.0798,107.862 97.4132,111.362 107.5,113C 113.199,118.034 118.199,123.7 122.5,130C 119.072,133.882 115.072,137.048 110.5,139.5C 110.167,139.5 109.833,139.5 109.5,139.5C 106.585,135.831 104.251,131.831 102.5,127.5C 106.905,125.292 107.572,122.292 104.5,118.5C 101.697,118.961 99.3634,120.295 97.5,122.5C 91.0791,116.086 85.0791,109.419 79.5,102.5 Z"/></g>
<g><path style="opacity:1" fill="#728da5" d="M 102.5,127.5 C 100.833,128.833 99.1667,130.167 97.5,131.5C 97.3794,128.895 96.3794,126.895 94.5,125.5C 95.6935,124.728 96.6935,123.728 97.5,122.5C 99.3634,120.295 101.697,118.961 104.5,118.5C 107.572,122.292 106.905,125.292 102.5,127.5 Z"/></g>
<g><path style="opacity:1" fill="#a1b7ca" d="M 94.5,125.5 C 96.3794,126.895 97.3794,128.895 97.5,131.5C 95.5,132.833 93.5,134.167 91.5,135.5C 91.8383,131.849 90.1716,130.183 86.5,130.5C 88.3492,129.407 90.0158,128.074 91.5,126.5C 92.609,126.443 93.609,126.11 94.5,125.5 Z"/></g>
<g><path style="opacity:1" fill="#2b628e" d="M 102.5,127.5 C 104.251,131.831 106.585,135.831 109.5,139.5C 104.659,141.891 99.6594,143.891 94.5,145.5C 93.0227,142.409 91.3561,139.409 89.5,136.5C 90.1667,136.167 90.8333,135.833 91.5,135.5C 93.5,134.167 95.5,132.833 97.5,131.5C 99.1667,130.167 100.833,128.833 102.5,127.5 Z"/></g>
<g><path style="opacity:1" fill="#2d74aa" d="M 89.5,136.5 C 91.3561,139.409 93.0227,142.409 94.5,145.5C 89.5484,146.492 84.5484,147.158 79.5,147.5C 79.1412,145.629 78.1412,144.129 76.5,143C 77.056,142.617 77.3893,142.117 77.5,141.5C 81.505,139.832 85.505,138.165 89.5,136.5 Z"/></g>
</svg>
