<?xml version="1.0" encoding="UTF-8"?>
<!DOCTYPE svg PUBLIC "-//W3C//DTD SVG 1.1//EN" "http://www.w3.org/Graphics/SVG/1.1/DTD/svg11.dtd">
<svg xmlns="http://www.w3.org/2000/svg" version="1.1" width="150px" height="150px" style="shape-rendering:geometricPrecision; text-rendering:geometricPrecision; image-rendering:optimizeQuality; fill-rule:evenodd; clip-rule:evenodd" xmlns:xlink="http://www.w3.org/1999/xlink">
<g><path style="opacity:1" fill="#7cb7f8" d="M 69.5,-0.5 C 72.5,-0.5 75.5,-0.5 78.5,-0.5C 78.0825,0.221579 77.4158,0.721579 76.5,1C 78.2537,4.34063 79.5871,7.84063 80.5,11.5C 78.1602,10.914 75.9935,9.91397 74,8.5C 73.3292,9.25244 72.4959,9.58577 71.5,9.5C 70.7979,6.5602 69.7979,3.72687 68.5,1C 69.056,0.617425 69.3893,0.117425 69.5,-0.5 Z"/></g>
<g><path style="opacity:1" fill="#5d9ff6" d="M 62.5,-0.5 C 64.8333,-0.5 67.1667,-0.5 69.5,-0.5C 69.3893,0.117425 69.056,0.617425 68.5,1C 69.7979,3.72687 70.7979,6.5602 71.5,9.5C 69.7952,11.1921 67.7952,12.5254 65.5,13.5C 63.9505,14.4408 62.2838,15.1075 60.5,15.5C 59.243,11.5587 58.0764,7.55872 57,3.5C 55.9887,2.66337 54.8221,2.33003 53.5,2.5C 56.4651,1.37448 59.4651,0.37448 62.5,-0.5 Z"/></g>
<g><path style="opacity:1" fill="#b5e5fc" d="M 79.5,-0.5 C 81.8333,-0.5 84.1667,-0.5 86.5,-0.5C 89.5349,0.37448 92.5349,1.37448 95.5,2.5C 95.0618,2.43456 94.7284,2.60123 94.5,3C 103.884,22.5519 119.218,34.3853 140.5,38.5C 141.737,39.9649 142.737,41.6316 143.5,43.5C 142.601,44.4715 141.434,45.1382 140,45.5C 136.657,44.9039 133.491,43.9039 130.5,42.5C 130.5,45.8333 130.5,49.1667 130.5,52.5C 130.5,55.5 130.5,58.5 130.5,61.5C 130.5,65.1667 130.5,68.8333 130.5,72.5C 130.768,74.099 130.434,75.4324 129.5,76.5C 129.832,63.8158 129.499,51.1492 128.5,38.5C 115.771,31.4721 103.105,24.4721 90.5,17.5C 91.2389,17.631 91.9056,17.4643 92.5,17C 89.1801,12.1941 86.5134,7.02745 84.5,1.5C 82.7086,0.830151 81.0419,0.163485 79.5,-0.5 Z"/></g>
<g><path style="opacity:1" fill="#387be8" d="M 53.5,2.5 C 54.8221,2.33003 55.9887,2.66337 57,3.5C 58.0764,7.55872 59.243,11.5587 60.5,15.5C 58.8333,16.8333 57.1667,18.1667 55.5,19.5C 53.0462,20.2271 50.7128,21.2271 48.5,22.5C 47.3829,17.8102 46.0495,13.1435 44.5,8.5C 44.8457,7.15082 45.179,5.81748 45.5,4.5C 48.1123,3.6295 50.779,2.96283 53.5,2.5 Z"/></g>
<g><path style="opacity:1" fill="#96cdfa" d="M 78.5,-0.5 C 78.8333,-0.5 79.1667,-0.5 79.5,-0.5C 81.0419,0.163485 82.7086,0.830151 84.5,1.5C 86.5134,7.02745 89.1801,12.1941 92.5,17C 91.9056,17.4643 91.2389,17.631 90.5,17.5C 86.7991,15.9884 83.4658,13.9884 80.5,11.5C 79.5871,7.84063 78.2537,4.34063 76.5,1C 77.4158,0.721579 78.0825,0.221579 78.5,-0.5 Z"/></g>
<g><path style="opacity:0.989" fill="#d0fafe" d="M 95.5,2.5 C 115.662,8.0771 130.662,20.0771 140.5,38.5C 119.218,34.3853 103.884,22.5519 94.5,3C 94.7284,2.60123 95.0618,2.43456 95.5,2.5 Z"/></g>
<g><path style="opacity:1" fill="#fafbfe" d="M 80.5,11.5 C 83.4658,13.9884 86.7991,15.9884 90.5,17.5C 103.105,24.4721 115.771,31.4721 128.5,38.5C 129.499,51.1492 129.832,63.8158 129.5,76.5C 129.492,79.5448 129.159,82.5448 128.5,85.5C 127.992,87.8654 127.325,90.1987 126.5,92.5C 129.073,93.8076 131.74,94.8076 134.5,95.5C 129.143,99.5006 123.476,103.167 117.5,106.5C 116.295,105.423 115.628,104.09 115.5,102.5C 114.245,97.8936 113.245,93.227 112.5,88.5C 112.351,87.448 112.517,86.448 113,85.5C 115.034,87.0316 117.201,88.3649 119.5,89.5C 121.259,85.7074 122.259,81.7074 122.5,77.5C 123.824,66.3265 123.824,54.9931 122.5,43.5C 109.977,36.7412 97.6436,29.7412 85.5,22.5C 82.0568,20.8956 78.7234,19.0623 75.5,17C 74.2506,16.2599 73.2506,16.4265 72.5,17.5C 71.391,17.5569 70.391,17.8902 69.5,18.5C 66.5299,18.2542 65.1966,16.5876 65.5,13.5C 67.7952,12.5254 69.7952,11.1921 71.5,9.5C 72.4959,9.58577 73.3292,9.25244 74,8.5C 75.9935,9.91397 78.1602,10.914 80.5,11.5 Z"/></g>
<g><path style="opacity:1" fill="#b7d3fa" d="M 65.5,13.5 C 65.1966,16.5876 66.5299,18.2542 69.5,18.5C 69.5,18.8333 69.5,19.1667 69.5,19.5C 67.1815,19.9925 65.1815,20.9925 63.5,22.5C 61.9505,23.4408 60.2838,24.1075 58.5,24.5C 56.7497,23.3406 55.7497,21.674 55.5,19.5C 57.1667,18.1667 58.8333,16.8333 60.5,15.5C 62.2838,15.1075 63.9505,14.4408 65.5,13.5 Z"/></g>
<g><path style="opacity:1" fill="#83a6e7" d="M 55.5,19.5 C 55.7497,21.674 56.7497,23.3406 58.5,24.5C 56.3428,26.4121 54.0094,28.0787 51.5,29.5C 48.2546,29.7066 46.2546,28.2066 45.5,25C 46.3734,23.955 47.3734,23.1217 48.5,22.5C 50.7128,21.2271 53.0462,20.2271 55.5,19.5 Z"/></g>
<g><path style="opacity:0.869" fill="#0c2592" d="M 24.5,18.5 C 24.5,19.8333 24.5,21.1667 24.5,22.5C 19.0791,27.2644 14.7458,32.9311 11.5,39.5C 4.27913,51.6167 1.27913,64.6167 2.5,78.5C 5.18903,109.053 20.5224,130.553 48.5,143C 57.8101,146.663 67.4768,148.163 77.5,147.5C 88.6236,147.47 98.9569,144.803 108.5,139.5C 109.609,139.443 110.609,139.11 111.5,138.5C 111.5,139.167 111.833,139.5 112.5,139.5C 104.343,144.218 95.6768,147.551 86.5,149.5C 78.5,149.5 70.5,149.5 62.5,149.5C 28.5,141.5 7.5,120.5 -0.5,86.5C -0.5,78.5 -0.5,70.5 -0.5,62.5C 2.64475,44.8763 10.9781,30.2096 24.5,18.5 Z"/></g>
<g><path style="opacity:1" fill="#2e32ab" d="M 38.5,48.5 C 37.5098,54.6446 37.1765,60.9779 37.5,67.5C 33.7966,63.7977 30.4633,59.7977 27.5,55.5C 29.3792,56.3414 31.3792,56.6747 33.5,56.5C 31.0594,50.2854 28.0594,44.2854 24.5,38.5C 21.8136,40.8558 19.147,43.1891 16.5,45.5C 16.2876,42.2876 14.6209,40.2876 11.5,39.5C 14.7458,32.9311 19.0791,27.2644 24.5,22.5C 25.7942,21.7101 26.9609,20.7101 28,19.5C 30.7465,29.5166 34.2465,39.1833 38.5,48.5 Z"/></g>
<g><path style="opacity:1" fill="#2d5fca" d="M 45.5,4.5 C 45.179,5.81748 44.8457,7.15082 44.5,8.5C 46.0495,13.1435 47.3829,17.8102 48.5,22.5C 47.3734,23.1217 46.3734,23.955 45.5,25C 46.2546,28.2066 48.2546,29.7066 51.5,29.5C 52.3764,29.3691 53.0431,29.7025 53.5,30.5C 57.0141,36.8727 61.0141,42.8727 65.5,48.5C 63.8333,48.5 62.1667,48.5 60.5,48.5C 59.8333,48.5 59.1667,48.5 58.5,48.5C 55.5,48.5 52.5,48.5 49.5,48.5C 46.452,44.1022 43.7853,39.4356 41.5,34.5C 40.8333,34.8333 40.1667,35.1667 39.5,35.5C 36.8846,32.6228 36.5512,29.7895 38.5,27C 36.3931,22.1711 34.3931,17.3378 32.5,12.5C 36.2951,9.09546 40.6285,6.42879 45.5,4.5 Z"/></g>
<g><path style="opacity:1" fill="#387ce9" d="M 63.5,22.5 C 69.1745,31.8082 75.8412,40.4748 83.5,48.5C 77.5,48.5 71.5,48.5 65.5,48.5C 61.0141,42.8727 57.0141,36.8727 53.5,30.5C 53.0431,29.7025 52.3764,29.3691 51.5,29.5C 54.0094,28.0787 56.3428,26.4121 58.5,24.5C 60.2838,24.1075 61.9505,23.4408 63.5,22.5 Z"/></g>
<g><path style="opacity:1" fill="#68a8f7" d="M 72.5,17.5 C 77.6555,22.0542 82.1555,27.3875 86,33.5C 90.033,37.8679 94.3663,41.8679 99,45.5C 99.2387,46.788 98.7387,47.788 97.5,48.5C 96.5,48.5 95.5,48.5 94.5,48.5C 90.8955,45.3985 87.3955,42.0651 84,38.5C 79.1261,32.0297 74.2928,25.6964 69.5,19.5C 69.5,19.1667 69.5,18.8333 69.5,18.5C 70.391,17.8902 71.391,17.5569 72.5,17.5 Z"/></g>
<g><path style="opacity:1" fill="#2441b3" d="M 32.5,12.5 C 34.3931,17.3378 36.3931,22.1711 38.5,27C 36.5512,29.7895 36.8846,32.6228 39.5,35.5C 40.1667,35.1667 40.8333,34.8333 41.5,34.5C 43.7853,39.4356 46.452,44.1022 49.5,48.5C 45.8333,48.5 42.1667,48.5 38.5,48.5C 34.2465,39.1833 30.7465,29.5166 28,19.5C 26.9609,20.7101 25.7942,21.7101 24.5,22.5C 24.5,21.1667 24.5,19.8333 24.5,18.5C 26.4426,15.5293 29.1092,13.5293 32.5,12.5 Z"/></g>
<g><path style="opacity:1" fill="#5599f5" d="M 69.5,19.5 C 74.2928,25.6964 79.1261,32.0297 84,38.5C 87.3955,42.0651 90.8955,45.3985 94.5,48.5C 92.2163,48.9752 90.2163,49.9752 88.5,51.5C 87.596,50.791 87.2627,49.791 87.5,48.5C 86.1667,48.5 84.8333,48.5 83.5,48.5C 75.8412,40.4748 69.1745,31.8082 63.5,22.5C 65.1815,20.9925 67.1815,19.9925 69.5,19.5 Z"/></g>
<g><path style="opacity:1" fill="#f7f6fc" d="M 27.5,55.5 C 26.179,58.5982 25.5123,62.0982 25.5,66C 25.5964,70.5347 25.9298,75.0347 26.5,79.5C 31.3257,107.475 47.1591,126.142 74,135.5C 74.7648,135.43 75.2648,135.097 75.5,134.5C 77.5786,134.029 79.5786,133.363 81.5,132.5C 82.391,131.89 83.391,131.557 84.5,131.5C 87.7016,131.537 89.3683,133.203 89.5,136.5C 84.4042,139.088 79.0708,141.088 73.5,142.5C 53.0073,136.001 37.674,123.335 27.5,104.5C 19.866,88.7481 16.866,72.0814 18.5,54.5C 15.4281,54.8174 12.4281,54.4841 9.5,53.5C 11.8558,50.8136 14.1891,48.147 16.5,45.5C 19.147,43.1891 21.8136,40.8558 24.5,38.5C 28.0594,44.2854 31.0594,50.2854 33.5,56.5C 31.3792,56.6747 29.3792,56.3414 27.5,55.5 Z"/></g>
<g><path style="opacity:1" fill="#8ec5f9" d="M 85.5,22.5 C 97.6436,29.7412 109.977,36.7412 122.5,43.5C 123.824,54.9931 123.824,66.3265 122.5,77.5C 122.5,76.8333 122.5,76.1667 122.5,75.5C 122.5,70.5 122.5,65.5 122.5,60.5C 122.817,57.4281 122.484,54.4281 121.5,51.5C 115.793,48.9772 110.126,46.4772 104.5,44C 99.0213,38.1898 93.1879,32.6898 87,27.5C 86.3923,25.8455 85.8923,24.1789 85.5,22.5 Z"/></g>
<g><path style="opacity:1" fill="#79b6f8" d="M 72.5,17.5 C 73.2506,16.4265 74.2506,16.2599 75.5,17C 78.7234,19.0623 82.0568,20.8956 85.5,22.5C 85.8923,24.1789 86.3923,25.8455 87,27.5C 93.1879,32.6898 99.0213,38.1898 104.5,44C 110.126,46.4772 115.793,48.9772 121.5,51.5C 122.484,54.4281 122.817,57.4281 122.5,60.5C 119.592,59.3083 116.592,58.3083 113.5,57.5C 110.165,59.5236 106.832,59.857 103.5,58.5C 105.833,58.5 108.167,58.5 110.5,58.5C 109.155,51.5058 104.822,48.1725 97.5,48.5C 98.7387,47.788 99.2387,46.788 99,45.5C 94.3663,41.8679 90.033,37.8679 86,33.5C 82.1555,27.3875 77.6555,22.0542 72.5,17.5 Z"/></g>
<g><path style="opacity:1" fill="#b8d0f7" d="M 60.5,48.5 C 62.1667,48.5 63.8333,48.5 65.5,48.5C 71.5,48.5 77.5,48.5 83.5,48.5C 84.8333,48.5 86.1667,48.5 87.5,48.5C 87.2627,49.791 87.596,50.791 88.5,51.5C 88.1667,52.5 87.5,53.1667 86.5,53.5C 86.5,52.1667 86.5,50.8333 86.5,49.5C 77.6506,49.8264 68.9839,49.493 60.5,48.5 Z"/></g>
<g><path style="opacity:1" fill="#f7f9fe" d="M 94.5,48.5 C 95.5,48.5 96.5,48.5 97.5,48.5C 104.822,48.1725 109.155,51.5058 110.5,58.5C 108.167,58.5 105.833,58.5 103.5,58.5C 102.967,55.4752 101.133,54.1419 98,54.5C 94.2332,54.2656 92.5665,55.9323 93,59.5C 97.638,62.3792 102.471,64.8792 107.5,67C 110.029,69.6417 111.029,72.8084 110.5,76.5C 110.089,80.0791 108.089,82.2458 104.5,83C 101.518,83.498 98.5184,83.6646 95.5,83.5C 89.7032,83.0314 86.0365,80.0314 84.5,74.5C 86.2789,72.6565 88.6122,71.9898 91.5,72.5C 92.5601,78.0953 95.8935,79.9286 101.5,78C 103.576,76.1159 103.91,73.9492 102.5,71.5C 96.0445,69.532 90.5445,66.1987 86,61.5C 85.5034,59.1902 85.3367,56.8568 85.5,54.5C 82.5,54.5 79.5,54.5 76.5,54.5C 79.6248,53.5206 82.9581,53.1872 86.5,53.5C 87.5,53.1667 88.1667,52.5 88.5,51.5C 90.2163,49.9752 92.2163,48.9752 94.5,48.5 Z"/></g>
<g><path style="opacity:1" fill="#c6c9ea" d="M 38.5,48.5 C 42.1667,48.5 45.8333,48.5 49.5,48.5C 52.5,48.5 55.5,48.5 58.5,48.5C 52.021,49.4907 45.3543,49.824 38.5,49.5C 38.5,60.8333 38.5,72.1667 38.5,83.5C 37.5119,78.3595 37.1786,73.0262 37.5,67.5C 37.1765,60.9779 37.5098,54.6446 38.5,48.5 Z"/></g>
<g><path style="opacity:1" fill="#fcfcfe" d="M 58.5,48.5 C 59.1667,48.5 59.8333,48.5 60.5,48.5C 68.9839,49.493 77.6506,49.8264 86.5,49.5C 86.5,50.8333 86.5,52.1667 86.5,53.5C 82.9581,53.1872 79.6248,53.5206 76.5,54.5C 76.5,59.1667 76.5,63.8333 76.5,68.5C 76.8205,73.6946 76.4872,78.6946 75.5,83.5C 73.5,83.5 71.5,83.5 69.5,83.5C 69.5,73.8333 69.5,64.1667 69.5,54.5C 64.5,54.5 59.5,54.5 54.5,54.5C 51.5,54.5 48.5,54.5 45.5,54.5C 44.5233,57.2869 44.19,60.2869 44.5,63.5C 49.1667,63.5 53.8333,63.5 58.5,63.5C 58.5,65.1667 58.5,66.8333 58.5,68.5C 54.1667,68.5 49.8333,68.5 45.5,68.5C 44.5206,71.6248 44.1872,74.9581 44.5,78.5C 49.8333,78.5 55.1667,78.5 60.5,78.5C 60.5,80.1667 60.5,81.8333 60.5,83.5C 59.5,83.5 58.5,83.5 57.5,83.5C 52.1667,83.5 46.8333,83.5 41.5,83.5C 40.5,83.5 39.5,83.5 38.5,83.5C 38.5,72.1667 38.5,60.8333 38.5,49.5C 45.3543,49.824 52.021,49.4907 58.5,48.5 Z"/></g>
<g><path style="opacity:1" fill="#94ccfa" d="M 143.5,43.5 C 144.833,47.1667 146.167,50.8333 147.5,54.5C 141.792,54.1596 136.125,53.493 130.5,52.5C 130.5,49.1667 130.5,45.8333 130.5,42.5C 133.491,43.9039 136.657,44.9039 140,45.5C 141.434,45.1382 142.601,44.4715 143.5,43.5 Z"/></g>
<g><path style="opacity:1" fill="#325dc4" d="M 54.5,54.5 C 59.5,54.5 64.5,54.5 69.5,54.5C 69.5,64.1667 69.5,73.8333 69.5,83.5C 68.6745,79.0181 68.1745,74.3514 68,69.5C 62.9225,64.9276 58.4225,59.9276 54.5,54.5 Z"/></g>
<g><path style="opacity:1" fill="#77b4f8" d="M 130.5,52.5 C 136.125,53.493 141.792,54.1596 147.5,54.5C 147.802,57.3725 148.469,60.0392 149.5,62.5C 149.5,62.8333 149.5,63.1667 149.5,63.5C 143.099,63.3948 136.766,62.7282 130.5,61.5C 130.5,58.5 130.5,55.5 130.5,52.5 Z"/></g>
<g><path style="opacity:1" fill="#326dd9" d="M 76.5,54.5 C 79.5,54.5 82.5,54.5 85.5,54.5C 85.3367,56.8568 85.5034,59.1902 86,61.5C 90.5445,66.1987 96.0445,69.532 102.5,71.5C 103.91,73.9492 103.576,76.1159 101.5,78C 95.8935,79.9286 92.5601,78.0953 91.5,72.5C 88.6122,71.9898 86.2789,72.6565 84.5,74.5C 82.2383,72.0278 79.5716,70.0278 76.5,68.5C 76.5,63.8333 76.5,59.1667 76.5,54.5 Z"/></g>
<g><path style="opacity:1" fill="#4e92f5" d="M 103.5,58.5 C 106.832,59.857 110.165,59.5236 113.5,57.5C 116.592,58.3083 119.592,59.3083 122.5,60.5C 122.5,65.5 122.5,70.5 122.5,75.5C 118.973,74.2682 115.473,72.9349 112,71.5C 111.802,73.3817 111.302,75.0484 110.5,76.5C 111.029,72.8084 110.029,69.6417 107.5,67C 102.471,64.8792 97.638,62.3792 93,59.5C 92.5665,55.9323 94.2332,54.2656 98,54.5C 101.133,54.1419 102.967,55.4752 103.5,58.5 Z"/></g>
<g><path style="opacity:1" fill="#8d9ad2" d="M 45.5,54.5 C 45.5,57.1667 45.5,59.8333 45.5,62.5C 50.0323,62.1818 54.3656,62.5151 58.5,63.5C 53.8333,63.5 49.1667,63.5 44.5,63.5C 44.19,60.2869 44.5233,57.2869 45.5,54.5 Z"/></g>
<g><path style="opacity:1" fill="#4835bc" d="M 27.5,55.5 C 30.4633,59.7977 33.7966,63.7977 37.5,67.5C 37.1786,73.0262 37.5119,78.3595 38.5,83.5C 39.5,83.5 40.5,83.5 41.5,83.5C 54.4322,99.0287 67.5989,114.362 81,129.5C 81.4828,130.448 81.6495,131.448 81.5,132.5C 79.5786,133.363 77.5786,134.029 75.5,134.5C 72.9438,133.457 70.7772,131.79 69,129.5C 54.9686,112.642 40.802,95.9753 26.5,79.5C 25.9298,75.0347 25.5964,70.5347 25.5,66C 25.5123,62.0982 26.179,58.5982 27.5,55.5 Z"/></g>
<g><path style="opacity:1" fill="#5f3dcc" d="M 11.5,39.5 C 14.6209,40.2876 16.2876,42.2876 16.5,45.5C 14.1891,48.147 11.8558,50.8136 9.5,53.5C 12.4281,54.4841 15.4281,54.8174 18.5,54.5C 16.866,72.0814 19.866,88.7481 27.5,104.5C 26.5041,104.586 25.6708,104.252 25,103.5C 17.6667,94.8333 10.3333,86.1667 3,77.5C 2.60123,77.7284 2.43456,78.0618 2.5,78.5C 1.27913,64.6167 4.27913,51.6167 11.5,39.5 Z"/></g>
<g><path style="opacity:1" fill="#5498f5" d="M 130.5,61.5 C 136.766,62.7282 143.099,63.3948 149.5,63.5C 149.5,67.1667 149.5,70.8333 149.5,74.5C 143.088,74.4065 136.755,73.7399 130.5,72.5C 130.5,68.8333 130.5,65.1667 130.5,61.5 Z"/></g>
<g><path style="opacity:1" fill="#999dd6" d="M 45.5,68.5 C 45.5,71.5 45.5,74.5 45.5,77.5C 50.8333,77.5 56.1667,77.5 61.5,77.5C 61.5,78.5 61.5,79.5 61.5,80.5C 61.7373,81.791 61.404,82.791 60.5,83.5C 60.5,81.8333 60.5,80.1667 60.5,78.5C 55.1667,78.5 49.8333,78.5 44.5,78.5C 44.1872,74.9581 44.5206,71.6248 45.5,68.5 Z"/></g>
<g><path style="opacity:1" fill="#1435a2" d="M 45.5,54.5 C 48.5,54.5 51.5,54.5 54.5,54.5C 58.4225,59.9276 62.9225,64.9276 68,69.5C 68.1745,74.3514 68.6745,79.0181 69.5,83.5C 71.5,83.5 73.5,83.5 75.5,83.5C 79.2576,86.5571 83.2576,89.3904 87.5,92C 85.6183,92.1981 83.9516,92.6981 82.5,93.5C 81.391,93.5569 80.391,93.8902 79.5,94.5C 79.5858,93.5041 79.2524,92.6708 78.5,92C 72.661,88.3111 66.9943,84.4777 61.5,80.5C 61.5,79.5 61.5,78.5 61.5,77.5C 56.1667,77.5 50.8333,77.5 45.5,77.5C 45.5,74.5 45.5,71.5 45.5,68.5C 49.8333,68.5 54.1667,68.5 58.5,68.5C 58.5,66.8333 58.5,65.1667 58.5,63.5C 54.3656,62.5151 50.0323,62.1818 45.5,62.5C 45.5,59.8333 45.5,57.1667 45.5,54.5 Z"/></g>
<g><path style="opacity:1" fill="#593cc8" d="M 26.5,79.5 C 40.802,95.9753 54.9686,112.642 69,129.5C 70.7772,131.79 72.9438,133.457 75.5,134.5C 75.2648,135.097 74.7648,135.43 74,135.5C 47.1591,126.142 31.3257,107.475 26.5,79.5 Z"/></g>
<g><path style="opacity:1" fill="#3a7eea" d="M 130.5,72.5 C 136.755,73.7399 143.088,74.4065 149.5,74.5C 149.5,78.1667 149.5,81.8333 149.5,85.5C 143.897,84.7336 138.23,84.0669 132.5,83.5C 130.886,83.8029 129.552,84.4695 128.5,85.5C 129.159,82.5448 129.492,79.5448 129.5,76.5C 130.434,75.4324 130.768,74.099 130.5,72.5 Z"/></g>
<g><path style="opacity:1" fill="#366fd9" d="M 122.5,75.5 C 122.5,76.1667 122.5,76.8333 122.5,77.5C 122.259,81.7074 121.259,85.7074 119.5,89.5C 117.201,88.3649 115.034,87.0316 113,85.5C 112.517,86.448 112.351,87.448 112.5,88.5C 111.751,87.469 111.085,86.3024 110.5,85C 105.316,84.8261 100.316,84.3261 95.5,83.5C 98.5184,83.6646 101.518,83.498 104.5,83C 108.089,82.2458 110.089,80.0791 110.5,76.5C 111.302,75.0484 111.802,73.3817 112,71.5C 115.473,72.9349 118.973,74.2682 122.5,75.5 Z"/></g>
<g><path style="opacity:1" fill="#1c45b1" d="M 76.5,68.5 C 79.5716,70.0278 82.2383,72.0278 84.5,74.5C 86.0365,80.0314 89.7032,83.0314 95.5,83.5C 100.316,84.3261 105.316,84.8261 110.5,85C 111.085,86.3024 111.751,87.469 112.5,88.5C 113.245,93.227 114.245,97.8936 115.5,102.5C 108.234,101.037 101.234,98.7038 94.5,95.5C 93.8933,95.6236 93.56,95.9569 93.5,96.5C 90.4193,93.8075 86.7527,92.8075 82.5,93.5C 83.9516,92.6981 85.6183,92.1981 87.5,92C 83.2576,89.3904 79.2576,86.5571 75.5,83.5C 76.4872,78.6946 76.8205,73.6946 76.5,68.5 Z"/></g>
<g><path style="opacity:1" fill="#3b32b3" d="M 41.5,83.5 C 46.8333,83.5 52.1667,83.5 57.5,83.5C 61.1239,88.9582 65.6239,93.6248 71,97.5C 75.7411,103.396 80.2411,109.396 84.5,115.5C 82.0021,113.334 79.0021,112.334 75.5,112.5C 76.6812,119.106 80.6812,121.773 87.5,120.5C 87.8592,123.237 89.1925,125.237 91.5,126.5C 89.3428,128.412 87.0094,130.079 84.5,131.5C 83.391,131.557 82.391,131.89 81.5,132.5C 81.6495,131.448 81.4828,130.448 81,129.5C 67.5989,114.362 54.4322,99.0287 41.5,83.5 Z"/></g>
<g><path style="opacity:1" fill="#2d66d3" d="M 149.5,85.5 C 149.5,85.8333 149.5,86.1667 149.5,86.5C 148.368,90.019 147.368,93.6857 146.5,97.5C 143.111,95.8897 139.444,94.8897 135.5,94.5C 134.893,94.6236 134.56,94.9569 134.5,95.5C 131.74,94.8076 129.073,93.8076 126.5,92.5C 127.325,90.1987 127.992,87.8654 128.5,85.5C 129.552,84.4695 130.886,83.8029 132.5,83.5C 138.23,84.0669 143.897,84.7336 149.5,85.5 Z"/></g>
<g><path style="opacity:1" fill="#7343da" d="M 27.5,104.5 C 37.674,123.335 53.0073,136.001 73.5,142.5C 75.0627,143.945 76.396,145.611 77.5,147.5C 67.4768,148.163 57.8101,146.663 48.5,143C 20.5224,130.553 5.18903,109.053 2.5,78.5C 2.43456,78.0618 2.60123,77.7284 3,77.5C 10.3333,86.1667 17.6667,94.8333 25,103.5C 25.6708,104.252 26.5041,104.586 27.5,104.5 Z"/></g>
<g><path style="opacity:1" fill="#f0f0f9" d="M 82.5,93.5 C 86.7527,92.8075 90.4193,93.8075 93.5,96.5C 94.3007,98.0418 94.634,99.7085 94.5,101.5C 93.7629,103.305 92.7629,104.971 91.5,106.5C 92.1882,107.855 93.1882,108.855 94.5,109.5C 95.7847,115.537 93.4514,119.204 87.5,120.5C 80.6812,121.773 76.6812,119.106 75.5,112.5C 79.0021,112.334 82.0021,113.334 84.5,115.5C 85.8333,115.5 87.1667,115.5 88.5,115.5C 89.4976,109.833 87.1643,107.499 81.5,108.5C 81.5,107.167 81.5,105.833 81.5,104.5C 86.983,105.193 88.983,103.026 87.5,98C 83.9652,98.959 80.2985,99.7924 76.5,100.5C 76.0246,97.6874 77.0246,95.6874 79.5,94.5C 80.391,93.8902 81.391,93.5569 82.5,93.5 Z"/></g>
<g><path style="opacity:1" fill="#1237a3" d="M 146.5,97.5 C 144.952,102.926 142.619,107.926 139.5,112.5C 124.321,110.957 109.321,107.291 94.5,101.5C 94.634,99.7085 94.3007,98.0418 93.5,96.5C 93.56,95.9569 93.8933,95.6236 94.5,95.5C 101.234,98.7038 108.234,101.037 115.5,102.5C 115.628,104.09 116.295,105.423 117.5,106.5C 123.476,103.167 129.143,99.5006 134.5,95.5C 134.56,94.9569 134.893,94.6236 135.5,94.5C 139.444,94.8897 143.111,95.8897 146.5,97.5 Z"/></g>
<g><path style="opacity:1" fill="#202b9d" d="M 61.5,80.5 C 66.9943,84.4777 72.661,88.3111 78.5,92C 79.2524,92.6708 79.5858,93.5041 79.5,94.5C 77.0246,95.6874 76.0246,97.6874 76.5,100.5C 80.2985,99.7924 83.9652,98.959 87.5,98C 88.983,103.026 86.983,105.193 81.5,104.5C 81.5,105.833 81.5,107.167 81.5,108.5C 87.1643,107.499 89.4976,109.833 88.5,115.5C 87.1667,115.5 85.8333,115.5 84.5,115.5C 80.2411,109.396 75.7411,103.396 71,97.5C 65.6239,93.6248 61.1239,88.9582 57.5,83.5C 58.5,83.5 59.5,83.5 60.5,83.5C 61.404,82.791 61.7373,81.791 61.5,80.5 Z"/></g>
<g><path style="opacity:0.973" fill="#072490" d="M 94.5,101.5 C 109.321,107.291 124.321,110.957 139.5,112.5C 132.833,123.833 123.833,132.833 112.5,139.5C 111.833,139.5 111.5,139.167 111.5,138.5C 116.585,136.226 120.419,132.892 123,128.5C 118.833,123.667 114.667,118.833 110.5,114C 104.861,113.311 99.5278,111.811 94.5,109.5C 93.1882,108.855 92.1882,107.855 91.5,106.5C 92.7629,104.971 93.7629,103.305 94.5,101.5 Z"/></g>
<g><path style="opacity:1" fill="#222ba1" d="M 94.5,109.5 C 99.5278,111.811 104.861,113.311 110.5,114C 114.667,118.833 118.833,123.667 123,128.5C 120.419,132.892 116.585,136.226 111.5,138.5C 110.609,139.11 109.609,139.443 108.5,139.5C 106.832,137.66 105.332,135.66 104,133.5C 102.871,131.859 101.371,130.859 99.5,130.5C 101.355,128.967 103.188,127.3 105,125.5C 105.429,123.331 104.929,121.331 103.5,119.5C 102.998,118.479 102.332,118.312 101.5,119C 99.2707,121.4 96.9374,123.567 94.5,125.5C 93.609,126.11 92.609,126.443 91.5,126.5C 89.1925,125.237 87.8592,123.237 87.5,120.5C 93.4514,119.204 95.7847,115.537 94.5,109.5 Z"/></g>
<g><path style="opacity:1" fill="#7275c5" d="M 99.5,130.5 C 98.8333,130.833 98.1667,131.167 97.5,131.5C 97.3465,129.03 96.3465,127.03 94.5,125.5C 96.9374,123.567 99.2707,121.4 101.5,119C 102.332,118.312 102.998,118.479 103.5,119.5C 104.929,121.331 105.429,123.331 105,125.5C 103.188,127.3 101.355,128.967 99.5,130.5 Z"/></g>
<g><path style="opacity:1" fill="#b4b1e2" d="M 94.5,125.5 C 96.3465,127.03 97.3465,129.03 97.5,131.5C 94.8333,133.167 92.1667,134.833 89.5,136.5C 89.3683,133.203 87.7016,131.537 84.5,131.5C 87.0094,130.079 89.3428,128.412 91.5,126.5C 92.609,126.443 93.609,126.11 94.5,125.5 Z"/></g>
<g><path style="opacity:1" fill="#4836bc" d="M 99.5,130.5 C 101.371,130.859 102.871,131.859 104,133.5C 105.332,135.66 106.832,137.66 108.5,139.5C 98.9569,144.803 88.6236,147.47 77.5,147.5C 76.396,145.611 75.0627,143.945 73.5,142.5C 79.0708,141.088 84.4042,139.088 89.5,136.5C 92.1667,134.833 94.8333,133.167 97.5,131.5C 98.1667,131.167 98.8333,130.833 99.5,130.5 Z"/></g>
</svg>
