<?xml version="1.0" encoding="UTF-8"?>
<!DOCTYPE svg PUBLIC "-//W3C//DTD SVG 1.1//EN" "http://www.w3.org/Graphics/SVG/1.1/DTD/svg11.dtd">
<svg xmlns="http://www.w3.org/2000/svg" version="1.1" width="150px" height="150px" style="shape-rendering:geometricPrecision; text-rendering:geometricPrecision; image-rendering:optimizeQuality; fill-rule:evenodd; clip-rule:evenodd" xmlns:xlink="http://www.w3.org/1999/xlink">
<g><path style="opacity:1" fill="#c8ccd3" d="M 62.5,0.5 C 62.5,0.166667 62.5,-0.166667 62.5,-0.5C 69.1667,-0.5 75.8333,-0.5 82.5,-0.5C 83.172,0.267389 84.0053,0.934056 85,1.5C 87.18,7.36052 90.0133,12.8605 93.5,18C 93.2716,18.3988 92.9382,18.5654 92.5,18.5C 86.2242,15.3961 80.0575,12.0628 74,8.5C 71.7218,9.719 69.5551,11.0523 67.5,12.5C 67.1857,9.0534 66.3524,5.72007 65,2.5C 64.5831,1.24402 63.7498,0.57735 62.5,0.5 Z"/></g>
<g><path style="opacity:0.995" fill="#eeeff0" d="M 91.5,1.5 C 112.567,6.23531 128.567,17.902 139.5,36.5C 118.747,33.9659 103.914,22.9659 95,3.5C 93.6976,2.9152 92.531,2.24853 91.5,1.5 Z"/></g>
<g><path style="opacity:1" fill="#f9fafa" d="M 92.5,18.5 C 104.522,25.5994 116.689,32.5994 129,39.5C 129.5,49.1609 129.666,58.8276 129.5,68.5C 129.5,71.8333 129.5,75.1667 129.5,78.5C 129.089,82.2215 128.422,85.8881 127.5,89.5C 126.452,93.2007 128.119,94.8674 132.5,94.5C 133.289,94.7828 133.956,95.2828 134.5,96C 131.93,98.0869 129.263,99.9202 126.5,101.5C 123.46,102.68 120.794,104.347 118.5,106.5C 116.088,106.306 115.088,104.973 115.5,102.5C 114.677,99.5394 114.01,96.5394 113.5,93.5C 113.371,91.7839 113.038,90.1172 112.5,88.5C 112.351,87.448 112.517,86.448 113,85.5C 115.034,87.0316 117.201,88.3649 119.5,89.5C 120.768,87.6957 121.435,85.6957 121.5,83.5C 122.468,81.3926 122.802,79.0593 122.5,76.5C 123.824,65.6596 123.824,54.6596 122.5,43.5C 109.977,36.7412 97.6436,29.7412 85.5,22.5C 81.7981,20.3104 77.9648,18.3104 74,16.5C 72.5405,16.8082 71.3739,17.4749 70.5,18.5C 66.4903,20.5049 62.4903,22.5049 58.5,24.5C 56.5998,23.5529 55.2665,22.0529 54.5,20C 58.534,16.9829 62.8673,14.4829 67.5,12.5C 69.5551,11.0523 71.7218,9.719 74,8.5C 80.0575,12.0628 86.2242,15.3961 92.5,18.5 Z"/></g>
<g><path style="opacity:1" fill="#b8bfc8" d="M 85.5,22.5 C 91.6477,32.147 99.6477,39.9803 109.5,46C 113.635,48.4035 117.968,50.2368 122.5,51.5C 122.5,55.1667 122.5,58.8333 122.5,62.5C 119.403,61.0764 116.236,59.7431 113,58.5C 109.686,59.7445 106.519,59.7445 103.5,58.5C 105.833,58.5 108.167,58.5 110.5,58.5C 108.839,50.5457 103.839,47.2124 95.5,48.5C 85.6895,39.6932 77.3561,29.6932 70.5,18.5C 71.3739,17.4749 72.5405,16.8082 74,16.5C 77.9648,18.3104 81.7981,20.3104 85.5,22.5 Z"/></g>
<g><path style="opacity:1" fill="#61666e" d="M 38.5,8.5 C 41.1523,12.9293 43.1523,17.7626 44.5,23C 44.1777,25.3271 42.8444,26.4938 40.5,26.5C 39.3236,21.5692 36.8236,18.2358 33,16.5C 32.51,15.2068 32.3433,13.8734 32.5,12.5C 34.1475,10.6736 36.1475,9.34026 38.5,8.5 Z"/></g>
<g><path style="opacity:1" fill="#c9cdd4" d="M 85.5,22.5 C 97.6436,29.7412 109.977,36.7412 122.5,43.5C 123.824,54.6596 123.824,65.6596 122.5,76.5C 122.5,71.8333 122.5,67.1667 122.5,62.5C 122.5,58.8333 122.5,55.1667 122.5,51.5C 117.968,50.2368 113.635,48.4035 109.5,46C 99.6477,39.9803 91.6477,32.147 85.5,22.5 Z"/></g>
<g><path style="opacity:1" fill="#9ca5b1" d="M 62.5,0.5 C 63.7498,0.57735 64.5831,1.24402 65,2.5C 66.3524,5.72007 67.1857,9.0534 67.5,12.5C 62.8673,14.4829 58.534,16.9829 54.5,20C 55.2665,22.0529 56.5998,23.5529 58.5,24.5C 62.4903,22.5049 66.4903,20.5049 70.5,18.5C 77.3561,29.6932 85.6895,39.6932 95.5,48.5C 92.8205,48.6726 90.4872,49.6726 88.5,51.5C 87.6143,50.675 87.281,49.675 87.5,48.5C 83.5,48.5 79.5,48.5 75.5,48.5C 71.0732,43.4688 66.9066,38.1354 63,32.5C 61.5886,30.3496 60.7553,28.0163 60.5,25.5C 55.8785,27.137 51.2118,28.8037 46.5,30.5C 45.9862,28.4884 45.8195,26.4884 46,24.5C 48.1667,23 50.3333,21.5 52.5,20C 50.0657,14.9929 48.399,9.8262 47.5,4.5C 52.1119,2.09536 57.1119,0.762024 62.5,0.5 Z"/></g>
<g><path style="opacity:0.98" fill="#dfe1e4" d="M 82.5,-0.5 C 83.8333,-0.5 85.1667,-0.5 86.5,-0.5C 88.1667,0.166667 89.8333,0.833333 91.5,1.5C 92.531,2.24853 93.6976,2.9152 95,3.5C 103.914,22.9659 118.747,33.9659 139.5,36.5C 141.957,39.7512 143.624,43.4179 144.5,47.5C 140.138,46.7786 135.804,45.7786 131.5,44.5C 130.508,48.7828 130.174,53.1161 130.5,57.5C 130.815,61.3714 130.482,65.0381 129.5,68.5C 129.666,58.8276 129.5,49.1609 129,39.5C 116.689,32.5994 104.522,25.5994 92.5,18.5C 92.9382,18.5654 93.2716,18.3988 93.5,18C 90.0133,12.8605 87.18,7.36052 85,1.5C 84.0053,0.934056 83.172,0.267389 82.5,-0.5 Z"/></g>
<g><path style="opacity:1" fill="#7d858f" d="M 47.5,4.5 C 48.399,9.8262 50.0657,14.9929 52.5,20C 50.3333,21.5 48.1667,23 46,24.5C 45.8195,26.4884 45.9862,28.4884 46.5,30.5C 51.2118,28.8037 55.8785,27.137 60.5,25.5C 60.7553,28.0163 61.5886,30.3496 63,32.5C 66.9066,38.1354 71.0732,43.4688 75.5,48.5C 69.8333,48.5 64.1667,48.5 58.5,48.5C 54.466,43.7671 51.466,38.4338 49.5,32.5C 46.8208,31.6586 44.4875,32.3252 42.5,34.5C 41.5041,34.5858 40.6708,34.2524 40,33.5C 38.0998,30.8148 38.2664,28.4815 40.5,26.5C 42.8444,26.4938 44.1777,25.3271 44.5,23C 43.1523,17.7626 41.1523,12.9293 38.5,8.5C 41.0878,6.3754 44.0878,5.04207 47.5,4.5 Z"/></g>
<g><path style="opacity:1" fill="#465866" d="M 32.5,12.5 C 32.3433,13.8734 32.51,15.2068 33,16.5C 36.8236,18.2358 39.3236,21.5692 40.5,26.5C 38.2664,28.4815 38.0998,30.8148 40,33.5C 40.6708,34.2524 41.5041,34.5858 42.5,34.5C 42.4372,39.2029 42.7705,43.8696 43.5,48.5C 42.8333,48.5 42.1667,48.5 41.5,48.5C 38.199,42.8902 35.699,36.8902 34,30.5C 33.6827,32.3008 33.016,32.6341 32,31.5C 30.2193,27.9069 28.7193,24.2402 27.5,20.5C 27.5,18.8333 27.5,17.1667 27.5,15.5C 28.8993,14.1103 30.5659,13.1103 32.5,12.5 Z"/></g>
<g><path style="opacity:1" fill="#2d4e65" d="M 27.5,20.5 C 28.7193,24.2402 30.2193,27.9069 32,31.5C 33.016,32.6341 33.6827,32.3008 34,30.5C 35.699,36.8902 38.199,42.8902 41.5,48.5C 40.1667,48.5 38.8333,48.5 37.5,48.5C 37.5,53.1667 37.5,57.8333 37.5,62.5C 35.1782,61.1979 33.8449,59.1979 33.5,56.5C 31.0594,50.2854 28.0594,44.2854 24.5,38.5C 22.1472,40.5227 19.8138,42.5227 17.5,44.5C 15.8656,43.7934 14.5323,42.6268 13.5,41C 12.552,40.5172 11.552,40.3505 10.5,40.5C 13.4092,35.689 16.5759,31.0224 20,26.5C 22.1057,23.8823 24.6057,21.8823 27.5,20.5 Z"/></g>
<g><path style="opacity:1" fill="#f6f9fb" d="M 33.5,56.5 C 30.7938,56.4249 28.1272,56.0916 25.5,55.5C 25.5,61.5 25.5,67.5 25.5,73.5C 25.9896,76.6553 26.6562,79.6553 27.5,82.5C 32.4162,108.083 47.0829,125.416 71.5,134.5C 73.9752,135.687 76.3086,135.353 78.5,133.5C 79.8333,133.167 81.1667,132.833 82.5,132.5C 83.4959,132.414 84.3292,132.748 85,133.5C 85.4935,135.134 85.6602,136.801 85.5,138.5C 83.847,138.66 82.5137,139.326 81.5,140.5C 78.9333,140.855 76.4333,141.521 74,142.5C 69.897,140.933 65.7303,139.6 61.5,138.5C 42.9591,128.756 29.9591,114.09 22.5,94.5C 20.3684,86.6638 19.0351,78.6638 18.5,70.5C 18.5,65.1667 18.5,59.8333 18.5,54.5C 15.4281,54.8174 12.4281,54.4841 9.5,53.5C 12.189,50.4802 14.8556,47.4802 17.5,44.5C 19.8138,42.5227 22.1472,40.5227 24.5,38.5C 28.0594,44.2854 31.0594,50.2854 33.5,56.5 Z"/></g>
<g><path style="opacity:1" fill="#5e636a" d="M 58.5,48.5 C 53.5,48.5 48.5,48.5 43.5,48.5C 42.7705,43.8696 42.4372,39.2029 42.5,34.5C 44.4875,32.3252 46.8208,31.6586 49.5,32.5C 51.466,38.4338 54.466,43.7671 58.5,48.5 Z"/></g>
<g><path style="opacity:1" fill="#fafbfb" d="M 58.5,48.5 C 64.1667,48.5 69.8333,48.5 75.5,48.5C 79.5,48.5 83.5,48.5 87.5,48.5C 87.281,49.675 87.6143,50.675 88.5,51.5C 90.4872,49.6726 92.8205,48.6726 95.5,48.5C 103.839,47.2124 108.839,50.5457 110.5,58.5C 108.167,58.5 105.833,58.5 103.5,58.5C 102.967,55.4752 101.133,54.1419 98,54.5C 94.2332,54.2656 92.5665,55.9323 93,59.5C 98.4614,62.3162 103.795,65.3162 109,68.5C 110.289,71.3508 110.789,74.3508 110.5,77.5C 107.038,82.9193 102.038,84.9193 95.5,83.5C 89.7417,83.0764 86.075,80.0764 84.5,74.5C 86.2789,72.6565 88.6122,71.9898 91.5,72.5C 92.5601,78.0953 95.8935,79.9286 101.5,78C 103.576,76.1159 103.91,73.9492 102.5,71.5C 97.5197,69.4521 92.6864,67.1188 88,64.5C 85.8358,61.5527 85.0025,58.2194 85.5,54.5C 82.5,54.5 79.5,54.5 76.5,54.5C 76.5,58.8333 76.5,63.1667 76.5,67.5C 76.5,70.5 76.5,73.5 76.5,76.5C 76.5,78.8333 76.5,81.1667 76.5,83.5C 74.1667,83.5 71.8333,83.5 69.5,83.5C 69.5,73.8333 69.5,64.1667 69.5,54.5C 64.5,54.5 59.5,54.5 54.5,54.5C 51.5,54.5 48.5,54.5 45.5,54.5C 44.5233,57.2869 44.19,60.2869 44.5,63.5C 49.1667,63.5 53.8333,63.5 58.5,63.5C 58.5,65.1667 58.5,66.8333 58.5,68.5C 55.1667,68.5 51.8333,68.5 48.5,68.5C 47.5,68.5 46.5,68.5 45.5,68.5C 44.5206,71.6248 44.1872,74.9581 44.5,78.5C 49.8333,78.5 55.1667,78.5 60.5,78.5C 60.5,80.1667 60.5,81.8333 60.5,83.5C 59.5,83.5 58.5,83.5 57.5,83.5C 57.1667,83.5 56.8333,83.5 56.5,83.5C 52.1667,83.5 47.8333,83.5 43.5,83.5C 41.8333,83.5 40.1667,83.5 38.5,83.5C 38.5,72.1667 38.5,60.8333 38.5,49.5C 45.3543,49.824 52.021,49.4907 58.5,48.5 Z"/></g>
<g><path style="opacity:0.998" fill="#c7ccd3" d="M 144.5,47.5 C 146.209,50.9545 147.542,54.6212 148.5,58.5C 147.423,59.0184 146.256,59.3517 145,59.5C 140.191,58.5987 135.358,57.932 130.5,57.5C 130.174,53.1161 130.508,48.7828 131.5,44.5C 135.804,45.7786 140.138,46.7786 144.5,47.5 Z"/></g>
<g><path style="opacity:1" fill="#266894" d="M 10.5,40.5 C 11.552,40.3505 12.552,40.5172 13.5,41C 14.5323,42.6268 15.8656,43.7934 17.5,44.5C 14.8556,47.4802 12.189,50.4802 9.5,53.5C 12.4281,54.4841 15.4281,54.8174 18.5,54.5C 18.5,59.8333 18.5,65.1667 18.5,70.5C 15.1983,67.0257 12.0316,63.359 9,59.5C 7.87099,57.8588 6.37099,56.8588 4.5,56.5C 5.5154,50.7859 7.5154,45.4526 10.5,40.5 Z"/></g>
<g><path style="opacity:1" fill="#c7d1d8" d="M 41.5,48.5 C 42.1667,48.5 42.8333,48.5 43.5,48.5C 48.5,48.5 53.5,48.5 58.5,48.5C 52.021,49.4907 45.3543,49.824 38.5,49.5C 38.5,60.8333 38.5,72.1667 38.5,83.5C 37.5088,76.6866 37.1755,69.6866 37.5,62.5C 37.5,57.8333 37.5,53.1667 37.5,48.5C 38.8333,48.5 40.1667,48.5 41.5,48.5 Z"/></g>
<g><path style="opacity:1" fill="#64686f" d="M 54.5,54.5 C 59.5,54.5 64.5,54.5 69.5,54.5C 69.5,64.1667 69.5,73.8333 69.5,83.5C 68.5269,81.0521 68.1936,78.3854 68.5,75.5C 68.8076,73.076 68.4742,70.7427 67.5,68.5C 62.3558,64.3644 58.0225,59.6978 54.5,54.5 Z"/></g>
<g><path style="opacity:1" fill="#9b9fa6" d="M 45.5,54.5 C 45.5,57.1667 45.5,59.8333 45.5,62.5C 50.0323,62.1818 54.3656,62.5151 58.5,63.5C 53.8333,63.5 49.1667,63.5 44.5,63.5C 44.19,60.2869 44.5233,57.2869 45.5,54.5 Z"/></g>
<g><path style="opacity:1" fill="#297cb4" d="M 4.5,56.5 C 6.37099,56.8588 7.87099,57.8588 9,59.5C 12.0316,63.359 15.1983,67.0257 18.5,70.5C 19.0351,78.6638 20.3684,86.6638 22.5,94.5C 15.8647,87.0246 9.36466,79.3579 3,71.5C 2.50258,74.146 2.33591,76.8127 2.5,79.5C 1.29339,71.7178 1.96005,64.0511 4.5,56.5 Z"/></g>
<g><path style="opacity:1" fill="#4b4e53" d="M 45.5,54.5 C 48.5,54.5 51.5,54.5 54.5,54.5C 58.0225,59.6978 62.3558,64.3644 67.5,68.5C 68.4742,70.7427 68.8076,73.076 68.5,75.5C 66.0914,73.6326 63.7581,71.4659 61.5,69C 60.552,68.5172 59.552,68.3505 58.5,68.5C 58.5,66.8333 58.5,65.1667 58.5,63.5C 54.3656,62.5151 50.0323,62.1818 45.5,62.5C 45.5,59.8333 45.5,57.1667 45.5,54.5 Z"/></g>
<g><path style="opacity:1" fill="#9ca5b1" d="M 103.5,58.5 C 106.519,59.7445 109.686,59.7445 113,58.5C 116.236,59.7431 119.403,61.0764 122.5,62.5C 122.5,67.1667 122.5,71.8333 122.5,76.5C 122.802,79.0593 122.468,81.3926 121.5,83.5C 121.67,82.1779 121.337,81.0113 120.5,80C 117.176,79.0572 113.843,78.2239 110.5,77.5C 110.789,74.3508 110.289,71.3508 109,68.5C 103.795,65.3162 98.4614,62.3162 93,59.5C 92.5665,55.9323 94.2332,54.2656 98,54.5C 101.133,54.1419 102.967,55.4752 103.5,58.5 Z"/></g>
<g><path style="opacity:1" fill="#26628b" d="M 33.5,56.5 C 33.8449,59.1979 35.1782,61.1979 37.5,62.5C 37.1755,69.6866 37.5088,76.6866 38.5,83.5C 40.1667,83.5 41.8333,83.5 43.5,83.5C 55.9919,98.4691 68.4919,113.469 81,128.5C 81.8159,129.823 82.9826,130.489 84.5,130.5C 83.8333,131.167 83.1667,131.833 82.5,132.5C 81.1667,132.833 79.8333,133.167 78.5,133.5C 61.8164,112.827 44.6498,92.4935 27,72.5C 26.6174,73.056 26.1174,73.3893 25.5,73.5C 25.5,67.5 25.5,61.5 25.5,55.5C 28.1272,56.0916 30.7938,56.4249 33.5,56.5 Z"/></g>
<g><path style="opacity:1" fill="#7b828d" d="M 84.5,74.5 C 82.4768,71.4797 79.8102,69.1464 76.5,67.5C 76.5,63.1667 76.5,58.8333 76.5,54.5C 79.5,54.5 82.5,54.5 85.5,54.5C 85.0025,58.2194 85.8358,61.5527 88,64.5C 92.6864,67.1188 97.5197,69.4521 102.5,71.5C 103.91,73.9492 103.576,76.1159 101.5,78C 95.8935,79.9286 92.5601,78.0953 91.5,72.5C 88.6122,71.9898 86.2789,72.6565 84.5,74.5 Z"/></g>
<g><path style="opacity:1" fill="#a8b0bb" d="M 130.5,57.5 C 135.358,57.932 140.191,58.5987 145,59.5C 146.256,59.3517 147.423,59.0184 148.5,58.5C 148.232,60.099 148.566,61.4324 149.5,62.5C 149.5,68.5 149.5,74.5 149.5,80.5C 144.279,78.7632 138.779,77.7632 133,77.5C 131.744,77.6483 130.577,77.9816 129.5,78.5C 129.5,75.1667 129.5,71.8333 129.5,68.5C 130.482,65.0381 130.815,61.3714 130.5,57.5 Z"/></g>
<g><path style="opacity:1" fill="#25506d" d="M 45.5,68.5 C 46.5,68.5 47.5,68.5 48.5,68.5C 49.5612,71.6223 50.8946,74.6223 52.5,77.5C 50.1667,77.5 47.8333,77.5 45.5,77.5C 45.5,74.5 45.5,71.5 45.5,68.5 Z"/></g>
<g><path style="opacity:1" fill="#276d9d" d="M 78.5,133.5 C 76.3086,135.353 73.9752,135.687 71.5,134.5C 57.306,116.787 42.6393,99.4533 27.5,82.5C 26.6562,79.6553 25.9896,76.6553 25.5,73.5C 26.1174,73.3893 26.6174,73.056 27,72.5C 44.6498,92.4935 61.8164,112.827 78.5,133.5 Z"/></g>
<g><path style="opacity:1" fill="#9da7af" d="M 45.5,68.5 C 45.5,71.5 45.5,74.5 45.5,77.5C 47.8333,77.5 50.1667,77.5 52.5,77.5C 55.5,77.5 58.5,77.5 61.5,77.5C 61.5,78.8333 61.5,80.1667 61.5,81.5C 61.6716,82.4916 61.3382,83.1583 60.5,83.5C 60.5,81.8333 60.5,80.1667 60.5,78.5C 55.1667,78.5 49.8333,78.5 44.5,78.5C 44.1872,74.9581 44.5206,71.6248 45.5,68.5 Z"/></g>
<g><path style="opacity:1" fill="#2c8bcc" d="M 22.5,94.5 C 29.9591,114.09 42.9591,128.756 61.5,138.5C 60.475,138.897 60.3083,139.563 61,140.5C 62.6851,142.017 64.1851,143.684 65.5,145.5C 64.3112,146.429 62.9778,146.762 61.5,146.5C 58.5718,146.435 55.9052,145.768 53.5,144.5C 54.2389,144.631 54.9056,144.464 55.5,144C 37.9584,124.127 20.7917,103.961 4,83.5C 3.50999,84.7932 3.34332,86.1266 3.5,87.5C 2.52693,85.0521 2.1936,82.3854 2.5,79.5C 2.33591,76.8127 2.50258,74.146 3,71.5C 9.36466,79.3579 15.8647,87.0246 22.5,94.5 Z"/></g>
<g><path style="opacity:1" fill="#767c86" d="M 110.5,77.5 C 113.843,78.2239 117.176,79.0572 120.5,80C 121.337,81.0113 121.67,82.1779 121.5,83.5C 121.435,85.6957 120.768,87.6957 119.5,89.5C 117.201,88.3649 115.034,87.0316 113,85.5C 112.517,86.448 112.351,87.448 112.5,88.5C 107.07,85.7987 101.403,84.132 95.5,83.5C 102.038,84.9193 107.038,82.9193 110.5,77.5 Z"/></g>
<g><path style="opacity:0.989" fill="#242628" d="M 27.5,15.5 C 27.5,17.1667 27.5,18.8333 27.5,20.5C 24.6057,21.8823 22.1057,23.8823 20,26.5C 16.5759,31.0224 13.4092,35.689 10.5,40.5C 7.5154,45.4526 5.5154,50.7859 4.5,56.5C 1.96005,64.0511 1.29339,71.7178 2.5,79.5C 2.1936,82.3854 2.52693,85.0521 3.5,87.5C 9.29248,116.112 25.9591,135.112 53.5,144.5C 55.9052,145.768 58.5718,146.435 61.5,146.5C 68.9818,147.492 76.6484,147.825 84.5,147.5C 90.9693,146.3 97.3026,144.633 103.5,142.5C 106.696,141.071 109.696,139.405 112.5,137.5C 115.778,136.191 118.778,134.358 121.5,132C 122.451,131.282 122.617,130.449 122,129.5C 117.5,124.333 113,119.167 108.5,114C 103.831,112.388 99.164,110.888 94.5,109.5C 79.5238,104.519 67.1905,95.8521 57.5,83.5C 58.5,83.5 59.5,83.5 60.5,83.5C 61.3382,83.1583 61.6716,82.4916 61.5,81.5C 78.4606,95.4792 97.794,104.979 119.5,110C 126.389,111.662 133.056,112.495 139.5,112.5C 127.163,132.499 109.497,144.832 86.5,149.5C 78.5,149.5 70.5,149.5 62.5,149.5C 28.5,141.5 7.5,120.5 -0.5,86.5C -0.5,78.5 -0.5,70.5 -0.5,62.5C 2.96812,43.3595 12.3015,27.6929 27.5,15.5 Z"/></g>
<g><path style="opacity:1" fill="#5c6168" d="M 76.5,67.5 C 79.8102,69.1464 82.4768,71.4797 84.5,74.5C 86.075,80.0764 89.7417,83.0764 95.5,83.5C 101.403,84.132 107.07,85.7987 112.5,88.5C 113.038,90.1172 113.371,91.7839 113.5,93.5C 109.799,92.8823 106.133,92.049 102.5,91C 94.1524,85.4605 85.4857,80.6272 76.5,76.5C 76.5,73.5 76.5,70.5 76.5,67.5 Z"/></g>
<g><path style="opacity:1" fill="#808893" d="M 149.5,80.5 C 149.5,82.5 149.5,84.5 149.5,86.5C 148.662,86.8417 148.328,87.5084 148.5,88.5C 141.527,88.3519 134.527,88.6852 127.5,89.5C 128.422,85.8881 129.089,82.2215 129.5,78.5C 130.577,77.9816 131.744,77.6483 133,77.5C 138.779,77.7632 144.279,78.7632 149.5,80.5 Z"/></g>
<g><path style="opacity:1" fill="#494c51" d="M 76.5,76.5 C 85.4857,80.6272 94.1524,85.4605 102.5,91C 106.133,92.049 109.799,92.8823 113.5,93.5C 114.01,96.5394 114.677,99.5394 115.5,102.5C 105.575,99.0217 95.9079,94.8551 86.5,90C 85.9288,88.7949 85.2621,87.6283 84.5,86.5C 81.8048,85.4916 79.1381,84.4916 76.5,83.5C 76.5,81.1667 76.5,78.8333 76.5,76.5 Z"/></g>
<g><path style="opacity:1" fill="#6e747c" d="M 148.5,88.5 C 148.279,91.0673 147.612,93.4006 146.5,95.5C 146.5,94.5 146.5,93.5 146.5,92.5C 141.63,92.6896 136.964,93.3563 132.5,94.5C 128.119,94.8674 126.452,93.2007 127.5,89.5C 134.527,88.6852 141.527,88.3519 148.5,88.5 Z"/></g>
<g><path style="opacity:1" fill="#254b64" d="M 56.5,83.5 C 56.8333,83.5 57.1667,83.5 57.5,83.5C 67.1905,95.8521 79.5238,104.519 94.5,109.5C 96.4581,112.792 98.7915,115.792 101.5,118.5C 100.5,119.833 99.5,121.167 98.5,122.5C 96.9991,123.752 95.3325,124.752 93.5,125.5C 89.4257,121.771 85.759,117.605 82.5,113C 79.4605,111.969 76.9605,110.135 75,107.5C 69.7084,100.54 64.0417,93.8729 58,87.5C 57.2086,86.255 56.7086,84.9217 56.5,83.5 Z"/></g>
<g><path style="opacity:1" fill="#55595f" d="M 146.5,95.5 C 146.233,97.9653 145.566,100.299 144.5,102.5C 138.484,102.407 132.484,102.074 126.5,101.5C 129.263,99.9202 131.93,98.0869 134.5,96C 133.956,95.2828 133.289,94.7828 132.5,94.5C 136.964,93.3563 141.63,92.6896 146.5,92.5C 146.5,93.5 146.5,94.5 146.5,95.5 Z"/></g>
<g><path style="opacity:1" fill="#343537" d="M 48.5,68.5 C 51.8333,68.5 55.1667,68.5 58.5,68.5C 59.552,68.3505 60.552,68.5172 61.5,69C 63.7581,71.4659 66.0914,73.6326 68.5,75.5C 68.1936,78.3854 68.5269,81.0521 69.5,83.5C 71.8333,83.5 74.1667,83.5 76.5,83.5C 79.1381,84.4916 81.8048,85.4916 84.5,86.5C 85.2621,87.6283 85.9288,88.7949 86.5,90C 95.9079,94.8551 105.575,99.0217 115.5,102.5C 115.088,104.973 116.088,106.306 118.5,106.5C 126.5,106.833 134.5,107.167 142.5,107.5C 141.737,109.368 140.737,111.035 139.5,112.5C 133.056,112.495 126.389,111.662 119.5,110C 97.794,104.979 78.4606,95.4792 61.5,81.5C 61.5,80.1667 61.5,78.8333 61.5,77.5C 58.5,77.5 55.5,77.5 52.5,77.5C 50.8946,74.6223 49.5612,71.6223 48.5,68.5 Z"/></g>
<g><path style="opacity:1" fill="#424448" d="M 126.5,101.5 C 132.484,102.074 138.484,102.407 144.5,102.5C 144.107,104.284 143.441,105.95 142.5,107.5C 134.5,107.167 126.5,106.833 118.5,106.5C 120.794,104.347 123.46,102.68 126.5,101.5 Z"/></g>
<g><path style="opacity:1" fill="#2896e1" d="M 53.5,144.5 C 25.9591,135.112 9.29248,116.112 3.5,87.5C 3.34332,86.1266 3.50999,84.7932 4,83.5C 20.7917,103.961 37.9584,124.127 55.5,144C 54.9056,144.464 54.2389,144.631 53.5,144.5 Z"/></g>
<g><path style="opacity:1" fill="#255779" d="M 43.5,83.5 C 47.8333,83.5 52.1667,83.5 56.5,83.5C 56.7086,84.9217 57.2086,86.255 58,87.5C 64.0417,93.8729 69.7084,100.54 75,107.5C 76.9605,110.135 79.4605,111.969 82.5,113C 85.759,117.605 89.4257,121.771 93.5,125.5C 92.3065,126.272 91.3065,127.272 90.5,128.5C 88.5,129.167 86.5,129.833 84.5,130.5C 82.9826,130.489 81.8159,129.823 81,128.5C 68.4919,113.469 55.9919,98.4691 43.5,83.5 Z"/></g>
<g><path style="opacity:1" fill="#2b7ab0" d="M 27.5,82.5 C 42.6393,99.4533 57.306,116.787 71.5,134.5C 47.0829,125.416 32.4162,108.083 27.5,82.5 Z"/></g>
<g><path style="opacity:1" fill="#576d7c" d="M 104.5,126.5 C 103.5,127.167 102.5,127.833 101.5,128.5C 101.008,126.181 100.008,124.181 98.5,122.5C 99.5,121.167 100.5,119.833 101.5,118.5C 102.794,117.71 103.961,116.71 105,115.5C 106.419,117.336 107.586,119.336 108.5,121.5C 107.143,123.186 105.81,124.852 104.5,126.5 Z"/></g>
<g><path style="opacity:1" fill="#243a4a" d="M 94.5,109.5 C 99.164,110.888 103.831,112.388 108.5,114C 113,119.167 117.5,124.333 122,129.5C 122.617,130.449 122.451,131.282 121.5,132C 118.778,134.358 115.778,136.191 112.5,137.5C 109.833,133.833 107.167,130.167 104.5,126.5C 105.81,124.852 107.143,123.186 108.5,121.5C 107.586,119.336 106.419,117.336 105,115.5C 103.961,116.71 102.794,117.71 101.5,118.5C 98.7915,115.792 96.4581,112.792 94.5,109.5 Z"/></g>
<g><path style="opacity:1" fill="#90a5b4" d="M 98.5,122.5 C 100.008,124.181 101.008,126.181 101.5,128.5C 100.167,129.5 98.8333,130.5 97.5,131.5C 96.5,132.167 95.5,132.833 94.5,133.5C 93.396,131.611 92.0627,129.945 90.5,128.5C 91.3065,127.272 92.3065,126.272 93.5,125.5C 95.3325,124.752 96.9991,123.752 98.5,122.5 Z"/></g>
<g><path style="opacity:1" fill="#254b65" d="M 104.5,126.5 C 107.167,130.167 109.833,133.833 112.5,137.5C 109.696,139.405 106.696,141.071 103.5,142.5C 101.5,138.833 99.5,135.167 97.5,131.5C 98.8333,130.5 100.167,129.5 101.5,128.5C 102.5,127.833 103.5,127.167 104.5,126.5 Z"/></g>
<g><path style="opacity:1" fill="#c5d5df" d="M 90.5,128.5 C 92.0627,129.945 93.396,131.611 94.5,133.5C 91.6612,135.42 88.6612,137.087 85.5,138.5C 85.6602,136.801 85.4935,135.134 85,133.5C 84.3292,132.748 83.4959,132.414 82.5,132.5C 83.1667,131.833 83.8333,131.167 84.5,130.5C 86.5,129.833 88.5,129.167 90.5,128.5 Z"/></g>
<g><path style="opacity:1" fill="#275d81" d="M 97.5,131.5 C 99.5,135.167 101.5,138.833 103.5,142.5C 97.3026,144.633 90.9693,146.3 84.5,147.5C 84.6107,146.883 84.944,146.383 85.5,146C 84.3353,144.008 83.002,142.175 81.5,140.5C 82.5137,139.326 83.847,138.66 85.5,138.5C 88.6612,137.087 91.6612,135.42 94.5,133.5C 95.5,132.833 96.5,132.167 97.5,131.5 Z"/></g>
<g><path style="opacity:1" fill="#2a79af" d="M 61.5,138.5 C 65.7303,139.6 69.897,140.933 74,142.5C 76.4333,141.521 78.9333,140.855 81.5,140.5C 83.002,142.175 84.3353,144.008 85.5,146C 84.944,146.383 84.6107,146.883 84.5,147.5C 76.6484,147.825 68.9818,147.492 61.5,146.5C 62.9778,146.762 64.3112,146.429 65.5,145.5C 64.1851,143.684 62.6851,142.017 61,140.5C 60.3083,139.563 60.475,138.897 61.5,138.5 Z"/></g>
</svg>
