<?xml version="1.0" encoding="UTF-8"?>
<!DOCTYPE svg PUBLIC "-//W3C//DTD SVG 1.1//EN" "http://www.w3.org/Graphics/SVG/1.1/DTD/svg11.dtd">
<svg xmlns="http://www.w3.org/2000/svg" version="1.1" width="150px" height="150px" style="shape-rendering:geometricPrecision; text-rendering:geometricPrecision; image-rendering:optimizeQuality; fill-rule:evenodd; clip-rule:evenodd" xmlns:xlink="http://www.w3.org/1999/xlink">
<g><path style="opacity:1" fill="#fcce96" d="M 62.5,-0.5 C 64.5,-0.5 66.5,-0.5 68.5,-0.5C 71.1807,2.19185 72.5141,5.52518 72.5,9.5C 69.6612,11.4203 66.6612,13.0869 63.5,14.5C 61.9637,9.89109 60.6304,5.22443 59.5,0.5C 60.791,0.737305 61.791,0.403972 62.5,-0.5 Z"/></g>
<g><path style="opacity:1" fill="#f9dcba" d="M 68.5,-0.5 C 72.5,-0.5 76.5,-0.5 80.5,-0.5C 81.724,4.56302 83.724,9.39635 86.5,14C 86.2716,14.3988 85.9382,14.5654 85.5,14.5C 81.6415,12.6532 77.8082,10.6532 74,8.5C 73.6174,9.05596 73.1174,9.38929 72.5,9.5C 72.5141,5.52518 71.1807,2.19185 68.5,-0.5 Z"/></g>
<g><path style="opacity:1" fill="#f6e9d9" d="M 80.5,-0.5 C 82.5,-0.5 84.5,-0.5 86.5,-0.5C 88.9608,0.531006 91.6275,1.19767 94.5,1.5C 102.899,20.3951 117.065,32.7285 137,38.5C 138.376,38.3158 139.209,37.6491 139.5,36.5C 140.737,37.9649 141.737,39.6316 142.5,41.5C 141.844,42.2778 141.011,42.9444 140,43.5C 136.863,42.6394 133.697,41.9728 130.5,41.5C 130.815,45.3714 130.482,49.0381 129.5,52.5C 129.666,48.1539 129.499,43.8206 129,39.5C 114.519,31.0133 100.019,22.68 85.5,14.5C 85.9382,14.5654 86.2716,14.3988 86.5,14C 83.724,9.39635 81.724,4.56302 80.5,-0.5 Z"/></g>
<g><path style="opacity:0.995" fill="#fec177" d="M 59.5,0.5 C 60.6304,5.22443 61.9637,9.89109 63.5,14.5C 61.6316,15.2632 59.9649,16.2632 58.5,17.5C 56.9505,18.4408 55.2838,19.1075 53.5,19.5C 51.8333,14.1667 50.1667,8.83333 48.5,3.5C 52.1228,2.34428 55.7894,1.34428 59.5,0.5 Z"/></g>
<g><path style="opacity:1" fill="#f3f1ed" d="M 94.5,1.5 C 114.19,7.17386 129.19,18.8405 139.5,36.5C 139.209,37.6491 138.376,38.3158 137,38.5C 117.065,32.7285 102.899,20.3951 94.5,1.5 Z"/></g>
<g><path style="opacity:1" fill="#f6aa4d" d="M 48.5,3.5 C 50.1667,8.83333 51.8333,14.1667 53.5,19.5C 50.9906,20.9213 48.6572,22.5879 46.5,24.5C 44.0721,25.2122 41.7388,26.2122 39.5,27.5C 36.9608,23.7574 33.9608,20.424 30.5,17.5C 31.7507,15.7801 33.2507,15.4468 35,16.5C 34.744,14.3977 34.9107,12.3977 35.5,10.5C 39.3518,7.40528 43.6852,5.07195 48.5,3.5 Z"/></g>
<g><path style="opacity:1" fill="#fffcf9" d="M 85.5,14.5 C 100.019,22.68 114.519,31.0133 129,39.5C 129.499,43.8206 129.666,48.1539 129.5,52.5C 129.5,60.5 129.5,68.5 129.5,76.5C 129.384,79.8599 129.051,83.1933 128.5,86.5C 127.838,88.4705 127.172,90.4705 126.5,92.5C 128.304,93.7681 130.304,94.4348 132.5,94.5C 134.233,95.0076 134.566,95.841 133.5,97C 128.297,100.366 122.964,103.532 117.5,106.5C 115.783,105.332 115.116,103.665 115.5,101.5C 114.188,97.5837 113.188,93.5837 112.5,89.5C 112.343,88.1266 112.51,86.7932 113,85.5C 115.034,87.0316 117.201,88.3649 119.5,89.5C 121.518,86.1122 122.518,82.4455 122.5,78.5C 123.824,66.9933 123.824,55.3266 122.5,43.5C 110.101,35.9681 97.434,28.9681 84.5,22.5C 81.4544,19.8882 77.9544,17.8882 74,16.5C 72.0188,16.8985 70.5188,17.8985 69.5,19.5C 67.0462,20.2271 64.7128,21.2271 62.5,22.5C 60.478,21.493 59.1447,19.8263 58.5,17.5C 59.9649,16.2632 61.6316,15.2632 63.5,14.5C 66.6612,13.0869 69.6612,11.4203 72.5,9.5C 73.1174,9.38929 73.6174,9.05596 74,8.5C 77.8082,10.6532 81.6415,12.6532 85.5,14.5 Z"/></g>
<g><path style="opacity:1" fill="#fddcb4" d="M 58.5,17.5 C 59.1447,19.8263 60.478,21.493 62.5,22.5C 62.5,22.8333 62.5,23.1667 62.5,23.5C 58.3447,24.7417 54.678,26.7417 51.5,29.5C 50.8333,29.5 50.1667,29.5 49.5,29.5C 47.5923,28.5144 46.5923,26.8477 46.5,24.5C 48.6572,22.5879 50.9906,20.9213 53.5,19.5C 55.2838,19.1075 56.9505,18.4408 58.5,17.5 Z"/></g>
<g><path style="opacity:1" fill="#fdc98b" d="M 69.5,19.5 C 76.1697,30.4405 84.5031,40.1072 94.5,48.5C 92.2433,48.9617 90.2433,49.9617 88.5,51.5C 87.6143,50.675 87.281,49.675 87.5,48.5C 85.1667,48.5 82.8333,48.5 80.5,48.5C 73.6929,40.7014 67.6929,32.3681 62.5,23.5C 62.5,23.1667 62.5,22.8333 62.5,22.5C 64.7128,21.2271 67.0462,20.2271 69.5,19.5 Z"/></g>
<g><path style="opacity:1" fill="#fadcb9" d="M 84.5,22.5 C 97.434,28.9681 110.101,35.9681 122.5,43.5C 123.824,55.3266 123.824,66.9933 122.5,78.5C 122.5,77.5 122.5,76.5 122.5,75.5C 122.5,70.1667 122.5,64.8333 122.5,59.5C 122.808,57.076 122.474,54.7427 121.5,52.5C 105.55,46.8757 93.2164,36.8757 84.5,22.5 Z"/></g>
<g><path style="opacity:1" fill="#fbd3a3" d="M 84.5,22.5 C 93.2164,36.8757 105.55,46.8757 121.5,52.5C 122.474,54.7427 122.808,57.076 122.5,59.5C 118.824,58.6629 115.324,57.3296 112,55.5C 111.51,56.7932 111.343,58.1266 111.5,59.5C 108.615,59.8064 105.948,59.4731 103.5,58.5C 105.833,58.5 108.167,58.5 110.5,58.5C 110.342,54.8285 108.675,51.9951 105.5,50C 101.974,48.6632 98.3076,48.1632 94.5,48.5C 84.5031,40.1072 76.1697,30.4405 69.5,19.5C 70.5188,17.8985 72.0188,16.8985 74,16.5C 77.9544,17.8882 81.4544,19.8882 84.5,22.5 Z"/></g>
<g><path style="opacity:1" fill="#fcba6a" d="M 62.5,23.5 C 67.6929,32.3681 73.6929,40.7014 80.5,48.5C 74.8333,48.5 69.1667,48.5 63.5,48.5C 59.25,42.3355 55.25,36.0021 51.5,29.5C 54.678,26.7417 58.3447,24.7417 62.5,23.5 Z"/></g>
<g><path style="opacity:1" fill="#b89254" d="M 20.5,26.5 C 27.2961,33.4197 33.6294,40.753 39.5,48.5C 37.5772,52.0293 36.9106,56.0293 37.5,60.5C 35.461,59.3282 34.1276,57.6616 33.5,55.5C 30.7801,49.7288 27.7801,44.0621 24.5,38.5C 23.4822,39.1925 22.4822,39.8592 21.5,40.5C 19.0786,38.7622 16.4119,37.4289 13.5,36.5C 15.3311,32.846 17.6644,29.5127 20.5,26.5 Z"/></g>
<g><path style="opacity:1" fill="#d29748" d="M 30.5,17.5 C 33.9608,20.424 36.9608,23.7574 39.5,27.5C 41.7388,26.2122 44.0721,25.2122 46.5,24.5C 46.5923,26.8477 47.5923,28.5144 49.5,29.5C 47.8132,31.1662 45.8132,32.4995 43.5,33.5C 42.3338,38.503 42.3338,43.503 43.5,48.5C 42.1667,48.5 40.8333,48.5 39.5,48.5C 33.6294,40.753 27.2961,33.4197 20.5,26.5C 23.4148,23.0413 26.7482,20.0413 30.5,17.5 Z"/></g>
<g><path style="opacity:1" fill="#f6a440" d="M 49.5,29.5 C 50.1667,29.5 50.8333,29.5 51.5,29.5C 55.25,36.0021 59.25,42.3355 63.5,48.5C 61.8333,48.5 60.1667,48.5 58.5,48.5C 53.5,48.5 48.5,48.5 43.5,48.5C 42.3338,43.503 42.3338,38.503 43.5,33.5C 45.8132,32.4995 47.8132,31.1662 49.5,29.5 Z"/></g>
<g><path style="opacity:1" fill="#f8f9f8" d="M 33.5,55.5 C 30.995,56.4967 28.3283,56.4967 25.5,55.5C 25.5,58.1667 25.5,60.8333 25.5,63.5C 25.2307,67.9315 25.564,72.2648 26.5,76.5C 26.1588,80.1595 26.8255,83.4928 28.5,86.5C 33.9816,109.314 47.6483,124.981 69.5,133.5C 71.4021,135.151 73.4021,135.484 75.5,134.5C 78.3973,133.871 81.064,132.871 83.5,131.5C 86.0316,130.404 88.3649,129.071 90.5,127.5C 91.4916,127.672 92.1583,127.338 92.5,126.5C 92.8333,126.5 93.1667,126.5 93.5,126.5C 95.5311,127.539 96.8645,129.205 97.5,131.5C 96.5,132.167 95.5,132.833 94.5,133.5C 89.38,136.727 84.0467,139.393 78.5,141.5C 71.4224,141.927 64.7557,140.26 58.5,136.5C 41.0439,126.37 29.0439,111.703 22.5,92.5C 20.4366,86.3367 19.1033,80.0034 18.5,73.5C 18.5,67.1667 18.5,60.8333 18.5,54.5C 15.4281,54.8174 12.4281,54.4841 9.5,53.5C 10.8569,51.8144 12.1902,50.1477 13.5,48.5C 16.5,46.1667 19.1667,43.5 21.5,40.5C 22.4822,39.8592 23.4822,39.1925 24.5,38.5C 27.7801,44.0621 30.7801,49.7288 33.5,55.5 Z"/></g>
<g><path style="opacity:1" fill="#9d9471" d="M 13.5,36.5 C 16.4119,37.4289 19.0786,38.7622 21.5,40.5C 19.1667,43.5 16.5,46.1667 13.5,48.5C 11.8207,47.0837 10.1541,45.7503 8.5,44.5C 9.68034,41.4604 11.347,38.7937 13.5,36.5 Z"/></g>
<g><path style="opacity:1" fill="#ede1cf" d="M 39.5,48.5 C 40.8333,48.5 42.1667,48.5 43.5,48.5C 48.5,48.5 53.5,48.5 58.5,48.5C 52.021,49.4907 45.3543,49.824 38.5,49.5C 38.5,60.8333 38.5,72.1667 38.5,83.5C 37.5318,81.3926 37.1984,79.0593 37.5,76.5C 37.5,71.1667 37.5,65.8333 37.5,60.5C 36.9106,56.0293 37.5772,52.0293 39.5,48.5 Z"/></g>
<g><path style="opacity:1" fill="#fefbf8" d="M 58.5,48.5 C 60.1667,48.5 61.8333,48.5 63.5,48.5C 69.1667,48.5 74.8333,48.5 80.5,48.5C 82.8333,48.5 85.1667,48.5 87.5,48.5C 87.281,49.675 87.6143,50.675 88.5,51.5C 90.2433,49.9617 92.2433,48.9617 94.5,48.5C 98.3076,48.1632 101.974,48.6632 105.5,50C 108.675,51.9951 110.342,54.8285 110.5,58.5C 108.167,58.5 105.833,58.5 103.5,58.5C 102.967,55.4752 101.133,54.1419 98,54.5C 94.2332,54.2656 92.5665,55.9323 93,59.5C 97.638,62.3792 102.471,64.8792 107.5,67C 110.029,69.6417 111.029,72.8084 110.5,76.5C 110.089,80.0791 108.089,82.2458 104.5,83C 101.518,83.498 98.5184,83.6646 95.5,83.5C 89.7032,83.0314 86.0365,80.0314 84.5,74.5C 86.2789,72.6565 88.6122,71.9898 91.5,72.5C 91.8921,76.3912 94.0587,78.3912 98,78.5C 102.256,78.5814 103.923,76.5814 103,72.5C 97.5367,69.7674 92.2034,66.7674 87,63.5C 85.7114,60.6492 85.2114,57.6492 85.5,54.5C 82.5,54.5 79.5,54.5 76.5,54.5C 76.5,59.5 76.5,64.5 76.5,69.5C 76.5,74.1667 76.5,78.8333 76.5,83.5C 74.1667,83.5 71.8333,83.5 69.5,83.5C 69.5,73.8333 69.5,64.1667 69.5,54.5C 61.1667,54.5 52.8333,54.5 44.5,54.5C 44.5,57.1667 44.5,59.8333 44.5,62.5C 49.1667,62.5 53.8333,62.5 58.5,62.5C 58.5,64.5 58.5,66.5 58.5,68.5C 55.1667,68.5 51.8333,68.5 48.5,68.5C 47.5,68.5 46.5,68.5 45.5,68.5C 45.5,71.5 45.5,74.5 45.5,77.5C 47.8333,77.5 50.1667,77.5 52.5,77.5C 54.9479,78.4731 57.6146,78.8064 60.5,78.5C 60.5,80.1667 60.5,81.8333 60.5,83.5C 59.5,83.5 58.5,83.5 57.5,83.5C 55.5,83.5 53.5,83.5 51.5,83.5C 47.8333,83.5 44.1667,83.5 40.5,83.5C 39.8333,83.5 39.1667,83.5 38.5,83.5C 38.5,72.1667 38.5,60.8333 38.5,49.5C 45.3543,49.824 52.021,49.4907 58.5,48.5 Z"/></g>
<g><path style="opacity:1" fill="#f9debe" d="M 142.5,41.5 C 144.559,46.0099 146.226,50.6766 147.5,55.5C 146.287,56.5747 144.787,57.2414 143,57.5C 138.812,56.8852 134.645,56.2185 130.5,55.5C 130.5,60.1667 130.5,64.8333 130.5,69.5C 130.802,72.0593 130.468,74.3926 129.5,76.5C 129.5,68.5 129.5,60.5 129.5,52.5C 130.482,49.0381 130.815,45.3714 130.5,41.5C 133.697,41.9728 136.863,42.6394 140,43.5C 141.011,42.9444 141.844,42.2778 142.5,41.5 Z"/></g>
<g><path style="opacity:1" fill="#f6a23e" d="M 69.5,83.5 C 68.6762,79.6877 68.1762,75.6877 68,71.5C 65.3333,68.8333 62.6667,66.1667 60,63.5C 59.8019,65.3817 59.3019,67.0484 58.5,68.5C 58.5,66.5 58.5,64.5 58.5,62.5C 53.8333,62.5 49.1667,62.5 44.5,62.5C 44.5,59.8333 44.5,57.1667 44.5,54.5C 52.8333,54.5 61.1667,54.5 69.5,54.5C 69.5,64.1667 69.5,73.8333 69.5,83.5 Z"/></g>
<g><path style="opacity:1" fill="#7b9490" d="M 8.5,44.5 C 10.1541,45.7503 11.8207,47.0837 13.5,48.5C 12.1902,50.1477 10.8569,51.8144 9.5,53.5C 12.4281,54.4841 15.4281,54.8174 18.5,54.5C 18.5,60.8333 18.5,67.1667 18.5,73.5C 13.8333,68.1667 9.16667,62.8333 4.5,57.5C 5.03207,52.9048 6.36541,48.5715 8.5,44.5 Z"/></g>
<g><path style="opacity:1" fill="#fec786" d="M 103.5,58.5 C 105.948,59.4731 108.615,59.8064 111.5,59.5C 111.343,58.1266 111.51,56.7932 112,55.5C 115.324,57.3296 118.824,58.6629 122.5,59.5C 122.5,64.8333 122.5,70.1667 122.5,75.5C 118.973,74.2682 115.473,72.9349 112,71.5C 111.802,73.3817 111.302,75.0484 110.5,76.5C 111.029,72.8084 110.029,69.6417 107.5,67C 102.471,64.8792 97.638,62.3792 93,59.5C 92.5665,55.9323 94.2332,54.2656 98,54.5C 101.133,54.1419 102.967,55.4752 103.5,58.5 Z"/></g>
<g><path style="opacity:1" fill="#fab35d" d="M 84.5,74.5 C 81.8159,72.8067 79.1492,71.14 76.5,69.5C 76.5,64.5 76.5,59.5 76.5,54.5C 79.5,54.5 82.5,54.5 85.5,54.5C 85.2114,57.6492 85.7114,60.6492 87,63.5C 92.2034,66.7674 97.5367,69.7674 103,72.5C 103.923,76.5814 102.256,78.5814 98,78.5C 94.0587,78.3912 91.8921,76.3912 91.5,72.5C 88.6122,71.9898 86.2789,72.6565 84.5,74.5 Z"/></g>
<g><path style="opacity:1" fill="#9b936f" d="M 33.5,55.5 C 34.1276,57.6616 35.461,59.3282 37.5,60.5C 37.5,65.8333 37.5,71.1667 37.5,76.5C 33.5,72.1667 29.5,67.8333 25.5,63.5C 25.5,60.8333 25.5,58.1667 25.5,55.5C 28.3283,56.4967 30.995,56.4967 33.5,55.5 Z"/></g>
<g><path style="opacity:0.985" fill="#fcce98" d="M 147.5,55.5 C 147.927,58.0098 148.593,60.3432 149.5,62.5C 149.5,66.1667 149.5,69.8333 149.5,73.5C 143.455,71.4372 137.121,70.1038 130.5,69.5C 130.5,64.8333 130.5,60.1667 130.5,55.5C 134.645,56.2185 138.812,56.8852 143,57.5C 144.787,57.2414 146.287,56.5747 147.5,55.5 Z"/></g>
<g><path style="opacity:0.995" fill="#f0911f" d="M 35.5,10.5 C 34.9107,12.3977 34.744,14.3977 35,16.5C 33.2507,15.4468 31.7507,15.7801 30.5,17.5C 26.7482,20.0413 23.4148,23.0413 20.5,26.5C 17.6644,29.5127 15.3311,32.846 13.5,36.5C 11.347,38.7937 9.68034,41.4604 8.5,44.5C 6.36541,48.5715 5.03207,52.9048 4.5,57.5C 1.69125,65.0184 1.02458,72.685 2.5,80.5C 2.19845,83.0593 2.53178,85.3926 3.5,87.5C 7.14408,108.965 18.1441,125.465 36.5,137C 41.0487,140.237 46.0487,142.404 51.5,143.5C 54.4525,145.41 57.7858,146.41 61.5,146.5C 68.6476,147.492 75.9809,147.825 83.5,147.5C 89.8595,146.746 95.8595,145.08 101.5,142.5C 105.052,141.724 108.386,140.391 111.5,138.5C 113.537,137.154 115.537,135.82 117.5,134.5C 118.872,133.488 120.205,132.488 121.5,131.5C 123.296,130.207 124.963,128.707 126.5,127C 123.167,123 119.833,119 116.5,115C 113.986,113.748 111.32,113.248 108.5,113.5C 105.779,113.037 103.112,112.371 100.5,111.5C 95.624,110.394 90.9574,108.728 86.5,106.5C 79.6602,103.25 73.3269,99.2498 67.5,94.5C 63.485,91.4836 60.1517,87.8169 57.5,83.5C 58.5,83.5 59.5,83.5 60.5,83.5C 61.4614,81.7354 61.7947,79.7354 61.5,77.5C 58.5,77.5 55.5,77.5 52.5,77.5C 50.8946,74.6223 49.5612,71.6223 48.5,68.5C 51.8333,68.5 55.1667,68.5 58.5,68.5C 59.3019,67.0484 59.8019,65.3817 60,63.5C 62.6667,66.1667 65.3333,68.8333 68,71.5C 68.1762,75.6877 68.6762,79.6877 69.5,83.5C 71.8333,83.5 74.1667,83.5 76.5,83.5C 88.5439,91.4113 101.544,97.4113 115.5,101.5C 115.116,103.665 115.783,105.332 117.5,106.5C 122.964,103.532 128.297,100.366 133.5,97C 134.566,95.841 134.233,95.0076 132.5,94.5C 137.389,94.5012 142.389,94.1679 147.5,93.5C 137.964,124.04 117.63,142.707 86.5,149.5C 78.5,149.5 70.5,149.5 62.5,149.5C 28.5,141.5 7.5,120.5 -0.5,86.5C -0.5,78.5 -0.5,70.5 -0.5,62.5C 3.09565,43.3776 12.429,27.5443 27.5,15C 30.0594,13.2226 32.7261,11.7226 35.5,10.5 Z"/></g>
<g><path style="opacity:1" fill="#839488" d="M 25.5,63.5 C 29.5,67.8333 33.5,72.1667 37.5,76.5C 37.1984,79.0593 37.5318,81.3926 38.5,83.5C 39.1667,83.5 39.8333,83.5 40.5,83.5C 53.8317,99.0009 66.9984,114.668 80,130.5C 81.0113,131.337 82.1779,131.67 83.5,131.5C 81.064,132.871 78.3973,133.871 75.5,134.5C 59.9112,114.575 43.5779,95.2412 26.5,76.5C 25.564,72.2648 25.2307,67.9315 25.5,63.5 Z"/></g>
<g><path style="opacity:1" fill="#a89262" d="M 48.5,68.5 C 49.5612,71.6223 50.8946,74.6223 52.5,77.5C 50.1667,77.5 47.8333,77.5 45.5,77.5C 45.5,74.5 45.5,71.5 45.5,68.5C 46.5,68.5 47.5,68.5 48.5,68.5 Z"/></g>
<g><path style="opacity:1" fill="#6996a4" d="M 4.5,57.5 C 9.16667,62.8333 13.8333,68.1667 18.5,73.5C 19.1033,80.0034 20.4366,86.3367 22.5,92.5C 16.3067,84.4508 9.80669,76.4508 3,68.5C 2.50115,72.4862 2.33449,76.4862 2.5,80.5C 1.02458,72.685 1.69125,65.0184 4.5,57.5 Z"/></g>
<g><path style="opacity:1" fill="#facf9c" d="M 52.5,77.5 C 55.5,77.5 58.5,77.5 61.5,77.5C 61.7947,79.7354 61.4614,81.7354 60.5,83.5C 60.5,81.8333 60.5,80.1667 60.5,78.5C 57.6146,78.8064 54.9479,78.4731 52.5,77.5 Z"/></g>
<g><path style="opacity:1" fill="#4f97bf" d="M 22.5,92.5 C 29.0439,111.703 41.0439,126.37 58.5,136.5C 60.5912,139.771 62.9245,142.937 65.5,146C 64.2068,146.49 62.8734,146.657 61.5,146.5C 57.7858,146.41 54.4525,145.41 51.5,143.5C 52.5735,142.749 52.7401,141.749 52,140.5C 36,121.833 20,103.167 4,84.5C 3.51722,85.448 3.35055,86.448 3.5,87.5C 2.53178,85.3926 2.19845,83.0593 2.5,80.5C 2.33449,76.4862 2.50115,72.4862 3,68.5C 9.80669,76.4508 16.3067,84.4508 22.5,92.5 Z"/></g>
<g><path style="opacity:1" fill="#fdbd71" d="M 130.5,69.5 C 137.121,70.1038 143.455,71.4372 149.5,73.5C 149.5,77.1667 149.5,80.8333 149.5,84.5C 142.936,85.8565 136.436,85.5231 130,83.5C 129.768,84.7375 129.268,85.7375 128.5,86.5C 129.051,83.1933 129.384,79.8599 129.5,76.5C 130.468,74.3926 130.802,72.0593 130.5,69.5 Z"/></g>
<g><path style="opacity:1" fill="#769596" d="M 26.5,76.5 C 43.5779,95.2412 59.9112,114.575 75.5,134.5C 73.4021,135.484 71.4021,135.151 69.5,133.5C 56.1772,117.512 42.5105,101.845 28.5,86.5C 26.8255,83.4928 26.1588,80.1595 26.5,76.5 Z"/></g>
<g><path style="opacity:1" fill="#f49c33" d="M 76.5,69.5 C 79.1492,71.14 81.8159,72.8067 84.5,74.5C 86.0365,80.0314 89.7032,83.0314 95.5,83.5C 101.591,84.0333 107.257,86.0333 112.5,89.5C 113.188,93.5837 114.188,97.5837 115.5,101.5C 101.544,97.4113 88.5439,91.4113 76.5,83.5C 76.5,78.8333 76.5,74.1667 76.5,69.5 Z"/></g>
<g><path style="opacity:1" fill="#fab45f" d="M 122.5,75.5 C 122.5,76.5 122.5,77.5 122.5,78.5C 122.518,82.4455 121.518,86.1122 119.5,89.5C 117.201,88.3649 115.034,87.0316 113,85.5C 112.51,86.7932 112.343,88.1266 112.5,89.5C 107.257,86.0333 101.591,84.0333 95.5,83.5C 98.5184,83.6646 101.518,83.498 104.5,83C 108.089,82.2458 110.089,80.0791 110.5,76.5C 111.302,75.0484 111.802,73.3817 112,71.5C 115.473,72.9349 118.973,74.2682 122.5,75.5 Z"/></g>
<g><path style="opacity:1" fill="#f9ad53" d="M 149.5,84.5 C 149.5,85.1667 149.5,85.8333 149.5,86.5C 148.593,88.6568 147.927,90.9902 147.5,93.5C 142.389,94.1679 137.389,94.5012 132.5,94.5C 130.304,94.4348 128.304,93.7681 126.5,92.5C 127.172,90.4705 127.838,88.4705 128.5,86.5C 129.268,85.7375 129.768,84.7375 130,83.5C 136.436,85.5231 142.936,85.8565 149.5,84.5 Z"/></g>
<g><path style="opacity:1" fill="#3b97d2" d="M 51.5,143.5 C 46.0487,142.404 41.0487,140.237 36.5,137C 18.1441,125.465 7.14408,108.965 3.5,87.5C 3.35055,86.448 3.51722,85.448 4,84.5C 20,103.167 36,121.833 52,140.5C 52.7401,141.749 52.5735,142.749 51.5,143.5 Z"/></g>
<g><path style="opacity:1" fill="#6996a4" d="M 28.5,86.5 C 42.5105,101.845 56.1772,117.512 69.5,133.5C 47.6483,124.981 33.9816,109.314 28.5,86.5 Z"/></g>
<g><path style="opacity:1" fill="#a49265" d="M 51.5,83.5 C 53.5,83.5 55.5,83.5 57.5,83.5C 60.1517,87.8169 63.485,91.4836 67.5,94.5C 67.3505,95.552 67.5172,96.552 68,97.5C 76.3774,107.039 84.544,116.706 92.5,126.5C 92.1583,127.338 91.4916,127.672 90.5,127.5C 88.9826,127.489 87.8159,126.823 87,125.5C 75.3962,111.283 63.5629,97.2834 51.5,83.5 Z"/></g>
<g><path style="opacity:1" fill="#b29258" d="M 67.5,94.5 C 73.3269,99.2498 79.6602,103.25 86.5,106.5C 89.7469,112.083 93.7469,117.083 98.5,121.5C 97.027,123.395 95.3603,125.061 93.5,126.5C 93.1667,126.5 92.8333,126.5 92.5,126.5C 84.544,116.706 76.3774,107.039 68,97.5C 67.5172,96.552 67.3505,95.552 67.5,94.5 Z"/></g>
<g><path style="opacity:1" fill="#e18f28" d="M 108.5,113.5 C 111.32,113.248 113.986,113.748 116.5,115C 119.833,119 123.167,123 126.5,127C 124.963,128.707 123.296,130.207 121.5,131.5C 117.167,125.5 112.833,119.5 108.5,113.5 Z"/></g>
<g><path style="opacity:1" fill="#c69349" d="M 86.5,106.5 C 90.9574,108.728 95.624,110.394 100.5,111.5C 100.537,115.225 102.204,116.558 105.5,115.5C 108.159,117.787 109.325,120.454 109,123.5C 112.073,127.061 114.906,130.728 117.5,134.5C 115.537,135.82 113.537,137.154 111.5,138.5C 108.883,134.87 106.216,131.203 103.5,127.5C 107.585,124.257 107.418,121.257 103,118.5C 101.358,118.978 100.191,119.978 99.5,121.5C 99.1667,121.5 98.8333,121.5 98.5,121.5C 93.7469,117.083 89.7469,112.083 86.5,106.5 Z"/></g>
<g><path style="opacity:1" fill="#959374" d="M 40.5,83.5 C 44.1667,83.5 47.8333,83.5 51.5,83.5C 63.5629,97.2834 75.3962,111.283 87,125.5C 87.8159,126.823 88.9826,127.489 90.5,127.5C 88.3649,129.071 86.0316,130.404 83.5,131.5C 82.1779,131.67 81.0113,131.337 80,130.5C 66.9984,114.668 53.8317,99.0009 40.5,83.5 Z"/></g>
<g><path style="opacity:1" fill="#d19039" d="M 100.5,111.5 C 103.112,112.371 105.779,113.037 108.5,113.5C 112.833,119.5 117.167,125.5 121.5,131.5C 120.205,132.488 118.872,133.488 117.5,134.5C 114.906,130.728 112.073,127.061 109,123.5C 109.325,120.454 108.159,117.787 105.5,115.5C 102.204,116.558 100.537,115.225 100.5,111.5 Z"/></g>
<g><path style="opacity:1" fill="#d1bc98" d="M 98.5,121.5 C 98.8333,121.5 99.1667,121.5 99.5,121.5C 104.009,125.768 103.342,129.101 97.5,131.5C 96.8645,129.205 95.5311,127.539 93.5,126.5C 95.3603,125.061 97.027,123.395 98.5,121.5 Z"/></g>
<g><path style="opacity:1" fill="#ae9461" d="M 111.5,138.5 C 108.386,140.391 105.052,141.724 101.5,142.5C 98.925,139.681 96.5917,136.681 94.5,133.5C 95.5,132.833 96.5,132.167 97.5,131.5C 103.342,129.101 104.009,125.768 99.5,121.5C 100.191,119.978 101.358,118.978 103,118.5C 107.418,121.257 107.585,124.257 103.5,127.5C 106.216,131.203 108.883,134.87 111.5,138.5 Z"/></g>
<g><path style="opacity:1" fill="#8c9481" d="M 94.5,133.5 C 96.5917,136.681 98.925,139.681 101.5,142.5C 95.8595,145.08 89.8595,146.746 83.5,147.5C 82.5806,144.911 80.914,142.911 78.5,141.5C 84.0467,139.393 89.38,136.727 94.5,133.5 Z"/></g>
<g><path style="opacity:1" fill="#6796a6" d="M 58.5,136.5 C 64.7557,140.26 71.4224,141.927 78.5,141.5C 80.914,142.911 82.5806,144.911 83.5,147.5C 75.9809,147.825 68.6476,147.492 61.5,146.5C 62.8734,146.657 64.2068,146.49 65.5,146C 62.9245,142.937 60.5912,139.771 58.5,136.5 Z"/></g>
</svg>
