<?xml version="1.0" encoding="UTF-8"?>
<!DOCTYPE svg PUBLIC "-//W3C//DTD SVG 1.1//EN" "http://www.w3.org/Graphics/SVG/1.1/DTD/svg11.dtd">
<svg xmlns="http://www.w3.org/2000/svg" version="1.1" width="150px" height="150px" style="shape-rendering:geometricPrecision; text-rendering:geometricPrecision; image-rendering:optimizeQuality; fill-rule:evenodd; clip-rule:evenodd" xmlns:xlink="http://www.w3.org/1999/xlink">
<g><path style="opacity:1" fill="#fbd4a6" d="M 65.5,-0.5 C 66.8333,-0.5 68.1667,-0.5 69.5,-0.5C 73.6104,1.3288 75.9437,4.66213 76.5,9.5C 73.2016,8.95198 70.2016,9.95198 67.5,12.5C 66.4648,8.56088 65.1314,4.72755 63.5,1C 64.4158,0.721579 65.0825,0.221579 65.5,-0.5 Z"/></g>
<g><path style="opacity:1" fill="#f8e2c9" d="M 69.5,-0.5 C 75.1667,-0.5 80.8333,-0.5 86.5,-0.5C 86.8417,0.338246 87.5084,0.67158 88.5,0.5C 90.9439,8.72405 94.9439,16.0574 100.5,22.5C 92.1729,18.6715 84.1729,14.3382 76.5,9.5C 75.9437,4.66213 73.6104,1.3288 69.5,-0.5 Z"/></g>
<g><path style="opacity:0.998" fill="#f6eadc" d="M 88.5,0.5 C 91.0673,0.721485 93.4006,1.38815 95.5,2.5C 101.654,17.4869 112.321,27.9869 127.5,34C 131.141,35.2695 134.808,36.4361 138.5,37.5C 139.107,37.3764 139.44,37.0431 139.5,36.5C 141.341,38.8485 142.674,41.5152 143.5,44.5C 143.083,45.1239 142.416,45.4573 141.5,45.5C 137.87,44.5737 134.203,43.9071 130.5,43.5C 130.768,45.099 130.434,46.4324 129.5,47.5C 130.006,43.9929 129.34,40.8263 127.5,38C 118.111,33.3119 109.111,28.1452 100.5,22.5C 94.9439,16.0574 90.9439,8.72405 88.5,0.5 Z"/></g>
<g><path style="opacity:0.997" fill="#fec57f" d="M 62.5,-0.5 C 63.5,-0.5 64.5,-0.5 65.5,-0.5C 65.0825,0.221579 64.4158,0.721579 63.5,1C 65.1314,4.72755 66.4648,8.56088 67.5,12.5C 66.8333,12.8333 66.1667,13.1667 65.5,13.5C 63.0038,14.5804 60.6705,15.9138 58.5,17.5C 57.1667,18.1667 55.8333,18.8333 54.5,19.5C 53.4489,15.1734 52.2823,10.84 51,6.5C 50.2904,5.02674 49.1238,4.36007 47.5,4.5C 52.3605,2.36934 57.3605,0.702678 62.5,-0.5 Z"/></g>
<g><path style="opacity:0.993" fill="#f4f1ed" d="M 95.5,2.5 C 114.985,7.57809 129.651,18.9114 139.5,36.5C 139.44,37.0431 139.107,37.3764 138.5,37.5C 134.808,36.4361 131.141,35.2695 127.5,34C 112.321,27.9869 101.654,17.4869 95.5,2.5 Z"/></g>
<g><path style="opacity:1" fill="#fab159" d="M 47.5,4.5 C 49.1238,4.36007 50.2904,5.02674 51,6.5C 52.2823,10.84 53.4489,15.1734 54.5,19.5C 53.1667,20.1667 51.8333,20.8333 50.5,21.5C 48.3295,23.0862 45.9962,24.4196 43.5,25.5C 41.7422,20.7275 40.0755,15.8942 38.5,11C 38.1639,9.97008 37.4972,9.47008 36.5,9.5C 39.7512,7.04308 43.4179,5.37641 47.5,4.5 Z"/></g>
<g><path style="opacity:1" fill="#fffdfb" d="M 76.5,9.5 C 84.1729,14.3382 92.1729,18.6715 100.5,22.5C 109.111,28.1452 118.111,33.3119 127.5,38C 129.34,40.8263 130.006,43.9929 129.5,47.5C 129.5,57.1667 129.5,66.8333 129.5,76.5C 129.5,77.5 129.5,78.5 129.5,79.5C 128.883,83.9168 127.883,88.2501 126.5,92.5C 129.073,93.8076 131.74,94.8076 134.5,95.5C 131.681,98.075 128.681,100.408 125.5,102.5C 122.622,103.37 119.955,104.703 117.5,106.5C 116.914,106.291 116.414,105.957 116,105.5C 115.56,103.134 115.06,100.801 114.5,98.5C 113.706,95.198 113.04,91.8647 112.5,88.5C 112.351,87.448 112.517,86.448 113,85.5C 115.25,86.7079 117.417,88.0413 119.5,89.5C 121.728,85.8135 122.728,81.8135 122.5,77.5C 123.824,66.3265 123.824,54.9931 122.5,43.5C 109.799,36.4436 97.1326,29.4436 84.5,22.5C 80.9879,19.0597 76.9879,17.393 72.5,17.5C 71.391,17.5569 70.391,17.8902 69.5,18.5C 67.1236,17.7939 65.7903,16.1273 65.5,13.5C 66.1667,13.1667 66.8333,12.8333 67.5,12.5C 70.2016,9.95198 73.2016,8.95198 76.5,9.5 Z"/></g>
<g><path style="opacity:1" fill="#f69e3b" d="M 36.5,9.5 C 37.4972,9.47008 38.1639,9.97008 38.5,11C 40.0755,15.8942 41.7422,20.7275 43.5,25.5C 40.0635,27.0767 39.5635,29.4101 42,32.5C 43.9742,32.6472 45.9742,32.9805 48,33.5C 50.6777,38.8662 53.8444,43.8662 57.5,48.5C 52.8333,48.5 48.1667,48.5 43.5,48.5C 43.1417,44.4908 42.6417,40.4908 42,36.5C 35.4391,34.3138 34.6058,31.1471 39.5,27C 36.9845,23.7663 34.6512,20.4329 32.5,17C 30.9343,16.7003 29.601,17.2003 28.5,18.5C 28.7373,17.209 28.404,16.209 27.5,15.5C 30.2911,13.2651 33.2911,11.2651 36.5,9.5 Z"/></g>
<g><path style="opacity:1" fill="#feedd8" d="M 65.5,13.5 C 65.7903,16.1273 67.1236,17.7939 69.5,18.5C 68.8333,19.1667 68.1667,19.8333 67.5,20.5C 65.7162,20.8925 64.0495,21.5592 62.5,22.5C 60.0029,21.8707 58.6696,20.204 58.5,17.5C 60.6705,15.9138 63.0038,14.5804 65.5,13.5 Z"/></g>
<g><path style="opacity:1" fill="#fccd93" d="M 72.5,17.5 C 78.9828,28.4916 87.1495,38.1582 97,46.5C 97.4643,47.0944 97.631,47.7611 97.5,48.5C 94.5794,48.2826 91.9128,48.9493 89.5,50.5C 84.5657,44.3917 79.399,38.3917 74,32.5C 71.5542,28.6056 69.3876,24.6056 67.5,20.5C 68.1667,19.8333 68.8333,19.1667 69.5,18.5C 70.391,17.8902 71.391,17.5569 72.5,17.5 Z"/></g>
<g><path style="opacity:1" fill="#fcdab1" d="M 58.5,17.5 C 58.6696,20.204 60.0029,21.8707 62.5,22.5C 60.5,23.8333 58.5,25.1667 56.5,26.5C 55.609,27.1098 54.609,27.4431 53.5,27.5C 51.087,26.3202 50.087,24.3202 50.5,21.5C 51.8333,20.8333 53.1667,20.1667 54.5,19.5C 55.8333,18.8333 57.1667,18.1667 58.5,17.5 Z"/></g>
<g><path style="opacity:1" fill="#fec581" d="M 67.5,20.5 C 69.3876,24.6056 71.5542,28.6056 74,32.5C 79.399,38.3917 84.5657,44.3917 89.5,50.5C 87.7973,51.6602 87.1307,50.9935 87.5,48.5C 83.1667,48.5 78.8333,48.5 74.5,48.5C 68.7733,42.0576 63.7733,35.0576 59.5,27.5C 58.675,26.6143 57.675,26.281 56.5,26.5C 58.5,25.1667 60.5,23.8333 62.5,22.5C 64.0495,21.5592 65.7162,20.8925 67.5,20.5 Z"/></g>
<g><path style="opacity:1" fill="#fbc98d" d="M 50.5,21.5 C 50.087,24.3202 51.087,26.3202 53.5,27.5C 51.3924,29.0591 49.0591,30.3924 46.5,31.5C 44.4469,30.0606 43.4469,28.0606 43.5,25.5C 45.9962,24.4196 48.3295,23.0862 50.5,21.5 Z"/></g>
<g><path style="opacity:1" fill="#f36b1f" d="M 23.5,23.5 C 25.8069,25.3384 28.1402,27.3384 30.5,29.5C 34.7715,35.7208 38.7715,42.0542 42.5,48.5C 40.8333,48.5 39.1667,48.5 37.5,48.5C 37.5,51.8333 37.5,55.1667 37.5,58.5C 35.2143,58.405 33.2143,57.7384 31.5,56.5C 33.2252,56.1575 33.7252,55.1575 33,53.5C 30.1667,48.5 27.3333,43.5 24.5,38.5C 22.8144,39.8569 21.1477,41.1902 19.5,42.5C 18.9464,38.9452 16.9464,36.6118 13.5,35.5C 16.4864,31.183 19.8197,27.183 23.5,23.5 Z"/></g>
<g><path style="opacity:1" fill="#fab15a" d="M 43.5,25.5 C 43.4469,28.0606 44.4469,30.0606 46.5,31.5C 49.0591,30.3924 51.3924,29.0591 53.5,27.5C 54.609,27.4431 55.609,27.1098 56.5,26.5C 57.675,26.281 58.675,26.6143 59.5,27.5C 63.7733,35.0576 68.7733,42.0576 74.5,48.5C 69.1667,48.5 63.8333,48.5 58.5,48.5C 58.1667,48.5 57.8333,48.5 57.5,48.5C 53.8444,43.8662 50.6777,38.8662 48,33.5C 45.9742,32.9805 43.9742,32.6472 42,32.5C 39.5635,29.4101 40.0635,27.0767 43.5,25.5 Z"/></g>
<g><path style="opacity:1" fill="#fadfbe" d="M 84.5,22.5 C 97.1326,29.4436 109.799,36.4436 122.5,43.5C 123.824,54.9931 123.824,66.3265 122.5,77.5C 122.5,76.5 122.5,75.5 122.5,74.5C 122.5,69.5 122.5,64.5 122.5,59.5C 122.808,57.076 122.474,54.7427 121.5,52.5C 105.55,46.8757 93.2164,36.8757 84.5,22.5 Z"/></g>
<g><path style="opacity:1" fill="#f48428" d="M 43.5,48.5 C 43.1667,48.5 42.8333,48.5 42.5,48.5C 38.7715,42.0542 34.7715,35.7208 30.5,29.5C 28.1402,27.3384 25.8069,25.3384 23.5,23.5C 25.3603,22.0613 27.027,20.3947 28.5,18.5C 29.601,17.2003 30.9343,16.7003 32.5,17C 34.6512,20.4329 36.9845,23.7663 39.5,27C 34.6058,31.1471 35.4391,34.3138 42,36.5C 42.6417,40.4908 43.1417,44.4908 43.5,48.5 Z"/></g>
<g><path style="opacity:1" fill="#fff5f3" d="M 31.5,56.5 C 29.5,56.1667 27.5,55.8333 25.5,55.5C 25.2045,62.5878 25.5379,69.5878 26.5,76.5C 29.9727,103.804 44.3061,122.971 69.5,134C 71.8098,134.497 74.1432,134.663 76.5,134.5C 79.682,133.406 82.682,132.072 85.5,130.5C 86.609,130.443 87.609,130.11 88.5,129.5C 90.3794,130.895 91.3794,132.895 91.5,135.5C 87.222,137.808 82.8887,139.808 78.5,141.5C 76.9397,141.519 75.4397,141.852 74,142.5C 43.58,132.692 25.4133,112.025 19.5,80.5C 18.6228,71.8667 18.2895,63.2 18.5,54.5C 15.4281,54.8174 12.4281,54.4841 9.5,53.5C 12.8554,49.8133 16.1887,46.1466 19.5,42.5C 21.1477,41.1902 22.8144,39.8569 24.5,38.5C 27.3333,43.5 30.1667,48.5 33,53.5C 33.7252,55.1575 33.2252,56.1575 31.5,56.5 Z"/></g>
<g><path style="opacity:1" fill="#fbd4a6" d="M 72.5,17.5 C 76.9879,17.393 80.9879,19.0597 84.5,22.5C 93.2164,36.8757 105.55,46.8757 121.5,52.5C 122.474,54.7427 122.808,57.076 122.5,59.5C 118.824,58.6629 115.324,57.3296 112,55.5C 111.51,56.7932 111.343,58.1266 111.5,59.5C 108.615,59.8064 105.948,59.4731 103.5,58.5C 105.833,58.5 108.167,58.5 110.5,58.5C 109.171,51.5255 104.838,48.1921 97.5,48.5C 97.631,47.7611 97.4643,47.0944 97,46.5C 87.1495,38.1582 78.9828,28.4916 72.5,17.5 Z"/></g>
<g><path style="opacity:1" fill="#fcd8c4" d="M 42.5,48.5 C 42.8333,48.5 43.1667,48.5 43.5,48.5C 48.1667,48.5 52.8333,48.5 57.5,48.5C 57.8333,48.5 58.1667,48.5 58.5,48.5C 52.021,49.4907 45.3543,49.824 38.5,49.5C 38.5,60.8333 38.5,72.1667 38.5,83.5C 37.5073,75.3501 37.1739,67.0168 37.5,58.5C 37.5,55.1667 37.5,51.8333 37.5,48.5C 39.1667,48.5 40.8333,48.5 42.5,48.5 Z"/></g>
<g><path style="opacity:1" fill="#fffcfa" d="M 58.5,48.5 C 63.8333,48.5 69.1667,48.5 74.5,48.5C 78.8333,48.5 83.1667,48.5 87.5,48.5C 87.1307,50.9935 87.7973,51.6602 89.5,50.5C 91.9128,48.9493 94.5794,48.2826 97.5,48.5C 104.838,48.1921 109.171,51.5255 110.5,58.5C 108.167,58.5 105.833,58.5 103.5,58.5C 102.967,55.4752 101.133,54.1419 98,54.5C 94.2332,54.2656 92.5665,55.9323 93,59.5C 97.638,62.3792 102.471,64.8792 107.5,67C 110.029,69.6417 111.029,72.8084 110.5,76.5C 110.089,80.0791 108.089,82.2458 104.5,83C 101.518,83.498 98.5184,83.6646 95.5,83.5C 89.7417,83.0764 86.075,80.0764 84.5,74.5C 86.2789,72.6565 88.6122,71.9898 91.5,72.5C 92.5601,78.0953 95.8935,79.9286 101.5,78C 103.576,76.1159 103.91,73.9492 102.5,71.5C 96.9725,69.4866 91.8059,66.8199 87,63.5C 85.7114,60.6492 85.2114,57.6492 85.5,54.5C 82.5,54.5 79.5,54.5 76.5,54.5C 76.5,59.1667 76.5,63.8333 76.5,68.5C 76.5,72.5 76.5,76.5 76.5,80.5C 76.5,81.5 76.5,82.5 76.5,83.5C 74.1667,83.5 71.8333,83.5 69.5,83.5C 69.5,73.8333 69.5,64.1667 69.5,54.5C 61.1667,54.5 52.8333,54.5 44.5,54.5C 44.2229,57.4475 44.5562,60.2809 45.5,63C 49.8206,63.499 54.1539,63.6657 58.5,63.5C 58.5,65.1667 58.5,66.8333 58.5,68.5C 55.1667,68.5 51.8333,68.5 48.5,68.5C 47.5,68.5 46.5,68.5 45.5,68.5C 44.5206,71.6248 44.1872,74.9581 44.5,78.5C 49.8333,78.5 55.1667,78.5 60.5,78.5C 60.5,80.1667 60.5,81.8333 60.5,83.5C 59.5,83.5 58.5,83.5 57.5,83.5C 56.5,83.5 55.5,83.5 54.5,83.5C 51.8333,83.5 49.1667,83.5 46.5,83.5C 43.8333,83.5 41.1667,83.5 38.5,83.5C 38.5,72.1667 38.5,60.8333 38.5,49.5C 45.3543,49.824 52.021,49.4907 58.5,48.5 Z"/></g>
<g><path style="opacity:1" fill="#f3421e" d="M 13.5,35.5 C 16.9464,36.6118 18.9464,38.9452 19.5,42.5C 16.1887,46.1466 12.8554,49.8133 9.5,53.5C 12.4281,54.4841 15.4281,54.8174 18.5,54.5C 18.2895,63.2 18.6228,71.8667 19.5,80.5C 14.9818,73.7975 9.81514,67.4641 4,61.5C 3.76791,62.7375 3.26791,63.7375 2.5,64.5C 4.00267,53.9892 7.66934,44.3226 13.5,35.5 Z"/></g>
<g><path style="opacity:1" fill="#f6a341" d="M 69.5,83.5 C 68.8339,80.3107 68.1672,76.9773 67.5,73.5C 64.8494,71.3501 62.3494,69.0168 60,66.5C 59.7216,67.4158 59.2216,68.0825 58.5,68.5C 58.5,66.8333 58.5,65.1667 58.5,63.5C 54.1539,63.6657 49.8206,63.499 45.5,63C 44.5562,60.2809 44.2229,57.4475 44.5,54.5C 52.8333,54.5 61.1667,54.5 69.5,54.5C 69.5,64.1667 69.5,73.8333 69.5,83.5 Z"/></g>
<g><path style="opacity:1" fill="#fec887" d="M 103.5,58.5 C 105.948,59.4731 108.615,59.8064 111.5,59.5C 111.343,58.1266 111.51,56.7932 112,55.5C 115.324,57.3296 118.824,58.6629 122.5,59.5C 122.5,64.5 122.5,69.5 122.5,74.5C 119.06,73.9094 115.727,72.9094 112.5,71.5C 111.83,73.2914 111.163,74.9581 110.5,76.5C 111.029,72.8084 110.029,69.6417 107.5,67C 102.471,64.8792 97.638,62.3792 93,59.5C 92.5665,55.9323 94.2332,54.2656 98,54.5C 101.133,54.1419 102.967,55.4752 103.5,58.5 Z"/></g>
<g><path style="opacity:1" fill="#fadbb7" d="M 143.5,44.5 C 145.61,48.5021 146.943,52.8354 147.5,57.5C 147.5,58.5 147.5,59.5 147.5,60.5C 141.833,59.8333 136.167,59.1667 130.5,58.5C 130.5,62.5 130.5,66.5 130.5,70.5C 130.795,72.7354 130.461,74.7354 129.5,76.5C 129.5,66.8333 129.5,57.1667 129.5,47.5C 130.434,46.4324 130.768,45.099 130.5,43.5C 134.203,43.9071 137.87,44.5737 141.5,45.5C 142.416,45.4573 143.083,45.1239 143.5,44.5 Z"/></g>
<g><path style="opacity:1" fill="#fab35d" d="M 84.5,74.5 C 82.1162,72.1153 79.4495,70.1153 76.5,68.5C 76.5,63.8333 76.5,59.1667 76.5,54.5C 79.5,54.5 82.5,54.5 85.5,54.5C 85.2114,57.6492 85.7114,60.6492 87,63.5C 91.8059,66.8199 96.9725,69.4866 102.5,71.5C 103.91,73.9492 103.576,76.1159 101.5,78C 95.8935,79.9286 92.5601,78.0953 91.5,72.5C 88.6122,71.9898 86.2789,72.6565 84.5,74.5 Z"/></g>
<g><path style="opacity:0.996" fill="#f18f1b" d="M 27.5,15.5 C 28.404,16.209 28.7373,17.209 28.5,18.5C 27.027,20.3947 25.3603,22.0613 23.5,23.5C 19.8197,27.183 16.4864,31.183 13.5,35.5C 7.66934,44.3226 4.00267,53.9892 2.5,64.5C 1.0221,72.3737 1.35543,80.0404 3.5,87.5C 8.80695,116.437 25.4736,135.437 53.5,144.5C 55.9542,145.621 58.6209,146.454 61.5,147C 69.1594,147.5 76.8261,147.666 84.5,147.5C 90.9671,146.3 97.3004,144.633 103.5,142.5C 106.167,141.167 108.833,139.833 111.5,138.5C 114.709,136.735 117.709,134.735 120.5,132.5C 123.847,130.689 125.68,128.022 126,124.5C 122.796,121.631 119.963,118.465 117.5,115C 113.504,114.057 109.504,113.224 105.5,112.5C 98.4167,111.361 91.75,109.028 85.5,105.5C 74.1034,100.768 64.7701,93.4342 57.5,83.5C 58.5,83.5 59.5,83.5 60.5,83.5C 61.4614,81.7354 61.7947,79.7354 61.5,77.5C 58.5,77.5 55.5,77.5 52.5,77.5C 50.8946,74.6223 49.5612,71.6223 48.5,68.5C 51.8333,68.5 55.1667,68.5 58.5,68.5C 59.2216,68.0825 59.7216,67.4158 60,66.5C 62.3494,69.0168 64.8494,71.3501 67.5,73.5C 68.1672,76.9773 68.8339,80.3107 69.5,83.5C 71.8333,83.5 74.1667,83.5 76.5,83.5C 76.5,82.5 76.5,81.5 76.5,80.5C 87.8546,89.1764 100.521,95.1764 114.5,98.5C 115.06,100.801 115.56,103.134 116,105.5C 116.414,105.957 116.914,106.291 117.5,106.5C 119.955,104.703 122.622,103.37 125.5,102.5C 131.601,102.659 137.601,103.326 143.5,104.5C 132.204,129.308 113.204,144.308 86.5,149.5C 78.5,149.5 70.5,149.5 62.5,149.5C 28.5,141.5 7.5,120.5 -0.5,86.5C -0.5,78.5 -0.5,70.5 -0.5,62.5C 2.96812,43.3595 12.3015,27.6929 27.5,15.5 Z"/></g>
<g><path style="opacity:1" fill="#f3481d" d="M 31.5,56.5 C 33.2143,57.7384 35.2143,58.405 37.5,58.5C 37.1739,67.0168 37.5073,75.3501 38.5,83.5C 41.1667,83.5 43.8333,83.5 46.5,83.5C 46.7031,85.0443 47.3698,86.3777 48.5,87.5C 60.9371,101.923 73.2705,116.256 85.5,130.5C 82.682,132.072 79.682,133.406 76.5,134.5C 60.178,114.847 43.5114,95.5132 26.5,76.5C 25.5379,69.5878 25.2045,62.5878 25.5,55.5C 27.5,55.8333 29.5,56.1667 31.5,56.5 Z"/></g>
<g><path style="opacity:1" fill="#f35e1b" d="M 45.5,68.5 C 46.5,68.5 47.5,68.5 48.5,68.5C 49.5612,71.6223 50.8946,74.6223 52.5,77.5C 50.1667,77.5 47.8333,77.5 45.5,77.5C 45.5,74.5 45.5,71.5 45.5,68.5 Z"/></g>
<g><path style="opacity:1" fill="#fccc92" d="M 147.5,57.5 C 148.167,59.1667 148.833,60.8333 149.5,62.5C 149.5,64.8333 149.5,67.1667 149.5,69.5C 148.71,70.6085 148.21,71.9419 148,73.5C 142.199,72.4563 136.366,71.4563 130.5,70.5C 130.5,66.5 130.5,62.5 130.5,58.5C 136.167,59.1667 141.833,59.8333 147.5,60.5C 147.5,59.5 147.5,58.5 147.5,57.5 Z"/></g>
<g><path style="opacity:0.995" fill="#fec37b" d="M 149.5,69.5 C 149.5,72.8333 149.5,76.1667 149.5,79.5C 148.844,80.2778 148.011,80.9444 147,81.5C 141.194,80.6236 135.361,79.957 129.5,79.5C 129.5,78.5 129.5,77.5 129.5,76.5C 130.461,74.7354 130.795,72.7354 130.5,70.5C 136.366,71.4563 142.199,72.4563 148,73.5C 148.21,71.9419 148.71,70.6085 149.5,69.5 Z"/></g>
<g><path style="opacity:1" fill="#f32821" d="M 19.5,80.5 C 25.4133,112.025 43.58,132.692 74,142.5C 75.4397,141.852 76.9397,141.519 78.5,141.5C 81.5,142.5 83.5,144.5 84.5,147.5C 76.8261,147.666 69.1594,147.5 61.5,147C 58.6209,146.454 55.9542,145.621 53.5,144.5C 54.2389,144.631 54.9056,144.464 55.5,144C 38.3333,124.167 21.1667,104.333 4,84.5C 3.51722,85.448 3.35055,86.448 3.5,87.5C 1.35543,80.0404 1.0221,72.3737 2.5,64.5C 3.26791,63.7375 3.76791,62.7375 4,61.5C 9.81514,67.4641 14.9818,73.7975 19.5,80.5 Z"/></g>
<g><path style="opacity:1" fill="#fac499" d="M 45.5,68.5 C 45.5,71.5 45.5,74.5 45.5,77.5C 47.8333,77.5 50.1667,77.5 52.5,77.5C 55.5,77.5 58.5,77.5 61.5,77.5C 61.7947,79.7354 61.4614,81.7354 60.5,83.5C 60.5,81.8333 60.5,80.1667 60.5,78.5C 55.1667,78.5 49.8333,78.5 44.5,78.5C 44.1872,74.9581 44.5206,71.6248 45.5,68.5 Z"/></g>
<g><path style="opacity:1" fill="#fbb560" d="M 122.5,74.5 C 122.5,75.5 122.5,76.5 122.5,77.5C 122.728,81.8135 121.728,85.8135 119.5,89.5C 117.417,88.0413 115.25,86.7079 113,85.5C 112.517,86.448 112.351,87.448 112.5,88.5C 107.124,85.4759 101.457,83.8092 95.5,83.5C 98.5184,83.6646 101.518,83.498 104.5,83C 108.089,82.2458 110.089,80.0791 110.5,76.5C 111.163,74.9581 111.83,73.2914 112.5,71.5C 115.727,72.9094 119.06,73.9094 122.5,74.5 Z"/></g>
<g><path style="opacity:1" fill="#fbb35e" d="M 129.5,79.5 C 135.361,79.957 141.194,80.6236 147,81.5C 148.011,80.9444 148.844,80.2778 149.5,79.5C 149.5,81.8333 149.5,84.1667 149.5,86.5C 148.626,89.5349 147.626,92.5349 146.5,95.5C 142.19,95.3829 138.19,95.3829 134.5,95.5C 131.74,94.8076 129.073,93.8076 126.5,92.5C 127.883,88.2501 128.883,83.9168 129.5,79.5 Z"/></g>
<g><path style="opacity:1" fill="#f3541c" d="M 46.5,83.5 C 49.1667,83.5 51.8333,83.5 54.5,83.5C 63.7763,95.6118 73.6096,107.279 84,118.5C 86.4957,121.504 88.329,124.838 89.5,128.5C 88.8333,128.5 88.5,128.833 88.5,129.5C 87.609,130.11 86.609,130.443 85.5,130.5C 73.2705,116.256 60.9371,101.923 48.5,87.5C 47.3698,86.3777 46.7031,85.0443 46.5,83.5 Z"/></g>
<g><path style="opacity:1" fill="#f6a13b" d="M 76.5,68.5 C 79.4495,70.1153 82.1162,72.1153 84.5,74.5C 86.075,80.0764 89.7417,83.0764 95.5,83.5C 101.457,83.8092 107.124,85.4759 112.5,88.5C 113.04,91.8647 113.706,95.198 114.5,98.5C 100.521,95.1764 87.8546,89.1764 76.5,80.5C 76.5,76.5 76.5,72.5 76.5,68.5 Z"/></g>
<g><path style="opacity:1" fill="#f21520" d="M 53.5,144.5 C 25.4736,135.437 8.80695,116.437 3.5,87.5C 3.35055,86.448 3.51722,85.448 4,84.5C 21.1667,104.333 38.3333,124.167 55.5,144C 54.9056,144.464 54.2389,144.631 53.5,144.5 Z"/></g>
<g><path style="opacity:1" fill="#f33721" d="M 26.5,76.5 C 43.5114,95.5132 60.178,114.847 76.5,134.5C 74.1432,134.663 71.8098,134.497 69.5,134C 44.3061,122.971 29.9727,103.804 26.5,76.5 Z"/></g>
<g><path style="opacity:1" fill="#f3611b" d="M 54.5,83.5 C 55.5,83.5 56.5,83.5 57.5,83.5C 64.7701,93.4342 74.1034,100.768 85.5,105.5C 87.2038,109.688 90.0371,113.022 94,115.5C 94.9888,117.97 96.1554,120.303 97.5,122.5C 97.5,122.833 97.5,123.167 97.5,123.5C 94.8333,125.167 92.1667,126.833 89.5,128.5C 88.329,124.838 86.4957,121.504 84,118.5C 73.6096,107.279 63.7763,95.6118 54.5,83.5 Z"/></g>
<g><path style="opacity:0.998" fill="#f59d35" d="M 146.5,95.5 C 146.072,98.7846 145.072,101.785 143.5,104.5C 137.601,103.326 131.601,102.659 125.5,102.5C 128.681,100.408 131.681,98.075 134.5,95.5C 138.19,95.3829 142.19,95.3829 146.5,95.5 Z"/></g>
<g><path style="opacity:1" fill="#f28219" d="M 105.5,112.5 C 109.504,113.224 113.504,114.057 117.5,115C 119.963,118.465 122.796,121.631 126,124.5C 125.68,128.022 123.847,130.689 120.5,132.5C 120.649,131.448 120.483,130.448 120,129.5C 116.63,126.465 113.63,123.132 111,119.5C 110.667,119.833 110.333,120.167 110,120.5C 108.644,117.671 107.144,115.004 105.5,112.5 Z"/></g>
<g><path style="opacity:1" fill="#f2751c" d="M 85.5,105.5 C 91.75,109.028 98.4167,111.361 105.5,112.5C 107.144,115.004 108.644,117.671 110,120.5C 110.333,120.167 110.667,119.833 111,119.5C 113.63,123.132 116.63,126.465 120,129.5C 120.483,130.448 120.649,131.448 120.5,132.5C 117.709,134.735 114.709,136.735 111.5,138.5C 111.649,137.448 111.483,136.448 111,135.5C 107.581,133.585 105.081,130.918 103.5,127.5C 107.346,124.294 107.346,120.96 103.5,117.5C 101.481,119.19 99.4807,120.856 97.5,122.5C 96.1554,120.303 94.9888,117.97 94,115.5C 90.0371,113.022 87.2038,109.688 85.5,105.5 Z"/></g>
<g><path style="opacity:1" fill="#f69359" d="M 103.5,127.5 C 102.609,128.11 101.609,128.443 100.5,128.5C 100.25,126.326 99.2503,124.659 97.5,123.5C 97.5,123.167 97.5,122.833 97.5,122.5C 99.4807,120.856 101.481,119.19 103.5,117.5C 107.346,120.96 107.346,124.294 103.5,127.5 Z"/></g>
<g><path style="opacity:1" fill="#fab496" d="M 97.5,123.5 C 99.2503,124.659 100.25,126.326 100.5,128.5C 99.027,130.395 97.3603,132.061 95.5,133.5C 93.9382,133.733 92.6049,134.4 91.5,135.5C 91.3794,132.895 90.3794,130.895 88.5,129.5C 88.5,128.833 88.8333,128.5 89.5,128.5C 92.1667,126.833 94.8333,125.167 97.5,123.5 Z"/></g>
<g><path style="opacity:1" fill="#f3601b" d="M 103.5,127.5 C 105.081,130.918 107.581,133.585 111,135.5C 111.483,136.448 111.649,137.448 111.5,138.5C 108.833,139.833 106.167,141.167 103.5,142.5C 101.32,139.074 98.6533,136.074 95.5,133.5C 97.3603,132.061 99.027,130.395 100.5,128.5C 101.609,128.443 102.609,128.11 103.5,127.5 Z"/></g>
<g><path style="opacity:1" fill="#f34e1e" d="M 95.5,133.5 C 98.6533,136.074 101.32,139.074 103.5,142.5C 97.3004,144.633 90.9671,146.3 84.5,147.5C 83.5,144.5 81.5,142.5 78.5,141.5C 82.8887,139.808 87.222,137.808 91.5,135.5C 92.6049,134.4 93.9382,133.733 95.5,133.5 Z"/></g>
</svg>
