<?xml version="1.0" encoding="UTF-8"?>
<!DOCTYPE svg PUBLIC "-//W3C//DTD SVG 1.1//EN" "http://www.w3.org/Graphics/SVG/1.1/DTD/svg11.dtd">
<svg xmlns="http://www.w3.org/2000/svg" version="1.1" width="150px" height="150px" style="shape-rendering:geometricPrecision; text-rendering:geometricPrecision; image-rendering:optimizeQuality; fill-rule:evenodd; clip-rule:evenodd" xmlns:xlink="http://www.w3.org/1999/xlink">
<g><path style="opacity:1" fill="#95beb2" d="M 69.5,-0.5 C 75.1667,-0.5 80.8333,-0.5 86.5,-0.5C 87.5676,0.434475 88.901,0.767809 90.5,0.5C 93.9171,9.81223 99.2505,17.9789 106.5,25C 106.272,25.3988 105.938,25.5654 105.5,25.5C 94.9743,19.9854 84.4743,14.3187 74,8.5C 73.6174,9.05596 73.1174,9.38929 72.5,9.5C 72.6641,6.8127 72.4974,4.14603 72,1.5C 71.0053,0.934056 70.172,0.267389 69.5,-0.5 Z"/></g>
<g><path style="opacity:0.994" fill="#aeccc3" d="M 90.5,0.5 C 114.411,6.44351 131.744,20.4435 142.5,42.5C 141.735,42.9234 140.902,43.2568 140,43.5C 136.863,42.6394 133.697,41.9728 130.5,41.5C 130.5,45.8333 130.5,50.1667 130.5,54.5C 130.825,62.0191 130.492,69.3524 129.5,76.5C 129.832,63.8158 129.499,51.1492 128.5,38.5C 120.609,34.3925 112.942,30.0591 105.5,25.5C 105.938,25.5654 106.272,25.3988 106.5,25C 99.2505,17.9789 93.9171,9.81223 90.5,0.5 Z"/></g>
<g><path style="opacity:1" fill="#4d927e" d="M 62.5,-0.5 C 64.8333,-0.5 67.1667,-0.5 69.5,-0.5C 70.172,0.267389 71.0053,0.934056 72,1.5C 72.4974,4.14603 72.6641,6.8127 72.5,9.5C 70.1667,10.8333 67.8333,12.1667 65.5,13.5C 61.8333,15.5 58.1667,17.5 54.5,19.5C 52.5545,14.3281 51.2211,8.99478 50.5,3.5C 54.4086,1.85706 58.4086,0.523724 62.5,-0.5 Z"/></g>
<g><path style="opacity:1" fill="#377468" d="M 50.5,3.5 C 51.2211,8.99478 52.5545,14.3281 54.5,19.5C 53.2905,19.9321 52.2905,20.5987 51.5,21.5C 49.9382,21.7329 48.6049,22.3995 47.5,23.5C 45.6306,17.8919 43.9639,12.2252 42.5,6.5C 44.7916,4.73292 47.4582,3.73292 50.5,3.5 Z"/></g>
<g><path style="opacity:1" fill="#2f625e" d="M 42.5,6.5 C 43.9639,12.2252 45.6306,17.8919 47.5,23.5C 45.9505,24.4408 44.2838,25.1075 42.5,25.5C 38.4569,21.4041 36.1236,16.4041 35.5,10.5C 37.3356,8.41203 39.6689,7.0787 42.5,6.5 Z"/></g>
<g><path style="opacity:1" fill="#fafbfb" d="M 105.5,25.5 C 112.942,30.0591 120.609,34.3925 128.5,38.5C 129.499,51.1492 129.832,63.8158 129.5,76.5C 129.5,77.5 129.5,78.5 129.5,79.5C 128.883,83.9168 127.883,88.2501 126.5,92.5C 128.304,93.7681 130.304,94.4348 132.5,94.5C 133.289,94.7828 133.956,95.2828 134.5,96C 131.433,98.1882 128.433,100.355 125.5,102.5C 122.622,103.37 119.955,104.703 117.5,106.5C 116.478,106.145 115.811,105.478 115.5,104.5C 115.675,102.379 115.341,100.379 114.5,98.5C 114.149,95.0968 113.482,91.7635 112.5,88.5C 112.351,87.448 112.517,86.448 113,85.5C 115.034,87.0316 117.201,88.3649 119.5,89.5C 121.171,87.4902 121.838,85.1569 121.5,82.5C 122.341,80.6208 122.675,78.6208 122.5,76.5C 123.824,65.6596 123.824,54.6596 122.5,43.5C 113.139,38.1548 103.806,32.8215 94.5,27.5C 88.1938,24.0122 81.8605,20.5122 75.5,17C 73.3049,16.5906 71.3049,17.0906 69.5,18.5C 67.0029,17.8707 65.6696,16.204 65.5,13.5C 67.8333,12.1667 70.1667,10.8333 72.5,9.5C 73.1174,9.38929 73.6174,9.05596 74,8.5C 84.4743,14.3187 94.9743,19.9854 105.5,25.5 Z"/></g>
<g><path style="opacity:1" fill="#b7d2ca" d="M 65.5,13.5 C 65.6696,16.204 67.0029,17.8707 69.5,18.5C 69.5,18.8333 69.5,19.1667 69.5,19.5C 64.9098,21.4394 60.5765,23.7728 56.5,26.5C 56.1667,26.5 55.8333,26.5 55.5,26.5C 53.0029,25.8707 51.6696,24.204 51.5,21.5C 52.2905,20.5987 53.2905,19.9321 54.5,19.5C 58.1667,17.5 61.8333,15.5 65.5,13.5 Z"/></g>
<g><path style="opacity:1" fill="#4f9580" d="M 69.5,19.5 C 74.7005,26.5574 80.2005,33.5574 86,40.5C 89.3329,42.6671 92.1663,45.3338 94.5,48.5C 92.2163,48.9752 90.2163,49.9752 88.5,51.5C 87.596,50.791 87.2627,49.791 87.5,48.5C 82.8333,48.5 78.1667,48.5 73.5,48.5C 68.1068,41.9309 63.2735,34.9309 59,27.5C 58.3292,26.7476 57.4959,26.4142 56.5,26.5C 60.5765,23.7728 64.9098,21.4394 69.5,19.5 Z"/></g>
<g><path style="opacity:1" fill="#72aa99" d="M 94.5,27.5 C 101.7,36.3351 110.7,43.0017 121.5,47.5C 122.491,51.4454 122.824,55.4454 122.5,59.5C 118.824,58.6629 115.324,57.3296 112,55.5C 111.51,56.7932 111.343,58.1266 111.5,59.5C 108.615,59.8064 105.948,59.4731 103.5,58.5C 105.833,58.5 108.167,58.5 110.5,58.5C 110.342,54.8285 108.675,51.9951 105.5,50C 101.94,48.7633 98.2733,48.2633 94.5,48.5C 92.1663,45.3338 89.3329,42.6671 86,40.5C 80.2005,33.5574 74.7005,26.5574 69.5,19.5C 69.5,19.1667 69.5,18.8333 69.5,18.5C 71.3049,17.0906 73.3049,16.5906 75.5,17C 81.8605,20.5122 88.1938,24.0122 94.5,27.5 Z"/></g>
<g><path style="opacity:1" fill="#688887" d="M 51.5,21.5 C 51.6696,24.204 53.0029,25.8707 55.5,26.5C 54.1667,27.5 52.8333,28.5 51.5,29.5C 49.5659,30.1103 47.8993,31.1103 46.5,32.5C 44.847,32.6596 43.5137,33.3263 42.5,34.5C 37.4381,31.4126 37.4381,28.4126 42.5,25.5C 44.2838,25.1075 45.9505,24.4408 47.5,23.5C 48.6049,22.3995 49.9382,21.7329 51.5,21.5 Z"/></g>
<g><path style="opacity:1" fill="#5a2139" d="M 18.5,29.5 C 25.9427,35.6038 32.2761,42.6038 37.5,50.5C 37.5,54.1667 37.5,57.8333 37.5,61.5C 35.4752,59.8036 33.4752,58.137 31.5,56.5C 33.2252,56.1575 33.7252,55.1575 33,53.5C 30.1667,48.5 27.3333,43.5 24.5,38.5C 22.8144,39.8569 21.1477,41.1902 19.5,42.5C 18.588,40.4048 17.4213,38.4048 16,36.5C 15.3292,35.7476 14.4959,35.4142 13.5,35.5C 15.177,33.4602 16.8437,31.4602 18.5,29.5 Z"/></g>
<g><path style="opacity:1" fill="#3b4b53" d="M 35.5,10.5 C 36.1236,16.4041 38.4569,21.4041 42.5,25.5C 37.4381,28.4126 37.4381,31.4126 42.5,34.5C 42.5,35.8333 42.5,37.1667 42.5,38.5C 40.8516,37.2228 39.0183,36.2228 37,35.5C 35.815,30.0793 33.6483,24.746 30.5,19.5C 30.1667,19.1667 29.8333,18.8333 29.5,18.5C 28.4822,19.1925 27.4822,19.8592 26.5,20.5C 25.8902,19.609 25.5569,18.609 25.5,17.5C 28.2749,14.3954 31.6082,12.0621 35.5,10.5 Z"/></g>
<g><path style="opacity:1" fill="#38786b" d="M 55.5,26.5 C 55.8333,26.5 56.1667,26.5 56.5,26.5C 57.4959,26.4142 58.3292,26.7476 59,27.5C 63.2735,34.9309 68.1068,41.9309 73.5,48.5C 70.5,48.5 67.5,48.5 64.5,48.5C 59.9067,42.3031 55.5734,35.9697 51.5,29.5C 52.8333,28.5 54.1667,27.5 55.5,26.5 Z"/></g>
<g><path style="opacity:1" fill="#8fbaae" d="M 94.5,27.5 C 103.806,32.8215 113.139,38.1548 122.5,43.5C 123.824,54.6596 123.824,65.6596 122.5,76.5C 122.5,70.8333 122.5,65.1667 122.5,59.5C 122.824,55.4454 122.491,51.4454 121.5,47.5C 110.7,43.0017 101.7,36.3351 94.5,27.5 Z"/></g>
<g><path style="opacity:1" fill="#306761" d="M 51.5,29.5 C 55.5734,35.9697 59.9067,42.3031 64.5,48.5C 63.5,48.5 62.5,48.5 61.5,48.5C 60.5,48.5 59.5,48.5 58.5,48.5C 57.8333,48.5 57.1667,48.5 56.5,48.5C 53.5547,42.8957 50.2214,37.5624 46.5,32.5C 47.8993,31.1103 49.5659,30.1103 51.5,29.5 Z"/></g>
<g><path style="opacity:1" fill="#433444" d="M 42.5,38.5 C 42.3424,41.9023 42.6758,45.2356 43.5,48.5C 42.8333,48.5 42.1667,48.5 41.5,48.5C 35.8533,40.1933 29.8533,32.1933 23.5,24.5C 24.0256,22.7697 25.0256,21.4363 26.5,20.5C 27.4822,19.8592 28.4822,19.1925 29.5,18.5C 29.8333,18.8333 30.1667,19.1667 30.5,19.5C 33.6483,24.746 35.815,30.0793 37,35.5C 39.0183,36.2228 40.8516,37.2228 42.5,38.5 Z"/></g>
<g><path style="opacity:1" fill="#4a273c" d="M 23.5,24.5 C 29.8533,32.1933 35.8533,40.1933 41.5,48.5C 39.5168,48.1568 38.1834,48.8235 37.5,50.5C 32.2761,42.6038 25.9427,35.6038 18.5,29.5C 19.8818,27.4514 21.5484,25.7847 23.5,24.5 Z"/></g>
<g><path style="opacity:1" fill="#285356" d="M 46.5,32.5 C 50.2214,37.5624 53.5547,42.8957 56.5,48.5C 52.1667,48.5 47.8333,48.5 43.5,48.5C 42.6758,45.2356 42.3424,41.9023 42.5,38.5C 42.5,37.1667 42.5,35.8333 42.5,34.5C 43.5137,33.3263 44.847,32.6596 46.5,32.5 Z"/></g>
<g><path style="opacity:1" fill="#fbf5f6" d="M 31.5,56.5 C 29.5,56.1667 27.5,55.8333 25.5,55.5C 25.5,57.8333 25.5,60.1667 25.5,62.5C 25.1805,67.3633 25.5139,72.03 26.5,76.5C 26.1984,79.0593 26.5318,81.3926 27.5,83.5C 32.5642,106.651 45.8976,122.985 67.5,132.5C 70.1676,134.837 73.1676,135.504 76.5,134.5C 79.1716,133.499 81.8382,132.499 84.5,131.5C 87.7967,131.632 89.4633,133.298 89.5,136.5C 87.4261,137.514 85.4261,138.514 83.5,139.5C 80.6027,140.129 77.936,141.129 75.5,142.5C 43.7079,133.296 25.0412,112.296 19.5,79.5C 18.5604,71.2212 18.2271,62.8878 18.5,54.5C 15.4281,54.8174 12.4281,54.4841 9.5,53.5C 10.1925,52.4822 10.8592,51.4822 11.5,50.5C 14.5,48.1667 17.1667,45.5 19.5,42.5C 21.1477,41.1902 22.8144,39.8569 24.5,38.5C 27.3333,43.5 30.1667,48.5 33,53.5C 33.7252,55.1575 33.2252,56.1575 31.5,56.5 Z"/></g>
<g><path style="opacity:1" fill="#741a34" d="M 13.5,35.5 C 14.4959,35.4142 15.3292,35.7476 16,36.5C 17.4213,38.4048 18.588,40.4048 19.5,42.5C 17.1667,45.5 14.5,48.1667 11.5,50.5C 10.7377,48.7376 9.40435,47.7376 7.5,47.5C 8.97506,43.2165 10.9751,39.2165 13.5,35.5 Z"/></g>
<g><path style="opacity:1" fill="#bbd3cc" d="M 61.5,48.5 C 62.5,48.5 63.5,48.5 64.5,48.5C 67.5,48.5 70.5,48.5 73.5,48.5C 78.1667,48.5 82.8333,48.5 87.5,48.5C 87.2627,49.791 87.596,50.791 88.5,51.5C 88.1667,52.5 87.5,53.1667 86.5,53.5C 86.5,52.1667 86.5,50.8333 86.5,49.5C 77.9832,49.8261 69.6499,49.4927 61.5,48.5 Z"/></g>
<g><path style="opacity:1" fill="#f7f9f9" d="M 94.5,48.5 C 98.2733,48.2633 101.94,48.7633 105.5,50C 108.675,51.9951 110.342,54.8285 110.5,58.5C 108.167,58.5 105.833,58.5 103.5,58.5C 102.967,55.4752 101.133,54.1419 98,54.5C 92.7191,54.7404 91.5524,56.9071 94.5,61C 99.7776,62.751 104.611,65.251 109,68.5C 110.747,72.1251 110.914,75.7917 109.5,79.5C 108.251,81.1361 106.584,82.3028 104.5,83C 101.518,83.498 98.5184,83.6646 95.5,83.5C 89.7417,83.0764 86.075,80.0764 84.5,74.5C 86.2789,72.6565 88.6122,71.9898 91.5,72.5C 92.5601,78.0953 95.8935,79.9286 101.5,78C 103.576,76.1159 103.91,73.9492 102.5,71.5C 96.9725,69.4866 91.8059,66.8199 87,63.5C 85.8512,60.6074 85.3512,57.6074 85.5,54.5C 82.5,54.5 79.5,54.5 76.5,54.5C 79.6248,53.5206 82.9581,53.1872 86.5,53.5C 87.5,53.1667 88.1667,52.5 88.5,51.5C 90.2163,49.9752 92.2163,48.9752 94.5,48.5 Z"/></g>
<g><path style="opacity:1" fill="#cec4c9" d="M 41.5,48.5 C 42.1667,48.5 42.8333,48.5 43.5,48.5C 47.8333,48.5 52.1667,48.5 56.5,48.5C 57.1667,48.5 57.8333,48.5 58.5,48.5C 52.021,49.4907 45.3543,49.824 38.5,49.5C 38.5,60.8333 38.5,72.1667 38.5,83.5C 37.5269,81.0521 37.1936,78.3854 37.5,75.5C 37.5,70.8333 37.5,66.1667 37.5,61.5C 37.5,57.8333 37.5,54.1667 37.5,50.5C 38.1834,48.8235 39.5168,48.1568 41.5,48.5 Z"/></g>
<g><path style="opacity:1" fill="#fcfcfc" d="M 58.5,48.5 C 59.5,48.5 60.5,48.5 61.5,48.5C 69.6499,49.4927 77.9832,49.8261 86.5,49.5C 86.5,50.8333 86.5,52.1667 86.5,53.5C 82.9581,53.1872 79.6248,53.5206 76.5,54.5C 76.5,59.1667 76.5,63.8333 76.5,68.5C 76.5,71.8333 76.5,75.1667 76.5,78.5C 76.5,80.1667 76.5,81.8333 76.5,83.5C 75.5,83.5 74.5,83.5 73.5,83.5C 72.1667,83.5 70.8333,83.5 69.5,83.5C 69.5,73.8333 69.5,64.1667 69.5,54.5C 66.1667,54.5 62.8333,54.5 59.5,54.5C 54.8333,54.5 50.1667,54.5 45.5,54.5C 44.5233,57.2869 44.19,60.2869 44.5,63.5C 49.1667,63.5 53.8333,63.5 58.5,63.5C 58.5,65.1667 58.5,66.8333 58.5,68.5C 55.1667,68.5 51.8333,68.5 48.5,68.5C 47.5,68.5 46.5,68.5 45.5,68.5C 44.5206,71.6248 44.1872,74.9581 44.5,78.5C 49.8333,78.5 55.1667,78.5 60.5,78.5C 60.5,80.1667 60.5,81.8333 60.5,83.5C 59.5,83.5 58.5,83.5 57.5,83.5C 54.8333,83.5 52.1667,83.5 49.5,83.5C 47.8333,83.5 46.1667,83.5 44.5,83.5C 42.5,83.5 40.5,83.5 38.5,83.5C 38.5,72.1667 38.5,60.8333 38.5,49.5C 45.3543,49.824 52.021,49.4907 58.5,48.5 Z"/></g>
<g><path style="opacity:1" fill="#84b3a5" d="M 142.5,42.5 C 145.14,47.085 146.806,52.085 147.5,57.5C 141.78,56.8277 136.113,55.8277 130.5,54.5C 130.5,50.1667 130.5,45.8333 130.5,41.5C 133.697,41.9728 136.863,42.6394 140,43.5C 140.902,43.2568 141.735,42.9234 142.5,42.5 Z"/></g>
<g><path style="opacity:1" fill="#244950" d="M 45.5,54.5 C 50.1667,54.5 54.8333,54.5 59.5,54.5C 61.7476,58.2543 64.581,61.5876 68,64.5C 68.4983,67.8168 68.665,71.1501 68.5,74.5C 65.2496,72.7567 62.4162,70.4234 60,67.5C 59.6174,68.056 59.1174,68.3893 58.5,68.5C 58.5,66.8333 58.5,65.1667 58.5,63.5C 54.3656,62.5151 50.0323,62.1818 45.5,62.5C 45.5,59.8333 45.5,57.1667 45.5,54.5 Z"/></g>
<g><path style="opacity:1" fill="#3f6b69" d="M 59.5,54.5 C 62.8333,54.5 66.1667,54.5 69.5,54.5C 69.5,64.1667 69.5,73.8333 69.5,83.5C 68.5233,80.7131 68.19,77.7131 68.5,74.5C 68.665,71.1501 68.4983,67.8168 68,64.5C 64.581,61.5876 61.7476,58.2543 59.5,54.5 Z"/></g>
<g><path style="opacity:1" fill="#39756a" d="M 76.5,54.5 C 79.5,54.5 82.5,54.5 85.5,54.5C 85.3512,57.6074 85.8512,60.6074 87,63.5C 91.8059,66.8199 96.9725,69.4866 102.5,71.5C 103.91,73.9492 103.576,76.1159 101.5,78C 95.8935,79.9286 92.5601,78.0953 91.5,72.5C 88.6122,71.9898 86.2789,72.6565 84.5,74.5C 81.8333,72.5 79.1667,70.5 76.5,68.5C 76.5,63.8333 76.5,59.1667 76.5,54.5 Z"/></g>
<g><path style="opacity:1" fill="#4b917d" d="M 103.5,58.5 C 105.948,59.4731 108.615,59.8064 111.5,59.5C 111.343,58.1266 111.51,56.7932 112,55.5C 115.324,57.3296 118.824,58.6629 122.5,59.5C 122.5,65.1667 122.5,70.8333 122.5,76.5C 122.675,78.6208 122.341,80.6208 121.5,82.5C 117.603,81.0901 113.603,80.0901 109.5,79.5C 110.914,75.7917 110.747,72.1251 109,68.5C 104.611,65.251 99.7776,62.751 94.5,61C 91.5524,56.9071 92.7191,54.7404 98,54.5C 101.133,54.1419 102.967,55.4752 103.5,58.5 Z"/></g>
<g><path style="opacity:1" fill="#9a132f" d="M 7.5,47.5 C 9.40435,47.7376 10.7377,48.7376 11.5,50.5C 10.8592,51.4822 10.1925,52.4822 9.5,53.5C 12.4281,54.4841 15.4281,54.8174 18.5,54.5C 18.2271,62.8878 18.5604,71.2212 19.5,79.5C 14.1992,74.029 9.03253,68.3623 4,62.5C 3.76791,63.7375 3.26791,64.7375 2.5,65.5C 3.2375,59.2138 4.90416,53.2138 7.5,47.5 Z"/></g>
<g><path style="opacity:1" fill="#731732" d="M 31.5,56.5 C 33.4752,58.137 35.4752,59.8036 37.5,61.5C 37.5,66.1667 37.5,70.8333 37.5,75.5C 33.5,71.1667 29.5,66.8333 25.5,62.5C 25.5,60.1667 25.5,57.8333 25.5,55.5C 27.5,55.8333 29.5,56.1667 31.5,56.5 Z"/></g>
<g><path style="opacity:1" fill="#939ba2" d="M 45.5,54.5 C 45.5,57.1667 45.5,59.8333 45.5,62.5C 50.0323,62.1818 54.3656,62.5151 58.5,63.5C 53.8333,63.5 49.1667,63.5 44.5,63.5C 44.19,60.2869 44.5233,57.2869 45.5,54.5 Z"/></g>
<g><path style="opacity:1" fill="#549883" d="M 130.5,54.5 C 136.113,55.8277 141.78,56.8277 147.5,57.5C 148.167,59.1667 148.833,60.8333 149.5,62.5C 149.5,68.1667 149.5,73.8333 149.5,79.5C 147.954,80.6358 146.121,81.3025 144,81.5C 139.134,80.9715 134.301,80.3048 129.5,79.5C 129.5,78.5 129.5,77.5 129.5,76.5C 130.492,69.3524 130.825,62.0191 130.5,54.5 Z"/></g>
<g><path style="opacity:1" fill="#881630" d="M 25.5,62.5 C 29.5,66.8333 33.5,71.1667 37.5,75.5C 37.1936,78.3854 37.5269,81.0521 38.5,83.5C 40.5,83.5 42.5,83.5 44.5,83.5C 57.09,99.76 70.4233,115.427 84.5,130.5C 84.5,130.833 84.5,131.167 84.5,131.5C 81.8382,132.499 79.1716,133.499 76.5,134.5C 60.6102,114.433 44.1102,94.7663 27,75.5C 26.6012,75.7284 26.4346,76.0618 26.5,76.5C 25.5139,72.03 25.1805,67.3633 25.5,62.5 Z"/></g>
<g><path style="opacity:1" fill="#621a33" d="M 45.5,68.5 C 46.5,68.5 47.5,68.5 48.5,68.5C 49.5612,71.6223 50.8946,74.6223 52.5,77.5C 50.1667,77.5 47.8333,77.5 45.5,77.5C 45.5,74.5 45.5,71.5 45.5,68.5 Z"/></g>
<g><path style="opacity:1" fill="#c1142d" d="M 19.5,79.5 C 25.0412,112.296 43.7079,133.296 75.5,142.5C 78.6905,142.687 80.6905,144.354 81.5,147.5C 74.825,147.666 68.1583,147.5 61.5,147C 58.6209,146.454 55.9542,145.621 53.5,144.5C 54.2389,144.631 54.9056,144.464 55.5,144C 38.3424,123.013 20.6757,102.513 2.5,82.5C 2.5,76.8333 2.5,71.1667 2.5,65.5C 3.26791,64.7375 3.76791,63.7375 4,62.5C 9.03253,68.3623 14.1992,74.029 19.5,79.5 Z"/></g>
<g><path style="opacity:1" fill="#b098a3" d="M 45.5,68.5 C 45.5,71.5 45.5,74.5 45.5,77.5C 47.8333,77.5 50.1667,77.5 52.5,77.5C 56.0122,76.9455 59.0122,77.6122 61.5,79.5C 61.7678,81.099 61.4345,82.4324 60.5,83.5C 60.5,81.8333 60.5,80.1667 60.5,78.5C 55.1667,78.5 49.8333,78.5 44.5,78.5C 44.1872,74.9581 44.5206,71.6248 45.5,68.5 Z"/></g>
<g><path style="opacity:1" fill="#1a3445" d="M 68.5,74.5 C 68.19,77.7131 68.5233,80.7131 69.5,83.5C 70.8333,83.5 72.1667,83.5 73.5,83.5C 86.0708,93.1188 100.071,100.119 115.5,104.5C 115.811,105.478 116.478,106.145 117.5,106.5C 119.955,104.703 122.622,103.37 125.5,102.5C 131.466,103.447 137.466,104.114 143.5,104.5C 142.674,107.485 141.341,110.151 139.5,112.5C 110.245,109.206 84.2446,98.2059 61.5,79.5C 59.0122,77.6122 56.0122,76.9455 52.5,77.5C 50.8946,74.6223 49.5612,71.6223 48.5,68.5C 51.8333,68.5 55.1667,68.5 58.5,68.5C 59.1174,68.3893 59.6174,68.056 60,67.5C 62.4162,70.4234 65.2496,72.7567 68.5,74.5 Z"/></g>
<g><path style="opacity:1" fill="#981730" d="M 76.5,134.5 C 73.1676,135.504 70.1676,134.837 67.5,132.5C 54.9571,115.614 41.6237,99.2802 27.5,83.5C 26.5318,81.3926 26.1984,79.0593 26.5,76.5C 26.4346,76.0618 26.6012,75.7284 27,75.5C 44.1102,94.7663 60.6102,114.433 76.5,134.5 Z"/></g>
<g><path style="opacity:1" fill="#2a5557" d="M 76.5,68.5 C 79.1667,70.5 81.8333,72.5 84.5,74.5C 86.075,80.0764 89.7417,83.0764 95.5,83.5C 101.364,84.1172 107.03,85.7838 112.5,88.5C 113.482,91.7635 114.149,95.0968 114.5,98.5C 110.776,95.5102 106.442,93.3436 101.5,92C 92.7936,87.9836 84.4603,83.4836 76.5,78.5C 76.5,75.1667 76.5,71.8333 76.5,68.5 Z"/></g>
<g><path style="opacity:1" fill="#3a6f68" d="M 109.5,79.5 C 113.603,80.0901 117.603,81.0901 121.5,82.5C 121.838,85.1569 121.171,87.4902 119.5,89.5C 117.201,88.3649 115.034,87.0316 113,85.5C 112.517,86.448 112.351,87.448 112.5,88.5C 107.03,85.7838 101.364,84.1172 95.5,83.5C 98.5184,83.6646 101.518,83.498 104.5,83C 106.584,82.3028 108.251,81.1361 109.5,79.5 Z"/></g>
<g><path style="opacity:1" fill="#771732" d="M 44.5,83.5 C 46.1667,83.5 47.8333,83.5 49.5,83.5C 59.7883,96.2933 70.2883,108.96 81,121.5C 83.4162,124.088 85.9162,126.422 88.5,128.5C 87.4863,129.674 86.153,130.34 84.5,130.5C 70.4233,115.427 57.09,99.76 44.5,83.5 Z"/></g>
<g><path style="opacity:1" fill="#661933" d="M 49.5,83.5 C 52.1667,83.5 54.8333,83.5 57.5,83.5C 61.8805,90.2142 67.5471,95.5476 74.5,99.5C 81.7939,107.471 88.7939,115.805 95.5,124.5C 93.3021,126.098 90.9687,127.431 88.5,128.5C 85.9162,126.422 83.4162,124.088 81,121.5C 70.2883,108.96 59.7883,96.2933 49.5,83.5 Z"/></g>
<g><path style="opacity:0.992" fill="#18243b" d="M 61.5,79.5 C 84.2446,98.2059 110.245,109.206 139.5,112.5C 130.951,127.049 118.951,137.716 103.5,144.5C 103.5,143.833 103.5,143.167 103.5,142.5C 106.167,141.167 108.833,139.833 111.5,138.5C 113.308,137.093 115.308,135.926 117.5,135C 119.329,133.887 120.163,132.387 120,130.5C 114.929,125.265 110.429,119.599 106.5,113.5C 101.422,111.983 96.4223,110.316 91.5,108.5C 85.3852,106.277 79.7185,103.277 74.5,99.5C 67.5471,95.5476 61.8805,90.2142 57.5,83.5C 58.5,83.5 59.5,83.5 60.5,83.5C 61.4345,82.4324 61.7678,81.099 61.5,79.5 Z"/></g>
<g><path style="opacity:1" fill="#1f404b" d="M 76.5,78.5 C 84.4603,83.4836 92.7936,87.9836 101.5,92C 106.442,93.3436 110.776,95.5102 114.5,98.5C 115.341,100.379 115.675,102.379 115.5,104.5C 100.071,100.119 86.0708,93.1188 73.5,83.5C 74.5,83.5 75.5,83.5 76.5,83.5C 76.5,81.8333 76.5,80.1667 76.5,78.5 Z"/></g>
<g><path style="opacity:1" fill="#a71530" d="M 27.5,83.5 C 41.6237,99.2802 54.9571,115.614 67.5,132.5C 45.8976,122.985 32.5642,106.651 27.5,83.5 Z"/></g>
<g><path style="opacity:1" fill="#356d65" d="M 129.5,79.5 C 134.301,80.3048 139.134,80.9715 144,81.5C 146.121,81.3025 147.954,80.6358 149.5,79.5C 149.5,81.8333 149.5,84.1667 149.5,86.5C 148.469,88.9608 147.802,91.6275 147.5,94.5C 142.327,93.7069 137.327,93.7069 132.5,94.5C 130.304,94.4348 128.304,93.7681 126.5,92.5C 127.883,88.2501 128.883,83.9168 129.5,79.5 Z"/></g>
<g><path style="opacity:1" fill="#da0b28" d="M 2.5,82.5 C 20.6757,102.513 38.3424,123.013 55.5,144C 54.9056,144.464 54.2389,144.631 53.5,144.5C 24.1065,134.1 7.10653,113.433 2.5,82.5 Z"/></g>
<g><path style="opacity:1" fill="#264d53" d="M 132.5,94.5 C 137.327,93.7069 142.327,93.7069 147.5,94.5C 146.343,97.984 145.01,101.317 143.5,104.5C 137.466,104.114 131.466,103.447 125.5,102.5C 128.433,100.355 131.433,98.1882 134.5,96C 133.956,95.2828 133.289,94.7828 132.5,94.5 Z"/></g>
<g><path style="opacity:1" fill="#521c35" d="M 74.5,99.5 C 79.7185,103.277 85.3852,106.277 91.5,108.5C 93.7485,112.754 96.4152,116.754 99.5,120.5C 98.8333,121.5 98.1667,122.5 97.5,123.5C 96.8333,123.833 96.1667,124.167 95.5,124.5C 88.7939,115.805 81.7939,107.471 74.5,99.5 Z"/></g>
<g><path style="opacity:1" fill="#7a5669" d="M 103.5,127.5 C 102.609,128.11 101.609,128.443 100.5,128.5C 100.25,126.326 99.2503,124.659 97.5,123.5C 98.1667,122.5 98.8333,121.5 99.5,120.5C 100.815,119.524 102.148,118.524 103.5,117.5C 107.346,120.96 107.346,124.294 103.5,127.5 Z"/></g>
<g><path style="opacity:1" fill="#3e1f38" d="M 91.5,108.5 C 96.4223,110.316 101.422,111.983 106.5,113.5C 110.429,119.599 114.929,125.265 120,130.5C 120.163,132.387 119.329,133.887 117.5,135C 115.308,135.926 113.308,137.093 111.5,138.5C 108.858,134.852 106.191,131.185 103.5,127.5C 107.346,124.294 107.346,120.96 103.5,117.5C 102.148,118.524 100.815,119.524 99.5,120.5C 96.4152,116.754 93.7485,112.754 91.5,108.5 Z"/></g>
<g><path style="opacity:1" fill="#c2a3ad" d="M 97.5,123.5 C 99.2503,124.659 100.25,126.326 100.5,128.5C 98.3529,130.737 96.0196,132.737 93.5,134.5C 92.1667,135.167 90.8333,135.833 89.5,136.5C 89.4633,133.298 87.7967,131.632 84.5,131.5C 84.5,131.167 84.5,130.833 84.5,130.5C 86.153,130.34 87.4863,129.674 88.5,128.5C 90.9687,127.431 93.3021,126.098 95.5,124.5C 96.1667,124.167 96.8333,123.833 97.5,123.5 Z"/></g>
<g><path style="opacity:1" fill="#5e1b35" d="M 103.5,127.5 C 106.191,131.185 108.858,134.852 111.5,138.5C 108.833,139.833 106.167,141.167 103.5,142.5C 102.833,142.5 102.167,142.5 101.5,142.5C 99.712,138.896 97.0453,136.23 93.5,134.5C 96.0196,132.737 98.3529,130.737 100.5,128.5C 101.609,128.443 102.609,128.11 103.5,127.5 Z"/></g>
<g><path style="opacity:1" fill="#781832" d="M 93.5,134.5 C 97.0453,136.23 99.712,138.896 101.5,142.5C 97.785,144.405 93.785,145.738 89.5,146.5C 88.9078,142.911 86.9078,140.578 83.5,139.5C 85.4261,138.514 87.4261,137.514 89.5,136.5C 90.8333,135.833 92.1667,135.167 93.5,134.5 Z"/></g>
<g><path style="opacity:1" fill="#921831" d="M 83.5,139.5 C 86.9078,140.578 88.9078,142.911 89.5,146.5C 86.8728,147.092 84.2062,147.425 81.5,147.5C 80.6905,144.354 78.6905,142.687 75.5,142.5C 77.936,141.129 80.6027,140.129 83.5,139.5 Z"/></g>
<g><path style="opacity:0.85" fill="#22243b" d="M 25.5,17.5 C 25.5569,18.609 25.8902,19.609 26.5,20.5C 25.0256,21.4363 24.0256,22.7697 23.5,24.5C 21.5484,25.7847 19.8818,27.4514 18.5,29.5C 16.8437,31.4602 15.177,33.4602 13.5,35.5C 10.9751,39.2165 8.97506,43.2165 7.5,47.5C 4.90416,53.2138 3.2375,59.2138 2.5,65.5C 2.5,71.1667 2.5,76.8333 2.5,82.5C 7.10653,113.433 24.1065,134.1 53.5,144.5C 55.9542,145.621 58.6209,146.454 61.5,147C 68.1583,147.5 74.825,147.666 81.5,147.5C 84.2062,147.425 86.8728,147.092 89.5,146.5C 93.785,145.738 97.785,144.405 101.5,142.5C 102.167,142.5 102.833,142.5 103.5,142.5C 103.5,143.167 103.5,143.833 103.5,144.5C 97.7745,146.344 92.1078,148.01 86.5,149.5C 78.5,149.5 70.5,149.5 62.5,149.5C 28.5,141.5 7.5,120.5 -0.5,86.5C -0.5,78.5 -0.5,70.5 -0.5,62.5C 2.73611,44.361 11.4028,29.361 25.5,17.5 Z"/></g>
</svg>
