<?xml version="1.0" encoding="UTF-8"?>
<!DOCTYPE svg PUBLIC "-//W3C//DTD SVG 1.1//EN" "http://www.w3.org/Graphics/SVG/1.1/DTD/svg11.dtd">
<svg xmlns="http://www.w3.org/2000/svg" version="1.1" width="150px" height="150px" style="shape-rendering:geometricPrecision; text-rendering:geometricPrecision; image-rendering:optimizeQuality; fill-rule:evenodd; clip-rule:evenodd" xmlns:xlink="http://www.w3.org/1999/xlink">
<g><path style="opacity:0.986" fill="#b2b9c3" d="M 62.5,-0.5 C 64.8333,-0.5 67.1667,-0.5 69.5,-0.5C 71.5895,2.07839 72.9228,5.07839 73.5,8.5C 70.8695,10.1526 68.2028,11.8193 65.5,13.5C 65.1667,13.5 64.8333,13.5 64.5,13.5C 63.9679,8.90483 62.6346,4.5715 60.5,0.5C 61.4916,0.67158 62.1583,0.338246 62.5,-0.5 Z"/></g>
<g><path style="opacity:1" fill="#dbdee2" d="M 69.5,-0.5 C 75.1667,-0.5 80.8333,-0.5 86.5,-0.5C 89.5349,0.37448 92.5349,1.37448 95.5,2.5C 100.389,16.5637 109.723,26.7303 123.5,33C 129.048,35.3015 134.715,37.1348 140.5,38.5C 142.071,40.6351 143.404,42.9684 144.5,45.5C 139.851,45.0707 135.351,44.0707 131,42.5C 130.501,47.4889 130.334,52.4889 130.5,57.5C 130.813,61.0419 130.479,64.3752 129.5,67.5C 129.666,58.1607 129.5,48.8274 129,39.5C 110.611,28.9382 92.1106,18.6049 73.5,8.5C 72.9228,5.07839 71.5895,2.07839 69.5,-0.5 Z"/></g>
<g><path style="opacity:1" fill="#9aa4b1" d="M 60.5,0.5 C 62.6346,4.5715 63.9679,8.90483 64.5,13.5C 61.7598,15.5595 58.7598,17.2262 55.5,18.5C 54.7821,13.6771 53.4488,9.01038 51.5,4.5C 51.8627,3.81654 52.1961,3.14987 52.5,2.5C 55.0667,1.52498 57.7334,0.858311 60.5,0.5 Z"/></g>
<g><path style="opacity:0.975" fill="#efeff0" d="M 95.5,2.5 C 115.84,7.84198 130.84,19.842 140.5,38.5C 134.715,37.1348 129.048,35.3015 123.5,33C 109.723,26.7303 100.389,16.5637 95.5,2.5 Z"/></g>
<g><path style="opacity:1" fill="#787f89" d="M 52.5,2.5 C 52.1961,3.14987 51.8627,3.81654 51.5,4.5C 53.4488,9.01038 54.7821,13.6771 55.5,18.5C 55.5,19.1667 55.1667,19.5 54.5,19.5C 50.7607,20.753 47.7607,22.9196 45.5,26C 45.8877,27.9514 46.8877,29.4514 48.5,30.5C 50.7388,29.2122 53.0721,28.2122 55.5,27.5C 59.8885,34.5879 64.5552,41.5879 69.5,48.5C 66.8333,48.5 64.1667,48.5 61.5,48.5C 60.8333,48.5 60.1667,48.5 59.5,48.5C 55.6663,42.8323 51.833,37.1656 48,31.5C 45.7735,32.3632 43.6068,33.3632 41.5,34.5C 39.7453,33.33 38.7453,31.6633 38.5,29.5C 40.7588,27.5451 42.7588,25.3784 44.5,23C 43.1745,17.8489 41.1745,13.0156 38.5,8.5C 42.6789,5.54523 47.3456,3.54523 52.5,2.5 Z"/></g>
<g><path style="opacity:1" fill="#fbfcfc" d="M 73.5,8.5 C 92.1106,18.6049 110.611,28.9382 129,39.5C 129.5,48.8274 129.666,58.1607 129.5,67.5C 129.5,70.8333 129.5,74.1667 129.5,77.5C 129.5,77.8333 129.5,78.1667 129.5,78.5C 129.089,82.2215 128.422,85.8881 127.5,89.5C 127.461,90.5832 127.127,91.5832 126.5,92.5C 129.198,93.6694 131.865,94.8361 134.5,96C 133.429,96.8518 132.429,97.6851 131.5,98.5C 127.882,100.137 124.549,102.137 121.5,104.5C 119.95,105.441 118.284,106.107 116.5,106.5C 115.92,102.959 114.92,99.6261 113.5,96.5C 113.425,93.7938 113.092,91.1272 112.5,88.5C 112.351,87.448 112.517,86.448 113,85.5C 115.034,87.0316 117.201,88.3649 119.5,89.5C 121.882,85.4986 122.882,81.1653 122.5,76.5C 123.824,65.6596 123.824,54.6596 122.5,43.5C 108.466,35.7767 94.466,28.1101 80.5,20.5C 77.5945,16.6715 74.2612,16.0048 70.5,18.5C 70.1667,18.5 69.8333,18.5 69.5,18.5C 66.5299,18.2542 65.1966,16.5876 65.5,13.5C 68.2028,11.8193 70.8695,10.1526 73.5,8.5 Z"/></g>
<g><path style="opacity:1" fill="#b7bdc6" d="M 80.5,20.5 C 90.0204,36.8479 103.687,48.3479 121.5,55C 122.423,57.0408 122.756,59.2075 122.5,61.5C 118.963,60.7333 115.629,59.3999 112.5,57.5C 109.584,59.6601 106.584,59.9934 103.5,58.5C 105.833,58.5 108.167,58.5 110.5,58.5C 109.017,51.0484 104.35,47.715 96.5,48.5C 86.4082,39.5892 77.7415,29.5892 70.5,18.5C 74.2612,16.0048 77.5945,16.6715 80.5,20.5 Z"/></g>
<g><path style="opacity:1" fill="#d5d9dd" d="M 64.5,13.5 C 64.8333,13.5 65.1667,13.5 65.5,13.5C 65.1966,16.5876 66.5299,18.2542 69.5,18.5C 67.5,19.8333 65.5,21.1667 63.5,22.5C 61.2872,23.7729 58.9538,24.7729 56.5,25.5C 54.9261,23.8984 54.2594,21.8984 54.5,19.5C 55.1667,19.5 55.5,19.1667 55.5,18.5C 58.7598,17.2262 61.7598,15.5595 64.5,13.5 Z"/></g>
<g><path style="opacity:0.876" fill="#25272a" d="M 26.5,16.5 C 26.6567,17.8734 26.49,19.2068 26,20.5C 24.6244,21.7051 23.4577,23.0384 22.5,24.5C 17.5385,29.0792 13.5385,34.4126 10.5,40.5C 7.18107,46.4554 4.84773,52.7888 3.5,59.5C 1.42743,66.7703 1.0941,74.1036 2.5,81.5C 6.18045,111.832 22.1804,132.499 50.5,143.5C 53.906,145.109 57.5727,146.276 61.5,147C 67.4908,147.499 73.4908,147.666 79.5,147.5C 83.1981,147.448 86.8648,147.114 90.5,146.5C 97.9104,144.898 104.91,142.231 111.5,138.5C 112.167,138.167 112.833,137.833 113.5,137.5C 113.5,137.833 113.5,138.167 113.5,138.5C 110.898,140.81 107.898,142.643 104.5,144C 98.4692,146.168 92.4692,148.001 86.5,149.5C 78.5,149.5 70.5,149.5 62.5,149.5C 28.5,141.5 7.5,120.5 -0.5,86.5C -0.5,78.5 -0.5,70.5 -0.5,62.5C 2.82801,43.8449 11.828,28.5115 26.5,16.5 Z"/></g>
<g><path style="opacity:1" fill="#a8acb2" d="M 54.5,19.5 C 54.2594,21.8984 54.9261,23.8984 56.5,25.5C 56.1667,26.1667 55.8333,26.8333 55.5,27.5C 53.0721,28.2122 50.7388,29.2122 48.5,30.5C 46.8877,29.4514 45.8877,27.9514 45.5,26C 47.7607,22.9196 50.7607,20.753 54.5,19.5 Z"/></g>
<g><path style="opacity:1" fill="#c6cbd2" d="M 80.5,20.5 C 94.466,28.1101 108.466,35.7767 122.5,43.5C 123.824,54.6596 123.824,65.6596 122.5,76.5C 122.5,75.8333 122.5,75.1667 122.5,74.5C 122.5,70.1667 122.5,65.8333 122.5,61.5C 122.756,59.2075 122.423,57.0408 121.5,55C 103.687,48.3479 90.0204,36.8479 80.5,20.5 Z"/></g>
<g><path style="opacity:1" fill="#939ca9" d="M 63.5,22.5 C 69.7181,31.7264 76.7181,40.3931 84.5,48.5C 79.5,48.5 74.5,48.5 69.5,48.5C 64.5552,41.5879 59.8885,34.5879 55.5,27.5C 55.8333,26.8333 56.1667,26.1667 56.5,25.5C 58.9538,24.7729 61.2872,23.7729 63.5,22.5 Z"/></g>
<g><path style="opacity:1" fill="#a6afba" d="M 69.5,18.5 C 69.8333,18.5 70.1667,18.5 70.5,18.5C 77.7415,29.5892 86.4082,39.5892 96.5,48.5C 93.4121,48.3773 90.7454,49.3773 88.5,51.5C 87.6143,50.675 87.281,49.675 87.5,48.5C 86.5,48.5 85.5,48.5 84.5,48.5C 76.7181,40.3931 69.7181,31.7264 63.5,22.5C 65.5,21.1667 67.5,19.8333 69.5,18.5 Z"/></g>
<g><path style="opacity:1" fill="#3c5262" d="M 32.5,12.5 C 33.2825,17.5222 34.2825,22.5222 35.5,27.5C 33.5283,32.2165 34.8616,35.5498 39.5,37.5C 41.6992,40.8895 43.0325,44.5561 43.5,48.5C 41.8333,48.5 40.1667,48.5 38.5,48.5C 36.0133,43.5266 33.5133,38.5266 31,33.5C 30.6667,35.8333 30.3333,38.1667 30,40.5C 28.9542,38.9095 27.7875,37.4095 26.5,36C 26.8333,35.6667 27.1667,35.3333 27.5,35C 26.5447,31.9006 25.7114,28.734 25,25.5C 24.3292,24.7476 23.4959,24.4142 22.5,24.5C 23.4577,23.0384 24.6244,21.7051 26,20.5C 26.49,19.2068 26.6567,17.8734 26.5,16.5C 28.1475,14.6736 30.1475,13.3403 32.5,12.5 Z"/></g>
<g><path style="opacity:1" fill="#f5f8fa" d="M 33.5,56.5 C 30.7938,56.4249 28.1272,56.0916 25.5,55.5C 25.5,61.1667 25.5,66.8333 25.5,72.5C 26.2221,78.2227 27.2221,83.8894 28.5,89.5C 34.8244,109.488 47.4911,123.821 66.5,132.5C 70.4005,135.492 74.4005,135.825 78.5,133.5C 81.3554,132.883 84.0221,131.883 86.5,130.5C 87.4959,130.414 88.3292,130.748 89,131.5C 89.4935,133.134 89.6602,134.801 89.5,136.5C 88.8333,136.833 88.1667,137.167 87.5,137.5C 83.5,139.167 79.5,140.833 75.5,142.5C 51.6483,136.48 34.815,122.147 25,99.5C 22.0182,91.2342 19.8515,82.9008 18.5,74.5C 18.5,67.8333 18.5,61.1667 18.5,54.5C 15.4281,54.8174 12.4281,54.4841 9.5,53.5C 12.189,50.4802 14.8556,47.4802 17.5,44.5C 19.8138,42.5227 22.1472,40.5227 24.5,38.5C 28.0594,44.2854 31.0594,50.2854 33.5,56.5 Z"/></g>
<g><path style="opacity:1" fill="#5c636a" d="M 38.5,8.5 C 41.1745,13.0156 43.1745,17.8489 44.5,23C 42.7588,25.3784 40.7588,27.5451 38.5,29.5C 38.7453,31.6633 39.7453,33.33 41.5,34.5C 43.6068,33.3632 45.7735,32.3632 48,31.5C 51.833,37.1656 55.6663,42.8323 59.5,48.5C 59.1667,48.5 58.8333,48.5 58.5,48.5C 53.5,48.5 48.5,48.5 43.5,48.5C 43.0325,44.5561 41.6992,40.8895 39.5,37.5C 34.8616,35.5498 33.5283,32.2165 35.5,27.5C 34.2825,22.5222 33.2825,17.5222 32.5,12.5C 34.1475,10.6736 36.1475,9.34026 38.5,8.5 Z"/></g>
<g><path style="opacity:1" fill="#2b4e67" d="M 22.5,24.5 C 23.4959,24.4142 24.3292,24.7476 25,25.5C 25.7114,28.734 26.5447,31.9006 27.5,35C 27.1667,35.3333 26.8333,35.6667 26.5,36C 27.7875,37.4095 28.9542,38.9095 30,40.5C 30.3333,38.1667 30.6667,35.8333 31,33.5C 33.5133,38.5266 36.0133,43.5266 38.5,48.5C 37.5318,50.6074 37.1984,52.9407 37.5,55.5C 36.0413,55.4326 34.7079,55.7659 33.5,56.5C 31.0594,50.2854 28.0594,44.2854 24.5,38.5C 22.1472,40.5227 19.8138,42.5227 17.5,44.5C 15.1667,43.1667 12.8333,41.8333 10.5,40.5C 13.5385,34.4126 17.5385,29.0792 22.5,24.5 Z"/></g>
<g><path style="opacity:1" fill="#f8f9f9" d="M 61.5,48.5 C 64.1667,48.5 66.8333,48.5 69.5,48.5C 74.5,48.5 79.5,48.5 84.5,48.5C 85.5,48.5 86.5,48.5 87.5,48.5C 87.281,49.675 87.6143,50.675 88.5,51.5C 90.7454,49.3773 93.4121,48.3773 96.5,48.5C 104.35,47.715 109.017,51.0484 110.5,58.5C 108.167,58.5 105.833,58.5 103.5,58.5C 102.967,55.4752 101.133,54.1419 98,54.5C 94.2332,54.2656 92.5665,55.9323 93,59.5C 97.638,62.3792 102.471,64.8792 107.5,67C 110.029,69.6417 111.029,72.8084 110.5,76.5C 107.546,82.807 102.546,85.1403 95.5,83.5C 89.7285,83.061 86.0618,80.061 84.5,74.5C 86.2789,72.6565 88.6122,71.9898 91.5,72.5C 92.5601,78.0953 95.8935,79.9286 101.5,78C 103.576,76.1159 103.91,73.9492 102.5,71.5C 96.9725,69.4866 91.8059,66.8199 87,63.5C 85.7114,60.6492 85.2114,57.6492 85.5,54.5C 82.5,54.5 79.5,54.5 76.5,54.5C 79.6248,53.5206 82.9581,53.1872 86.5,53.5C 86.5,52.1667 86.5,50.8333 86.5,49.5C 77.9832,49.8261 69.6499,49.4927 61.5,48.5 Z"/></g>
<g><path style="opacity:1" fill="#c8cfd6" d="M 38.5,48.5 C 40.1667,48.5 41.8333,48.5 43.5,48.5C 48.5,48.5 53.5,48.5 58.5,48.5C 52.021,49.4907 45.3543,49.824 38.5,49.5C 38.5,60.8333 38.5,72.1667 38.5,83.5C 37.5064,74.3483 37.1731,65.015 37.5,55.5C 37.1984,52.9407 37.5318,50.6074 38.5,48.5 Z"/></g>
<g><path style="opacity:1" fill="#fcfcfc" d="M 58.5,48.5 C 58.8333,48.5 59.1667,48.5 59.5,48.5C 60.1667,48.5 60.8333,48.5 61.5,48.5C 69.6499,49.4927 77.9832,49.8261 86.5,49.5C 86.5,50.8333 86.5,52.1667 86.5,53.5C 82.9581,53.1872 79.6248,53.5206 76.5,54.5C 76.5,59.5 76.5,64.5 76.5,69.5C 76.5,72.5 76.5,75.5 76.5,78.5C 76.9227,80.7812 76.256,82.4479 74.5,83.5C 72.8333,83.5 71.1667,83.5 69.5,83.5C 69.5,73.8333 69.5,64.1667 69.5,54.5C 65.5,54.5 61.5,54.5 57.5,54.5C 53.5,54.5 49.5,54.5 45.5,54.5C 44.5233,57.2869 44.19,60.2869 44.5,63.5C 49.1667,63.5 53.8333,63.5 58.5,63.5C 58.9227,65.7812 58.256,67.4479 56.5,68.5C 53.8333,68.5 51.1667,68.5 48.5,68.5C 47.5,68.5 46.5,68.5 45.5,68.5C 44.5206,71.6248 44.1872,74.9581 44.5,78.5C 49.8333,78.5 55.1667,78.5 60.5,78.5C 60.5,80.1667 60.5,81.8333 60.5,83.5C 59.5,83.5 58.5,83.5 57.5,83.5C 56.5,83.5 55.5,83.5 54.5,83.5C 52.8333,83.5 51.1667,83.5 49.5,83.5C 45.8333,83.5 42.1667,83.5 38.5,83.5C 38.5,72.1667 38.5,60.8333 38.5,49.5C 45.3543,49.824 52.021,49.4907 58.5,48.5 Z"/></g>
<g><path style="opacity:0.987" fill="#c6cbd1" d="M 144.5,45.5 C 146.24,50.3874 147.573,55.3874 148.5,60.5C 142.485,59.7633 136.485,58.7633 130.5,57.5C 130.334,52.4889 130.501,47.4889 131,42.5C 135.351,44.0707 139.851,45.0707 144.5,45.5 Z"/></g>
<g><path style="opacity:1" fill="#276c9b" d="M 10.5,40.5 C 12.8333,41.8333 15.1667,43.1667 17.5,44.5C 14.8556,47.4802 12.189,50.4802 9.5,53.5C 12.4281,54.4841 15.4281,54.8174 18.5,54.5C 18.5,61.1667 18.5,67.8333 18.5,74.5C 18.5654,74.9382 18.3988,75.2716 18,75.5C 13.834,69.453 9.00062,64.1197 3.5,59.5C 4.84773,52.7888 7.18107,46.4554 10.5,40.5 Z"/></g>
<g><path style="opacity:1" fill="#696e75" d="M 57.5,54.5 C 61.5,54.5 65.5,54.5 69.5,54.5C 69.5,64.1667 69.5,73.8333 69.5,83.5C 68.5655,82.4324 68.2322,81.099 68.5,79.5C 68.6657,75.1539 68.499,70.8206 68,66.5C 63.9184,62.9244 60.4184,58.9244 57.5,54.5 Z"/></g>
<g><path style="opacity:1" fill="#9a9fa5" d="M 45.5,54.5 C 45.5,57.1667 45.5,59.8333 45.5,62.5C 50.0323,62.1818 54.3656,62.5151 58.5,63.5C 53.8333,63.5 49.1667,63.5 44.5,63.5C 44.19,60.2869 44.5233,57.2869 45.5,54.5 Z"/></g>
<g><path style="opacity:1" fill="#494d51" d="M 45.5,54.5 C 49.5,54.5 53.5,54.5 57.5,54.5C 60.4184,58.9244 63.9184,62.9244 68,66.5C 68.499,70.8206 68.6657,75.1539 68.5,79.5C 63.247,77.249 59.247,73.5823 56.5,68.5C 58.256,67.4479 58.9227,65.7812 58.5,63.5C 54.3656,62.5151 50.0323,62.1818 45.5,62.5C 45.5,59.8333 45.5,57.1667 45.5,54.5 Z"/></g>
<g><path style="opacity:0.99" fill="#aeb6c0" d="M 130.5,57.5 C 136.485,58.7633 142.485,59.7633 148.5,60.5C 148.328,61.4916 148.662,62.1583 149.5,62.5C 149.5,64.8333 149.5,67.1667 149.5,69.5C 143.442,70.0449 137.442,70.0449 131.5,69.5C 130.832,72.3056 130.166,74.9723 129.5,77.5C 129.5,74.1667 129.5,70.8333 129.5,67.5C 130.479,64.3752 130.813,61.0419 130.5,57.5 Z"/></g>
<g><path style="opacity:1" fill="#9fa8b5" d="M 103.5,58.5 C 106.584,59.9934 109.584,59.6601 112.5,57.5C 115.629,59.3999 118.963,60.7333 122.5,61.5C 122.5,65.8333 122.5,70.1667 122.5,74.5C 118.915,73.4172 115.249,72.7506 111.5,72.5C 111.768,74.099 111.434,75.4324 110.5,76.5C 111.029,72.8084 110.029,69.6417 107.5,67C 102.471,64.8792 97.638,62.3792 93,59.5C 92.5665,55.9323 94.2332,54.2656 98,54.5C 101.133,54.1419 102.967,55.4752 103.5,58.5 Z"/></g>
<g><path style="opacity:1" fill="#266088" d="M 33.5,56.5 C 34.7079,55.7659 36.0413,55.4326 37.5,55.5C 37.1731,65.015 37.5064,74.3483 38.5,83.5C 42.1667,83.5 45.8333,83.5 49.5,83.5C 61.4897,99.4816 74.4897,114.482 88.5,128.5C 87.8333,129.167 87.1667,129.833 86.5,130.5C 84.0221,131.883 81.3554,132.883 78.5,133.5C 62.1681,114.332 46.0015,94.9988 30,75.5C 28.871,73.8588 27.371,72.8588 25.5,72.5C 25.5,66.8333 25.5,61.1667 25.5,55.5C 28.1272,56.0916 30.7938,56.4249 33.5,56.5 Z"/></g>
<g><path style="opacity:1" fill="#7e8690" d="M 76.5,54.5 C 79.5,54.5 82.5,54.5 85.5,54.5C 85.2114,57.6492 85.7114,60.6492 87,63.5C 91.8059,66.8199 96.9725,69.4866 102.5,71.5C 103.91,73.9492 103.576,76.1159 101.5,78C 95.8935,79.9286 92.5601,78.0953 91.5,72.5C 88.6122,71.9898 86.2789,72.6565 84.5,74.5C 81.8333,72.8333 79.1667,71.1667 76.5,69.5C 76.5,64.5 76.5,59.5 76.5,54.5 Z"/></g>
<g><path style="opacity:1" fill="#25516e" d="M 45.5,68.5 C 46.5,68.5 47.5,68.5 48.5,68.5C 49.5612,71.6223 50.8946,74.6223 52.5,77.5C 50.1667,77.5 47.8333,77.5 45.5,77.5C 45.5,74.5 45.5,71.5 45.5,68.5 Z"/></g>
<g><path style="opacity:1" fill="#99a2b0" d="M 149.5,69.5 C 149.5,72.8333 149.5,76.1667 149.5,79.5C 142.82,79.3877 136.153,79.0543 129.5,78.5C 129.5,78.1667 129.5,77.8333 129.5,77.5C 130.166,74.9723 130.832,72.3056 131.5,69.5C 137.442,70.0449 143.442,70.0449 149.5,69.5 Z"/></g>
<g><path style="opacity:1" fill="#9cacb8" d="M 45.5,68.5 C 45.5,71.5 45.5,74.5 45.5,77.5C 47.8333,77.5 50.1667,77.5 52.5,77.5C 55.5,77.5 58.5,77.5 61.5,77.5C 61.5,78.8333 61.5,80.1667 61.5,81.5C 61.6716,82.4916 61.3382,83.1583 60.5,83.5C 60.5,81.8333 60.5,80.1667 60.5,78.5C 55.1667,78.5 49.8333,78.5 44.5,78.5C 44.1872,74.9581 44.5206,71.6248 45.5,68.5 Z"/></g>
<g><path style="opacity:1" fill="#2b86c5" d="M 3.5,59.5 C 9.00062,64.1197 13.834,69.453 18,75.5C 18.3988,75.2716 18.5654,74.9382 18.5,74.5C 19.8515,82.9008 22.0182,91.2342 25,99.5C 34.815,122.147 51.6483,136.48 75.5,142.5C 76.8333,144.167 78.1667,145.833 79.5,147.5C 73.4908,147.666 67.4908,147.499 61.5,147C 57.5727,146.276 53.906,145.109 50.5,143.5C 51.3764,143.631 52.0431,143.298 52.5,142.5C 51.0521,140.333 49.8854,138 49,135.5C 33.6351,117.308 18.1351,99.3078 2.5,81.5C 1.0941,74.1036 1.42743,66.7703 3.5,59.5 Z"/></g>
<g><path style="opacity:1" fill="#2870a1" d="M 25.5,72.5 C 27.371,72.8588 28.871,73.8588 30,75.5C 46.0015,94.9988 62.1681,114.332 78.5,133.5C 74.4005,135.825 70.4005,135.492 66.5,132.5C 55.8781,119.373 45.0447,106.373 34,93.5C 32.549,91.5359 30.7157,90.2026 28.5,89.5C 27.2221,83.8894 26.2221,78.2227 25.5,72.5 Z"/></g>
<g><path style="opacity:1" fill="#7c838c" d="M 122.5,74.5 C 122.5,75.1667 122.5,75.8333 122.5,76.5C 122.882,81.1653 121.882,85.4986 119.5,89.5C 117.201,88.3649 115.034,87.0316 113,85.5C 112.517,86.448 112.351,87.448 112.5,88.5C 111.596,87.791 111.263,86.791 111.5,85.5C 105.991,85.1251 100.658,84.4584 95.5,83.5C 102.546,85.1403 107.546,82.807 110.5,76.5C 111.434,75.4324 111.768,74.099 111.5,72.5C 115.249,72.7506 118.915,73.4172 122.5,74.5 Z"/></g>
<g><path style="opacity:0.993" fill="#242526" d="M 61.5,81.5 C 84.0455,99.5736 109.712,110.24 138.5,113.5C 132.5,124.167 124.167,132.5 113.5,138.5C 113.5,138.167 113.5,137.833 113.5,137.5C 115.389,136.396 117.055,135.063 118.5,133.5C 121.407,132.266 123.741,130.266 125.5,127.5C 122.357,123.189 119.023,119.022 115.5,115C 110.428,114.045 105.428,112.878 100.5,111.5C 96.0651,110.446 91.7317,109.113 87.5,107.5C 79.4647,102.98 71.798,97.813 64.5,92C 61.8001,89.4119 59.4668,86.5786 57.5,83.5C 58.5,83.5 59.5,83.5 60.5,83.5C 61.3382,83.1583 61.6716,82.4916 61.5,81.5 Z"/></g>
<g><path style="opacity:1" fill="#333436" d="M 48.5,68.5 C 51.1667,68.5 53.8333,68.5 56.5,68.5C 59.247,73.5823 63.247,77.249 68.5,79.5C 68.2322,81.099 68.5655,82.4324 69.5,83.5C 71.1667,83.5 72.8333,83.5 74.5,83.5C 76.6467,85.4695 78.98,87.3029 81.5,89C 93.4135,94.9568 105.08,100.79 116.5,106.5C 118.284,106.107 119.95,105.441 121.5,104.5C 128.833,104.833 136.167,105.167 143.5,105.5C 142.32,108.54 140.653,111.206 138.5,113.5C 109.712,110.24 84.0455,99.5736 61.5,81.5C 61.5,80.1667 61.5,78.8333 61.5,77.5C 58.5,77.5 55.5,77.5 52.5,77.5C 50.8946,74.6223 49.5612,71.6223 48.5,68.5 Z"/></g>
<g><path style="opacity:1" fill="#818993" d="M 129.5,78.5 C 136.153,79.0543 142.82,79.3877 149.5,79.5C 149.5,81.8333 149.5,84.1667 149.5,86.5C 148.596,87.209 148.263,88.209 148.5,89.5C 141.374,89.3284 134.374,89.3284 127.5,89.5C 128.422,85.8881 129.089,82.2215 129.5,78.5 Z"/></g>
<g><path style="opacity:1" fill="#255677" d="M 49.5,83.5 C 51.1667,83.5 52.8333,83.5 54.5,83.5C 66.4775,95.9836 77.9775,108.984 89,122.5C 90.129,124.141 91.629,125.141 93.5,125.5C 92.1007,126.89 90.4341,127.89 88.5,128.5C 74.4897,114.482 61.4897,99.4816 49.5,83.5 Z"/></g>
<g><path style="opacity:1" fill="#565a60" d="M 76.5,69.5 C 79.1667,71.1667 81.8333,72.8333 84.5,74.5C 86.0618,80.061 89.7285,83.061 95.5,83.5C 100.658,84.4584 105.991,85.1251 111.5,85.5C 111.263,86.791 111.596,87.791 112.5,88.5C 113.092,91.1272 113.425,93.7938 113.5,96.5C 99.8052,92.8169 87.4718,86.8169 76.5,78.5C 76.5,75.5 76.5,72.5 76.5,69.5 Z"/></g>
<g><path style="opacity:1" fill="#2895de" d="M 2.5,81.5 C 18.1351,99.3078 33.6351,117.308 49,135.5C 49.8854,138 51.0521,140.333 52.5,142.5C 52.0431,143.298 51.3764,143.631 50.5,143.5C 22.1804,132.499 6.18045,111.832 2.5,81.5 Z"/></g>
<g><path style="opacity:1" fill="#2d7db4" d="M 28.5,89.5 C 30.7157,90.2026 32.549,91.5359 34,93.5C 45.0447,106.373 55.8781,119.373 66.5,132.5C 47.4911,123.821 34.8244,109.488 28.5,89.5 Z"/></g>
<g><path style="opacity:1" fill="#646a71" d="M 148.5,89.5 C 147.807,92.9415 146.807,96.2748 145.5,99.5C 140.93,98.559 136.263,98.2256 131.5,98.5C 132.429,97.6851 133.429,96.8518 134.5,96C 131.865,94.8361 129.198,93.6694 126.5,92.5C 127.127,91.5832 127.461,90.5832 127.5,89.5C 134.374,89.3284 141.374,89.3284 148.5,89.5 Z"/></g>
<g><path style="opacity:1" fill="#43464a" d="M 76.5,78.5 C 87.4718,86.8169 99.8052,92.8169 113.5,96.5C 114.92,99.6261 115.92,102.959 116.5,106.5C 105.08,100.79 93.4135,94.9568 81.5,89C 78.98,87.3029 76.6467,85.4695 74.5,83.5C 76.256,82.4479 76.9227,80.7812 76.5,78.5 Z"/></g>
<g><path style="opacity:1" fill="#254b65" d="M 54.5,83.5 C 55.5,83.5 56.5,83.5 57.5,83.5C 59.4668,86.5786 61.8001,89.4119 64.5,92C 71.798,97.813 79.4647,102.98 87.5,107.5C 90.8426,112.507 94.8426,116.84 99.5,120.5C 98.1394,122.527 96.4727,124.194 94.5,125.5C 94.1667,125.5 93.8333,125.5 93.5,125.5C 91.629,125.141 90.129,124.141 89,122.5C 77.9775,108.984 66.4775,95.9836 54.5,83.5 Z"/></g>
<g><path style="opacity:1" fill="#4a4d52" d="M 131.5,98.5 C 136.263,98.2256 140.93,98.559 145.5,99.5C 145.029,101.579 144.363,103.579 143.5,105.5C 136.167,105.167 128.833,104.833 121.5,104.5C 124.549,102.137 127.882,100.137 131.5,98.5 Z"/></g>
<g><path style="opacity:1" fill="#232f38" d="M 100.5,111.5 C 105.428,112.878 110.428,114.045 115.5,115C 119.023,119.022 122.357,123.189 125.5,127.5C 123.741,130.266 121.407,132.266 118.5,133.5C 116.588,130.081 114.088,127.081 111,124.5C 109.985,121.442 108.819,118.442 107.5,115.5C 104.351,116.084 102.018,114.75 100.5,111.5 Z"/></g>
<g><path style="opacity:1" fill="#768d9d" d="M 99.5,120.5 C 103.237,122.103 104.237,124.77 102.5,128.5C 100.589,129.075 98.922,130.075 97.5,131.5C 97.3465,129.03 96.3465,127.03 94.5,125.5C 96.4727,124.194 98.1394,122.527 99.5,120.5 Z"/></g>
<g><path style="opacity:1" fill="#2a4354" d="M 87.5,107.5 C 91.7317,109.113 96.0651,110.446 100.5,111.5C 102.018,114.75 104.351,116.084 107.5,115.5C 108.819,118.442 109.985,121.442 111,124.5C 114.088,127.081 116.588,130.081 118.5,133.5C 117.055,135.063 115.389,136.396 113.5,137.5C 112.833,137.833 112.167,138.167 111.5,138.5C 108.471,135.141 105.471,131.808 102.5,128.5C 104.237,124.77 103.237,122.103 99.5,120.5C 94.8426,116.84 90.8426,112.507 87.5,107.5 Z"/></g>
<g><path style="opacity:1" fill="#a8bbc8" d="M 93.5,125.5 C 93.8333,125.5 94.1667,125.5 94.5,125.5C 96.3465,127.03 97.3465,129.03 97.5,131.5C 94.8333,133.167 92.1667,134.833 89.5,136.5C 89.6602,134.801 89.4935,133.134 89,131.5C 88.3292,130.748 87.4959,130.414 86.5,130.5C 87.1667,129.833 87.8333,129.167 88.5,128.5C 90.4341,127.89 92.1007,126.89 93.5,125.5 Z"/></g>
<g><path style="opacity:1" fill="#265576" d="M 102.5,128.5 C 105.471,131.808 108.471,135.141 111.5,138.5C 104.91,142.231 97.9104,144.898 90.5,146.5C 90.8039,145.85 91.1373,145.183 91.5,144.5C 89.4177,142.578 88.0844,140.245 87.5,137.5C 88.1667,137.167 88.8333,136.833 89.5,136.5C 92.1667,134.833 94.8333,133.167 97.5,131.5C 98.922,130.075 100.589,129.075 102.5,128.5 Z"/></g>
<g><path style="opacity:1" fill="#286f9f" d="M 87.5,137.5 C 88.0844,140.245 89.4177,142.578 91.5,144.5C 91.1373,145.183 90.8039,145.85 90.5,146.5C 86.8648,147.114 83.1981,147.448 79.5,147.5C 78.1667,145.833 76.8333,144.167 75.5,142.5C 79.5,140.833 83.5,139.167 87.5,137.5 Z"/></g>
</svg>
