<?xml version="1.0" encoding="UTF-8"?>
<!DOCTYPE svg PUBLIC "-//W3C//DTD SVG 1.1//EN" "http://www.w3.org/Graphics/SVG/1.1/DTD/svg11.dtd">
<svg xmlns="http://www.w3.org/2000/svg" version="1.1" width="150px" height="150px" style="shape-rendering:geometricPrecision; text-rendering:geometricPrecision; image-rendering:optimizeQuality; fill-rule:evenodd; clip-rule:evenodd" xmlns:xlink="http://www.w3.org/1999/xlink">
<g><path style="opacity:1" fill="#71a6f3" d="M 62.5,0.5 C 62.5,0.166667 62.5,-0.166667 62.5,-0.5C 68.1667,-0.5 73.8333,-0.5 79.5,-0.5C 79.8277,3.81647 81.161,7.81647 83.5,11.5C 83.0431,12.2975 82.3764,12.6309 81.5,12.5C 78.9476,11.3065 76.4476,9.97321 74,8.5C 71.5255,9.98582 69.0255,11.3192 66.5,12.5C 66.1394,8.08454 64.8061,4.08454 62.5,0.5 Z"/></g>
<g><path style="opacity:1" fill="#8eb9f3" d="M 79.5,-0.5 C 81.8333,-0.5 84.1667,-0.5 86.5,-0.5C 87.209,0.403972 88.209,0.737305 89.5,0.5C 92.3314,9.15998 96.9981,16.66 103.5,23C 102.906,23.4643 102.239,23.631 101.5,23.5C 94.4772,20.3252 87.8105,16.6586 81.5,12.5C 82.3764,12.6309 83.0431,12.2975 83.5,11.5C 81.161,7.81647 79.8277,3.81647 79.5,-0.5 Z"/></g>
<g><path style="opacity:1" fill="#4085ef" d="M 62.5,0.5 C 64.8061,4.08454 66.1394,8.08454 66.5,12.5C 66.5,13.1667 66.1667,13.5 65.5,13.5C 61.0074,15.579 56.674,17.9123 52.5,20.5C 51.3829,15.8102 50.0495,11.1435 48.5,6.5C 48.685,5.41635 49.0183,4.41635 49.5,3.5C 53.6289,1.71819 57.9623,0.71819 62.5,0.5 Z"/></g>
<g><path style="opacity:0.976" fill="#abcbf2" d="M 89.5,0.5 C 112.689,5.75434 130.022,18.7543 141.5,39.5C 138.179,40.2474 134.846,39.9141 131.5,38.5C 130.509,42.4454 130.176,46.4454 130.5,50.5C 130.5,56.1667 130.5,61.8333 130.5,67.5C 130.81,70.7131 130.477,73.7131 129.5,76.5C 129.667,64.1622 129.5,51.8288 129,39.5C 119.852,34.0138 110.686,28.6804 101.5,23.5C 102.239,23.631 102.906,23.4643 103.5,23C 96.9981,16.66 92.3314,9.15998 89.5,0.5 Z"/></g>
<g><path style="opacity:1" fill="#2c68d5" d="M 49.5,3.5 C 49.0183,4.41635 48.685,5.41635 48.5,6.5C 50.0495,11.1435 51.3829,15.8102 52.5,20.5C 50.1667,21.8333 47.8333,23.1667 45.5,24.5C 43.1073,18.9893 41.1073,13.3227 39.5,7.5C 42.6035,5.61572 45.9368,4.28239 49.5,3.5 Z"/></g>
<g><path style="opacity:1" fill="#f9fbfd" d="M 81.5,12.5 C 87.8105,16.6586 94.4772,20.3252 101.5,23.5C 110.686,28.6804 119.852,34.0138 129,39.5C 129.5,51.8288 129.667,64.1622 129.5,76.5C 129.632,79.5701 129.299,82.5701 128.5,85.5C 127.992,87.8654 127.325,90.1987 126.5,92.5C 129.073,93.8076 131.74,94.8076 134.5,95.5C 130.341,98.7467 126.008,101.747 121.5,104.5C 119.742,105.999 117.909,106.332 116,105.5C 115.224,102.111 114.391,98.7781 113.5,95.5C 113.552,93.0971 113.219,90.7638 112.5,88.5C 112.351,87.448 112.517,86.448 113,85.5C 115.034,87.0316 117.201,88.3649 119.5,89.5C 121.389,85.3922 122.389,81.0589 122.5,76.5C 123.824,65.6596 123.824,54.6596 122.5,43.5C 109.977,36.7412 97.6436,29.7412 85.5,22.5C 82.0568,20.8956 78.7234,19.0623 75.5,17C 74.2506,16.2599 73.2506,16.4265 72.5,17.5C 71.391,17.5569 70.391,17.8902 69.5,18.5C 67.0029,17.8707 65.6696,16.204 65.5,13.5C 66.1667,13.5 66.5,13.1667 66.5,12.5C 69.0255,11.3192 71.5255,9.98582 74,8.5C 76.4476,9.97321 78.9476,11.3065 81.5,12.5 Z"/></g>
<g><path style="opacity:1" fill="#6aa2f3" d="M 72.5,17.5 C 73.2506,16.4265 74.2506,16.2599 75.5,17C 78.7234,19.0623 82.0568,20.8956 85.5,22.5C 94.1136,36.3274 106.114,46.1607 121.5,52C 122.435,54.3806 122.768,56.8806 122.5,59.5C 118.824,58.6629 115.324,57.3296 112,55.5C 111.51,56.7932 111.343,58.1266 111.5,59.5C 108.615,59.8064 105.948,59.4731 103.5,58.5C 105.833,58.5 108.167,58.5 110.5,58.5C 109,51.0273 104.333,47.694 96.5,48.5C 96.6107,47.8826 96.944,47.3826 97.5,47C 87.484,38.4927 79.1506,28.6594 72.5,17.5 Z"/></g>
<g><path style="opacity:1" fill="#5394f4" d="M 72.5,17.5 C 79.1506,28.6594 87.484,38.4927 97.5,47C 96.944,47.3826 96.6107,47.8826 96.5,48.5C 93.3855,48.3939 90.7188,49.3939 88.5,51.5C 87.8333,50.5 87.1667,49.5 86.5,48.5C 82.5032,44.335 78.6699,40.0017 75,35.5C 72.0578,30.5944 68.8911,25.9277 65.5,21.5C 66.8333,20.5 68.1667,19.5 69.5,18.5C 70.391,17.8902 71.391,17.5569 72.5,17.5 Z"/></g>
<g><path style="opacity:1" fill="#2a51ba" d="M 39.5,7.5 C 41.1073,13.3227 43.1073,18.9893 45.5,24.5C 41.8404,25.8744 41.5071,27.8744 44.5,30.5C 45.325,31.3857 46.325,31.719 47.5,31.5C 51.7114,36.887 55.7114,42.5537 59.5,48.5C 59.1667,48.5 58.8333,48.5 58.5,48.5C 53.1667,48.5 47.8333,48.5 42.5,48.5C 42.6658,43.8215 42.4992,39.1548 42,34.5C 40.4452,36.1458 38.7785,36.4791 37,35.5C 36.2935,33.9194 35.4601,32.4194 34.5,31C 35.8333,30 37.1667,29 38.5,28C 35.9536,24.41 33.7869,20.5766 32,16.5C 31.3292,17.2524 30.4959,17.5858 29.5,17.5C 28.609,16.8902 27.609,16.5569 26.5,16.5C 30.5346,13.1427 34.8679,10.1427 39.5,7.5 Z"/></g>
<g><path style="opacity:0.827" fill="#1a228b" d="M 26.5,16.5 C 27.609,16.5569 28.609,16.8902 29.5,17.5C 27.1395,20.5272 24.4729,23.1938 21.5,25.5C 18.7846,28.2139 16.4512,31.2139 14.5,34.5C 11.7311,38.6013 9.39777,42.9347 7.5,47.5C 5.97065,51.4214 4.63732,55.4214 3.5,59.5C 3.32588,61.861 2.99255,64.1944 2.5,66.5C 2.5,70.1667 2.5,73.8333 2.5,77.5C 2.1936,80.3854 2.52693,83.0521 3.5,85.5C 3.32198,89.1224 3.98864,92.4557 5.5,95.5C 10.371,113.407 20.7044,127.24 36.5,137C 39.0711,138.454 41.7378,139.62 44.5,140.5C 46.4261,142.293 48.7594,143.293 51.5,143.5C 54.8878,145.118 58.5544,146.118 62.5,146.5C 66.97,147.486 71.6367,147.819 76.5,147.5C 83.1776,147.873 89.511,146.873 95.5,144.5C 101.795,143.514 107.462,141.18 112.5,137.5C 114.906,136.601 116.906,135.101 118.5,133C 116.031,129.243 113.198,125.743 110,122.5C 109.767,120.22 108.934,118.22 107.5,116.5C 98.3933,111.782 89.0599,107.282 79.5,103C 75.6784,100.67 72.0117,98.1699 68.5,95.5C 64.1245,92.1256 60.4578,88.1256 57.5,83.5C 58.5,83.5 59.5,83.5 60.5,83.5C 61.404,82.791 61.7373,81.791 61.5,80.5C 84.5091,99.0217 110.509,109.688 139.5,112.5C 127.163,132.499 109.497,144.832 86.5,149.5C 78.5,149.5 70.5,149.5 62.5,149.5C 28.5,141.5 7.5,120.5 -0.5,86.5C -0.5,78.5 -0.5,70.5 -0.5,62.5C 2.82801,43.8449 11.828,28.5115 26.5,16.5 Z"/></g>
<g><path style="opacity:1" fill="#b0cdf7" d="M 65.5,13.5 C 65.6696,16.204 67.0029,17.8707 69.5,18.5C 68.1667,19.5 66.8333,20.5 65.5,21.5C 62.6223,23.1054 59.6223,24.4388 56.5,25.5C 54.0646,24.7298 52.7313,23.0632 52.5,20.5C 56.674,17.9123 61.0074,15.579 65.5,13.5 Z"/></g>
<g><path style="opacity:1" fill="#3f86f2" d="M 65.5,21.5 C 68.8911,25.9277 72.0578,30.5944 75,35.5C 78.6699,40.0017 82.5032,44.335 86.5,48.5C 83.1667,48.5 79.8333,48.5 76.5,48.5C 71.4473,42.9428 66.9473,36.9428 63,30.5C 60.7218,29.281 58.5551,27.9477 56.5,26.5C 56.5,26.1667 56.5,25.8333 56.5,25.5C 59.6223,24.4388 62.6223,23.1054 65.5,21.5 Z"/></g>
<g><path style="opacity:1" fill="#6f95df" d="M 52.5,20.5 C 52.7313,23.0632 54.0646,24.7298 56.5,25.5C 56.5,25.8333 56.5,26.1667 56.5,26.5C 53.3037,27.9287 50.3037,29.5954 47.5,31.5C 46.325,31.719 45.325,31.3857 44.5,30.5C 41.5071,27.8744 41.8404,25.8744 45.5,24.5C 47.8333,23.1667 50.1667,21.8333 52.5,20.5 Z"/></g>
<g><path style="opacity:1" fill="#83b2f4" d="M 85.5,22.5 C 97.6436,29.7412 109.977,36.7412 122.5,43.5C 123.824,54.6596 123.824,65.6596 122.5,76.5C 122.5,76.1667 122.5,75.8333 122.5,75.5C 122.5,70.1667 122.5,64.8333 122.5,59.5C 122.768,56.8806 122.435,54.3806 121.5,52C 106.114,46.1607 94.1136,36.3274 85.5,22.5 Z"/></g>
<g><path style="opacity:1" fill="#4c2073" d="M 21.5,25.5 C 25.829,34.1545 31.1623,42.1545 37.5,49.5C 37.5,52.8333 37.5,56.1667 37.5,59.5C 35.1725,58.2644 34.0058,56.2644 34,53.5C 33.6012,53.7284 33.4346,54.0618 33.5,54.5C 30.5275,49.2291 27.5275,43.8957 24.5,38.5C 23.4822,39.1925 22.4822,39.8592 21.5,40.5C 19.146,38.3737 16.8127,36.3737 14.5,34.5C 16.4512,31.2139 18.7846,28.2139 21.5,25.5 Z"/></g>
<g><path style="opacity:1" fill="#3c2d89" d="M 42.5,48.5 C 40.5853,48.2155 38.9187,48.5489 37.5,49.5C 31.1623,42.1545 25.829,34.1545 21.5,25.5C 24.4729,23.1938 27.1395,20.5272 29.5,17.5C 30.4959,17.5858 31.3292,17.2524 32,16.5C 33.7869,20.5766 35.9536,24.41 38.5,28C 37.1667,29 35.8333,30 34.5,31C 35.4601,32.4194 36.2935,33.9194 37,35.5C 38.7785,36.4791 40.4452,36.1458 42,34.5C 42.4992,39.1548 42.6658,43.8215 42.5,48.5 Z"/></g>
<g><path style="opacity:1" fill="#fbf6f8" d="M 33.5,54.5 C 33.2089,55.6491 32.3756,56.3158 31,56.5C 29.175,56.0566 27.3417,55.7233 25.5,55.5C 25.5,57.8333 25.5,60.1667 25.5,62.5C 25.1818,67.0323 25.5151,71.3656 26.5,75.5C 26.2786,78.2788 26.612,80.9455 27.5,83.5C 32.4438,107.777 46.4438,124.444 69.5,133.5C 71.6173,135.316 73.9506,135.65 76.5,134.5C 77.8333,134.167 79.1667,133.833 80.5,133.5C 83.7016,133.537 85.3683,135.203 85.5,138.5C 81.5738,140.031 77.5738,141.364 73.5,142.5C 66.3287,140.58 59.6621,137.58 53.5,133.5C 44.1393,127.473 36.4726,119.806 30.5,110.5C 25.9951,102.655 22.6618,94.3221 20.5,85.5C 20.0889,81.7785 19.4222,78.1119 18.5,74.5C 18.5,67.8333 18.5,61.1667 18.5,54.5C 15.4281,54.8174 12.4281,54.4841 9.5,53.5C 10.5244,52.1482 11.5244,50.8149 12.5,49.5C 15.8333,46.8333 18.8333,43.8333 21.5,40.5C 22.4822,39.8592 23.4822,39.1925 24.5,38.5C 27.5275,43.8957 30.5275,49.2291 33.5,54.5 Z"/></g>
<g><path style="opacity:1" fill="#3070de" d="M 56.5,26.5 C 58.5551,27.9477 60.7218,29.281 63,30.5C 66.9473,36.9428 71.4473,42.9428 76.5,48.5C 71.5,48.5 66.5,48.5 61.5,48.5C 60.8333,48.5 60.1667,48.5 59.5,48.5C 55.7114,42.5537 51.7114,36.887 47.5,31.5C 50.3037,29.5954 53.3037,27.9287 56.5,26.5 Z"/></g>
<g><path style="opacity:1" fill="#6c1a62" d="M 14.5,34.5 C 16.8127,36.3737 19.146,38.3737 21.5,40.5C 18.8333,43.8333 15.8333,46.8333 12.5,49.5C 10.8333,48.8333 9.16667,48.1667 7.5,47.5C 9.39777,42.9347 11.7311,38.6013 14.5,34.5 Z"/></g>
<g><path style="opacity:1" fill="#87b5f3" d="M 141.5,39.5 C 143.957,43.8697 145.624,48.5364 146.5,53.5C 141.32,51.8582 135.986,50.8582 130.5,50.5C 130.176,46.4454 130.509,42.4454 131.5,38.5C 134.846,39.9141 138.179,40.2474 141.5,39.5 Z"/></g>
<g><path style="opacity:1" fill="#cec3db" d="M 42.5,48.5 C 47.8333,48.5 53.1667,48.5 58.5,48.5C 52.021,49.4907 45.3543,49.824 38.5,49.5C 38.5,60.8333 38.5,72.1667 38.5,83.5C 37.5269,81.0521 37.1936,78.3854 37.5,75.5C 37.5,70.1667 37.5,64.8333 37.5,59.5C 37.5,56.1667 37.5,52.8333 37.5,49.5C 38.9187,48.5489 40.5853,48.2155 42.5,48.5 Z"/></g>
<g><path style="opacity:1" fill="#fafbfe" d="M 58.5,48.5 C 58.8333,48.5 59.1667,48.5 59.5,48.5C 60.1667,48.5 60.8333,48.5 61.5,48.5C 69.6499,49.4927 77.9832,49.8261 86.5,49.5C 86.3433,50.8734 86.51,52.2068 87,53.5C 87.7172,52.9558 88.2172,52.2891 88.5,51.5C 90.7188,49.3939 93.3855,48.3939 96.5,48.5C 104.333,47.694 109,51.0273 110.5,58.5C 108.167,58.5 105.833,58.5 103.5,58.5C 102.967,55.4752 101.133,54.1419 98,54.5C 94.2332,54.2656 92.5665,55.9323 93,59.5C 97.638,62.3792 102.471,64.8792 107.5,67C 110.029,69.6417 111.029,72.8084 110.5,76.5C 110.089,80.0791 108.089,82.2458 104.5,83C 101.518,83.498 98.5184,83.6646 95.5,83.5C 89.7417,83.0764 86.075,80.0764 84.5,74.5C 86.2789,72.6565 88.6122,71.9898 91.5,72.5C 93.0637,78.5666 96.7304,80.0666 102.5,77C 103.76,75.1862 103.76,73.3529 102.5,71.5C 97.4372,69.5513 92.6038,67.218 88,64.5C 85.8358,61.5527 85.0025,58.2194 85.5,54.5C 82.5,54.5 79.5,54.5 76.5,54.5C 76.5,59.1667 76.5,63.8333 76.5,68.5C 76.5,71.1667 76.5,73.8333 76.5,76.5C 76.5,78.8333 76.5,81.1667 76.5,83.5C 74.1667,83.5 71.8333,83.5 69.5,83.5C 69.5,73.8333 69.5,64.1667 69.5,54.5C 61.5,54.5 53.5,54.5 45.5,54.5C 44.5233,57.2869 44.19,60.2869 44.5,63.5C 49.1667,63.5 53.8333,63.5 58.5,63.5C 58.9227,65.7812 58.256,67.4479 56.5,68.5C 53.8333,68.5 51.1667,68.5 48.5,68.5C 47.5,68.5 46.5,68.5 45.5,68.5C 44.5206,71.6248 44.1872,74.9581 44.5,78.5C 49.8333,78.5 55.1667,78.5 60.5,78.5C 60.5,80.1667 60.5,81.8333 60.5,83.5C 59.5,83.5 58.5,83.5 57.5,83.5C 55.5,83.5 53.5,83.5 51.5,83.5C 49.1667,83.5 46.8333,83.5 44.5,83.5C 42.5,83.5 40.5,83.5 38.5,83.5C 38.5,72.1667 38.5,60.8333 38.5,49.5C 45.3543,49.824 52.021,49.4907 58.5,48.5 Z"/></g>
<g><path style="opacity:1" fill="#b6d0f7" d="M 61.5,48.5 C 66.5,48.5 71.5,48.5 76.5,48.5C 79.8333,48.5 83.1667,48.5 86.5,48.5C 87.1667,49.5 87.8333,50.5 88.5,51.5C 88.2172,52.2891 87.7172,52.9558 87,53.5C 86.51,52.2068 86.3433,50.8734 86.5,49.5C 77.9832,49.8261 69.6499,49.4927 61.5,48.5 Z"/></g>
<g><path style="opacity:1" fill="#8c1351" d="M 7.5,47.5 C 9.16667,48.1667 10.8333,48.8333 12.5,49.5C 11.5244,50.8149 10.5244,52.1482 9.5,53.5C 12.4281,54.4841 15.4281,54.8174 18.5,54.5C 18.5,61.1667 18.5,67.8333 18.5,74.5C 14.7818,70.7594 11.2818,66.7594 8,62.5C 6.87099,60.8588 5.37099,59.8588 3.5,59.5C 4.63732,55.4214 5.97065,51.4214 7.5,47.5 Z"/></g>
<g><path style="opacity:1" fill="#498df3" d="M 103.5,58.5 C 105.948,59.4731 108.615,59.8064 111.5,59.5C 111.343,58.1266 111.51,56.7932 112,55.5C 115.324,57.3296 118.824,58.6629 122.5,59.5C 122.5,64.8333 122.5,70.1667 122.5,75.5C 119.06,74.9094 115.727,73.9094 112.5,72.5C 111.828,73.9492 111.161,75.2825 110.5,76.5C 111.029,72.8084 110.029,69.6417 107.5,67C 102.471,64.8792 97.638,62.3792 93,59.5C 92.5665,55.9323 94.2332,54.2656 98,54.5C 101.133,54.1419 102.967,55.4752 103.5,58.5 Z"/></g>
<g><path style="opacity:1" fill="#254cb5" d="M 45.5,54.5 C 53.5,54.5 61.5,54.5 69.5,54.5C 69.5,64.1667 69.5,73.8333 69.5,83.5C 68.71,82.3915 68.21,81.0581 68,79.5C 63.665,76.3311 59.8316,72.6644 56.5,68.5C 58.256,67.4479 58.9227,65.7812 58.5,63.5C 54.3656,62.5151 50.0323,62.1818 45.5,62.5C 45.5,59.8333 45.5,57.1667 45.5,54.5 Z"/></g>
<g><path style="opacity:1" fill="#6a1760" d="M 37.5,59.5 C 37.5,64.8333 37.5,70.1667 37.5,75.5C 33.5,71.1667 29.5,66.8333 25.5,62.5C 25.5,60.1667 25.5,57.8333 25.5,55.5C 27.3417,55.7233 29.175,56.0566 31,56.5C 32.3756,56.3158 33.2089,55.6491 33.5,54.5C 33.4346,54.0618 33.6012,53.7284 34,53.5C 34.0058,56.2644 35.1725,58.2644 37.5,59.5 Z"/></g>
<g><path style="opacity:1" fill="#306dda" d="M 84.5,74.5 C 82.2383,72.0278 79.5716,70.0278 76.5,68.5C 76.5,63.8333 76.5,59.1667 76.5,54.5C 79.5,54.5 82.5,54.5 85.5,54.5C 85.0025,58.2194 85.8358,61.5527 88,64.5C 92.6038,67.218 97.4372,69.5513 102.5,71.5C 103.76,73.3529 103.76,75.1862 102.5,77C 96.7304,80.0666 93.0637,78.5666 91.5,72.5C 88.6122,71.9898 86.2789,72.6565 84.5,74.5 Z"/></g>
<g><path style="opacity:1" fill="#8d9ace" d="M 45.5,54.5 C 45.5,57.1667 45.5,59.8333 45.5,62.5C 50.0323,62.1818 54.3656,62.5151 58.5,63.5C 53.8333,63.5 49.1667,63.5 44.5,63.5C 44.19,60.2869 44.5233,57.2869 45.5,54.5 Z"/></g>
<g><path style="opacity:1" fill="#639df3" d="M 130.5,50.5 C 135.986,50.8582 141.32,51.8582 146.5,53.5C 147.626,56.4651 148.626,59.4651 149.5,62.5C 149.5,64.5 149.5,66.5 149.5,68.5C 148.735,68.9234 147.902,69.2568 147,69.5C 141.53,68.603 136.03,67.9363 130.5,67.5C 130.5,61.8333 130.5,56.1667 130.5,50.5 Z"/></g>
<g><path style="opacity:1" fill="#a61648" d="M 3.5,59.5 C 5.37099,59.8588 6.87099,60.8588 8,62.5C 11.2818,66.7594 14.7818,70.7594 18.5,74.5C 19.4222,78.1119 20.0889,81.7785 20.5,85.5C 17.2537,81.7119 13.7537,78.0452 10,74.5C 8.70247,70.7026 6.20247,68.0359 2.5,66.5C 2.99255,64.1944 3.32588,61.861 3.5,59.5 Z"/></g>
<g><path style="opacity:1" fill="#571968" d="M 45.5,68.5 C 46.5,68.5 47.5,68.5 48.5,68.5C 49.5612,71.6223 50.8946,74.6223 52.5,77.5C 50.1667,77.5 47.8333,77.5 45.5,77.5C 45.5,74.5 45.5,71.5 45.5,68.5 Z"/></g>
<g><path style="opacity:1" fill="#2252bd" d="M 76.5,68.5 C 79.5716,70.0278 82.2383,72.0278 84.5,74.5C 86.075,80.0764 89.7417,83.0764 95.5,83.5C 101.543,83.6814 107.209,85.3481 112.5,88.5C 113.219,90.7638 113.552,93.0971 113.5,95.5C 100.165,90.9996 87.8313,84.6663 76.5,76.5C 76.5,73.8333 76.5,71.1667 76.5,68.5 Z"/></g>
<g><path style="opacity:1" fill="#a895be" d="M 45.5,68.5 C 45.5,71.5 45.5,74.5 45.5,77.5C 47.8333,77.5 50.1667,77.5 52.5,77.5C 55.5,77.5 58.5,77.5 61.5,77.5C 61.5,78.5 61.5,79.5 61.5,80.5C 61.7373,81.791 61.404,82.791 60.5,83.5C 60.5,81.8333 60.5,80.1667 60.5,78.5C 55.1667,78.5 49.8333,78.5 44.5,78.5C 44.1872,74.9581 44.5206,71.6248 45.5,68.5 Z"/></g>
<g><path style="opacity:1" fill="#0f34a0" d="M 48.5,68.5 C 51.1667,68.5 53.8333,68.5 56.5,68.5C 59.8316,72.6644 63.665,76.3311 68,79.5C 68.21,81.0581 68.71,82.3915 69.5,83.5C 71.8333,83.5 74.1667,83.5 76.5,83.5C 76.5,81.1667 76.5,78.8333 76.5,76.5C 87.8313,84.6663 100.165,90.9996 113.5,95.5C 114.391,98.7781 115.224,102.111 116,105.5C 117.909,106.332 119.742,105.999 121.5,104.5C 128.481,105.354 135.481,106.021 142.5,106.5C 142.008,108.819 141.008,110.819 139.5,112.5C 110.509,109.688 84.5091,99.0217 61.5,80.5C 61.5,79.5 61.5,78.5 61.5,77.5C 58.5,77.5 55.5,77.5 52.5,77.5C 50.8946,74.6223 49.5612,71.6223 48.5,68.5 Z"/></g>
<g><path style="opacity:1" fill="#c81038" d="M 2.5,77.5 C 10.2966,85.4568 17.1299,94.1235 23,103.5C 25.4162,106.088 27.9162,108.422 30.5,110.5C 36.4726,119.806 44.1393,127.473 53.5,133.5C 57.2501,137.428 60.9168,141.595 64.5,146C 63.9056,146.464 63.2389,146.631 62.5,146.5C 58.5544,146.118 54.8878,145.118 51.5,143.5C 53.6456,143.304 53.8122,142.304 52,140.5C 36,121.833 20,103.167 4,84.5C 3.60123,84.7284 3.43456,85.0618 3.5,85.5C 2.52693,83.0521 2.1936,80.3854 2.5,77.5 Z"/></g>
<g><path style="opacity:1" fill="#3c80eb" d="M 130.5,67.5 C 136.03,67.9363 141.53,68.603 147,69.5C 147.902,69.2568 148.735,68.9234 149.5,68.5C 149.5,74.5 149.5,80.5 149.5,86.5C 149.167,86.5 148.833,86.5 148.5,86.5C 141.814,86.4728 135.148,86.1395 128.5,85.5C 129.299,82.5701 129.632,79.5701 129.5,76.5C 130.477,73.7131 130.81,70.7131 130.5,67.5 Z"/></g>
<g><path style="opacity:1" fill="#901550" d="M 26.5,75.5 C 43.9107,94.574 60.5774,114.241 76.5,134.5C 73.9506,135.65 71.6173,135.316 69.5,133.5C 69.9382,133.565 70.2716,133.399 70.5,133C 56.031,116.522 41.6977,100.022 27.5,83.5C 26.612,80.9455 26.2786,78.2788 26.5,75.5 Z"/></g>
<g><path style="opacity:1" fill="#356dd8" d="M 122.5,75.5 C 122.5,75.8333 122.5,76.1667 122.5,76.5C 122.389,81.0589 121.389,85.3922 119.5,89.5C 117.201,88.3649 115.034,87.0316 113,85.5C 112.517,86.448 112.351,87.448 112.5,88.5C 107.209,85.3481 101.543,83.6814 95.5,83.5C 98.5184,83.6646 101.518,83.498 104.5,83C 108.089,82.2458 110.089,80.0791 110.5,76.5C 111.161,75.2825 111.828,73.9492 112.5,72.5C 115.727,73.9094 119.06,74.9094 122.5,75.5 Z"/></g>
<g><path style="opacity:1" fill="#7e1558" d="M 25.5,62.5 C 29.5,66.8333 33.5,71.1667 37.5,75.5C 37.1936,78.3854 37.5269,81.0521 38.5,83.5C 40.5,83.5 42.5,83.5 44.5,83.5C 57.4336,99.7728 70.7669,115.773 84.5,131.5C 83.0048,131.989 81.6715,132.655 80.5,133.5C 79.1667,133.833 77.8333,134.167 76.5,134.5C 60.5774,114.241 43.9107,94.574 26.5,75.5C 25.5151,71.3656 25.1818,67.0323 25.5,62.5 Z"/></g>
<g><path style="opacity:1" fill="#6a1760" d="M 44.5,83.5 C 46.8333,83.5 49.1667,83.5 51.5,83.5C 61.4547,95.9597 71.6214,108.293 82,120.5C 84.5881,123.2 87.4214,125.533 90.5,127.5C 88.5368,128.82 86.5368,130.154 84.5,131.5C 70.7669,115.773 57.4336,99.7728 44.5,83.5 Z"/></g>
<g><path style="opacity:1" fill="#d40b31" d="M 51.5,143.5 C 48.7594,143.293 46.4261,142.293 44.5,140.5C 32.5901,125.029 19.7567,109.696 6,94.5C 5.60123,94.7284 5.43456,95.0618 5.5,95.5C 3.98864,92.4557 3.32198,89.1224 3.5,85.5C 3.43456,85.0618 3.60123,84.7284 4,84.5C 20,103.167 36,121.833 52,140.5C 53.8122,142.304 53.6456,143.304 51.5,143.5 Z"/></g>
<g><path style="opacity:1" fill="#a2164a" d="M 27.5,83.5 C 41.6977,100.022 56.031,116.522 70.5,133C 70.2716,133.399 69.9382,133.565 69.5,133.5C 46.4438,124.444 32.4438,107.777 27.5,83.5 Z"/></g>
<g><path style="opacity:1" fill="#bd133d" d="M 2.5,66.5 C 6.20247,68.0359 8.70247,70.7026 10,74.5C 13.7537,78.0452 17.2537,81.7119 20.5,85.5C 22.6618,94.3221 25.9951,102.655 30.5,110.5C 27.9162,108.422 25.4162,106.088 23,103.5C 17.1299,94.1235 10.2966,85.4568 2.5,77.5C 2.5,73.8333 2.5,70.1667 2.5,66.5 Z"/></g>
<g><path style="opacity:1" fill="#2e63ce" d="M 128.5,85.5 C 135.148,86.1395 141.814,86.4728 148.5,86.5C 148.58,89.7814 147.913,92.7814 146.5,95.5C 142.352,94.3563 138.352,94.3563 134.5,95.5C 131.74,94.8076 129.073,93.8076 126.5,92.5C 127.325,90.1987 127.992,87.8654 128.5,85.5 Z"/></g>
<g><path style="opacity:1" fill="#5e1865" d="M 51.5,83.5 C 53.5,83.5 55.5,83.5 57.5,83.5C 60.4578,88.1256 64.1245,92.1256 68.5,95.5C 75.7655,104.608 83.2655,113.608 91,122.5C 91.7914,123.745 92.2914,125.078 92.5,126.5C 91.8333,126.5 91.5,126.833 91.5,127.5C 91.1667,127.5 90.8333,127.5 90.5,127.5C 87.4214,125.533 84.5881,123.2 82,120.5C 71.6214,108.293 61.4547,95.9597 51.5,83.5 Z"/></g>
<g><path style="opacity:1" fill="#1b46b2" d="M 146.5,95.5 C 145.935,99.5368 144.601,103.203 142.5,106.5C 135.481,106.021 128.481,105.354 121.5,104.5C 126.008,101.747 130.341,98.7467 134.5,95.5C 138.352,94.3563 142.352,94.3563 146.5,95.5 Z"/></g>
<g><path style="opacity:1" fill="#e20a2b" d="M 44.5,140.5 C 41.7378,139.62 39.0711,138.454 36.5,137C 20.7044,127.24 10.371,113.407 5.5,95.5C 5.43456,95.0618 5.60123,94.7284 6,94.5C 19.7567,109.696 32.5901,125.029 44.5,140.5 Z"/></g>
<g><path style="opacity:1" fill="#421c72" d="M 68.5,95.5 C 72.0117,98.1699 75.6784,100.67 79.5,103C 89.0599,107.282 98.3933,111.782 107.5,116.5C 108.934,118.22 109.767,120.22 110,122.5C 113.198,125.743 116.031,129.243 118.5,133C 116.906,135.101 114.906,136.601 112.5,137.5C 109.833,133.833 107.167,130.167 104.5,126.5C 108.272,123.389 108.439,120.056 105,116.5C 102.336,117.998 100.17,119.998 98.5,122.5C 96.2279,123.441 94.2279,124.774 92.5,126.5C 92.2914,125.078 91.7914,123.745 91,122.5C 83.2655,113.608 75.7655,104.608 68.5,95.5 Z"/></g>
<g><path style="opacity:1" fill="#674e93" d="M 104.5,126.5 C 103.833,126.833 103.167,127.167 102.5,127.5C 101.855,125.174 100.522,123.507 98.5,122.5C 100.17,119.998 102.336,117.998 105,116.5C 108.439,120.056 108.272,123.389 104.5,126.5 Z"/></g>
<g><path style="opacity:1" fill="#9c7dab" d="M 98.5,122.5 C 100.522,123.507 101.855,125.174 102.5,127.5C 100.469,129.522 98.1354,131.189 95.5,132.5C 95.3304,129.796 93.9971,128.129 91.5,127.5C 91.5,126.833 91.8333,126.5 92.5,126.5C 94.2279,124.774 96.2279,123.441 98.5,122.5 Z"/></g>
<g><path style="opacity:1" fill="#d8c1d5" d="M 90.5,127.5 C 90.8333,127.5 91.1667,127.5 91.5,127.5C 93.9971,128.129 95.3304,129.796 95.5,132.5C 93.7952,134.192 91.7952,135.525 89.5,136.5C 88.1667,137.167 86.8333,137.833 85.5,138.5C 85.3683,135.203 83.7016,133.537 80.5,133.5C 81.6715,132.655 83.0048,131.989 84.5,131.5C 86.5368,130.154 88.5368,128.82 90.5,127.5 Z"/></g>
<g><path style="opacity:1" fill="#5b1967" d="M 104.5,126.5 C 107.167,130.167 109.833,133.833 112.5,137.5C 107.462,141.18 101.795,143.514 95.5,144.5C 93.1153,142.116 91.1153,139.45 89.5,136.5C 91.7952,135.525 93.7952,134.192 95.5,132.5C 98.1354,131.189 100.469,129.522 102.5,127.5C 103.167,127.167 103.833,126.833 104.5,126.5 Z"/></g>
<g><path style="opacity:1" fill="#b11343" d="M 53.5,133.5 C 59.6621,137.58 66.3287,140.58 73.5,142.5C 74.2485,144.332 75.2485,145.999 76.5,147.5C 71.6367,147.819 66.97,147.486 62.5,146.5C 63.2389,146.631 63.9056,146.464 64.5,146C 60.9168,141.595 57.2501,137.428 53.5,133.5 Z"/></g>
<g><path style="opacity:1" fill="#8f1853" d="M 89.5,136.5 C 91.1153,139.45 93.1153,142.116 95.5,144.5C 89.511,146.873 83.1776,147.873 76.5,147.5C 75.2485,145.999 74.2485,144.332 73.5,142.5C 77.5738,141.364 81.5738,140.031 85.5,138.5C 86.8333,137.833 88.1667,137.167 89.5,136.5 Z"/></g>
</svg>
