<?xml version="1.0" encoding="UTF-8"?>
<!DOCTYPE svg PUBLIC "-//W3C//DTD SVG 1.1//EN" "http://www.w3.org/Graphics/SVG/1.1/DTD/svg11.dtd">
<svg xmlns="http://www.w3.org/2000/svg" version="1.1" width="45px" height="44px" style="shape-rendering:geometricPrecision; text-rendering:geometricPrecision; image-rendering:optimizeQuality; fill-rule:evenodd; clip-rule:evenodd" xmlns:xlink="http://www.w3.org/1999/xlink">
<g><path style="opacity:0.972" fill="#e4e6e9" d="M 15.5,-0.5 C 19.8333,-0.5 24.1667,-0.5 28.5,-0.5C 36.5663,2.56708 41.8997,8.23374 44.5,16.5C 44.5,19.8333 44.5,23.1667 44.5,26.5C 41.8997,34.7663 36.5663,40.4329 28.5,43.5C 24.1667,43.5 19.8333,43.5 15.5,43.5C 7.43368,40.4329 2.10035,34.7663 -0.5,26.5C -0.5,23.1667 -0.5,19.8333 -0.5,16.5C 2.10035,8.23374 7.43368,2.56708 15.5,-0.5 Z"/></g>
<g><path style="opacity:1" fill="#4abde9" d="M 15.5,11.5 C 15.2041,13.403 14.5375,15.0697 13.5,16.5C 11.016,13.5368 11.016,10.5368 13.5,7.5C 14.7051,8.57688 15.3718,9.91021 15.5,11.5 Z"/></g>
<g><path style="opacity:1" fill="#3d8fcc" d="M 15.5,11.5 C 17.8585,13.5293 20.1918,15.5293 22.5,17.5C 19.1506,17.8731 18.1506,19.5398 19.5,22.5C 16.5222,21.5223 14.5222,19.5223 13.5,16.5C 14.5375,15.0697 15.2041,13.403 15.5,11.5 Z"/></g>
<g><path style="opacity:1" fill="#789bcb" d="M 28.5,14.5 C 31.8606,15.2032 32.1939,16.5365 29.5,18.5C 28.5713,17.3112 28.238,15.9778 28.5,14.5 Z"/></g>
<g><path style="opacity:1" fill="#466fb6" d="M 19.5,22.5 C 18.1506,19.5398 19.1506,17.8731 22.5,17.5C 23.4959,17.5858 24.3292,17.2524 25,16.5C 26.4596,20.7977 25.1262,23.7977 21,25.5C 20.4867,24.4734 19.9867,23.4734 19.5,22.5 Z"/></g>
<g><path style="opacity:1" fill="#5890c9" d="M 28.5,19.5 C 30.5273,19.3379 32.5273,19.5045 34.5,20C 32.4587,23.0564 29.792,24.2231 26.5,23.5C 27.6302,22.3777 28.2969,21.0443 28.5,19.5 Z"/></g>
<g><path style="opacity:1" fill="#577abb" d="M 19.5,32.5 C 18.6618,32.1583 18.3284,31.4916 18.5,30.5C 19.4822,29.8592 20.4822,29.1925 21.5,28.5C 21.8333,28.8333 22.1667,29.1667 22.5,29.5C 21.2299,30.2876 20.2299,31.2876 19.5,32.5 Z"/></g>
<g><path style="opacity:1" fill="#5ba9d9" d="M 18.5,30.5 C 18.3284,31.4916 18.6618,32.1583 19.5,32.5C 17.1768,37.289 15.5102,37.289 14.5,32.5C 15.5769,31.2949 16.9102,30.6282 18.5,30.5 Z"/></g>
</svg>
