<?xml version="1.0" encoding="UTF-8"?>
<!DOCTYPE svg PUBLIC "-//W3C//DTD SVG 1.1//EN" "http://www.w3.org/Graphics/SVG/1.1/DTD/svg11.dtd">
<svg xmlns="http://www.w3.org/2000/svg" version="1.1" width="130px" height="130px" style="shape-rendering:geometricPrecision; text-rendering:geometricPrecision; image-rendering:optimizeQuality; fill-rule:evenodd; clip-rule:evenodd" xmlns:xlink="http://www.w3.org/1999/xlink">
<g><path style="opacity:0.879" fill="#282138" d="M 52.5,-0.5 C 60.5,-0.5 68.5,-0.5 76.5,-0.5C 104.5,6.83333 122.167,24.5 129.5,52.5C 129.5,60.5 129.5,68.5 129.5,76.5C 122.167,104.5 104.5,122.167 76.5,129.5C 68.5,129.5 60.5,129.5 52.5,129.5C 24.5,122.167 6.83333,104.5 -0.5,76.5C -0.5,68.5 -0.5,60.5 -0.5,52.5C 6.83333,24.5 24.5,6.83333 52.5,-0.5 Z M 54.5,5.5 C 90.6985,3.33499 113.532,19.6683 123,54.5C 125.885,85.2394 113.385,107.073 85.5,120C 56.7575,128.752 33.2575,121.252 15,97.5C -2.03989,65.3658 3.46011,37.8658 31.5,15C 38.7934,10.679 46.4601,7.51231 54.5,5.5 Z M 61.5,49.5 C 65.2733,49.2633 68.9399,49.7633 72.5,51C 75.113,53.7953 75.113,56.6286 72.5,59.5C 68.9722,60.9213 65.3055,61.588 61.5,61.5C 61.5,57.5 61.5,53.5 61.5,49.5 Z M 61.5,68.5 C 65.9362,68.2101 70.2695,68.7101 74.5,70C 78.7287,73.8432 78.3954,77.1765 73.5,80C 69.5817,81.1564 65.5817,81.6564 61.5,81.5C 61.5,77.1667 61.5,72.8333 61.5,68.5 Z"/></g>
<g><path style="opacity:0.851" fill="#595463" d="M 55.5,8.5 C 68.9587,7.09178 81.6253,9.59178 93.5,16C 96.6709,18.3414 99.6709,20.8414 102.5,23.5C 101.5,25.1667 100.167,26.5 98.5,27.5C 75.8333,10.1667 53.1667,10.1667 30.5,27.5C 26.6834,25.9626 26.0167,23.7959 28.5,21C 36.5649,14.6317 45.5649,10.465 55.5,8.5 Z"/></g>
<g><path style="opacity:0.849" fill="#595463" d="M 22.5,26.5 C 24.7288,27.0553 26.3954,28.3886 27.5,30.5C 10.1673,53.1723 10.1673,75.839 27.5,98.5C 25.4024,103.158 22.9024,103.492 20,99.5C 7.51247,81.4454 5.17913,62.1121 13,41.5C 15.6777,36.1338 18.8444,31.1338 22.5,26.5 Z"/></g>
<g><path style="opacity:0.853" fill="#595463" d="M 104.5,26.5 C 106.371,26.8588 107.871,27.8588 109,29.5C 123.531,51.3983 124.198,73.7316 111,96.5C 109.39,98.731 107.557,100.731 105.5,102.5C 103.833,101.5 102.5,100.167 101.5,98.5C 118.833,75.8333 118.833,53.1667 101.5,30.5C 102.524,29.1482 103.524,27.8149 104.5,26.5 Z"/></g>
<g><path style="opacity:0.929" fill="#ef9141" d="M 53.5,31.5 C 55.8333,31.5 58.1667,31.5 60.5,31.5C 60.5,34.8333 60.5,38.1667 60.5,41.5C 61.8333,41.5 63.1667,41.5 64.5,41.5C 64.5,38.1667 64.5,34.8333 64.5,31.5C 67.1667,31.5 69.8333,31.5 72.5,31.5C 72.5,34.8333 72.5,38.1667 72.5,41.5C 83.7147,41.8732 88.548,47.5399 87,58.5C 86.2155,60.286 85.0488,61.786 83.5,63C 88.7434,64.9719 91.4101,68.8052 91.5,74.5C 90.0587,85.4151 83.7253,90.4151 72.5,89.5C 72.5,93.1667 72.5,96.8333 72.5,100.5C 69.8333,100.5 67.1667,100.5 64.5,100.5C 64.5,96.8333 64.5,93.1667 64.5,89.5C 63.1667,89.5 61.8333,89.5 60.5,89.5C 60.5,93.1667 60.5,96.8333 60.5,100.5C 58.1667,100.5 55.8333,100.5 53.5,100.5C 53.5,96.8333 53.5,93.1667 53.5,89.5C 49.5,89.5 45.5,89.5 41.5,89.5C 41.3367,87.1432 41.5034,84.8098 42,82.5C 44.3333,81.8333 46.6667,81.1667 49,80.5C 49.6667,70.8333 49.6667,61.1667 49,51.5C 46.6137,49.9089 43.947,48.9089 41,48.5C 40.3333,46.5 40.3333,44.5 41,42.5C 45.0659,41.5363 49.2325,41.203 53.5,41.5C 53.5,38.1667 53.5,34.8333 53.5,31.5 Z M 61.5,49.5 C 61.5,53.5 61.5,57.5 61.5,61.5C 65.3055,61.588 68.9722,60.9213 72.5,59.5C 75.113,56.6286 75.113,53.7953 72.5,51C 68.9399,49.7633 65.2733,49.2633 61.5,49.5 Z M 61.5,68.5 C 61.5,72.8333 61.5,77.1667 61.5,81.5C 65.5817,81.6564 69.5817,81.1564 73.5,80C 78.3954,77.1765 78.7287,73.8432 74.5,70C 70.2695,68.7101 65.9362,68.2101 61.5,68.5 Z"/></g>
<g><path style="opacity:0.843" fill="#595463" d="M 29.5,101.5 C 52.5007,118.792 75.5007,118.792 98.5,101.5C 100.167,102.5 101.5,103.833 102.5,105.5C 87.6617,119.042 70.3283,123.542 50.5,119C 41.5713,116.787 33.7379,112.62 27,106.5C 27.0579,104.565 27.8912,102.898 29.5,101.5 Z"/></g>
</svg>
