<svg width="14" height="14" viewBox="0 0 14 14" fill="none" xmlns="http://www.w3.org/2000/svg">
    <path d="M6.33203 9.10026H7.66536V10.4336H6.33203V9.10026ZM6.33203 3.76693H7.66536V7.76693H6.33203V3.76693ZM6.9987 0.433594C3.31203 0.433594 0.332031 3.43359 0.332031 7.10026C0.332031 8.86837 1.03441 10.5641 2.28465 11.8143C2.90371 12.4334 3.63864 12.9244 4.44747 13.2595C5.25631 13.5945 6.12322 13.7669 6.9987 13.7669C8.76681 13.7669 10.4625 13.0645 11.7127 11.8143C12.963 10.5641 13.6654 8.86837 13.6654 7.10026C13.6654 6.22478 13.4929 5.35787 13.1579 4.54904C12.8229 3.7402 12.3318 3.00527 11.7127 2.38622C11.0937 1.76716 10.3588 1.27609 9.54992 0.941064C8.74108 0.606032 7.87418 0.433594 6.9987 0.433594ZM6.9987 12.4336C5.58421 12.4336 4.22766 11.8717 3.22746 10.8715C2.22727 9.8713 1.66536 8.51475 1.66536 7.10026C1.66536 5.68577 2.22727 4.32922 3.22746 3.32902C4.22766 2.32883 5.58421 1.76693 6.9987 1.76693C8.41319 1.76693 9.76974 2.32883 10.7699 3.32902C11.7701 4.32922 12.332 5.68577 12.332 7.10026C12.332 8.51475 11.7701 9.8713 10.7699 10.8715C9.76974 11.8717 8.41319 12.4336 6.9987 12.4336Z" fill="#22ABAC"/>
</svg>
