<svg width="227" height="28" viewBox="0 0 227 28" fill="none" xmlns="http://www.w3.org/2000/svg">
    <path d="M14.843 17.8167L11.0263 14L14.843 10.175L13.668 9L8.66797 14L13.668 19L14.843 17.8167Z" fill="url(#paint0_linear_10673_88920)"/>
    <path d="M36.9424 13.6279V18.3125C36.7842 18.5469 36.5322 18.8105 36.1865 19.1035C35.8408 19.3906 35.3633 19.6426 34.7539 19.8594C34.1504 20.0703 33.3711 20.1758 32.416 20.1758C31.6367 20.1758 30.9189 20.041 30.2627 19.7715C29.6123 19.4961 29.0469 19.0977 28.5664 18.5762C28.0918 18.0488 27.7227 17.4102 27.459 16.6602C27.2012 15.9043 27.0723 15.0488 27.0723 14.0938V13.1006C27.0723 12.1455 27.1836 11.293 27.4062 10.543C27.6348 9.79297 27.9688 9.15723 28.4082 8.63574C28.8477 8.1084 29.3867 7.70996 30.0254 7.44043C30.6641 7.16504 31.3965 7.02734 32.2227 7.02734C33.2012 7.02734 34.0186 7.19727 34.6748 7.53711C35.3369 7.87109 35.8525 8.33398 36.2217 8.92578C36.5967 9.51758 36.8369 10.1914 36.9424 10.9473H35.2461C35.1699 10.4844 35.0176 10.0625 34.7891 9.68164C34.5664 9.30078 34.2471 8.99609 33.8311 8.76758C33.415 8.5332 32.8789 8.41602 32.2227 8.41602C31.6309 8.41602 31.1182 8.52441 30.6846 8.74121C30.251 8.95801 29.8936 9.26855 29.6123 9.67285C29.3311 10.0771 29.1201 10.5664 28.9795 11.1406C28.8447 11.7148 28.7773 12.3623 28.7773 13.083V14.0938C28.7773 14.832 28.8623 15.4912 29.0322 16.0713C29.208 16.6514 29.457 17.1465 29.7793 17.5566C30.1016 17.9609 30.4854 18.2686 30.9307 18.4795C31.3818 18.6904 31.8799 18.7959 32.4248 18.7959C33.0283 18.7959 33.5176 18.7461 33.8926 18.6465C34.2676 18.541 34.5605 18.418 34.7715 18.2773C34.9824 18.1309 35.1436 17.9932 35.2549 17.8643V14.999H32.293V13.6279H36.9424ZM43.4551 20.1758C42.793 20.1758 42.1924 20.0645 41.6533 19.8418C41.1201 19.6133 40.6602 19.2939 40.2734 18.8838C39.8926 18.4736 39.5996 17.9873 39.3945 17.4248C39.1895 16.8623 39.0869 16.2471 39.0869 15.5791V15.21C39.0869 14.4365 39.2012 13.748 39.4297 13.1445C39.6582 12.5352 39.9688 12.0195 40.3613 11.5977C40.7539 11.1758 41.1992 10.8564 41.6973 10.6396C42.1953 10.4229 42.7109 10.3145 43.2441 10.3145C43.9238 10.3145 44.5098 10.4316 45.002 10.666C45.5 10.9004 45.9072 11.2285 46.2236 11.6504C46.54 12.0664 46.7744 12.5586 46.9268 13.127C47.0791 13.6895 47.1553 14.3047 47.1553 14.9727V15.7021H40.0537V14.375H45.5293V14.252C45.5059 13.8301 45.418 13.4199 45.2656 13.0215C45.1191 12.623 44.8848 12.2949 44.5625 12.0371C44.2402 11.7793 43.8008 11.6504 43.2441 11.6504C42.875 11.6504 42.5352 11.7295 42.2246 11.8877C41.9141 12.04 41.6475 12.2686 41.4248 12.5732C41.2021 12.8779 41.0293 13.25 40.9062 13.6895C40.7832 14.1289 40.7217 14.6357 40.7217 15.21V15.5791C40.7217 16.0303 40.7832 16.4551 40.9062 16.8535C41.0352 17.2461 41.2197 17.5918 41.46 17.8906C41.7061 18.1895 42.002 18.4238 42.3477 18.5938C42.6992 18.7637 43.0977 18.8486 43.543 18.8486C44.1172 18.8486 44.6035 18.7314 45.002 18.4971C45.4004 18.2627 45.749 17.9492 46.0479 17.5566L47.0322 18.3389C46.8271 18.6494 46.5664 18.9453 46.25 19.2266C45.9336 19.5078 45.5439 19.7363 45.0811 19.9121C44.624 20.0879 44.082 20.1758 43.4551 20.1758ZM53.0352 10.4902V11.7383H47.8936V10.4902H53.0352ZM49.6338 8.17871H51.2598V17.6445C51.2598 17.9668 51.3096 18.21 51.4092 18.374C51.5088 18.5381 51.6377 18.6465 51.7959 18.6992C51.9541 18.752 52.124 18.7783 52.3057 18.7783C52.4404 18.7783 52.5811 18.7666 52.7275 18.7432C52.8799 18.7139 52.9941 18.6904 53.0703 18.6729L53.0791 20C52.9502 20.041 52.7803 20.0791 52.5693 20.1143C52.3643 20.1553 52.1152 20.1758 51.8223 20.1758C51.4238 20.1758 51.0576 20.0967 50.7236 19.9385C50.3896 19.7803 50.123 19.5166 49.9238 19.1475C49.7305 18.7725 49.6338 18.2686 49.6338 17.6357V8.17871ZM59.3984 6.5H61.0332V18.1543L60.8926 20H59.3984V6.5ZM67.458 15.166V15.3506C67.458 16.042 67.376 16.6836 67.2119 17.2754C67.0479 17.8613 66.8076 18.3711 66.4912 18.8047C66.1748 19.2383 65.7881 19.5752 65.3311 19.8154C64.874 20.0557 64.3496 20.1758 63.7578 20.1758C63.1543 20.1758 62.624 20.0732 62.167 19.8682C61.7158 19.6572 61.335 19.3555 61.0244 18.9629C60.7139 18.5703 60.4648 18.0957 60.2773 17.5391C60.0957 16.9824 59.9697 16.3555 59.8994 15.6582V14.8496C59.9697 14.1465 60.0957 13.5166 60.2773 12.96C60.4648 12.4033 60.7139 11.9287 61.0244 11.5361C61.335 11.1377 61.7158 10.8359 62.167 10.6309C62.6182 10.4199 63.1426 10.3145 63.7402 10.3145C64.3379 10.3145 64.8682 10.4316 65.3311 10.666C65.7939 10.8945 66.1807 11.2227 66.4912 11.6504C66.8076 12.0781 67.0479 12.5908 67.2119 13.1885C67.376 13.7803 67.458 14.4395 67.458 15.166ZM65.8232 15.3506V15.166C65.8232 14.6914 65.7793 14.2461 65.6914 13.8301C65.6035 13.4082 65.4629 13.0391 65.2695 12.7227C65.0762 12.4004 64.8213 12.1484 64.5049 11.9668C64.1885 11.7793 63.7988 11.6855 63.3359 11.6855C62.9258 11.6855 62.5684 11.7559 62.2637 11.8965C61.9648 12.0371 61.71 12.2275 61.499 12.4678C61.2881 12.7021 61.1152 12.9717 60.9805 13.2764C60.8516 13.5752 60.7549 13.8857 60.6904 14.208V16.3262C60.7842 16.7363 60.9365 17.1318 61.1475 17.5127C61.3643 17.8877 61.6514 18.1953 62.0088 18.4355C62.3721 18.6758 62.8203 18.7959 63.3535 18.7959C63.793 18.7959 64.168 18.708 64.4785 18.5322C64.7949 18.3506 65.0498 18.1016 65.2432 17.7852C65.4424 17.4688 65.5889 17.1025 65.6826 16.6865C65.7764 16.2705 65.8232 15.8252 65.8232 15.3506ZM75.1221 18.374V13.4785C75.1221 13.1035 75.0459 12.7783 74.8936 12.5029C74.7471 12.2217 74.5244 12.0049 74.2256 11.8525C73.9268 11.7002 73.5576 11.624 73.1182 11.624C72.708 11.624 72.3477 11.6943 72.0371 11.835C71.7324 11.9756 71.4922 12.1602 71.3164 12.3887C71.1465 12.6172 71.0615 12.8633 71.0615 13.127H69.4355C69.4355 12.7871 69.5234 12.4502 69.6992 12.1162C69.875 11.7822 70.127 11.4805 70.4551 11.2109C70.7891 10.9355 71.1875 10.7188 71.6504 10.5605C72.1191 10.3965 72.6406 10.3145 73.2148 10.3145C73.9062 10.3145 74.5156 10.4316 75.043 10.666C75.5762 10.9004 75.9922 11.2549 76.291 11.7295C76.5957 12.1982 76.748 12.7871 76.748 13.4961V17.9258C76.748 18.2422 76.7744 18.5791 76.8271 18.9365C76.8857 19.2939 76.9707 19.6016 77.082 19.8594V20H75.3857C75.3037 19.8125 75.2393 19.5635 75.1924 19.2529C75.1455 18.9365 75.1221 18.6436 75.1221 18.374ZM75.4033 14.2344L75.4209 15.377H73.7773C73.3145 15.377 72.9014 15.415 72.5381 15.4912C72.1748 15.5615 71.8701 15.6699 71.624 15.8164C71.3779 15.9629 71.1904 16.1475 71.0615 16.3701C70.9326 16.5869 70.8682 16.8418 70.8682 17.1348C70.8682 17.4336 70.9355 17.7061 71.0703 17.9521C71.2051 18.1982 71.4072 18.3945 71.6768 18.541C71.9521 18.6816 72.2891 18.752 72.6875 18.752C73.1855 18.752 73.625 18.6465 74.0059 18.4355C74.3867 18.2246 74.6885 17.9668 74.9111 17.6621C75.1396 17.3574 75.2627 17.0615 75.2803 16.7744L75.9746 17.5566C75.9336 17.8027 75.8223 18.0752 75.6406 18.374C75.459 18.6729 75.2158 18.96 74.9111 19.2354C74.6123 19.5049 74.2549 19.7305 73.8389 19.9121C73.4287 20.0879 72.9658 20.1758 72.4502 20.1758C71.8057 20.1758 71.2402 20.0498 70.7539 19.7979C70.2734 19.5459 69.8984 19.209 69.6289 18.7871C69.3652 18.3594 69.2334 17.8818 69.2334 17.3545C69.2334 16.8447 69.333 16.3965 69.5322 16.0098C69.7314 15.6172 70.0186 15.292 70.3936 15.0342C70.7686 14.7705 71.2197 14.5713 71.7471 14.4365C72.2744 14.3018 72.8633 14.2344 73.5137 14.2344H75.4033ZM83.1113 18.8398C83.498 18.8398 83.8555 18.7607 84.1836 18.6025C84.5117 18.4443 84.7812 18.2275 84.9922 17.9521C85.2031 17.6709 85.3232 17.3516 85.3525 16.9941H86.8994C86.8701 17.5566 86.6797 18.0811 86.3281 18.5674C85.9824 19.0479 85.5283 19.4375 84.9658 19.7363C84.4033 20.0293 83.7852 20.1758 83.1113 20.1758C82.3965 20.1758 81.7725 20.0498 81.2393 19.7979C80.7119 19.5459 80.2725 19.2002 79.9209 18.7607C79.5752 18.3213 79.3145 17.8174 79.1387 17.249C78.9688 16.6748 78.8838 16.0684 78.8838 15.4297V15.0605C78.8838 14.4219 78.9688 13.8184 79.1387 13.25C79.3145 12.6758 79.5752 12.1689 79.9209 11.7295C80.2725 11.29 80.7119 10.9443 81.2393 10.6924C81.7725 10.4404 82.3965 10.3145 83.1113 10.3145C83.8555 10.3145 84.5059 10.4668 85.0625 10.7715C85.6191 11.0703 86.0557 11.4805 86.3721 12.002C86.6943 12.5176 86.8701 13.1035 86.8994 13.7598H85.3525C85.3232 13.3672 85.2119 13.0127 85.0186 12.6963C84.8311 12.3799 84.5732 12.1279 84.2451 11.9404C83.9229 11.7471 83.5449 11.6504 83.1113 11.6504C82.6133 11.6504 82.1943 11.75 81.8545 11.9492C81.5205 12.1426 81.2539 12.4062 81.0547 12.7402C80.8613 13.0684 80.7207 13.4346 80.6328 13.8389C80.5508 14.2373 80.5098 14.6445 80.5098 15.0605V15.4297C80.5098 15.8457 80.5508 16.2559 80.6328 16.6602C80.7148 17.0645 80.8525 17.4307 81.0459 17.7588C81.2451 18.0869 81.5117 18.3506 81.8457 18.5498C82.1855 18.7432 82.6074 18.8398 83.1113 18.8398ZM90.3623 6.5V20H88.7275V6.5H90.3623ZM96.1719 10.4902L92.0234 14.9287L89.7031 17.3369L89.5713 15.6055L91.2324 13.6191L94.1855 10.4902H96.1719ZM94.6865 20L91.2939 15.4648L92.1377 14.0146L96.6025 20H94.6865ZM106.297 10.4902V11.7383H101.155V10.4902H106.297ZM102.896 8.17871H104.521V17.6445C104.521 17.9668 104.571 18.21 104.671 18.374C104.771 18.5381 104.899 18.6465 105.058 18.6992C105.216 18.752 105.386 18.7783 105.567 18.7783C105.702 18.7783 105.843 18.7666 105.989 18.7432C106.142 18.7139 106.256 18.6904 106.332 18.6729L106.341 20C106.212 20.041 106.042 20.0791 105.831 20.1143C105.626 20.1553 105.377 20.1758 105.084 20.1758C104.686 20.1758 104.319 20.0967 103.985 19.9385C103.651 19.7803 103.385 19.5166 103.186 19.1475C102.992 18.7725 102.896 18.2686 102.896 17.6357V8.17871ZM107.598 15.3506V15.1484C107.598 14.4629 107.697 13.8271 107.896 13.2412C108.096 12.6494 108.383 12.1367 108.758 11.7031C109.133 11.2637 109.587 10.9238 110.12 10.6836C110.653 10.4375 111.251 10.3145 111.913 10.3145C112.581 10.3145 113.182 10.4375 113.715 10.6836C114.254 10.9238 114.711 11.2637 115.086 11.7031C115.467 12.1367 115.757 12.6494 115.956 13.2412C116.155 13.8271 116.255 14.4629 116.255 15.1484V15.3506C116.255 16.0361 116.155 16.6719 115.956 17.2578C115.757 17.8438 115.467 18.3564 115.086 18.7959C114.711 19.2295 114.257 19.5693 113.724 19.8154C113.196 20.0557 112.599 20.1758 111.931 20.1758C111.263 20.1758 110.662 20.0557 110.129 19.8154C109.596 19.5693 109.139 19.2295 108.758 18.7959C108.383 18.3564 108.096 17.8438 107.896 17.2578C107.697 16.6719 107.598 16.0361 107.598 15.3506ZM109.224 15.1484V15.3506C109.224 15.8252 109.279 16.2734 109.391 16.6953C109.502 17.1113 109.669 17.4805 109.892 17.8027C110.12 18.125 110.404 18.3799 110.744 18.5674C111.084 18.749 111.479 18.8398 111.931 18.8398C112.376 18.8398 112.766 18.749 113.1 18.5674C113.439 18.3799 113.721 18.125 113.943 17.8027C114.166 17.4805 114.333 17.1113 114.444 16.6953C114.562 16.2734 114.62 15.8252 114.62 15.3506V15.1484C114.62 14.6797 114.562 14.2373 114.444 13.8213C114.333 13.3994 114.163 13.0273 113.935 12.7051C113.712 12.377 113.431 12.1191 113.091 11.9316C112.757 11.7441 112.364 11.6504 111.913 11.6504C111.468 11.6504 111.075 11.7441 110.735 11.9316C110.401 12.1191 110.12 12.377 109.892 12.7051C109.669 13.0273 109.502 13.3994 109.391 13.8213C109.279 14.2373 109.224 14.6797 109.224 15.1484ZM124.385 12.3184V23.6562H122.75V10.4902H124.244L124.385 12.3184ZM130.792 15.166V15.3506C130.792 16.042 130.71 16.6836 130.546 17.2754C130.382 17.8613 130.142 18.3711 129.825 18.8047C129.515 19.2383 129.131 19.5752 128.674 19.8154C128.217 20.0557 127.692 20.1758 127.101 20.1758C126.497 20.1758 125.964 20.0762 125.501 19.877C125.038 19.6777 124.646 19.3877 124.323 19.0068C124.001 18.626 123.743 18.1689 123.55 17.6357C123.362 17.1025 123.233 16.502 123.163 15.834V14.8496C123.233 14.1465 123.365 13.5166 123.559 12.96C123.752 12.4033 124.007 11.9287 124.323 11.5361C124.646 11.1377 125.035 10.8359 125.492 10.6309C125.949 10.4199 126.477 10.3145 127.074 10.3145C127.672 10.3145 128.202 10.4316 128.665 10.666C129.128 10.8945 129.518 11.2227 129.834 11.6504C130.15 12.0781 130.388 12.5908 130.546 13.1885C130.71 13.7803 130.792 14.4395 130.792 15.166ZM129.157 15.3506V15.166C129.157 14.6914 129.107 14.2461 129.008 13.8301C128.908 13.4082 128.753 13.0391 128.542 12.7227C128.337 12.4004 128.073 12.1484 127.751 11.9668C127.429 11.7793 127.045 11.6855 126.6 11.6855C126.189 11.6855 125.832 11.7559 125.527 11.8965C125.229 12.0371 124.974 12.2275 124.763 12.4678C124.552 12.7021 124.379 12.9717 124.244 13.2764C124.115 13.5752 124.019 13.8857 123.954 14.208V16.4844C124.071 16.8945 124.235 17.2812 124.446 17.6445C124.657 18.002 124.938 18.292 125.29 18.5146C125.642 18.7314 126.084 18.8398 126.617 18.8398C127.057 18.8398 127.435 18.749 127.751 18.5674C128.073 18.3799 128.337 18.125 128.542 17.8027C128.753 17.4805 128.908 17.1113 129.008 16.6953C129.107 16.2734 129.157 15.8252 129.157 15.3506ZM134.492 11.9844V20H132.866V10.4902H134.448L134.492 11.9844ZM137.463 10.4375L137.454 11.9492C137.319 11.9199 137.19 11.9023 137.067 11.8965C136.95 11.8848 136.815 11.8789 136.663 11.8789C136.288 11.8789 135.957 11.9375 135.67 12.0547C135.383 12.1719 135.14 12.3359 134.94 12.5469C134.741 12.7578 134.583 13.0098 134.466 13.3027C134.354 13.5898 134.281 13.9062 134.246 14.252L133.789 14.5156C133.789 13.9414 133.845 13.4023 133.956 12.8984C134.073 12.3945 134.252 11.9492 134.492 11.5625C134.732 11.1699 135.037 10.8652 135.406 10.6484C135.781 10.4258 136.227 10.3145 136.742 10.3145C136.859 10.3145 136.994 10.3291 137.146 10.3584C137.299 10.3818 137.404 10.4082 137.463 10.4375ZM142.736 20.1758C142.074 20.1758 141.474 20.0645 140.935 19.8418C140.401 19.6133 139.941 19.2939 139.555 18.8838C139.174 18.4736 138.881 17.9873 138.676 17.4248C138.471 16.8623 138.368 16.2471 138.368 15.5791V15.21C138.368 14.4365 138.482 13.748 138.711 13.1445C138.939 12.5352 139.25 12.0195 139.643 11.5977C140.035 11.1758 140.48 10.8564 140.979 10.6396C141.477 10.4229 141.992 10.3145 142.525 10.3145C143.205 10.3145 143.791 10.4316 144.283 10.666C144.781 10.9004 145.188 11.2285 145.505 11.6504C145.821 12.0664 146.056 12.5586 146.208 13.127C146.36 13.6895 146.437 14.3047 146.437 14.9727V15.7021H139.335V14.375H144.811V14.252C144.787 13.8301 144.699 13.4199 144.547 13.0215C144.4 12.623 144.166 12.2949 143.844 12.0371C143.521 11.7793 143.082 11.6504 142.525 11.6504C142.156 11.6504 141.816 11.7295 141.506 11.8877C141.195 12.04 140.929 12.2686 140.706 12.5732C140.483 12.8779 140.311 13.25 140.188 13.6895C140.064 14.1289 140.003 14.6357 140.003 15.21V15.5791C140.003 16.0303 140.064 16.4551 140.188 16.8535C140.316 17.2461 140.501 17.5918 140.741 17.8906C140.987 18.1895 141.283 18.4238 141.629 18.5938C141.98 18.7637 142.379 18.8486 142.824 18.8486C143.398 18.8486 143.885 18.7314 144.283 18.4971C144.682 18.2627 145.03 17.9492 145.329 17.5566L146.313 18.3389C146.108 18.6494 145.848 18.9453 145.531 19.2266C145.215 19.5078 144.825 19.7363 144.362 19.9121C143.905 20.0879 143.363 20.1758 142.736 20.1758ZM153.872 17.4775C153.872 17.2432 153.819 17.0264 153.714 16.8271C153.614 16.6221 153.406 16.4375 153.09 16.2734C152.779 16.1035 152.311 15.957 151.684 15.834C151.156 15.7227 150.679 15.5908 150.251 15.4385C149.829 15.2861 149.469 15.1016 149.17 14.8848C148.877 14.668 148.651 14.4131 148.493 14.1201C148.335 13.8271 148.256 13.4844 148.256 13.0918C148.256 12.7168 148.338 12.3623 148.502 12.0283C148.672 11.6943 148.909 11.3984 149.214 11.1406C149.524 10.8828 149.896 10.6807 150.33 10.5342C150.764 10.3877 151.247 10.3145 151.78 10.3145C152.542 10.3145 153.192 10.4492 153.731 10.7188C154.271 10.9883 154.684 11.3486 154.971 11.7998C155.258 12.2451 155.401 12.7402 155.401 13.2852H153.775C153.775 13.0215 153.696 12.7666 153.538 12.5205C153.386 12.2686 153.16 12.0605 152.861 11.8965C152.568 11.7324 152.208 11.6504 151.78 11.6504C151.329 11.6504 150.963 11.7207 150.682 11.8613C150.406 11.9961 150.204 12.1689 150.075 12.3799C149.952 12.5908 149.891 12.8135 149.891 13.0479C149.891 13.2236 149.92 13.3818 149.979 13.5225C150.043 13.6572 150.154 13.7832 150.312 13.9004C150.471 14.0117 150.693 14.1172 150.98 14.2168C151.268 14.3164 151.634 14.416 152.079 14.5156C152.858 14.6914 153.5 14.9023 154.004 15.1484C154.508 15.3945 154.883 15.6963 155.129 16.0537C155.375 16.4111 155.498 16.8447 155.498 17.3545C155.498 17.7705 155.41 18.1514 155.234 18.4971C155.064 18.8428 154.815 19.1416 154.487 19.3936C154.165 19.6396 153.778 19.833 153.327 19.9736C152.882 20.1084 152.381 20.1758 151.824 20.1758C150.986 20.1758 150.277 20.0264 149.697 19.7275C149.117 19.4287 148.678 19.042 148.379 18.5674C148.08 18.0928 147.931 17.5918 147.931 17.0645H149.565C149.589 17.5098 149.718 17.8643 149.952 18.1279C150.187 18.3857 150.474 18.5703 150.813 18.6816C151.153 18.7871 151.49 18.8398 151.824 18.8398C152.27 18.8398 152.642 18.7812 152.94 18.6641C153.245 18.5469 153.477 18.3857 153.635 18.1807C153.793 17.9756 153.872 17.7412 153.872 17.4775ZM163.241 18.374V13.4785C163.241 13.1035 163.165 12.7783 163.013 12.5029C162.866 12.2217 162.644 12.0049 162.345 11.8525C162.046 11.7002 161.677 11.624 161.237 11.624C160.827 11.624 160.467 11.6943 160.156 11.835C159.852 11.9756 159.611 12.1602 159.436 12.3887C159.266 12.6172 159.181 12.8633 159.181 13.127H157.555C157.555 12.7871 157.643 12.4502 157.818 12.1162C157.994 11.7822 158.246 11.4805 158.574 11.2109C158.908 10.9355 159.307 10.7188 159.77 10.5605C160.238 10.3965 160.76 10.3145 161.334 10.3145C162.025 10.3145 162.635 10.4316 163.162 10.666C163.695 10.9004 164.111 11.2549 164.41 11.7295C164.715 12.1982 164.867 12.7871 164.867 13.4961V17.9258C164.867 18.2422 164.894 18.5791 164.946 18.9365C165.005 19.2939 165.09 19.6016 165.201 19.8594V20H163.505C163.423 19.8125 163.358 19.5635 163.312 19.2529C163.265 18.9365 163.241 18.6436 163.241 18.374ZM163.522 14.2344L163.54 15.377H161.896C161.434 15.377 161.021 15.415 160.657 15.4912C160.294 15.5615 159.989 15.6699 159.743 15.8164C159.497 15.9629 159.31 16.1475 159.181 16.3701C159.052 16.5869 158.987 16.8418 158.987 17.1348C158.987 17.4336 159.055 17.7061 159.189 17.9521C159.324 18.1982 159.526 18.3945 159.796 18.541C160.071 18.6816 160.408 18.752 160.807 18.752C161.305 18.752 161.744 18.6465 162.125 18.4355C162.506 18.2246 162.808 17.9668 163.03 17.6621C163.259 17.3574 163.382 17.0615 163.399 16.7744L164.094 17.5566C164.053 17.8027 163.941 18.0752 163.76 18.374C163.578 18.6729 163.335 18.96 163.03 19.2354C162.731 19.5049 162.374 19.7305 161.958 19.9121C161.548 20.0879 161.085 20.1758 160.569 20.1758C159.925 20.1758 159.359 20.0498 158.873 19.7979C158.393 19.5459 158.018 19.209 157.748 18.7871C157.484 18.3594 157.353 17.8818 157.353 17.3545C157.353 16.8447 157.452 16.3965 157.651 16.0098C157.851 15.6172 158.138 15.292 158.513 15.0342C158.888 14.7705 159.339 14.5713 159.866 14.4365C160.394 14.3018 160.982 14.2344 161.633 14.2344H163.522ZM169.191 6.5V20H167.557V6.5H169.191ZM175.748 20.1758C175.086 20.1758 174.485 20.0645 173.946 19.8418C173.413 19.6133 172.953 19.2939 172.566 18.8838C172.186 18.4736 171.893 17.9873 171.688 17.4248C171.482 16.8623 171.38 16.2471 171.38 15.5791V15.21C171.38 14.4365 171.494 13.748 171.723 13.1445C171.951 12.5352 172.262 12.0195 172.654 11.5977C173.047 11.1758 173.492 10.8564 173.99 10.6396C174.488 10.4229 175.004 10.3145 175.537 10.3145C176.217 10.3145 176.803 10.4316 177.295 10.666C177.793 10.9004 178.2 11.2285 178.517 11.6504C178.833 12.0664 179.067 12.5586 179.22 13.127C179.372 13.6895 179.448 14.3047 179.448 14.9727V15.7021H172.347V14.375H177.822V14.252C177.799 13.8301 177.711 13.4199 177.559 13.0215C177.412 12.623 177.178 12.2949 176.855 12.0371C176.533 11.7793 176.094 11.6504 175.537 11.6504C175.168 11.6504 174.828 11.7295 174.518 11.8877C174.207 12.04 173.94 12.2686 173.718 12.5732C173.495 12.8779 173.322 13.25 173.199 13.6895C173.076 14.1289 173.015 14.6357 173.015 15.21V15.5791C173.015 16.0303 173.076 16.4551 173.199 16.8535C173.328 17.2461 173.513 17.5918 173.753 17.8906C173.999 18.1895 174.295 18.4238 174.641 18.5938C174.992 18.7637 175.391 18.8486 175.836 18.8486C176.41 18.8486 176.896 18.7314 177.295 18.4971C177.693 18.2627 178.042 17.9492 178.341 17.5566L179.325 18.3389C179.12 18.6494 178.859 18.9453 178.543 19.2266C178.227 19.5078 177.837 19.7363 177.374 19.9121C176.917 20.0879 176.375 20.1758 175.748 20.1758ZM187.438 12.3184V23.6562H185.803V10.4902H187.297L187.438 12.3184ZM193.845 15.166V15.3506C193.845 16.042 193.763 16.6836 193.599 17.2754C193.435 17.8613 193.194 18.3711 192.878 18.8047C192.567 19.2383 192.184 19.5752 191.727 19.8154C191.27 20.0557 190.745 20.1758 190.153 20.1758C189.55 20.1758 189.017 20.0762 188.554 19.877C188.091 19.6777 187.698 19.3877 187.376 19.0068C187.054 18.626 186.796 18.1689 186.603 17.6357C186.415 17.1025 186.286 16.502 186.216 15.834V14.8496C186.286 14.1465 186.418 13.5166 186.611 12.96C186.805 12.4033 187.06 11.9287 187.376 11.5361C187.698 11.1377 188.088 10.8359 188.545 10.6309C189.002 10.4199 189.529 10.3145 190.127 10.3145C190.725 10.3145 191.255 10.4316 191.718 10.666C192.181 10.8945 192.57 11.2227 192.887 11.6504C193.203 12.0781 193.44 12.5908 193.599 13.1885C193.763 13.7803 193.845 14.4395 193.845 15.166ZM192.21 15.3506V15.166C192.21 14.6914 192.16 14.2461 192.061 13.8301C191.961 13.4082 191.806 13.0391 191.595 12.7227C191.39 12.4004 191.126 12.1484 190.804 11.9668C190.481 11.7793 190.098 11.6855 189.652 11.6855C189.242 11.6855 188.885 11.7559 188.58 11.8965C188.281 12.0371 188.026 12.2275 187.815 12.4678C187.604 12.7021 187.432 12.9717 187.297 13.2764C187.168 13.5752 187.071 13.8857 187.007 14.208V16.4844C187.124 16.8945 187.288 17.2812 187.499 17.6445C187.71 18.002 187.991 18.292 188.343 18.5146C188.694 18.7314 189.137 18.8398 189.67 18.8398C190.109 18.8398 190.487 18.749 190.804 18.5674C191.126 18.3799 191.39 18.125 191.595 17.8027C191.806 17.4805 191.961 17.1113 192.061 16.6953C192.16 16.2734 192.21 15.8252 192.21 15.3506ZM201.526 18.374V13.4785C201.526 13.1035 201.45 12.7783 201.298 12.5029C201.151 12.2217 200.929 12.0049 200.63 11.8525C200.331 11.7002 199.962 11.624 199.522 11.624C199.112 11.624 198.752 11.6943 198.441 11.835C198.137 11.9756 197.896 12.1602 197.721 12.3887C197.551 12.6172 197.466 12.8633 197.466 13.127H195.84C195.84 12.7871 195.928 12.4502 196.104 12.1162C196.279 11.7822 196.531 11.4805 196.859 11.2109C197.193 10.9355 197.592 10.7188 198.055 10.5605C198.523 10.3965 199.045 10.3145 199.619 10.3145C200.311 10.3145 200.92 10.4316 201.447 10.666C201.98 10.9004 202.396 11.2549 202.695 11.7295C203 12.1982 203.152 12.7871 203.152 13.4961V17.9258C203.152 18.2422 203.179 18.5791 203.231 18.9365C203.29 19.2939 203.375 19.6016 203.486 19.8594V20H201.79C201.708 19.8125 201.644 19.5635 201.597 19.2529C201.55 18.9365 201.526 18.6436 201.526 18.374ZM201.808 14.2344L201.825 15.377H200.182C199.719 15.377 199.306 15.415 198.942 15.4912C198.579 15.5615 198.274 15.6699 198.028 15.8164C197.782 15.9629 197.595 16.1475 197.466 16.3701C197.337 16.5869 197.272 16.8418 197.272 17.1348C197.272 17.4336 197.34 17.7061 197.475 17.9521C197.609 18.1982 197.812 18.3945 198.081 18.541C198.356 18.6816 198.693 18.752 199.092 18.752C199.59 18.752 200.029 18.6465 200.41 18.4355C200.791 18.2246 201.093 17.9668 201.315 17.6621C201.544 17.3574 201.667 17.0615 201.685 16.7744L202.379 17.5566C202.338 17.8027 202.227 18.0752 202.045 18.374C201.863 18.6729 201.62 18.96 201.315 19.2354C201.017 19.5049 200.659 19.7305 200.243 19.9121C199.833 20.0879 199.37 20.1758 198.854 20.1758C198.21 20.1758 197.645 20.0498 197.158 19.7979C196.678 19.5459 196.303 19.209 196.033 18.7871C195.77 18.3594 195.638 17.8818 195.638 17.3545C195.638 16.8447 195.737 16.3965 195.937 16.0098C196.136 15.6172 196.423 15.292 196.798 15.0342C197.173 14.7705 197.624 14.5713 198.151 14.4365C198.679 14.3018 199.268 14.2344 199.918 14.2344H201.808ZM211.871 10.4902H213.348V19.7979C213.348 20.6357 213.178 21.3506 212.838 21.9424C212.498 22.5342 212.023 22.9824 211.414 23.2871C210.811 23.5977 210.113 23.7529 209.322 23.7529C208.994 23.7529 208.607 23.7002 208.162 23.5947C207.723 23.4951 207.289 23.3223 206.861 23.0762C206.439 22.8359 206.085 22.5107 205.798 22.1006L206.65 21.1338C207.049 21.6143 207.465 21.9482 207.898 22.1357C208.338 22.3232 208.771 22.417 209.199 22.417C209.715 22.417 210.16 22.3203 210.535 22.127C210.91 21.9336 211.2 21.6465 211.405 21.2656C211.616 20.8906 211.722 20.4277 211.722 19.877V12.582L211.871 10.4902ZM205.323 15.3506V15.166C205.323 14.4395 205.408 13.7803 205.578 13.1885C205.754 12.5908 206.003 12.0781 206.325 11.6504C206.653 11.2227 207.049 10.8945 207.512 10.666C207.975 10.4316 208.496 10.3145 209.076 10.3145C209.674 10.3145 210.195 10.4199 210.641 10.6309C211.092 10.8359 211.473 11.1377 211.783 11.5361C212.1 11.9287 212.349 12.4033 212.53 12.96C212.712 13.5166 212.838 14.1465 212.908 14.8496V15.6582C212.844 16.3555 212.718 16.9824 212.53 17.5391C212.349 18.0957 212.1 18.5703 211.783 18.9629C211.473 19.3555 211.092 19.6572 210.641 19.8682C210.189 20.0732 209.662 20.1758 209.059 20.1758C208.49 20.1758 207.975 20.0557 207.512 19.8154C207.055 19.5752 206.662 19.2383 206.334 18.8047C206.006 18.3711 205.754 17.8613 205.578 17.2754C205.408 16.6836 205.323 16.042 205.323 15.3506ZM206.949 15.166V15.3506C206.949 15.8252 206.996 16.2705 207.09 16.6865C207.189 17.1025 207.339 17.4688 207.538 17.7852C207.743 18.1016 208.004 18.3506 208.32 18.5322C208.637 18.708 209.015 18.7959 209.454 18.7959C209.993 18.7959 210.438 18.6816 210.79 18.4531C211.142 18.2246 211.42 17.9229 211.625 17.5479C211.836 17.1729 212 16.7656 212.117 16.3262V14.208C212.053 13.8857 211.953 13.5752 211.818 13.2764C211.689 12.9717 211.52 12.7021 211.309 12.4678C211.104 12.2275 210.849 12.0371 210.544 11.8965C210.239 11.7559 209.882 11.6855 209.472 11.6855C209.026 11.6855 208.643 11.7793 208.32 11.9668C208.004 12.1484 207.743 12.4004 207.538 12.7227C207.339 13.0391 207.189 13.4082 207.09 13.8301C206.996 14.2461 206.949 14.6914 206.949 15.166ZM219.764 20.1758C219.102 20.1758 218.501 20.0645 217.962 19.8418C217.429 19.6133 216.969 19.2939 216.582 18.8838C216.201 18.4736 215.908 17.9873 215.703 17.4248C215.498 16.8623 215.396 16.2471 215.396 15.5791V15.21C215.396 14.4365 215.51 13.748 215.738 13.1445C215.967 12.5352 216.277 12.0195 216.67 11.5977C217.062 11.1758 217.508 10.8564 218.006 10.6396C218.504 10.4229 219.02 10.3145 219.553 10.3145C220.232 10.3145 220.818 10.4316 221.311 10.666C221.809 10.9004 222.216 11.2285 222.532 11.6504C222.849 12.0664 223.083 12.5586 223.235 13.127C223.388 13.6895 223.464 14.3047 223.464 14.9727V15.7021H216.362V14.375H221.838V14.252C221.814 13.8301 221.727 13.4199 221.574 13.0215C221.428 12.623 221.193 12.2949 220.871 12.0371C220.549 11.7793 220.109 11.6504 219.553 11.6504C219.184 11.6504 218.844 11.7295 218.533 11.8877C218.223 12.04 217.956 12.2686 217.733 12.5732C217.511 12.8779 217.338 13.25 217.215 13.6895C217.092 14.1289 217.03 14.6357 217.03 15.21V15.5791C217.03 16.0303 217.092 16.4551 217.215 16.8535C217.344 17.2461 217.528 17.5918 217.769 17.8906C218.015 18.1895 218.311 18.4238 218.656 18.5938C219.008 18.7637 219.406 18.8486 219.852 18.8486C220.426 18.8486 220.912 18.7314 221.311 18.4971C221.709 18.2627 222.058 17.9492 222.356 17.5566L223.341 18.3389C223.136 18.6494 222.875 18.9453 222.559 19.2266C222.242 19.5078 221.853 19.7363 221.39 19.9121C220.933 20.0879 220.391 20.1758 219.764 20.1758Z" fill="#1C95E7"/>
    <defs>
        <linearGradient id="paint0_linear_10673_88920" x1="8.66797" y1="9" x2="14.9773" y2="9.08551" gradientUnits="userSpaceOnUse">
            <stop stop-color="#28A0F0"/>
            <stop offset="1" stop-color="#0678C4" stop-opacity="0.9917"/>
        </linearGradient>
    </defs>
</svg>
