<svg width="460" height="80" viewBox="0 0 460 80" fill="none" xmlns="http://www.w3.org/2000/svg">
    <path fill-rule="evenodd" clip-rule="evenodd" d="M67.7966 12.2034H17.6271V0H67.7966C74.5363 0 79.9999 5.4635 80 12.2031H67.7969V12.2034H67.7966ZM67.7969 16.2712H67.7966V67.7949H67.7969V79.9983H67.7966V80C74.5364 80 80 74.5364 80 67.7966V17.6269H67.7969V16.2712ZM12.2034 67.7966H62.3731V79.9983H63.7288V80H12.2034C5.46364 80 0 74.5364 0 67.7966H12.2034ZM12.2034 0V12.2034V62.3729H0V12.2034C0 5.46364 5.46364 0 12.2034 0Z" fill="url(#paint0_linear_10306_84566)"/>
    <path fill-rule="evenodd" clip-rule="evenodd" d="M37.3079 24.4082C36.9213 24.4082 36.6079 24.7216 36.6079 25.1082V35.2559H26.4617C26.0751 35.2559 25.7617 35.5693 25.7617 35.9559V42.6915C25.7617 43.0781 26.0751 43.3915 26.4617 43.3915H36.6079V53.5387C36.6079 53.9253 36.9213 54.2387 37.3079 54.2387H44.0434C44.43 54.2387 44.7435 53.9253 44.7435 53.5387V43.3915H54.8922C55.2788 43.3915 55.5922 43.0781 55.5922 42.6915V35.9559C55.5922 35.5693 55.2788 35.2559 54.8922 35.2559H44.7435V25.1082C44.7435 24.7216 44.43 24.4082 44.0434 24.4082H37.3079Z" fill="url(#paint1_linear_10306_84566)"/>
    <path d="M119.581 60.7234C115.835 60.7234 112.494 59.9641 109.558 58.4454C106.673 56.8762 104.395 54.6488 102.725 51.7634C101.054 48.878 100.219 45.461 100.219 41.5126V40.3736C100.219 36.4251 101.054 33.0335 102.725 30.1987C104.395 27.3132 106.673 25.0859 109.558 23.5166C112.494 21.9474 115.835 21.1627 119.581 21.1627C123.327 21.1627 126.668 21.9474 129.605 23.5166C132.541 25.0859 134.844 27.3132 136.514 30.1987C138.185 33.0335 139.02 36.4251 139.02 40.3736V41.5126C139.02 45.461 138.185 48.878 136.514 51.7634C134.844 54.6488 132.541 56.8762 129.605 58.4454C126.668 59.9641 123.327 60.7234 119.581 60.7234ZM119.581 53.7376C123.024 53.7376 125.808 52.6493 127.934 50.4726C130.111 48.2452 131.199 45.1826 131.199 41.2848V40.6014C131.199 36.7035 130.136 33.6662 128.01 31.4895C125.884 29.2622 123.074 28.1485 119.581 28.1485C116.19 28.1485 113.406 29.2622 111.229 31.4895C109.103 33.6662 108.04 36.7035 108.04 40.6014V41.2848C108.04 45.1826 109.103 48.2452 111.229 50.4726C113.406 52.6493 116.19 53.7376 119.581 53.7376Z" fill="white"/>
    <path d="M157.597 59.6604L144.993 22.2258H153.269L163.216 53.8895H164.431L174.378 22.2258H182.655L170.05 59.6604H157.597Z" fill="white"/>
    <path d="M207.589 60.7234C203.792 60.7234 200.476 59.9388 197.642 58.3695C194.807 56.7496 192.579 54.497 190.96 51.6115C189.39 48.6755 188.606 45.2839 188.606 41.4366V40.5254C188.606 36.6276 189.39 33.236 190.96 30.3505C192.529 27.4145 194.705 25.1618 197.49 23.5926C200.324 21.9727 203.59 21.1627 207.285 21.1627C210.879 21.1627 214.018 21.9727 216.701 23.5926C219.434 25.1618 221.56 27.3639 223.079 30.1987C224.597 33.0335 225.357 36.3492 225.357 40.1458V43.1071H196.578C196.68 46.3975 197.768 49.0298 199.844 51.0041C201.97 52.9277 204.602 53.8895 207.741 53.8895C210.677 53.8895 212.879 53.2314 214.347 51.9153C215.865 50.5991 217.03 49.0805 217.84 47.3593L224.294 50.7004C223.585 52.1178 222.547 53.6111 221.181 55.1804C219.864 56.7496 218.118 58.0658 215.941 59.1288C213.764 60.1919 210.98 60.7234 207.589 60.7234ZM196.654 37.1085H217.384C217.181 34.2737 216.169 32.0717 214.347 30.5024C212.524 28.8825 210.145 28.0726 207.209 28.0726C204.273 28.0726 201.868 28.8825 199.995 30.5024C198.173 32.0717 197.059 34.2737 196.654 37.1085Z" fill="white"/>
    <path d="M236.29 59.6604V22.2258H243.959V26.6298H245.174C245.781 25.0606 246.743 23.9216 248.059 23.2129C249.426 22.4536 251.097 22.0739 253.071 22.0739H257.551V29.1356H252.767C250.236 29.1356 248.161 29.8443 246.541 31.2617C244.921 32.6285 244.111 34.7546 244.111 37.64V59.6604H236.29Z" fill="white"/>
    <path d="M267.173 59.6604V22.2258H274.842V27.8448H276.057C276.766 26.3261 278.031 24.9087 279.854 23.5926C281.676 22.2764 284.384 21.6183 287.978 21.6183C290.813 21.6183 293.319 22.2511 295.496 23.5166C297.723 24.7822 299.469 26.5792 300.735 28.9078C302 31.1858 302.633 33.9447 302.633 37.1844V59.6604H294.812V37.7919C294.812 34.5521 294.002 32.1729 292.382 30.6543C290.762 29.085 288.535 28.3004 285.7 28.3004C282.461 28.3004 279.854 29.3634 277.879 31.4895C275.956 33.6156 274.994 36.7035 274.994 40.7532V59.6604H267.173Z" fill="white"/>
    <path d="M315.408 59.6604V22.2258H323.229V59.6604H315.408ZM319.356 17.1383C317.837 17.1383 316.547 16.6574 315.484 15.6956C314.471 14.6832 313.965 13.3923 313.965 11.8231C313.965 10.2538 314.471 8.98827 315.484 8.02646C316.547 7.01403 317.837 6.50781 319.356 6.50781C320.925 6.50781 322.216 7.01403 323.229 8.02646C324.241 8.98827 324.747 10.2538 324.747 11.8231C324.747 13.3923 324.241 14.6832 323.229 15.6956C322.216 16.6574 320.925 17.1383 319.356 17.1383Z" fill="white"/>
    <path d="M334.532 41.1329V39.9939C334.532 36.0454 335.316 32.6791 336.886 29.8949C338.506 27.1108 340.632 24.9593 343.264 23.4407C345.896 21.9221 348.782 21.1627 351.92 21.1627C355.565 21.1627 358.349 21.8461 360.273 23.2129C362.247 24.5797 363.69 26.0477 364.601 27.617H365.816V22.2258H373.409V67.3295C373.409 69.6075 372.726 71.4299 371.359 72.7966C370.043 74.1634 368.22 74.8468 365.892 74.8468H346.106C343.111 74.8468 340.682 72.4185 340.682 69.4231V68.0129H363.462C364.93 68.0129 365.664 67.2536 365.664 65.7349V53.8136H364.449C363.892 54.7248 363.108 55.6613 362.095 56.6231C361.083 57.5849 359.741 58.3695 358.071 58.977C356.451 59.5844 354.401 59.8882 351.92 59.8882C348.782 59.8882 345.871 59.1541 343.188 57.6861C340.556 56.1675 338.455 54.0161 336.886 51.2319C335.316 48.3971 334.532 45.0308 334.532 41.1329ZM354.046 53.0543C357.438 53.0543 360.222 51.9912 362.399 49.8651C364.626 47.6884 365.74 44.7017 365.74 40.9051V40.2217C365.74 36.3239 364.652 33.3372 362.475 31.2617C360.298 29.1356 357.489 28.0726 354.046 28.0726C350.705 28.0726 347.921 29.1356 345.694 31.2617C343.517 33.3372 342.429 36.3239 342.429 40.2217V40.9051C342.429 44.7017 343.517 47.6884 345.694 49.8651C347.921 51.9912 350.705 53.0543 354.046 53.0543Z" fill="white"/>
    <path d="M386.443 59.6604V6.50781H394.264V27.541H395.479C395.985 26.5792 396.694 25.6427 397.605 24.7315C398.567 23.8204 399.807 23.0863 401.326 22.5295C402.895 21.9221 404.869 21.6183 407.248 21.6183C410.083 21.6183 412.589 22.2511 414.766 23.5166C416.993 24.7822 418.739 26.5792 420.005 28.9078C421.27 31.1858 421.903 33.9447 421.903 37.1844V59.6604H414.082V37.7919C414.082 34.5521 413.272 32.1729 411.652 30.6543C410.032 29.085 407.805 28.3004 404.97 28.3004C401.73 28.3004 399.123 29.3634 397.149 31.4895C395.226 33.6156 394.264 36.7035 394.264 40.7532V59.6604H386.443Z" fill="white"/>
    <path d="M447.687 59.6604C445.409 59.6604 443.587 58.977 442.22 57.6102C440.904 56.2434 440.246 54.421 440.246 52.1431V28.8319H429.919V22.2258H440.246V9.84883H448.067V22.2258H459.229V28.8319H448.067V50.7763C448.067 52.2949 448.775 53.0543 450.193 53.0543H458.014V59.6604H447.687Z" fill="white"/>
    <defs>
        <linearGradient id="paint0_linear_10306_84566" x1="0" y1="0" x2="81.7165" y2="1.7935" gradientUnits="userSpaceOnUse">
            <stop stop-color="#28A0F0"/>
            <stop offset="1" stop-color="#0678C4" stop-opacity="0.9917"/>
        </linearGradient>
        <linearGradient id="paint1_linear_10306_84566" x1="25.7617" y1="24.4082" x2="56.2323" y2="25.077" gradientUnits="userSpaceOnUse">
            <stop stop-color="#28A0F0"/>
            <stop offset="1" stop-color="#0678C4" stop-opacity="0.9917"/>
        </linearGradient>
    </defs>
</svg>
