<svg width="27" height="26" viewBox="0 0 27 26" fill="none" xmlns="http://www.w3.org/2000/svg">
    <path d="M24.0283 19.8868C24.012 19.9001 23.9957 19.912 23.9794 19.9238C23.9631 19.9357 23.9453 19.9476 23.929 19.9594C23.8964 19.9817 23.8637 20.0039 23.8311 20.0247L23.8193 20.0321C23.7926 20.0499 23.7644 20.0662 23.7363 20.0825C23.6947 20.1077 23.6547 20.1314 23.6117 20.1536C23.3256 20.3122 23.0262 20.4412 22.7193 20.5539C22.4302 20.6606 22.1367 20.7525 21.8417 20.8356C21.4177 20.9541 20.9878 21.052 20.5564 21.138C20.1354 21.2225 19.7144 21.2936 19.2904 21.3559C18.8664 21.4181 18.441 21.4686 18.0155 21.513C17.8762 21.5278 17.7368 21.5412 17.596 21.5545C17.3158 21.5797 17.0356 21.602 16.7554 21.6212C16.6146 21.6301 16.4753 21.639 16.3344 21.6479C16.0202 21.6657 15.7059 21.6791 15.3916 21.6894C15.3353 21.6909 15.2775 21.6939 15.2196 21.6954C15.1678 21.6968 15.1144 21.6983 15.0625 21.6998C15.1915 21.5412 15.3204 21.3826 15.4376 21.2151C15.4539 21.1943 15.4717 21.1735 15.488 21.1513C15.7533 20.794 16.0083 20.4294 16.2514 20.0573C16.2766 20.0573 16.3003 20.0543 16.3255 20.0528C16.4797 20.0439 16.6339 20.035 16.7895 20.0232C16.9067 20.0158 17.0238 20.0069 17.1409 19.998C17.9592 19.9342 18.7745 19.8438 19.5869 19.7163C19.8226 19.6792 20.0583 19.6392 20.2925 19.5962C20.8396 19.4939 21.3836 19.3739 21.9188 19.2197C22.0359 19.1856 22.153 19.15 22.2701 19.1144C22.3294 19.0966 22.3872 19.0774 22.4451 19.0581C22.5325 19.0729 22.6141 19.11 22.6956 19.1411C22.7682 19.1678 22.8409 19.196 22.9135 19.2241C23.1181 19.3057 23.3197 19.3961 23.5154 19.4984C23.5925 19.5384 23.6681 19.5814 23.7422 19.6274C23.8415 19.6881 23.9379 19.7504 24.0283 19.823C24.055 19.8438 24.0624 19.8527 24.052 19.8646C24.0476 19.8705 24.0402 19.8764 24.0268 19.8868H24.0283Z" fill="#F1ECE2"/>
    <path d="M16.4425 23.6563C16.4262 23.6667 16.4084 23.6667 16.3906 23.6608C16.3951 23.6578 16.3995 23.6563 16.4025 23.6548C16.4099 23.6519 16.4158 23.6519 16.4232 23.6519C16.4292 23.6519 16.4366 23.6533 16.4425 23.6563Z" fill="#5E93FF"/>
    <path d="M16.3738 23.6612C16.3531 23.6701 16.3308 23.6715 16.3086 23.6641C16.3293 23.6508 16.3516 23.6523 16.3738 23.6612Z" fill="#5E93FF"/>
    <path d="M16.2903 23.6638C16.2696 23.6727 16.2473 23.6742 16.2266 23.6683C16.2473 23.6549 16.2696 23.6564 16.2903 23.6638Z" fill="#5E93FF"/>
    <path d="M16.2083 23.6683C16.1875 23.6787 16.1653 23.6787 16.1445 23.6713C16.1445 23.6713 16.146 23.6713 16.1475 23.6713C16.1682 23.6609 16.189 23.6609 16.2098 23.6683H16.2083Z" fill="#5E93FF"/>
    <path d="M16.0808 23.6667C16.0942 23.6638 16.109 23.6667 16.1238 23.6712C16.1031 23.6815 16.0808 23.6815 16.0586 23.6741C16.066 23.6697 16.0719 23.6682 16.0793 23.6667H16.0808Z" fill="#5E93FF"/>
    <path d="M16.0116 23.6699C16.022 23.6699 16.0338 23.6714 16.0442 23.6759C16.0235 23.6847 16.0027 23.6862 15.9805 23.6788C15.9908 23.6729 16.0012 23.6699 16.0116 23.6699V23.6699Z" fill="#5E93FF"/>
    <path d="M15.9435 23.6742C15.9435 23.6742 15.9538 23.6772 15.9583 23.6787C15.9375 23.6891 15.9168 23.6891 15.8945 23.6817C15.9094 23.6728 15.9257 23.6713 15.9405 23.6742H15.9435V23.6742Z" fill="#5E93FF"/>
    <path d="M15.8779 23.6815C15.8527 23.6919 15.8275 23.6919 15.8008 23.6845C15.826 23.6726 15.8512 23.6741 15.8779 23.6815Z" fill="#5E93FF"/>
    <path d="M15.7825 23.6846C15.7617 23.6949 15.741 23.6935 15.7188 23.6875C15.7395 23.6757 15.7603 23.6757 15.7825 23.6846Z" fill="#5E93FF"/>
    <path d="M21.2565 18.7051C21.2668 18.7066 21.2787 18.7066 21.2891 18.7081C21.3039 18.7081 21.3172 18.7125 21.3276 18.7259C21.2995 18.7229 21.2713 18.717 21.2461 18.7036C21.2476 18.7036 21.2491 18.7036 21.252 18.7036C21.2535 18.7036 21.255 18.7036 21.2565 18.7036V18.7051Z" fill="#5E93FF"/>
    <path d="M9.37131 25.5864C9.37131 25.5864 9.37576 25.5953 9.37724 25.5998H8.94141C8.94141 25.5998 8.94585 25.5924 8.94882 25.5864C8.9844 25.5864 9.01849 25.5864 9.05407 25.5864C9.15932 25.5864 9.26458 25.5864 9.36983 25.5864H9.37131Z" fill="#3180F4"/>
    <path d="M22.4436 19.058C22.3858 19.0773 22.3265 19.0966 22.2687 19.1144C22.1516 19.1514 22.0345 19.187 21.9174 19.2196C21.3822 19.3723 20.8382 19.4939 20.2911 19.5962C20.0569 19.6391 19.8212 19.6792 19.5855 19.7162C18.7746 19.8437 17.9593 19.9342 17.1395 19.9979C17.0224 20.0068 16.9052 20.0157 16.7881 20.0231C16.634 20.0335 16.4798 20.0439 16.3241 20.0528C16.2989 20.0528 16.2752 20.0557 16.25 20.0572C16.4175 19.8007 16.5806 19.5413 16.7392 19.2774C16.9675 18.8964 17.1839 18.5095 17.3915 18.1182C17.7858 18.1523 18.1801 18.1923 18.5745 18.2412C18.6041 18.2442 18.6323 18.2501 18.6619 18.2545C18.8383 18.2679 19.0133 18.2946 19.1867 18.3198C19.4106 18.3524 19.6344 18.388 19.8583 18.4265C20.1592 18.4769 20.4601 18.5332 20.7596 18.5985C20.9212 18.6341 21.0828 18.6696 21.2443 18.7052C21.2695 18.7186 21.2977 18.7245 21.3259 18.7274C21.6713 18.8164 22.0152 18.9083 22.3532 19.021C22.3843 19.0313 22.4199 19.0343 22.4436 19.061V19.058Z" fill="#FDBF41"/>
    <path d="M10.9727 21.5986C11.112 21.609 11.2514 21.6209 11.3907 21.6298C11.2514 21.6209 11.112 21.609 10.9727 21.5986Z" fill="#F1ECE2"/>
    <path d="M6.51887 24.7091C6.50849 24.7091 6.4996 24.7062 6.49219 24.6973C6.49219 24.6973 6.49367 24.6973 6.49515 24.6973C6.49515 24.6973 6.49812 24.6973 6.4996 24.6973C6.4996 24.6973 6.50256 24.6973 6.50405 24.6973H6.50701C6.50701 24.6973 6.50998 24.6987 6.51146 24.7002H6.51294C6.51294 24.7002 6.51591 24.7047 6.51739 24.7062L6.51887 24.7091Z" fill="#404A5A"/>
    <path d="M6.49153 24.6969C6.48115 24.6969 6.47077 24.6954 6.46484 24.6851C6.46484 24.6851 6.47077 24.6851 6.47226 24.6851C6.47226 24.6851 6.4856 24.6895 6.49005 24.6969H6.49153Z" fill="#404A5A"/>
    <path d="M6.46176 24.6838C6.4499 24.6838 6.43952 24.6838 6.43359 24.6704C6.44545 24.6704 6.45435 24.6719 6.46028 24.6823L6.46176 24.6838Z" fill="#404A5A"/>
    <path d="M6.43684 24.6687C6.42498 24.6687 6.41312 24.6717 6.41016 24.6568C6.42202 24.6539 6.43239 24.6568 6.43832 24.6687H6.43684Z" fill="#404A5A"/>
    <path d="M6.32881 24.6006C6.33622 24.605 6.34511 24.6095 6.35401 24.6139C6.35994 24.6169 6.36735 24.6199 6.37328 24.6228C6.38366 24.6288 6.39403 24.6347 6.40145 24.6451C6.40441 24.648 6.40589 24.6525 6.40886 24.6569C6.3718 24.654 6.34067 24.6391 6.3125 24.6154L6.33029 24.6006H6.32881Z" fill="#404A5A"/>
    <path d="M8.82889 23.4253C8.79924 23.4298 8.76811 23.4357 8.73846 23.4387C8.62135 23.455 8.50424 23.4639 8.38712 23.4669C8.3471 23.4669 8.30855 23.4669 8.26853 23.4669C8.2285 23.4669 8.18996 23.4654 8.14993 23.4639C8.13214 23.4639 8.11584 23.4609 8.09953 23.4594C8.08322 23.458 8.06543 23.455 8.04913 23.4535C8.02837 23.452 8.01058 23.4431 7.99428 23.4283C7.94832 23.3853 7.90237 23.3423 7.85938 23.2979C8.18255 23.3453 8.50572 23.3868 8.82889 23.4253V23.4253Z" fill="#F1ECE2"/>
    <path d="M13.9149 17.9697C13.6822 17.9697 13.4494 17.9727 13.2182 17.9771C12.8313 18.5775 12.4132 19.1557 11.9581 19.7071C11.8617 19.8228 11.7654 19.9369 11.6661 20.0496C11.4155 20.3342 11.1561 20.6085 10.8818 20.8709C10.6432 21.1006 10.3956 21.32 10.1362 21.5261C9.93457 21.6877 9.72703 21.8419 9.51059 21.9842C9.11181 22.248 8.69525 22.4749 8.24607 22.6409C8.01777 22.7239 7.78503 22.7921 7.54636 22.8321C7.53301 22.8351 7.51967 22.8395 7.50781 22.844C7.50781 22.8484 7.5093 22.8529 7.51078 22.8558C7.51078 22.8588 7.51078 22.8603 7.51374 22.8633C7.53153 22.8899 7.54784 22.9151 7.56563 22.9403C7.60121 22.9908 7.63827 23.0412 7.67681 23.0901C7.73463 23.1627 7.79689 23.2324 7.86063 23.3006C8.18381 23.348 8.50698 23.3895 8.83015 23.4281C8.91613 23.4147 9.00211 23.3984 9.08809 23.3777C9.28526 23.3302 9.47798 23.2694 9.66476 23.1968C9.75816 23.1597 9.85155 23.1212 9.94346 23.0797C10.0354 23.0382 10.1258 22.9922 10.2147 22.9463C10.2533 22.9255 10.2918 22.9048 10.3304 22.884C10.5987 22.7358 10.8566 22.5712 11.1027 22.3933C11.3503 22.2154 11.5875 22.0227 11.8173 21.8211C11.8499 21.7915 11.8825 21.7633 11.9151 21.7336C11.9388 21.7114 11.9625 21.6892 11.9877 21.6669C12.136 21.532 12.2798 21.3927 12.4206 21.2504C12.4755 21.1955 12.5288 21.1392 12.5837 21.0829C12.7601 20.8975 12.9335 20.7078 13.1011 20.5136C13.2019 20.3965 13.2997 20.2794 13.3975 20.1593C13.4094 20.1445 13.4213 20.1296 13.4331 20.1163C13.4998 20.0333 13.5651 19.9503 13.6303 19.8658C13.8349 19.6004 14.0335 19.3291 14.2233 19.0534C14.3256 18.9037 14.4264 18.7539 14.5257 18.6012C14.5805 18.5153 14.6354 18.4293 14.6888 18.3433C14.7629 18.2247 14.8355 18.1061 14.9082 17.986C14.5761 17.9786 14.2455 17.9742 13.9134 17.9742L13.9149 17.9697Z" fill="#F1ECE2"/>
    <path d="M5.06278 24.0598C5.0524 24.0613 5.04351 24.0598 5.03906 24.0479C5.05092 24.045 5.05982 24.0479 5.06278 24.0598Z" fill="#C18B00"/>
    <path d="M11.9439 18.0186C11.7779 18.026 11.6118 18.0349 11.4458 18.0453C11.2635 18.3032 11.0752 18.5567 10.8795 18.8043C10.6868 19.0474 10.4896 19.2861 10.2821 19.5173C10.165 19.6493 10.0449 19.7782 9.92481 19.9072C9.83883 19.9976 9.75136 20.0881 9.66242 20.1755C9.30515 20.5239 8.93158 20.8545 8.52983 21.151C8.46312 21.1999 8.39641 21.2488 8.32674 21.2963C8.10141 21.4534 7.86718 21.5987 7.62555 21.7291C7.45062 21.824 7.26976 21.9085 7.08594 21.9856C7.08594 21.9945 7.08594 22.0034 7.0889 22.0123C7.1141 22.0834 7.14227 22.1531 7.17192 22.2213C7.20157 22.291 7.2327 22.3577 7.26531 22.4259C7.33054 22.5608 7.40318 22.6912 7.48471 22.8187C7.49064 22.8291 7.49954 22.835 7.50695 22.8424C7.52029 22.838 7.53215 22.8335 7.54549 22.8306C7.78565 22.7906 8.01839 22.7224 8.24521 22.6393C8.69438 22.4748 9.11243 22.2465 9.50973 21.9826C9.72616 21.8388 9.9337 21.6861 10.1353 21.5245C10.3933 21.3185 10.6408 21.0991 10.881 20.8693C11.1552 20.6069 11.4147 20.3327 11.6652 20.048C11.7645 19.9354 11.8609 19.8212 11.9572 19.7056C12.4123 19.1556 12.8304 18.576 13.2173 17.9756C12.7933 17.983 12.3679 17.9963 11.9439 18.0171V18.0186Z" fill="#FDBF41"/>
    <path d="M20.289 11.6311C20.3023 11.6311 20.3172 11.6311 20.3083 11.6104C20.3142 11.6104 20.3216 11.6118 20.3275 11.6133C20.3231 11.6133 20.3201 11.6133 20.3186 11.6163C20.3127 11.6207 20.3127 11.6296 20.3142 11.6385C20.3053 11.6385 20.2979 11.6385 20.289 11.637C20.2845 11.637 20.2786 11.637 20.2742 11.637C20.2638 11.637 20.2534 11.6356 20.243 11.6341C20.2193 11.6311 20.1956 11.6267 20.1719 11.6207C20.2119 11.6178 20.2504 11.6326 20.289 11.6341V11.6311Z" fill="#E7AA24"/>
    <path d="M8.18194 19.6745C8.19825 19.6775 8.21604 19.6804 8.23234 19.6834C7.90621 19.9977 7.56525 20.2927 7.20057 20.5625C7.06715 20.6603 6.93521 20.7596 6.79141 20.8426C6.76473 20.727 6.75287 20.6099 6.73953 20.4943C6.69357 20.1207 6.67726 19.7471 6.67578 19.3721C6.76621 19.3943 6.85664 19.4151 6.94855 19.4358C7.21391 19.4966 7.48075 19.55 7.74907 19.6004C7.89286 19.6271 8.03814 19.6523 8.18194 19.676V19.6745Z" fill="#F1ECE2"/>
    <path d="M9.67093 18.1981C9.63238 18.2026 9.59384 18.207 9.5553 18.21C9.17134 18.6977 8.76071 19.1632 8.31746 19.6005C8.28929 19.6287 8.26113 19.6554 8.23148 19.6835C8.24482 19.685 8.25816 19.688 8.27002 19.6909C8.25668 19.6895 8.24334 19.6865 8.22999 19.685C7.90386 19.9993 7.5629 20.2943 7.19822 20.5641C7.0648 20.6619 6.93286 20.7613 6.78906 20.8443C6.78906 20.8606 6.79055 20.8754 6.79351 20.8917C6.79351 20.8962 6.79351 20.9006 6.79351 20.9051C6.79648 20.9228 6.80092 20.9406 6.80389 20.9584C6.80685 20.9732 6.80833 20.9866 6.8113 21.0014C6.81871 21.037 6.82464 21.0741 6.83205 21.1096C6.87356 21.3157 6.92248 21.5188 6.98474 21.7189C7.01291 21.8093 7.03515 21.9013 7.07962 21.9843C7.26344 21.9072 7.4443 21.8227 7.61923 21.7278C7.86235 21.5974 8.09509 21.4521 8.32042 21.2949C8.38862 21.2475 8.45681 21.2001 8.52352 21.1497C8.92526 20.8532 9.29883 20.5241 9.6561 20.1742C9.74505 20.0867 9.83251 19.9963 9.91849 19.9059C10.0401 19.7784 10.1586 19.6479 10.2758 19.516C10.4833 19.2847 10.6805 19.0461 10.8732 18.803C11.0689 18.5554 11.2571 18.3019 11.4395 18.0439C10.848 18.0795 10.2565 18.1299 9.66796 18.1952L9.67093 18.1981Z" fill="#FF1100"/>
    <path d="M8.27049 19.6895C8.25715 19.688 8.24381 19.6851 8.23047 19.6836C8.24381 19.6851 8.25715 19.688 8.26901 19.6895H8.27049Z" fill="#F1ECE2"/>
    <path d="M8.234 19.6822C8.21769 19.6793 8.20138 19.6763 8.18359 19.6733L8.234 19.6822Z" fill="#FF1100"/>
    <path d="M7.75 19.5991C7.8938 19.6258 8.03908 19.651 8.18287 19.6747C8.03908 19.651 7.8938 19.6258 7.75 19.5991Z" fill="#FF1100"/>
    <path d="M9.30267 18.2455C9.38716 18.2277 9.47166 18.2189 9.55616 18.21C9.17221 18.6977 8.76157 19.1632 8.31833 19.6005C8.29016 19.6287 8.26199 19.6553 8.23234 19.6835L8.18194 19.6746C8.03814 19.6509 7.89286 19.6257 7.74907 19.599C7.48075 19.5501 7.21391 19.4952 6.94855 19.4345C6.85812 19.4137 6.76769 19.3915 6.67578 19.3707C6.67578 19.2299 6.67726 19.0876 6.68171 18.9453C6.68468 18.8608 6.68764 18.7777 6.69209 18.6932C7.00044 18.6191 7.31027 18.5554 7.62306 18.4961C8.15526 18.3953 8.69042 18.3137 9.22706 18.247C9.23596 18.247 9.24485 18.2441 9.25226 18.2441C9.26264 18.2441 9.27153 18.2411 9.28191 18.2426C9.28784 18.2426 9.29377 18.2426 9.2997 18.2455H9.30267Z" fill="#FDBF41"/>
    <path d="M18.7945 11.4263C19.1058 11.4648 19.4156 11.5019 19.7269 11.5404C19.7254 11.5434 19.7225 11.5463 19.7195 11.5493C19.5268 11.5256 19.3326 11.5034 19.1399 11.4782C19.0835 11.4707 19.0272 11.4663 18.9709 11.4604C18.9145 11.4544 18.8582 11.4485 18.8033 11.4366C18.8004 11.4337 18.7974 11.4292 18.793 11.4263H18.7945Z" fill="#007FFF"/>
    <path d="M17.2734 12.3912C17.2853 12.3468 17.2957 12.3023 17.3075 12.2578C17.2957 12.3023 17.2853 12.3468 17.2734 12.3912Z" fill="#F1ECE2"/>
    <path d="M26.1994 18.6327C26.1994 18.2058 26.1994 17.7788 26.1994 17.3504C26.1712 17.2318 26.1356 17.1147 26.0689 17.0109C25.9622 16.8419 25.8347 16.6922 25.6761 16.5692C25.51 16.4402 25.3395 16.3186 25.1557 16.2163C24.9037 16.0755 24.6413 15.9554 24.3789 15.8368C24.3315 15.8161 24.284 15.8057 24.2366 15.7864C23.6422 15.5537 23.0299 15.3788 22.4102 15.229C22.013 15.1327 21.6142 15.0497 21.2124 14.9741C20.7618 14.8896 20.3096 14.8169 19.856 14.7547C19.5432 14.7117 19.2304 14.6731 18.9161 14.6375C18.7768 14.6227 18.6374 14.6064 18.4966 14.5931C18.1008 14.5545 17.7065 14.5189 17.3107 14.4908C17.0764 14.473 16.8437 14.4582 16.6095 14.4463C16.4108 14.4359 16.2122 14.4256 16.0135 14.4167C15.7007 14.4018 15.3879 14.3915 15.0751 14.384C15.0529 14.384 15.0292 14.384 15.0069 14.3826C14.5133 14.3722 14.0182 14.3692 13.5245 14.3722C13.5171 14.3722 13.5082 14.3722 13.5008 14.3722C12.9923 14.3766 12.4838 14.3885 11.9753 14.4092C11.9442 14.4092 11.9146 14.4122 11.8849 14.4137C11.2831 14.4389 10.6827 14.4774 10.0838 14.5278C9.20319 14.602 8.32558 14.7028 7.45094 14.8406C7.43019 14.8436 7.40943 14.8466 7.38868 14.851C7.35458 14.9696 7.32494 15.0897 7.28194 15.2053C7.2523 15.3239 7.22265 15.4425 7.193 15.5611C7.11295 15.8754 7.04031 16.1926 6.97656 16.5099L7.10998 16.4876C7.1678 16.4772 7.22709 16.4684 7.28491 16.458C7.37089 16.4432 7.45836 16.4298 7.54434 16.4165C7.85713 16.3675 8.17141 16.3246 8.48569 16.2845C8.79996 16.2445 9.11424 16.2104 9.43 16.1778C9.64051 16.157 9.85101 16.1378 10.0615 16.12C10.3802 16.0933 10.699 16.0711 11.0192 16.0503C11.3201 16.0325 11.6196 16.0162 11.9205 16.0044C11.9976 16.0014 12.0747 15.9969 12.1518 15.994C12.2659 15.9895 12.3815 15.9866 12.4972 15.9821C12.5713 15.9806 12.6454 15.9777 12.7195 15.9762C12.9908 15.9703 13.2606 15.9658 13.5319 15.9628C13.6342 15.9628 13.735 15.9628 13.8373 15.9614C14.0122 15.9614 14.1872 15.9614 14.3606 15.9628C14.4243 15.9628 14.4866 15.9628 14.5503 15.9643C14.6185 15.9643 14.6867 15.9658 14.7549 15.9673C14.9402 15.9703 15.1241 15.9747 15.3094 15.9806C15.4947 15.9866 15.6785 15.9925 15.8638 15.9999C15.8949 15.9999 15.9246 16.0029 15.9557 16.0044C16.1543 16.0132 16.3515 16.0221 16.5502 16.034C16.7029 16.0429 16.8541 16.0518 17.0068 16.0622C17.235 16.077 17.4633 16.0933 17.6916 16.1126C17.9021 16.1304 18.1112 16.1496 18.3217 16.1704C18.3291 16.1704 18.3365 16.1704 18.3439 16.1719C18.4951 16.1867 18.6448 16.2015 18.7961 16.2163C19.0377 16.2401 19.2778 16.2697 19.5195 16.3008C19.7596 16.332 19.9998 16.3675 20.24 16.4031C20.3393 16.418 20.4401 16.4328 20.5394 16.4491C20.8374 16.4965 21.1368 16.5514 21.4333 16.6092C21.6082 16.6433 21.7817 16.6789 21.9566 16.7174C22.1301 16.7559 22.3035 16.7945 22.477 16.8375C22.7393 16.9027 23.0017 16.9709 23.2597 17.048C23.6051 17.1503 23.9461 17.2629 24.2811 17.3964C24.3656 17.429 24.4486 17.4646 24.5316 17.5001C24.6576 17.555 24.7821 17.6143 24.9052 17.6751C24.9348 17.6899 24.966 17.7047 24.9956 17.721C25.0193 17.7329 25.0431 17.7447 25.0668 17.7566C25.0979 17.7714 25.129 17.7877 25.1602 17.8055C25.1987 17.8263 25.2373 17.8485 25.2743 17.8737C25.4137 17.9701 25.556 18.0605 25.685 18.1702C25.7146 18.1954 25.7443 18.2221 25.7724 18.2488C25.8065 18.2769 25.8376 18.3066 25.8688 18.3377C25.9192 18.3881 25.9666 18.443 26.0081 18.5008C26.0289 18.5289 26.0482 18.5571 26.0645 18.5882C26.0793 18.6134 26.0941 18.6401 26.1074 18.6668C26.1208 18.6935 26.1326 18.7217 26.1445 18.7498C26.1564 18.778 26.1667 18.8062 26.1756 18.8358C26.1816 18.8566 26.189 18.8773 26.1949 18.8981C26.1949 18.8981 26.1949 18.8981 26.1949 18.901V18.8981C26.2112 18.8121 26.2008 18.7246 26.2023 18.6372L26.1994 18.6327Z" fill="#F1ECE2"/>
    <path d="M26.2033 17.1812C26.2033 16.858 26.2033 16.5334 26.2033 16.2102C26.2033 16.0605 26.2018 15.9107 26.2004 15.7625C26.1752 15.678 26.1574 15.592 26.1173 15.5105C26.0195 15.3089 25.8742 15.1458 25.7052 15.002C25.5214 14.8434 25.3168 14.7114 25.1034 14.5943C24.7935 14.4238 24.4718 14.2786 24.1413 14.1555C23.7573 14.0132 23.3674 13.8872 22.9731 13.7805C22.6707 13.6989 22.3683 13.6233 22.0629 13.5537C21.716 13.4751 21.3661 13.4054 21.0163 13.3446C20.6516 13.2809 20.2884 13.2201 19.9207 13.1697C19.7473 13.146 19.5739 13.1223 19.4004 13.1015C19.012 13.0511 18.6221 13.0081 18.2322 12.974C18.1596 12.9681 18.0885 12.9562 18.0158 12.9518C17.7208 12.9295 17.4258 12.9073 17.1323 12.8866C17.0908 12.8836 17.0478 12.8806 17.0063 12.8777C16.8091 12.8628 16.6134 12.8495 16.4163 12.8391C16.1598 12.8258 15.9048 12.8169 15.6484 12.808C15.6454 12.808 15.6439 12.808 15.6409 12.808C15.3741 12.7991 15.1058 12.7887 14.8389 12.7843C14.6032 12.7798 14.3675 12.7783 14.1318 12.7769C14.028 12.7769 13.9243 12.7769 13.8205 12.7769C13.4069 12.7769 12.9948 12.7828 12.5812 12.7946C12.5753 12.7946 12.5693 12.7946 12.5634 12.7946C12.0786 12.8095 11.5939 12.8287 11.1106 12.8599C10.7385 12.8836 10.3664 12.9043 9.99433 12.9355C9.8446 12.9488 9.6934 12.9666 9.54367 12.9814C9.02037 13.0333 8.49855 13.0941 7.97673 13.1682C7.9708 13.1682 7.96487 13.1697 7.95894 13.1712C7.7514 13.7093 7.56313 14.2563 7.39858 14.8122C7.39413 14.8256 7.39117 14.8404 7.38672 14.8538C7.40747 14.8508 7.42823 14.8463 7.44898 14.8434C8.32214 14.7055 9.19974 14.6047 10.0818 14.5306C10.6822 14.4802 11.2826 14.4431 11.883 14.4164C11.9126 14.4164 11.9437 14.4135 11.9734 14.412C12.4819 14.3912 12.9903 14.3794 13.4988 14.3749C13.5062 14.3749 13.5151 14.3749 13.5225 14.3749C14.0177 14.3705 14.5113 14.3749 15.005 14.3853C15.0272 14.3853 15.0495 14.3853 15.0732 14.3868C15.386 14.3942 15.6988 14.4046 16.0116 14.4194C16.2102 14.4283 16.4088 14.4387 16.6075 14.449C16.8417 14.4624 17.0745 14.4772 17.3087 14.4935C17.7045 14.5217 18.1003 14.5573 18.4946 14.5958C18.634 14.6092 18.7733 14.624 18.9142 14.6403C19.2284 14.6759 19.5412 14.7144 19.854 14.7574C20.3077 14.8197 20.7598 14.8923 21.2105 14.9768C21.6122 15.0524 22.011 15.1339 22.4083 15.2318C23.0279 15.383 23.6402 15.5579 24.2346 15.7892C24.2821 15.807 24.3295 15.8188 24.377 15.8396C24.6394 15.9582 24.9017 16.0768 25.1538 16.2191C25.3376 16.3214 25.5066 16.4429 25.6741 16.5719C25.8327 16.6949 25.9602 16.8462 26.0669 17.0137C26.1337 17.1189 26.1707 17.2346 26.1974 17.3531C26.2078 17.2968 26.2018 17.2405 26.2018 17.1842L26.2033 17.1812Z" fill="#FDBF41"/>
    <path d="M17.0305 4.94814C17.2454 5.28465 17.4011 5.64785 17.5197 6.02884C17.5567 6.14743 17.5893 6.26603 17.619 6.38462C17.6679 6.58327 17.7064 6.78488 17.7376 6.98797C17.7465 7.04727 17.7554 7.10657 17.7628 7.16587C17.7776 7.28446 17.7909 7.40454 17.8013 7.52462C17.8058 7.58392 17.8117 7.6447 17.8147 7.70399C17.8369 8.03013 17.8458 8.35627 17.8369 8.6824C17.828 9.02485 17.8072 9.36581 17.7732 9.70677C17.7391 10.0462 17.6916 10.3828 17.6353 10.7178C17.6012 10.9194 17.5641 11.1195 17.5241 11.3197C17.2009 11.2945 16.8778 11.2722 16.5546 11.2559C16.3989 11.2485 16.2433 11.2411 16.0876 11.2322C16.1929 10.7801 16.2818 10.3235 16.3515 9.86391C16.4286 9.35395 16.4819 8.84251 16.5027 8.32958C16.519 7.89226 16.5175 7.45494 16.4819 7.01762C16.4523 6.65294 16.4034 6.29271 16.3248 5.93544C16.2373 5.5337 16.1128 5.14382 15.9349 4.77173C15.8653 4.62348 15.7822 4.48265 15.6992 4.3433C15.7674 4.32106 15.8386 4.31958 15.9068 4.31217C15.9438 4.30772 15.9794 4.30476 16.0165 4.30328C16.0476 4.30179 16.0787 4.30031 16.1099 4.29883C16.1603 4.29883 16.2107 4.29883 16.2611 4.29883C16.2966 4.29883 16.3322 4.30179 16.3678 4.30328C16.3945 4.30328 16.4226 4.30624 16.4493 4.30772C16.4538 4.30772 16.4582 4.30772 16.4627 4.30921C16.4716 4.31069 16.479 4.31365 16.4864 4.31662C16.4938 4.31958 16.5012 4.32403 16.5086 4.32848C16.519 4.33441 16.5294 4.3433 16.5383 4.3522C16.562 4.37443 16.5857 4.39667 16.608 4.41891C16.6539 4.46486 16.6984 4.51082 16.7414 4.55974C16.8481 4.6813 16.9445 4.81027 17.0319 4.94665L17.0305 4.94814Z" fill="#F1ECE2"/>
    <path d="M16.3229 5.93696C16.4015 6.29422 16.4504 6.65446 16.4801 7.01914C16.5157 7.45646 16.5186 7.89378 16.5008 8.3311C16.4816 8.8455 16.4267 9.35695 16.3496 9.86542C16.2799 10.3265 16.191 10.7816 16.0857 11.2337C15.9671 11.2278 15.85 11.2219 15.7314 11.2174C15.4616 11.207 15.1918 11.2011 14.922 11.1952C14.8212 11.1937 14.7204 11.1907 14.6211 11.1892C14.7189 10.8186 14.8064 10.4451 14.8805 10.0685C14.9369 9.78685 14.9858 9.50371 15.0288 9.21908C15.0569 9.02933 15.0821 8.83809 15.1029 8.64686C15.1251 8.44673 15.1429 8.2466 15.1563 8.04499C15.1696 7.83003 15.1785 7.61508 15.1829 7.40012C15.1874 7.11253 15.1785 6.82494 15.1577 6.53734C15.1444 6.34759 15.1251 6.15932 15.1014 5.96957C15.0688 5.71162 15.0214 5.45516 14.9606 5.20315C14.9117 5.00005 14.8553 4.79992 14.7812 4.60424C14.8331 4.57163 14.8924 4.55532 14.9487 4.53457C15.0643 4.49158 15.1815 4.45452 15.2986 4.4219C15.4172 4.38929 15.5372 4.3626 15.6588 4.34185C15.6677 4.34037 15.6751 4.33888 15.684 4.3374C15.6885 4.3374 15.6944 4.3374 15.6988 4.33888C15.7818 4.47972 15.8649 4.62055 15.9345 4.76731C16.1124 5.1394 16.237 5.52928 16.3244 5.93103L16.3229 5.93696Z" fill="#FDBF41"/>
    <path d="M19.7139 5.27548C19.7139 5.27548 19.7109 5.27251 19.7109 5.27103C19.7109 5.27103 19.7109 5.26955 19.7109 5.26807L19.7154 5.27103V5.27548H19.7139Z" fill="#3180F4"/>
    <path d="M26.1975 20.4323C26.1975 20.4115 26.2004 20.3923 26.2004 20.3715C26.2004 20.038 26.2004 19.7029 26.2004 19.3694C26.2004 19.2256 26.1975 19.0803 26.1975 18.9365C26.1975 18.9276 26.2019 18.9187 26.2004 18.9098C26.2004 18.9098 26.1945 18.8995 26.193 18.895C26.1871 18.8743 26.1797 18.8535 26.1737 18.8327C26.1648 18.8031 26.1545 18.7749 26.1426 18.7468C26.1307 18.7186 26.1189 18.6904 26.1055 18.6638C26.0922 18.6371 26.0774 18.6104 26.0626 18.5852C26.0448 18.5555 26.0255 18.5259 26.0062 18.4977C25.9647 18.4399 25.9188 18.3865 25.8669 18.3346C25.8357 18.3035 25.8046 18.2739 25.7705 18.2457C25.7424 18.2175 25.7142 18.1923 25.6831 18.1671C25.5541 18.0574 25.4118 17.967 25.2724 17.8706C25.2354 17.8454 25.1983 17.8232 25.1583 17.8025C25.1271 17.7861 25.0975 17.7698 25.0649 17.7535C25.0412 17.7417 25.0174 17.7298 24.9937 17.718C24.9641 17.7031 24.9329 17.6883 24.9033 17.672C24.7802 17.6112 24.6557 17.5519 24.5297 17.4971C24.4467 17.4615 24.3637 17.4274 24.2792 17.3933C23.9442 17.2599 23.6032 17.1457 23.2578 17.0449C22.9984 16.9678 22.7374 16.8996 22.4751 16.8344C22.3016 16.7914 22.1296 16.7514 21.9547 16.7143C21.7813 16.6773 21.6063 16.6402 21.4314 16.6061C21.1349 16.5468 20.8355 16.4935 20.5375 16.446C20.4382 16.4297 20.3389 16.4149 20.238 16.4001C19.9979 16.3645 19.7577 16.3289 19.5176 16.2978C19.2774 16.2652 19.0358 16.237 18.7942 16.2133C18.6429 16.1985 18.4932 16.1836 18.342 16.1688C18.3346 16.1688 18.3272 16.1688 18.3198 16.1673C18.1093 16.1466 17.9002 16.1273 17.6897 16.1095C17.4614 16.0917 17.2331 16.0754 17.0048 16.0591C16.8522 16.0487 16.7009 16.0398 16.5483 16.0309C16.3496 16.0206 16.1524 16.0102 15.9538 16.0013C15.9227 16.0013 15.893 15.9983 15.8619 15.9968C15.6766 15.9894 15.4928 15.982 15.3075 15.9776C15.1221 15.9716 14.9383 15.9672 14.753 15.9642C14.6848 15.9642 14.6166 15.9627 14.5484 15.9613C14.4847 15.9613 14.4224 15.9613 14.3587 15.9598C14.1838 15.9598 14.0088 15.9583 13.8354 15.9583C13.7331 15.9583 13.6308 15.9583 13.53 15.9598C13.2587 15.9613 12.9889 15.9657 12.7176 15.9731C12.6435 15.9746 12.5694 15.9761 12.4953 15.9791C12.3796 15.982 12.2655 15.9865 12.1499 15.9909C12.0728 15.9939 11.9957 15.9968 11.9186 16.0013C11.6177 16.0146 11.3182 16.0295 11.0173 16.0472C10.6985 16.0665 10.3783 16.0902 10.0596 16.1169C9.84911 16.1347 9.6386 16.154 9.4281 16.1747C9.11234 16.2059 8.79806 16.2414 8.48378 16.2815C8.16951 16.3215 7.85523 16.3645 7.54243 16.4134C7.45497 16.4267 7.36899 16.4416 7.28301 16.4549C7.22519 16.4638 7.16589 16.4742 7.10808 16.4846L6.97466 16.5068C7.0384 16.1881 7.11104 15.8723 7.1911 15.558C7.22074 15.4394 7.25039 15.3208 7.28004 15.2023C7.32303 15.0866 7.35268 14.9665 7.38678 14.8479C7.39122 14.8346 7.39419 14.8198 7.39864 14.8064C7.56319 14.252 7.75146 13.705 7.959 13.1654C8.09094 12.8229 8.23177 12.4849 8.38001 12.1499C8.47934 11.9246 8.58311 11.7022 8.68984 11.4798C9.04414 10.749 9.43551 10.0389 9.87135 9.34958C10.2775 8.70472 10.7208 8.08654 11.2055 7.49801C11.2159 7.48615 11.2233 7.47281 11.2322 7.45947C11.3775 7.29195 11.5213 7.12295 11.671 6.95989C12.1573 6.42176 12.6791 5.92514 13.2587 5.48782C13.401 5.38109 13.5493 5.2788 13.6946 5.17503C13.7079 5.16613 13.7242 5.16465 13.7405 5.16317C13.7479 5.14241 13.7672 5.13352 13.7835 5.12166C14.083 4.93042 14.3928 4.75994 14.7204 4.62356C14.7323 4.61911 14.7426 4.61318 14.756 4.60873C14.759 4.60873 14.7634 4.60725 14.7678 4.60577C14.7723 4.60577 14.7753 4.60577 14.7797 4.60577C14.8316 4.57316 14.8909 4.55685 14.9472 4.5361C15.0629 4.4931 15.18 4.45604 15.2971 4.42343C15.4157 4.39082 15.5358 4.36413 15.6573 4.34338C15.6662 4.3419 15.6736 4.34041 15.6825 4.33893C15.687 4.33893 15.6929 4.33893 15.6973 4.34041C15.7655 4.31818 15.8367 4.31669 15.9049 4.30928C15.9419 4.30483 15.9775 4.30187 16.0146 4.30039C16.0457 4.2989 16.0768 4.29742 16.108 4.29594C16.1584 4.29594 16.2088 4.29594 16.2592 4.29594C16.2948 4.29594 16.3303 4.2989 16.3659 4.30039C16.3926 4.30039 16.4208 4.30335 16.4475 4.30483C16.4519 4.30483 16.4563 4.30483 16.4608 4.30632C16.4697 4.3078 16.4771 4.31076 16.4845 4.31373C16.4919 4.31669 16.4993 4.32114 16.5067 4.32559C16.5171 4.33152 16.5275 4.34041 16.5364 4.34931C16.5601 4.37154 16.5838 4.39378 16.6061 4.41602C16.652 4.46197 16.6965 4.50793 16.7395 4.55685C16.8462 4.67841 16.9426 4.80738 17.03 4.94377C17.245 5.28028 17.4007 5.64348 17.5193 6.02447C17.5563 6.14306 17.5889 6.26166 17.6186 6.38025C17.6675 6.5789 17.706 6.78051 17.7372 6.9836C17.7461 7.0429 17.755 7.1022 17.7624 7.1615C17.7772 7.28009 17.7905 7.40017 17.8009 7.52025C17.8054 7.57955 17.8113 7.64033 17.8143 7.69962C17.8365 8.02576 17.8454 8.3519 17.8365 8.67803C17.8276 9.02048 17.8068 9.36144 17.7728 9.7024C17.7387 10.0419 17.6912 10.3784 17.6349 10.7134C17.6008 10.915 17.5637 11.1152 17.5237 11.3153C17.5756 11.3197 17.6275 11.3227 17.6808 11.3272C18.0559 11.3583 18.431 11.3953 18.8045 11.4309C18.8016 11.428 18.7986 11.4235 18.7942 11.4205C19.1055 11.4591 19.4153 11.4962 19.7266 11.5347C19.7251 11.5377 19.7222 11.5406 19.7192 11.5436C19.7385 11.5466 19.7563 11.5495 19.7755 11.551C19.8378 11.2441 19.8941 10.9358 19.9416 10.626C19.9846 10.3487 20.0201 10.07 20.0498 9.78986C20.0779 9.52895 20.1017 9.26656 20.1135 9.00417C20.1195 8.87816 20.1269 8.75067 20.1343 8.62467C20.1343 8.60836 20.1269 8.58612 20.1521 8.57871C20.1521 8.343 20.1521 8.10729 20.1506 7.87159C20.1372 7.86714 20.1372 7.85528 20.1358 7.84342C20.1328 7.79598 20.1269 7.74854 20.1254 7.70111C20.1165 7.35866 20.0839 7.01918 20.0379 6.6797C19.9875 6.30465 19.9119 5.93404 19.8081 5.57084C19.7829 5.48041 19.7607 5.38702 19.7207 5.30103L19.7118 5.2699C19.7118 5.2699 19.7088 5.26694 19.7088 5.26546C19.7088 5.26546 19.7088 5.26397 19.7088 5.26249C19.7059 5.25211 19.7044 5.24025 19.7014 5.22988C19.5502 4.79552 19.3545 4.3834 19.0832 4.00835C18.8223 3.64811 18.508 3.34421 18.1211 3.12036C17.9758 3.03587 17.8187 2.97657 17.669 2.90096C17.6556 2.89503 17.6378 2.89503 17.623 2.89207C17.6097 2.87428 17.5889 2.86983 17.5711 2.86242C17.2198 2.70676 16.8685 2.55111 16.5156 2.39545C16.4697 2.37618 16.4297 2.34505 16.3778 2.33912C16.3689 2.33615 16.3615 2.33319 16.3526 2.33022C16.2933 2.31095 16.231 2.29761 16.1732 2.26944C16.1688 2.26796 16.1628 2.26648 16.1584 2.26351C16.1554 2.26351 16.1524 2.26203 16.151 2.26055H16.1495C16.1495 2.26055 16.1391 2.26203 16.1347 2.2561C16.022 2.22794 15.9078 2.2057 15.7937 2.18939C15.7107 2.17753 15.6277 2.16864 15.5446 2.16419C15.5165 2.16271 15.4883 2.16123 15.4616 2.16123C15.3786 2.15974 15.2956 2.16123 15.2126 2.16419C15.1029 2.16864 14.9932 2.17902 14.885 2.19384C14.6937 2.22052 14.5055 2.26055 14.3187 2.31243C14.292 2.31985 14.2653 2.32726 14.2386 2.33615C13.8873 2.43992 13.5508 2.58224 13.2276 2.74827C13.1194 2.80461 13.0126 2.86242 12.9074 2.9232C12.811 2.97805 12.7161 3.03587 12.6213 3.09516C12.5901 3.11444 12.559 3.13519 12.5279 3.15446C12.4967 3.17522 12.4656 3.19449 12.436 3.21524C12.3737 3.25675 12.3129 3.29826 12.2536 3.34273C12.224 3.36497 12.1943 3.38572 12.1632 3.40796C12.1632 3.40944 12.1632 3.41241 12.1632 3.41389C12.1632 3.41537 12.1617 3.41685 12.1602 3.41834C12.1588 3.41982 12.1543 3.4213 12.1499 3.4213V3.42575C12.1499 3.42575 12.1484 3.4302 12.1469 3.43168C12.1469 3.43168 12.1439 3.43168 12.141 3.43168C12.141 3.43168 12.1395 3.43168 12.138 3.43168C12.0061 3.52359 11.8771 3.62143 11.7511 3.72224C11.6947 3.76671 11.6399 3.81266 11.585 3.85862C11.5762 3.86603 11.5673 3.87344 11.5598 3.88086C11.5035 3.92829 11.4472 3.97722 11.3923 4.02614C11.3923 4.02614 11.3923 4.0291 11.3923 4.03058C11.3923 4.03355 11.3908 4.03651 11.3879 4.03948C11.3879 4.03948 11.3879 4.03948 11.3849 4.03948C11.3834 4.03948 11.382 4.03948 11.379 4.03948C11.3775 4.04244 11.3745 4.04541 11.3731 4.04837C11.3701 4.05134 11.3671 4.0543 11.3642 4.05727C11.3597 4.06023 11.3538 4.0632 11.3479 4.06468C11.3479 4.07209 11.3464 4.07506 11.3434 4.07802C11.339 4.08099 11.3301 4.07802 11.3241 4.0795C11.3034 4.10174 11.2811 4.12249 11.2604 4.14473C11.2604 4.14621 11.2574 4.1477 11.2559 4.14918C11.2559 4.14918 11.2559 4.15066 11.2559 4.15214C11.2559 4.15511 11.2545 4.15659 11.253 4.15956C11.253 4.15956 11.2485 4.16252 11.2441 4.16104C11.2248 4.17586 11.2055 4.19069 11.1863 4.20699C11.1848 4.20699 11.1833 4.20996 11.1818 4.21144C11.1121 4.27667 11.044 4.3419 10.9758 4.40712C10.9713 4.41157 10.9669 4.41602 10.9624 4.42047C10.9417 4.44122 10.9194 4.46197 10.8972 4.48125C10.8423 4.53165 10.786 4.58057 10.7341 4.63394C10.706 4.6621 10.6778 4.69175 10.6496 4.71992C10.4866 4.88447 10.3265 5.0505 10.1708 5.22246C9.97215 5.44187 9.77944 5.66423 9.59265 5.89253C9.56596 5.92514 9.53928 5.95776 9.5126 5.99037C9.50815 5.99482 9.5037 6.00075 9.50074 6.00668C9.49481 6.01409 9.49036 6.02298 9.48443 6.03039C9.47702 6.04077 9.47109 6.05263 9.46368 6.06153C9.45775 6.06894 9.4533 6.07635 9.44737 6.08376C9.44589 6.08525 9.4444 6.08821 9.44144 6.08969C9.43254 6.09859 9.42365 6.10748 9.41327 6.11489C9.41327 6.11638 9.41327 6.11786 9.41179 6.11934C9.41179 6.12082 9.41179 6.12231 9.41031 6.12379C9.41031 6.12379 9.40883 6.12527 9.40734 6.12675C9.40734 6.12675 9.40438 6.12824 9.40141 6.12972C9.39697 6.15196 9.37918 6.16233 9.36435 6.17716C9.36435 6.17716 9.36287 6.17864 9.36139 6.18012C9.35694 6.18457 9.35397 6.18902 9.34953 6.19346C9.34953 6.19643 9.34656 6.19791 9.34656 6.20088C9.34656 6.20384 9.3436 6.20681 9.3436 6.20977C9.3436 6.20977 9.3436 6.21274 9.3436 6.21422C9.3436 6.21867 9.34212 6.22015 9.33915 6.22311H9.3347L9.33174 6.22608C9.29764 6.26907 9.26206 6.31206 9.22797 6.35505C9.22649 6.35801 9.225 6.3595 9.22204 6.36246C9.22204 6.36839 9.22204 6.37284 9.22204 6.37729C9.22204 6.38025 9.22056 6.38322 9.21759 6.38618V6.38915C9.21759 6.38915 9.21018 6.39508 9.20721 6.39656C9.20425 6.39952 9.19832 6.40101 9.19387 6.40249C9.18794 6.40842 9.18349 6.41435 9.17756 6.42028C9.17608 6.42176 9.17312 6.42472 9.17163 6.42621C9.16719 6.43065 9.16274 6.43658 9.15829 6.44103C9.06935 6.55963 8.98188 6.67822 8.89294 6.79682C8.89294 6.79978 8.89145 6.80275 8.88849 6.80571H8.88701C8.88701 6.80571 8.88256 6.81016 8.88108 6.81016C8.8203 6.89614 8.75803 6.98064 8.69725 7.0681C8.68539 7.08589 8.67354 7.1022 8.66168 7.11999C8.57125 7.25193 8.48823 7.38683 8.39632 7.51877C8.35185 7.58399 8.30885 7.6507 8.26438 7.71741C8.22139 7.78412 8.17692 7.85083 8.12948 7.91458C8.05388 8.01835 7.98865 8.13101 7.92194 8.2422C7.89377 8.28963 7.86412 8.33707 7.83596 8.38451C7.51575 8.91671 7.20444 9.45483 6.93908 10.0167C6.92426 10.0493 6.90647 10.0804 6.88719 10.1101C6.86941 10.1412 6.85013 10.1709 6.83531 10.2035C6.74488 10.3858 6.65593 10.5681 6.57144 10.752C6.53882 10.8202 6.50769 10.8898 6.47656 10.958C6.43505 11.0485 6.39502 11.1389 6.355 11.2293C6.3046 11.3449 6.25419 11.4591 6.20379 11.5762C6.18304 11.6251 6.16228 11.674 6.14153 11.723C6.11484 11.7837 6.08964 11.8445 6.06444 11.9068C5.97549 12.1232 5.88951 12.3411 5.8065 12.5605C5.78278 12.6243 5.75758 12.6895 5.73386 12.7533C5.67604 12.9089 5.62119 13.0661 5.56634 13.2217C5.553 13.2588 5.53966 13.2958 5.52631 13.3344C5.51594 13.364 5.50704 13.3937 5.49667 13.4218C5.47146 13.496 5.44626 13.5716 5.42403 13.6457C5.39586 13.7376 5.36769 13.828 5.33953 13.9199C5.31877 13.9852 5.2995 14.0504 5.27726 14.1156C5.22983 14.2609 5.17349 14.4062 5.1557 14.5604C5.1557 14.5678 5.14533 14.5752 5.14088 14.5826C5.11716 14.6463 5.10382 14.7116 5.08751 14.7783C5.0801 14.8094 5.06972 14.8405 5.06083 14.8717C5.05193 14.9028 5.04156 14.9339 5.03266 14.9651C4.99708 15.1 4.96151 15.2349 4.92889 15.3698C4.89924 15.4913 4.86959 15.6144 4.84143 15.7374C4.8103 15.8753 4.78065 16.0131 4.75248 16.1525C4.72728 16.2741 4.70356 16.3941 4.68132 16.5172C4.66353 16.6135 4.64575 16.7099 4.62944 16.8063C4.61461 16.8908 4.60127 16.9767 4.58793 17.0612C4.57014 17.1695 4.55383 17.2777 4.53901 17.3859C4.52567 17.4837 4.51233 17.5801 4.50047 17.6779C4.46785 17.9448 4.44117 18.2131 4.42041 18.4829C4.41448 18.56 4.41004 18.6371 4.40559 18.7142C4.40114 18.7912 4.3967 18.8683 4.39373 18.9454C4.3878 19.0996 4.38335 19.2538 4.37891 19.4079C4.37891 19.4435 4.37891 19.4776 4.37891 19.5132C4.37891 19.5236 4.37891 19.5339 4.37891 19.5458C4.37891 19.743 4.38632 19.9401 4.39225 20.1358C4.39225 20.1447 4.39225 20.1536 4.39225 20.1625C4.39225 20.1981 4.39521 20.2322 4.39818 20.2678C4.40559 20.4101 4.41745 20.5524 4.43227 20.6932C4.44265 20.7896 4.45303 20.8859 4.46637 20.9823C4.46785 20.9956 4.47082 21.0105 4.4723 21.0238C4.49898 21.218 4.52863 21.4122 4.56718 21.6064C4.63833 21.9666 4.73321 22.3209 4.86218 22.6649C4.86366 22.6708 4.86663 22.6767 4.86959 22.6826C4.96595 22.9376 5.07862 23.1852 5.21648 23.4209C5.4433 23.8093 5.72051 24.1517 6.07334 24.426C6.11484 24.4586 6.15783 24.4897 6.20231 24.5209C6.2453 24.5505 6.28977 24.5757 6.33424 24.6024C6.34166 24.6069 6.35055 24.6113 6.35945 24.6157C6.36538 24.6187 6.37279 24.6217 6.37872 24.6246C6.38909 24.6306 6.39947 24.6365 6.40688 24.6469C6.40985 24.6498 6.41133 24.6543 6.4143 24.6587C6.42616 24.6558 6.43653 24.6587 6.44246 24.6706C6.45432 24.6706 6.46322 24.6736 6.46915 24.6839C6.47211 24.6839 6.47508 24.6839 6.47656 24.6839C6.47656 24.6839 6.4899 24.6884 6.49435 24.6958C6.49435 24.6958 6.49583 24.6958 6.49731 24.6958C6.49731 24.6958 6.50028 24.6958 6.50176 24.6958C6.50176 24.6958 6.50473 24.6958 6.50621 24.6958H6.50917C6.50917 24.6958 6.51214 24.6973 6.51362 24.6988H6.5151C6.5151 24.6988 6.51807 24.7032 6.51955 24.7047C6.53437 24.721 6.55513 24.7254 6.57292 24.7329C6.9628 24.9063 7.35268 25.0783 7.74256 25.2502C7.93528 25.3362 8.12651 25.4252 8.33109 25.4815C8.53419 25.5378 8.74173 25.5749 8.95372 25.5838C8.9893 25.5838 9.02339 25.5838 9.05897 25.5838C9.16422 25.5838 9.26948 25.5838 9.37473 25.5838C9.47702 25.5808 9.57782 25.5675 9.67863 25.5526C10.0878 25.4919 10.4821 25.3703 10.8616 25.2072C11.5569 24.9078 12.1854 24.5001 12.7754 24.0272C12.9044 23.9234 13.0319 23.8167 13.1564 23.7085C13.5938 23.7159 14.0311 23.7189 14.4684 23.7144C14.885 23.71 15.303 23.7026 15.7196 23.6863C15.7403 23.6744 15.7611 23.6744 15.7833 23.6833H15.8026C15.8278 23.6714 15.853 23.6729 15.8797 23.6803H15.8989C15.9138 23.6714 15.9301 23.67 15.9449 23.6729H15.9479C15.9479 23.6729 15.9582 23.6759 15.9627 23.6774H15.982C15.9923 23.6714 16.0027 23.6685 16.0131 23.6685C16.0235 23.6685 16.0353 23.67 16.0457 23.6744C16.0516 23.6744 16.0576 23.6744 16.065 23.6744C16.0724 23.67 16.0783 23.6685 16.0857 23.667C16.0991 23.664 16.1139 23.667 16.1287 23.6714C16.1347 23.6714 16.1406 23.6714 16.1465 23.6714C16.1465 23.6714 16.148 23.6714 16.1495 23.6714C16.1702 23.6611 16.191 23.6611 16.2117 23.6685C16.2177 23.6685 16.2236 23.6685 16.2295 23.6685C16.2503 23.6551 16.2725 23.6566 16.2933 23.664H16.3111C16.3318 23.6507 16.3541 23.6522 16.3763 23.6611C16.3822 23.6611 16.3882 23.6611 16.3941 23.6611C16.3985 23.6581 16.403 23.6566 16.4059 23.6551C16.4134 23.6522 16.4193 23.6522 16.4267 23.6522C16.4326 23.6522 16.44 23.6536 16.446 23.6566C16.5408 23.6522 16.6357 23.6492 16.7306 23.6433C17.4585 23.6003 18.1864 23.5425 18.9113 23.4624C20.0127 23.3408 21.1082 23.1748 22.1889 22.9287C22.9257 22.7612 23.6521 22.5596 24.3548 22.2765C24.7313 22.1238 25.0975 21.9503 25.4355 21.722C25.6401 21.5842 25.8283 21.43 25.9795 21.2328C26.0744 21.1068 26.1515 20.9719 26.1826 20.8148C26.1945 20.8029 26.1989 20.7866 26.2004 20.7718C26.2078 20.6591 26.2123 20.5464 26.2004 20.4338L26.1975 20.4323ZM16.4163 18.0456C16.2132 18.0337 16.0116 18.0219 15.8085 18.013C16.0116 18.0219 16.2132 18.0337 16.4163 18.0456ZM11.9171 21.7294C11.8845 21.7591 11.8519 21.7873 11.8193 21.8169C11.5895 22.0185 11.3523 22.2112 11.1047 22.3891C10.8572 22.567 10.6007 22.7316 10.3324 22.8798C10.2938 22.9006 10.2553 22.9213 10.2168 22.9421C10.1278 22.9895 10.0374 23.034 9.94547 23.0755C9.85356 23.117 9.76165 23.157 9.66677 23.1926C9.4785 23.2652 9.28727 23.326 9.0901 23.3735C9.00412 23.3942 8.91814 23.4105 8.83216 23.4239C8.80251 23.4283 8.77138 23.4342 8.74173 23.4372C8.62461 23.4535 8.5075 23.4624 8.39039 23.4654C8.35036 23.4654 8.31182 23.4654 8.27179 23.4654C8.23177 23.4654 8.19322 23.4639 8.1532 23.4624C8.13541 23.4624 8.1191 23.4594 8.1028 23.458C8.08649 23.4565 8.0687 23.4535 8.05239 23.452C8.03164 23.4505 8.01385 23.4417 7.99754 23.4268C7.95159 23.3838 7.90563 23.3408 7.86264 23.2964C7.79741 23.2297 7.73663 23.1585 7.67882 23.0859C7.64027 23.0369 7.60321 22.9865 7.56763 22.9361C7.54985 22.9109 7.53206 22.8843 7.51575 22.8591C7.51427 22.8576 7.51427 22.8546 7.51278 22.8516C7.51278 22.8472 7.5113 22.8427 7.50982 22.8398C7.50241 22.8324 7.49351 22.8264 7.48758 22.8175C7.40753 22.6886 7.33489 22.5566 7.26818 22.4232C7.23557 22.355 7.20444 22.2883 7.17479 22.2186C7.14514 22.149 7.11697 22.0793 7.09177 22.0096C7.08881 22.0007 7.08881 21.9918 7.08881 21.9829C7.04433 21.8984 7.02061 21.8065 6.99393 21.7176C6.93167 21.5174 6.88275 21.3129 6.84124 21.1083C6.83383 21.0712 6.82642 21.0357 6.82049 21.0001C6.81752 20.9853 6.81604 20.9719 6.81307 20.9571C6.81011 20.9393 6.80566 20.9215 6.8027 20.9037C6.8027 20.8993 6.8027 20.8948 6.8027 20.8904C6.80121 20.8741 6.79973 20.8592 6.79825 20.8429C6.77156 20.7273 6.75971 20.6102 6.74636 20.4946C6.70041 20.121 6.6841 19.7474 6.68262 19.3724C6.68262 19.2315 6.6841 19.0892 6.68855 18.9469C6.69151 18.8624 6.69448 18.7794 6.69892 18.6949C7.00727 18.6208 7.3171 18.557 7.6299 18.4977C8.16209 18.3969 8.69725 18.3154 9.2339 18.2487C9.24279 18.2487 9.25169 18.2457 9.2591 18.2457C9.26948 18.2457 9.27837 18.2427 9.28875 18.2442C9.29468 18.2442 9.30061 18.2442 9.30654 18.2472C9.39104 18.2294 9.47554 18.2205 9.56003 18.2116C9.59858 18.2072 9.63712 18.2042 9.67566 18.1997C10.2657 18.1345 10.8557 18.0841 11.4472 18.0485C11.6132 18.0382 11.7792 18.0293 11.9453 18.0219C12.3693 18.0011 12.7947 17.9878 13.2187 17.9803C13.4514 17.9759 13.6842 17.9729 13.9154 17.9729C14.2475 17.9729 14.5781 17.9774 14.9102 17.9848C14.839 18.1049 14.7649 18.2235 14.6908 18.3421C14.6374 18.428 14.5825 18.514 14.5277 18.6C14.4284 18.7527 14.3276 18.9024 14.2253 19.0522C14.0355 19.3279 13.8369 19.5992 13.6323 19.8645C13.5671 19.949 13.5018 20.032 13.4351 20.1151C13.4233 20.1299 13.4114 20.1447 13.3996 20.1581C13.3032 20.2781 13.2039 20.3967 13.1031 20.5124C12.9356 20.7066 12.7636 20.8963 12.5857 21.0816C12.5323 21.1379 12.4775 21.1943 12.4226 21.2491C12.2818 21.3914 12.1365 21.5293 11.9898 21.6657C12.0357 21.6672 12.0802 21.6701 12.1261 21.6716C12.0802 21.6701 12.0357 21.6672 11.9898 21.6657C11.966 21.6879 11.9423 21.7102 11.9171 21.7324V21.7294ZM12.7058 21.6924C12.8777 21.6983 13.0497 21.7028 13.2217 21.7057C13.0497 21.7028 12.8777 21.6983 12.7058 21.6924ZM24.0524 19.8645C24.0524 19.8645 24.0405 19.8764 24.0272 19.8868C24.0109 19.9001 23.9946 19.912 23.9782 19.9238C23.9619 19.9357 23.9441 19.9475 23.9278 19.9594C23.8952 19.9816 23.8626 20.0039 23.83 20.0246L23.8181 20.032C23.7915 20.0498 23.7633 20.0661 23.7351 20.0824C23.6936 20.1076 23.6536 20.1314 23.6106 20.1536C23.3245 20.3122 23.025 20.4412 22.7182 20.5539C22.4291 20.6606 22.1356 20.7525 21.8406 20.8355C21.4166 20.9541 20.9867 21.052 20.5553 21.1379C20.1343 21.2224 19.7133 21.2936 19.2893 21.3559C18.8653 21.4181 18.4398 21.4685 18.0144 21.513C17.875 21.5278 17.7357 21.5412 17.5949 21.5545C17.3147 21.5797 17.0345 21.6019 16.7543 21.6212C16.6135 21.6301 16.4741 21.639 16.3333 21.6479C16.019 21.6657 15.7047 21.679 15.3905 21.6894C15.3341 21.6909 15.2763 21.6939 15.2185 21.6953C15.1666 21.6968 15.1133 21.6983 15.0614 21.6998C15.1903 21.5412 15.3193 21.3825 15.4364 21.215C15.4527 21.1943 15.4705 21.1735 15.4868 21.1513C15.7388 20.8118 15.9805 20.4664 16.2132 20.1136C16.2266 20.0943 16.2903 19.995 16.3096 19.9653C16.4563 19.7385 16.6001 19.5087 16.7395 19.276C16.9678 18.895 17.1842 18.5081 17.3918 18.1167C17.7861 18.1508 18.1804 18.1909 18.5748 18.2398C18.6044 18.2427 18.6326 18.2487 18.6622 18.2531C18.8386 18.2665 19.0136 18.2931 19.187 18.3183C19.4108 18.351 19.6347 18.3865 19.8585 18.4251C20.1595 18.4755 20.4604 18.5318 20.7599 18.597C20.9215 18.6326 21.083 18.6682 21.2446 18.7038C21.2461 18.7038 21.2476 18.7038 21.2506 18.7038C21.252 18.7038 21.2535 18.7038 21.255 18.7038C21.2654 18.7053 21.2772 18.7053 21.2876 18.7067C21.3024 18.7067 21.3158 18.7112 21.3262 18.7245C21.6716 18.8135 22.0155 18.9054 22.3535 19.0181C22.3846 19.0284 22.4202 19.0314 22.4439 19.0581C22.5314 19.0729 22.6129 19.11 22.6945 19.1411C22.7671 19.1678 22.8397 19.1959 22.9124 19.2241C23.1169 19.3056 23.3186 19.3961 23.5142 19.4984C23.5913 19.5384 23.6669 19.5814 23.7411 19.6273C23.8404 19.6881 23.9367 19.7504 24.0272 19.823C24.0539 19.8438 24.0613 19.8527 24.0509 19.8645H24.0524Z" fill="#007FFF"/>
    <path d="M26.2072 14.2398C26.1983 14.0531 26.1272 13.8885 26.0189 13.7388C25.8663 13.5253 25.6691 13.3593 25.4541 13.2125C25.0895 12.9635 24.6907 12.7796 24.283 12.6151C24.0562 12.5247 23.8249 12.4416 23.5937 12.3675C23.2394 12.2534 22.8806 12.1555 22.5189 12.0681C22.0668 11.9569 21.6131 11.8605 21.1551 11.7775C20.8764 11.7271 20.5977 11.6782 20.3175 11.6367C20.3086 11.6367 20.3012 11.6367 20.2923 11.6352C20.2878 11.6352 20.2819 11.6352 20.2774 11.6352C20.2671 11.6352 20.2567 11.6337 20.2463 11.6322C20.2226 11.6293 20.1989 11.6248 20.1752 11.6189C20.0921 11.6056 20.0091 11.5922 19.9261 11.5789C19.8772 11.5729 19.8298 11.5655 19.7808 11.5581C19.7616 11.5551 19.7438 11.5522 19.7245 11.5507C19.5318 11.527 19.3376 11.5047 19.1449 11.4795C19.0885 11.4721 19.0322 11.4677 18.9759 11.4618C18.9195 11.4558 18.8632 11.4499 18.8084 11.438C18.4333 11.4039 18.0597 11.3654 17.6847 11.3343C17.6328 11.3298 17.5794 11.3254 17.5275 11.3224C17.2044 11.2972 16.8812 11.275 16.558 11.2587C16.4024 11.2512 16.2467 11.2438 16.091 11.2349C15.9724 11.229 15.8553 11.2231 15.7367 11.2186C15.4669 11.2083 15.1971 11.2023 14.9273 11.1964C14.8265 11.1949 14.7257 11.192 14.6264 11.1905C14.4574 11.1875 14.6264 11.1905 14.6264 11.1905C14.6264 11.1905 14.8117 10.4463 14.8858 10.0697C14.9421 9.78808 14.9911 9.50493 15.0341 9.22031C15.0622 9.03055 15.0874 8.83932 15.1082 8.64808C15.1304 8.44795 15.1482 8.24782 15.1615 8.04621C15.1749 7.83126 15.1838 7.6163 15.1882 7.40135C15.1927 7.11376 15.1838 6.82616 15.163 6.53857C15.1497 6.34882 15.1304 6.16055 15.1067 5.9708C15.0741 5.71285 15.0266 5.45639 14.9659 5.20437C14.9169 5.00128 14.8606 4.80115 14.7865 4.60547C14.782 4.60547 14.7791 4.60547 14.7746 4.60547C14.7702 4.60547 14.7672 4.60547 14.7628 4.60843C14.7509 4.61288 14.7391 4.61881 14.7272 4.62326C14.3996 4.76112 14.0897 4.93161 13.7903 5.12136C13.774 5.13173 13.7547 5.14063 13.7473 5.16287C13.8185 5.61649 13.8526 6.0716 13.857 6.53116C13.8629 7.18788 13.814 7.84015 13.7251 8.48946C13.6569 8.97867 13.5679 9.46491 13.4582 9.94522C13.3633 10.3633 13.2536 10.7769 13.1321 11.1875C12.8371 11.1905 12.5436 11.1994 12.2486 11.2097C11.8572 11.2231 11.4658 11.2409 11.0745 11.2661C10.7291 11.2883 10.3836 11.3105 10.0397 11.3402C9.59202 11.3787 9.14433 11.4232 8.69959 11.4781C8.59286 11.6989 8.48909 11.9228 8.38976 12.1481C8.24152 12.4832 8.10069 12.8226 7.96875 13.1636C7.97468 13.1636 7.98061 13.1621 7.98654 13.1606C8.50688 13.0865 9.02869 13.0257 9.55348 12.9738C9.7032 12.959 9.85293 12.9412 10.0041 12.9279C10.3748 12.8968 10.7483 12.876 11.1204 12.8523C11.6037 12.8212 12.0885 12.8019 12.5732 12.7871C12.5791 12.7871 12.5851 12.7871 12.591 12.7871C13.0046 12.7752 13.4167 12.7693 13.8303 12.7693C13.9341 12.7693 14.0379 12.7693 14.1416 12.7693C14.3773 12.7693 14.613 12.7722 14.8488 12.7767C15.1156 12.7811 15.3839 12.7915 15.6508 12.8004C15.6522 12.8004 15.6552 12.8004 15.6582 12.8004C15.9146 12.8093 16.1696 12.8182 16.4261 12.8315C16.6232 12.8404 16.8204 12.8552 17.0161 12.8701C17.0576 12.873 17.1006 12.876 17.1421 12.879C17.4371 12.8997 17.7321 12.922 18.0256 12.9442C18.0983 12.9501 18.1694 12.9605 18.2421 12.9664C18.6319 13.0005 19.0218 13.045 19.4102 13.0939C19.5837 13.1162 19.7571 13.1384 19.9306 13.1621C20.2967 13.2125 20.6614 13.2733 21.0261 13.337C21.3759 13.3978 21.7258 13.4675 22.0727 13.5461C22.3781 13.6157 22.6805 13.6913 22.9829 13.7729C23.3787 13.8796 23.7671 14.0056 24.1511 14.1479C24.4831 14.271 24.8033 14.4163 25.1132 14.5867C25.3266 14.7039 25.5297 14.8358 25.715 14.9944C25.8826 15.1397 26.0293 15.3013 26.1272 15.5029C26.1657 15.5829 26.1835 15.6704 26.2102 15.7549C26.2102 15.5874 26.2131 15.4199 26.2131 15.2524C26.2131 15.0033 26.2131 14.7543 26.2131 14.5052C26.2131 14.4148 26.2161 14.3243 26.2131 14.2339L26.2072 14.2398Z" fill="#FF1100"/>
    <path d="M16.3552 2.33743C16.2959 2.31816 16.2336 2.30482 16.1758 2.27665C16.1758 2.26924 16.1758 2.26034 16.1773 2.25293C16.2484 2.27517 16.3166 2.30482 16.3804 2.34632C16.3715 2.34336 16.3641 2.34039 16.3552 2.33743V2.33743Z" fill="#404A5A"/>
    <path d="M16.1456 2.26465C16.1456 2.26465 16.1501 2.26761 16.153 2.2691H16.1515C16.1515 2.2691 16.1412 2.27058 16.1367 2.26465C16.1397 2.26465 16.1426 2.26465 16.1456 2.26465Z" fill="#404A5A"/>
    <path d="M8.89077 6.80273C8.89077 6.80273 8.88928 6.80866 8.88632 6.81163H8.88484C8.88484 6.81163 8.88039 6.81608 8.87891 6.81608V6.81311C8.87891 6.81311 8.88187 6.8057 8.88484 6.80422C8.88484 6.80422 8.8878 6.80422 8.88928 6.80273H8.89077Z" fill="#404A5A"/>
    <path d="M9.21364 6.39337C9.21364 6.39337 9.20771 6.3993 9.20475 6.40078C9.20178 6.40374 9.19585 6.40523 9.19141 6.40671C9.19141 6.40374 9.19141 6.40226 9.19141 6.3993C9.19141 6.39781 9.19141 6.39485 9.19141 6.39337C9.19141 6.39337 9.19437 6.38595 9.19734 6.38299C9.2003 6.38002 9.20327 6.37706 9.20623 6.37409C9.2092 6.37113 9.21364 6.36965 9.21809 6.36816C9.21809 6.37409 9.21809 6.37854 9.21809 6.38299C9.21809 6.38595 9.21661 6.38892 9.21364 6.39188V6.39485V6.39337Z" fill="#404A5A"/>
    <path d="M9.33554 6.22719H9.33109L9.32812 6.23016C9.32812 6.23016 9.33554 6.21978 9.33998 6.21533C9.33998 6.21533 9.33998 6.2183 9.33998 6.21978C9.33998 6.22423 9.3385 6.22571 9.33554 6.22867V6.22719Z" fill="#215CB5"/>
    <path d="M9.39992 6.13245C9.39992 6.13245 9.40288 6.12504 9.40585 6.12355C9.40733 6.12355 9.40881 6.12355 9.4103 6.12207C9.4103 6.12355 9.4103 6.12504 9.40881 6.12652C9.40881 6.128 9.40881 6.12948 9.40733 6.13096C9.40733 6.13096 9.40585 6.13245 9.40437 6.13393C9.40437 6.13393 9.4014 6.13541 9.39844 6.13689C9.39844 6.13689 9.39844 6.13393 9.39844 6.13245H9.39992Z" fill="#215CB5"/>
    <path d="M14.9375 1.7118C14.9523 1.70587 14.9627 1.7118 14.9701 1.72366C14.9568 1.72662 14.9434 1.72959 14.9375 1.7118Z" fill="#FEC35E"/>
    <path d="M11.2383 4.16664C11.2383 4.16664 11.2472 4.15923 11.2516 4.15479C11.2516 4.15479 11.2516 4.15627 11.2516 4.15775C11.2516 4.16072 11.2501 4.1622 11.2487 4.16516C11.2487 4.16516 11.2442 4.16813 11.2398 4.16664H11.2383Z" fill="#404A5A"/>
    <path d="M11.3292 4.07476C11.3292 4.07476 11.3381 4.07179 11.344 4.07031C11.344 4.07772 11.3425 4.08069 11.3396 4.08365C11.3351 4.08662 11.3262 4.08365 11.3203 4.08514C11.3233 4.08069 11.3262 4.07773 11.3307 4.07476H11.3292Z" fill="#404A5A"/>
    <path d="M11.3883 4.0362C11.3883 4.0362 11.3869 4.04213 11.3839 4.0451C11.3839 4.0451 11.3839 4.0451 11.3809 4.0451C11.3794 4.0451 11.378 4.0451 11.375 4.0451C11.3794 4.04065 11.3839 4.03472 11.3869 4.03027C11.3869 4.03027 11.3869 4.03324 11.3869 4.03472L11.3883 4.0362Z" fill="#404A5A"/>
    <path d="M12.1618 3.4239C12.1618 3.4239 12.1603 3.42686 12.1588 3.42835C12.1573 3.42983 12.1529 3.43131 12.1484 3.43131C12.1529 3.42686 12.1573 3.42242 12.1618 3.41797C12.1618 3.41945 12.1618 3.42242 12.1618 3.4239V3.4239Z" fill="#404A5A"/>
    <path d="M12.1486 3.43164V3.43461C12.1486 3.43461 12.1471 3.43905 12.1456 3.44054C12.1441 3.44202 12.1426 3.44054 12.1397 3.44054C12.1397 3.44054 12.1382 3.44054 12.1367 3.44054C12.1412 3.43757 12.1456 3.43609 12.1501 3.43312L12.1486 3.43164Z" fill="#404A5A"/>
    <path d="M16.1723 2.24854C15.7868 2.07657 15.3999 1.90609 15.0145 1.73265C14.9997 1.72523 14.9834 1.73265 14.97 1.72227C14.9567 1.72523 14.9433 1.7282 14.9374 1.71041C14.9211 1.71782 14.9063 1.71041 14.8915 1.70596C14.5535 1.60367 14.2081 1.57254 13.8567 1.59182C13.3912 1.61553 12.9435 1.72968 12.5107 1.8972C12.3743 1.94908 12.2409 2.0069 12.1089 2.06916C12.0763 2.08547 12.0437 2.10029 12.0111 2.1166C11.9725 2.13587 11.9355 2.15514 11.8969 2.17441C11.8465 2.19962 11.7961 2.2263 11.7457 2.25447C11.4818 2.39826 11.2283 2.55837 10.9808 2.73033C10.9289 2.76591 10.8785 2.80297 10.8266 2.83855L10.797 2.86078C10.6754 2.94973 10.5568 3.04016 10.4382 3.13355C10.1447 3.3663 9.86302 3.61535 9.59173 3.87477C8.83569 4.59672 8.16414 5.39279 7.54893 6.23778C7.53262 6.26002 7.5178 6.28226 7.50149 6.30449C7.50149 6.30449 7.50149 6.31042 7.49853 6.31191C7.49704 6.31339 7.49408 6.31487 7.49111 6.31487C7.43626 6.39344 7.38141 6.47201 7.32656 6.55058C7.23465 6.68103 7.14422 6.81297 7.05528 6.94639C6.97078 7.0724 6.88776 7.20137 6.80475 7.32886C6.73952 7.43115 6.67577 7.53344 6.61203 7.63572C6.55569 7.72764 6.49936 7.81955 6.44451 7.91146C6.36594 8.04191 6.28886 8.17385 6.21325 8.30579C6.17471 8.3725 6.13765 8.43772 6.10059 8.50443C6.09614 8.51185 6.09169 8.51926 6.08576 8.52667C6.08576 8.53557 6.0828 8.54298 6.07983 8.54891C6.07687 8.55336 6.0739 8.55928 6.07094 8.56373C6.03536 8.62599 6.00126 8.68974 5.96717 8.752C5.83819 8.98919 5.7107 9.22787 5.58914 9.46802C5.53726 9.57031 5.48686 9.67111 5.43645 9.7734C5.16665 10.3264 4.91612 10.8867 4.68634 11.456C4.5633 11.7584 4.44767 12.0623 4.33648 12.3692C4.27867 12.5322 4.22085 12.6953 4.16452 12.8584C4.06223 13.1608 3.96884 13.4662 3.87693 13.7715C3.83987 13.8976 3.8028 14.0236 3.76723 14.1496C3.76723 14.1525 3.76574 14.1555 3.76426 14.1585C3.70941 14.3571 3.65752 14.5558 3.6086 14.7559C3.56413 14.9353 3.52114 15.1161 3.48111 15.297C3.44702 15.4511 3.41589 15.6068 3.38476 15.7625C3.37734 15.7995 3.36993 15.8366 3.364 15.8736C3.36104 15.8885 3.35807 15.9033 3.35511 15.9181C3.35511 15.924 3.35362 15.93 3.35214 15.9344C3.34621 15.9641 3.34028 15.9937 3.33435 16.0234C3.28988 16.2665 3.24985 16.5096 3.21576 16.7542C3.18166 16.9899 3.15201 17.2271 3.12829 17.4643C3.12236 17.5177 3.11792 17.571 3.11347 17.6229C3.11347 17.6274 3.11347 17.6303 3.11347 17.6348C3.10902 17.6748 3.10754 17.7045 3.10457 17.7326C3.0942 17.8646 3.08382 17.9965 3.07641 18.1284C3.069 18.2604 3.06307 18.3938 3.05862 18.5257C3.05862 18.5435 3.05862 18.5598 3.05714 18.5776C3.04972 18.8326 3.04824 19.0876 3.05565 19.3411C3.06307 19.5812 3.07641 19.8214 3.09865 20.0601C3.12088 20.2987 3.15053 20.5374 3.19204 20.7746C3.21131 20.8902 3.23503 21.0059 3.25875 21.12C3.34177 21.5069 3.45295 21.8864 3.60564 22.2526C3.61602 22.2778 3.62639 22.303 3.63825 22.3297C3.64863 22.3549 3.66049 22.3801 3.67235 22.4053C3.69903 22.4646 3.7272 22.5239 3.75537 22.5817C3.80429 22.678 3.85469 22.7729 3.90954 22.8648C4.05927 23.1168 4.23568 23.3526 4.4447 23.5645C4.49955 23.6209 4.55588 23.6742 4.61518 23.7246C4.72488 23.821 4.84199 23.9085 4.96652 23.987C4.99024 24.0019 5.01692 24.0108 5.03471 24.033C5.03768 24.036 5.03916 24.0404 5.04064 24.0434C5.0525 24.0404 5.0614 24.0434 5.06436 24.0552C5.11328 24.0671 5.15182 24.0997 5.1963 24.119C5.43349 24.2242 5.67068 24.3295 5.90639 24.4347C6.04129 24.494 6.17767 24.5533 6.31258 24.6126L6.33036 24.5978C6.28589 24.5711 6.24142 24.5444 6.19843 24.5163C6.15395 24.4851 6.11096 24.454 6.06945 24.4214C5.71663 24.1471 5.43942 23.8047 5.2126 23.4163C5.07474 23.1806 4.96207 22.933 4.86571 22.678C4.86275 22.6721 4.86127 22.6662 4.8583 22.6603C4.72933 22.3163 4.63445 21.962 4.5633 21.6018C4.52475 21.4091 4.4951 21.2149 4.46842 21.0192C4.46694 21.0059 4.46397 20.991 4.46249 20.9777C4.44915 20.8813 4.43877 20.785 4.42839 20.6886C4.41357 20.5463 4.40171 20.4055 4.3943 20.2632C4.39281 20.2276 4.38985 20.1935 4.38837 20.1579C4.38837 20.149 4.38837 20.1401 4.38837 20.1312C4.38096 19.9341 4.37354 19.7384 4.37503 19.5412C4.37503 19.5308 4.37503 19.519 4.37503 19.5086C4.37503 19.473 4.37503 19.4389 4.37503 19.4033C4.37947 19.2492 4.38392 19.095 4.38985 18.9408C4.39282 18.8637 4.39726 18.7866 4.40171 18.7096C4.40616 18.6325 4.4106 18.5554 4.41653 18.4783C4.43729 18.21 4.46397 17.9416 4.49659 17.6733C4.50845 17.5755 4.52179 17.4791 4.53513 17.3813C4.54995 17.2731 4.56626 17.1649 4.58405 17.0566C4.59739 16.9707 4.61222 16.8862 4.62556 16.8017C4.64187 16.7053 4.65965 16.6089 4.67744 16.5126C4.69968 16.391 4.72488 16.2695 4.7486 16.1479C4.77677 16.01 4.80642 15.8707 4.83755 15.7328C4.86571 15.6098 4.89536 15.4882 4.92501 15.3652C4.95762 15.2303 4.9932 15.0954 5.02878 14.9605C5.03768 14.9293 5.04657 14.8982 5.05695 14.8671C5.06584 14.8359 5.07622 14.8048 5.08363 14.7737C5.09994 14.7084 5.11328 14.6417 5.137 14.578C5.14293 14.5706 5.15034 14.5647 5.15182 14.5558C5.1711 14.4016 5.22595 14.2578 5.27338 14.111C5.29414 14.0458 5.31489 13.9806 5.33565 13.9153C5.36381 13.8234 5.39198 13.733 5.42015 13.6411C5.44387 13.5655 5.46758 13.4914 5.49279 13.4172C5.50316 13.3876 5.51206 13.3579 5.52243 13.3298C5.53578 13.2927 5.54912 13.2542 5.56246 13.2171C5.61879 13.0615 5.67364 12.9043 5.72998 12.7487C5.7537 12.6849 5.77741 12.6197 5.80262 12.5559C5.88563 12.3365 5.97161 12.1186 6.06056 11.9022C6.08576 11.8399 6.11096 11.7791 6.13765 11.7184C6.1584 11.6694 6.17916 11.6205 6.19991 11.5716C6.25031 11.456 6.30072 11.3403 6.35112 11.2247C6.39114 11.1343 6.43117 11.0439 6.47268 10.9534C6.50381 10.8838 6.53494 10.8156 6.56755 10.7474C6.65354 10.5635 6.741 10.3797 6.83143 10.1989C6.84774 10.1677 6.86553 10.1366 6.88331 10.1055C6.9011 10.0743 6.91889 10.0447 6.9352 10.0121C7.20056 9.45023 7.51187 8.91211 7.83208 8.37991C7.86024 8.33247 7.88989 8.28503 7.91806 8.23759C7.98477 8.12641 8.04851 8.01375 8.1256 7.90998C8.17304 7.84623 8.21603 7.77952 8.2605 7.71281C8.30349 7.6461 8.34648 7.57939 8.39244 7.51416C8.48287 7.38223 8.56737 7.24732 8.65779 7.11539C8.66965 7.09908 8.68151 7.08129 8.69337 7.0635C8.75415 6.97752 8.81642 6.89154 8.8772 6.80556V6.80259C8.8772 6.80259 8.88016 6.79518 8.88313 6.7937C8.88313 6.7937 8.88609 6.7937 8.88757 6.79222C8.97504 6.67362 9.06398 6.55503 9.15293 6.43643C9.15738 6.4305 9.16182 6.42605 9.16627 6.42161C9.16775 6.42012 9.17072 6.41716 9.1722 6.41568C9.17813 6.40975 9.18258 6.40382 9.18851 6.39789C9.18851 6.39492 9.18851 6.39344 9.18851 6.39047C9.18851 6.38899 9.18851 6.38603 9.18851 6.38454C9.18851 6.38454 9.19147 6.37713 9.19444 6.37417C9.1974 6.3712 9.20037 6.36824 9.20333 6.36527C9.2063 6.36231 9.21074 6.36083 9.21519 6.35934C9.21667 6.35786 9.21964 6.3549 9.22112 6.35193C9.25522 6.30894 9.2908 6.26595 9.32489 6.22296C9.32934 6.21851 9.3323 6.21258 9.33675 6.20813C9.33675 6.20517 9.33823 6.2022 9.33972 6.19924C9.33972 6.19627 9.34268 6.19479 9.34268 6.19183C9.34565 6.18738 9.35009 6.18293 9.35454 6.17849C9.35454 6.17849 9.35602 6.177 9.35751 6.17552C9.37233 6.16218 9.3916 6.15032 9.39457 6.12808C9.39457 6.12808 9.39457 6.12512 9.39457 6.12364C9.39457 6.11919 9.39753 6.11622 9.4005 6.11474C9.40198 6.11474 9.40346 6.11474 9.40494 6.11326C9.41532 6.10585 9.42422 6.09695 9.43311 6.08806C9.43459 6.08657 9.43608 6.08361 9.43904 6.08213C9.44497 6.07472 9.4509 6.0673 9.45535 6.05989C9.46276 6.04951 9.47017 6.03914 9.4761 6.02876C9.48203 6.02135 9.48648 6.01245 9.49241 6.00504C9.49686 5.99911 9.49982 5.99466 9.50427 5.98873C9.53095 5.95612 9.55764 5.92351 9.58432 5.89089C9.77111 5.6626 9.96382 5.43875 10.1625 5.22083C10.3181 5.04887 10.4782 4.88283 10.6413 4.71828C10.6695 4.69012 10.6976 4.66047 10.7258 4.6323C10.7792 4.57893 10.834 4.53001 10.8889 4.47961C10.9111 4.46034 10.9319 4.43958 10.9541 4.41883C10.9585 4.41438 10.963 4.40993 10.9674 4.40549C11.0356 4.34026 11.1053 4.27503 11.1735 4.20981C11.1735 4.20981 11.1765 4.20684 11.1779 4.20536C11.1957 4.18905 11.2165 4.17423 11.2358 4.1594C11.2402 4.15495 11.2447 4.15199 11.2491 4.14754C11.2491 4.14754 11.2521 4.14458 11.2535 4.1431C11.2743 4.12086 11.2965 4.1001 11.3173 4.07787C11.3203 4.07342 11.3232 4.07046 11.3277 4.06749C11.3321 4.06453 11.3366 4.06453 11.3425 4.06304C11.3484 4.06304 11.3544 4.06008 11.3588 4.05563C11.3618 4.05267 11.3647 4.0497 11.3677 4.04674C11.3707 4.04377 11.3721 4.04081 11.3736 4.03784C11.3781 4.03339 11.3825 4.02746 11.3855 4.02302C11.4403 3.9741 11.4967 3.92518 11.553 3.87774C11.5619 3.87033 11.5693 3.86291 11.5782 3.8555C11.6331 3.80955 11.6879 3.76359 11.7442 3.71912C11.8702 3.61831 11.9992 3.52047 12.1312 3.42856C12.1356 3.42559 12.14 3.42411 12.1445 3.42115C12.1445 3.42115 12.1534 3.41077 12.1578 3.40632C12.1875 3.38409 12.2171 3.36185 12.2483 3.34109C12.309 3.2981 12.3698 3.25511 12.4306 3.2136C12.4617 3.19285 12.4929 3.1721 12.5225 3.15282C12.5536 3.13207 12.5848 3.1128 12.6159 3.09353C12.7108 3.03423 12.8057 2.97641 12.902 2.92156C13.0073 2.86078 13.114 2.80149 13.2222 2.74664C13.5469 2.57912 13.8819 2.43829 14.2333 2.33452C14.2599 2.32711 14.2866 2.31969 14.3133 2.3108C14.5001 2.25891 14.6884 2.21889 14.8796 2.1922C14.9878 2.17738 15.0975 2.167 15.2072 2.16255C15.2902 2.15811 15.3732 2.15811 15.4563 2.15959C15.4844 2.15959 15.5111 2.16107 15.5393 2.16255C15.6223 2.167 15.7053 2.1759 15.7883 2.18776C15.9025 2.20406 16.0166 2.22482 16.1293 2.25447C16.1323 2.25447 16.1352 2.25447 16.1382 2.25447C16.1412 2.25447 16.1426 2.25743 16.1456 2.25891C16.1486 2.25891 16.15 2.2604 16.153 2.26188C16.1575 2.26336 16.1634 2.26484 16.1678 2.26781C16.1678 2.2604 16.1678 2.2515 16.1693 2.24409C16.1678 2.24261 16.1664 2.24112 16.1634 2.23964L16.1723 2.24854Z" fill="#F1ECE2"/>
    <path d="M14.9377 1.71194C14.9317 1.68822 14.9095 1.68525 14.8917 1.67784C14.5596 1.5296 14.2261 1.38284 13.8925 1.23607C13.8036 1.19753 13.7176 1.15157 13.6257 1.12044C13.6153 1.12637 13.605 1.12637 13.5931 1.12193C13.3648 1.04632 13.1276 1.00926 12.8875 0.994436C12.6681 0.981094 12.4487 0.994436 12.2307 1.02409C12.0514 1.04929 11.8749 1.08635 11.7 1.1323C11.3605 1.22273 11.0344 1.34726 10.7201 1.50291C10.5986 1.56221 10.4815 1.6304 10.3629 1.69415C10.3228 1.7149 10.2813 1.73417 10.2428 1.75641C9.90034 1.9595 9.56975 2.17891 9.25548 2.42351C9.17691 2.48429 9.09537 2.54359 9.02273 2.6103C8.9753 2.65329 8.92934 2.69628 8.87745 2.73334C8.86708 2.74075 8.85818 2.74668 8.84632 2.75409C8.83743 2.7615 8.82853 2.76892 8.82112 2.77633C8.81816 2.78819 8.81371 2.79708 8.80778 2.80301C8.80481 2.80598 8.80037 2.80746 8.79592 2.80894C8.79296 2.80894 8.79147 2.80894 8.78851 2.80894H8.78703C8.78703 2.80894 8.78258 2.80894 8.77961 2.80746C8.77665 2.80746 8.77517 2.81043 8.77368 2.81191C8.747 2.83118 8.73069 2.86528 8.70697 2.88455C8.70253 2.88751 8.69956 2.89048 8.69511 2.89196C8.62989 2.92606 8.58986 2.98832 8.53205 3.02983C8.47571 3.06985 8.42976 3.1247 8.37787 3.17214C8.12289 3.40637 7.88125 3.65542 7.64258 3.90743C7.56994 3.98452 7.50323 4.06753 7.43356 4.14759C7.39353 4.19354 7.34758 4.23357 7.30755 4.27952C7.19933 4.40405 7.09408 4.53006 6.98734 4.65606C6.90877 4.74946 6.83317 4.84433 6.76201 4.94366C6.70568 5.02223 6.63897 5.0919 6.57967 5.16899C6.39733 5.40173 6.22537 5.64189 6.05341 5.88204C5.88292 6.11923 5.72727 6.36383 5.56568 6.60695C5.4204 6.82487 5.28698 7.0502 5.14912 7.27257C5.09871 7.35559 5.05276 7.44157 5.00236 7.5231C4.91341 7.66542 4.83187 7.8107 4.75479 7.95894C4.70587 8.01676 4.6777 8.08643 4.64064 8.15166C4.56355 8.28656 4.49091 8.42443 4.4242 8.56526C4.40345 8.60973 4.37232 8.64976 4.35008 8.69423C4.28782 8.82024 4.22556 8.94625 4.16181 9.07077C4.00023 9.38357 3.85791 9.70674 3.71115 10.0269C3.55105 10.3738 3.41021 10.7281 3.26938 11.0839C3.17451 11.3241 3.07815 11.5657 3.00254 11.8133C2.99068 11.8533 2.96696 11.8904 2.95214 11.9304C2.8795 12.1439 2.80538 12.3573 2.7357 12.5723C2.67048 12.7695 2.6097 12.9681 2.55188 13.1682C2.49555 13.3595 2.44218 13.5522 2.3903 13.7449C2.28949 14.1185 2.19758 14.495 2.11901 14.873C2.09825 14.9738 2.07898 15.0747 2.05823 15.1755C1.99152 15.5179 1.93222 15.8633 1.8833 16.2087C1.83735 16.5378 1.80028 16.8684 1.77064 17.199C1.76767 17.2301 1.76619 17.2598 1.76322 17.2909C1.76322 17.3191 1.76322 17.3472 1.76322 17.3754C1.76322 17.3472 1.76322 17.3191 1.76322 17.2909C1.7484 17.4718 1.73802 17.6541 1.73061 17.8364C1.72171 18.0455 1.72023 18.253 1.71875 18.462C1.71875 18.5614 1.72913 18.6607 1.72764 18.76C1.72764 18.9127 1.7395 19.0639 1.7484 19.2151C1.75136 19.2714 1.75433 19.3263 1.76026 19.3826C1.76026 19.393 1.76174 19.4019 1.76322 19.4123C1.78101 19.5576 1.79287 19.7043 1.81363 19.8496C1.8329 19.9904 1.85217 20.1313 1.87885 20.2721C1.91591 20.4663 1.95149 20.662 2.01227 20.8517C2.03154 20.911 2.04192 20.9733 2.05823 21.0341C2.09381 21.1675 2.1368 21.2979 2.18424 21.4269C2.25243 21.6122 2.32952 21.7931 2.4155 21.971C2.54595 22.2437 2.70754 22.4987 2.89729 22.7344C3.07667 22.9583 3.28124 23.1554 3.51695 23.3215C3.52733 23.3274 3.53622 23.3348 3.5466 23.3407C3.56291 23.3526 3.58069 23.363 3.59848 23.3734C3.60738 23.3793 3.61776 23.3852 3.62813 23.3911C3.66075 23.4119 3.69336 23.4327 3.72449 23.4549C3.73339 23.4638 3.74376 23.4697 3.75266 23.4771C3.75266 23.4786 3.75414 23.4801 3.75562 23.4816C3.76155 23.489 3.77193 23.4905 3.78082 23.4934C4.18553 23.6728 4.59172 23.8522 4.99791 24.0316C5.01421 24.039 5.02904 24.0493 5.04979 24.0449C5.04831 24.0404 5.04535 24.0375 5.04386 24.0345C5.02607 24.0123 4.99939 24.0034 4.97567 23.9886C4.85115 23.91 4.73403 23.821 4.62433 23.7262C4.56504 23.6758 4.5087 23.6224 4.45385 23.5661C4.24483 23.3541 4.06842 23.1184 3.91869 22.8664C3.86384 22.7744 3.81196 22.6796 3.76452 22.5832C3.73487 22.5254 3.70818 22.4676 3.68002 22.4083C3.66816 22.3831 3.65778 22.3579 3.64592 22.3327C3.63555 22.3075 3.62369 22.2823 3.61331 22.2556C3.46062 21.8894 3.34943 21.5099 3.26642 21.123C3.24122 21.0089 3.21898 20.8932 3.19971 20.7776C3.1582 20.5404 3.12855 20.3017 3.10631 20.0631C3.08408 19.8244 3.07074 19.5842 3.06332 19.3441C3.05591 19.0891 3.05739 18.8341 3.06481 18.5806C3.06481 18.5628 3.06481 18.5465 3.06629 18.5287C3.07074 18.3968 3.07667 18.2634 3.08408 18.1314C3.09149 17.9995 3.10187 17.8676 3.11224 17.7356C3.11521 17.7075 3.11817 17.6778 3.12114 17.6378C3.12114 17.6333 3.12114 17.6304 3.12114 17.6259C3.12559 17.5726 3.13152 17.5192 3.13596 17.4673C3.16116 17.2301 3.19081 16.9944 3.22343 16.7572C3.25901 16.5126 3.29755 16.2695 3.34202 16.0264C3.34795 15.9967 3.35388 15.9671 3.35981 15.9374C3.35981 15.9315 3.36129 15.9256 3.36278 15.9211C3.36574 15.9063 3.36871 15.8915 3.37167 15.8767C3.37908 15.8396 3.38501 15.8025 3.39243 15.7655C3.42356 15.6098 3.45469 15.4556 3.48878 15.3C3.52881 15.1191 3.5718 14.9383 3.61627 14.7589C3.66519 14.5588 3.71708 14.3601 3.77193 14.1615C3.77193 14.1585 3.77193 14.1555 3.77489 14.1526C3.81047 14.0266 3.84605 13.9006 3.8846 13.7746C3.97651 13.4677 4.0699 13.1638 4.17219 12.8614C4.22704 12.6983 4.28485 12.5352 4.34415 12.3722C4.45533 12.0653 4.57096 11.7614 4.69401 11.459C4.92379 10.8897 5.17432 10.3294 5.44412 9.77641C5.49453 9.67412 5.54493 9.57183 5.59681 9.47103C5.71837 9.23087 5.84438 8.9922 5.97484 8.75501C6.00893 8.69127 6.04451 8.629 6.07861 8.56674C6.08157 8.56229 6.08454 8.55636 6.0875 8.55192C6.09195 8.5445 6.09491 8.53857 6.09343 8.52968C6.09788 8.52227 6.10381 8.51485 6.10826 8.50744C6.14532 8.44073 6.18386 8.37551 6.22092 8.3088C6.29653 8.17686 6.37361 8.04492 6.45218 7.91447C6.50703 7.82256 6.56336 7.73064 6.6197 7.63873C6.68344 7.53644 6.74719 7.43416 6.81241 7.33187C6.89395 7.2029 6.97845 7.07541 7.06295 6.9494C7.15189 6.81598 7.24232 6.68552 7.33423 6.55359C7.38908 6.47502 7.44393 6.39645 7.49878 6.31788C7.49878 6.3164 7.49878 6.31491 7.49878 6.31343C7.49878 6.31343 7.49878 6.31195 7.50027 6.31047C7.50175 6.30898 7.50471 6.3075 7.50768 6.3075C7.52399 6.28526 7.53881 6.26303 7.55512 6.24079C8.17033 5.3958 8.84188 4.59973 9.59792 3.87778C9.86921 3.61836 10.1509 3.36931 10.4444 3.13656C10.5615 3.04317 10.6816 2.95274 10.8031 2.86379L10.8328 2.84156C10.8832 2.8045 10.9351 2.76892 10.987 2.73334C11.2345 2.56138 11.4895 2.40127 11.7519 2.25748C11.8023 2.23079 11.8527 2.20411 11.9031 2.17742C11.9417 2.15815 11.9787 2.13888 12.0173 2.11961C12.0499 2.1033 12.0825 2.08848 12.1151 2.07217C12.247 2.00991 12.3805 1.95209 12.5168 1.90021C12.9512 1.73269 13.3974 1.61854 13.8629 1.59482C14.2142 1.57555 14.5596 1.60668 14.8976 1.70897C14.9125 1.71342 14.9273 1.72083 14.9436 1.71342L14.9377 1.71194ZM1.75433 18.9557C1.75433 18.9557 1.75433 18.9705 1.75433 18.9779C1.75433 18.9705 1.75433 18.9631 1.75433 18.9557Z" fill="#FDBF41"/>
    <path d="M7.49125 6.30765C7.49125 6.30765 7.49569 6.30469 7.49866 6.30469C7.49866 6.30765 7.49866 6.31062 7.49569 6.3121C7.49421 6.31358 7.49125 6.31506 7.48828 6.31506C7.48828 6.31358 7.48828 6.3121 7.48828 6.31062C7.48828 6.31062 7.48828 6.30913 7.48976 6.30765H7.49125Z" fill="#C18B00"/>
    <path d="M8.78476 2.78526C8.78476 2.78526 8.79513 2.77637 8.80255 2.77637C8.80699 2.77637 8.81292 2.77637 8.81885 2.77785C8.81589 2.78971 8.81144 2.7986 8.80551 2.80453C8.80255 2.8075 8.7981 2.80898 8.79365 2.81046C8.79069 2.81046 8.7892 2.81046 8.78624 2.81046H8.78476C8.78476 2.81046 8.78031 2.81046 8.77734 2.80898C8.77883 2.80009 8.78179 2.79267 8.78624 2.78674L8.78476 2.78526Z" fill="#C18B00"/>
    <path d="M13.5536 1.08906C13.2527 0.954159 12.9488 0.823704 12.6478 0.685837C12.3039 0.528699 11.9466 0.43234 11.5686 0.414551C11.4737 0.414551 11.3774 0.414551 11.2825 0.414551C11.2455 0.414551 11.2084 0.414551 11.1713 0.414551C10.9816 0.424928 10.7933 0.453094 10.6065 0.49312C10.0565 0.610233 9.54509 0.825187 9.05441 1.09499C8.56075 1.36628 8.1012 1.69093 7.66536 2.04672C7.60903 2.09267 7.54973 2.13418 7.50229 2.18755C7.49784 2.18903 7.49488 2.192 7.49191 2.19644V2.20089H7.48598C7.47412 2.21127 7.46078 2.22016 7.44892 2.23054C6.96565 2.64414 6.51647 3.09332 6.09249 3.56622C5.58846 4.12955 5.12297 4.724 4.68862 5.34218C4.04079 6.26278 3.46709 7.22933 2.95713 8.23146C2.6132 8.90745 2.29893 9.59679 2.01578 10.3024C1.72077 11.0377 1.45245 11.7819 1.23453 12.5439C1.21081 12.6284 1.18117 12.7114 1.15596 12.7959C0.978072 13.4244 0.823898 14.0574 0.70382 14.6993C0.601532 15.2434 0.518515 15.7889 0.465147 16.3404C0.425121 16.7407 0.398438 17.1409 0.398438 17.5427C0.398438 17.725 0.398438 17.9073 0.39992 18.0912C0.402885 18.1164 0.402885 18.1416 0.404367 18.1668C0.404367 18.2053 0.404367 18.2439 0.402885 18.2824C0.404367 18.5048 0.423639 18.7257 0.444393 18.9465C0.479972 19.3068 0.534822 19.6655 0.613391 20.0183C0.712715 20.4616 0.849099 20.8915 1.04478 21.3036C1.25381 21.7439 1.51768 22.1442 1.87495 22.4792C2.08249 22.6749 2.31227 22.8394 2.57021 22.9595C2.79999 23.0677 3.03273 23.1685 3.26399 23.2708C3.42262 23.3405 3.57975 23.4161 3.74282 23.4798C3.73393 23.4724 3.72355 23.465 3.71466 23.4576C3.68353 23.4339 3.65091 23.4131 3.6183 23.3924C3.60792 23.3864 3.59903 23.3805 3.58865 23.3746C3.57086 23.3642 3.55455 23.3538 3.53676 23.342C3.52639 23.336 3.51749 23.3286 3.50711 23.3227C3.27141 23.1567 3.06683 22.9595 2.88745 22.7356C2.6977 22.4999 2.53612 22.245 2.40566 21.9722C2.32116 21.7943 2.24259 21.6134 2.1744 21.4281C2.15661 21.4118 2.13882 21.394 2.12252 21.3777C2.1403 21.3955 2.15661 21.4118 2.1744 21.4281C2.12696 21.2992 2.08397 21.1687 2.04839 21.0353C2.03209 20.9745 2.02171 20.9122 2.00244 20.853C1.94166 20.6632 1.90756 20.4675 1.86902 20.2733C1.84233 20.134 1.82306 19.9917 1.80379 19.8508C1.78304 19.7055 1.77118 19.5588 1.75339 19.4135C1.75339 19.4031 1.75191 19.3942 1.75042 19.3839C1.75042 19.5706 1.75042 19.7574 1.75042 19.9427C1.75042 19.7559 1.75042 19.5692 1.75042 19.3839C1.74449 19.329 1.74301 19.2727 1.73856 19.2163C1.73115 19.0651 1.71781 18.9139 1.71781 18.7612C1.71781 18.6619 1.70743 18.5626 1.70891 18.4633C1.7104 18.2542 1.71188 18.0467 1.72077 17.8377C1.72819 17.6553 1.73856 17.4745 1.75339 17.2921C1.75635 17.261 1.75784 17.2314 1.7608 17.2002C1.79045 16.8696 1.82751 16.5391 1.87347 16.21C1.9209 15.8631 1.98168 15.5191 2.04839 15.1767C2.06767 15.0759 2.08842 14.9751 2.10917 14.8743C2.18774 14.4948 2.27965 14.1197 2.38046 13.7461C2.43235 13.5534 2.48571 13.3607 2.54205 13.1695C2.59986 12.9693 2.66212 12.7707 2.72587 12.5735C2.79554 12.3586 2.86967 12.1451 2.9423 11.9316C2.95565 11.8916 2.97937 11.8545 2.99271 11.8145C3.06979 11.5669 3.16467 11.3253 3.25955 11.0852C3.40038 10.7309 3.54121 10.3751 3.70131 10.0282C3.84808 9.70797 3.99039 9.3848 4.15198 9.072C4.21572 8.94748 4.27947 8.82147 4.34025 8.69546C4.36248 8.65099 4.39361 8.61244 4.41437 8.56649C4.48108 8.42566 4.55372 8.28779 4.6308 8.15289C4.66787 8.08766 4.69603 8.01799 4.74495 7.96017C4.82204 7.81193 4.90357 7.66665 4.99252 7.52433C5.04441 7.4428 5.08888 7.35534 5.13928 7.2738C5.27715 7.05144 5.41057 6.8261 5.55585 6.60819C5.71743 6.36507 5.87309 6.12046 6.04357 5.88327C6.21553 5.64312 6.38898 5.40296 6.56984 5.17022C6.62913 5.09461 6.69584 5.02494 6.75218 4.94489C6.82333 4.84556 6.89746 4.74921 6.97751 4.65729C7.08424 4.53129 7.1895 4.40528 7.29771 4.28075C7.33774 4.2348 7.38221 4.19477 7.42372 4.14882C7.4934 4.06877 7.56011 3.98575 7.63275 3.90866C7.87142 3.65665 8.11306 3.4076 8.36804 3.17337C8.41992 3.12593 8.46588 3.07257 8.52221 3.03106C8.58003 2.98955 8.62005 2.92729 8.68528 2.89319C8.68973 2.89023 8.69417 2.88874 8.69714 2.88578C8.72234 2.86651 8.73716 2.83241 8.76385 2.81314C8.76533 2.81166 8.7683 2.81017 8.76978 2.80869C8.77126 2.7998 8.77422 2.79238 8.77867 2.78645C8.78312 2.78053 8.78905 2.77756 8.79646 2.77756C8.80091 2.77756 8.80684 2.77756 8.81277 2.77904C8.82166 2.77163 8.83056 2.76422 8.83797 2.75681C8.84983 2.74939 8.85872 2.74198 8.8691 2.73605C8.92099 2.69899 8.96694 2.656 9.01438 2.61301C9.0885 2.5463 9.16855 2.487 9.24712 2.42622C9.5614 2.18162 9.89347 1.96222 10.2344 1.75912C10.273 1.7354 10.3145 1.71762 10.3545 1.69686C10.4731 1.63312 10.5902 1.56492 10.7118 1.50563C11.0261 1.34997 11.3522 1.22545 11.6917 1.13502C11.8666 1.08906 12.043 1.052 12.2224 1.0268C12.4403 0.99715 12.6597 0.98529 12.8791 0.99715C13.1178 1.01197 13.355 1.04904 13.5847 1.12464C13.5966 1.1276 13.607 1.12909 13.6174 1.12316C13.5981 1.1024 13.5684 1.1024 13.5447 1.09054L13.5536 1.08906Z" fill="#FF1100"/>
    <path d="M8.79499 2.69781C8.79499 2.69781 8.79054 2.69484 8.78906 2.69336C8.79054 2.69336 8.79351 2.69632 8.79499 2.69781Z" fill="#FF1100"/>
    <path d="M8.75391 2.67236C8.7628 2.67681 8.77021 2.68126 8.77763 2.68571C8.77021 2.68126 8.76132 2.67681 8.75391 2.67236Z" fill="#FF1100"/>
    <path d="M11.5673 0.414727H11.2812C11.2441 0.414727 11.2071 0.414727 11.17 0.414727C11.1685 0.410279 11.1655 0.405832 11.1641 0.399902C11.3004 0.399902 11.4368 0.399902 11.5717 0.399902C11.5717 0.40435 11.5688 0.408797 11.5673 0.414727V0.414727Z" fill="#FEC35E"/>
    <path d="M7.48734 2.20271H7.48438V2.19678H7.4903V2.20122H7.48734V2.20271Z" fill="#C18B00"/>
    <path opacity="0.48" d="M24.0418 19.8748C24.0803 19.8451 24.0803 19.8422 24.0418 19.811C23.9514 19.7384 23.855 19.6747 23.7557 19.6154C23.4251 19.4152 23.0723 19.2625 22.7091 19.1291C22.6261 19.0995 22.546 19.0624 22.4586 19.0461C22.4348 19.0194 22.3993 19.0165 22.3681 19.0061C22.0301 18.8934 21.6862 18.8015 21.3408 18.7126C21.3126 18.7096 21.2845 18.7037 21.2593 18.6903C21.0977 18.6547 20.9361 18.6192 20.7745 18.5851C20.475 18.5198 20.1756 18.4635 19.8732 18.4131C19.6493 18.376 19.4255 18.3405 19.2016 18.3078C19.0267 18.2826 18.8518 18.256 18.6754 18.2426C18.6457 18.2382 18.6175 18.2322 18.5879 18.2293C17.9712 18.1537 17.353 18.0959 16.7319 18.0543C16.3272 18.0262 15.921 18.0054 15.5163 17.9891C14.9856 17.9684 14.4563 17.9595 13.9256 17.9595C13.2674 17.9595 12.6107 17.9758 11.954 18.0069C11.195 18.044 10.4389 18.1018 9.68437 18.1863C9.56132 18.1996 9.4368 18.2085 9.31376 18.2337C9.28855 18.2278 9.26484 18.2337 9.23963 18.2367C8.70151 18.3034 8.16635 18.3849 7.63415 18.4857C7.31987 18.545 7.00708 18.6103 6.69577 18.6844L6.68984 18.6948C6.68984 18.6948 6.60978 19.8511 6.78768 20.9807C7.09454 21.0533 7.40289 21.1186 7.71124 21.1764C7.98697 21.2283 8.26419 21.2772 8.54289 21.3172C8.93277 21.3735 9.32413 21.4299 9.71698 21.4714C10.098 21.5114 10.479 21.5529 10.8614 21.5796C11.0882 21.5959 11.3136 21.6152 11.5404 21.6285C11.8754 21.6478 12.2104 21.6641 12.5455 21.676C12.8509 21.6863 13.1577 21.6952 13.4631 21.6997C13.9523 21.7056 14.4415 21.7041 14.9322 21.6937C15.4036 21.6834 15.875 21.6656 16.345 21.6389C16.9068 21.6078 17.4657 21.5633 18.0261 21.5055C18.8785 21.4165 19.7264 21.2994 20.567 21.1304C21.3008 20.9837 22.0272 20.8043 22.7313 20.5448C23.0382 20.4322 23.3376 20.3047 23.6237 20.1446C23.769 20.0645 23.9084 19.9771 24.0403 19.8748H24.0418Z" fill="url(#paint0_linear_10802_81518)"/>
    <defs>
        <linearGradient id="paint0_linear_10802_81518" x1="15.4047" y1="18.3933" x2="15.2966" y2="21.1921" gradientUnits="userSpaceOnUse">
            <stop offset="0.16" stop-color="#191919"/>
            <stop offset="0.97" stop-color="#191919" stop-opacity="0"/>
        </linearGradient>
    </defs>
</svg>
